<svg width="427" height="61" viewBox="0 0 427 61" fill="none" xmlns="http://www.w3.org/2000/svg">
<mask id="path-1-outside-1_436_10738" maskUnits="userSpaceOnUse" x="0" y="9" width="427" height="43" fill="black">
<rect fill="white" y="9" width="427" height="43"/>
<path d="M3.85 48V13H20.7C23.9667 13 26.7833 13.5333 29.15 14.6C31.55 15.6667 33.4 17.2 34.7 19.2C36 21.1667 36.65 23.5 36.65 26.2C36.65 28.9 36 31.2333 34.7 33.2C33.4 35.1667 31.55 36.7 29.15 37.8C26.7833 38.8667 23.9667 39.4 20.7 39.4H10.4L15.65 34.35V48H3.85ZM15.65 35.65L10.4 30.3H19.95C21.5833 30.3 22.7833 29.9333 23.55 29.2C24.35 28.4667 24.75 27.4667 24.75 26.2C24.75 24.9333 24.35 23.9333 23.55 23.2C22.7833 22.4667 21.5833 22.1 19.95 22.1H10.4L15.65 16.75V35.65ZM40.5199 48V13H52.3199V38.85H68.1199V48H40.5199ZM68.0676 48L83.3676 13H94.9676L110.268 48H98.0676L86.7676 18.6H91.3676L80.0676 48H68.0676ZM77.1676 41.9L80.1676 33.4H96.2676L99.2676 41.9H77.1676ZM129.763 48.8C126.963 48.8 124.363 48.3667 121.963 47.5C119.596 46.6 117.529 45.3333 115.763 43.7C114.029 42.0667 112.679 40.1333 111.713 37.9C110.746 35.6667 110.263 33.2 110.263 30.5C110.263 27.8 110.746 25.3333 111.713 23.1C112.679 20.8667 114.029 18.9333 115.763 17.3C117.529 15.6667 119.596 14.4167 121.963 13.55C124.363 12.65 126.963 12.2 129.763 12.2C133.196 12.2 136.229 12.8 138.863 14C141.529 15.2 143.729 16.9333 145.463 19.2L138.013 25.85C136.979 24.55 135.829 23.55 134.563 22.85C133.329 22.1167 131.929 21.75 130.363 21.75C129.129 21.75 128.013 21.95 127.013 22.35C126.013 22.75 125.146 23.3333 124.413 24.1C123.713 24.8667 123.163 25.8 122.763 26.9C122.363 27.9667 122.163 29.1667 122.163 30.5C122.163 31.8333 122.363 33.05 122.763 34.15C123.163 35.2167 123.713 36.1333 124.413 36.9C125.146 37.6667 126.013 38.25 127.013 38.65C128.013 39.05 129.129 39.25 130.363 39.25C131.929 39.25 133.329 38.9 134.563 38.2C135.829 37.4667 136.979 36.45 138.013 35.15L145.463 41.8C143.729 44.0333 141.529 45.7667 138.863 47C136.229 48.2 133.196 48.8 129.763 48.8ZM159.67 26H175.27V34.5H159.67V26ZM160.47 39.1H177.97V48H148.87V13H177.32V21.9H160.47V39.1ZM205.102 48V22.15H194.852V13H227.152V22.15H216.902V48H205.102ZM248.079 48.8C245.246 48.8 242.612 48.35 240.179 47.45C237.779 46.55 235.696 45.2833 233.929 43.65C232.162 41.9833 230.779 40.0333 229.779 37.8C228.812 35.5667 228.329 33.1333 228.329 30.5C228.329 27.8333 228.812 25.4 229.779 23.2C230.779 20.9667 232.162 19.0333 233.929 17.4C235.696 15.7333 237.779 14.45 240.179 13.55C242.612 12.65 245.246 12.2 248.079 12.2C250.946 12.2 253.579 12.65 255.979 13.55C258.379 14.45 260.462 15.7333 262.229 17.4C263.996 19.0333 265.362 20.9667 266.329 23.2C267.329 25.4 267.829 27.8333 267.829 30.5C267.829 33.1333 267.329 35.5667 266.329 37.8C265.362 40.0333 263.996 41.9833 262.229 43.65C260.462 45.2833 258.379 46.55 255.979 47.45C253.579 48.35 250.946 48.8 248.079 48.8ZM248.079 39.25C249.179 39.25 250.196 39.05 251.129 38.65C252.096 38.25 252.929 37.6833 253.629 36.95C254.362 36.1833 254.929 35.2667 255.329 34.2C255.729 33.1 255.929 31.8667 255.929 30.5C255.929 29.1333 255.729 27.9167 255.329 26.85C254.929 25.75 254.362 24.8333 253.629 24.1C252.929 23.3333 252.096 22.75 251.129 22.35C250.196 21.95 249.179 21.75 248.079 21.75C246.979 21.75 245.946 21.95 244.979 22.35C244.046 22.75 243.212 23.3333 242.479 24.1C241.779 24.8333 241.229 25.75 240.829 26.85C240.429 27.9167 240.229 29.1333 240.229 30.5C240.229 31.8667 240.429 33.1 240.829 34.2C241.229 35.2667 241.779 36.1833 242.479 36.95C243.212 37.6833 244.046 38.25 244.979 38.65C245.946 39.05 246.979 39.25 248.079 39.25ZM298.102 48L283.302 13H296.002L308.052 42.55H300.502L312.902 13H324.502L309.702 48H298.102ZM325.676 48V13H337.476V48H325.676ZM356.207 48.8C353.273 48.8 350.44 48.4667 347.707 47.8C344.973 47.1333 342.723 46.2667 340.957 45.2L344.757 36.6C346.423 37.5667 348.273 38.35 350.307 38.95C352.373 39.5167 354.373 39.8 356.307 39.8C357.44 39.8 358.323 39.7333 358.957 39.6C359.623 39.4333 360.107 39.2167 360.407 38.95C360.707 38.65 360.857 38.3 360.857 37.9C360.857 37.2667 360.507 36.7667 359.807 36.4C359.107 36.0333 358.173 35.7333 357.007 35.5C355.873 35.2333 354.623 34.9667 353.257 34.7C351.89 34.4 350.507 34.0167 349.107 33.55C347.74 33.0833 346.473 32.4667 345.307 31.7C344.173 30.9333 343.257 29.9333 342.557 28.7C341.857 27.4333 341.507 25.8667 341.507 24C341.507 21.8333 342.107 19.8667 343.307 18.1C344.54 16.3 346.357 14.8667 348.757 13.8C351.19 12.7333 354.207 12.2 357.807 12.2C360.173 12.2 362.507 12.45 364.807 12.95C367.107 13.45 369.173 14.2167 371.007 15.25L367.457 23.8C365.723 22.9333 364.04 22.2833 362.407 21.85C360.807 21.4167 359.24 21.2 357.707 21.2C356.573 21.2 355.673 21.3 355.007 21.5C354.34 21.7 353.857 21.9667 353.557 22.3C353.29 22.6333 353.157 23 353.157 23.4C353.157 24 353.507 24.4833 354.207 24.85C354.907 25.1833 355.823 25.4667 356.957 25.7C358.123 25.9333 359.39 26.1833 360.757 26.45C362.157 26.7167 363.54 27.0833 364.907 27.55C366.273 28.0167 367.523 28.6333 368.657 29.4C369.823 30.1667 370.757 31.1667 371.457 32.4C372.157 33.6333 372.507 35.1667 372.507 37C372.507 39.1333 371.89 41.1 370.657 42.9C369.457 44.6667 367.657 46.1 365.257 47.2C362.857 48.2667 359.84 48.8 356.207 48.8ZM376.018 48V13H387.818V48H376.018ZM401.098 48V22.15H390.848V13H423.148V22.15H412.898V48H401.098Z"/>
</mask>
<path d="M3.85 48H0.85V51H3.85V48ZM3.85 13V10H0.85V13H3.85ZM29.15 14.6L27.9173 17.335L27.9244 17.3383L27.9316 17.3414L29.15 14.6ZM34.7 19.2L32.1847 20.835L32.191 20.8447L32.1973 20.8543L34.7 19.2ZM34.7 33.2L32.1973 31.5457V31.5457L34.7 33.2ZM29.15 37.8L30.3827 40.535L30.3913 40.5311L30.4 40.5272L29.15 37.8ZM10.4 39.4L8.32026 37.2379L2.95372 42.4H10.4V39.4ZM15.65 34.35H18.65V27.3017L13.5703 32.1879L15.65 34.35ZM15.65 48V51H18.65V48H15.65ZM15.65 35.65L13.5088 37.7512L18.65 42.9904V35.65H15.65ZM10.4 30.3V27.3H3.2529L8.25876 32.4012L10.4 30.3ZM23.55 29.2L21.5228 26.9885L21.4993 27.0101L21.4763 27.0321L23.55 29.2ZM23.55 23.2L21.4763 25.3679L21.4993 25.3899L21.5228 25.4115L23.55 23.2ZM10.4 22.1L8.25876 19.9988L3.2529 25.1H10.4V22.1ZM15.65 16.75H18.65V9.40962L13.5088 14.6488L15.65 16.75ZM3.85 48H6.85V13H3.85H0.85V48H3.85ZM3.85 13V16H20.7V13V10H3.85V13ZM20.7 13V16C23.648 16 26.0246 16.482 27.9173 17.335L29.15 14.6L30.3827 11.865C27.5421 10.5847 24.2854 10 20.7 10V13ZM29.15 14.6L27.9316 17.3414C29.857 18.1972 31.2325 19.3701 32.1847 20.835L34.7 19.2L37.2153 17.565C35.5675 15.0299 33.243 13.1362 30.3684 11.8586L29.15 14.6ZM34.7 19.2L32.1973 20.8543C33.1277 22.2617 33.65 24.0004 33.65 26.2H36.65H39.65C39.65 22.9996 38.8723 20.0716 37.2027 17.5457L34.7 19.2ZM36.65 26.2H33.65C33.65 28.3996 33.1277 30.1383 32.1973 31.5457L34.7 33.2L37.2027 34.8543C38.8723 32.3284 39.65 29.4004 39.65 26.2H36.65ZM34.7 33.2L32.1973 31.5457C31.2425 32.9902 29.8533 34.1776 27.9 35.0728L29.15 37.8L30.4 40.5272C33.2467 39.2224 35.5575 37.3431 37.2027 34.8543L34.7 33.2ZM29.15 37.8L27.9173 35.065C26.0246 35.918 23.648 36.4 20.7 36.4V39.4V42.4C24.2854 42.4 27.5421 41.8153 30.3827 40.535L29.15 37.8ZM20.7 39.4V36.4H10.4V39.4V42.4H20.7V39.4ZM10.4 39.4L12.4797 41.5621L17.7297 36.5121L15.65 34.35L13.5703 32.1879L8.32026 37.2379L10.4 39.4ZM15.65 34.35H12.65V48H15.65H18.65V34.35H15.65ZM15.65 48V45H3.85V48V51H15.65V48ZM15.65 35.65L17.7912 33.5488L12.5412 28.1988L10.4 30.3L8.25876 32.4012L13.5088 37.7512L15.65 35.65ZM10.4 30.3V33.3H19.95V30.3V27.3H10.4V30.3ZM19.95 30.3V33.3C21.951 33.3 24.0622 32.8615 25.6237 31.3679L23.55 29.2L21.4763 27.0321C21.5045 27.0052 21.2157 27.3 19.95 27.3V30.3ZM23.55 29.2L25.5772 31.4115C27.1021 30.0136 27.75 28.1537 27.75 26.2H24.75H21.75C21.75 26.7797 21.5979 26.9197 21.5228 26.9885L23.55 29.2ZM24.75 26.2H27.75C27.75 24.2463 27.1021 22.3864 25.5772 20.9885L23.55 23.2L21.5228 25.4115C21.5979 25.4803 21.75 25.6203 21.75 26.2H24.75ZM23.55 23.2L25.6237 21.0321C24.0622 19.5385 21.951 19.1 19.95 19.1V22.1V25.1C21.2157 25.1 21.5045 25.3948 21.4763 25.3679L23.55 23.2ZM19.95 22.1V19.1H10.4V22.1V25.1H19.95V22.1ZM10.4 22.1L12.5412 24.2012L17.7912 18.8512L15.65 16.75L13.5088 14.6488L8.25876 19.9988L10.4 22.1ZM15.65 16.75H12.65V35.65H15.65H18.65V16.75H15.65ZM40.5199 48H37.5199V51H40.5199V48ZM40.5199 13V10H37.5199V13H40.5199ZM52.3199 13H55.3199V10H52.3199V13ZM52.3199 38.85H49.3199V41.85H52.3199V38.85ZM68.1199 38.85H71.1199V35.85H68.1199V38.85ZM68.1199 48V51H71.1199V48H68.1199ZM40.5199 48H43.5199V13H40.5199H37.5199V48H40.5199ZM40.5199 13V16H52.3199V13V10H40.5199V13ZM52.3199 13H49.3199V38.85H52.3199H55.3199V13H52.3199ZM52.3199 38.85V41.85H68.1199V38.85V35.85H52.3199V38.85ZM68.1199 38.85H65.1199V48H68.1199H71.1199V38.85H68.1199ZM68.1199 48V45H40.5199V48V51H68.1199V48ZM68.0676 48L65.3187 46.7984L63.482 51H68.0676V48ZM83.3676 13V10H81.4049L80.6187 11.7984L83.3676 13ZM94.9676 13L97.7164 11.7984L96.9303 10H94.9676V13ZM110.268 48V51H114.853L113.016 46.7984L110.268 48ZM98.0676 48L95.2673 49.0763L96.0067 51H98.0676V48ZM86.7676 18.6V15.6H82.4006L83.9673 19.6763L86.7676 18.6ZM91.3676 18.6L94.1679 19.6763L95.7346 15.6H91.3676V18.6ZM80.0676 48V51H82.1285L82.8679 49.0763L80.0676 48ZM77.1676 41.9L74.3386 40.9015L72.9274 44.9H77.1676V41.9ZM80.1676 33.4V30.4H78.045L77.3386 32.4015L80.1676 33.4ZM96.2676 33.4L99.0965 32.4015L98.3901 30.4H96.2676V33.4ZM99.2676 41.9V44.9H103.508L102.097 40.9015L99.2676 41.9ZM68.0676 48L70.8164 49.2016L86.1164 14.2016L83.3676 13L80.6187 11.7984L65.3187 46.7984L68.0676 48ZM83.3676 13V16H94.9676V13V10H83.3676V13ZM94.9676 13L92.2188 14.2016L107.519 49.2016L110.268 48L113.016 46.7984L97.7164 11.7984L94.9676 13ZM110.268 48V45H98.0676V48V51H110.268V48ZM98.0676 48L100.868 46.9237L89.5679 17.5237L86.7676 18.6L83.9673 19.6763L95.2673 49.0763L98.0676 48ZM86.7676 18.6V21.6H91.3676V18.6V15.6H86.7676V18.6ZM91.3676 18.6L88.5673 17.5237L77.2673 46.9237L80.0676 48L82.8679 49.0763L94.1679 19.6763L91.3676 18.6ZM80.0676 48V45H68.0676V48V51H80.0676V48ZM77.1676 41.9L79.9966 42.8985L82.9966 34.3985L80.1676 33.4L77.3386 32.4015L74.3386 40.9015L77.1676 41.9ZM80.1676 33.4V36.4H96.2676V33.4V30.4H80.1676V33.4ZM96.2676 33.4L93.4386 34.3985L96.4386 42.8985L99.2676 41.9L102.097 40.9015L99.0965 32.4015L96.2676 33.4ZM99.2676 41.9V38.9H77.1676V41.9V44.9H99.2676V41.9ZM121.963 47.5L120.896 50.3041L120.92 50.3131L120.944 50.3217L121.963 47.5ZM115.762 43.7L113.705 45.8834L113.715 45.8931L113.726 45.9028L115.762 43.7ZM111.713 37.9L108.959 39.0917L111.713 37.9ZM111.713 23.1L108.959 21.9083L111.713 23.1ZM115.762 17.3L113.726 15.0972L113.715 15.1069L113.705 15.1166L115.762 17.3ZM121.963 13.55L122.994 16.3671L123.005 16.3631L123.016 16.359L121.963 13.55ZM138.863 14L137.618 16.7299L137.625 16.7329L137.631 16.7358L138.863 14ZM145.463 19.2L147.46 21.4381L149.535 19.5864L147.846 17.3776L145.463 19.2ZM138.012 25.85L135.664 27.7167L137.641 30.2033L140.01 28.0881L138.012 25.85ZM134.562 22.85L133.029 25.4286L133.07 25.4528L133.111 25.4757L134.562 22.85ZM127.013 22.35L128.127 25.1354L128.127 25.1354L127.013 22.35ZM124.412 24.1L122.245 22.0263L122.221 22.0515L122.197 22.0772L124.412 24.1ZM122.762 26.9L125.571 27.9534L125.577 27.9393L125.582 27.9252L122.762 26.9ZM122.762 34.15L119.943 35.1752L119.948 35.1893L119.954 35.2034L122.762 34.15ZM124.412 36.9L122.197 38.9228L122.221 38.9485L122.245 38.9737L124.412 36.9ZM127.013 38.65L125.898 41.4354L127.013 38.65ZM134.562 38.2L136.043 40.8091L136.054 40.8027L136.066 40.7963L134.562 38.2ZM138.012 35.15L140.01 32.9119L137.641 30.7967L135.664 33.2833L138.012 35.15ZM145.463 41.8L147.832 43.6394L149.55 41.4269L147.46 39.5619L145.463 41.8ZM138.863 47L140.107 49.7299L140.114 49.7264L140.122 49.7229L138.863 47ZM129.762 48.8V45.8C127.276 45.8 125.024 45.4161 122.981 44.6783L121.963 47.5L120.944 50.3217C123.701 51.3173 126.649 51.8 129.762 51.8V48.8ZM121.963 47.5L123.029 44.6959C121.002 43.9251 119.269 42.8563 117.799 41.4972L115.762 43.7L113.726 45.9028C115.789 47.8103 118.19 49.2749 120.896 50.3041L121.963 47.5ZM115.762 43.7L117.82 41.5166C116.39 40.1693 115.274 38.5756 114.466 36.7083L111.713 37.9L108.959 39.0917C110.084 41.6911 111.668 43.964 113.705 45.8834L115.762 43.7ZM111.713 37.9L114.466 36.7083C113.679 34.8904 113.262 32.8351 113.262 30.5H110.262H107.262C107.262 33.5649 107.813 36.4429 108.959 39.0917L111.713 37.9ZM110.262 30.5H113.262C113.262 28.1649 113.679 26.1096 114.466 24.2917L111.713 23.1L108.959 21.9083C107.813 24.5571 107.262 27.4351 107.262 30.5H110.262ZM111.713 23.1L114.466 24.2917C115.274 22.4244 116.39 20.8307 117.82 19.4834L115.762 17.3L113.705 15.1166C111.668 17.036 110.084 19.3089 108.959 21.9083L111.713 23.1ZM115.762 17.3L117.799 19.5028C119.261 18.1513 120.982 17.104 122.994 16.3671L121.963 13.55L120.931 10.7329C118.21 11.7293 115.797 13.182 113.726 15.0972L115.762 17.3ZM121.963 13.55L123.016 16.359C125.049 15.5965 127.289 15.2 129.762 15.2V12.2V9.2C126.636 9.2 123.676 9.70352 120.909 10.741L121.963 13.55ZM129.762 12.2V15.2C132.846 15.2 135.442 15.738 137.618 16.7299L138.863 14L140.107 11.2701C137.017 9.86203 133.546 9.2 129.762 9.2V12.2ZM138.863 14L137.631 16.7358C139.856 17.7368 141.656 19.1611 143.079 21.0223L145.463 19.2L147.846 17.3776C145.802 14.7056 143.202 12.6632 140.094 11.2642L138.863 14ZM145.463 19.2L143.465 16.9619L136.015 23.6119L138.012 25.85L140.01 28.0881L147.46 21.4381L145.463 19.2ZM138.012 25.85L140.361 23.9833C139.117 22.4189 137.674 21.1418 136.014 20.2243L134.562 22.85L133.111 25.4757C133.985 25.9582 134.841 26.6811 135.664 27.7167L138.012 25.85ZM134.562 22.85L136.096 20.2714C134.356 19.2372 132.418 18.75 130.363 18.75V21.75V24.75C131.441 24.75 132.302 24.9961 133.029 25.4286L134.562 22.85ZM130.363 21.75V18.75C128.802 18.75 127.3 19.0038 125.898 19.5646L127.013 22.35L128.127 25.1354C128.725 24.8962 129.456 24.75 130.363 24.75V21.75ZM127.013 22.35L125.898 19.5646C124.506 20.1213 123.279 20.945 122.245 22.0263L124.412 24.1L126.58 26.1737C127.013 25.7216 127.519 25.3787 128.127 25.1354L127.013 22.35ZM124.412 24.1L122.197 22.0772C121.201 23.1684 120.46 24.4528 119.943 25.8748L122.762 26.9L125.582 27.9252C125.865 27.1472 126.224 26.565 126.628 26.1228L124.412 24.1ZM122.762 26.9L119.954 25.8466C119.408 27.3022 119.162 28.8671 119.162 30.5H122.162H125.162C125.162 29.4663 125.317 28.6311 125.571 27.9534L122.762 26.9ZM122.162 30.5H119.162C119.162 32.1349 119.408 33.7043 119.943 35.1752L122.762 34.15L125.582 33.1248C125.317 32.3957 125.162 31.5317 125.162 30.5H122.162ZM122.762 34.15L119.954 35.2034C120.475 36.5931 121.215 37.8475 122.197 38.9228L124.412 36.9L126.628 34.8772C126.21 34.4192 125.85 33.8402 125.571 33.0966L122.762 34.15ZM124.412 36.9L122.245 38.9737C123.279 40.055 124.506 40.8787 125.898 41.4354L127.013 38.65L128.127 35.8646C127.519 35.6213 127.013 35.2784 126.58 34.8263L124.412 36.9ZM127.013 38.65L125.898 41.4354C127.3 41.9962 128.802 42.25 130.363 42.25V39.25V36.25C129.456 36.25 128.725 36.1038 128.127 35.8646L127.013 38.65ZM130.363 39.25V42.25C132.393 42.25 134.312 41.7915 136.043 40.8091L134.562 38.2L133.082 35.5909C132.346 36.0085 131.466 36.25 130.363 36.25V39.25ZM134.562 38.2L136.066 40.7963C137.698 39.8512 139.125 38.5714 140.361 37.0167L138.012 35.15L135.664 33.2833C134.833 34.3286 133.96 35.0821 133.059 35.6037L134.562 38.2ZM138.012 35.15L136.015 37.3881L143.465 44.0381L145.463 41.8L147.46 39.5619L140.01 32.9119L138.012 35.15ZM145.463 41.8L143.093 39.9606C141.665 41.7998 139.852 43.237 137.603 44.2771L138.863 47L140.122 49.7229C143.206 48.2963 145.793 46.2669 147.832 43.6394L145.463 41.8ZM138.863 47L137.618 44.2701C135.442 45.262 132.846 45.8 129.762 45.8V48.8V51.8C133.546 51.8 137.017 51.138 140.107 49.7299L138.863 47ZM159.67 26V23H156.67V26H159.67ZM175.27 26H178.27V23H175.27V26ZM175.27 34.5V37.5H178.27V34.5H175.27ZM159.67 34.5H156.67V37.5H159.67V34.5ZM160.47 39.1H157.47V42.1H160.47V39.1ZM177.97 39.1H180.97V36.1H177.97V39.1ZM177.97 48V51H180.97V48H177.97ZM148.87 48H145.87V51H148.87V48ZM148.87 13V10H145.87V13H148.87ZM177.32 13H180.32V10H177.32V13ZM177.32 21.9V24.9H180.32V21.9H177.32ZM160.47 21.9V18.9H157.47V21.9H160.47ZM159.67 26V29H175.27V26V23H159.67V26ZM175.27 26H172.27V34.5H175.27H178.27V26H175.27ZM175.27 34.5V31.5H159.67V34.5V37.5H175.27V34.5ZM159.67 34.5H162.67V26H159.67H156.67V34.5H159.67ZM160.47 39.1V42.1H177.97V39.1V36.1H160.47V39.1ZM177.97 39.1H174.97V48H177.97H180.97V39.1H177.97ZM177.97 48V45H148.87V48V51H177.97V48ZM148.87 48H151.87V13H148.87H145.87V48H148.87ZM148.87 13V16H177.32V13V10H148.87V13ZM177.32 13H174.32V21.9H177.32H180.32V13H177.32ZM177.32 21.9V18.9H160.47V21.9V24.9H177.32V21.9ZM160.47 21.9H157.47V39.1H160.47H163.47V21.9H160.47ZM205.102 48H202.102V51H205.102V48ZM205.102 22.15H208.102V19.15H205.102V22.15ZM194.852 22.15H191.852V25.15H194.852V22.15ZM194.852 13V10H191.852V13H194.852ZM227.152 13H230.152V10H227.152V13ZM227.152 22.15V25.15H230.152V22.15H227.152ZM216.902 22.15V19.15H213.902V22.15H216.902ZM216.902 48V51H219.902V48H216.902ZM205.102 48H208.102V22.15H205.102H202.102V48H205.102ZM205.102 22.15V19.15H194.852V22.15V25.15H205.102V22.15ZM194.852 22.15H197.852V13H194.852H191.852V22.15H194.852ZM194.852 13V16H227.152V13V10H194.852V13ZM227.152 13H224.152V22.15H227.152H230.152V13H227.152ZM227.152 22.15V19.15H216.902V22.15V25.15H227.152V22.15ZM216.902 22.15H213.902V48H216.902H219.902V22.15H216.902ZM216.902 48V45H205.102V48V51H216.902V48ZM240.179 47.45L239.126 50.259L239.138 50.2637L240.179 47.45ZM233.929 43.65L231.87 45.8322L231.881 45.8426L231.892 45.8528L233.929 43.65ZM229.779 37.8L227.026 38.9917L227.033 39.0089L227.041 39.026L229.779 37.8ZM229.779 23.2L227.041 21.974L227.037 21.9836L227.032 21.9932L229.779 23.2ZM233.929 17.4L235.965 19.6028L235.977 19.5926L235.988 19.5822L233.929 17.4ZM240.179 13.55L239.138 10.7363L239.126 10.741L240.179 13.55ZM255.979 13.55L254.926 16.359V16.359L255.979 13.55ZM262.229 17.4L260.17 19.5822L260.181 19.5926L260.192 19.6028L262.229 17.4ZM266.329 23.2L263.576 24.3917L263.587 24.4166L263.598 24.4414L266.329 23.2ZM266.329 37.8L263.591 36.574L263.583 36.5911L263.576 36.6083L266.329 37.8ZM262.229 43.65L264.265 45.8528L264.277 45.8426L264.288 45.8322L262.229 43.65ZM255.979 47.45L254.926 44.641L255.979 47.45ZM251.129 38.65L249.982 35.8779L249.964 35.8851L249.947 35.8926L251.129 38.65ZM253.629 36.95L251.461 34.8763L251.459 34.8786L253.629 36.95ZM255.329 34.2L258.138 35.2534L258.143 35.2393L258.148 35.2252L255.329 34.2ZM255.329 26.85L252.51 27.8752L252.515 27.8893L252.52 27.9034L255.329 26.85ZM253.629 24.1L251.413 26.1228L251.459 26.1731L251.508 26.2213L253.629 24.1ZM251.129 22.35L249.947 25.1074L249.964 25.1149L249.982 25.1221L251.129 22.35ZM244.979 22.35L243.832 19.5779L243.814 19.5851L243.797 19.5926L244.979 22.35ZM242.479 24.1L240.311 22.0263L240.309 22.0286L242.479 24.1ZM240.829 26.85L243.638 27.9034L243.643 27.8893L243.648 27.8752L240.829 26.85ZM240.829 34.2L238.01 35.2252L238.015 35.2393L238.02 35.2534L240.829 34.2ZM242.479 36.95L240.263 38.9728L240.309 39.0231L240.358 39.0713L242.479 36.95ZM244.979 38.65L243.797 41.4074L243.814 41.4149L243.832 41.4221L244.979 38.65ZM248.079 48.8V45.8C245.568 45.8 243.29 45.4022 241.22 44.6363L240.179 47.45L239.138 50.2637C241.934 51.2978 244.923 51.8 248.079 51.8V48.8ZM240.179 47.45L241.232 44.641C239.172 43.8685 237.428 42.7998 235.965 41.4472L233.929 43.65L231.892 45.8528C233.963 47.7669 236.386 49.2315 239.126 50.259L240.179 47.45ZM233.929 43.65L235.988 41.4678C234.51 40.0742 233.357 38.4498 232.517 36.574L229.779 37.8L227.041 39.026C228.201 41.6169 229.814 43.8925 231.87 45.8322L233.929 43.65ZM229.779 37.8L232.532 36.6083C231.741 34.7812 231.329 32.7574 231.329 30.5H228.329H225.329C225.329 33.5092 225.883 36.3521 227.026 38.9917L229.779 37.8ZM228.329 30.5H231.329C231.329 28.203 231.743 26.1866 232.525 24.4068L229.779 23.2L227.032 21.9932C225.881 24.6134 225.329 27.4636 225.329 30.5H228.329ZM229.779 23.2L232.517 24.426C233.354 22.5558 234.501 20.9565 235.965 19.6028L233.929 17.4L231.892 15.1972C229.823 17.1102 228.203 19.3775 227.041 21.974L229.779 23.2ZM233.929 17.4L235.988 19.5822C237.448 18.2042 239.185 17.1268 241.232 16.359L240.179 13.55L239.126 10.741C236.373 11.7732 233.943 13.2625 231.87 15.2178L233.929 17.4ZM240.179 13.55L241.22 16.3637C243.29 15.5978 245.568 15.2 248.079 15.2V12.2V9.2C244.923 9.2 241.934 9.70221 239.138 10.7363L240.179 13.55ZM248.079 12.2V15.2C250.628 15.2 252.9 15.5994 254.926 16.359L255.979 13.55L257.032 10.741C254.258 9.70064 251.263 9.2 248.079 9.2V12.2ZM255.979 13.55L254.926 16.359C256.973 17.1268 258.71 18.2042 260.17 19.5822L262.229 17.4L264.288 15.2178C262.215 13.2625 259.785 11.7732 257.032 10.741L255.979 13.55ZM262.229 17.4L260.192 19.6028C261.649 20.9493 262.773 22.5371 263.576 24.3917L266.329 23.2L269.082 22.0083C267.951 19.3963 266.342 17.1173 264.265 15.1972L262.229 17.4ZM266.329 23.2L263.598 24.4414C264.403 26.2128 264.829 28.2169 264.829 30.5H267.829H270.829C270.829 27.4498 270.255 24.5872 269.06 21.9586L266.329 23.2ZM267.829 30.5H264.829C264.829 32.7434 264.405 34.755 263.591 36.574L266.329 37.8L269.067 39.026C270.253 36.3783 270.829 33.5232 270.829 30.5H267.829ZM266.329 37.8L263.576 36.6083C262.771 38.4685 261.64 40.0813 260.17 41.4678L262.229 43.65L264.288 45.8322C266.351 43.8854 267.954 41.5981 269.082 38.9917L266.329 37.8ZM262.229 43.65L260.192 41.4472C258.729 42.7998 256.986 43.8685 254.926 44.641L255.979 47.45L257.032 50.259C259.772 49.2315 262.195 47.7669 264.265 45.8528L262.229 43.65ZM255.979 47.45L254.926 44.641C252.9 45.4006 250.628 45.8 248.079 45.8V48.8V51.8C251.263 51.8 254.258 51.2994 257.032 50.259L255.979 47.45ZM248.079 39.25V42.25C249.551 42.25 250.974 41.9804 252.311 41.4074L251.129 38.65L249.947 35.8926C249.417 36.1196 248.807 36.25 248.079 36.25V39.25ZM251.129 38.65L252.276 41.4221C253.616 40.8675 254.801 40.0667 255.799 39.0214L253.629 36.95L251.459 34.8786C251.057 35.2999 250.575 35.6325 249.982 35.8779L251.129 38.65ZM253.629 36.95L255.797 39.0237C256.831 37.9426 257.606 36.6716 258.138 35.2534L255.329 34.2L252.52 33.1466C252.252 33.8617 251.894 34.424 251.461 34.8763L253.629 36.95ZM255.329 34.2L258.148 35.2252C258.686 33.7466 258.929 32.1589 258.929 30.5H255.929H252.929C252.929 31.5745 252.772 32.4534 252.51 33.1748L255.329 34.2ZM255.929 30.5H258.929C258.929 28.8435 258.687 27.2599 258.138 25.7966L255.329 26.85L252.52 27.9034C252.771 28.5734 252.929 29.4231 252.929 30.5H255.929ZM255.329 26.85L258.148 25.8248C257.618 24.366 256.831 23.0596 255.75 21.9787L253.629 24.1L251.508 26.2213C251.893 26.607 252.24 27.134 252.51 27.8752L255.329 26.85ZM253.629 24.1L255.844 22.0772C254.845 20.9828 253.646 20.1449 252.276 19.5779L251.129 22.35L249.982 25.1221C250.545 25.3551 251.013 25.6838 251.413 26.1228L253.629 24.1ZM251.129 22.35L252.311 19.5926C250.974 19.0196 249.551 18.75 248.079 18.75V21.75V24.75C248.807 24.75 249.417 24.8804 249.947 25.1074L251.129 22.35ZM248.079 21.75V18.75C246.606 18.75 245.181 19.0198 243.832 19.5779L244.979 22.35L246.126 25.122C246.71 24.8802 247.352 24.75 248.079 24.75V21.75ZM244.979 22.35L243.797 19.5926C242.476 20.1589 241.311 20.981 240.311 22.0263L242.479 24.1L244.647 26.1737C245.114 25.6857 245.615 25.3411 246.161 25.1074L244.979 22.35ZM242.479 24.1L240.309 22.0286C239.281 23.1049 238.53 24.3947 238.01 25.8248L240.829 26.85L243.648 27.8752C243.928 27.1053 244.276 26.5618 244.649 26.1714L242.479 24.1ZM240.829 26.85L238.02 25.7966C237.471 27.2599 237.229 28.8435 237.229 30.5H240.229H243.229C243.229 29.4231 243.387 28.5734 243.638 27.9034L240.829 26.85ZM240.229 30.5H237.229C237.229 32.1589 237.472 33.7466 238.01 35.2252L240.829 34.2L243.648 33.1748C243.386 32.4534 243.229 31.5745 243.229 30.5H240.229ZM240.829 34.2L238.02 35.2534C238.541 36.6431 239.282 37.8975 240.263 38.9728L242.479 36.95L244.694 34.9272C244.276 34.4692 243.917 33.8902 243.638 33.1466L240.829 34.2ZM242.479 36.95L240.358 39.0713C241.355 40.0686 242.505 40.8538 243.797 41.4074L244.979 38.65L246.161 35.8926C245.586 35.6461 245.07 35.298 244.6 34.8287L242.479 36.95ZM244.979 38.65L243.832 41.4221C245.181 41.9802 246.606 42.25 248.079 42.25V39.25V36.25C247.352 36.25 246.71 36.1198 246.126 35.8779L244.979 38.65ZM298.102 48L295.339 49.1684L296.113 51H298.102V48ZM283.302 13V10H278.776L280.539 14.1684L283.302 13ZM296.002 13L298.78 11.8672L298.018 10H296.002V13ZM308.052 42.55V45.55H312.515L310.83 41.4172L308.052 42.55ZM300.502 42.55L297.736 41.3892L295.99 45.55H300.502V42.55ZM312.902 13V10H310.907L310.136 11.8392L312.902 13ZM324.502 13L327.265 14.1684L329.028 10H324.502V13ZM309.702 48V51H311.691L312.465 49.1684L309.702 48ZM298.102 48L300.865 46.8316L286.065 11.8316L283.302 13L280.539 14.1684L295.339 49.1684L298.102 48ZM283.302 13V16H296.002V13V10H283.302V13ZM296.002 13L293.224 14.1328L305.274 43.6828L308.052 42.55L310.83 41.4172L298.78 11.8672L296.002 13ZM308.052 42.55V39.55H300.502V42.55V45.55H308.052V42.55ZM300.502 42.55L303.268 43.7108L315.668 14.1608L312.902 13L310.136 11.8392L297.736 41.3892L300.502 42.55ZM312.902 13V16H324.502V13V10H312.902V13ZM324.502 13L321.739 11.8316L306.939 46.8316L309.702 48L312.465 49.1684L327.265 14.1684L324.502 13ZM309.702 48V45H298.102V48V51H309.702V48ZM325.676 48H322.676V51H325.676V48ZM325.676 13V10H322.676V13H325.676ZM337.476 13H340.476V10H337.476V13ZM337.476 48V51H340.476V48H337.476ZM325.676 48H328.676V13H325.676H322.676V48H325.676ZM325.676 13V16H337.476V13V10H325.676V13ZM337.476 13H334.476V48H337.476H340.476V13H337.476ZM337.476 48V45H325.676V48V51H337.476V48ZM347.707 47.8L348.418 44.8854L347.707 47.8ZM340.957 45.2L338.213 43.9875L337.145 46.4032L339.406 47.7682L340.957 45.2ZM344.757 36.6L346.262 34.0049L343.366 32.3252L342.013 35.3875L344.757 36.6ZM350.307 38.95L349.458 41.8273L349.485 41.8355L349.513 41.8432L350.307 38.95ZM358.957 39.6L359.575 42.5356L359.63 42.5241L359.684 42.5104L358.957 39.6ZM360.407 38.95L362.4 41.1922L362.466 41.1337L362.528 41.0713L360.407 38.95ZM359.807 36.4L358.415 39.0575L359.807 36.4ZM357.007 35.5L356.32 38.4202L356.369 38.4318L356.418 38.4417L357.007 35.5ZM353.257 34.7L352.613 37.6302L352.648 37.6378L352.682 37.6445L353.257 34.7ZM349.107 33.55L348.137 36.389L348.148 36.3926L348.158 36.396L349.107 33.55ZM345.307 31.7L343.626 34.1848L343.642 34.1961L343.659 34.2071L345.307 31.7ZM342.557 28.7L339.931 30.1511L339.939 30.166L339.948 30.1808L342.557 28.7ZM343.307 18.1L340.832 16.4043L340.825 16.4143L343.307 18.1ZM348.757 13.8L347.552 11.0524L347.545 11.0555L347.538 11.0586L348.757 13.8ZM364.807 12.95L364.169 15.8815L364.807 12.95ZM371.007 15.25L373.777 16.4004L374.798 13.943L372.48 12.6365L371.007 15.25ZM367.457 23.8L366.115 26.4833L368.993 27.9224L370.227 24.9504L367.457 23.8ZM362.407 21.85L361.622 24.7457L361.63 24.7477L361.637 24.7497L362.407 21.85ZM355.007 21.5L354.145 18.6265L355.007 21.5ZM353.557 22.3L351.327 20.2931L351.268 20.3579L351.214 20.4259L353.557 22.3ZM354.207 24.85L352.815 27.5075L352.865 27.534L352.917 27.5586L354.207 24.85ZM356.957 25.7L356.352 28.6384L356.36 28.6401L356.368 28.6417L356.957 25.7ZM360.757 26.45L360.182 29.3945L360.195 29.397L360.757 26.45ZM364.907 27.55L363.937 30.389H363.937L364.907 27.55ZM368.657 29.4L366.976 31.8848L366.992 31.8961L367.009 31.9071L368.657 29.4ZM371.457 32.4L368.848 33.8808V33.8808L371.457 32.4ZM370.657 42.9L368.182 41.2043L368.175 41.2144L370.657 42.9ZM365.257 47.2L366.475 49.9414L366.491 49.9344L366.507 49.9272L365.257 47.2ZM356.207 48.8V45.8C353.503 45.8 350.908 45.493 348.418 44.8854L347.707 47.8L346.996 50.7146C349.972 51.4403 353.044 51.8 356.207 51.8V48.8ZM347.707 47.8L348.418 44.8854C345.88 44.2666 343.938 43.4956 342.507 42.6318L340.957 45.2L339.406 47.7682C341.509 49.0377 344.066 50 346.996 50.7146L347.707 47.8ZM340.957 45.2L343.701 46.4125L347.501 37.8125L344.757 36.6L342.013 35.3875L338.213 43.9875L340.957 45.2ZM344.757 36.6L343.251 39.1951C345.144 40.2929 347.218 41.1664 349.458 41.8273L350.307 38.95L351.156 36.0727C349.329 35.5336 347.702 34.8404 346.262 34.0049L344.757 36.6ZM350.307 38.95L349.513 41.8432C351.811 42.4732 354.078 42.8 356.307 42.8V39.8V36.8C354.669 36.8 352.936 36.5602 351.1 36.0568L350.307 38.95ZM356.307 39.8V42.8C357.518 42.8 358.642 42.7321 359.575 42.5356L358.957 39.6L358.339 36.6643C358.005 36.7346 357.362 36.8 356.307 36.8V39.8ZM358.957 39.6L359.684 42.5104C360.53 42.2991 361.566 41.9334 362.4 41.1922L360.407 38.95L358.414 36.7078C358.486 36.6436 358.543 36.6054 358.572 36.5875C358.601 36.5695 358.61 36.5667 358.592 36.575C358.574 36.583 358.536 36.5988 358.474 36.6196C358.412 36.6403 358.331 36.6641 358.229 36.6896L358.957 39.6ZM360.407 38.95L362.528 41.0713C363.353 40.2466 363.857 39.1477 363.857 37.9H360.857H357.857C357.857 37.7146 357.894 37.4979 357.987 37.2807C358.078 37.0671 358.196 36.9178 358.285 36.8287L360.407 38.95ZM360.857 37.9H363.857C363.857 35.8568 362.596 34.4747 361.199 33.7425L359.807 36.4L358.415 39.0575C358.461 39.0817 358.306 39.0121 358.136 38.7704C357.945 38.4963 357.857 38.1742 357.857 37.9H360.857ZM359.807 36.4L361.199 33.7425C360.152 33.1945 358.915 32.8223 357.595 32.5583L357.007 35.5L356.418 38.4417C357.431 38.6443 358.061 38.8722 358.415 39.0575L359.807 36.4ZM357.007 35.5L357.694 32.5798C356.517 32.3028 355.228 32.0282 353.831 31.7555L353.257 34.7L352.682 37.6445C354.018 37.9052 355.23 38.1639 356.32 38.4202L357.007 35.5ZM353.257 34.7L353.9 31.7698C352.642 31.4936 351.36 31.139 350.055 30.7039L349.107 33.55L348.158 36.396C349.653 36.8943 351.138 37.3064 352.613 37.6302L353.257 34.7ZM349.107 33.55L350.076 30.711C348.94 30.3231 347.902 29.8161 346.954 29.1929L345.307 31.7L343.659 34.2071C345.044 35.1173 346.54 35.8436 348.137 36.389L349.107 33.55ZM345.307 31.7L346.988 29.2151C346.251 28.7168 345.646 28.066 345.166 27.2192L342.557 28.7L339.948 30.1808C340.867 31.8007 342.096 33.1499 343.626 34.1848L345.307 31.7ZM342.557 28.7L345.182 27.2489C344.789 26.537 344.507 25.5024 344.507 24H341.507H338.507C338.507 26.2309 338.924 28.3296 339.931 30.1511L342.557 28.7ZM341.507 24H344.507C344.507 22.4252 344.931 21.0474 345.788 19.7856L343.307 18.1L340.825 16.4143C339.282 18.6859 338.507 21.2415 338.507 24H341.507ZM343.307 18.1L345.781 19.7957C346.642 18.5394 347.979 17.4287 349.975 16.5414L348.757 13.8L347.538 11.0586C344.735 12.3046 342.438 14.0606 340.832 16.4043L343.307 18.1ZM348.757 13.8L349.961 16.5476C351.905 15.6953 354.482 15.2 357.807 15.2V12.2V9.2C353.931 9.2 350.475 9.77137 347.552 11.0524L348.757 13.8ZM357.807 12.2V15.2C359.96 15.2 362.08 15.4273 364.169 15.8815L364.807 12.95L365.444 10.0185C362.933 9.4727 360.386 9.2 357.807 9.2V12.2ZM364.807 12.95L364.169 15.8815C366.211 16.3253 367.99 16.9936 369.534 17.8635L371.007 15.25L372.48 12.6365C370.356 11.4398 368.003 10.5747 365.444 10.0185L364.807 12.95ZM371.007 15.25L368.236 14.0996L364.686 22.6496L367.457 23.8L370.227 24.9504L373.777 16.4004L371.007 15.25ZM367.457 23.8L368.798 21.1167C366.908 20.1716 365.033 19.4431 363.176 18.9503L362.407 21.85L361.637 24.7497C363.047 25.1236 364.539 25.695 366.115 26.4833L367.457 23.8ZM362.407 21.85L363.191 18.9543C361.356 18.4573 359.525 18.2 357.707 18.2V21.2V24.2C358.955 24.2 360.257 24.376 361.622 24.7457L362.407 21.85ZM357.707 21.2V18.2C356.44 18.2 355.21 18.3068 354.145 18.6265L355.007 21.5L355.869 24.3735C356.136 24.2932 356.707 24.2 357.707 24.2V21.2ZM355.007 21.5L354.145 18.6265C353.218 18.9045 352.145 19.3843 351.327 20.2931L353.557 22.3L355.787 24.3069C355.727 24.3735 355.674 24.418 355.64 24.4441C355.606 24.47 355.588 24.4795 355.593 24.4767C355.598 24.4739 355.622 24.4614 355.669 24.4423C355.716 24.4233 355.781 24.3996 355.869 24.3735L355.007 21.5ZM353.557 22.3L351.214 20.4259C350.552 21.2528 350.157 22.2712 350.157 23.4H353.157H356.157C356.157 23.5407 356.132 23.6966 356.076 23.8502C356.021 24.0014 355.951 24.1096 355.899 24.1741L353.557 22.3ZM353.157 23.4H350.157C350.157 25.4754 351.491 26.8142 352.815 27.5075L354.207 24.85L355.599 22.1925C355.532 22.1575 355.679 22.2177 355.849 22.453C356.047 22.7261 356.157 23.0718 356.157 23.4H353.157ZM354.207 24.85L352.917 27.5586C353.914 28.0332 355.086 28.3777 356.352 28.6384L356.957 25.7L357.562 22.7616C356.561 22.5556 355.9 22.3335 355.496 22.1414L354.207 24.85ZM356.957 25.7L356.368 28.6417C357.54 28.8761 358.812 29.1271 360.182 29.3945L360.757 26.45L361.331 23.5055C359.968 23.2396 358.706 22.9905 357.545 22.7583L356.957 25.7ZM360.757 26.45L360.195 29.397C361.455 29.637 362.702 29.9673 363.937 30.389L364.907 27.55L365.876 24.711C364.378 24.1994 362.858 23.7964 361.318 23.503L360.757 26.45ZM364.907 27.55L363.937 30.389C365.066 30.7745 366.075 31.2753 366.976 31.8848L368.657 29.4L370.338 26.9151C368.972 25.9913 367.481 25.2588 365.876 24.7109L364.907 27.55ZM368.657 29.4L367.009 31.9071C367.772 32.4084 368.378 33.0541 368.848 33.8808L371.457 32.4L374.066 30.9192C373.135 29.2792 371.875 27.9249 370.304 26.8929L368.657 29.4ZM371.457 32.4L368.848 33.8808C369.227 34.5492 369.507 35.5375 369.507 37H372.507H375.507C375.507 34.7958 375.086 32.7175 374.066 30.9192L371.457 32.4ZM372.507 37H369.507C369.507 38.5135 369.081 39.8915 368.182 41.2043L370.657 42.9L373.131 44.5957C374.699 42.3085 375.507 39.7531 375.507 37H372.507ZM370.657 42.9L368.175 41.2144C367.348 42.432 366.026 43.5474 364.007 44.4728L365.257 47.2L366.507 49.9272C369.287 48.6526 371.565 46.9013 373.138 44.5856L370.657 42.9ZM365.257 47.2L364.038 44.4586C362.139 45.3026 359.571 45.8 356.207 45.8V48.8V51.8C360.109 51.8 363.574 51.2307 366.475 49.9414L365.257 47.2ZM376.018 48H373.018V51H376.018V48ZM376.018 13V10H373.018V13H376.018ZM387.818 13H390.818V10H387.818V13ZM387.818 48V51H390.818V48H387.818ZM376.018 48H379.018V13H376.018H373.018V48H376.018ZM376.018 13V16H387.818V13V10H376.018V13ZM387.818 13H384.818V48H387.818H390.818V13H387.818ZM387.818 48V45H376.018V48V51H387.818V48ZM401.098 48H398.098V51H401.098V48ZM401.098 22.15H404.098V19.15H401.098V22.15ZM390.848 22.15H387.848V25.15H390.848V22.15ZM390.848 13V10H387.848V13H390.848ZM423.148 13H426.148V10H423.148V13ZM423.148 22.15V25.15H426.148V22.15H423.148ZM412.898 22.15V19.15H409.898V22.15H412.898ZM412.898 48V51H415.898V48H412.898ZM401.098 48H404.098V22.15H401.098H398.098V48H401.098ZM401.098 22.15V19.15H390.848V22.15V25.15H401.098V22.15ZM390.848 22.15H393.848V13H390.848H387.848V22.15H390.848ZM390.848 13V16H423.148V13V10H390.848V13ZM423.148 13H420.148V22.15H423.148H426.148V13H423.148ZM423.148 22.15V19.15H412.898V22.15V25.15H423.148V22.15ZM412.898 22.15H409.898V48H412.898H415.898V22.15H412.898ZM412.898 48V45H401.098V48V51H412.898V48Z" fill="url(#paint0_linear_436_10738)" mask="url(#path-1-outside-1_436_10738)"/>
<defs>
<linearGradient id="paint0_linear_436_10738" x1="212.5" y1="0" x2="212.5" y2="61" gradientUnits="userSpaceOnUse">
<stop stop-color="#E51D25"/>
<stop offset="1" stop-color="#1D3A69"/>
</linearGradient>
</defs>
</svg>
