<svg width="267" height="43" viewBox="0 0 267 43" fill="none" xmlns="http://www.w3.org/2000/svg">
<mask id="path-1-outside-1_278_69" maskUnits="userSpaceOnUse" x="0" y="0" width="267" height="43" fill="black">
<rect fill="white" width="267" height="43"/>
<path d="M23 39.8C20.1667 39.8 17.55 39.3667 15.15 38.5C12.7833 37.6 10.7167 36.3333 8.95 34.7C7.21667 33.0667 5.86667 31.1333 4.9 28.9C3.93333 26.6667 3.45 24.2 3.45 21.5C3.45 18.8 3.93333 16.3333 4.9 14.1C5.86667 11.8667 7.23333 9.93333 9 8.3C10.7667 6.66666 12.85 5.41666 15.25 4.55C17.6833 3.65 20.35 3.2 23.25 3.2C26.7167 3.2 29.8 3.78333 32.5 4.95C35.2333 6.11666 37.4833 7.78333 39.25 9.95L31.7 16.6C30.6 15.3333 29.4 14.3833 28.1 13.75C26.8333 13.0833 25.4167 12.75 23.85 12.75C22.55 12.75 21.3667 12.95 20.3 13.35C19.2667 13.75 18.3833 14.3333 17.65 15.1C16.9167 15.8667 16.35 16.7833 15.95 17.85C15.55 18.9167 15.35 20.1333 15.35 21.5C15.35 22.8 15.55 24 15.95 25.1C16.35 26.1667 16.9167 27.0833 17.65 27.85C18.3833 28.6167 19.25 29.2167 20.25 29.65C21.2833 30.05 22.4333 30.25 23.7 30.25C25.0333 30.25 26.3333 30.0333 27.6 29.6C28.8667 29.1333 30.2167 28.35 31.65 27.25L38.25 35.35C36.1167 36.7833 33.6833 37.8833 30.95 38.65C28.2167 39.4167 25.5667 39.8 23 39.8ZM28 33.85V20.55H38.25V35.35L28 33.85ZM43.2777 39V4H55.0777V39H43.2777ZM71.7582 18.9H87.1582V27.8H71.7582V18.9ZM72.5582 39H60.7582V4H89.2082V12.9H72.5582V39ZM100.78 39V13.15H90.5301V4H122.83V13.15H112.58V39H100.78ZM158.985 39.8C156.185 39.8 153.585 39.3667 151.185 38.5C148.818 37.6 146.752 36.3333 144.985 34.7C143.252 33.0667 141.902 31.1333 140.935 28.9C139.968 26.6667 139.485 24.2 139.485 21.5C139.485 18.8 139.968 16.3333 140.935 14.1C141.902 11.8667 143.252 9.93333 144.985 8.3C146.752 6.66666 148.818 5.41666 151.185 4.55C153.585 3.65 156.185 3.2 158.985 3.2C162.418 3.2 165.452 3.8 168.085 5C170.752 6.2 172.952 7.93333 174.685 10.2L167.235 16.85C166.202 15.55 165.052 14.55 163.785 13.85C162.552 13.1167 161.152 12.75 159.585 12.75C158.352 12.75 157.235 12.95 156.235 13.35C155.235 13.75 154.368 14.3333 153.635 15.1C152.935 15.8667 152.385 16.8 151.985 17.9C151.585 18.9667 151.385 20.1667 151.385 21.5C151.385 22.8333 151.585 24.05 151.985 25.15C152.385 26.2167 152.935 27.1333 153.635 27.9C154.368 28.6667 155.235 29.25 156.235 29.65C157.235 30.05 158.352 30.25 159.585 30.25C161.152 30.25 162.552 29.9 163.785 29.2C165.052 28.4667 166.202 27.45 167.235 26.15L174.685 32.8C172.952 35.0333 170.752 36.7667 168.085 38C165.452 39.2 162.418 39.8 158.985 39.8ZM178.092 39V4H189.892V39H178.092ZM203.173 39V13.15H192.923V4H225.223V13.15H214.973V39H203.173ZM236.311 39V23.65L239.011 30.7L223.111 4H235.561L246.311 22.25H239.061L249.911 4H261.311L245.511 30.7L248.111 23.65V39H236.311Z"/>
</mask>
<path d="M15.15 38.5L14.0837 41.3041L14.1073 41.3131L14.1311 41.3217L15.15 38.5ZM8.95 34.7L6.8926 36.8834L6.90297 36.8931L6.91343 36.9028L8.95 34.7ZM4.9 28.9L2.14683 30.0917H2.14683L4.9 28.9ZM4.9 14.1L2.14683 12.9083H2.14683L4.9 14.1ZM9 8.3L6.96343 6.09718H6.96343L9 8.3ZM15.25 4.55L16.2689 7.37166L16.2798 7.36773L16.2907 7.36371L15.25 4.55ZM32.5 4.95L31.31 7.70393L31.3223 7.70917L32.5 4.95ZM39.25 9.95L41.2329 12.2013L43.4001 10.2924L41.5751 8.05418L39.25 9.95ZM31.7 16.6L29.4349 18.5671L31.4158 20.8481L33.6829 18.8513L31.7 16.6ZM28.1 13.75L26.7028 16.4048L26.7441 16.4265L26.7861 16.447L28.1 13.75ZM20.3 13.35L19.2466 10.541L19.2318 10.5466L19.217 10.5523L20.3 13.35ZM17.65 15.1L19.8179 17.1737L19.8179 17.1737L17.65 15.1ZM15.95 17.85L18.759 18.9034H18.759L15.95 17.85ZM15.95 25.1L13.1306 26.1252L13.1357 26.1393L13.141 26.1534L15.95 25.1ZM17.65 27.85L19.8179 25.7763H19.8179L17.65 27.85ZM20.25 29.65L19.0572 32.4027L19.1117 32.4263L19.167 32.4477L20.25 29.65ZM27.6 29.6L28.5711 32.4385L28.6042 32.4271L28.6371 32.415L27.6 29.6ZM31.65 27.25L33.9757 25.355L32.1351 23.0961L29.8235 24.8701L31.65 27.25ZM38.25 35.35L39.9231 37.8401L42.6538 36.0054L40.5757 33.455L38.25 35.35ZM30.95 38.65L31.7602 41.5385L30.95 38.65ZM28 33.85H25V36.4429L27.5656 36.8184L28 33.85ZM28 20.55V17.55H25V20.55H28ZM38.25 20.55H41.25V17.55H38.25V20.55ZM38.25 35.35L37.8156 38.3184L41.25 38.821V35.35H38.25ZM23 39.8V36.8C20.4759 36.8 18.2081 36.4147 16.1689 35.6783L15.15 38.5L14.1311 41.3217C16.8919 42.3186 19.8574 42.8 23 42.8V39.8ZM15.15 38.5L16.2163 35.6959C14.1895 34.9251 12.4567 33.8563 10.9866 32.4972L8.95 34.7L6.91343 36.9028C8.97665 38.8103 11.3772 40.2749 14.0837 41.3041L15.15 38.5ZM8.95 34.7L11.0074 32.5166C9.57759 31.1693 8.46139 29.5756 7.65317 27.7083L4.9 28.9L2.14683 30.0917C3.27195 32.6911 4.85575 34.964 6.8926 36.8834L8.95 34.7ZM4.9 28.9L7.65317 27.7083C6.86632 25.8904 6.45 23.8351 6.45 21.5H3.45H0.45C0.45 24.5649 1.00035 27.4429 2.14683 30.0917L4.9 28.9ZM3.45 21.5H6.45C6.45 19.1649 6.86632 17.1096 7.65317 15.2917L4.9 14.1L2.14683 12.9083C1.00035 15.5571 0.45 18.4351 0.45 21.5H3.45ZM4.9 14.1L7.65317 15.2917C8.4559 13.4371 9.58014 11.8493 11.0366 10.5028L9 8.3L6.96343 6.09718C4.88653 8.01734 3.27743 10.2963 2.14683 12.9083L4.9 14.1ZM9 8.3L11.0366 10.5028C12.4912 9.15795 14.2229 8.1105 16.2689 7.37166L15.25 4.55L14.2311 1.72834C11.4771 2.72283 9.04212 4.17538 6.96343 6.09718L9 8.3ZM15.25 4.55L16.2907 7.36371C18.354 6.60057 20.6636 6.2 23.25 6.2V3.2V0.199999C20.0364 0.199999 17.0127 0.699432 14.2093 1.73629L15.25 4.55ZM23.25 3.2V6.2C26.3795 6.2 29.0467 6.72593 31.31 7.7039L32.5 4.95L33.69 2.19609C30.5533 0.840738 27.0539 0.199999 23.25 0.199999V3.2ZM32.5 4.95L31.3223 7.70917C33.6379 8.69754 35.4845 10.0793 36.9249 11.8458L39.25 9.95L41.5751 8.05418C39.4822 5.48741 36.8288 3.53579 33.6777 2.19083L32.5 4.95ZM39.25 9.95L37.2671 7.69875L29.7171 14.3487L31.7 16.6L33.6829 18.8513L41.2329 12.2013L39.25 9.95ZM31.7 16.6L33.9651 14.6329C32.6423 13.1098 31.1303 11.8892 29.4139 11.053L28.1 13.75L26.7861 16.447C27.6697 16.8775 28.5577 17.5569 29.4349 18.5671L31.7 16.6ZM28.1 13.75L29.4972 11.0952C27.76 10.1809 25.8566 9.75 23.85 9.75V12.75V15.75C24.9768 15.75 25.9067 15.9858 26.7028 16.4048L28.1 13.75ZM23.85 12.75V9.75C22.2405 9.75 20.6941 9.9982 19.2466 10.541L20.3 13.35L21.3534 16.159C22.0392 15.9018 22.8595 15.75 23.85 15.75V12.75ZM20.3 13.35L19.217 10.5523C17.792 11.1039 16.5331 11.9275 15.4821 13.0263L17.65 15.1L19.8179 17.1737C20.2335 16.7392 20.7413 16.3961 21.383 16.1477L20.3 13.35ZM17.65 15.1L15.4821 13.0263C14.448 14.1074 13.6729 15.3784 13.141 16.7966L15.95 17.85L18.759 18.9034C19.0271 18.1883 19.3853 17.626 19.8179 17.1737L17.65 15.1ZM15.95 17.85L13.141 16.7966C12.5923 18.2599 12.35 19.8435 12.35 21.5H15.35H18.35C18.35 20.4231 18.5077 19.5734 18.759 18.9034L15.95 17.85ZM15.35 21.5H12.35C12.35 23.1112 12.5986 24.6623 13.1306 26.1252L15.95 25.1L18.7694 24.0748C18.5014 23.3377 18.35 22.4888 18.35 21.5H15.35ZM15.95 25.1L13.141 26.1534C13.6729 27.5716 14.448 28.8426 15.4821 29.9237L17.65 27.85L19.8179 25.7763C19.3853 25.324 19.0271 24.7617 18.759 24.0466L15.95 25.1ZM17.65 27.85L15.4821 29.9237C16.4995 30.9874 17.7004 31.8147 19.0572 32.4027L20.25 29.65L21.4428 26.8973C20.7996 26.6186 20.2671 26.246 19.8179 25.7763L17.65 27.85ZM20.25 29.65L19.167 32.4477C20.5915 32.9991 22.1154 33.25 23.7 33.25V30.25V27.25C22.7513 27.25 21.9751 27.1009 21.333 26.8523L20.25 29.65ZM23.7 30.25V33.25C25.3651 33.25 26.9931 32.9783 28.5711 32.4385L27.6 29.6L26.6289 26.7615C25.6736 27.0883 24.7016 27.25 23.7 27.25V30.25ZM27.6 29.6L28.6371 32.415C30.2647 31.8154 31.8791 30.8558 33.4765 29.6299L31.65 27.25L29.8235 24.8701C28.5542 25.8442 27.4686 26.4513 26.5629 26.785L27.6 29.6ZM31.65 27.25L29.3243 29.145L35.9243 37.245L38.25 35.35L40.5757 33.455L33.9757 25.355L31.65 27.25ZM38.25 35.35L36.5769 32.8599C34.7344 34.0978 32.598 35.072 30.1398 35.7615L30.95 38.65L31.7602 41.5385C34.7686 40.6947 37.499 39.4688 39.9231 37.8401L38.25 35.35ZM30.95 38.65L30.1398 35.7615C27.6426 36.4619 25.2655 36.8 23 36.8V39.8V42.8C25.8678 42.8 28.7908 42.3714 31.7602 41.5385L30.95 38.65ZM28 33.85H31V20.55H28H25V33.85H28ZM28 20.55V23.55H38.25V20.55V17.55H28V20.55ZM38.25 20.55H35.25V35.35H38.25H41.25V20.55H38.25ZM38.25 35.35L38.6844 32.3816L28.4344 30.8816L28 33.85L27.5656 36.8184L37.8156 38.3184L38.25 35.35ZM43.2777 39H40.2777V42H43.2777V39ZM43.2777 4V0.999998H40.2777V4H43.2777ZM55.0777 4H58.0777V0.999998H55.0777V4ZM55.0777 39V42H58.0777V39H55.0777ZM43.2777 39H46.2777V4H43.2777H40.2777V39H43.2777ZM43.2777 4V7H55.0777V4V0.999998H43.2777V4ZM55.0777 4H52.0777V39H55.0777H58.0777V4H55.0777ZM55.0777 39V36H43.2777V39V42H55.0777V39ZM71.7582 18.9V15.9H68.7582V18.9H71.7582ZM87.1582 18.9H90.1582V15.9H87.1582V18.9ZM87.1582 27.8V30.8H90.1582V27.8H87.1582ZM71.7582 27.8H68.7582V30.8H71.7582V27.8ZM72.5582 39V42H75.5582V39H72.5582ZM60.7582 39H57.7582V42H60.7582V39ZM60.7582 4V0.999998H57.7582V4H60.7582ZM89.2082 4H92.2082V0.999998H89.2082V4ZM89.2082 12.9V15.9H92.2082V12.9H89.2082ZM72.5582 12.9V9.9H69.5582V12.9H72.5582ZM71.7582 18.9V21.9H87.1582V18.9V15.9H71.7582V18.9ZM87.1582 18.9H84.1582V27.8H87.1582H90.1582V18.9H87.1582ZM87.1582 27.8V24.8H71.7582V27.8V30.8H87.1582V27.8ZM71.7582 27.8H74.7582V18.9H71.7582H68.7582V27.8H71.7582ZM72.5582 39V36H60.7582V39V42H72.5582V39ZM60.7582 39H63.7582V4H60.7582H57.7582V39H60.7582ZM60.7582 4V7H89.2082V4V0.999998H60.7582V4ZM89.2082 4H86.2082V12.9H89.2082H92.2082V4H89.2082ZM89.2082 12.9V9.9H72.5582V12.9V15.9H89.2082V12.9ZM72.5582 12.9H69.5582V39H72.5582H75.5582V12.9H72.5582ZM100.78 39H97.7801V42H100.78V39ZM100.78 13.15H103.78V10.15H100.78V13.15ZM90.5301 13.15H87.5301V16.15H90.5301V13.15ZM90.5301 4V0.999998H87.5301V4H90.5301ZM122.83 4H125.83V0.999998H122.83V4ZM122.83 13.15V16.15H125.83V13.15H122.83ZM112.58 13.15V10.15H109.58V13.15H112.58ZM112.58 39V42H115.58V39H112.58ZM100.78 39H103.78V13.15H100.78H97.7801V39H100.78ZM100.78 13.15V10.15H90.5301V13.15V16.15H100.78V13.15ZM90.5301 13.15H93.5301V4H90.5301H87.5301V13.15H90.5301ZM90.5301 4V7H122.83V4V0.999998H90.5301V4ZM122.83 4H119.83V13.15H122.83H125.83V4H122.83ZM122.83 13.15V10.15H112.58V13.15V16.15H122.83V13.15ZM112.58 13.15H109.58V39H112.58H115.58V13.15H112.58ZM112.58 39V36H100.78V39V42H112.58V39ZM151.185 38.5L150.119 41.3041L150.142 41.3131L150.166 41.3217L151.185 38.5ZM144.985 34.7L142.928 36.8834L142.938 36.8931L142.949 36.9028L144.985 34.7ZM140.935 28.9L138.182 30.0917L140.935 28.9ZM140.935 14.1L138.182 12.9083L140.935 14.1ZM144.985 8.3L142.949 6.09718L142.938 6.10686L142.928 6.11663L144.985 8.3ZM151.185 4.55L152.217 7.36706L152.228 7.36306L152.239 7.35899L151.185 4.55ZM168.085 5L166.841 7.72991L166.848 7.73285L166.854 7.73577L168.085 5ZM174.685 10.2L176.683 12.4381L178.757 10.5864L177.068 8.37765L174.685 10.2ZM167.235 16.85L164.887 18.7167L166.863 21.2033L169.233 19.0881L167.235 16.85ZM163.785 13.85L162.252 16.4286L162.293 16.4528L162.334 16.4757L163.785 13.85ZM156.235 13.35L157.349 16.1354L157.349 16.1354L156.235 13.35ZM153.635 15.1L151.467 13.0263L151.443 13.0515L151.42 13.0772L153.635 15.1ZM151.985 17.9L154.794 18.9534L154.799 18.9393L154.805 18.9252L151.985 17.9ZM151.985 25.15L149.166 26.1752L149.171 26.1893L149.176 26.2034L151.985 25.15ZM153.635 27.9L151.42 29.9228L151.443 29.9485L151.467 29.9737L153.635 27.9ZM156.235 29.65L155.121 32.4354L156.235 29.65ZM163.785 29.2L165.266 31.8091L165.277 31.8027L165.288 31.7963L163.785 29.2ZM167.235 26.15L169.233 23.9119L166.863 21.7967L164.887 24.2833L167.235 26.15ZM174.685 32.8L177.055 34.6394L178.772 32.4269L176.683 30.5619L174.685 32.8ZM168.085 38L169.329 40.7299L169.337 40.7264L169.344 40.7229L168.085 38ZM158.985 39.8V36.8C156.499 36.8 154.247 36.4161 152.204 35.6783L151.185 38.5L150.166 41.3217C152.923 42.3173 155.871 42.8 158.985 42.8V39.8ZM151.185 38.5L152.251 35.6959C150.225 34.9251 148.492 33.8563 147.022 32.4972L144.985 34.7L142.949 36.9028C145.012 38.8103 147.412 40.2749 150.119 41.3041L151.185 38.5ZM144.985 34.7L147.043 32.5166C145.613 31.1693 144.497 29.5756 143.688 27.7083L140.935 28.9L138.182 30.0917C139.307 32.6911 140.891 34.964 142.928 36.8834L144.985 34.7ZM140.935 28.9L143.688 27.7083C142.901 25.8904 142.485 23.8351 142.485 21.5H139.485H136.485C136.485 24.5649 137.036 27.4429 138.182 30.0917L140.935 28.9ZM139.485 21.5H142.485C142.485 19.1649 142.901 17.1096 143.688 15.2917L140.935 14.1L138.182 12.9083C137.036 15.5571 136.485 18.4351 136.485 21.5H139.485ZM140.935 14.1L143.688 15.2917C144.497 13.4244 145.613 11.8307 147.043 10.4834L144.985 8.3L142.928 6.11663C140.891 8.03597 139.307 10.3089 138.182 12.9083L140.935 14.1ZM144.985 8.3L147.022 10.5028C148.484 9.15134 150.204 8.10398 152.217 7.36706L151.185 4.55L150.154 1.73294C147.433 2.72934 145.02 4.18199 142.949 6.09718L144.985 8.3ZM151.185 4.55L152.239 7.35899C154.272 6.59647 156.512 6.2 158.985 6.2V3.2V0.199999C155.859 0.199999 152.898 0.703525 150.132 1.74101L151.185 4.55ZM158.985 3.2V6.2C162.068 6.2 164.664 6.73797 166.841 7.72991L168.085 5L169.329 2.27009C166.239 0.862026 162.769 0.199999 158.985 0.199999V3.2ZM168.085 5L166.854 7.73577C169.079 8.73682 170.879 10.1611 172.302 12.0223L174.685 10.2L177.068 8.37765C175.025 5.70559 172.425 3.66317 169.316 2.26423L168.085 5ZM174.685 10.2L172.687 7.96192L165.237 14.6119L167.235 16.85L169.233 19.0881L176.683 12.4381L174.685 10.2ZM167.235 16.85L169.584 14.9833C168.34 13.4189 166.896 12.1418 165.236 11.2243L163.785 13.85L162.334 16.4757C163.207 16.9582 164.064 17.6811 164.887 18.7167L167.235 16.85ZM163.785 13.85L165.318 11.2714C163.579 10.2372 161.64 9.75 159.585 9.75V12.75V15.75C160.663 15.75 161.525 15.9961 162.252 16.4286L163.785 13.85ZM159.585 12.75V9.75C158.025 9.75 156.523 10.0038 155.121 10.5646L156.235 13.35L157.349 16.1354C157.947 15.8962 158.679 15.75 159.585 15.75V12.75ZM156.235 13.35L155.121 10.5646C153.729 11.1213 152.502 11.945 151.467 13.0263L153.635 15.1L155.803 17.1737C156.235 16.7216 156.741 16.3787 157.349 16.1354L156.235 13.35ZM153.635 15.1L151.42 13.0772C150.423 14.1684 149.683 15.4528 149.166 16.8748L151.985 17.9L154.805 18.9252C155.087 18.1472 155.447 17.565 155.851 17.1228L153.635 15.1ZM151.985 17.9L149.176 16.8466C148.63 18.3022 148.385 19.8671 148.385 21.5H151.385H154.385C154.385 20.4663 154.54 19.6311 154.794 18.9534L151.985 17.9ZM151.385 21.5H148.385C148.385 23.1349 148.631 24.7043 149.166 26.1752L151.985 25.15L154.805 24.1248C154.539 23.3957 154.385 22.5317 154.385 21.5H151.385ZM151.985 25.15L149.176 26.2034C149.697 27.5931 150.438 28.8475 151.42 29.9228L153.635 27.9L155.851 25.8772C155.432 25.4192 155.073 24.8402 154.794 24.0966L151.985 25.15ZM153.635 27.9L151.467 29.9737C152.502 31.055 153.729 31.8787 155.121 32.4354L156.235 29.65L157.349 26.8646C156.741 26.6213 156.235 26.2784 155.803 25.8263L153.635 27.9ZM156.235 29.65L155.121 32.4354C156.523 32.9962 158.025 33.25 159.585 33.25V30.25V27.25C158.679 27.25 157.947 27.1038 157.349 26.8646L156.235 29.65ZM159.585 30.25V33.25C161.615 33.25 163.535 32.7915 165.266 31.8091L163.785 29.2L162.304 26.5909C161.569 27.0085 160.688 27.25 159.585 27.25V30.25ZM163.785 29.2L165.288 31.7963C166.921 30.8512 168.348 29.5714 169.584 28.0167L167.235 26.15L164.887 24.2833C164.056 25.3286 163.183 26.0821 162.282 26.6037L163.785 29.2ZM167.235 26.15L165.237 28.3881L172.687 35.0381L174.685 32.8L176.683 30.5619L169.233 23.9119L167.235 26.15ZM174.685 32.8L172.315 30.9606C170.888 32.7998 169.075 34.237 166.826 35.2771L168.085 38L169.344 40.7229C172.429 39.2963 175.016 37.2669 177.055 34.6394L174.685 32.8ZM168.085 38L166.841 35.2701C164.664 36.262 162.068 36.8 158.985 36.8V39.8V42.8C162.769 42.8 166.239 42.138 169.329 40.7299L168.085 38ZM178.092 39H175.092V42H178.092V39ZM178.092 4V0.999998H175.092V4H178.092ZM189.892 4H192.892V0.999998H189.892V4ZM189.892 39V42H192.892V39H189.892ZM178.092 39H181.092V4H178.092H175.092V39H178.092ZM178.092 4V7H189.892V4V0.999998H178.092V4ZM189.892 4H186.892V39H189.892H192.892V4H189.892ZM189.892 39V36H178.092V39V42H189.892V39ZM203.173 39H200.173V42H203.173V39ZM203.173 13.15H206.173V10.15H203.173V13.15ZM192.923 13.15H189.923V16.15H192.923V13.15ZM192.923 4V0.999998H189.923V4H192.923ZM225.223 4H228.223V0.999998H225.223V4ZM225.223 13.15V16.15H228.223V13.15H225.223ZM214.973 13.15V10.15H211.973V13.15H214.973ZM214.973 39V42H217.973V39H214.973ZM203.173 39H206.173V13.15H203.173H200.173V39H203.173ZM203.173 13.15V10.15H192.923V13.15V16.15H203.173V13.15ZM192.923 13.15H195.923V4H192.923H189.923V13.15H192.923ZM192.923 4V7H225.223V4V0.999998H192.923V4ZM225.223 4H222.223V13.15H225.223H228.223V4H225.223ZM225.223 13.15V10.15H214.973V13.15V16.15H225.223V13.15ZM214.973 13.15H211.973V39H214.973H217.973V13.15H214.973ZM214.973 39V36H203.173V39V42H214.973V39ZM236.311 39H233.311V42H236.311V39ZM236.311 23.65L239.113 22.5771L233.311 23.65H236.311ZM239.011 30.7L236.433 32.235L241.813 29.6271L239.011 30.7ZM223.111 4V0.999998H217.833L220.533 5.53496L223.111 4ZM235.561 4L238.146 2.47739L237.276 0.999998H235.561V4ZM246.311 22.25V25.25H251.56L248.896 20.7274L246.311 22.25ZM239.061 22.25L236.482 20.7169L233.787 25.25H239.061V22.25ZM249.911 4V0.999998H248.204L247.332 2.46691L249.911 4ZM261.311 4L263.893 5.52781L266.572 0.999998H261.311V4ZM245.511 30.7L242.696 29.662L248.093 32.2278L245.511 30.7ZM248.111 23.65H251.111L245.296 22.612L248.111 23.65ZM248.111 39V42H251.111V39H248.111ZM236.311 39H239.311V23.65H236.311H233.311V39H236.311ZM236.311 23.65L233.509 24.7229L236.209 31.7729L239.011 30.7L241.813 29.6271L239.113 22.5771L236.311 23.65ZM239.011 30.7L241.589 29.165L225.689 2.46504L223.111 4L220.533 5.53496L236.433 32.235L239.011 30.7ZM223.111 4V7H235.561V4V0.999998H223.111V4ZM235.561 4L232.976 5.5226L243.726 23.7726L246.311 22.25L248.896 20.7274L238.146 2.47739L235.561 4ZM246.311 22.25V19.25H239.061V22.25V25.25H246.311V22.25ZM239.061 22.25L241.64 23.7831L252.49 5.53308L249.911 4L247.332 2.46691L236.482 20.7169L239.061 22.25ZM249.911 4V7H261.311V4V0.999998H249.911V4ZM261.311 4L258.729 2.47218L242.929 29.1722L245.511 30.7L248.093 32.2278L263.893 5.52781L261.311 4ZM245.511 30.7L248.326 31.738L250.926 24.688L248.111 23.65L245.296 22.612L242.696 29.662L245.511 30.7ZM248.111 23.65H245.111V39H248.111H251.111V23.65H248.111ZM248.111 39V36H236.311V39V42H248.111V39Z" fill="url(#paint0_linear_278_69)" mask="url(#path-1-outside-1_278_69)"/>
<defs>
<linearGradient id="paint0_linear_278_69" x1="131" y1="-9" x2="131" y2="52" gradientUnits="userSpaceOnUse">
<stop stop-color="#E51D25"/>
<stop offset="1" stop-color="#1D3A69"/>
</linearGradient>
</defs>
</svg>
