<svg width="682" height="61" viewBox="0 0 682 61" fill="none" xmlns="http://www.w3.org/2000/svg">
<mask id="path-1-outside-1_304_149" maskUnits="userSpaceOnUse" x="0" y="9" width="682" height="43" fill="black">
<rect fill="white" y="9" width="682" height="43"/>
<path d="M3.85 48V13H20.7C23.9667 13 26.7833 13.5333 29.15 14.6C31.55 15.6667 33.4 17.2 34.7 19.2C36 21.1667 36.65 23.5 36.65 26.2C36.65 28.9 36 31.2333 34.7 33.2C33.4 35.1333 31.55 36.6167 29.15 37.65C26.7833 38.6833 23.9667 39.2 20.7 39.2H10.4L15.65 34.35V48H3.85ZM24.8 48L16.2 35.25H28.7L37.4 48H24.8ZM15.65 35.65L10.4 30.3H19.95C21.5833 30.3 22.7833 29.9333 23.55 29.2C24.35 28.4667 24.75 27.4667 24.75 26.2C24.75 24.9333 24.35 23.9333 23.55 23.2C22.7833 22.4667 21.5833 22.1 19.95 22.1H10.4L15.65 16.75V35.65ZM37.3059 48L52.6059 13H64.2059L79.5059 48H67.3059L56.0059 18.6H60.6059L49.3059 48H37.3059ZM46.4059 41.9L49.4059 33.4H65.5059L68.5059 41.9H46.4059ZM99.0008 48.8C96.2008 48.8 93.6008 48.3667 91.2008 47.5C88.8341 46.6 86.7674 45.3333 85.0008 43.7C83.2674 42.0667 81.9174 40.1333 80.9508 37.9C79.9841 35.6667 79.5008 33.2 79.5008 30.5C79.5008 27.8 79.9841 25.3333 80.9508 23.1C81.9174 20.8667 83.2674 18.9333 85.0008 17.3C86.7674 15.6667 88.8341 14.4167 91.2008 13.55C93.6008 12.65 96.2008 12.2 99.0008 12.2C102.434 12.2 105.467 12.8 108.101 14C110.767 15.2 112.967 16.9333 114.701 19.2L107.251 25.85C106.217 24.55 105.067 23.55 103.801 22.85C102.567 22.1167 101.167 21.75 99.6008 21.75C98.3674 21.75 97.2508 21.95 96.2508 22.35C95.2508 22.75 94.3841 23.3333 93.6508 24.1C92.9508 24.8667 92.4008 25.8 92.0008 26.9C91.6008 27.9667 91.4008 29.1667 91.4008 30.5C91.4008 31.8333 91.6008 33.05 92.0008 34.15C92.4008 35.2167 92.9508 36.1333 93.6508 36.9C94.3841 37.6667 95.2508 38.25 96.2508 38.65C97.2508 39.05 98.3674 39.25 99.6008 39.25C101.167 39.25 102.567 38.9 103.801 38.2C105.067 37.4667 106.217 36.45 107.251 35.15L114.701 41.8C112.967 44.0333 110.767 45.7667 108.101 47C105.467 48.2 102.434 48.8 99.0008 48.8ZM128.908 26H144.508V34.5H128.908V26ZM129.708 39.1H147.208V48H118.108V13H146.558V21.9H129.708V39.1ZM166.741 48V13H183.991C187.891 13 191.324 13.7167 194.291 15.15C197.257 16.55 199.574 18.55 201.241 21.15C202.907 23.75 203.741 26.85 203.741 30.45C203.741 34.0833 202.907 37.2167 201.241 39.85C199.574 42.45 197.257 44.4667 194.291 45.9C191.324 47.3 187.891 48 183.991 48H166.741ZM178.541 38.8H183.491C185.157 38.8 186.607 38.4833 187.841 37.85C189.107 37.2167 190.091 36.2833 190.791 35.05C191.491 33.7833 191.841 32.25 191.841 30.45C191.841 28.6833 191.491 27.1833 190.791 25.95C190.091 24.7167 189.107 23.7833 187.841 23.15C186.607 22.5167 185.157 22.2 183.491 22.2H178.541V38.8ZM203.761 48L219.061 13H230.661L245.961 48H233.761L222.461 18.6H227.061L215.761 48H203.761ZM212.861 41.9L215.861 33.4H231.961L234.961 41.9H212.861ZM254.598 48V32.65L257.298 39.7L241.398 13H253.848L264.598 31.25H257.348L268.198 13H279.598L263.798 39.7L266.398 32.65V48H254.598ZM296.086 48V13H307.886V48H296.086ZM313.567 48V13H323.267L341.067 34.3H336.567V13H348.067V48H338.367L320.567 26.7H325.067V48H313.567ZM364.752 27.9H380.152V36.8H364.752V27.9ZM365.552 48H353.752V13H382.202V21.9H365.552V48ZM404.036 48.8C401.203 48.8 398.569 48.35 396.136 47.45C393.736 46.55 391.653 45.2833 389.886 43.65C388.119 41.9833 386.736 40.0333 385.736 37.8C384.769 35.5667 384.286 33.1333 384.286 30.5C384.286 27.8333 384.769 25.4 385.736 23.2C386.736 20.9667 388.119 19.0333 389.886 17.4C391.653 15.7333 393.736 14.45 396.136 13.55C398.569 12.65 401.203 12.2 404.036 12.2C406.903 12.2 409.536 12.65 411.936 13.55C414.336 14.45 416.419 15.7333 418.186 17.4C419.953 19.0333 421.319 20.9667 422.286 23.2C423.286 25.4 423.786 27.8333 423.786 30.5C423.786 33.1333 423.286 35.5667 422.286 37.8C421.319 40.0333 419.953 41.9833 418.186 43.65C416.419 45.2833 414.336 46.55 411.936 47.45C409.536 48.35 406.903 48.8 404.036 48.8ZM404.036 39.25C405.136 39.25 406.153 39.05 407.086 38.65C408.053 38.25 408.886 37.6833 409.586 36.95C410.319 36.1833 410.886 35.2667 411.286 34.2C411.686 33.1 411.886 31.8667 411.886 30.5C411.886 29.1333 411.686 27.9167 411.286 26.85C410.886 25.75 410.319 24.8333 409.586 24.1C408.886 23.3333 408.053 22.75 407.086 22.35C406.153 21.95 405.136 21.75 404.036 21.75C402.936 21.75 401.903 21.95 400.936 22.35C400.003 22.75 399.169 23.3333 398.436 24.1C397.736 24.8333 397.186 25.75 396.786 26.85C396.386 27.9167 396.186 29.1333 396.186 30.5C396.186 31.8667 396.386 33.1 396.786 34.2C397.186 35.2667 397.736 36.1833 398.436 36.95C399.169 37.6833 400.003 38.25 400.936 38.65C401.903 39.05 402.936 39.25 404.036 39.25ZM428.069 48V13H444.919C448.185 13 451.002 13.5333 453.369 14.6C455.769 15.6667 457.619 17.2 458.919 19.2C460.219 21.1667 460.869 23.5 460.869 26.2C460.869 28.9 460.219 31.2333 458.919 33.2C457.619 35.1333 455.769 36.6167 453.369 37.65C451.002 38.6833 448.185 39.2 444.919 39.2H434.619L439.869 34.35V48H428.069ZM449.019 48L440.419 35.25H452.919L461.619 48H449.019ZM439.869 35.65L434.619 30.3H444.169C445.802 30.3 447.002 29.9333 447.769 29.2C448.569 28.4667 448.969 27.4667 448.969 26.2C448.969 24.9333 448.569 23.9333 447.769 23.2C447.002 22.4667 445.802 22.1 444.169 22.1H434.619L439.869 16.75V35.65ZM465.325 48V13H475.025L489.025 35.85H483.925L497.525 13H507.225L507.325 48H496.575L496.475 29.2H498.175L488.875 44.85H483.675L473.975 29.2H476.075V48H465.325ZM509.23 48L524.53 13H536.13L551.43 48H539.23L527.93 18.6H532.53L521.23 48H509.23ZM518.33 41.9L521.33 33.4H537.43L540.43 41.9H518.33ZM559.155 48V22.15H548.905V13H581.205V22.15H570.955V48H559.155ZM584.27 48V13H596.07V48H584.27ZM620.1 48.8C617.267 48.8 614.634 48.35 612.2 47.45C609.8 46.55 607.717 45.2833 605.95 43.65C604.184 41.9833 602.8 40.0333 601.8 37.8C600.834 35.5667 600.35 33.1333 600.35 30.5C600.35 27.8333 600.834 25.4 601.8 23.2C602.8 20.9667 604.184 19.0333 605.95 17.4C607.717 15.7333 609.8 14.45 612.2 13.55C614.634 12.65 617.267 12.2 620.1 12.2C622.967 12.2 625.6 12.65 628 13.55C630.4 14.45 632.484 15.7333 634.25 17.4C636.017 19.0333 637.384 20.9667 638.35 23.2C639.35 25.4 639.85 27.8333 639.85 30.5C639.85 33.1333 639.35 35.5667 638.35 37.8C637.384 40.0333 636.017 41.9833 634.25 43.65C632.484 45.2833 630.4 46.55 628 47.45C625.6 48.35 622.967 48.8 620.1 48.8ZM620.1 39.25C621.2 39.25 622.217 39.05 623.15 38.65C624.117 38.25 624.95 37.6833 625.65 36.95C626.384 36.1833 626.95 35.2667 627.35 34.2C627.75 33.1 627.95 31.8667 627.95 30.5C627.95 29.1333 627.75 27.9167 627.35 26.85C626.95 25.75 626.384 24.8333 625.65 24.1C624.95 23.3333 624.117 22.75 623.15 22.35C622.217 21.95 621.2 21.75 620.1 21.75C619 21.75 617.967 21.95 617 22.35C616.067 22.75 615.234 23.3333 614.5 24.1C613.8 24.8333 613.25 25.75 612.85 26.85C612.45 27.9167 612.25 29.1333 612.25 30.5C612.25 31.8667 612.45 33.1 612.85 34.2C613.25 35.2667 613.8 36.1833 614.5 36.95C615.234 37.6833 616.067 38.25 617 38.65C617.967 39.05 619 39.25 620.1 39.25ZM644.133 48V13H653.833L671.633 34.3H667.133V13H678.633V48H668.933L651.133 26.7H655.633V48H644.133Z"/>
</mask>
<path d="M3.85 48H0.85V51H3.85V48ZM3.85 13V10H0.85V13H3.85ZM29.15 14.6L27.9173 17.335L27.9244 17.3383L27.9316 17.3414L29.15 14.6ZM34.7 19.2L32.1847 20.835L32.191 20.8447L32.1973 20.8543L34.7 19.2ZM34.7 33.2L37.1895 34.874L37.1961 34.8642L37.2027 34.8543L34.7 33.2ZM29.15 37.65L27.9636 34.8945L27.9566 34.8976L27.9496 34.9006L29.15 37.65ZM10.4 39.2L8.36429 36.9964L2.73152 42.2H10.4V39.2ZM15.65 34.35H18.65V27.4944L13.6143 32.1464L15.65 34.35ZM15.65 48V51H18.65V48H15.65ZM24.8 48L22.3129 49.6776L23.2049 51H24.8V48ZM16.2 35.25V32.25H10.5578L13.7129 36.9276L16.2 35.25ZM28.7 35.25L31.1781 33.5591L30.2848 32.25H28.7V35.25ZM37.4 48V51H43.0789L39.8781 46.3091L37.4 48ZM15.65 35.65L13.5088 37.7512L18.65 42.9904V35.65H15.65ZM10.4 30.3V27.3H3.2529L8.25876 32.4012L10.4 30.3ZM23.55 29.2L21.5228 26.9885L21.4993 27.0101L21.4763 27.0321L23.55 29.2ZM23.55 23.2L21.4763 25.3679L21.4993 25.3899L21.5228 25.4115L23.55 23.2ZM10.4 22.1L8.25876 19.9988L3.2529 25.1H10.4V22.1ZM15.65 16.75H18.65V9.40962L13.5088 14.6488L15.65 16.75ZM3.85 48H6.85V13H3.85H0.85V48H3.85ZM3.85 13V16H20.7V13V10H3.85V13ZM20.7 13V16C23.648 16 26.0246 16.482 27.9173 17.335L29.15 14.6L30.3827 11.865C27.5421 10.5847 24.2854 10 20.7 10V13ZM29.15 14.6L27.9316 17.3414C29.857 18.1972 31.2325 19.3701 32.1847 20.835L34.7 19.2L37.2153 17.565C35.5675 15.0299 33.243 13.1362 30.3684 11.8586L29.15 14.6ZM34.7 19.2L32.1973 20.8543C33.1277 22.2617 33.65 24.0004 33.65 26.2H36.65H39.65C39.65 22.9996 38.8723 20.0716 37.2027 17.5457L34.7 19.2ZM36.65 26.2H33.65C33.65 28.3996 33.1277 30.1383 32.1973 31.5457L34.7 33.2L37.2027 34.8543C38.8723 32.3284 39.65 29.4004 39.65 26.2H36.65ZM34.7 33.2L32.2105 31.526C31.2701 32.9245 29.9008 34.0605 27.9636 34.8945L29.15 37.65L30.3364 40.4055C33.1992 39.1728 35.5299 37.3421 37.1895 34.874L34.7 33.2ZM29.15 37.65L27.9496 34.9006C26.0476 35.7311 23.6592 36.2 20.7 36.2V39.2V42.2C24.2742 42.2 27.519 41.6356 30.3504 40.3994L29.15 37.65ZM20.7 39.2V36.2H10.4V39.2V42.2H20.7V39.2ZM10.4 39.2L12.4357 41.4036L17.6857 36.5536L15.65 34.35L13.6143 32.1464L8.36429 36.9964L10.4 39.2ZM15.65 34.35H12.65V48H15.65H18.65V34.35H15.65ZM15.65 48V45H3.85V48V51H15.65V48ZM24.8 48L27.2871 46.3224L18.6871 33.5724L16.2 35.25L13.7129 36.9276L22.3129 49.6776L24.8 48ZM16.2 35.25V38.25H28.7V35.25V32.25H16.2V35.25ZM28.7 35.25L26.2219 36.9409L34.9219 49.6909L37.4 48L39.8781 46.3091L31.1781 33.5591L28.7 35.25ZM37.4 48V45H24.8V48V51H37.4V48ZM15.65 35.65L17.7912 33.5488L12.5412 28.1988L10.4 30.3L8.25876 32.4012L13.5088 37.7512L15.65 35.65ZM10.4 30.3V33.3H19.95V30.3V27.3H10.4V30.3ZM19.95 30.3V33.3C21.951 33.3 24.0622 32.8615 25.6237 31.3679L23.55 29.2L21.4763 27.0321C21.5045 27.0052 21.2157 27.3 19.95 27.3V30.3ZM23.55 29.2L25.5772 31.4115C27.1021 30.0136 27.75 28.1537 27.75 26.2H24.75H21.75C21.75 26.7797 21.5979 26.9197 21.5228 26.9885L23.55 29.2ZM24.75 26.2H27.75C27.75 24.2463 27.1021 22.3864 25.5772 20.9885L23.55 23.2L21.5228 25.4115C21.5979 25.4803 21.75 25.6203 21.75 26.2H24.75ZM23.55 23.2L25.6237 21.0321C24.0622 19.5385 21.951 19.1 19.95 19.1V22.1V25.1C21.2157 25.1 21.5045 25.3948 21.4763 25.3679L23.55 23.2ZM19.95 22.1V19.1H10.4V22.1V25.1H19.95V22.1ZM10.4 22.1L12.5412 24.2012L17.7912 18.8512L15.65 16.75L13.5088 14.6488L8.25876 19.9988L10.4 22.1ZM15.65 16.75H12.65V35.65H15.65H18.65V16.75H15.65ZM37.3059 48L34.557 46.7984L32.7203 51H37.3059V48ZM52.6059 13V10H50.6432L49.857 11.7984L52.6059 13ZM64.2059 13L66.9547 11.7984L66.1685 10H64.2059V13ZM79.5059 48V51H84.0914L82.2547 46.7984L79.5059 48ZM67.3059 48L64.5056 49.0763L65.245 51H67.3059V48ZM56.0059 18.6V15.6H51.6388L53.2056 19.6763L56.0059 18.6ZM60.6059 18.6L63.4061 19.6763L64.9729 15.6H60.6059V18.6ZM49.3059 48V51H51.3668L52.1061 49.0763L49.3059 48ZM46.4059 41.9L43.5769 40.9015L42.1657 44.9H46.4059V41.9ZM49.4059 33.4V30.4H47.2833L46.5769 32.4015L49.4059 33.4ZM65.5059 33.4L68.3348 32.4015L67.6284 30.4H65.5059V33.4ZM68.5059 41.9V44.9H72.7461L71.3348 40.9015L68.5059 41.9ZM37.3059 48L40.0547 49.2016L55.3547 14.2016L52.6059 13L49.857 11.7984L34.557 46.7984L37.3059 48ZM52.6059 13V16H64.2059V13V10H52.6059V13ZM64.2059 13L61.457 14.2016L76.757 49.2016L79.5059 48L82.2547 46.7984L66.9547 11.7984L64.2059 13ZM79.5059 48V45H67.3059V48V51H79.5059V48ZM67.3059 48L70.1061 46.9237L58.8061 17.5237L56.0059 18.6L53.2056 19.6763L64.5056 49.0763L67.3059 48ZM56.0059 18.6V21.6H60.6059V18.6V15.6H56.0059V18.6ZM60.6059 18.6L57.8056 17.5237L46.5056 46.9237L49.3059 48L52.1061 49.0763L63.4061 19.6763L60.6059 18.6ZM49.3059 48V45H37.3059V48V51H49.3059V48ZM46.4059 41.9L49.2348 42.8985L52.2348 34.3985L49.4059 33.4L46.5769 32.4015L43.5769 40.9015L46.4059 41.9ZM49.4059 33.4V36.4H65.5059V33.4V30.4H49.4059V33.4ZM65.5059 33.4L62.6769 34.3985L65.6769 42.8985L68.5059 41.9L71.3348 40.9015L68.3348 32.4015L65.5059 33.4ZM68.5059 41.9V38.9H46.4059V41.9V44.9H68.5059V41.9ZM91.2008 47.5L90.1344 50.3041L90.1581 50.3131L90.1818 50.3217L91.2008 47.5ZM85.0008 43.7L82.9434 45.8834L82.9538 45.8931L82.9642 45.9028L85.0008 43.7ZM80.9508 37.9L78.1976 39.0917L80.9508 37.9ZM80.9508 23.1L78.1976 21.9083L80.9508 23.1ZM85.0008 17.3L82.9642 15.0972L82.9538 15.1069L82.9434 15.1166L85.0008 17.3ZM91.2008 13.55L92.2324 16.3671L92.2433 16.3631L92.2542 16.359L91.2008 13.55ZM108.101 14L106.857 16.7299L106.863 16.7329L106.87 16.7358L108.101 14ZM114.701 19.2L116.699 21.4381L118.773 19.5864L117.084 17.3776L114.701 19.2ZM107.251 25.85L104.902 27.7167L106.879 30.2033L109.249 28.0881L107.251 25.85ZM103.801 22.85L102.268 25.4286L102.308 25.4528L102.35 25.4757L103.801 22.85ZM96.2508 22.35L97.365 25.1354L97.365 25.1354L96.2508 22.35ZM93.6508 24.1L91.4829 22.0263L91.4588 22.0515L91.4353 22.0772L93.6508 24.1ZM92.0008 26.9L94.8098 27.9534L94.815 27.9393L94.8202 27.9252L92.0008 26.9ZM92.0008 34.15L89.1814 35.1752L89.1865 35.1893L89.1918 35.2034L92.0008 34.15ZM93.6508 36.9L91.4353 38.9228L91.4588 38.9485L91.4829 38.9737L93.6508 36.9ZM96.2508 38.65L95.1366 41.4354L96.2508 38.65ZM103.801 38.2L105.282 40.8091L105.293 40.8027L105.304 40.7963L103.801 38.2ZM107.251 35.15L109.249 32.9119L106.879 30.7967L104.902 33.2833L107.251 35.15ZM114.701 41.8L117.071 43.6394L118.788 41.4269L116.699 39.5619L114.701 41.8ZM108.101 47L109.345 49.7299L109.352 49.7264L109.36 49.7229L108.101 47ZM99.0008 48.8V45.8C96.5145 45.8 94.2627 45.4161 92.2197 44.6783L91.2008 47.5L90.1818 50.3217C92.9389 51.3173 95.8871 51.8 99.0008 51.8V48.8ZM91.2008 47.5L92.2671 44.6959C90.2403 43.9251 88.5075 42.8563 87.0373 41.4972L85.0008 43.7L82.9642 45.9028C85.0274 47.8103 87.4279 49.2749 90.1344 50.3041L91.2008 47.5ZM85.0008 43.7L87.0582 41.5166C85.6284 40.1693 84.5122 38.5756 83.7039 36.7083L80.9508 37.9L78.1976 39.0917C79.3227 41.6911 80.9065 43.964 82.9434 45.8834L85.0008 43.7ZM80.9508 37.9L83.7039 36.7083C82.9171 34.8904 82.5008 32.8351 82.5008 30.5H79.5008H76.5008C76.5008 33.5649 77.0511 36.4429 78.1976 39.0917L80.9508 37.9ZM79.5008 30.5H82.5008C82.5008 28.1649 82.9171 26.1096 83.7039 24.2917L80.9508 23.1L78.1976 21.9083C77.0511 24.5571 76.5008 27.4351 76.5008 30.5H79.5008ZM80.9508 23.1L83.7039 24.2917C84.5122 22.4244 85.6284 20.8307 87.0582 19.4834L85.0008 17.3L82.9434 15.1166C80.9065 17.036 79.3227 19.3089 78.1976 21.9083L80.9508 23.1ZM85.0008 17.3L87.0373 19.5028C88.4991 18.1513 90.22 17.104 92.2324 16.3671L91.2008 13.55L90.1692 10.7329C87.4482 11.7293 85.0358 13.182 82.9642 15.0972L85.0008 17.3ZM91.2008 13.55L92.2542 16.359C94.2875 15.5965 96.5273 15.2 99.0008 15.2V12.2V9.2C95.8743 9.2 92.914 9.70352 90.1474 10.741L91.2008 13.55ZM99.0008 12.2V15.2C102.084 15.2 104.68 15.738 106.857 16.7299L108.101 14L109.345 11.2701C106.255 9.86203 102.784 9.2 99.0008 9.2V12.2ZM108.101 14L106.87 16.7358C109.094 17.7368 110.894 19.1611 112.318 21.0223L114.701 19.2L117.084 17.3776C115.041 14.7056 112.441 12.6632 109.332 11.2642L108.101 14ZM114.701 19.2L112.703 16.9619L105.253 23.6119L107.251 25.85L109.249 28.0881L116.699 21.4381L114.701 19.2ZM107.251 25.85L109.599 23.9833C108.356 22.4189 106.912 21.1418 105.252 20.2243L103.801 22.85L102.35 25.4757C103.223 25.9582 104.079 26.6811 104.902 27.7167L107.251 25.85ZM103.801 22.85L105.334 20.2714C103.595 19.2372 101.656 18.75 99.6008 18.75V21.75V24.75C100.679 24.75 101.54 24.9961 102.268 25.4286L103.801 22.85ZM99.6008 21.75V18.75C98.0406 18.75 96.5386 19.0038 95.1366 19.5646L96.2508 22.35L97.365 25.1354C97.963 24.8962 98.6942 24.75 99.6008 24.75V21.75ZM96.2508 22.35L95.1366 19.5646C93.7448 20.1213 92.5172 20.945 91.4829 22.0263L93.6508 24.1L95.8187 26.1737C96.2511 25.7216 96.7568 25.3787 97.365 25.1354L96.2508 22.35ZM93.6508 24.1L91.4353 22.0772C90.439 23.1684 89.6985 24.4528 89.1814 25.8748L92.0008 26.9L94.8202 27.9252C95.1031 27.1472 95.4625 26.565 95.8662 26.1228L93.6508 24.1ZM92.0008 26.9L89.1918 25.8466C88.646 27.3022 88.4008 28.8671 88.4008 30.5H91.4008H94.4008C94.4008 29.4663 94.5556 28.6311 94.8098 27.9534L92.0008 26.9ZM91.4008 30.5H88.4008C88.4008 32.1349 88.6465 33.7043 89.1814 35.1752L92.0008 34.15L94.8202 33.1248C94.555 32.3957 94.4008 31.5317 94.4008 30.5H91.4008ZM92.0008 34.15L89.1918 35.2034C89.7129 36.5931 90.4535 37.8475 91.4353 38.9228L93.6508 36.9L95.8662 34.8772C95.4481 34.4192 95.0886 33.8402 94.8098 33.0966L92.0008 34.15ZM93.6508 36.9L91.4829 38.9737C92.5172 40.055 93.7448 40.8787 95.1366 41.4354L96.2508 38.65L97.365 35.8646C96.7568 35.6213 96.2511 35.2784 95.8187 34.8263L93.6508 36.9ZM96.2508 38.65L95.1366 41.4354C96.5386 41.9962 98.0406 42.25 99.6008 42.25V39.25V36.25C98.6942 36.25 97.963 36.1038 97.365 35.8646L96.2508 38.65ZM99.6008 39.25V42.25C101.631 42.25 103.551 41.7915 105.282 40.8091L103.801 38.2L102.32 35.5909C101.584 36.0085 100.704 36.25 99.6008 36.25V39.25ZM103.801 38.2L105.304 40.7963C106.936 39.8512 108.363 38.5714 109.599 37.0167L107.251 35.15L104.902 33.2833C104.071 34.3286 103.199 35.0821 102.298 35.6037L103.801 38.2ZM107.251 35.15L105.253 37.3881L112.703 44.0381L114.701 41.8L116.699 39.5619L109.249 32.9119L107.251 35.15ZM114.701 41.8L112.331 39.9606C110.903 41.7998 109.09 43.237 106.841 44.2771L108.101 47L109.36 49.7229C112.445 48.2963 115.031 46.2669 117.071 43.6394L114.701 41.8ZM108.101 47L106.857 44.2701C104.68 45.262 102.084 45.8 99.0008 45.8V48.8V51.8C102.784 51.8 106.255 51.138 109.345 49.7299L108.101 47ZM128.908 26V23H125.908V26H128.908ZM144.508 26H147.508V23H144.508V26ZM144.508 34.5V37.5H147.508V34.5H144.508ZM128.908 34.5H125.908V37.5H128.908V34.5ZM129.708 39.1H126.708V42.1H129.708V39.1ZM147.208 39.1H150.208V36.1H147.208V39.1ZM147.208 48V51H150.208V48H147.208ZM118.108 48H115.108V51H118.108V48ZM118.108 13V10H115.108V13H118.108ZM146.558 13H149.558V10H146.558V13ZM146.558 21.9V24.9H149.558V21.9H146.558ZM129.708 21.9V18.9H126.708V21.9H129.708ZM128.908 26V29H144.508V26V23H128.908V26ZM144.508 26H141.508V34.5H144.508H147.508V26H144.508ZM144.508 34.5V31.5H128.908V34.5V37.5H144.508V34.5ZM128.908 34.5H131.908V26H128.908H125.908V34.5H128.908ZM129.708 39.1V42.1H147.208V39.1V36.1H129.708V39.1ZM147.208 39.1H144.208V48H147.208H150.208V39.1H147.208ZM147.208 48V45H118.108V48V51H147.208V48ZM118.108 48H121.108V13H118.108H115.108V48H118.108ZM118.108 13V16H146.558V13V10H118.108V13ZM146.558 13H143.558V21.9H146.558H149.558V13H146.558ZM146.558 21.9V18.9H129.708V21.9V24.9H146.558V21.9ZM129.708 21.9H126.708V39.1H129.708H132.708V21.9H129.708ZM166.741 48H163.741V51H166.741V48ZM166.741 13V10H163.741V13H166.741ZM194.291 15.15L192.986 17.8512L192.998 17.8572L193.01 17.8631L194.291 15.15ZM201.241 21.15L198.715 22.769L201.241 21.15ZM201.241 39.85L203.766 41.469L203.771 41.4617L203.776 41.4544L201.241 39.85ZM194.291 45.9L195.571 48.6131L195.583 48.6072L195.596 48.6012L194.291 45.9ZM178.541 38.8H175.541V41.8H178.541V38.8ZM187.841 37.85L186.499 35.1667L186.485 35.1739L186.47 35.1813L187.841 37.85ZM190.791 35.05L193.4 36.5308L193.408 36.516L193.416 36.5011L190.791 35.05ZM190.791 25.95L193.4 24.4692V24.4692L190.791 25.95ZM187.841 23.15L186.47 25.8187L186.485 25.8261L186.499 25.8333L187.841 23.15ZM178.541 22.2V19.2H175.541V22.2H178.541ZM166.741 48H169.741V13H166.741H163.741V48H166.741ZM166.741 13V16H183.991V13V10H166.741V13ZM183.991 13V16C187.521 16 190.494 16.6475 192.986 17.8512L194.291 15.15L195.596 12.4488C192.154 10.7859 188.26 10 183.991 10V13ZM194.291 15.15L193.01 17.8631C195.5 19.0382 197.372 20.6733 198.715 22.769L201.241 21.15L203.766 19.531C201.776 16.4267 199.014 14.0618 195.571 12.4369L194.291 15.15ZM201.241 21.15L198.715 22.769C200.023 24.8102 200.741 27.327 200.741 30.45H203.741H206.741C206.741 26.373 205.791 22.6898 203.766 19.531L201.241 21.15ZM203.741 30.45H200.741C200.741 33.6113 200.021 36.1674 198.706 38.2456L201.241 39.85L203.776 41.4544C205.794 38.266 206.741 34.5554 206.741 30.45H203.741ZM201.241 39.85L198.715 38.231C197.368 40.333 195.488 41.9897 192.986 43.1988L194.291 45.9L195.596 48.6012C199.027 46.9436 201.78 44.567 203.766 41.469L201.241 39.85ZM194.291 45.9L193.01 43.1869C190.513 44.3656 187.531 45 183.991 45V48V51C188.251 51 192.135 50.2344 195.571 48.6131L194.291 45.9ZM183.991 48V45H166.741V48V51H183.991V48ZM178.541 38.8V41.8H183.491V38.8V35.8H178.541V38.8ZM183.491 38.8V41.8C185.538 41.8 187.476 41.4095 189.211 40.5187L187.841 37.85L186.47 35.1813C185.738 35.5571 184.776 35.8 183.491 35.8V38.8ZM187.841 37.85L189.182 40.5333C190.982 39.6333 192.406 38.2811 193.4 36.5308L190.791 35.05L188.182 33.5692C187.775 34.2856 187.232 34.8 186.499 35.1667L187.841 37.85ZM190.791 35.05L193.416 36.5011C194.415 34.6944 194.841 32.6356 194.841 30.45H191.841H188.841C188.841 31.8644 188.566 32.8723 188.165 33.5989L190.791 35.05ZM191.841 30.45H194.841C194.841 28.2902 194.412 26.2522 193.4 24.4692L190.791 25.95L188.182 27.4308C188.57 28.1145 188.841 29.0764 188.841 30.45H191.841ZM190.791 25.95L193.4 24.4692C192.406 22.7189 190.982 21.3666 189.182 20.4667L187.841 23.15L186.499 25.8333C187.232 26.2 187.775 26.7144 188.182 27.4308L190.791 25.95ZM187.841 23.15L189.211 20.4813C187.476 19.5904 185.538 19.2 183.491 19.2V22.2V25.2C184.776 25.2 185.738 25.4429 186.47 25.8187L187.841 23.15ZM183.491 22.2V19.2H178.541V22.2V25.2H183.491V22.2ZM178.541 22.2H175.541V38.8H178.541H181.541V22.2H178.541ZM203.761 48L201.012 46.7984L199.175 51H203.761V48ZM219.061 13V10H217.098L216.312 11.7984L219.061 13ZM230.661 13L233.41 11.7984L232.624 10H230.661V13ZM245.961 48V51H250.546L248.71 46.7984L245.961 48ZM233.761 48L230.961 49.0763L231.7 51H233.761V48ZM222.461 18.6V15.6H218.094L219.661 19.6763L222.461 18.6ZM227.061 18.6L229.861 19.6763L231.428 15.6H227.061V18.6ZM215.761 48V51H217.822L218.561 49.0763L215.761 48ZM212.861 41.9L210.032 40.9015L208.621 44.9H212.861V41.9ZM215.861 33.4V30.4H213.738L213.032 32.4015L215.861 33.4ZM231.961 33.4L234.79 32.4015L234.083 30.4H231.961V33.4ZM234.961 41.9V44.9H239.201L237.79 40.9015L234.961 41.9ZM203.761 48L206.51 49.2016L221.81 14.2016L219.061 13L216.312 11.7984L201.012 46.7984L203.761 48ZM219.061 13V16H230.661V13V10H219.061V13ZM230.661 13L227.912 14.2016L243.212 49.2016L245.961 48L248.71 46.7984L233.41 11.7984L230.661 13ZM245.961 48V45H233.761V48V51H245.961V48ZM233.761 48L236.561 46.9237L225.261 17.5237L222.461 18.6L219.661 19.6763L230.961 49.0763L233.761 48ZM222.461 18.6V21.6H227.061V18.6V15.6H222.461V18.6ZM227.061 18.6L224.261 17.5237L212.961 46.9237L215.761 48L218.561 49.0763L229.861 19.6763L227.061 18.6ZM215.761 48V45H203.761V48V51H215.761V48ZM212.861 41.9L215.69 42.8985L218.69 34.3985L215.861 33.4L213.032 32.4015L210.032 40.9015L212.861 41.9ZM215.861 33.4V36.4H231.961V33.4V30.4H215.861V33.4ZM231.961 33.4L229.132 34.3985L232.132 42.8985L234.961 41.9L237.79 40.9015L234.79 32.4015L231.961 33.4ZM234.961 41.9V38.9H212.861V41.9V44.9H234.961V41.9ZM254.598 48H251.598V51H254.598V48ZM254.598 32.65L257.4 31.5771L251.598 32.65H254.598ZM257.298 39.7L254.72 41.235L260.1 38.6271L257.298 39.7ZM241.398 13V10H236.12L238.82 14.535L241.398 13ZM253.848 13L256.433 11.4774L255.563 10H253.848V13ZM264.598 31.25V34.25H269.847L267.183 29.7274L264.598 31.25ZM257.348 31.25L254.769 29.7169L252.074 34.25H257.348V31.25ZM268.198 13V10H266.491L265.619 11.4669L268.198 13ZM279.598 13L282.18 14.5278L284.859 10H279.598V13ZM263.798 39.7L260.983 38.662L266.38 41.2278L263.798 39.7ZM266.398 32.65H269.398L263.583 31.612L266.398 32.65ZM266.398 48V51H269.398V48H266.398ZM254.598 48H257.598V32.65H254.598H251.598V48H254.598ZM254.598 32.65L251.796 33.7229L254.496 40.7729L257.298 39.7L260.1 38.6271L257.4 31.5771L254.598 32.65ZM257.298 39.7L259.876 38.165L243.976 11.465L241.398 13L238.82 14.535L254.72 41.235L257.298 39.7ZM241.398 13V16H253.848V13V10H241.398V13ZM253.848 13L251.263 14.5226L262.013 32.7726L264.598 31.25L267.183 29.7274L256.433 11.4774L253.848 13ZM264.598 31.25V28.25H257.348V31.25V34.25H264.598V31.25ZM257.348 31.25L259.927 32.7831L270.777 14.5331L268.198 13L265.619 11.4669L254.769 29.7169L257.348 31.25ZM268.198 13V16H279.598V13V10H268.198V13ZM279.598 13L277.016 11.4722L261.216 38.1722L263.798 39.7L266.38 41.2278L282.18 14.5278L279.598 13ZM263.798 39.7L266.613 40.738L269.213 33.688L266.398 32.65L263.583 31.612L260.983 38.662L263.798 39.7ZM266.398 32.65H263.398V48H266.398H269.398V32.65H266.398ZM266.398 48V45H254.598V48V51H266.398V48ZM296.086 48H293.086V51H296.086V48ZM296.086 13V10H293.086V13H296.086ZM307.886 13H310.886V10H307.886V13ZM307.886 48V51H310.886V48H307.886ZM296.086 48H299.086V13H296.086H293.086V48H296.086ZM296.086 13V16H307.886V13V10H296.086V13ZM307.886 13H304.886V48H307.886H310.886V13H307.886ZM307.886 48V45H296.086V48V51H307.886V48ZM313.567 48H310.567V51H313.567V48ZM313.567 13V10H310.567V13H313.567ZM323.267 13L325.569 11.0763L324.669 10H323.267V13ZM341.067 34.3V37.3H347.483L343.369 32.3763L341.067 34.3ZM336.567 34.3H333.567V37.3H336.567V34.3ZM336.567 13V10H333.567V13H336.567ZM348.067 13H351.067V10H348.067V13ZM348.067 48V51H351.067V48H348.067ZM338.367 48L336.065 49.9237L336.964 51H338.367V48ZM320.567 26.7V23.7H314.15L318.265 28.6237L320.567 26.7ZM325.067 26.7H328.067V23.7H325.067V26.7ZM325.067 48V51H328.067V48H325.067ZM313.567 48H316.567V13H313.567H310.567V48H313.567ZM313.567 13V16H323.267V13V10H313.567V13ZM323.267 13L320.965 14.9237L338.765 36.2237L341.067 34.3L343.369 32.3763L325.569 11.0763L323.267 13ZM341.067 34.3V31.3H336.567V34.3V37.3H341.067V34.3ZM336.567 34.3H339.567V13H336.567H333.567V34.3H336.567ZM336.567 13V16H348.067V13V10H336.567V13ZM348.067 13H345.067V48H348.067H351.067V13H348.067ZM348.067 48V45H338.367V48V51H348.067V48ZM338.367 48L340.669 46.0763L322.869 24.7763L320.567 26.7L318.265 28.6237L336.065 49.9237L338.367 48ZM320.567 26.7V29.7H325.067V26.7V23.7H320.567V26.7ZM325.067 26.7H322.067V48H325.067H328.067V26.7H325.067ZM325.067 48V45H313.567V48V51H325.067V48ZM364.752 27.9V24.9H361.752V27.9H364.752ZM380.152 27.9H383.152V24.9H380.152V27.9ZM380.152 36.8V39.8H383.152V36.8H380.152ZM364.752 36.8H361.752V39.8H364.752V36.8ZM365.552 48V51H368.552V48H365.552ZM353.752 48H350.752V51H353.752V48ZM353.752 13V10H350.752V13H353.752ZM382.202 13H385.202V10H382.202V13ZM382.202 21.9V24.9H385.202V21.9H382.202ZM365.552 21.9V18.9H362.552V21.9H365.552ZM364.752 27.9V30.9H380.152V27.9V24.9H364.752V27.9ZM380.152 27.9H377.152V36.8H380.152H383.152V27.9H380.152ZM380.152 36.8V33.8H364.752V36.8V39.8H380.152V36.8ZM364.752 36.8H367.752V27.9H364.752H361.752V36.8H364.752ZM365.552 48V45H353.752V48V51H365.552V48ZM353.752 48H356.752V13H353.752H350.752V48H353.752ZM353.752 13V16H382.202V13V10H353.752V13ZM382.202 13H379.202V21.9H382.202H385.202V13H382.202ZM382.202 21.9V18.9H365.552V21.9V24.9H382.202V21.9ZM365.552 21.9H362.552V48H365.552H368.552V21.9H365.552ZM396.136 47.45L395.083 50.259L395.095 50.2637L396.136 47.45ZM389.886 43.65L387.827 45.8322L387.838 45.8426L387.849 45.8528L389.886 43.65ZM385.736 37.8L382.983 38.9917L382.99 39.0089L382.998 39.026L385.736 37.8ZM385.736 23.2L382.998 21.974L382.994 21.9836L382.989 21.9932L385.736 23.2ZM389.886 17.4L391.923 19.6028L391.934 19.5926L391.945 19.5822L389.886 17.4ZM396.136 13.55L395.095 10.7363L395.083 10.741L396.136 13.55ZM411.936 13.55L410.883 16.359V16.359L411.936 13.55ZM418.186 17.4L416.127 19.5822L416.138 19.5926L416.149 19.6028L418.186 17.4ZM422.286 23.2L419.533 24.3917L419.544 24.4166L419.555 24.4414L422.286 23.2ZM422.286 37.8L419.548 36.574L419.54 36.5911L419.533 36.6083L422.286 37.8ZM418.186 43.65L420.223 45.8528L420.234 45.8426L420.245 45.8322L418.186 43.65ZM411.936 47.45L410.883 44.641L411.936 47.45ZM407.086 38.65L405.939 35.8779L405.921 35.8851L405.904 35.8926L407.086 38.65ZM409.586 36.95L407.418 34.8763L407.416 34.8786L409.586 36.95ZM411.286 34.2L414.095 35.2534L414.1 35.2393L414.105 35.2252L411.286 34.2ZM411.286 26.85L408.467 27.8752L408.472 27.8893L408.477 27.9034L411.286 26.85ZM409.586 24.1L407.37 26.1228L407.416 26.1731L407.465 26.2213L409.586 24.1ZM407.086 22.35L405.904 25.1074L405.921 25.1149L405.939 25.1221L407.086 22.35ZM400.936 22.35L399.789 19.5779L399.771 19.5851L399.754 19.5926L400.936 22.35ZM398.436 24.1L396.268 22.0263L396.266 22.0286L398.436 24.1ZM396.786 26.85L399.595 27.9034L399.6 27.8893L399.605 27.8752L396.786 26.85ZM396.786 34.2L393.967 35.2252L393.972 35.2393L393.977 35.2534L396.786 34.2ZM398.436 36.95L396.22 38.9728L396.266 39.0231L396.315 39.0713L398.436 36.95ZM400.936 38.65L399.754 41.4074L399.771 41.4149L399.789 41.4221L400.936 38.65ZM404.036 48.8V45.8C401.525 45.8 399.247 45.4022 397.177 44.6363L396.136 47.45L395.095 50.2637C397.891 51.2978 400.88 51.8 404.036 51.8V48.8ZM396.136 47.45L397.189 44.641C395.129 43.8685 393.386 42.7998 391.923 41.4472L389.886 43.65L387.849 45.8528C389.92 47.7669 392.343 49.2315 395.083 50.259L396.136 47.45ZM389.886 43.65L391.945 41.4678C390.467 40.0742 389.314 38.4498 388.474 36.574L385.736 37.8L382.998 39.026C384.158 41.6169 385.771 43.8925 387.827 45.8322L389.886 43.65ZM385.736 37.8L388.489 36.6083C387.698 34.7812 387.286 32.7574 387.286 30.5H384.286H381.286C381.286 33.5092 381.84 36.3521 382.983 38.9917L385.736 37.8ZM384.286 30.5H387.286C387.286 28.203 387.7 26.1866 388.482 24.4068L385.736 23.2L382.989 21.9932C381.838 24.6134 381.286 27.4636 381.286 30.5H384.286ZM385.736 23.2L388.474 24.426C389.311 22.5558 390.458 20.9565 391.923 19.6028L389.886 17.4L387.849 15.1972C385.78 17.1102 384.16 19.3775 382.998 21.974L385.736 23.2ZM389.886 17.4L391.945 19.5822C393.405 18.2042 395.142 17.1268 397.189 16.359L396.136 13.55L395.083 10.741C392.33 11.7732 389.9 13.2625 387.827 15.2178L389.886 17.4ZM396.136 13.55L397.177 16.3637C399.247 15.5978 401.525 15.2 404.036 15.2V12.2V9.2C400.88 9.2 397.891 9.70221 395.095 10.7363L396.136 13.55ZM404.036 12.2V15.2C406.585 15.2 408.857 15.5994 410.883 16.359L411.936 13.55L412.989 10.741C410.215 9.70064 407.22 9.2 404.036 9.2V12.2ZM411.936 13.55L410.883 16.359C412.93 17.1268 414.667 18.2042 416.127 19.5822L418.186 17.4L420.245 15.2178C418.172 13.2625 415.742 11.7732 412.989 10.741L411.936 13.55ZM418.186 17.4L416.149 19.6028C417.606 20.9493 418.73 22.5371 419.533 24.3917L422.286 23.2L425.039 22.0083C423.909 19.3963 422.299 17.1173 420.223 15.1972L418.186 17.4ZM422.286 23.2L419.555 24.4414C420.36 26.2128 420.786 28.2169 420.786 30.5H423.786H426.786C426.786 27.4498 426.212 24.5872 425.017 21.9586L422.286 23.2ZM423.786 30.5H420.786C420.786 32.7434 420.362 34.755 419.548 36.574L422.286 37.8L425.024 39.026C426.21 36.3783 426.786 33.5232 426.786 30.5H423.786ZM422.286 37.8L419.533 36.6083C418.728 38.4685 417.597 40.0813 416.127 41.4678L418.186 43.65L420.245 45.8322C422.308 43.8854 423.911 41.5981 425.039 38.9917L422.286 37.8ZM418.186 43.65L416.149 41.4472C414.686 42.7998 412.943 43.8685 410.883 44.641L411.936 47.45L412.989 50.259C415.729 49.2315 418.152 47.7669 420.223 45.8528L418.186 43.65ZM411.936 47.45L410.883 44.641C408.857 45.4006 406.585 45.8 404.036 45.8V48.8V51.8C407.22 51.8 410.215 51.2994 412.989 50.259L411.936 47.45ZM404.036 39.25V42.25C405.508 42.25 406.931 41.9804 408.268 41.4074L407.086 38.65L405.904 35.8926C405.374 36.1196 404.764 36.25 404.036 36.25V39.25ZM407.086 38.65L408.233 41.4221C409.573 40.8675 410.758 40.0667 411.756 39.0214L409.586 36.95L407.416 34.8786C407.014 35.2999 406.532 35.6325 405.939 35.8779L407.086 38.65ZM409.586 36.95L411.754 39.0237C412.788 37.9426 413.563 36.6716 414.095 35.2534L411.286 34.2L408.477 33.1466C408.209 33.8617 407.851 34.424 407.418 34.8763L409.586 36.95ZM411.286 34.2L414.105 35.2252C414.643 33.7466 414.886 32.1589 414.886 30.5H411.886H408.886C408.886 31.5745 408.729 32.4534 408.467 33.1748L411.286 34.2ZM411.886 30.5H414.886C414.886 28.8435 414.644 27.2599 414.095 25.7966L411.286 26.85L408.477 27.9034C408.728 28.5734 408.886 29.4231 408.886 30.5H411.886ZM411.286 26.85L414.105 25.8248C413.575 24.366 412.788 23.0596 411.707 21.9787L409.586 24.1L407.465 26.2213C407.85 26.607 408.197 27.134 408.467 27.8752L411.286 26.85ZM409.586 24.1L411.801 22.0772C410.802 20.9828 409.603 20.1449 408.233 19.5779L407.086 22.35L405.939 25.1221C406.502 25.3551 406.97 25.6838 407.37 26.1228L409.586 24.1ZM407.086 22.35L408.268 19.5926C406.931 19.0196 405.508 18.75 404.036 18.75V21.75V24.75C404.764 24.75 405.374 24.8804 405.904 25.1074L407.086 22.35ZM404.036 21.75V18.75C402.563 18.75 401.138 19.0198 399.789 19.5779L400.936 22.35L402.083 25.122C402.667 24.8802 403.309 24.75 404.036 24.75V21.75ZM400.936 22.35L399.754 19.5926C398.433 20.1589 397.268 20.981 396.268 22.0263L398.436 24.1L400.604 26.1737C401.071 25.6857 401.572 25.3411 402.118 25.1074L400.936 22.35ZM398.436 24.1L396.266 22.0286C395.238 23.1049 394.487 24.3947 393.967 25.8248L396.786 26.85L399.605 27.8752C399.885 27.1053 400.233 26.5618 400.606 26.1714L398.436 24.1ZM396.786 26.85L393.977 25.7966C393.428 27.2599 393.186 28.8435 393.186 30.5H396.186H399.186C399.186 29.4231 399.344 28.5734 399.595 27.9034L396.786 26.85ZM396.186 30.5H393.186C393.186 32.1589 393.429 33.7466 393.967 35.2252L396.786 34.2L399.605 33.1748C399.343 32.4534 399.186 31.5745 399.186 30.5H396.186ZM396.786 34.2L393.977 35.2534C394.498 36.6431 395.239 37.8975 396.22 38.9728L398.436 36.95L400.651 34.9272C400.233 34.4692 399.874 33.8902 399.595 33.1466L396.786 34.2ZM398.436 36.95L396.315 39.0713C397.312 40.0686 398.462 40.8538 399.754 41.4074L400.936 38.65L402.118 35.8926C401.543 35.6461 401.027 35.298 400.557 34.8287L398.436 36.95ZM400.936 38.65L399.789 41.4221C401.138 41.9802 402.563 42.25 404.036 42.25V39.25V36.25C403.309 36.25 402.667 36.1198 402.083 35.8779L400.936 38.65ZM428.069 48H425.069V51H428.069V48ZM428.069 13V10H425.069V13H428.069ZM453.369 14.6L452.136 17.335L452.143 17.3383L452.15 17.3414L453.369 14.6ZM458.919 19.2L456.403 20.835L456.41 20.8447L456.416 20.8543L458.919 19.2ZM458.919 33.2L461.408 34.874L461.415 34.8642L461.421 34.8543L458.919 33.2ZM453.369 37.65L452.182 34.8945L452.175 34.8976L452.168 34.9006L453.369 37.65ZM434.619 39.2L432.583 36.9964L426.95 42.2H434.619V39.2ZM439.869 34.35H442.869V27.4944L437.833 32.1464L439.869 34.35ZM439.869 48V51H442.869V48H439.869ZM449.019 48L446.532 49.6776L447.424 51H449.019V48ZM440.419 35.25V32.25H434.777L437.932 36.9276L440.419 35.25ZM452.919 35.25L455.397 33.5591L454.504 32.25H452.919V35.25ZM461.619 48V51H467.298L464.097 46.3091L461.619 48ZM439.869 35.65L437.728 37.7512L442.869 42.9904V35.65H439.869ZM434.619 30.3V27.3H427.472L432.478 32.4012L434.619 30.3ZM447.769 29.2L445.742 26.9885L445.718 27.0101L445.695 27.0321L447.769 29.2ZM447.769 23.2L445.695 25.3679L445.718 25.3899L445.742 25.4115L447.769 23.2ZM434.619 22.1L432.478 19.9988L427.472 25.1H434.619V22.1ZM439.869 16.75H442.869V9.40962L437.728 14.6488L439.869 16.75ZM428.069 48H431.069V13H428.069H425.069V48H428.069ZM428.069 13V16H444.919V13V10H428.069V13ZM444.919 13V16C447.867 16 450.243 16.482 452.136 17.335L453.369 14.6L454.601 11.865C451.761 10.5847 448.504 10 444.919 10V13ZM453.369 14.6L452.15 17.3414C454.076 18.1972 455.451 19.3701 456.403 20.835L458.919 19.2L461.434 17.565C459.786 15.0299 457.462 13.1362 454.587 11.8586L453.369 14.6ZM458.919 19.2L456.416 20.8543C457.346 22.2617 457.869 24.0004 457.869 26.2H460.869H463.869C463.869 22.9996 463.091 20.0716 461.421 17.5457L458.919 19.2ZM460.869 26.2H457.869C457.869 28.3996 457.346 30.1383 456.416 31.5457L458.919 33.2L461.421 34.8543C463.091 32.3284 463.869 29.4004 463.869 26.2H460.869ZM458.919 33.2L456.429 31.526C455.489 32.9245 454.12 34.0605 452.182 34.8945L453.369 37.65L454.555 40.4055C457.418 39.1728 459.749 37.3421 461.408 34.874L458.919 33.2ZM453.369 37.65L452.168 34.9006C450.266 35.7311 447.878 36.2 444.919 36.2V39.2V42.2C448.493 42.2 451.738 41.6356 454.569 40.3994L453.369 37.65ZM444.919 39.2V36.2H434.619V39.2V42.2H444.919V39.2ZM434.619 39.2L436.654 41.4036L441.904 36.5536L439.869 34.35L437.833 32.1464L432.583 36.9964L434.619 39.2ZM439.869 34.35H436.869V48H439.869H442.869V34.35H439.869ZM439.869 48V45H428.069V48V51H439.869V48ZM449.019 48L451.506 46.3224L442.906 33.5724L440.419 35.25L437.932 36.9276L446.532 49.6776L449.019 48ZM440.419 35.25V38.25H452.919V35.25V32.25H440.419V35.25ZM452.919 35.25L450.441 36.9409L459.141 49.6909L461.619 48L464.097 46.3091L455.397 33.5591L452.919 35.25ZM461.619 48V45H449.019V48V51H461.619V48ZM439.869 35.65L442.01 33.5488L436.76 28.1988L434.619 30.3L432.478 32.4012L437.728 37.7512L439.869 35.65ZM434.619 30.3V33.3H444.169V30.3V27.3H434.619V30.3ZM444.169 30.3V33.3C446.17 33.3 448.281 32.8615 449.842 31.3679L447.769 29.2L445.695 27.0321C445.723 27.0052 445.434 27.3 444.169 27.3V30.3ZM447.769 29.2L449.796 31.4115C451.321 30.0136 451.969 28.1537 451.969 26.2H448.969H445.969C445.969 26.7797 445.817 26.9197 445.742 26.9885L447.769 29.2ZM448.969 26.2H451.969C451.969 24.2463 451.321 22.3864 449.796 20.9885L447.769 23.2L445.742 25.4115C445.817 25.4803 445.969 25.6203 445.969 26.2H448.969ZM447.769 23.2L449.842 21.0321C448.281 19.5385 446.17 19.1 444.169 19.1V22.1V25.1C445.434 25.1 445.723 25.3948 445.695 25.3679L447.769 23.2ZM444.169 22.1V19.1H434.619V22.1V25.1H444.169V22.1ZM434.619 22.1L436.76 24.2012L442.01 18.8512L439.869 16.75L437.728 14.6488L432.478 19.9988L434.619 22.1ZM439.869 16.75H436.869V35.65H439.869H442.869V16.75H439.869ZM465.325 48H462.325V51H465.325V48ZM465.325 13V10H462.325V13H465.325ZM475.025 13L477.583 11.4327L476.705 10H475.025V13ZM489.025 35.85V38.85H494.381L491.583 34.2827L489.025 35.85ZM483.925 35.85L481.347 34.3156L478.648 38.85H483.925V35.85ZM497.525 13V10H495.819L494.947 11.4656L497.525 13ZM507.225 13L510.225 12.9914L510.216 10H507.225V13ZM507.325 48V51H510.333L510.325 47.9914L507.325 48ZM496.575 48L493.575 48.016L493.591 51H496.575V48ZM496.475 29.2V26.2H493.459L493.475 29.216L496.475 29.2ZM498.175 29.2L500.754 30.7326L503.447 26.2H498.175V29.2ZM488.875 44.85V47.85H490.582L491.454 46.3826L488.875 44.85ZM483.675 44.85L481.125 46.4305L482.005 47.85H483.675V44.85ZM473.975 29.2V26.2H468.586L471.425 30.7805L473.975 29.2ZM476.075 29.2H479.075V26.2H476.075V29.2ZM476.075 48V51H479.075V48H476.075ZM465.325 48H468.325V13H465.325H462.325V48H465.325ZM465.325 13V16H475.025V13V10H465.325V13ZM475.025 13L472.467 14.5673L486.467 37.4173L489.025 35.85L491.583 34.2827L477.583 11.4327L475.025 13ZM489.025 35.85V32.85H483.925V35.85V38.85H489.025V35.85ZM483.925 35.85L486.503 37.3843L500.103 14.5344L497.525 13L494.947 11.4656L481.347 34.3156L483.925 35.85ZM497.525 13V16H507.225V13V10H497.525V13ZM507.225 13L504.225 13.0086L504.325 48.0086L507.325 48L510.325 47.9914L510.225 12.9914L507.225 13ZM507.325 48V45H496.575V48V51H507.325V48ZM496.575 48L499.575 47.984L499.475 29.184L496.475 29.2L493.475 29.216L493.575 48.016L496.575 48ZM496.475 29.2V32.2H498.175V29.2V26.2H496.475V29.2ZM498.175 29.2L495.596 27.6674L486.296 43.3174L488.875 44.85L491.454 46.3826L500.754 30.7326L498.175 29.2ZM488.875 44.85V41.85H483.675V44.85V47.85H488.875V44.85ZM483.675 44.85L486.225 43.2695L476.525 27.6195L473.975 29.2L471.425 30.7805L481.125 46.4305L483.675 44.85ZM473.975 29.2V32.2H476.075V29.2V26.2H473.975V29.2ZM476.075 29.2H473.075V48H476.075H479.075V29.2H476.075ZM476.075 48V45H465.325V48V51H476.075V48ZM509.23 48L506.481 46.7984L504.644 51H509.23V48ZM524.53 13V10H522.567L521.781 11.7984L524.53 13ZM536.13 13L538.879 11.7984L538.092 10H536.13V13ZM551.43 48V51H556.015L554.179 46.7984L551.43 48ZM539.23 48L536.429 49.0763L537.169 51H539.23V48ZM527.93 18.6V15.6H523.563L525.129 19.6763L527.93 18.6ZM532.53 18.6L535.33 19.6763L536.897 15.6H532.53V18.6ZM521.23 48V51H523.291L524.03 49.0763L521.23 48ZM518.33 41.9L515.501 40.9015L514.089 44.9H518.33V41.9ZM521.33 33.4V30.4H519.207L518.501 32.4015L521.33 33.4ZM537.43 33.4L540.259 32.4015L539.552 30.4H537.43V33.4ZM540.43 41.9V44.9H544.67L543.259 40.9015L540.43 41.9ZM509.23 48L511.979 49.2016L527.279 14.2016L524.53 13L521.781 11.7984L506.481 46.7984L509.23 48ZM524.53 13V16H536.13V13V10H524.53V13ZM536.13 13L533.381 14.2016L548.681 49.2016L551.43 48L554.179 46.7984L538.879 11.7984L536.13 13ZM551.43 48V45H539.23V48V51H551.43V48ZM539.23 48L542.03 46.9237L530.73 17.5237L527.93 18.6L525.129 19.6763L536.429 49.0763L539.23 48ZM527.93 18.6V21.6H532.53V18.6V15.6H527.93V18.6ZM532.53 18.6L529.729 17.5237L518.429 46.9237L521.23 48L524.03 49.0763L535.33 19.6763L532.53 18.6ZM521.23 48V45H509.23V48V51H521.23V48ZM518.33 41.9L521.159 42.8985L524.159 34.3985L521.33 33.4L518.501 32.4015L515.501 40.9015L518.33 41.9ZM521.33 33.4V36.4H537.43V33.4V30.4H521.33V33.4ZM537.43 33.4L534.601 34.3985L537.601 42.8985L540.43 41.9L543.259 40.9015L540.259 32.4015L537.43 33.4ZM540.43 41.9V38.9H518.33V41.9V44.9H540.43V41.9ZM559.155 48H556.155V51H559.155V48ZM559.155 22.15H562.155V19.15H559.155V22.15ZM548.905 22.15H545.905V25.15H548.905V22.15ZM548.905 13V10H545.905V13H548.905ZM581.205 13H584.205V10H581.205V13ZM581.205 22.15V25.15H584.205V22.15H581.205ZM570.955 22.15V19.15H567.955V22.15H570.955ZM570.955 48V51H573.955V48H570.955ZM559.155 48H562.155V22.15H559.155H556.155V48H559.155ZM559.155 22.15V19.15H548.905V22.15V25.15H559.155V22.15ZM548.905 22.15H551.905V13H548.905H545.905V22.15H548.905ZM548.905 13V16H581.205V13V10H548.905V13ZM581.205 13H578.205V22.15H581.205H584.205V13H581.205ZM581.205 22.15V19.15H570.955V22.15V25.15H581.205V22.15ZM570.955 22.15H567.955V48H570.955H573.955V22.15H570.955ZM570.955 48V45H559.155V48V51H570.955V48ZM584.27 48H581.27V51H584.27V48ZM584.27 13V10H581.27V13H584.27ZM596.07 13H599.07V10H596.07V13ZM596.07 48V51H599.07V48H596.07ZM584.27 48H587.27V13H584.27H581.27V48H584.27ZM584.27 13V16H596.07V13V10H584.27V13ZM596.07 13H593.07V48H596.07H599.07V13H596.07ZM596.07 48V45H584.27V48V51H596.07V48ZM612.2 47.45L611.147 50.259L611.16 50.2637L612.2 47.45ZM605.95 43.65L603.892 45.8322L603.903 45.8426L603.914 45.8528L605.95 43.65ZM601.8 37.8L599.047 38.9917L599.055 39.0089L599.062 39.026L601.8 37.8ZM601.8 23.2L599.062 21.974L599.058 21.9836L599.054 21.9932L601.8 23.2ZM605.95 17.4L607.987 19.6028L607.998 19.5926L608.009 19.5822L605.95 17.4ZM612.2 13.55L611.16 10.7363L611.147 10.741L612.2 13.55ZM628 13.55L626.947 16.359V16.359L628 13.55ZM634.25 17.4L632.192 19.5822L632.203 19.5926L632.214 19.6028L634.25 17.4ZM638.35 23.2L635.597 24.3917L635.608 24.4166L635.619 24.4414L638.35 23.2ZM638.35 37.8L635.612 36.574L635.605 36.5911L635.597 36.6083L638.35 37.8ZM634.25 43.65L636.287 45.8528L636.298 45.8426L636.309 45.8322L634.25 43.65ZM628 47.45L626.947 44.641L628 47.45ZM623.15 38.65L622.003 35.8779L621.986 35.8851L621.969 35.8926L623.15 38.65ZM625.65 36.95L623.482 34.8763L623.48 34.8786L625.65 36.95ZM627.35 34.2L630.159 35.2534L630.165 35.2393L630.17 35.2252L627.35 34.2ZM627.35 26.85L624.531 27.8752L624.536 27.8893L624.541 27.9034L627.35 26.85ZM625.65 24.1L623.435 26.1228L623.481 26.1731L623.529 26.2213L625.65 24.1ZM623.15 22.35L621.969 25.1074L621.986 25.1149L622.003 25.1221L623.15 22.35ZM617 22.35L615.853 19.5779L615.836 19.5851L615.819 19.5926L617 22.35ZM614.5 24.1L612.332 22.0263L612.33 22.0286L614.5 24.1ZM612.85 26.85L615.659 27.9034L615.665 27.8893L615.67 27.8752L612.85 26.85ZM612.85 34.2L610.031 35.2252L610.036 35.2393L610.041 35.2534L612.85 34.2ZM614.5 36.95L612.285 38.9728L612.331 39.0231L612.379 39.0713L614.5 36.95ZM617 38.65L615.819 41.4074L615.836 41.4149L615.853 41.4221L617 38.65ZM620.1 48.8V45.8C617.59 45.8 615.312 45.4022 613.241 44.6363L612.2 47.45L611.16 50.2637C613.956 51.2978 616.945 51.8 620.1 51.8V48.8ZM612.2 47.45L613.254 44.641C611.194 43.8685 609.45 42.7998 607.987 41.4472L605.95 43.65L603.914 45.8528C605.984 47.7669 608.407 49.2315 611.147 50.259L612.2 47.45ZM605.95 43.65L608.009 41.4678C606.532 40.0742 605.378 38.4498 604.538 36.574L601.8 37.8L599.062 39.026C600.222 41.6169 601.836 43.8925 603.892 45.8322L605.95 43.65ZM601.8 37.8L604.554 36.6083C603.763 34.7812 603.35 32.7574 603.35 30.5H600.35H597.35C597.35 33.5092 597.905 36.3521 599.047 38.9917L601.8 37.8ZM600.35 30.5H603.35C603.35 28.203 603.765 26.1866 604.547 24.4068L601.8 23.2L599.054 21.9932C597.903 24.6134 597.35 27.4636 597.35 30.5H600.35ZM601.8 23.2L604.538 24.426C605.376 22.5558 606.523 20.9565 607.987 19.6028L605.95 17.4L603.914 15.1972C601.845 17.1102 600.225 19.3775 599.062 21.974L601.8 23.2ZM605.95 17.4L608.009 19.5822C609.47 18.2042 611.206 17.1268 613.254 16.359L612.2 13.55L611.147 10.741C608.395 11.7732 605.964 13.2625 603.892 15.2178L605.95 17.4ZM612.2 13.55L613.241 16.3637C615.312 15.5978 617.59 15.2 620.1 15.2V12.2V9.2C616.945 9.2 613.956 9.70221 611.16 10.7363L612.2 13.55ZM620.1 12.2V15.2C622.65 15.2 624.921 15.5994 626.947 16.359L628 13.55L629.054 10.741C626.279 9.70064 623.284 9.2 620.1 9.2V12.2ZM628 13.55L626.947 16.359C628.995 17.1268 630.731 18.2042 632.192 19.5822L634.25 17.4L636.309 15.2178C634.236 13.2625 631.806 11.7732 629.054 10.741L628 13.55ZM634.25 17.4L632.214 19.6028C633.67 20.9493 634.794 22.5371 635.597 24.3917L638.35 23.2L641.104 22.0083C639.973 19.3963 638.364 17.1173 636.287 15.1972L634.25 17.4ZM638.35 23.2L635.619 24.4414C636.424 26.2128 636.85 28.2169 636.85 30.5H639.85H642.85C642.85 27.4498 642.276 24.5872 641.081 21.9586L638.35 23.2ZM639.85 30.5H636.85C636.85 32.7434 636.427 34.755 635.612 36.574L638.35 37.8L641.088 39.026C642.274 36.3783 642.85 33.5232 642.85 30.5H639.85ZM638.35 37.8L635.597 36.6083C634.792 38.4685 633.661 40.0813 632.192 41.4678L634.25 43.65L636.309 45.8322C638.373 43.8854 639.975 41.5981 641.104 38.9917L638.35 37.8ZM634.25 43.65L632.214 41.4472C630.751 42.7998 629.007 43.8685 626.947 44.641L628 47.45L629.054 50.259C631.794 49.2315 634.217 47.7669 636.287 45.8528L634.25 43.65ZM628 47.45L626.947 44.641C624.921 45.4006 622.65 45.8 620.1 45.8V48.8V51.8C623.284 51.8 626.279 51.2994 629.054 50.259L628 47.45ZM620.1 39.25V42.25C621.573 42.25 622.995 41.9804 624.332 41.4074L623.15 38.65L621.969 35.8926C621.439 36.1196 620.828 36.25 620.1 36.25V39.25ZM623.15 38.65L624.297 41.4221C625.638 40.8675 626.823 40.0667 627.82 39.0214L625.65 36.95L623.48 34.8786C623.078 35.2999 622.597 35.6325 622.003 35.8779L623.15 38.65ZM625.65 36.95L627.818 39.0237C628.852 37.9426 629.628 36.6716 630.159 35.2534L627.35 34.2L624.541 33.1466C624.273 33.8617 623.915 34.424 623.482 34.8763L625.65 36.95ZM627.35 34.2L630.17 35.2252C630.707 33.7466 630.95 32.1589 630.95 30.5H627.95H624.95C624.95 31.5745 624.793 32.4534 624.531 33.1748L627.35 34.2ZM627.95 30.5H630.95C630.95 28.8435 630.708 27.2599 630.159 25.7966L627.35 26.85L624.541 27.9034C624.793 28.5734 624.95 29.4231 624.95 30.5H627.95ZM627.35 26.85L630.17 25.8248C629.639 24.366 628.853 23.0596 627.772 21.9787L625.65 24.1L623.529 26.2213C623.915 26.607 624.261 27.134 624.531 27.8752L627.35 26.85ZM625.65 24.1L627.866 22.0772C626.867 20.9828 625.668 20.1449 624.297 19.5779L623.15 22.35L622.003 25.1221C622.566 25.3551 623.034 25.6838 623.435 26.1228L625.65 24.1ZM623.15 22.35L624.332 19.5926C622.995 19.0196 621.573 18.75 620.1 18.75V21.75V24.75C620.828 24.75 621.439 24.8804 621.969 25.1074L623.15 22.35ZM620.1 21.75V18.75C618.627 18.75 617.202 19.0198 615.853 19.5779L617 22.35L618.147 25.122C618.732 24.8802 619.373 24.75 620.1 24.75V21.75ZM617 22.35L615.819 19.5926C614.497 20.1589 613.332 20.981 612.332 22.0263L614.5 24.1L616.668 26.1737C617.135 25.6857 617.637 25.3411 618.182 25.1074L617 22.35ZM614.5 24.1L612.33 22.0286C611.303 23.1049 610.551 24.3947 610.031 25.8248L612.85 26.85L615.67 27.8752C615.95 27.1053 616.298 26.5618 616.67 26.1714L614.5 24.1ZM612.85 26.85L610.041 25.7966C609.493 27.2599 609.25 28.8435 609.25 30.5H612.25H615.25C615.25 29.4231 615.408 28.5734 615.659 27.9034L612.85 26.85ZM612.25 30.5H609.25C609.25 32.1589 609.493 33.7466 610.031 35.2252L612.85 34.2L615.67 33.1748C615.407 32.4534 615.25 31.5745 615.25 30.5H612.25ZM612.85 34.2L610.041 35.2534C610.563 36.6431 611.303 37.8975 612.285 38.9728L614.5 36.95L616.716 34.9272C616.298 34.4692 615.938 33.8902 615.659 33.1466L612.85 34.2ZM614.5 36.95L612.379 39.0713C613.376 40.0686 614.527 40.8538 615.819 41.4074L617 38.65L618.182 35.8926C617.607 35.6461 617.091 35.298 616.622 34.8287L614.5 36.95ZM617 38.65L615.853 41.4221C617.202 41.9802 618.627 42.25 620.1 42.25V39.25V36.25C619.373 36.25 618.732 36.1198 618.147 35.8779L617 38.65ZM644.133 48H641.133V51H644.133V48ZM644.133 13V10H641.133V13H644.133ZM653.833 13L656.135 11.0763L655.236 10H653.833V13ZM671.633 34.3V37.3H678.05L673.935 32.3763L671.633 34.3ZM667.133 34.3H664.133V37.3H667.133V34.3ZM667.133 13V10H664.133V13H667.133ZM678.633 13H681.633V10H678.633V13ZM678.633 48V51H681.633V48H678.633ZM668.933 48L666.631 49.9237L667.531 51H668.933V48ZM651.133 26.7V23.7H644.717L648.831 28.6237L651.133 26.7ZM655.633 26.7H658.633V23.7H655.633V26.7ZM655.633 48V51H658.633V48H655.633ZM644.133 48H647.133V13H644.133H641.133V48H644.133ZM644.133 13V16H653.833V13V10H644.133V13ZM653.833 13L651.531 14.9237L669.331 36.2237L671.633 34.3L673.935 32.3763L656.135 11.0763L653.833 13ZM671.633 34.3V31.3H667.133V34.3V37.3H671.633V34.3ZM667.133 34.3H670.133V13H667.133H664.133V34.3H667.133ZM667.133 13V16H678.633V13V10H667.133V13ZM678.633 13H675.633V48H678.633H681.633V13H678.633ZM678.633 48V45H668.933V48V51H678.633V48ZM668.933 48L671.235 46.0763L653.435 24.7763L651.133 26.7L648.831 28.6237L666.631 49.9237L668.933 48ZM651.133 26.7V29.7H655.633V26.7V23.7H651.133V26.7ZM655.633 26.7H652.633V48H655.633H658.633V26.7H655.633ZM655.633 48V45H644.133V48V51H655.633V48Z" fill="url(#paint0_linear_304_149)" mask="url(#path-1-outside-1_304_149)"/>
<defs>
<linearGradient id="paint0_linear_304_149" x1="341.5" y1="0" x2="341.5" y2="61" gradientUnits="userSpaceOnUse">
<stop stop-color="#E51D25"/>
<stop offset="1" stop-color="#1D3A69"/>
</linearGradient>
</defs>
</svg>
