<svg width="521" height="132" viewBox="0 0 521 132" fill="none" xmlns="http://www.w3.org/2000/svg">
<mask id="path-1-outside-1_264_136" maskUnits="userSpaceOnUse" x="0" y="9" width="372" height="43" fill="black">
<rect fill="white" y="9" width="372" height="43"/>
<path d="M19.85 48L5.05 13H17.75L29.8 42.55H22.25L34.65 13H46.25L31.45 48H19.85ZM47.4242 48V13H59.2242V48H47.4242ZM73.7547 48.8C71.0214 48.8 68.5547 48.3667 66.3547 47.5C64.1547 46.6 62.3214 45.3 60.8547 43.6L67.2047 36.1C68.138 37.2333 69.0547 38.1 69.9547 38.7C70.8547 39.2667 71.788 39.55 72.7547 39.55C75.288 39.55 76.5547 38.1 76.5547 35.2V21.9H64.6547V13H88.2047V34.5C88.2047 39.3 86.9714 42.8833 84.5047 45.25C82.038 47.6167 78.4547 48.8 73.7547 48.8ZM89.0832 48L104.383 13H115.983L131.283 48H119.083L107.783 18.6H112.383L101.083 48H89.0832ZM98.1832 41.9L101.183 33.4H117.283L120.283 41.9H98.1832ZM139.92 48V32.65L142.62 39.7L126.72 13H139.17L149.92 31.25H142.67L153.52 13H164.92L149.12 39.7L151.72 32.65V48H139.92ZM181.409 48V13H198.659C202.559 13 205.992 13.7167 208.959 15.15C211.925 16.55 214.242 18.55 215.909 21.15C217.575 23.75 218.409 26.85 218.409 30.45C218.409 34.0833 217.575 37.2167 215.909 39.85C214.242 42.45 211.925 44.4667 208.959 45.9C205.992 47.3 202.559 48 198.659 48H181.409ZM193.209 38.8H198.159C199.825 38.8 201.275 38.4833 202.509 37.85C203.775 37.2167 204.759 36.2833 205.459 35.05C206.159 33.7833 206.509 32.25 206.509 30.45C206.509 28.6833 206.159 27.1833 205.459 25.95C204.759 24.7167 203.775 23.7833 202.509 23.15C201.275 22.5167 199.825 22.2 198.159 22.2H193.209V38.8ZM222.717 48V13H234.517V48H222.717ZM249.048 48L237.848 13H249.998L259.048 42.55H252.948L262.548 13H273.398L282.348 42.55H276.498L285.948 13H297.148L285.948 48H273.298L265.998 23.8H269.398L261.698 48H249.048ZM294.698 48L309.998 13H321.598L336.898 48H324.698L313.398 18.6H317.998L306.698 48H294.698ZM303.798 41.9L306.798 33.4H322.898L325.898 41.9H303.798ZM351.832 48.8C348.898 48.8 346.065 48.4667 343.332 47.8C340.598 47.1333 338.348 46.2667 336.582 45.2L340.382 36.6C342.048 37.5667 343.898 38.35 345.932 38.95C347.998 39.5167 349.998 39.8 351.932 39.8C353.065 39.8 353.948 39.7333 354.582 39.6C355.248 39.4333 355.732 39.2167 356.032 38.95C356.332 38.65 356.482 38.3 356.482 37.9C356.482 37.2667 356.132 36.7667 355.432 36.4C354.732 36.0333 353.798 35.7333 352.632 35.5C351.498 35.2333 350.248 34.9667 348.882 34.7C347.515 34.4 346.132 34.0167 344.732 33.55C343.365 33.0833 342.098 32.4667 340.932 31.7C339.798 30.9333 338.882 29.9333 338.182 28.7C337.482 27.4333 337.132 25.8667 337.132 24C337.132 21.8333 337.732 19.8667 338.932 18.1C340.165 16.3 341.982 14.8667 344.382 13.8C346.815 12.7333 349.832 12.2 353.432 12.2C355.798 12.2 358.132 12.45 360.432 12.95C362.732 13.45 364.798 14.2167 366.632 15.25L363.082 23.8C361.348 22.9333 359.665 22.2833 358.032 21.85C356.432 21.4167 354.865 21.2 353.332 21.2C352.198 21.2 351.298 21.3 350.632 21.5C349.965 21.7 349.482 21.9667 349.182 22.3C348.915 22.6333 348.782 23 348.782 23.4C348.782 24 349.132 24.4833 349.832 24.85C350.532 25.1833 351.448 25.4667 352.582 25.7C353.748 25.9333 355.015 26.1833 356.382 26.45C357.782 26.7167 359.165 27.0833 360.532 27.55C361.898 28.0167 363.148 28.6333 364.282 29.4C365.448 30.1667 366.382 31.1667 367.082 32.4C367.782 33.6333 368.132 35.1667 368.132 37C368.132 39.1333 367.515 41.1 366.282 42.9C365.082 44.6667 363.282 46.1 360.882 47.2C358.482 48.2667 355.465 48.8 351.832 48.8Z"/>
</mask>
<path d="M19.85 48L17.0869 49.1684L17.8614 51H19.85V48ZM5.05 13V10H0.52424L2.28688 14.1684L5.05 13ZM17.75 13L20.5279 11.8672L19.7665 10H17.75V13ZM29.8 42.55V45.55H34.2632L32.5779 41.4172L29.8 42.55ZM22.25 42.55L19.4837 41.3892L17.7377 45.55H22.25V42.55ZM34.65 13V10H32.6555L31.8837 11.8392L34.65 13ZM46.25 13L49.0131 14.1684L50.7758 10H46.25V13ZM31.45 48V51H33.4386L34.2131 49.1684L31.45 48ZM19.85 48L22.6131 46.8316L7.81312 11.8316L5.05 13L2.28688 14.1684L17.0869 49.1684L19.85 48ZM5.05 13V16H17.75V13V10H5.05V13ZM17.75 13L14.9721 14.1328L27.0221 43.6828L29.8 42.55L32.5779 41.4172L20.5279 11.8672L17.75 13ZM29.8 42.55V39.55H22.25V42.55V45.55H29.8V42.55ZM22.25 42.55L25.0163 43.7108L37.4163 14.1608L34.65 13L31.8837 11.8392L19.4837 41.3892L22.25 42.55ZM34.65 13V16H46.25V13V10H34.65V13ZM46.25 13L43.4869 11.8316L28.6869 46.8316L31.45 48L34.2131 49.1684L49.0131 14.1684L46.25 13ZM31.45 48V45H19.85V48V51H31.45V48ZM47.4242 48H44.4242V51H47.4242V48ZM47.4242 13V10H44.4242V13H47.4242ZM59.2242 13H62.2242V10H59.2242V13ZM59.2242 48V51H62.2242V48H59.2242ZM47.4242 48H50.4242V13H47.4242H44.4242V48H47.4242ZM47.4242 13V16H59.2242V13V10H47.4242V13ZM59.2242 13H56.2242V48H59.2242H62.2242V13H59.2242ZM59.2242 48V45H47.4242V48V51H59.2242V48ZM66.3547 47.5L65.2188 50.2766L65.2369 50.284L65.2551 50.2912L66.3547 47.5ZM60.8547 43.6L58.5651 41.6615L56.9083 43.6183L58.5832 45.5597L60.8547 43.6ZM67.2047 36.1L69.5205 34.1929L67.2366 31.4196L64.9151 34.1615L67.2047 36.1ZM69.9547 38.7L68.2906 41.1962L68.3231 41.2179L68.3562 41.2387L69.9547 38.7ZM76.5547 21.9H79.5547V18.9H76.5547V21.9ZM64.6547 21.9H61.6547V24.9H64.6547V21.9ZM64.6547 13V10H61.6547V13H64.6547ZM88.2047 13H91.2047V10H88.2047V13ZM84.5047 45.25L86.5817 47.4147L84.5047 45.25ZM73.7547 48.8V45.8C71.3398 45.8 69.2539 45.4177 67.4543 44.7088L66.3547 47.5L65.2551 50.2912C67.8554 51.3156 70.7029 51.8 73.7547 51.8V48.8ZM66.3547 47.5L67.4906 44.7234C65.7018 43.9916 64.2659 42.9613 63.1262 41.6403L60.8547 43.6L58.5832 45.5597C60.3768 47.6387 62.6076 49.2084 65.2188 50.2766L66.3547 47.5ZM60.8547 43.6L63.1443 45.5385L69.4943 38.0385L67.2047 36.1L64.9151 34.1615L58.5651 41.6615L60.8547 43.6ZM67.2047 36.1L64.8889 38.0071C65.9474 39.2924 67.0759 40.3864 68.2906 41.1962L69.9547 38.7L71.6188 36.2038C71.0335 35.8136 70.3287 35.1743 69.5205 34.1929L67.2047 36.1ZM69.9547 38.7L68.3562 41.2387C69.6853 42.0755 71.1664 42.55 72.7547 42.55V39.55V36.55C72.4096 36.55 72.0241 36.4579 71.5531 36.1613L69.9547 38.7ZM72.7547 39.55V42.55C74.5972 42.55 76.4945 42.004 77.864 40.4362C79.1659 38.9459 79.5547 37.0203 79.5547 35.2H76.5547H73.5547C73.5547 36.2797 73.3102 36.5291 73.3454 36.4888C73.3697 36.4609 73.3908 36.4588 73.3477 36.4752C73.2866 36.4985 73.109 36.55 72.7547 36.55V39.55ZM76.5547 35.2H79.5547V21.9H76.5547H73.5547V35.2H76.5547ZM76.5547 21.9V18.9H64.6547V21.9V24.9H76.5547V21.9ZM64.6547 21.9H67.6547V13H64.6547H61.6547V21.9H64.6547ZM64.6547 13V16H88.2047V13V10H64.6547V13ZM88.2047 13H85.2047V34.5H88.2047H91.2047V13H88.2047ZM88.2047 34.5H85.2047C85.2047 38.8198 84.0992 41.4815 82.4277 43.0853L84.5047 45.25L86.5817 47.4147C89.8435 44.2852 91.2047 39.7802 91.2047 34.5H88.2047ZM84.5047 45.25L82.4277 43.0853C80.7012 44.7417 77.9752 45.8 73.7547 45.8V48.8V51.8C78.9342 51.8 83.3748 50.4916 86.5817 47.4147L84.5047 45.25ZM89.0832 48L86.3344 46.7984L84.4977 51H89.0832V48ZM104.383 13V10H102.421L101.634 11.7984L104.383 13ZM115.983 13L118.732 11.7984L117.946 10H115.983V13ZM131.283 48V51H135.869L134.032 46.7984L131.283 48ZM119.083 48L116.283 49.0763L117.022 51H119.083V48ZM107.783 18.6V15.6H103.416L104.983 19.6763L107.783 18.6ZM112.383 18.6L115.183 19.6763L116.75 15.6H112.383V18.6ZM101.083 48V51H103.144L103.883 49.0763L101.083 48ZM98.1832 41.9L95.3542 40.9015L93.943 44.9H98.1832V41.9ZM101.183 33.4V30.4H99.0607L98.3542 32.4015L101.183 33.4ZM117.283 33.4L120.112 32.4015L119.406 30.4H117.283V33.4ZM120.283 41.9V44.9H124.523L123.112 40.9015L120.283 41.9ZM89.0832 48L91.832 49.2016L107.132 14.2016L104.383 13L101.634 11.7984L86.3344 46.7984L89.0832 48ZM104.383 13V16H115.983V13V10H104.383V13ZM115.983 13L113.234 14.2016L128.534 49.2016L131.283 48L134.032 46.7984L118.732 11.7984L115.983 13ZM131.283 48V45H119.083V48V51H131.283V48ZM119.083 48L121.883 46.9237L110.583 17.5237L107.783 18.6L104.983 19.6763L116.283 49.0763L119.083 48ZM107.783 18.6V21.6H112.383V18.6V15.6H107.783V18.6ZM112.383 18.6L109.583 17.5237L98.2829 46.9237L101.083 48L103.883 49.0763L115.183 19.6763L112.383 18.6ZM101.083 48V45H89.0832V48V51H101.083V48ZM98.1832 41.9L101.012 42.8985L104.012 34.3985L101.183 33.4L98.3542 32.4015L95.3542 40.9015L98.1832 41.9ZM101.183 33.4V36.4H117.283V33.4V30.4H101.183V33.4ZM117.283 33.4L114.454 34.3985L117.454 42.8985L120.283 41.9L123.112 40.9015L120.112 32.4015L117.283 33.4ZM120.283 41.9V38.9H98.1832V41.9V44.9H120.283V41.9ZM139.92 48H136.92V51H139.92V48ZM139.92 32.65L142.722 31.5771L136.92 32.65H139.92ZM142.62 39.7L140.043 41.235L145.422 38.6271L142.62 39.7ZM126.72 13V10H121.442L124.143 14.535L126.72 13ZM139.17 13L141.755 11.4774L140.885 10H139.17V13ZM149.92 31.25V34.25H155.169L152.505 29.7274L149.92 31.25ZM142.67 31.25L140.092 29.7169L137.397 34.25H142.67V31.25ZM153.52 13V10H151.814L150.942 11.4669L153.52 13ZM164.92 13L167.502 14.5278L170.182 10H164.92V13ZM149.12 39.7L146.306 38.662L151.702 41.2278L149.12 39.7ZM151.72 32.65H154.72L148.906 31.612L151.72 32.65ZM151.72 48V51H154.72V48H151.72ZM139.92 48H142.92V32.65H139.92H136.92V48H139.92ZM139.92 32.65L137.119 33.7229L139.819 40.7729L142.62 39.7L145.422 38.6271L142.722 31.5771L139.92 32.65ZM142.62 39.7L145.198 38.165L129.298 11.465L126.72 13L124.143 14.535L140.043 41.235L142.62 39.7ZM126.72 13V16H139.17V13V10H126.72V13ZM139.17 13L136.585 14.5226L147.335 32.7726L149.92 31.25L152.505 29.7274L141.755 11.4774L139.17 13ZM149.92 31.25V28.25H142.67V31.25V34.25H149.92V31.25ZM142.67 31.25L145.249 32.7831L156.099 14.5331L153.52 13L150.942 11.4669L140.092 29.7169L142.67 31.25ZM153.52 13V16H164.92V13V10H153.52V13ZM164.92 13L162.339 11.4722L146.538 38.1722L149.12 39.7L151.702 41.2278L167.502 14.5278L164.92 13ZM149.12 39.7L151.935 40.738L154.535 33.688L151.72 32.65L148.906 31.612L146.306 38.662L149.12 39.7ZM151.72 32.65H148.72V48H151.72H154.72V32.65H151.72ZM151.72 48V45H139.92V48V51H151.72V48ZM181.409 48H178.409V51H181.409V48ZM181.409 13V10H178.409V13H181.409ZM208.959 15.15L207.654 17.8512L207.666 17.8572L207.678 17.8631L208.959 15.15ZM215.909 21.15L213.383 22.769L215.909 21.15ZM215.909 39.85L218.434 41.469L218.439 41.4617L218.444 41.4544L215.909 39.85ZM208.959 45.9L210.239 48.6131L210.251 48.6072L210.264 48.6012L208.959 45.9ZM193.209 38.8H190.209V41.8H193.209V38.8ZM202.509 37.85L201.167 35.1667L201.153 35.1739L201.138 35.1813L202.509 37.85ZM205.459 35.05L208.068 36.5308L208.076 36.516L208.084 36.5011L205.459 35.05ZM205.459 25.95L208.068 24.4692V24.4692L205.459 25.95ZM202.509 23.15L201.138 25.8187L201.153 25.8261L201.167 25.8333L202.509 23.15ZM193.209 22.2V19.2H190.209V22.2H193.209ZM181.409 48H184.409V13H181.409H178.409V48H181.409ZM181.409 13V16H198.659V13V10H181.409V13ZM198.659 13V16C202.189 16 205.162 16.6475 207.654 17.8512L208.959 15.15L210.264 12.4488C206.822 10.7859 202.928 10 198.659 10V13ZM208.959 15.15L207.678 17.8631C210.168 19.0382 212.04 20.6733 213.383 22.769L215.909 21.15L218.434 19.531C216.444 16.4267 213.682 14.0618 210.239 12.4369L208.959 15.15ZM215.909 21.15L213.383 22.769C214.691 24.8102 215.409 27.327 215.409 30.45H218.409H221.409C221.409 26.373 220.459 22.6898 218.434 19.531L215.909 21.15ZM218.409 30.45H215.409C215.409 33.6113 214.689 36.1674 213.374 38.2456L215.909 39.85L218.444 41.4544C220.462 38.266 221.409 34.5554 221.409 30.45H218.409ZM215.909 39.85L213.383 38.231C212.036 40.333 210.156 41.9897 207.654 43.1988L208.959 45.9L210.264 48.6012C213.695 46.9436 216.448 44.567 218.434 41.469L215.909 39.85ZM208.959 45.9L207.678 43.1869C205.181 44.3656 202.199 45 198.659 45V48V51C202.919 51 206.803 50.2344 210.239 48.6131L208.959 45.9ZM198.659 48V45H181.409V48V51H198.659V48ZM193.209 38.8V41.8H198.159V38.8V35.8H193.209V38.8ZM198.159 38.8V41.8C200.206 41.8 202.144 41.4095 203.879 40.5187L202.509 37.85L201.138 35.1813C200.406 35.5571 199.444 35.8 198.159 35.8V38.8ZM202.509 37.85L203.85 40.5333C205.65 39.6333 207.074 38.2811 208.068 36.5308L205.459 35.05L202.85 33.5692C202.443 34.2856 201.9 34.8 201.167 35.1667L202.509 37.85ZM205.459 35.05L208.084 36.5011C209.083 34.6944 209.509 32.6356 209.509 30.45H206.509H203.509C203.509 31.8644 203.234 32.8723 202.833 33.5989L205.459 35.05ZM206.509 30.45H209.509C209.509 28.2902 209.08 26.2522 208.068 24.4692L205.459 25.95L202.85 27.4308C203.238 28.1145 203.509 29.0764 203.509 30.45H206.509ZM205.459 25.95L208.068 24.4692C207.074 22.7189 205.65 21.3666 203.85 20.4667L202.509 23.15L201.167 25.8333C201.9 26.2 202.443 26.7144 202.85 27.4308L205.459 25.95ZM202.509 23.15L203.879 20.4813C202.144 19.5904 200.206 19.2 198.159 19.2V22.2V25.2C199.444 25.2 200.406 25.4429 201.138 25.8187L202.509 23.15ZM198.159 22.2V19.2H193.209V22.2V25.2H198.159V22.2ZM193.209 22.2H190.209V38.8H193.209H196.209V22.2H193.209ZM222.717 48H219.717V51H222.717V48ZM222.717 13V10H219.717V13H222.717ZM234.517 13H237.517V10H234.517V13ZM234.517 48V51H237.517V48H234.517ZM222.717 48H225.717V13H222.717H219.717V48H222.717ZM222.717 13V16H234.517V13V10H222.717V13ZM234.517 13H231.517V48H234.517H237.517V13H234.517ZM234.517 48V45H222.717V48V51H234.517V48ZM249.048 48L246.19 48.9143L246.858 51H249.048V48ZM237.848 13V10H233.738L234.99 13.9143L237.848 13ZM249.998 13L252.866 12.1215L252.216 10H249.998V13ZM259.048 42.55V45.55H263.104L261.916 41.6715L259.048 42.55ZM252.948 42.55L250.094 41.6231L248.819 45.55H252.948V42.55ZM262.548 13V10H260.368L259.694 12.0731L262.548 13ZM273.398 13L276.269 12.1304L275.624 10H273.398V13ZM282.348 42.55V45.55H286.391L285.219 41.6804L282.348 42.55ZM276.498 42.55L273.64 41.6362L272.389 45.55H276.498V42.55ZM285.948 13V10H283.757L283.09 12.0862L285.948 13ZM297.148 13L300.005 13.9143L301.258 10H297.148V13ZM285.948 48V51H288.138L288.805 48.9143L285.948 48ZM273.298 48L270.425 48.8664L271.069 51H273.298V48ZM265.998 23.8V20.8H261.959L263.125 24.6664L265.998 23.8ZM269.398 23.8L272.256 24.7096L273.5 20.8H269.398V23.8ZM261.698 48V51H263.891L264.556 48.9096L261.698 48ZM249.048 48L251.905 47.0857L240.705 12.0857L237.848 13L234.99 13.9143L246.19 48.9143L249.048 48ZM237.848 13V16H249.998V13V10H237.848V13ZM249.998 13L247.129 13.8785L256.179 43.4285L259.048 42.55L261.916 41.6715L252.866 12.1215L249.998 13ZM259.048 42.55V39.55H252.948V42.55V45.55H259.048V42.55ZM252.948 42.55L255.801 43.4769L265.401 13.9269L262.548 13L259.694 12.0731L250.094 41.6231L252.948 42.55ZM262.548 13V16H273.398V13V10H262.548V13ZM273.398 13L270.526 13.8696L279.476 43.4196L282.348 42.55L285.219 41.6804L276.269 12.1304L273.398 13ZM282.348 42.55V39.55H276.498V42.55V45.55H282.348V42.55ZM276.498 42.55L279.355 43.4638L288.805 13.9138L285.948 13L283.09 12.0862L273.64 41.6362L276.498 42.55ZM285.948 13V16H297.148V13V10H285.948V13ZM297.148 13L294.29 12.0857L283.09 47.0857L285.948 48L288.805 48.9143L300.005 13.9143L297.148 13ZM285.948 48V45H273.298V48V51H285.948V48ZM273.298 48L276.17 47.1336L268.87 22.9336L265.998 23.8L263.125 24.6664L270.425 48.8664L273.298 48ZM265.998 23.8V26.8H269.398V23.8V20.8H265.998V23.8ZM269.398 23.8L266.539 22.8904L258.839 47.0904L261.698 48L264.556 48.9096L272.256 24.7096L269.398 23.8ZM261.698 48V45H249.048V48V51H261.698V48ZM294.698 48L291.95 46.7984L290.113 51H294.698V48ZM309.998 13V10H308.036L307.25 11.7984L309.998 13ZM321.598 13L324.347 11.7984L323.561 10H321.598V13ZM336.898 48V51H341.484L339.647 46.7984L336.898 48ZM324.698 48L321.898 49.0763L322.638 51H324.698V48ZM313.398 18.6V15.6H309.031L310.598 19.6763L313.398 18.6ZM317.998 18.6L320.799 19.6763L322.365 15.6H317.998V18.6ZM306.698 48V51H308.759L309.499 49.0763L306.698 48ZM303.798 41.9L300.969 40.9015L299.558 44.9H303.798V41.9ZM306.798 33.4V30.4H304.676L303.969 32.4015L306.798 33.4ZM322.898 33.4L325.727 32.4015L325.021 30.4H322.898V33.4ZM325.898 41.9V44.9H330.139L328.727 40.9015L325.898 41.9ZM294.698 48L297.447 49.2016L312.747 14.2016L309.998 13L307.25 11.7984L291.95 46.7984L294.698 48ZM309.998 13V16H321.598V13V10H309.998V13ZM321.598 13L318.85 14.2016L334.15 49.2016L336.898 48L339.647 46.7984L324.347 11.7984L321.598 13ZM336.898 48V45H324.698V48V51H336.898V48ZM324.698 48L327.499 46.9237L316.199 17.5237L313.398 18.6L310.598 19.6763L321.898 49.0763L324.698 48ZM313.398 18.6V21.6H317.998V18.6V15.6H313.398V18.6ZM317.998 18.6L315.198 17.5237L303.898 46.9237L306.698 48L309.499 49.0763L320.799 19.6763L317.998 18.6ZM306.698 48V45H294.698V48V51H306.698V48ZM303.798 41.9L306.627 42.8985L309.627 34.3985L306.798 33.4L303.969 32.4015L300.969 40.9015L303.798 41.9ZM306.798 33.4V36.4H322.898V33.4V30.4H306.798V33.4ZM322.898 33.4L320.069 34.3985L323.069 42.8985L325.898 41.9L328.727 40.9015L325.727 32.4015L322.898 33.4ZM325.898 41.9V38.9H303.798V41.9V44.9H325.898V41.9ZM343.332 47.8L344.043 44.8854L343.332 47.8ZM336.582 45.2L333.838 43.9875L332.77 46.4032L335.031 47.7682L336.582 45.2ZM340.382 36.6L341.887 34.0049L338.991 32.3252L337.638 35.3875L340.382 36.6ZM345.932 38.95L345.083 41.8273L345.11 41.8355L345.138 41.8432L345.932 38.95ZM354.582 39.6L355.2 42.5356L355.255 42.5241L355.309 42.5104L354.582 39.6ZM356.032 38.95L358.025 41.1922L358.091 41.1337L358.153 41.0713L356.032 38.95ZM355.432 36.4L354.04 39.0575L355.432 36.4ZM352.632 35.5L351.945 38.4202L351.994 38.4318L352.043 38.4417L352.632 35.5ZM348.882 34.7L348.238 37.6302L348.273 37.6378L348.307 37.6445L348.882 34.7ZM344.732 33.55L343.762 36.389L343.773 36.3926L343.783 36.396L344.732 33.55ZM340.932 31.7L339.251 34.1848L339.267 34.1961L339.284 34.2071L340.932 31.7ZM338.182 28.7L335.556 30.1511L335.564 30.166L335.573 30.1808L338.182 28.7ZM338.932 18.1L336.457 16.4043L336.45 16.4143L338.932 18.1ZM344.382 13.8L343.177 11.0524L343.17 11.0555L343.163 11.0586L344.382 13.8ZM360.432 12.95L359.794 15.8815L360.432 12.95ZM366.632 15.25L369.402 16.4004L370.423 13.943L368.105 12.6365L366.632 15.25ZM363.082 23.8L361.74 26.4833L364.618 27.9224L365.852 24.9504L363.082 23.8ZM358.032 21.85L357.247 24.7457L357.255 24.7477L357.262 24.7497L358.032 21.85ZM350.632 21.5L349.77 18.6265L350.632 21.5ZM349.182 22.3L346.952 20.2931L346.893 20.3579L346.839 20.4259L349.182 22.3ZM349.832 24.85L348.44 27.5075L348.49 27.534L348.542 27.5586L349.832 24.85ZM352.582 25.7L351.977 28.6384L351.985 28.6401L351.993 28.6417L352.582 25.7ZM356.382 26.45L355.807 29.3945L355.82 29.397L356.382 26.45ZM360.532 27.55L359.562 30.389H359.562L360.532 27.55ZM364.282 29.4L362.601 31.8848L362.617 31.8961L362.634 31.9071L364.282 29.4ZM367.082 32.4L364.473 33.8808V33.8808L367.082 32.4ZM366.282 42.9L363.807 41.2043L363.8 41.2144L366.282 42.9ZM360.882 47.2L362.1 49.9414L362.116 49.9344L362.132 49.9272L360.882 47.2ZM351.832 48.8V45.8C349.128 45.8 346.533 45.493 344.043 44.8854L343.332 47.8L342.621 50.7146C345.597 51.4403 348.669 51.8 351.832 51.8V48.8ZM343.332 47.8L344.043 44.8854C341.505 44.2666 339.563 43.4956 338.132 42.6318L336.582 45.2L335.031 47.7682C337.134 49.0377 339.691 50 342.621 50.7146L343.332 47.8ZM336.582 45.2L339.326 46.4125L343.126 37.8125L340.382 36.6L337.638 35.3875L333.838 43.9875L336.582 45.2ZM340.382 36.6L338.876 39.1951C340.769 40.2929 342.843 41.1664 345.083 41.8273L345.932 38.95L346.781 36.0727C344.954 35.5336 343.327 34.8404 341.887 34.0049L340.382 36.6ZM345.932 38.95L345.138 41.8432C347.436 42.4732 349.703 42.8 351.932 42.8V39.8V36.8C350.294 36.8 348.561 36.5602 346.725 36.0568L345.932 38.95ZM351.932 39.8V42.8C353.143 42.8 354.267 42.7321 355.2 42.5356L354.582 39.6L353.964 36.6643C353.63 36.7346 352.987 36.8 351.932 36.8V39.8ZM354.582 39.6L355.309 42.5104C356.155 42.2991 357.191 41.9334 358.025 41.1922L356.032 38.95L354.039 36.7078C354.111 36.6436 354.168 36.6054 354.197 36.5875C354.226 36.5695 354.235 36.5667 354.217 36.575C354.199 36.583 354.161 36.5988 354.099 36.6196C354.037 36.6403 353.956 36.6641 353.854 36.6896L354.582 39.6ZM356.032 38.95L358.153 41.0713C358.978 40.2466 359.482 39.1477 359.482 37.9H356.482H353.482C353.482 37.7146 353.519 37.4979 353.612 37.2807C353.703 37.0671 353.821 36.9178 353.91 36.8287L356.032 38.95ZM356.482 37.9H359.482C359.482 35.8568 358.221 34.4747 356.824 33.7425L355.432 36.4L354.04 39.0575C354.086 39.0817 353.931 39.0121 353.761 38.7704C353.57 38.4963 353.482 38.1742 353.482 37.9H356.482ZM355.432 36.4L356.824 33.7425C355.777 33.1945 354.54 32.8223 353.22 32.5583L352.632 35.5L352.043 38.4417C353.056 38.6443 353.686 38.8722 354.04 39.0575L355.432 36.4ZM352.632 35.5L353.319 32.5798C352.142 32.3028 350.853 32.0282 349.456 31.7555L348.882 34.7L348.307 37.6445C349.643 37.9052 350.855 38.1639 351.945 38.4202L352.632 35.5ZM348.882 34.7L349.525 31.7698C348.267 31.4936 346.985 31.139 345.68 30.7039L344.732 33.55L343.783 36.396C345.278 36.8943 346.763 37.3064 348.238 37.6302L348.882 34.7ZM344.732 33.55L345.701 30.711C344.565 30.3231 343.527 29.8161 342.579 29.1929L340.932 31.7L339.284 34.2071C340.669 35.1173 342.165 35.8436 343.762 36.389L344.732 33.55ZM340.932 31.7L342.613 29.2151C341.876 28.7168 341.271 28.066 340.791 27.2192L338.182 28.7L335.573 30.1808C336.492 31.8007 337.721 33.1499 339.251 34.1848L340.932 31.7ZM338.182 28.7L340.807 27.2489C340.414 26.537 340.132 25.5024 340.132 24H337.132H334.132C334.132 26.2309 334.549 28.3296 335.556 30.1511L338.182 28.7ZM337.132 24H340.132C340.132 22.4252 340.556 21.0474 341.413 19.7856L338.932 18.1L336.45 16.4143C334.907 18.6859 334.132 21.2415 334.132 24H337.132ZM338.932 18.1L341.406 19.7957C342.267 18.5394 343.604 17.4287 345.6 16.5414L344.382 13.8L343.163 11.0586C340.36 12.3046 338.063 14.0606 336.457 16.4043L338.932 18.1ZM344.382 13.8L345.586 16.5476C347.53 15.6953 350.107 15.2 353.432 15.2V12.2V9.2C349.556 9.2 346.1 9.77137 343.177 11.0524L344.382 13.8ZM353.432 12.2V15.2C355.585 15.2 357.705 15.4273 359.794 15.8815L360.432 12.95L361.069 10.0185C358.558 9.4727 356.011 9.2 353.432 9.2V12.2ZM360.432 12.95L359.794 15.8815C361.836 16.3253 363.615 16.9936 365.159 17.8635L366.632 15.25L368.105 12.6365C365.981 11.4398 363.628 10.5747 361.069 10.0185L360.432 12.95ZM366.632 15.25L363.861 14.0996L360.311 22.6496L363.082 23.8L365.852 24.9504L369.402 16.4004L366.632 15.25ZM363.082 23.8L364.423 21.1167C362.533 20.1716 360.658 19.4431 358.801 18.9503L358.032 21.85L357.262 24.7497C358.672 25.1236 360.164 25.695 361.74 26.4833L363.082 23.8ZM358.032 21.85L358.816 18.9543C356.981 18.4573 355.15 18.2 353.332 18.2V21.2V24.2C354.58 24.2 355.882 24.376 357.247 24.7457L358.032 21.85ZM353.332 21.2V18.2C352.065 18.2 350.835 18.3068 349.77 18.6265L350.632 21.5L351.494 24.3735C351.761 24.2932 352.332 24.2 353.332 24.2V21.2ZM350.632 21.5L349.77 18.6265C348.843 18.9045 347.77 19.3843 346.952 20.2931L349.182 22.3L351.412 24.3069C351.352 24.3735 351.299 24.418 351.265 24.4441C351.231 24.47 351.213 24.4795 351.218 24.4767C351.223 24.4739 351.247 24.4614 351.294 24.4423C351.341 24.4233 351.406 24.3996 351.494 24.3735L350.632 21.5ZM349.182 22.3L346.839 20.4259C346.177 21.2528 345.782 22.2712 345.782 23.4H348.782H351.782C351.782 23.5407 351.757 23.6966 351.701 23.8502C351.646 24.0014 351.576 24.1096 351.524 24.1741L349.182 22.3ZM348.782 23.4H345.782C345.782 25.4754 347.116 26.8142 348.44 27.5075L349.832 24.85L351.224 22.1925C351.157 22.1575 351.304 22.2177 351.474 22.453C351.672 22.7261 351.782 23.0718 351.782 23.4H348.782ZM349.832 24.85L348.542 27.5586C349.539 28.0332 350.711 28.3777 351.977 28.6384L352.582 25.7L353.187 22.7616C352.186 22.5556 351.525 22.3335 351.121 22.1414L349.832 24.85ZM352.582 25.7L351.993 28.6417C353.165 28.8761 354.437 29.1271 355.807 29.3945L356.382 26.45L356.956 23.5055C355.593 23.2396 354.331 22.9905 353.17 22.7583L352.582 25.7ZM356.382 26.45L355.82 29.397C357.08 29.637 358.327 29.9673 359.562 30.389L360.532 27.55L361.501 24.711C360.003 24.1994 358.483 23.7964 356.943 23.503L356.382 26.45ZM360.532 27.55L359.562 30.389C360.691 30.7745 361.7 31.2753 362.601 31.8848L364.282 29.4L365.963 26.9151C364.597 25.9913 363.106 25.2588 361.501 24.7109L360.532 27.55ZM364.282 29.4L362.634 31.9071C363.397 32.4084 364.003 33.0541 364.473 33.8808L367.082 32.4L369.691 30.9192C368.76 29.2792 367.5 27.9249 365.929 26.8929L364.282 29.4ZM367.082 32.4L364.473 33.8808C364.852 34.5492 365.132 35.5375 365.132 37H368.132H371.132C371.132 34.7958 370.711 32.7175 369.691 30.9192L367.082 32.4ZM368.132 37H365.132C365.132 38.5135 364.706 39.8915 363.807 41.2043L366.282 42.9L368.756 44.5957C370.324 42.3085 371.132 39.7531 371.132 37H368.132ZM366.282 42.9L363.8 41.2144C362.973 42.432 361.651 43.5474 359.632 44.4728L360.882 47.2L362.132 49.9272C364.912 48.6526 367.19 46.9013 368.763 44.5856L366.282 42.9ZM360.882 47.2L359.663 44.4586C357.764 45.3026 355.196 45.8 351.832 45.8V48.8V51.8C355.734 51.8 359.199 51.2307 362.1 49.9414L360.882 47.2Z" fill="url(#paint0_linear_264_136)" mask="url(#path-1-outside-1_264_136)"/>
<mask id="path-3-outside-2_264_136" maskUnits="userSpaceOnUse" x="4" y="80" width="517" height="43" fill="black">
<rect fill="white" x="4" y="80" width="517" height="43"/>
<path d="M26.95 119.8C24.15 119.8 21.55 119.367 19.15 118.5C16.7833 117.6 14.7167 116.333 12.95 114.7C11.2167 113.067 9.86667 111.133 8.9 108.9C7.93333 106.667 7.45 104.2 7.45 101.5C7.45 98.8 7.93333 96.3333 8.9 94.1C9.86667 91.8667 11.2167 89.9333 12.95 88.3C14.7167 86.6667 16.7833 85.4167 19.15 84.55C21.55 83.65 24.15 83.2 26.95 83.2C30.3833 83.2 33.4167 83.8 36.05 85C38.7167 86.2 40.9167 87.9333 42.65 90.2L35.2 96.85C34.1667 95.55 33.0167 94.55 31.75 93.85C30.5167 93.1167 29.1167 92.75 27.55 92.75C26.3167 92.75 25.2 92.95 24.2 93.35C23.2 93.75 22.3333 94.3333 21.6 95.1C20.9 95.8667 20.35 96.8 19.95 97.9C19.55 98.9667 19.35 100.167 19.35 101.5C19.35 102.833 19.55 104.05 19.95 105.15C20.35 106.217 20.9 107.133 21.6 107.9C22.3333 108.667 23.2 109.25 24.2 109.65C25.2 110.05 26.3167 110.25 27.55 110.25C29.1167 110.25 30.5167 109.9 31.75 109.2C33.0167 108.467 34.1667 107.45 35.2 106.15L42.65 112.8C40.9167 115.033 38.7167 116.767 36.05 118C33.4167 119.2 30.3833 119.8 26.95 119.8ZM56.857 97H72.457V105.5H56.857V97ZM57.657 110.1H75.157V119H46.057V84H74.507V92.9H57.657V110.1ZM79.6996 119V84H91.4996V109.85H107.3V119H79.6996ZM121.359 97H136.959V105.5H121.359V97ZM122.159 110.1H139.659V119H110.559V84H139.009V92.9H122.159V110.1ZM144.202 119V84H162.902C167.735 84 171.302 84.8667 173.602 86.6C175.902 88.3 177.052 90.4833 177.052 93.15C177.052 94.9167 176.552 96.5 175.552 97.9C174.585 99.2667 173.168 100.35 171.302 101.15C169.435 101.95 167.135 102.35 164.402 102.35L165.402 99.65C168.135 99.65 170.485 100.033 172.452 100.8C174.452 101.567 175.985 102.683 177.052 104.15C178.152 105.583 178.702 107.317 178.702 109.35C178.702 112.383 177.435 114.75 174.902 116.45C172.402 118.15 168.735 119 163.902 119H144.202ZM155.802 110.75H162.902C164.202 110.75 165.168 110.517 165.802 110.05C166.468 109.583 166.802 108.9 166.802 108C166.802 107.1 166.468 106.417 165.802 105.95C165.168 105.483 164.202 105.25 162.902 105.25H155.002V97.45H161.302C162.635 97.45 163.602 97.2333 164.202 96.8C164.835 96.3333 165.152 95.6833 165.152 94.85C165.152 93.9833 164.835 93.3333 164.202 92.9C163.602 92.4667 162.635 92.25 161.302 92.25H155.802V110.75ZM182.873 119V84H199.723C202.99 84 205.807 84.5333 208.173 85.6C210.573 86.6667 212.423 88.2 213.723 90.2C215.023 92.1667 215.673 94.5 215.673 97.2C215.673 99.9 215.023 102.233 213.723 104.2C212.423 106.133 210.573 107.617 208.173 108.65C205.807 109.683 202.99 110.2 199.723 110.2H189.423L194.673 105.35V119H182.873ZM203.823 119L195.223 106.25H207.723L216.423 119H203.823ZM194.673 106.65L189.423 101.3H198.973C200.607 101.3 201.807 100.933 202.573 100.2C203.373 99.4667 203.773 98.4667 203.773 97.2C203.773 95.9333 203.373 94.9333 202.573 94.2C201.807 93.4667 200.607 93.1 198.973 93.1H189.423L194.673 87.75V106.65ZM216.329 119L231.629 84H243.229L258.529 119H246.329L235.029 89.6H239.629L228.329 119H216.329ZM225.429 112.9L228.429 104.4H244.529L247.529 112.9H225.429ZM266.255 119V93.15H256.005V84H288.305V93.15H278.055V119H266.255ZM291.37 119V84H303.17V119H291.37ZM327.2 119.8C324.367 119.8 321.733 119.35 319.3 118.45C316.9 117.55 314.817 116.283 313.05 114.65C311.283 112.983 309.9 111.033 308.9 108.8C307.933 106.567 307.45 104.133 307.45 101.5C307.45 98.8333 307.933 96.4 308.9 94.2C309.9 91.9667 311.283 90.0333 313.05 88.4C314.817 86.7333 316.9 85.45 319.3 84.55C321.733 83.65 324.367 83.2 327.2 83.2C330.067 83.2 332.7 83.65 335.1 84.55C337.5 85.45 339.583 86.7333 341.35 88.4C343.117 90.0333 344.483 91.9667 345.45 94.2C346.45 96.4 346.95 98.8333 346.95 101.5C346.95 104.133 346.45 106.567 345.45 108.8C344.483 111.033 343.117 112.983 341.35 114.65C339.583 116.283 337.5 117.55 335.1 118.45C332.7 119.35 330.067 119.8 327.2 119.8ZM327.2 110.25C328.3 110.25 329.317 110.05 330.25 109.65C331.217 109.25 332.05 108.683 332.75 107.95C333.483 107.183 334.05 106.267 334.45 105.2C334.85 104.1 335.05 102.867 335.05 101.5C335.05 100.133 334.85 98.9167 334.45 97.85C334.05 96.75 333.483 95.8333 332.75 95.1C332.05 94.3333 331.217 93.75 330.25 93.35C329.317 92.95 328.3 92.75 327.2 92.75C326.1 92.75 325.067 92.95 324.1 93.35C323.167 93.75 322.333 94.3333 321.6 95.1C320.9 95.8333 320.35 96.75 319.95 97.85C319.55 98.9167 319.35 100.133 319.35 101.5C319.35 102.867 319.55 104.1 319.95 105.2C320.35 106.267 320.9 107.183 321.6 107.95C322.333 108.683 323.167 109.25 324.1 109.65C325.067 110.05 326.1 110.25 327.2 110.25ZM351.233 119V84H360.933L378.733 105.3H374.233V84H385.733V119H376.033L358.233 97.7H362.733V119H351.233ZM406.409 119V84H423.259C426.525 84 429.342 84.5333 431.709 85.6C434.109 86.6667 435.959 88.2 437.259 90.2C438.559 92.1667 439.209 94.5 439.209 97.2C439.209 99.9 438.559 102.233 437.259 104.2C435.959 106.133 434.109 107.617 431.709 108.65C429.342 109.683 426.525 110.2 423.259 110.2H412.959L418.209 105.35V119H406.409ZM427.359 119L418.759 106.25H431.259L439.959 119H427.359ZM418.209 106.65L412.959 101.3H422.509C424.142 101.3 425.342 100.933 426.109 100.2C426.909 99.4667 427.309 98.4667 427.309 97.2C427.309 95.9333 426.909 94.9333 426.109 94.2C425.342 93.4667 424.142 93.1 422.509 93.1H412.959L418.209 87.75V106.65ZM460.414 119.8C455.048 119.8 450.864 118.35 447.864 115.45C444.864 112.55 443.364 108.483 443.364 103.25V84H455.164V102.9C455.164 105.567 455.648 107.467 456.614 108.6C457.581 109.7 458.881 110.25 460.514 110.25C462.181 110.25 463.481 109.7 464.414 108.6C465.381 107.467 465.864 105.567 465.864 102.9V84H477.464V103.25C477.464 108.483 475.964 112.55 472.964 115.45C469.964 118.35 465.781 119.8 460.414 119.8ZM482.873 119V84H492.573L510.373 105.3H505.873V84H517.373V119H507.673L489.873 97.7H494.373V119H482.873Z"/>
</mask>
<path d="M19.15 118.5L18.0837 121.304L18.1073 121.313L18.1311 121.322L19.15 118.5ZM12.95 114.7L10.8926 116.883L10.903 116.893L10.9134 116.903L12.95 114.7ZM8.9 108.9L6.14683 110.092H6.14683L8.9 108.9ZM8.9 94.1L6.14683 92.9083H6.14683L8.9 94.1ZM12.95 88.3L10.9134 86.0972L10.903 86.1069L10.8926 86.1166L12.95 88.3ZM19.15 84.55L20.1816 87.3671L20.1925 87.3631L20.2034 87.359L19.15 84.55ZM36.05 85L34.806 87.7299L34.8124 87.7329L34.8189 87.7358L36.05 85ZM42.65 90.2L44.6478 92.4381L46.7221 90.5864L45.0331 88.3776L42.65 90.2ZM35.2 96.85L32.8515 98.7167L34.8281 101.203L37.1978 99.0881L35.2 96.85ZM31.75 93.85L30.2168 96.4286L30.2575 96.4528L30.2989 96.4757L31.75 93.85ZM24.2 93.35L25.3142 96.1354L25.3142 96.1354L24.2 93.35ZM21.6 95.1L19.4321 93.0263L19.408 93.0515L19.3845 93.0772L21.6 95.1ZM19.95 97.9L22.759 98.9534L22.7643 98.9393L22.7694 98.9252L19.95 97.9ZM19.95 105.15L17.1306 106.175L17.1357 106.189L17.141 106.203L19.95 105.15ZM21.6 107.9L19.3845 109.923L19.408 109.949L19.4321 109.974L21.6 107.9ZM24.2 109.65L23.0858 112.435L24.2 109.65ZM31.75 109.2L33.2308 111.809L33.242 111.803L33.2531 111.796L31.75 109.2ZM35.2 106.15L37.1978 103.912L34.8281 101.797L32.8515 104.283L35.2 106.15ZM42.65 112.8L45.02 114.639L46.7371 112.427L44.6478 110.562L42.65 112.8ZM36.05 118L37.294 120.73L37.3017 120.726L37.3093 120.723L36.05 118ZM26.95 119.8V116.8C24.4637 116.8 22.2119 116.416 20.1689 115.678L19.15 118.5L18.1311 121.322C20.8881 122.317 23.8363 122.8 26.95 122.8V119.8ZM19.15 118.5L20.2163 115.696C18.1895 114.925 16.4567 113.856 14.9866 112.497L12.95 114.7L10.9134 116.903C12.9767 118.81 15.3772 120.275 18.0837 121.304L19.15 118.5ZM12.95 114.7L15.0074 112.517C13.5776 111.169 12.4614 109.576 11.6532 107.708L8.9 108.9L6.14683 110.092C7.27195 112.691 8.85575 114.964 10.8926 116.883L12.95 114.7ZM8.9 108.9L11.6532 107.708C10.8663 105.89 10.45 103.835 10.45 101.5H7.45H4.45C4.45 104.565 5.00035 107.443 6.14683 110.092L8.9 108.9ZM7.45 101.5H10.45C10.45 99.1649 10.8663 97.1096 11.6532 95.2917L8.9 94.1L6.14683 92.9083C5.00035 95.5571 4.45 98.4351 4.45 101.5H7.45ZM8.9 94.1L11.6532 95.2917C12.4614 93.4244 13.5776 91.8307 15.0074 90.4834L12.95 88.3L10.8926 86.1166C8.85575 88.036 7.27195 90.3089 6.14683 92.9083L8.9 94.1ZM12.95 88.3L14.9866 90.5028C16.4484 89.1513 18.1692 88.104 20.1816 87.3671L19.15 84.55L18.1184 81.7329C15.3975 82.7293 12.985 84.182 10.9134 86.0972L12.95 88.3ZM19.15 84.55L20.2034 87.359C22.2367 86.5965 24.4765 86.2 26.95 86.2V83.2V80.2C23.8235 80.2 20.8633 80.7035 18.0966 81.741L19.15 84.55ZM26.95 83.2V86.2C30.0331 86.2 32.6292 86.738 34.806 87.7299L36.05 85L37.294 82.2701C34.2041 80.862 30.7336 80.2 26.95 80.2V83.2ZM36.05 85L34.8189 87.7358C37.0435 88.7368 38.8436 90.1611 40.2669 92.0223L42.65 90.2L45.0331 88.3776C42.9897 85.7056 40.3899 83.6632 37.2811 82.2642L36.05 85ZM42.65 90.2L40.6523 87.9619L33.2023 94.6119L35.2 96.85L37.1978 99.0881L44.6478 92.4381L42.65 90.2ZM35.2 96.85L37.5485 94.9833C36.305 93.4189 34.8613 92.1418 33.2011 91.2243L31.75 93.85L30.2989 96.4757C31.1721 96.9582 32.0284 97.6811 32.8515 98.7167L35.2 96.85ZM31.75 93.85L33.2832 91.2714C31.5439 90.2372 29.6052 89.75 27.55 89.75V92.75V95.75C28.6281 95.75 29.4894 95.9961 30.2168 96.4286L31.75 93.85ZM27.55 92.75V89.75C25.9899 89.75 24.4878 90.0038 23.0858 90.5646L24.2 93.35L25.3142 96.1354C25.9122 95.8962 26.6435 95.75 27.55 95.75V92.75ZM24.2 93.35L23.0858 90.5646C21.694 91.1213 20.4664 91.945 19.4321 93.0263L21.6 95.1L23.7679 97.1737C24.2003 96.7216 24.706 96.3787 25.3142 96.1354L24.2 93.35ZM21.6 95.1L19.3845 93.0772C18.3883 94.1684 17.6477 95.4528 17.1306 96.8748L19.95 97.9L22.7694 98.9252C23.0523 98.1472 23.4117 97.565 23.8155 97.1228L21.6 95.1ZM19.95 97.9L17.141 96.8466C16.5952 98.3022 16.35 99.8671 16.35 101.5H19.35H22.35C22.35 100.466 22.5048 99.6311 22.759 98.9534L19.95 97.9ZM19.35 101.5H16.35C16.35 103.135 16.5957 104.704 17.1306 106.175L19.95 105.15L22.7694 104.125C22.5043 103.396 22.35 102.532 22.35 101.5H19.35ZM19.95 105.15L17.141 106.203C17.6622 107.593 18.4027 108.847 19.3845 109.923L21.6 107.9L23.8155 105.877C23.3973 105.419 23.0378 104.84 22.759 104.097L19.95 105.15ZM21.6 107.9L19.4321 109.974C20.4664 111.055 21.694 111.879 23.0858 112.435L24.2 109.65L25.3142 106.865C24.706 106.621 24.2003 106.278 23.7679 105.826L21.6 107.9ZM24.2 109.65L23.0858 112.435C24.4878 112.996 25.9899 113.25 27.55 113.25V110.25V107.25C26.6435 107.25 25.9122 107.104 25.3142 106.865L24.2 109.65ZM27.55 110.25V113.25C29.5801 113.25 31.4999 112.791 33.2308 111.809L31.75 109.2L30.2692 106.591C29.5334 107.009 28.6532 107.25 27.55 107.25V110.25ZM31.75 109.2L33.2531 111.796C34.8855 110.851 36.3127 109.571 37.5485 108.017L35.2 106.15L32.8515 104.283C32.0206 105.329 31.1478 106.082 30.2469 106.604L31.75 109.2ZM35.2 106.15L33.2023 108.388L40.6523 115.038L42.65 112.8L44.6478 110.562L37.1978 103.912L35.2 106.15ZM42.65 112.8L40.28 110.961C38.8526 112.8 37.0395 114.237 34.7907 115.277L36.05 118L37.3093 120.723C40.3939 119.296 42.9807 117.267 45.02 114.639L42.65 112.8ZM36.05 118L34.806 115.27C32.6292 116.262 30.0331 116.8 26.95 116.8V119.8V122.8C30.7336 122.8 34.2041 122.138 37.294 120.73L36.05 118ZM56.857 97V94H53.857V97H56.857ZM72.457 97H75.457V94H72.457V97ZM72.457 105.5V108.5H75.457V105.5H72.457ZM56.857 105.5H53.857V108.5H56.857V105.5ZM57.657 110.1H54.657V113.1H57.657V110.1ZM75.157 110.1H78.157V107.1H75.157V110.1ZM75.157 119V122H78.157V119H75.157ZM46.057 119H43.057V122H46.057V119ZM46.057 84V81H43.057V84H46.057ZM74.507 84H77.507V81H74.507V84ZM74.507 92.9V95.9H77.507V92.9H74.507ZM57.657 92.9V89.9H54.657V92.9H57.657ZM56.857 97V100H72.457V97V94H56.857V97ZM72.457 97H69.457V105.5H72.457H75.457V97H72.457ZM72.457 105.5V102.5H56.857V105.5V108.5H72.457V105.5ZM56.857 105.5H59.857V97H56.857H53.857V105.5H56.857ZM57.657 110.1V113.1H75.157V110.1V107.1H57.657V110.1ZM75.157 110.1H72.157V119H75.157H78.157V110.1H75.157ZM75.157 119V116H46.057V119V122H75.157V119ZM46.057 119H49.057V84H46.057H43.057V119H46.057ZM46.057 84V87H74.507V84V81H46.057V84ZM74.507 84H71.507V92.9H74.507H77.507V84H74.507ZM74.507 92.9V89.9H57.657V92.9V95.9H74.507V92.9ZM57.657 92.9H54.657V110.1H57.657H60.657V92.9H57.657ZM79.6996 119H76.6996V122H79.6996V119ZM79.6996 84V81H76.6996V84H79.6996ZM91.4996 84H94.4996V81H91.4996V84ZM91.4996 109.85H88.4996V112.85H91.4996V109.85ZM107.3 109.85H110.3V106.85H107.3V109.85ZM107.3 119V122H110.3V119H107.3ZM79.6996 119H82.6996V84H79.6996H76.6996V119H79.6996ZM79.6996 84V87H91.4996V84V81H79.6996V84ZM91.4996 84H88.4996V109.85H91.4996H94.4996V84H91.4996ZM91.4996 109.85V112.85H107.3V109.85V106.85H91.4996V109.85ZM107.3 109.85H104.3V119H107.3H110.3V109.85H107.3ZM107.3 119V116H79.6996V119V122H107.3V119ZM121.359 97V94H118.359V97H121.359ZM136.959 97H139.959V94H136.959V97ZM136.959 105.5V108.5H139.959V105.5H136.959ZM121.359 105.5H118.359V108.5H121.359V105.5ZM122.159 110.1H119.159V113.1H122.159V110.1ZM139.659 110.1H142.659V107.1H139.659V110.1ZM139.659 119V122H142.659V119H139.659ZM110.559 119H107.559V122H110.559V119ZM110.559 84V81H107.559V84H110.559ZM139.009 84H142.009V81H139.009V84ZM139.009 92.9V95.9H142.009V92.9H139.009ZM122.159 92.9V89.9H119.159V92.9H122.159ZM121.359 97V100H136.959V97V94H121.359V97ZM136.959 97H133.959V105.5H136.959H139.959V97H136.959ZM136.959 105.5V102.5H121.359V105.5V108.5H136.959V105.5ZM121.359 105.5H124.359V97H121.359H118.359V105.5H121.359ZM122.159 110.1V113.1H139.659V110.1V107.1H122.159V110.1ZM139.659 110.1H136.659V119H139.659H142.659V110.1H139.659ZM139.659 119V116H110.559V119V122H139.659V119ZM110.559 119H113.559V84H110.559H107.559V119H110.559ZM110.559 84V87H139.009V84V81H110.559V84ZM139.009 84H136.009V92.9H139.009H142.009V84H139.009ZM139.009 92.9V89.9H122.159V92.9V95.9H139.009V92.9ZM122.159 92.9H119.159V110.1H122.159H125.159V92.9H122.159ZM144.202 119H141.202V122H144.202V119ZM144.202 84V81H141.202V84H144.202ZM173.602 86.6L171.796 88.9958L171.807 89.0042L171.818 89.0125L173.602 86.6ZM175.552 97.9L173.11 96.1563L173.102 96.1676L175.552 97.9ZM171.302 101.15L170.12 98.3926V98.3926L171.302 101.15ZM164.402 102.35L161.588 101.308L160.091 105.35H164.402V102.35ZM165.402 99.65V96.65H163.314L162.588 98.6081L165.402 99.65ZM172.452 100.8L171.362 103.595L171.37 103.598L171.378 103.601L172.452 100.8ZM177.052 104.15L174.625 105.915L174.648 105.946L174.672 105.976L177.052 104.15ZM174.902 116.45L173.23 113.959L173.222 113.964L173.215 113.969L174.902 116.45ZM155.802 110.75H152.802V113.75H155.802V110.75ZM165.802 110.05L164.081 107.592L164.051 107.613L164.022 107.635L165.802 110.05ZM165.802 105.95L164.022 108.365L164.051 108.387L164.081 108.408L165.802 105.95ZM155.002 105.25H152.002V108.25H155.002V105.25ZM155.002 97.45V94.45H152.002V97.45H155.002ZM164.202 96.8L165.958 99.232L165.97 99.2237L165.981 99.2152L164.202 96.8ZM164.202 92.9L162.445 95.332L162.476 95.3544L162.508 95.3759L164.202 92.9ZM155.802 92.25V89.25H152.802V92.25H155.802ZM144.202 119H147.202V84H144.202H141.202V119H144.202ZM144.202 84V87H162.902V84V81H144.202V84ZM162.902 84V87C167.485 87 170.265 87.8418 171.796 88.9958L173.602 86.6L175.407 84.2042C172.338 81.8915 167.985 81 162.902 81V84ZM173.602 86.6L171.818 89.0125C173.418 90.1947 174.052 91.5127 174.052 93.15H177.052H180.052C180.052 89.454 178.385 86.4053 175.385 84.1875L173.602 86.6ZM177.052 93.15H174.052C174.052 94.3093 173.737 95.2795 173.11 96.1563L175.552 97.9L177.993 99.6437C179.366 97.7205 180.052 95.524 180.052 93.15H177.052ZM175.552 97.9L173.102 96.1676C172.518 96.9944 171.586 97.7641 170.12 98.3926L171.302 101.15L172.483 103.907C174.75 102.936 176.652 101.539 178.001 99.6324L175.552 97.9ZM171.302 101.15L170.12 98.3926C168.732 98.9874 166.861 99.35 164.402 99.35V102.35V105.35C167.409 105.35 170.138 104.913 172.483 103.907L171.302 101.15ZM164.402 102.35L167.215 103.392L168.215 100.692L165.402 99.65L162.588 98.6081L161.588 101.308L164.402 102.35ZM165.402 99.65V102.65C167.867 102.65 169.828 102.997 171.362 103.595L172.452 100.8L173.541 98.0049C171.141 97.0694 168.403 96.65 165.402 96.65V99.65ZM172.452 100.8L171.378 103.601C172.936 104.199 173.958 104.996 174.625 105.915L177.052 104.15L179.478 102.385C178.012 100.37 175.967 98.9348 173.525 97.9988L172.452 100.8ZM177.052 104.15L174.672 105.976C175.32 106.821 175.702 107.89 175.702 109.35H178.702H181.702C181.702 106.743 180.984 104.346 179.431 102.324L177.052 104.15ZM178.702 109.35H175.702C175.702 111.377 174.939 112.812 173.23 113.959L174.902 116.45L176.573 118.941C179.931 116.688 181.702 113.39 181.702 109.35H178.702ZM174.902 116.45L173.215 113.969C171.429 115.184 168.463 116 163.902 116V119V122C169.006 122 173.374 121.116 176.588 118.931L174.902 116.45ZM163.902 119V116H144.202V119V122H163.902V119ZM155.802 110.75V113.75H162.902V110.75V107.75H155.802V110.75ZM162.902 110.75V113.75C164.461 113.75 166.193 113.488 167.581 112.465L165.802 110.05L164.022 107.635C164.1 107.578 164.091 107.612 163.898 107.659C163.703 107.706 163.383 107.75 162.902 107.75V110.75ZM165.802 110.05L167.522 112.508C169.085 111.414 169.802 109.758 169.802 108H166.802H163.802C163.802 108.077 163.789 108.009 163.855 107.872C163.887 107.807 163.929 107.745 163.975 107.691C164.021 107.638 164.061 107.606 164.081 107.592L165.802 110.05ZM166.802 108H169.802C169.802 106.242 169.085 104.586 167.522 103.492L165.802 105.95L164.081 108.408C164.061 108.394 164.021 108.362 163.975 108.309C163.929 108.255 163.887 108.193 163.855 108.128C163.789 107.991 163.802 107.923 163.802 108H166.802ZM165.802 105.95L167.581 103.535C166.193 102.512 164.461 102.25 162.902 102.25V105.25V108.25C163.383 108.25 163.703 108.294 163.898 108.341C164.091 108.388 164.1 108.422 164.022 108.365L165.802 105.95ZM162.902 105.25V102.25H155.002V105.25V108.25H162.902V105.25ZM155.002 105.25H158.002V97.45H155.002H152.002V105.25H155.002ZM155.002 97.45V100.45H161.302V97.45V94.45H155.002V97.45ZM161.302 97.45V100.45C162.823 100.45 164.578 100.229 165.958 99.232L164.202 96.8L162.445 94.368C162.566 94.2808 162.584 94.3122 162.37 94.3601C162.162 94.4069 161.818 94.45 161.302 94.45V97.45ZM164.202 96.8L165.981 99.2152C167.434 98.1449 168.152 96.5704 168.152 94.85H165.152H162.152C162.152 94.8808 162.148 94.7911 162.217 94.6486C162.289 94.5002 162.383 94.4132 162.422 94.3848L164.202 96.8ZM165.152 94.85H168.152C168.152 93.1423 167.462 91.4959 165.896 90.4241L164.202 92.9L162.508 95.3759C162.422 95.3174 162.301 95.198 162.217 95.0264C162.14 94.8687 162.152 94.7826 162.152 94.85H165.152ZM164.202 92.9L165.958 90.468C164.578 89.471 162.823 89.25 161.302 89.25V92.25V95.25C161.818 95.25 162.162 95.2931 162.37 95.3399C162.584 95.3878 162.566 95.4192 162.445 95.332L164.202 92.9ZM161.302 92.25V89.25H155.802V92.25V95.25H161.302V92.25ZM155.802 92.25H152.802V110.75H155.802H158.802V92.25H155.802ZM182.873 119H179.873V122H182.873V119ZM182.873 84V81H179.873V84H182.873ZM208.173 85.6L206.941 88.335L206.948 88.3383L206.955 88.3414L208.173 85.6ZM213.723 90.2L211.208 91.835L211.214 91.8447L211.221 91.8543L213.723 90.2ZM213.723 104.2L216.213 105.874L216.22 105.864L216.226 105.854L213.723 104.2ZM208.173 108.65L206.987 105.895L206.98 105.898L206.973 105.901L208.173 108.65ZM189.423 110.2L187.388 107.996L181.755 113.2H189.423V110.2ZM194.673 105.35H197.673V98.4944L192.638 103.146L194.673 105.35ZM194.673 119V122H197.673V119H194.673ZM203.823 119L201.336 120.678L202.228 122H203.823V119ZM195.223 106.25V103.25H189.581L192.736 107.928L195.223 106.25ZM207.723 106.25L210.202 104.559L209.308 103.25H207.723V106.25ZM216.423 119V122H222.102L218.902 117.309L216.423 119ZM194.673 106.65L192.532 108.751L197.673 113.99V106.65H194.673ZM189.423 101.3V98.3H182.276L187.282 103.401L189.423 101.3ZM202.573 100.2L200.546 97.9885L200.523 98.0101L200.5 98.0321L202.573 100.2ZM202.573 94.2L200.5 96.3679L200.523 96.3899L200.546 96.4115L202.573 94.2ZM189.423 93.1L187.282 90.9988L182.276 96.1H189.423V93.1ZM194.673 87.75H197.673V80.4096L192.532 85.6488L194.673 87.75ZM182.873 119H185.873V84H182.873H179.873V119H182.873ZM182.873 84V87H199.723V84V81H182.873V84ZM199.723 84V87C202.671 87 205.048 87.482 206.941 88.335L208.173 85.6L209.406 82.865C206.566 81.5847 203.309 81 199.723 81V84ZM208.173 85.6L206.955 88.3414C208.88 89.1972 210.256 90.3701 211.208 91.835L213.723 90.2L216.239 88.565C214.591 86.0299 212.266 84.1362 209.392 82.8586L208.173 85.6ZM213.723 90.2L211.221 91.8543C212.151 93.2617 212.673 95.0004 212.673 97.2H215.673H218.673C218.673 93.9996 217.896 91.0716 216.226 88.5457L213.723 90.2ZM215.673 97.2H212.673C212.673 99.3996 212.151 101.138 211.221 102.546L213.723 104.2L216.226 105.854C217.896 103.328 218.673 100.4 218.673 97.2H215.673ZM213.723 104.2L211.234 102.526C210.294 103.925 208.924 105.06 206.987 105.895L208.173 108.65L209.36 111.405C212.223 110.173 214.553 108.342 216.213 105.874L213.723 104.2ZM208.173 108.65L206.973 105.901C205.071 106.731 202.683 107.2 199.723 107.2V110.2V113.2C203.298 113.2 206.542 112.636 209.374 111.399L208.173 108.65ZM199.723 110.2V107.2H189.423V110.2V113.2H199.723V110.2ZM189.423 110.2L191.459 112.404L196.709 107.554L194.673 105.35L192.638 103.146L187.388 107.996L189.423 110.2ZM194.673 105.35H191.673V119H194.673H197.673V105.35H194.673ZM194.673 119V116H182.873V119V122H194.673V119ZM203.823 119L206.311 117.322L197.711 104.572L195.223 106.25L192.736 107.928L201.336 120.678L203.823 119ZM195.223 106.25V109.25H207.723V106.25V103.25H195.223V106.25ZM207.723 106.25L205.245 107.941L213.945 120.691L216.423 119L218.902 117.309L210.202 104.559L207.723 106.25ZM216.423 119V116H203.823V119V122H216.423V119ZM194.673 106.65L196.815 104.549L191.565 99.1988L189.423 101.3L187.282 103.401L192.532 108.751L194.673 106.65ZM189.423 101.3V104.3H198.973V101.3V98.3H189.423V101.3ZM198.973 101.3V104.3C200.974 104.3 203.086 103.862 204.647 102.368L202.573 100.2L200.5 98.0321C200.528 98.0052 200.239 98.3 198.973 98.3V101.3ZM202.573 100.2L204.601 102.411C206.126 101.014 206.773 99.1537 206.773 97.2H203.773H200.773C200.773 97.7797 200.621 97.9197 200.546 97.9885L202.573 100.2ZM203.773 97.2H206.773C206.773 95.2463 206.126 93.3864 204.601 91.9885L202.573 94.2L200.546 96.4115C200.621 96.4803 200.773 96.6203 200.773 97.2H203.773ZM202.573 94.2L204.647 92.0321C203.086 90.5385 200.974 90.1 198.973 90.1V93.1V96.1C200.239 96.1 200.528 96.3948 200.5 96.3679L202.573 94.2ZM198.973 93.1V90.1H189.423V93.1V96.1H198.973V93.1ZM189.423 93.1L191.565 95.2012L196.815 89.8512L194.673 87.75L192.532 85.6488L187.282 90.9988L189.423 93.1ZM194.673 87.75H191.673V106.65H194.673H197.673V87.75H194.673ZM216.329 119L213.58 117.798L211.744 122H216.329V119ZM231.629 84V81H229.667L228.88 82.7984L231.629 84ZM243.229 84L245.978 82.7984L245.192 81H243.229V84ZM258.529 119V122H263.115L261.278 117.798L258.529 119ZM246.329 119L243.529 120.076L244.268 122H246.329V119ZM235.029 89.6V86.6H230.662L232.229 90.6763L235.029 89.6ZM239.629 89.6L242.43 90.6763L243.996 86.6H239.629V89.6ZM228.329 119V122H230.39L231.13 120.076L228.329 119ZM225.429 112.9L222.6 111.902L221.189 115.9H225.429V112.9ZM228.429 104.4V101.4H226.307L225.6 103.402L228.429 104.4ZM244.529 104.4L247.358 103.402L246.652 101.4H244.529V104.4ZM247.529 112.9V115.9H251.769L250.358 111.902L247.529 112.9ZM216.329 119L219.078 120.202L234.378 85.2016L231.629 84L228.88 82.7984L213.58 117.798L216.329 119ZM231.629 84V87H243.229V84V81H231.629V84ZM243.229 84L240.48 85.2016L255.78 120.202L258.529 119L261.278 117.798L245.978 82.7984L243.229 84ZM258.529 119V116H246.329V119V122H258.529V119ZM246.329 119L249.13 117.924L237.83 88.5237L235.029 89.6L232.229 90.6763L243.529 120.076L246.329 119ZM235.029 89.6V92.6H239.629V89.6V86.6H235.029V89.6ZM239.629 89.6L236.829 88.5237L225.529 117.924L228.329 119L231.13 120.076L242.43 90.6763L239.629 89.6ZM228.329 119V116H216.329V119V122H228.329V119ZM225.429 112.9L228.258 113.898L231.258 105.398L228.429 104.4L225.6 103.402L222.6 111.902L225.429 112.9ZM228.429 104.4V107.4H244.529V104.4V101.4H228.429V104.4ZM244.529 104.4L241.7 105.398L244.7 113.898L247.529 112.9L250.358 111.902L247.358 103.402L244.529 104.4ZM247.529 112.9V109.9H225.429V112.9V115.9H247.529V112.9ZM266.255 119H263.255V122H266.255V119ZM266.255 93.15H269.255V90.15H266.255V93.15ZM256.005 93.15H253.005V96.15H256.005V93.15ZM256.005 84V81H253.005V84H256.005ZM288.305 84H291.305V81H288.305V84ZM288.305 93.15V96.15H291.305V93.15H288.305ZM278.055 93.15V90.15H275.055V93.15H278.055ZM278.055 119V122H281.055V119H278.055ZM266.255 119H269.255V93.15H266.255H263.255V119H266.255ZM266.255 93.15V90.15H256.005V93.15V96.15H266.255V93.15ZM256.005 93.15H259.005V84H256.005H253.005V93.15H256.005ZM256.005 84V87H288.305V84V81H256.005V84ZM288.305 84H285.305V93.15H288.305H291.305V84H288.305ZM288.305 93.15V90.15H278.055V93.15V96.15H288.305V93.15ZM278.055 93.15H275.055V119H278.055H281.055V93.15H278.055ZM278.055 119V116H266.255V119V122H278.055V119ZM291.37 119H288.37V122H291.37V119ZM291.37 84V81H288.37V84H291.37ZM303.17 84H306.17V81H303.17V84ZM303.17 119V122H306.17V119H303.17ZM291.37 119H294.37V84H291.37H288.37V119H291.37ZM291.37 84V87H303.17V84V81H291.37V84ZM303.17 84H300.17V119H303.17H306.17V84H303.17ZM303.17 119V116H291.37V119V122H303.17V119ZM319.3 118.45L318.247 121.259L318.259 121.264L319.3 118.45ZM313.05 114.65L310.991 116.832L311.002 116.843L311.013 116.853L313.05 114.65ZM308.9 108.8L306.147 109.992L306.154 110.009L306.162 110.026L308.9 108.8ZM308.9 94.2L306.162 92.974L306.158 92.9836L306.153 92.9932L308.9 94.2ZM313.05 88.4L315.087 90.6028L315.098 90.5926L315.109 90.5822L313.05 88.4ZM319.3 84.55L318.259 81.7363L318.247 81.741L319.3 84.55ZM335.1 84.55L334.047 87.359V87.359L335.1 84.55ZM341.35 88.4L339.291 90.5822L339.302 90.5926L339.313 90.6028L341.35 88.4ZM345.45 94.2L342.697 95.3917L342.708 95.4166L342.719 95.4414L345.45 94.2ZM345.45 108.8L342.712 107.574L342.704 107.591L342.697 107.608L345.45 108.8ZM341.35 114.65L343.387 116.853L343.398 116.843L343.409 116.832L341.35 114.65ZM335.1 118.45L334.047 115.641L335.1 118.45ZM330.25 109.65L329.103 106.878L329.086 106.885L329.068 106.893L330.25 109.65ZM332.75 107.95L330.582 105.876L330.58 105.879L332.75 107.95ZM334.45 105.2L337.259 106.253L337.264 106.239L337.269 106.225L334.45 105.2ZM334.45 97.85L331.631 98.8752L331.636 98.8893L331.641 98.9034L334.45 97.85ZM332.75 95.1L330.535 97.1228L330.581 97.1731L330.629 97.2213L332.75 95.1ZM330.25 93.35L329.068 96.1074L329.086 96.1149L329.103 96.1221L330.25 93.35ZM324.1 93.35L322.953 90.5779L322.936 90.5851L322.918 90.5926L324.1 93.35ZM321.6 95.1L319.432 93.0263L319.43 93.0286L321.6 95.1ZM319.95 97.85L322.759 98.9034L322.764 98.8893L322.769 98.8752L319.95 97.85ZM319.95 105.2L317.131 106.225L317.136 106.239L317.141 106.253L319.95 105.2ZM321.6 107.95L319.385 109.973L319.43 110.023L319.479 110.071L321.6 107.95ZM324.1 109.65L322.918 112.407L322.936 112.415L322.953 112.422L324.1 109.65ZM327.2 119.8V116.8C324.689 116.8 322.412 116.402 320.341 115.636L319.3 118.45L318.259 121.264C321.055 122.298 324.044 122.8 327.2 122.8V119.8ZM319.3 118.45L320.353 115.641C318.293 114.868 316.55 113.8 315.087 112.447L313.05 114.65L311.013 116.853C313.084 118.767 315.507 120.232 318.247 121.259L319.3 118.45ZM313.05 114.65L315.109 112.468C313.631 111.074 312.478 109.45 311.638 107.574L308.9 108.8L306.162 110.026C307.322 112.617 308.935 114.893 310.991 116.832L313.05 114.65ZM308.9 108.8L311.653 107.608C310.862 105.781 310.45 103.757 310.45 101.5H307.45H304.45C304.45 104.509 305.004 107.352 306.147 109.992L308.9 108.8ZM307.45 101.5H310.45C310.45 99.203 310.865 97.1866 311.647 95.4068L308.9 94.2L306.153 92.9932C305.002 95.6134 304.45 98.4636 304.45 101.5H307.45ZM308.9 94.2L311.638 95.426C312.475 93.5558 313.622 91.9565 315.087 90.6028L313.05 88.4L311.013 86.1972C308.944 88.1102 307.325 90.3775 306.162 92.974L308.9 94.2ZM313.05 88.4L315.109 90.5822C316.569 89.2042 318.306 88.1268 320.353 87.359L319.3 84.55L318.247 81.741C315.494 82.7732 313.064 84.2625 310.991 86.2178L313.05 88.4ZM319.3 84.55L320.341 87.3637C322.412 86.5978 324.689 86.2 327.2 86.2V83.2V80.2C324.044 80.2 321.055 80.7022 318.259 81.7363L319.3 84.55ZM327.2 83.2V86.2C329.749 86.2 332.021 86.5994 334.047 87.359L335.1 84.55L336.153 81.741C333.379 80.7006 330.384 80.2 327.2 80.2V83.2ZM335.1 84.55L334.047 87.359C336.094 88.1268 337.831 89.2042 339.291 90.5822L341.35 88.4L343.409 86.2178C341.336 84.2625 338.906 82.7732 336.153 81.741L335.1 84.55ZM341.35 88.4L339.313 90.6028C340.77 91.9493 341.894 93.5371 342.697 95.3917L345.45 94.2L348.203 93.0083C347.073 90.3963 345.463 88.1173 343.387 86.1972L341.35 88.4ZM345.45 94.2L342.719 95.4414C343.524 97.2128 343.95 99.2169 343.95 101.5H346.95H349.95C349.95 98.4498 349.376 95.5872 348.181 92.9586L345.45 94.2ZM346.95 101.5H343.95C343.95 103.743 343.526 105.755 342.712 107.574L345.45 108.8L348.188 110.026C349.374 107.378 349.95 104.523 349.95 101.5H346.95ZM345.45 108.8L342.697 107.608C341.892 109.469 340.761 111.081 339.291 112.468L341.35 114.65L343.409 116.832C345.472 114.885 347.075 112.598 348.203 109.992L345.45 108.8ZM341.35 114.65L339.313 112.447C337.85 113.8 336.107 114.868 334.047 115.641L335.1 118.45L336.153 121.259C338.893 120.232 341.316 118.767 343.387 116.853L341.35 114.65ZM335.1 118.45L334.047 115.641C332.021 116.401 329.749 116.8 327.2 116.8V119.8V122.8C330.384 122.8 333.379 122.299 336.153 121.259L335.1 118.45ZM327.2 110.25V113.25C328.672 113.25 330.095 112.98 331.432 112.407L330.25 109.65L329.068 106.893C328.539 107.12 327.928 107.25 327.2 107.25V110.25ZM330.25 109.65L331.397 112.422C332.737 111.868 333.922 111.067 334.92 110.021L332.75 107.95L330.58 105.879C330.178 106.3 329.696 106.632 329.103 106.878L330.25 109.65ZM332.75 107.95L334.918 110.024C335.952 108.943 336.727 107.672 337.259 106.253L334.45 105.2L331.641 104.147C331.373 104.862 331.015 105.424 330.582 105.876L332.75 107.95ZM334.45 105.2L337.269 106.225C337.807 104.747 338.05 103.159 338.05 101.5H335.05H332.05C332.05 102.574 331.893 103.453 331.631 104.175L334.45 105.2ZM335.05 101.5H338.05C338.05 99.8435 337.808 98.2599 337.259 96.7966L334.45 97.85L331.641 98.9034C331.892 99.5734 332.05 100.423 332.05 101.5H335.05ZM334.45 97.85L337.269 96.8248C336.739 95.366 335.952 94.0596 334.871 92.9787L332.75 95.1L330.629 97.2213C331.014 97.607 331.361 98.134 331.631 98.8752L334.45 97.85ZM332.75 95.1L334.965 93.0772C333.966 91.9828 332.767 91.1449 331.397 90.5779L330.25 93.35L329.103 96.1221C329.666 96.3551 330.134 96.6838 330.535 97.1228L332.75 95.1ZM330.25 93.35L331.432 90.5926C330.095 90.0196 328.672 89.75 327.2 89.75V92.75V95.75C327.928 95.75 328.539 95.8804 329.068 96.1074L330.25 93.35ZM327.2 92.75V89.75C325.727 89.75 324.302 90.0198 322.953 90.5779L324.1 93.35L325.247 96.122C325.831 95.8802 326.473 95.75 327.2 95.75V92.75ZM324.1 93.35L322.918 90.5926C321.597 91.1589 320.432 91.981 319.432 93.0263L321.6 95.1L323.768 97.1737C324.235 96.6857 324.736 96.3411 325.282 96.1074L324.1 93.35ZM321.6 95.1L319.43 93.0286C318.403 94.1049 317.651 95.3947 317.131 96.8248L319.95 97.85L322.769 98.8752C323.049 98.1053 323.397 97.5618 323.77 97.1714L321.6 95.1ZM319.95 97.85L317.141 96.7966C316.592 98.2599 316.35 99.8435 316.35 101.5H319.35H322.35C322.35 100.423 322.508 99.5734 322.759 98.9034L319.95 97.85ZM319.35 101.5H316.35C316.35 103.159 316.593 104.747 317.131 106.225L319.95 105.2L322.769 104.175C322.507 103.453 322.35 102.574 322.35 101.5H319.35ZM319.95 105.2L317.141 106.253C317.662 107.643 318.403 108.897 319.385 109.973L321.6 107.95L323.815 105.927C323.397 105.469 323.038 104.89 322.759 104.147L319.95 105.2ZM321.6 107.95L319.479 110.071C320.476 111.069 321.627 111.854 322.918 112.407L324.1 109.65L325.282 106.893C324.707 106.646 324.191 106.298 323.721 105.829L321.6 107.95ZM324.1 109.65L322.953 112.422C324.302 112.98 325.727 113.25 327.2 113.25V110.25V107.25C326.473 107.25 325.831 107.12 325.247 106.878L324.1 109.65ZM351.233 119H348.233V122H351.233V119ZM351.233 84V81H348.233V84H351.233ZM360.933 84L363.235 82.0763L362.335 81H360.933V84ZM378.733 105.3V108.3H385.15L381.035 103.376L378.733 105.3ZM374.233 105.3H371.233V108.3H374.233V105.3ZM374.233 84V81H371.233V84H374.233ZM385.733 84H388.733V81H385.733V84ZM385.733 119V122H388.733V119H385.733ZM376.033 119L373.731 120.924L374.63 122H376.033V119ZM358.233 97.7V94.7H351.816L355.931 99.6237L358.233 97.7ZM362.733 97.7H365.733V94.7H362.733V97.7ZM362.733 119V122H365.733V119H362.733ZM351.233 119H354.233V84H351.233H348.233V119H351.233ZM351.233 84V87H360.933V84V81H351.233V84ZM360.933 84L358.631 85.9237L376.431 107.224L378.733 105.3L381.035 103.376L363.235 82.0763L360.933 84ZM378.733 105.3V102.3H374.233V105.3V108.3H378.733V105.3ZM374.233 105.3H377.233V84H374.233H371.233V105.3H374.233ZM374.233 84V87H385.733V84V81H374.233V84ZM385.733 84H382.733V119H385.733H388.733V84H385.733ZM385.733 119V116H376.033V119V122H385.733V119ZM376.033 119L378.335 117.076L360.535 95.7763L358.233 97.7L355.931 99.6237L373.731 120.924L376.033 119ZM358.233 97.7V100.7H362.733V97.7V94.7H358.233V97.7ZM362.733 97.7H359.733V119H362.733H365.733V97.7H362.733ZM362.733 119V116H351.233V119V122H362.733V119ZM406.409 119H403.409V122H406.409V119ZM406.409 84V81H403.409V84H406.409ZM431.709 85.6L430.476 88.335L430.483 88.3383L430.49 88.3414L431.709 85.6ZM437.259 90.2L434.743 91.835L434.75 91.8447L434.756 91.8543L437.259 90.2ZM437.259 104.2L439.748 105.874L439.755 105.864L439.761 105.854L437.259 104.2ZM431.709 108.65L430.522 105.895L430.515 105.898L430.508 105.901L431.709 108.65ZM412.959 110.2L410.923 107.996L405.29 113.2H412.959V110.2ZM418.209 105.35H421.209V98.4944L416.173 103.146L418.209 105.35ZM418.209 119V122H421.209V119H418.209ZM427.359 119L424.871 120.678L425.763 122H427.359V119ZM418.759 106.25V103.25H413.116L416.271 107.928L418.759 106.25ZM431.259 106.25L433.737 104.559L432.843 103.25H431.259V106.25ZM439.959 119V122H445.638L442.437 117.309L439.959 119ZM418.209 106.65L416.067 108.751L421.209 113.99V106.65H418.209ZM412.959 101.3V98.3H405.811L410.817 103.401L412.959 101.3ZM426.109 100.2L424.081 97.9885L424.058 98.0101L424.035 98.0321L426.109 100.2ZM426.109 94.2L424.035 96.3679L424.058 96.3899L424.081 96.4115L426.109 94.2ZM412.959 93.1L410.817 90.9988L405.811 96.1H412.959V93.1ZM418.209 87.75H421.209V80.4096L416.067 85.6488L418.209 87.75ZM406.409 119H409.409V84H406.409H403.409V119H406.409ZM406.409 84V87H423.259V84V81H406.409V84ZM423.259 84V87C426.207 87 428.583 87.482 430.476 88.335L431.709 85.6L432.941 82.865C430.101 81.5847 426.844 81 423.259 81V84ZM431.709 85.6L430.49 88.3414C432.416 89.1972 433.791 90.3701 434.743 91.835L437.259 90.2L439.774 88.565C438.126 86.0299 435.802 84.1362 432.927 82.8586L431.709 85.6ZM437.259 90.2L434.756 91.8543C435.686 93.2617 436.209 95.0004 436.209 97.2H439.209H442.209C442.209 93.9996 441.431 91.0716 439.761 88.5457L437.259 90.2ZM439.209 97.2H436.209C436.209 99.3996 435.686 101.138 434.756 102.546L437.259 104.2L439.761 105.854C441.431 103.328 442.209 100.4 442.209 97.2H439.209ZM437.259 104.2L434.769 102.526C433.829 103.925 432.459 105.06 430.522 105.895L431.709 108.65L432.895 111.405C435.758 110.173 438.089 108.342 439.748 105.874L437.259 104.2ZM431.709 108.65L430.508 105.901C428.606 106.731 426.218 107.2 423.259 107.2V110.2V113.2C426.833 113.2 430.078 112.636 432.909 111.399L431.709 108.65ZM423.259 110.2V107.2H412.959V110.2V113.2H423.259V110.2ZM412.959 110.2L414.994 112.404L420.244 107.554L418.209 105.35L416.173 103.146L410.923 107.996L412.959 110.2ZM418.209 105.35H415.209V119H418.209H421.209V105.35H418.209ZM418.209 119V116H406.409V119V122H418.209V119ZM427.359 119L429.846 117.322L421.246 104.572L418.759 106.25L416.271 107.928L424.871 120.678L427.359 119ZM418.759 106.25V109.25H431.259V106.25V103.25H418.759V106.25ZM431.259 106.25L428.781 107.941L437.481 120.691L439.959 119L442.437 117.309L433.737 104.559L431.259 106.25ZM439.959 119V116H427.359V119V122H439.959V119ZM418.209 106.65L420.35 104.549L415.1 99.1988L412.959 101.3L410.817 103.401L416.067 108.751L418.209 106.65ZM412.959 101.3V104.3H422.509V101.3V98.3H412.959V101.3ZM422.509 101.3V104.3C424.51 104.3 426.621 103.862 428.182 102.368L426.109 100.2L424.035 98.0321C424.063 98.0052 423.774 98.3 422.509 98.3V101.3ZM426.109 100.2L428.136 102.411C429.661 101.014 430.309 99.1537 430.309 97.2H427.309H424.309C424.309 97.7797 424.156 97.9197 424.081 97.9885L426.109 100.2ZM427.309 97.2H430.309C430.309 95.2463 429.661 93.3864 428.136 91.9885L426.109 94.2L424.081 96.4115C424.156 96.4803 424.309 96.6203 424.309 97.2H427.309ZM426.109 94.2L428.182 92.0321C426.621 90.5385 424.51 90.1 422.509 90.1V93.1V96.1C423.774 96.1 424.063 96.3948 424.035 96.3679L426.109 94.2ZM422.509 93.1V90.1H412.959V93.1V96.1H422.509V93.1ZM412.959 93.1L415.1 95.2012L420.35 89.8512L418.209 87.75L416.067 85.6488L410.817 90.9988L412.959 93.1ZM418.209 87.75H415.209V106.65H418.209H421.209V87.75H418.209ZM447.864 115.45L445.779 117.607L447.864 115.45ZM443.364 84V81H440.364V84H443.364ZM455.164 84H458.164V81H455.164V84ZM456.614 108.6L454.332 110.547L454.346 110.564L454.361 110.58L456.614 108.6ZM464.414 108.6L462.132 106.653L462.127 106.659L464.414 108.6ZM465.864 84V81H462.864V84H465.864ZM477.464 84H480.464V81H477.464V84ZM472.964 115.45L470.879 113.293L472.964 115.45ZM460.414 119.8V116.8C455.594 116.8 452.243 115.51 449.95 113.293L447.864 115.45L445.779 117.607C449.486 121.19 454.501 122.8 460.414 122.8V119.8ZM447.864 115.45L449.95 113.293C447.675 111.094 446.364 107.889 446.364 103.25H443.364H440.364C440.364 109.077 442.054 114.006 445.779 117.607L447.864 115.45ZM443.364 103.25H446.364V84H443.364H440.364V103.25H443.364ZM443.364 84V87H455.164V84V81H443.364V84ZM455.164 84H452.164V102.9H455.164H458.164V84H455.164ZM455.164 102.9H452.164C452.164 105.775 452.656 108.581 454.332 110.547L456.614 108.6L458.897 106.653C458.64 106.352 458.164 105.358 458.164 102.9H455.164ZM456.614 108.6L454.361 110.58C455.967 112.408 458.13 113.25 460.514 113.25V110.25V107.25C459.633 107.25 459.195 106.992 458.868 106.62L456.614 108.6ZM460.514 110.25V113.25C462.91 113.25 465.107 112.421 466.702 110.541L464.414 108.6L462.127 106.659C461.855 106.979 461.452 107.25 460.514 107.25V110.25ZM464.414 108.6L466.697 110.547C468.373 108.581 468.864 105.775 468.864 102.9H465.864H462.864C462.864 105.358 462.389 106.352 462.132 106.653L464.414 108.6ZM465.864 102.9H468.864V84H465.864H462.864V102.9H465.864ZM465.864 84V87H477.464V84V81H465.864V84ZM477.464 84H474.464V103.25H477.464H480.464V84H477.464ZM477.464 103.25H474.464C474.464 107.889 473.154 111.094 470.879 113.293L472.964 115.45L475.05 117.607C478.775 114.006 480.464 109.077 480.464 103.25H477.464ZM472.964 115.45L470.879 113.293C468.586 115.51 465.235 116.8 460.414 116.8V119.8V122.8C466.327 122.8 471.343 121.19 475.05 117.607L472.964 115.45ZM482.873 119H479.873V122H482.873V119ZM482.873 84V81H479.873V84H482.873ZM492.573 84L494.875 82.0763L493.976 81H492.573V84ZM510.373 105.3V108.3H516.79L512.675 103.376L510.373 105.3ZM505.873 105.3H502.873V108.3H505.873V105.3ZM505.873 84V81H502.873V84H505.873ZM517.373 84H520.373V81H517.373V84ZM517.373 119V122H520.373V119H517.373ZM507.673 119L505.371 120.924L506.271 122H507.673V119ZM489.873 97.7V94.7H483.457L487.571 99.6237L489.873 97.7ZM494.373 97.7H497.373V94.7H494.373V97.7ZM494.373 119V122H497.373V119H494.373ZM482.873 119H485.873V84H482.873H479.873V119H482.873ZM482.873 84V87H492.573V84V81H482.873V84ZM492.573 84L490.271 85.9237L508.071 107.224L510.373 105.3L512.675 103.376L494.875 82.0763L492.573 84ZM510.373 105.3V102.3H505.873V105.3V108.3H510.373V105.3ZM505.873 105.3H508.873V84H505.873H502.873V105.3H505.873ZM505.873 84V87H517.373V84V81H505.873V84ZM517.373 84H514.373V119H517.373H520.373V84H517.373ZM517.373 119V116H507.673V119V122H517.373V119ZM507.673 119L509.975 117.076L492.175 95.7763L489.873 97.7L487.571 99.6237L505.371 120.924L507.673 119ZM489.873 97.7V100.7H494.373V97.7V94.7H489.873V97.7ZM494.373 97.7H491.373V119H494.373H497.373V97.7H494.373ZM494.373 119V116H482.873V119V122H494.373V119Z" fill="url(#paint1_linear_264_136)" mask="url(#path-3-outside-2_264_136)"/>
<defs>
<linearGradient id="paint0_linear_264_136" x1="226.5" y1="0" x2="226.5" y2="61" gradientUnits="userSpaceOnUse">
<stop stop-color="#E51D25"/>
<stop offset="1" stop-color="#1D3A69"/>
</linearGradient>
<linearGradient id="paint1_linear_264_136" x1="263.5" y1="71" x2="263.5" y2="132" gradientUnits="userSpaceOnUse">
<stop stop-color="#E51D25"/>
<stop offset="1" stop-color="#1D3A69"/>
</linearGradient>
</defs>
</svg>
