<svg width="435" height="43" viewBox="0 0 435 43" fill="none" xmlns="http://www.w3.org/2000/svg">
<mask id="path-1-outside-1_436_10272" maskUnits="userSpaceOnUse" x="0" y="0" width="435" height="43" fill="black">
<rect fill="white" width="435" height="43"/>
<path d="M25.8869 4H37.6869V39H25.8869V4ZM14.9869 39H3.18691V4H14.9869V39ZM26.6869 26.1H14.1869V16.4H26.6869V26.1ZM61.7225 39.8C58.8891 39.8 56.2558 39.35 53.8225 38.45C51.4225 37.55 49.3391 36.2833 47.5725 34.65C45.8058 32.9833 44.4225 31.0333 43.4225 28.8C42.4558 26.5667 41.9725 24.1333 41.9725 21.5C41.9725 18.8333 42.4558 16.4 43.4225 14.2C44.4225 11.9667 45.8058 10.0333 47.5725 8.4C49.3391 6.73333 51.4225 5.45 53.8225 4.55C56.2558 3.65 58.8891 3.2 61.7225 3.2C64.5891 3.2 67.2225 3.65 69.6225 4.55C72.0225 5.45 74.1058 6.73333 75.8725 8.4C77.6391 10.0333 79.0058 11.9667 79.9725 14.2C80.9725 16.4 81.4725 18.8333 81.4725 21.5C81.4725 24.1333 80.9725 26.5667 79.9725 28.8C79.0058 31.0333 77.6391 32.9833 75.8725 34.65C74.1058 36.2833 72.0225 37.55 69.6225 38.45C67.2225 39.35 64.5891 39.8 61.7225 39.8ZM61.7225 30.25C62.8225 30.25 63.8391 30.05 64.7725 29.65C65.7391 29.25 66.5725 28.6833 67.2725 27.95C68.0058 27.1833 68.5725 26.2667 68.9725 25.2C69.3725 24.1 69.5725 22.8667 69.5725 21.5C69.5725 20.1333 69.3725 18.9167 68.9725 17.85C68.5725 16.75 68.0058 15.8333 67.2725 15.1C66.5725 14.3333 65.7391 13.75 64.7725 13.35C63.8391 12.95 62.8225 12.75 61.7225 12.75C60.6225 12.75 59.5891 12.95 58.6225 13.35C57.6891 13.75 56.8558 14.3333 56.1225 15.1C55.4225 15.8333 54.8725 16.75 54.4725 17.85C54.0725 18.9167 53.8725 20.1333 53.8725 21.5C53.8725 22.8667 54.0725 24.1 54.4725 25.2C54.8725 26.2667 55.4225 27.1833 56.1225 27.95C56.8558 28.6833 57.6891 29.25 58.6225 29.65C59.5891 30.05 60.6225 30.25 61.7225 30.25ZM93.3846 39L82.1846 4H94.3346L103.385 33.55H97.2846L106.885 4H117.735L126.685 33.55H120.835L130.285 4H141.485L130.285 39H117.635L110.335 14.8H113.735L106.035 39H93.3846ZM167.428 39V13.15H157.178V4H189.478V13.15H179.228V39H167.428ZM210.404 39.8C207.571 39.8 204.937 39.35 202.504 38.45C200.104 37.55 198.021 36.2833 196.254 34.65C194.487 32.9833 193.104 31.0333 192.104 28.8C191.137 26.5667 190.654 24.1333 190.654 21.5C190.654 18.8333 191.137 16.4 192.104 14.2C193.104 11.9667 194.487 10.0333 196.254 8.4C198.021 6.73333 200.104 5.45 202.504 4.55C204.937 3.65 207.571 3.2 210.404 3.2C213.271 3.2 215.904 3.65 218.304 4.55C220.704 5.45 222.787 6.73333 224.554 8.4C226.321 10.0333 227.687 11.9667 228.654 14.2C229.654 16.4 230.154 18.8333 230.154 21.5C230.154 24.1333 229.654 26.5667 228.654 28.8C227.687 31.0333 226.321 32.9833 224.554 34.65C222.787 36.2833 220.704 37.55 218.304 38.45C215.904 39.35 213.271 39.8 210.404 39.8ZM210.404 30.25C211.504 30.25 212.521 30.05 213.454 29.65C214.421 29.25 215.254 28.6833 215.954 27.95C216.687 27.1833 217.254 26.2667 217.654 25.2C218.054 24.1 218.254 22.8667 218.254 21.5C218.254 20.1333 218.054 18.9167 217.654 17.85C217.254 16.75 216.687 15.8333 215.954 15.1C215.254 14.3333 214.421 13.75 213.454 13.35C212.521 12.95 211.504 12.75 210.404 12.75C209.304 12.75 208.271 12.95 207.304 13.35C206.371 13.75 205.537 14.3333 204.804 15.1C204.104 15.8333 203.554 16.75 203.154 17.85C202.754 18.9167 202.554 20.1333 202.554 21.5C202.554 22.8667 202.754 24.1 203.154 25.2C203.554 26.2667 204.104 27.1833 204.804 27.95C205.537 28.6833 206.371 29.25 207.304 29.65C208.271 30.05 209.304 30.25 210.404 30.25ZM249.427 39V4H266.277C269.544 4 272.36 4.53333 274.727 5.6C277.127 6.66666 278.977 8.2 280.277 10.2C281.577 12.1667 282.227 14.5 282.227 17.2C282.227 19.9 281.577 22.2333 280.277 24.2C278.977 26.1333 277.127 27.6167 274.727 28.65C272.36 29.6833 269.544 30.2 266.277 30.2H255.977L261.227 25.35V39H249.427ZM270.377 39L261.777 26.25H274.277L282.977 39H270.377ZM261.227 26.65L255.977 21.3H265.527C267.16 21.3 268.36 20.9333 269.127 20.2C269.927 19.4667 270.327 18.4667 270.327 17.2C270.327 15.9333 269.927 14.9333 269.127 14.2C268.36 13.4667 267.16 13.1 265.527 13.1H255.977L261.227 7.75V26.65ZM297.483 17H313.083V25.5H297.483V17ZM298.283 30.1H315.783V39H286.683V4H315.133V12.9H298.283V30.1ZM316.526 39L331.826 4H343.426L358.726 39H346.526L335.226 9.6H339.826L328.526 39H316.526ZM325.626 32.9L328.626 24.4H344.726L347.726 32.9H325.626ZM378.221 39.8C375.421 39.8 372.821 39.3667 370.421 38.5C368.054 37.6 365.987 36.3333 364.221 34.7C362.487 33.0667 361.137 31.1333 360.171 28.9C359.204 26.6667 358.721 24.2 358.721 21.5C358.721 18.8 359.204 16.3333 360.171 14.1C361.137 11.8667 362.487 9.93333 364.221 8.3C365.987 6.66666 368.054 5.41666 370.421 4.55C372.821 3.65 375.421 3.2 378.221 3.2C381.654 3.2 384.687 3.8 387.321 5C389.987 6.2 392.187 7.93333 393.921 10.2L386.471 16.85C385.437 15.55 384.287 14.55 383.021 13.85C381.787 13.1167 380.387 12.75 378.821 12.75C377.587 12.75 376.471 12.95 375.471 13.35C374.471 13.75 373.604 14.3333 372.871 15.1C372.171 15.8667 371.621 16.8 371.221 17.9C370.821 18.9667 370.621 20.1667 370.621 21.5C370.621 22.8333 370.821 24.05 371.221 25.15C371.621 26.2167 372.171 27.1333 372.871 27.9C373.604 28.6667 374.471 29.25 375.471 29.65C376.471 30.05 377.587 30.25 378.821 30.25C380.387 30.25 381.787 29.9 383.021 29.2C384.287 28.4667 385.437 27.45 386.471 26.15L393.921 32.8C392.187 35.0333 389.987 36.7667 387.321 38C384.687 39.2 381.654 39.8 378.221 39.8ZM420.028 4H431.828V39H420.028V4ZM409.128 39H397.328V4H409.128V39ZM420.828 26.1H408.328V16.4H420.828V26.1Z"/>
</mask>
<path d="M25.8869 4V0.999998H22.8869V4H25.8869ZM37.6869 4H40.6869V0.999998H37.6869V4ZM37.6869 39V42H40.6869V39H37.6869ZM25.8869 39H22.8869V42H25.8869V39ZM14.9869 39V42H17.9869V39H14.9869ZM3.18691 39H0.186914V42H3.18691V39ZM3.18691 4V0.999998H0.186914V4H3.18691ZM14.9869 4H17.9869V0.999998H14.9869V4ZM26.6869 26.1V29.1H29.6869V26.1H26.6869ZM14.1869 26.1H11.1869V29.1H14.1869V26.1ZM14.1869 16.4V13.4H11.1869V16.4H14.1869ZM26.6869 16.4H29.6869V13.4H26.6869V16.4ZM25.8869 4V7H37.6869V4V0.999998H25.8869V4ZM37.6869 4H34.6869V39H37.6869H40.6869V4H37.6869ZM37.6869 39V36H25.8869V39V42H37.6869V39ZM25.8869 39H28.8869V4H25.8869H22.8869V39H25.8869ZM14.9869 39V36H3.18691V39V42H14.9869V39ZM3.18691 39H6.18691V4H3.18691H0.186914V39H3.18691ZM3.18691 4V7H14.9869V4V0.999998H3.18691V4ZM14.9869 4H11.9869V39H14.9869H17.9869V4H14.9869ZM26.6869 26.1V23.1H14.1869V26.1V29.1H26.6869V26.1ZM14.1869 26.1H17.1869V16.4H14.1869H11.1869V26.1H14.1869ZM14.1869 16.4V19.4H26.6869V16.4V13.4H14.1869V16.4ZM26.6869 16.4H23.6869V26.1H26.6869H29.6869V16.4H26.6869ZM53.8225 38.45L52.7691 41.259L52.7818 41.2637L53.8225 38.45ZM47.5725 34.65L45.5138 36.8322L45.5248 36.8426L45.5359 36.8528L47.5725 34.65ZM43.4225 28.8L40.6693 29.9917L40.6767 30.0089L40.6844 30.026L43.4225 28.8ZM43.4225 14.2L40.6844 12.974L40.6801 12.9836L40.6759 12.9932L43.4225 14.2ZM47.5725 8.4L49.609 10.6028L49.6201 10.5926L49.6311 10.5822L47.5725 8.4ZM53.8225 4.55L52.7818 1.73626L52.7691 1.74101L53.8225 4.55ZM69.6225 4.55L68.5691 7.35899V7.35899L69.6225 4.55ZM75.8725 8.4L73.8138 10.5822L73.8248 10.5926L73.8359 10.6028L75.8725 8.4ZM79.9725 14.2L77.2193 15.3917L77.2301 15.4166L77.2414 15.4414L79.9725 14.2ZM79.9725 28.8L77.2344 27.574L77.2267 27.5911L77.2193 27.6083L79.9725 28.8ZM75.8725 34.65L77.909 36.8528L77.9201 36.8426L77.9311 36.8322L75.8725 34.65ZM69.6225 38.45L68.5691 35.641L69.6225 38.45ZM64.7725 29.65L63.6254 26.8779L63.608 26.8851L63.5907 26.8926L64.7725 29.65ZM67.2725 27.95L65.1045 25.8763L65.1024 25.8786L67.2725 27.95ZM68.9725 25.2L71.7814 26.2534L71.7867 26.2393L71.7918 26.2252L68.9725 25.2ZM68.9725 17.85L66.1531 18.8752L66.1582 18.8893L66.1635 18.9034L68.9725 17.85ZM67.2725 15.1L65.057 17.1228L65.103 17.1731L65.1511 17.2213L67.2725 15.1ZM64.7725 13.35L63.5907 16.1074L63.608 16.1149L63.6254 16.1221L64.7725 13.35ZM58.6225 13.35L57.4754 10.5779L57.458 10.5851L57.4407 10.5926L58.6225 13.35ZM56.1225 15.1L53.9545 13.0263L53.9524 13.0286L56.1225 15.1ZM54.4725 17.85L57.2814 18.9034L57.2867 18.8893L57.2918 18.8752L54.4725 17.85ZM54.4725 25.2L51.6531 26.2252L51.6582 26.2393L51.6635 26.2534L54.4725 25.2ZM56.1225 27.95L53.907 29.9728L53.953 30.0231L54.0011 30.0713L56.1225 27.95ZM58.6225 29.65L57.4407 32.4074L57.458 32.4149L57.4754 32.4221L58.6225 29.65ZM61.7225 39.8V36.8C59.2116 36.8 56.934 36.4022 54.8631 35.6363L53.8225 38.45L52.7818 41.2637C55.5776 42.2978 58.5667 42.8 61.7225 42.8V39.8ZM53.8225 38.45L54.8758 35.641C52.8157 34.8685 51.072 33.7998 49.609 32.4472L47.5725 34.65L45.5359 36.8528C47.6062 38.7669 50.0292 40.2315 52.7691 41.259L53.8225 38.45ZM47.5725 34.65L49.6311 32.4678C48.1538 31.0742 47.0004 29.4498 46.1605 27.574L43.4225 28.8L40.6844 30.026C41.8445 32.6169 43.4578 34.8925 45.5138 36.8322L47.5725 34.65ZM43.4225 28.8L46.1756 27.6083C45.3848 25.7812 44.9725 23.7574 44.9725 21.5H41.9725H38.9725C38.9725 24.5092 39.5268 27.3521 40.6693 29.9917L43.4225 28.8ZM41.9725 21.5H44.9725C44.9725 19.203 45.387 17.1866 46.169 15.4068L43.4225 14.2L40.6759 12.9932C39.5246 15.6134 38.9725 18.4636 38.9725 21.5H41.9725ZM43.4225 14.2L46.1605 15.426C46.9979 13.5558 48.1449 11.9565 49.609 10.6028L47.5725 8.4L45.5359 6.19718C43.4667 8.11021 41.847 10.3775 40.6844 12.974L43.4225 14.2ZM47.5725 8.4L49.6311 10.5822C51.0918 9.20418 52.8283 8.12683 54.8758 7.35899L53.8225 4.55L52.7691 1.74101C50.0167 2.77317 47.5864 4.26249 45.5138 6.21782L47.5725 8.4ZM53.8225 4.55L54.8631 7.36371C56.934 6.59778 59.2116 6.2 61.7225 6.2V3.2V0.199999C58.5667 0.199999 55.5776 0.702213 52.7818 1.73629L53.8225 4.55ZM61.7225 3.2V6.2C64.2717 6.2 66.5434 6.59936 68.5691 7.35899L69.6225 4.55L70.6758 1.74101C67.9015 0.700639 64.9065 0.199999 61.7225 0.199999V3.2ZM69.6225 4.55L68.5691 7.35899C70.6167 8.12683 72.3531 9.20418 73.8138 10.5822L75.8725 8.4L77.9311 6.21782C75.8585 4.26249 73.4283 2.77317 70.6758 1.74101L69.6225 4.55ZM75.8725 8.4L73.8359 10.6028C75.2923 11.9493 76.4166 13.5371 77.2193 15.3917L79.9725 14.2L82.7256 13.0083C81.595 10.3963 79.9859 8.11734 77.909 6.19718L75.8725 8.4ZM79.9725 14.2L77.2414 15.4414C78.0466 17.2128 78.4725 19.2169 78.4725 21.5H81.4725H84.4725C84.4725 18.4498 83.8984 15.5872 82.7036 12.9586L79.9725 14.2ZM81.4725 21.5H78.4725C78.4725 23.7434 78.0489 25.755 77.2344 27.574L79.9725 28.8L82.7105 30.026C83.8961 27.3783 84.4725 24.5232 84.4725 21.5H81.4725ZM79.9725 28.8L77.2193 27.6083C76.4141 29.4685 75.2835 31.0813 73.8138 32.4678L75.8725 34.65L77.9311 36.8322C79.9948 34.8854 81.5975 32.5981 82.7256 29.9917L79.9725 28.8ZM75.8725 34.65L73.8359 32.4472C72.3729 33.7998 70.6292 34.8685 68.5691 35.641L69.6225 38.45L70.6758 41.259C73.4157 40.2315 75.8387 38.7669 77.909 36.8528L75.8725 34.65ZM69.6225 38.45L68.5691 35.641C66.5434 36.4006 64.2717 36.8 61.7225 36.8V39.8V42.8C64.9065 42.8 67.9015 42.2994 70.6758 41.259L69.6225 38.45ZM61.7225 30.25V33.25C63.1946 33.25 64.6173 32.9804 65.9542 32.4074L64.7725 29.65L63.5907 26.8926C63.061 27.1196 62.4504 27.25 61.7225 27.25V30.25ZM64.7725 29.65L65.9195 32.4221C67.2596 31.8675 68.4447 31.0667 69.4425 30.0214L67.2725 27.95L65.1024 25.8786C64.7002 26.2999 64.2186 26.6325 63.6254 26.8779L64.7725 29.65ZM67.2725 27.95L69.4404 30.0237C70.4744 28.9426 71.2496 27.6716 71.7814 26.2534L68.9725 25.2L66.1635 24.1466C65.8953 24.8617 65.5372 25.424 65.1045 25.8763L67.2725 27.95ZM68.9725 25.2L71.7918 26.2252C72.3295 24.7466 72.5725 23.1589 72.5725 21.5H69.5725H66.5725C66.5725 22.5745 66.4154 23.4534 66.1531 24.1748L68.9725 25.2ZM69.5725 21.5H72.5725C72.5725 19.8435 72.3302 18.2599 71.7814 16.7966L68.9725 17.85L66.1635 18.9034C66.4147 19.5734 66.5725 20.4231 66.5725 21.5H69.5725ZM68.9725 17.85L71.7918 16.8248C71.2614 15.366 70.4747 14.0596 69.3938 12.9787L67.2725 15.1L65.1511 17.2213C65.5368 17.607 65.8836 18.134 66.1531 18.8752L68.9725 17.85ZM67.2725 15.1L69.4879 13.0772C68.4887 11.9828 67.2897 11.1449 65.9195 10.5779L64.7725 13.35L63.6254 16.1221C64.1885 16.3551 64.6562 16.6838 65.057 17.1228L67.2725 15.1ZM64.7725 13.35L65.9542 10.5926C64.6173 10.0196 63.1946 9.75 61.7225 9.75V12.75V15.75C62.4504 15.75 63.061 15.8804 63.5907 16.1074L64.7725 13.35ZM61.7225 12.75V9.75C60.2494 9.75 58.8243 10.0198 57.4754 10.5779L58.6225 13.35L59.7695 16.122C60.3539 15.8802 60.9955 15.75 61.7225 15.75V12.75ZM58.6225 13.35L57.4407 10.5926C56.1194 11.1589 54.9544 11.981 53.9545 13.0263L56.1225 15.1L58.2904 17.1737C58.7572 16.6857 59.2589 16.3411 59.8042 16.1074L58.6225 13.35ZM56.1225 15.1L53.9524 13.0286C52.925 14.1049 52.1731 15.3947 51.6531 16.8248L54.4725 17.85L57.2918 18.8752C57.5718 18.1053 57.9199 17.5618 58.2925 17.1714L56.1225 15.1ZM54.4725 17.85L51.6635 16.7966C51.1147 18.2599 50.8725 19.8435 50.8725 21.5H53.8725H56.8725C56.8725 20.4231 57.0302 19.5734 57.2814 18.9034L54.4725 17.85ZM53.8725 21.5H50.8725C50.8725 23.1589 51.1154 24.7466 51.6531 26.2252L54.4725 25.2L57.2918 24.1748C57.0295 23.4534 56.8725 22.5745 56.8725 21.5H53.8725ZM54.4725 25.2L51.6635 26.2534C52.1846 27.6431 52.9252 28.8975 53.907 29.9728L56.1225 27.95L58.3379 25.9272C57.9198 25.4692 57.5603 24.8902 57.2814 24.1466L54.4725 25.2ZM56.1225 27.95L54.0011 30.0713C54.9985 31.0686 56.149 31.8538 57.4407 32.4074L58.6225 29.65L59.8042 26.8926C59.2293 26.6461 58.7131 26.298 58.2438 25.8287L56.1225 27.95ZM58.6225 29.65L57.4754 32.4221C58.8243 32.9802 60.2494 33.25 61.7225 33.25V30.25V27.25C60.9955 27.25 60.3539 27.1198 59.7695 26.8779L58.6225 29.65ZM93.3846 39L90.5273 39.9143L91.1947 42H93.3846V39ZM82.1846 4V0.999998H78.0747L79.3273 4.91432L82.1846 4ZM94.3346 4L97.2031 3.12149L96.5533 0.999998H94.3346V4ZM103.385 33.55V36.55H107.441L106.253 32.6715L103.385 33.55ZM97.2846 33.55L94.4314 32.6231L93.1556 36.55H97.2846V33.55ZM106.885 4V0.999998H104.705L104.031 3.07307L106.885 4ZM117.735 4L120.606 3.13038L119.961 0.999998H117.735V4ZM126.685 33.55V36.55H130.728L129.556 32.6804L126.685 33.55ZM120.835 33.55L117.977 32.6362L116.726 36.55H120.835V33.55ZM130.285 4V0.999998H128.094L127.427 3.0862L130.285 4ZM141.485 4L144.342 4.91432L145.594 0.999998H141.485V4ZM130.285 39V42H132.474L133.142 39.9143L130.285 39ZM117.635 39L114.762 39.8664L115.406 42H117.635V39ZM110.335 14.8V11.8H106.296L107.462 15.6664L110.335 14.8ZM113.735 14.8L116.593 15.7096L117.837 11.8H113.735V14.8ZM106.035 39V42H108.228L108.893 39.9096L106.035 39ZM93.3846 39L96.2418 38.0857L85.0418 3.08567L82.1846 4L79.3273 4.91432L90.5273 39.9143L93.3846 39ZM82.1846 4V7H94.3346V4V0.999998H82.1846V4ZM94.3346 4L91.4661 4.8785L100.516 34.4285L103.385 33.55L106.253 32.6715L97.2031 3.12149L94.3346 4ZM103.385 33.55V30.55H97.2846V33.55V36.55H103.385V33.55ZM97.2846 33.55L100.138 34.4769L109.738 4.92693L106.885 4L104.031 3.07307L94.4314 32.6231L97.2846 33.55ZM106.885 4V7H117.735V4V0.999998H106.885V4ZM117.735 4L114.863 4.86962L123.813 34.4196L126.685 33.55L129.556 32.6804L120.606 3.13038L117.735 4ZM126.685 33.55V30.55H120.835V33.55V36.55H126.685V33.55ZM120.835 33.55L123.692 34.4638L133.142 4.9138L130.285 4L127.427 3.0862L117.977 32.6362L120.835 33.55ZM130.285 4V7H141.485V4V0.999998H130.285V4ZM141.485 4L138.627 3.08567L127.427 38.0857L130.285 39L133.142 39.9143L144.342 4.91432L141.485 4ZM130.285 39V36H117.635V39V42H130.285V39ZM117.635 39L120.507 38.1336L113.207 13.9336L110.335 14.8L107.462 15.6664L114.762 39.8664L117.635 39ZM110.335 14.8V17.8H113.735V14.8V11.8H110.335V14.8ZM113.735 14.8L110.876 13.8904L103.176 38.0904L106.035 39L108.893 39.9096L116.593 15.7096L113.735 14.8ZM106.035 39V36H93.3846V39V42H106.035V39ZM167.428 39H164.428V42H167.428V39ZM167.428 13.15H170.428V10.15H167.428V13.15ZM157.178 13.15H154.178V16.15H157.178V13.15ZM157.178 4V0.999998H154.178V4H157.178ZM189.478 4H192.478V0.999998H189.478V4ZM189.478 13.15V16.15H192.478V13.15H189.478ZM179.228 13.15V10.15H176.228V13.15H179.228ZM179.228 39V42H182.228V39H179.228ZM167.428 39H170.428V13.15H167.428H164.428V39H167.428ZM167.428 13.15V10.15H157.178V13.15V16.15H167.428V13.15ZM157.178 13.15H160.178V4H157.178H154.178V13.15H157.178ZM157.178 4V7H189.478V4V0.999998H157.178V4ZM189.478 4H186.478V13.15H189.478H192.478V4H189.478ZM189.478 13.15V10.15H179.228V13.15V16.15H189.478V13.15ZM179.228 13.15H176.228V39H179.228H182.228V13.15H179.228ZM179.228 39V36H167.428V39V42H179.228V39ZM202.504 38.45L201.451 41.259L201.463 41.2637L202.504 38.45ZM196.254 34.65L194.195 36.8322L194.206 36.8426L194.218 36.8528L196.254 34.65ZM192.104 28.8L189.351 29.9917L189.358 30.0089L189.366 30.026L192.104 28.8ZM192.104 14.2L189.366 12.974L189.362 12.9836L189.358 12.9932L192.104 14.2ZM196.254 8.4L198.291 10.6028L198.302 10.5926L198.313 10.5822L196.254 8.4ZM202.504 4.55L201.463 1.73626L201.451 1.74101L202.504 4.55ZM218.304 4.55L217.251 7.35899V7.35899L218.304 4.55ZM224.554 8.4L222.495 10.5822L222.506 10.5926L222.518 10.6028L224.554 8.4ZM228.654 14.2L225.901 15.3917L225.912 15.4166L225.923 15.4414L228.654 14.2ZM228.654 28.8L225.916 27.574L225.908 27.5911L225.901 27.6083L228.654 28.8ZM224.554 34.65L226.591 36.8528L226.602 36.8426L226.613 36.8322L224.554 34.65ZM218.304 38.45L217.251 35.641L218.304 38.45ZM213.454 29.65L212.307 26.8779L212.29 26.8851L212.272 26.8926L213.454 29.65ZM215.954 27.95L213.786 25.8763L213.784 25.8786L215.954 27.95ZM217.654 25.2L220.463 26.2534L220.468 26.2393L220.473 26.2252L217.654 25.2ZM217.654 17.85L214.835 18.8752L214.84 18.8893L214.845 18.9034L217.654 17.85ZM215.954 15.1L213.739 17.1228L213.785 17.1731L213.833 17.2213L215.954 15.1ZM213.454 13.35L212.272 16.1074L212.29 16.1149L212.307 16.1221L213.454 13.35ZM207.304 13.35L206.157 10.5779L206.14 10.5851L206.122 10.5926L207.304 13.35ZM204.804 15.1L202.636 13.0263L202.634 13.0286L204.804 15.1ZM203.154 17.85L205.963 18.9034L205.968 18.8893L205.973 18.8752L203.154 17.85ZM203.154 25.2L200.335 26.2252L200.34 26.2393L200.345 26.2534L203.154 25.2ZM204.804 27.95L202.589 29.9728L202.635 30.0231L202.683 30.0713L204.804 27.95ZM207.304 29.65L206.122 32.4074L206.14 32.4149L206.157 32.4221L207.304 29.65ZM210.404 39.8V36.8C207.893 36.8 205.616 36.4022 203.545 35.6363L202.504 38.45L201.463 41.2637C204.259 42.2978 207.248 42.8 210.404 42.8V39.8ZM202.504 38.45L203.557 35.641C201.497 34.8685 199.754 33.7998 198.291 32.4472L196.254 34.65L194.218 36.8528C196.288 38.7669 198.711 40.2315 201.451 41.259L202.504 38.45ZM196.254 34.65L198.313 32.4678C196.835 31.0742 195.682 29.4498 194.842 27.574L192.104 28.8L189.366 30.026C190.526 32.6169 192.139 34.8925 194.195 36.8322L196.254 34.65ZM192.104 28.8L194.857 27.6083C194.066 25.7812 193.654 23.7574 193.654 21.5H190.654H187.654C187.654 24.5092 188.208 27.3521 189.351 29.9917L192.104 28.8ZM190.654 21.5H193.654C193.654 19.203 194.069 17.1866 194.851 15.4068L192.104 14.2L189.358 12.9932C188.206 15.6134 187.654 18.4636 187.654 21.5H190.654ZM192.104 14.2L194.842 15.426C195.68 13.5558 196.827 11.9565 198.291 10.6028L196.254 8.4L194.218 6.19718C192.148 8.11021 190.529 10.3775 189.366 12.974L192.104 14.2ZM196.254 8.4L198.313 10.5822C199.773 9.20418 201.51 8.12683 203.557 7.35899L202.504 4.55L201.451 1.74101C198.698 2.77317 196.268 4.26249 194.195 6.21782L196.254 8.4ZM202.504 4.55L203.545 7.36371C205.616 6.59778 207.893 6.2 210.404 6.2V3.2V0.199999C207.248 0.199999 204.259 0.702213 201.463 1.73629L202.504 4.55ZM210.404 3.2V6.2C212.953 6.2 215.225 6.59936 217.251 7.35899L218.304 4.55L219.357 1.74101C216.583 0.700639 213.588 0.199999 210.404 0.199999V3.2ZM218.304 4.55L217.251 7.35899C219.298 8.12683 221.035 9.20418 222.495 10.5822L224.554 8.4L226.613 6.21782C224.54 4.26249 222.11 2.77317 219.357 1.74101L218.304 4.55ZM224.554 8.4L222.518 10.6028C223.974 11.9493 225.098 13.5371 225.901 15.3917L228.654 14.2L231.407 13.0083C230.277 10.3963 228.668 8.11734 226.591 6.19718L224.554 8.4ZM228.654 14.2L225.923 15.4414C226.728 17.2128 227.154 19.2169 227.154 21.5H230.154H233.154C233.154 18.4498 232.58 15.5872 231.385 12.9586L228.654 14.2ZM230.154 21.5H227.154C227.154 23.7434 226.731 25.755 225.916 27.574L228.654 28.8L231.392 30.026C232.578 27.3783 233.154 24.5232 233.154 21.5H230.154ZM228.654 28.8L225.901 27.6083C225.096 29.4685 223.965 31.0813 222.495 32.4678L224.554 34.65L226.613 36.8322C228.676 34.8854 230.279 32.5981 231.407 29.9917L228.654 28.8ZM224.554 34.65L222.518 32.4472C221.055 33.7998 219.311 34.8685 217.251 35.641L218.304 38.45L219.357 41.259C222.097 40.2315 224.52 38.7669 226.591 36.8528L224.554 34.65ZM218.304 38.45L217.251 35.641C215.225 36.4006 212.953 36.8 210.404 36.8V39.8V42.8C213.588 42.8 216.583 42.2994 219.357 41.259L218.304 38.45ZM210.404 30.25V33.25C211.876 33.25 213.299 32.9804 214.636 32.4074L213.454 29.65L212.272 26.8926C211.743 27.1196 211.132 27.25 210.404 27.25V30.25ZM213.454 29.65L214.601 32.4221C215.941 31.8675 217.126 31.0667 218.124 30.0214L215.954 27.95L213.784 25.8786C213.382 26.2999 212.9 26.6325 212.307 26.8779L213.454 29.65ZM215.954 27.95L218.122 30.0237C219.156 28.9426 219.931 27.6716 220.463 26.2534L217.654 25.2L214.845 24.1466C214.577 24.8617 214.219 25.424 213.786 25.8763L215.954 27.95ZM217.654 25.2L220.473 26.2252C221.011 24.7466 221.254 23.1589 221.254 21.5H218.254H215.254C215.254 22.5745 215.097 23.4534 214.835 24.1748L217.654 25.2ZM218.254 21.5H221.254C221.254 19.8435 221.012 18.2599 220.463 16.7966L217.654 17.85L214.845 18.9034C215.096 19.5734 215.254 20.4231 215.254 21.5H218.254ZM217.654 17.85L220.473 16.8248C219.943 15.366 219.156 14.0596 218.075 12.9787L215.954 15.1L213.833 17.2213C214.218 17.607 214.565 18.134 214.835 18.8752L217.654 17.85ZM215.954 15.1L218.17 13.0772C217.17 11.9828 215.971 11.1449 214.601 10.5779L213.454 13.35L212.307 16.1221C212.87 16.3551 213.338 16.6838 213.739 17.1228L215.954 15.1ZM213.454 13.35L214.636 10.5926C213.299 10.0196 211.876 9.75 210.404 9.75V12.75V15.75C211.132 15.75 211.743 15.8804 212.272 16.1074L213.454 13.35ZM210.404 12.75V9.75C208.931 9.75 207.506 10.0198 206.157 10.5779L207.304 13.35L208.451 16.122C209.036 15.8802 209.677 15.75 210.404 15.75V12.75ZM207.304 13.35L206.122 10.5926C204.801 11.1589 203.636 11.981 202.636 13.0263L204.804 15.1L206.972 17.1737C207.439 16.6857 207.941 16.3411 208.486 16.1074L207.304 13.35ZM204.804 15.1L202.634 13.0286C201.607 14.1049 200.855 15.3947 200.335 16.8248L203.154 17.85L205.973 18.8752C206.253 18.1053 206.602 17.5618 206.974 17.1714L204.804 15.1ZM203.154 17.85L200.345 16.7966C199.796 18.2599 199.554 19.8435 199.554 21.5H202.554H205.554C205.554 20.4231 205.712 19.5734 205.963 18.9034L203.154 17.85ZM202.554 21.5H199.554C199.554 23.1589 199.797 24.7466 200.335 26.2252L203.154 25.2L205.973 24.1748C205.711 23.4534 205.554 22.5745 205.554 21.5H202.554ZM203.154 25.2L200.345 26.2534C200.866 27.6431 201.607 28.8975 202.589 29.9728L204.804 27.95L207.02 25.9272C206.601 25.4692 206.242 24.8902 205.963 24.1466L203.154 25.2ZM204.804 27.95L202.683 30.0713C203.68 31.0686 204.831 31.8538 206.122 32.4074L207.304 29.65L208.486 26.8926C207.911 26.6461 207.395 26.298 206.925 25.8287L204.804 27.95ZM207.304 29.65L206.157 32.4221C207.506 32.9802 208.931 33.25 210.404 33.25V30.25V27.25C209.677 27.25 209.036 27.1198 208.451 26.8779L207.304 29.65ZM249.427 39H246.427V42H249.427V39ZM249.427 4V0.999998H246.427V4H249.427ZM274.727 5.6L273.494 8.33504L273.502 8.33825L273.509 8.34143L274.727 5.6ZM280.277 10.2L277.762 11.835L277.768 11.8447L277.775 11.8543L280.277 10.2ZM280.277 24.2L282.767 25.874L282.773 25.8642L282.78 25.8543L280.277 24.2ZM274.727 28.65L273.541 25.8945L273.534 25.8976L273.527 25.9006L274.727 28.65ZM255.977 30.2L253.941 27.9964L248.309 33.2H255.977V30.2ZM261.227 25.35H264.227V18.4944L259.191 23.1464L261.227 25.35ZM261.227 39V42H264.227V39H261.227ZM270.377 39L267.89 40.6776L268.782 42H270.377V39ZM261.777 26.25V23.25H256.135L259.29 27.9276L261.777 26.25ZM274.277 26.25L276.755 24.5591L275.862 23.25H274.277V26.25ZM282.977 39V42H288.656L285.455 37.3091L282.977 39ZM261.227 26.65L259.086 28.7512L264.227 33.9904V26.65H261.227ZM255.977 21.3V18.3H248.83L253.836 23.4012L255.977 21.3ZM269.127 20.2L267.1 17.9885L267.077 18.0101L267.053 18.0321L269.127 20.2ZM269.127 14.2L267.053 16.3679L267.077 16.3899L267.1 16.4115L269.127 14.2ZM255.977 13.1L253.836 10.9988L248.83 16.1H255.977V13.1ZM261.227 7.75H264.227V0.40962L259.086 5.64879L261.227 7.75ZM249.427 39H252.427V4H249.427H246.427V39H249.427ZM249.427 4V7H266.277V4V0.999998H249.427V4ZM266.277 4V7C269.225 7 271.602 7.48198 273.494 8.33504L274.727 5.6L275.96 2.86495C273.119 1.58468 269.863 0.999998 266.277 0.999998V4ZM274.727 5.6L273.509 8.34143C275.434 9.19717 276.81 10.3701 277.762 11.835L280.277 10.2L282.792 8.56503C281.145 6.02991 278.82 4.13616 275.946 2.85856L274.727 5.6ZM280.277 10.2L277.775 11.8543C278.705 13.2617 279.227 15.0004 279.227 17.2H282.227H285.227C285.227 13.9996 284.449 11.0716 282.78 8.5457L280.277 10.2ZM282.227 17.2H279.227C279.227 19.3996 278.705 21.1383 277.775 22.5457L280.277 24.2L282.78 25.8543C284.449 23.3284 285.227 20.4004 285.227 17.2H282.227ZM280.277 24.2L277.788 22.526C276.847 23.9245 275.478 25.0605 273.541 25.8945L274.727 28.65L275.914 31.4055C278.776 30.1728 281.107 28.3421 282.767 25.874L280.277 24.2ZM274.727 28.65L273.527 25.9006C271.625 26.7311 269.236 27.2 266.277 27.2V30.2V33.2C269.851 33.2 273.096 32.6356 275.928 31.3994L274.727 28.65ZM266.277 30.2V27.2H255.977V30.2V33.2H266.277V30.2ZM255.977 30.2L258.013 32.4036L263.263 27.5536L261.227 25.35L259.191 23.1464L253.941 27.9964L255.977 30.2ZM261.227 25.35H258.227V39H261.227H264.227V25.35H261.227ZM261.227 39V36H249.427V39V42H261.227V39ZM270.377 39L272.864 37.3224L264.264 24.5724L261.777 26.25L259.29 27.9276L267.89 40.6776L270.377 39ZM261.777 26.25V29.25H274.277V26.25V23.25H261.777V26.25ZM274.277 26.25L271.799 27.9409L280.499 40.6909L282.977 39L285.455 37.3091L276.755 24.5591L274.277 26.25ZM282.977 39V36H270.377V39V42H282.977V39ZM261.227 26.65L263.368 24.5488L258.118 19.1988L255.977 21.3L253.836 23.4012L259.086 28.7512L261.227 26.65ZM255.977 21.3V24.3H265.527V21.3V18.3H255.977V21.3ZM265.527 21.3V24.3C267.528 24.3 269.639 23.8615 271.201 22.3679L269.127 20.2L267.053 18.0321C267.082 18.0052 266.793 18.3 265.527 18.3V21.3ZM269.127 20.2L271.154 22.4115C272.679 21.0136 273.327 19.1537 273.327 17.2H270.327H267.327C267.327 17.7797 267.175 17.9197 267.1 17.9885L269.127 20.2ZM270.327 17.2H273.327C273.327 15.2463 272.679 13.3864 271.154 11.9885L269.127 14.2L267.1 16.4115C267.175 16.4803 267.327 16.6203 267.327 17.2H270.327ZM269.127 14.2L271.201 12.0321C269.639 10.5385 267.528 10.1 265.527 10.1V13.1V16.1C266.793 16.1 267.082 16.3948 267.053 16.3679L269.127 14.2ZM265.527 13.1V10.1H255.977V13.1V16.1H265.527V13.1ZM255.977 13.1L258.118 15.2012L263.368 9.85122L261.227 7.75L259.086 5.64879L253.836 10.9988L255.977 13.1ZM261.227 7.75H258.227V26.65H261.227H264.227V7.75H261.227ZM297.483 17V14H294.483V17H297.483ZM313.083 17H316.083V14H313.083V17ZM313.083 25.5V28.5H316.083V25.5H313.083ZM297.483 25.5H294.483V28.5H297.483V25.5ZM298.283 30.1H295.283V33.1H298.283V30.1ZM315.783 30.1H318.783V27.1H315.783V30.1ZM315.783 39V42H318.783V39H315.783ZM286.683 39H283.683V42H286.683V39ZM286.683 4V0.999998H283.683V4H286.683ZM315.133 4H318.133V0.999998H315.133V4ZM315.133 12.9V15.9H318.133V12.9H315.133ZM298.283 12.9V9.9H295.283V12.9H298.283ZM297.483 17V20H313.083V17V14H297.483V17ZM313.083 17H310.083V25.5H313.083H316.083V17H313.083ZM313.083 25.5V22.5H297.483V25.5V28.5H313.083V25.5ZM297.483 25.5H300.483V17H297.483H294.483V25.5H297.483ZM298.283 30.1V33.1H315.783V30.1V27.1H298.283V30.1ZM315.783 30.1H312.783V39H315.783H318.783V30.1H315.783ZM315.783 39V36H286.683V39V42H315.783V39ZM286.683 39H289.683V4H286.683H283.683V39H286.683ZM286.683 4V7H315.133V4V0.999998H286.683V4ZM315.133 4H312.133V12.9H315.133H318.133V4H315.133ZM315.133 12.9V9.9H298.283V12.9V15.9H315.133V12.9ZM298.283 12.9H295.283V30.1H298.283H301.283V12.9H298.283ZM316.526 39L313.777 37.7984L311.94 42H316.526V39ZM331.826 4V0.999998H329.863L329.077 2.79837L331.826 4ZM343.426 4L346.174 2.79837L345.388 0.999998H343.426V4ZM358.726 39V42H363.311L361.474 37.7984L358.726 39ZM346.526 39L343.725 40.0763L344.465 42H346.526V39ZM335.226 9.6V6.6H330.859L332.425 10.6763L335.226 9.6ZM339.826 9.6L342.626 10.6763L344.193 6.6H339.826V9.6ZM328.526 39V42H330.586L331.326 40.0763L328.526 39ZM325.626 32.9L322.797 31.9015L321.385 35.9H325.626V32.9ZM328.626 24.4V21.4H326.503L325.797 23.4015L328.626 24.4ZM344.726 24.4L347.555 23.4015L346.848 21.4H344.726V24.4ZM347.726 32.9V35.9H351.966L350.555 31.9015L347.726 32.9ZM316.526 39L319.274 40.2016L334.574 5.20163L331.826 4L329.077 2.79837L313.777 37.7984L316.526 39ZM331.826 4V7H343.426V4V0.999998H331.826V4ZM343.426 4L340.677 5.20163L355.977 40.2016L358.726 39L361.474 37.7984L346.174 2.79837L343.426 4ZM358.726 39V36H346.526V39V42H358.726V39ZM346.526 39L349.326 37.9237L338.026 8.5237L335.226 9.6L332.425 10.6763L343.725 40.0763L346.526 39ZM335.226 9.6V12.6H339.826V9.6V6.6H335.226V9.6ZM339.826 9.6L337.025 8.5237L325.725 37.9237L328.526 39L331.326 40.0763L342.626 10.6763L339.826 9.6ZM328.526 39V36H316.526V39V42H328.526V39ZM325.626 32.9L328.455 33.8985L331.455 25.3985L328.626 24.4L325.797 23.4015L322.797 31.9015L325.626 32.9ZM328.626 24.4V27.4H344.726V24.4V21.4H328.626V24.4ZM344.726 24.4L341.897 25.3985L344.897 33.8985L347.726 32.9L350.555 31.9015L347.555 23.4015L344.726 24.4ZM347.726 32.9V29.9H325.626V32.9V35.9H347.726V32.9ZM370.421 38.5L369.354 41.3041L369.378 41.3131L369.402 41.3217L370.421 38.5ZM364.221 34.7L362.163 36.8834L362.173 36.8931L362.184 36.9028L364.221 34.7ZM360.171 28.9L357.417 30.0917L360.171 28.9ZM360.171 14.1L357.417 12.9083L360.171 14.1ZM364.221 8.3L362.184 6.09718L362.173 6.10686L362.163 6.11663L364.221 8.3ZM370.421 4.55L371.452 7.36706L371.463 7.36306L371.474 7.35899L370.421 4.55ZM387.32 5L386.077 7.72991L386.083 7.73285L386.089 7.73577L387.32 5ZM393.921 10.2L395.918 12.4381L397.993 10.5864L396.304 8.37765L393.921 10.2ZM386.471 16.85L384.122 18.7167L386.099 21.2033L388.468 19.0881L386.471 16.85ZM383.021 13.85L381.487 16.4286L381.528 16.4528L381.569 16.4757L383.021 13.85ZM375.471 13.35L376.585 16.1354V16.1354L375.471 13.35ZM372.871 15.1L370.703 13.0263L370.679 13.0515L370.655 13.0772L372.871 15.1ZM371.221 17.9L374.03 18.9534L374.035 18.9393L374.04 18.9252L371.221 17.9ZM371.221 25.15L368.401 26.1752L368.406 26.1893L368.412 26.2034L371.221 25.15ZM372.871 27.9L370.655 29.9228L370.679 29.9485L370.703 29.9737L372.871 27.9ZM375.471 29.65L374.356 32.4354L375.471 29.65ZM383.021 29.2L384.501 31.8091L384.513 31.8027L384.524 31.7963L383.021 29.2ZM386.471 26.15L388.468 23.9119L386.099 21.7967L384.122 24.2833L386.471 26.15ZM393.921 32.8L396.29 34.6394L398.008 32.4269L395.918 30.5619L393.921 32.8ZM387.32 38L388.565 40.7299L388.572 40.7264L388.58 40.7229L387.32 38ZM378.221 39.8V36.8C375.734 36.8 373.482 36.4161 371.439 35.6783L370.421 38.5L369.402 41.3217C372.159 42.3173 375.107 42.8 378.221 42.8V39.8ZM370.421 38.5L371.487 35.6959C369.46 34.9251 367.727 33.8563 366.257 32.4972L364.221 34.7L362.184 36.9028C364.247 38.8103 366.648 40.2749 369.354 41.3041L370.421 38.5ZM364.221 34.7L366.278 32.5166C364.848 31.1693 363.732 29.5756 362.924 27.7083L360.171 28.9L357.417 30.0917C358.542 32.6911 360.126 34.964 362.163 36.8834L364.221 34.7ZM360.171 28.9L362.924 27.7083C362.137 25.8904 361.721 23.8351 361.721 21.5H358.721H355.721C355.721 24.5649 356.271 27.4429 357.417 30.0917L360.171 28.9ZM358.721 21.5H361.721C361.721 19.1649 362.137 17.1096 362.924 15.2917L360.171 14.1L357.417 12.9083C356.271 15.5571 355.721 18.4351 355.721 21.5H358.721ZM360.171 14.1L362.924 15.2917C363.732 13.4244 364.848 11.8307 366.278 10.4834L364.221 8.3L362.163 6.11663C360.126 8.03597 358.542 10.3089 357.417 12.9083L360.171 14.1ZM364.221 8.3L366.257 10.5028C367.719 9.15134 369.44 8.10398 371.452 7.36706L370.421 4.55L369.389 1.73294C366.668 2.72934 364.255 4.18199 362.184 6.09718L364.221 8.3ZM370.421 4.55L371.474 7.35899C373.507 6.59647 375.747 6.2 378.221 6.2V3.2V0.199999C375.094 0.199999 372.134 0.703525 369.367 1.74101L370.421 4.55ZM378.221 3.2V6.2C381.304 6.2 383.9 6.73797 386.077 7.72991L387.32 5L388.565 2.27009C385.475 0.862026 382.004 0.199999 378.221 0.199999V3.2ZM387.32 5L386.089 7.73577C388.314 8.73682 390.114 10.1611 391.537 12.0223L393.921 10.2L396.304 8.37765C394.26 5.70559 391.66 3.66317 388.552 2.26423L387.32 5ZM393.921 10.2L391.923 7.96192L384.473 14.6119L386.471 16.85L388.468 19.0881L395.918 12.4381L393.921 10.2ZM386.471 16.85L388.819 14.9833C387.576 13.4189 386.132 12.1418 384.472 11.2243L383.021 13.85L381.569 16.4757C382.443 16.9582 383.299 17.6811 384.122 18.7167L386.471 16.85ZM383.021 13.85L384.554 11.2714C382.814 10.2372 380.876 9.75 378.82 9.75V12.75V15.75C379.899 15.75 380.76 15.9961 381.487 16.4286L383.021 13.85ZM378.82 12.75V9.75C377.26 9.75 375.758 10.0038 374.356 10.5646L375.471 13.35L376.585 16.1354C377.183 15.8962 377.914 15.75 378.82 15.75V12.75ZM375.471 13.35L374.356 10.5646C372.965 11.1213 371.737 11.945 370.703 13.0263L372.871 15.1L375.038 17.1737C375.471 16.7216 375.977 16.3787 376.585 16.1354L375.471 13.35ZM372.871 15.1L370.655 13.0772C369.659 14.1684 368.918 15.4528 368.401 16.8748L371.221 17.9L374.04 18.9252C374.323 18.1472 374.682 17.565 375.086 17.1228L372.871 15.1ZM371.221 17.9L368.412 16.8466C367.866 18.3022 367.621 19.8671 367.621 21.5H370.621H373.621C373.621 20.4663 373.775 19.6311 374.03 18.9534L371.221 17.9ZM370.621 21.5H367.621C367.621 23.1349 367.866 24.7043 368.401 26.1752L371.221 25.15L374.04 24.1248C373.775 23.3957 373.621 22.5317 373.621 21.5H370.621ZM371.221 25.15L368.412 26.2034C368.933 27.5931 369.673 28.8475 370.655 29.9228L372.871 27.9L375.086 25.8772C374.668 25.4192 374.308 24.8402 374.03 24.0966L371.221 25.15ZM372.871 27.9L370.703 29.9737C371.737 31.055 372.965 31.8787 374.356 32.4354L375.471 29.65L376.585 26.8646C375.977 26.6213 375.471 26.2784 375.038 25.8263L372.871 27.9ZM375.471 29.65L374.356 32.4354C375.758 32.9962 377.26 33.25 378.82 33.25V30.25V27.25C377.914 27.25 377.183 27.1038 376.585 26.8646L375.471 29.65ZM378.82 30.25V33.25C380.851 33.25 382.77 32.7915 384.501 31.8091L383.021 29.2L381.54 26.5909C380.804 27.0085 379.924 27.25 378.82 27.25V30.25ZM383.021 29.2L384.524 31.7963C386.156 30.8512 387.583 29.5714 388.819 28.0167L386.471 26.15L384.122 24.2833C383.291 25.3286 382.418 26.0821 381.517 26.6037L383.021 29.2ZM386.471 26.15L384.473 28.3881L391.923 35.0381L393.921 32.8L395.918 30.5619L388.468 23.9119L386.471 26.15ZM393.921 32.8L391.551 30.9606C390.123 32.7998 388.31 34.237 386.061 35.2771L387.32 38L388.58 40.7229C391.664 39.2963 394.251 37.2669 396.29 34.6394L393.921 32.8ZM387.32 38L386.077 35.2701C383.9 36.262 381.304 36.8 378.221 36.8V39.8V42.8C382.004 42.8 385.475 42.138 388.565 40.7299L387.32 38ZM420.028 4V0.999998H417.028V4H420.028ZM431.828 4H434.828V0.999998H431.828V4ZM431.828 39V42H434.828V39H431.828ZM420.028 39H417.028V42H420.028V39ZM409.128 39V42H412.128V39H409.128ZM397.328 39H394.328V42H397.328V39ZM397.328 4V0.999998H394.328V4H397.328ZM409.128 4H412.128V0.999998H409.128V4ZM420.828 26.1V29.1H423.828V26.1H420.828ZM408.328 26.1H405.328V29.1H408.328V26.1ZM408.328 16.4V13.4H405.328V16.4H408.328ZM420.828 16.4H423.828V13.4H420.828V16.4ZM420.028 4V7H431.828V4V0.999998H420.028V4ZM431.828 4H428.828V39H431.828H434.828V4H431.828ZM431.828 39V36H420.028V39V42H431.828V39ZM420.028 39H423.028V4H420.028H417.028V39H420.028ZM409.128 39V36H397.328V39V42H409.128V39ZM397.328 39H400.328V4H397.328H394.328V39H397.328ZM397.328 4V7H409.128V4V0.999998H397.328V4ZM409.128 4H406.128V39H409.128H412.128V4H409.128ZM420.828 26.1V23.1H408.328V26.1V29.1H420.828V26.1ZM408.328 26.1H411.328V16.4H408.328H405.328V26.1H408.328ZM408.328 16.4V19.4H420.828V16.4V13.4H408.328V16.4ZM420.828 16.4H417.828V26.1H420.828H423.828V16.4H420.828Z" fill="url(#paint0_linear_436_10272)" mask="url(#path-1-outside-1_436_10272)"/>
<defs>
<linearGradient id="paint0_linear_436_10272" x1="217.5" y1="-9" x2="217.5" y2="52" gradientUnits="userSpaceOnUse">
<stop stop-color="#E51D25"/>
<stop offset="1" stop-color="#1D3A69"/>
</linearGradient>
</defs>
</svg>
