<svg width="573" height="43" viewBox="0 0 573 43" fill="none" xmlns="http://www.w3.org/2000/svg">
<mask id="path-1-outside-1_419_9637" maskUnits="userSpaceOnUse" x="0" y="0" width="573" height="43" fill="black">
<rect fill="white" width="573" height="43"/>
<path d="M3.85 39V4H20.7C23.9667 4 26.7833 4.53333 29.15 5.6C31.55 6.66666 33.4 8.2 34.7 10.2C36 12.1667 36.65 14.5 36.65 17.2C36.65 19.9 36 22.2333 34.7 24.2C33.4 26.1667 31.55 27.7 29.15 28.8C26.7833 29.8667 23.9667 30.4 20.7 30.4H10.4L15.65 25.35V39H3.85ZM15.65 26.65L10.4 21.3H19.95C21.5833 21.3 22.7833 20.9333 23.55 20.2C24.35 19.4667 24.75 18.4667 24.75 17.2C24.75 15.9333 24.35 14.9333 23.55 14.2C22.7833 13.4667 21.5833 13.1 19.95 13.1H10.4L15.65 7.75V26.65ZM34.9621 39L50.2621 4H61.8621L77.1621 39H64.9621L53.6621 9.6H58.2621L46.9621 39H34.9621ZM44.0621 32.9L47.0621 24.4H63.1621L66.1621 32.9H44.0621ZM96.657 39.8C93.857 39.8 91.257 39.3667 88.857 38.5C86.4904 37.6 84.4237 36.3333 82.657 34.7C80.9237 33.0667 79.5737 31.1333 78.607 28.9C77.6404 26.6667 77.157 24.2 77.157 21.5C77.157 18.8 77.6404 16.3333 78.607 14.1C79.5737 11.8667 80.9237 9.93333 82.657 8.3C84.4237 6.66666 86.4904 5.41666 88.857 4.55C91.257 3.65 93.857 3.2 96.657 3.2C100.09 3.2 103.124 3.8 105.757 5C108.424 6.2 110.624 7.93333 112.357 10.2L104.907 16.85C103.874 15.55 102.724 14.55 101.457 13.85C100.224 13.1167 98.8237 12.75 97.257 12.75C96.0237 12.75 94.907 12.95 93.907 13.35C92.907 13.75 92.0404 14.3333 91.307 15.1C90.607 15.8667 90.057 16.8 89.657 17.9C89.257 18.9667 89.057 20.1667 89.057 21.5C89.057 22.8333 89.257 24.05 89.657 25.15C90.057 26.2167 90.607 27.1333 91.307 27.9C92.0404 28.6667 92.907 29.25 93.907 29.65C94.907 30.05 96.0237 30.25 97.257 30.25C98.8237 30.25 100.224 29.9 101.457 29.2C102.724 28.4667 103.874 27.45 104.907 26.15L112.357 32.8C110.624 35.0333 108.424 36.7667 105.757 38C103.124 39.2 100.09 39.8 96.657 39.8ZM126.564 17H142.164V25.5H126.564V17ZM127.364 30.1H144.864V39H115.764V4H144.214V12.9H127.364V30.1ZM149.407 39V4H166.257C169.523 4 172.34 4.53333 174.707 5.6C177.107 6.66666 178.957 8.2 180.257 10.2C181.557 12.1667 182.207 14.5 182.207 17.2C182.207 19.9 181.557 22.2333 180.257 24.2C178.957 26.1333 177.107 27.6167 174.707 28.65C172.34 29.6833 169.523 30.2 166.257 30.2H155.957L161.207 25.35V39H149.407ZM170.357 39L161.757 26.25H174.257L182.957 39H170.357ZM161.207 26.65L155.957 21.3H165.507C167.14 21.3 168.34 20.9333 169.107 20.2C169.907 19.4667 170.307 18.4667 170.307 17.2C170.307 15.9333 169.907 14.9333 169.107 14.2C168.34 13.4667 167.14 13.1 165.507 13.1H155.957L161.207 7.75V26.65ZM199.713 39.8C196.779 39.8 193.946 39.4667 191.213 38.8C188.479 38.1333 186.229 37.2667 184.463 36.2L188.263 27.6C189.929 28.5667 191.779 29.35 193.813 29.95C195.879 30.5167 197.879 30.8 199.813 30.8C200.946 30.8 201.829 30.7333 202.463 30.6C203.129 30.4333 203.613 30.2167 203.913 29.95C204.213 29.65 204.363 29.3 204.363 28.9C204.363 28.2667 204.013 27.7667 203.313 27.4C202.613 27.0333 201.679 26.7333 200.513 26.5C199.379 26.2333 198.129 25.9667 196.763 25.7C195.396 25.4 194.013 25.0167 192.613 24.55C191.246 24.0833 189.979 23.4667 188.813 22.7C187.679 21.9333 186.763 20.9333 186.063 19.7C185.363 18.4333 185.013 16.8667 185.013 15C185.013 12.8333 185.613 10.8667 186.813 9.1C188.046 7.3 189.863 5.86667 192.263 4.8C194.696 3.73333 197.713 3.2 201.313 3.2C203.679 3.2 206.013 3.45 208.313 3.95C210.613 4.45 212.679 5.21666 214.513 6.25L210.963 14.8C209.229 13.9333 207.546 13.2833 205.913 12.85C204.313 12.4167 202.746 12.2 201.213 12.2C200.079 12.2 199.179 12.3 198.512 12.5C197.846 12.7 197.363 12.9667 197.063 13.3C196.796 13.6333 196.662 14 196.662 14.4C196.662 15 197.013 15.4833 197.713 15.85C198.413 16.1833 199.329 16.4667 200.463 16.7C201.629 16.9333 202.896 17.1833 204.263 17.45C205.663 17.7167 207.046 18.0833 208.413 18.55C209.779 19.0167 211.029 19.6333 212.163 20.4C213.329 21.1667 214.263 22.1667 214.963 23.4C215.663 24.6333 216.013 26.1667 216.013 28C216.013 30.1333 215.396 32.1 214.163 33.9C212.963 35.6667 211.163 37.1 208.763 38.2C206.363 39.2667 203.346 39.8 199.713 39.8ZM233.914 28.8V20.3H248.914V28.8H233.914ZM282.037 39.8C279.103 39.8 276.27 39.4667 273.537 38.8C270.803 38.1333 268.553 37.2667 266.787 36.2L270.587 27.6C272.253 28.5667 274.103 29.35 276.137 29.95C278.203 30.5167 280.203 30.8 282.137 30.8C283.27 30.8 284.153 30.7333 284.787 30.6C285.453 30.4333 285.937 30.2167 286.237 29.95C286.537 29.65 286.687 29.3 286.687 28.9C286.687 28.2667 286.337 27.7667 285.637 27.4C284.937 27.0333 284.003 26.7333 282.837 26.5C281.703 26.2333 280.453 25.9667 279.087 25.7C277.72 25.4 276.337 25.0167 274.937 24.55C273.57 24.0833 272.303 23.4667 271.137 22.7C270.003 21.9333 269.087 20.9333 268.387 19.7C267.687 18.4333 267.337 16.8667 267.337 15C267.337 12.8333 267.937 10.8667 269.137 9.1C270.37 7.3 272.187 5.86667 274.587 4.8C277.02 3.73333 280.037 3.2 283.637 3.2C286.003 3.2 288.337 3.45 290.637 3.95C292.937 4.45 295.003 5.21666 296.837 6.25L293.287 14.8C291.553 13.9333 289.87 13.2833 288.237 12.85C286.637 12.4167 285.07 12.2 283.537 12.2C282.403 12.2 281.503 12.3 280.837 12.5C280.17 12.7 279.687 12.9667 279.387 13.3C279.12 13.6333 278.987 14 278.987 14.4C278.987 15 279.337 15.4833 280.037 15.85C280.737 16.1833 281.653 16.4667 282.787 16.7C283.953 16.9333 285.22 17.1833 286.587 17.45C287.987 17.7167 289.37 18.0833 290.737 18.55C292.103 19.0167 293.353 19.6333 294.487 20.4C295.653 21.1667 296.587 22.1667 297.287 23.4C297.987 24.6333 298.337 26.1667 298.337 28C298.337 30.1333 297.72 32.1 296.487 33.9C295.287 35.6667 293.487 37.1 291.087 38.2C288.687 39.2667 285.67 39.8 282.037 39.8ZM324.548 4H336.348V39H324.548V4ZM313.648 39H301.848V4H313.648V39ZM325.348 26.1H312.848V16.4H325.348V26.1ZM352.834 17H368.434V25.5H352.834V17ZM353.634 30.1H371.134V39H342.034V4H370.484V12.9H353.634V30.1ZM388.726 39.8C385.793 39.8 382.96 39.4667 380.226 38.8C377.493 38.1333 375.243 37.2667 373.476 36.2L377.276 27.6C378.943 28.5667 380.793 29.35 382.826 29.95C384.893 30.5167 386.893 30.8 388.826 30.8C389.96 30.8 390.843 30.7333 391.476 30.6C392.143 30.4333 392.626 30.2167 392.926 29.95C393.226 29.65 393.376 29.3 393.376 28.9C393.376 28.2667 393.026 27.7667 392.326 27.4C391.626 27.0333 390.693 26.7333 389.526 26.5C388.393 26.2333 387.143 25.9667 385.776 25.7C384.41 25.4 383.026 25.0167 381.626 24.55C380.26 24.0833 378.993 23.4667 377.826 22.7C376.693 21.9333 375.776 20.9333 375.076 19.7C374.376 18.4333 374.026 16.8667 374.026 15C374.026 12.8333 374.626 10.8667 375.826 9.1C377.06 7.3 378.876 5.86667 381.276 4.8C383.71 3.73333 386.726 3.2 390.326 3.2C392.693 3.2 395.026 3.45 397.326 3.95C399.626 4.45 401.693 5.21666 403.526 6.25L399.976 14.8C398.243 13.9333 396.56 13.2833 394.926 12.85C393.326 12.4167 391.76 12.2 390.226 12.2C389.093 12.2 388.193 12.3 387.526 12.5C386.86 12.7 386.376 12.9667 386.076 13.3C385.81 13.6333 385.676 14 385.676 14.4C385.676 15 386.026 15.4833 386.726 15.85C387.426 16.1833 388.343 16.4667 389.476 16.7C390.643 16.9333 391.91 17.1833 393.276 17.45C394.676 17.7167 396.06 18.0833 397.426 18.55C398.793 19.0167 400.043 19.6333 401.176 20.4C402.343 21.1667 403.276 22.1667 403.976 23.4C404.676 24.6333 405.026 26.1667 405.026 28C405.026 30.1333 404.41 32.1 403.176 33.9C401.976 35.6667 400.176 37.1 397.776 38.2C395.376 39.2667 392.36 39.8 388.726 39.8ZM431.238 4H443.038V39H431.238V4ZM420.338 39H408.538V4H420.338V39ZM432.038 26.1H419.538V16.4H432.038V26.1ZM444.923 39L460.223 4H471.823L487.123 39H474.923L463.623 9.6H468.223L456.923 39H444.923ZM454.023 32.9L457.023 24.4H473.123L476.123 32.9H454.023ZM499.556 31.5L498.906 18.55L512.106 4H524.956L510.156 20.3L503.606 27L499.556 31.5ZM489.006 39V4H500.606V39H489.006ZM512.006 39L501.706 25.4L509.356 17.3L525.656 39H512.006ZM532.104 39V13.15H521.854V4H554.154V13.15H543.904V39H532.104ZM557.219 39V4H569.019V39H557.219Z"/>
</mask>
<path d="M3.85 39H0.85V42H3.85V39ZM3.85 4V0.999998H0.85V4H3.85ZM29.15 5.6L27.9173 8.33504L27.9244 8.33825L27.9316 8.34143L29.15 5.6ZM34.7 10.2L32.1847 11.835L32.191 11.8447L32.1973 11.8543L34.7 10.2ZM34.7 24.2L32.1973 22.5457V22.5457L34.7 24.2ZM29.15 28.8L30.3827 31.535L30.3913 31.5311L30.4 31.5272L29.15 28.8ZM10.4 30.4L8.32026 28.2379L2.95372 33.4H10.4V30.4ZM15.65 25.35H18.65V18.3017L13.5703 23.1879L15.65 25.35ZM15.65 39V42H18.65V39H15.65ZM15.65 26.65L13.5088 28.7512L18.65 33.9904V26.65H15.65ZM10.4 21.3V18.3H3.2529L8.25876 23.4012L10.4 21.3ZM23.55 20.2L21.5228 17.9885L21.4993 18.0101L21.4763 18.0321L23.55 20.2ZM23.55 14.2L21.4763 16.3679L21.4993 16.3899L21.5228 16.4115L23.55 14.2ZM10.4 13.1L8.25876 10.9988L3.2529 16.1H10.4V13.1ZM15.65 7.75H18.65V0.40962L13.5088 5.64879L15.65 7.75ZM3.85 39H6.85V4H3.85H0.85V39H3.85ZM3.85 4V7H20.7V4V0.999998H3.85V4ZM20.7 4V7C23.648 7 26.0246 7.48198 27.9173 8.33504L29.15 5.6L30.3827 2.86495C27.5421 1.58468 24.2854 0.999998 20.7 0.999998V4ZM29.15 5.6L27.9316 8.34143C29.857 9.19717 31.2325 10.3701 32.1847 11.835L34.7 10.2L37.2153 8.56503C35.5675 6.02991 33.243 4.13616 30.3684 2.85856L29.15 5.6ZM34.7 10.2L32.1973 11.8543C33.1277 13.2617 33.65 15.0004 33.65 17.2H36.65H39.65C39.65 13.9996 38.8723 11.0716 37.2027 8.5457L34.7 10.2ZM36.65 17.2H33.65C33.65 19.3996 33.1277 21.1383 32.1973 22.5457L34.7 24.2L37.2027 25.8543C38.8723 23.3284 39.65 20.4004 39.65 17.2H36.65ZM34.7 24.2L32.1973 22.5457C31.2425 23.9902 29.8533 25.1776 27.9 26.0728L29.15 28.8L30.4 31.5272C33.2467 30.2224 35.5575 28.3431 37.2027 25.8543L34.7 24.2ZM29.15 28.8L27.9173 26.065C26.0246 26.918 23.648 27.4 20.7 27.4V30.4V33.4C24.2854 33.4 27.5421 32.8153 30.3827 31.535L29.15 28.8ZM20.7 30.4V27.4H10.4V30.4V33.4H20.7V30.4ZM10.4 30.4L12.4797 32.5621L17.7297 27.5121L15.65 25.35L13.5703 23.1879L8.32026 28.2379L10.4 30.4ZM15.65 25.35H12.65V39H15.65H18.65V25.35H15.65ZM15.65 39V36H3.85V39V42H15.65V39ZM15.65 26.65L17.7912 24.5488L12.5412 19.1988L10.4 21.3L8.25876 23.4012L13.5088 28.7512L15.65 26.65ZM10.4 21.3V24.3H19.95V21.3V18.3H10.4V21.3ZM19.95 21.3V24.3C21.951 24.3 24.0622 23.8615 25.6237 22.3679L23.55 20.2L21.4763 18.0321C21.5045 18.0052 21.2157 18.3 19.95 18.3V21.3ZM23.55 20.2L25.5772 22.4115C27.1021 21.0136 27.75 19.1537 27.75 17.2H24.75H21.75C21.75 17.7797 21.5979 17.9197 21.5228 17.9885L23.55 20.2ZM24.75 17.2H27.75C27.75 15.2463 27.1021 13.3864 25.5772 11.9885L23.55 14.2L21.5228 16.4115C21.5979 16.4803 21.75 16.6203 21.75 17.2H24.75ZM23.55 14.2L25.6237 12.0321C24.0622 10.5385 21.951 10.1 19.95 10.1V13.1V16.1C21.2157 16.1 21.5045 16.3948 21.4763 16.3679L23.55 14.2ZM19.95 13.1V10.1H10.4V13.1V16.1H19.95V13.1ZM10.4 13.1L12.5412 15.2012L17.7912 9.85122L15.65 7.75L13.5088 5.64879L8.25876 10.9988L10.4 13.1ZM15.65 7.75H12.65V26.65H15.65H18.65V7.75H15.65ZM34.9621 39L32.2133 37.7984L30.3766 42H34.9621V39ZM50.2621 4V0.999998H48.2994L47.5133 2.79837L50.2621 4ZM61.8621 4L64.6109 2.79837L63.8248 0.999998H61.8621V4ZM77.1621 39V42H81.7477L79.9109 37.7984L77.1621 39ZM64.9621 39L62.1618 40.0763L62.9012 42H64.9621V39ZM53.6621 9.6V6.6H49.2951L50.8618 10.6763L53.6621 9.6ZM58.2621 9.6L61.0624 10.6763L62.6291 6.6H58.2621V9.6ZM46.9621 39V42H49.023L49.7624 40.0763L46.9621 39ZM44.0621 32.9L41.2331 31.9015L39.8219 35.9H44.0621V32.9ZM47.0621 24.4V21.4H44.9396L44.2331 23.4015L47.0621 24.4ZM63.1621 24.4L65.9911 23.4015L65.2847 21.4H63.1621V24.4ZM66.1621 32.9V35.9H70.4023L68.9911 31.9015L66.1621 32.9ZM34.9621 39L37.7109 40.2016L53.0109 5.20163L50.2621 4L47.5133 2.79837L32.2133 37.7984L34.9621 39ZM50.2621 4V7H61.8621V4V0.999998H50.2621V4ZM61.8621 4L59.1133 5.20163L74.4133 40.2016L77.1621 39L79.9109 37.7984L64.6109 2.79837L61.8621 4ZM77.1621 39V36H64.9621V39V42H77.1621V39ZM64.9621 39L67.7624 37.9237L56.4624 8.5237L53.6621 9.6L50.8618 10.6763L62.1618 40.0763L64.9621 39ZM53.6621 9.6V12.6H58.2621V9.6V6.6H53.6621V9.6ZM58.2621 9.6L55.4618 8.5237L44.1618 37.9237L46.9621 39L49.7624 40.0763L61.0624 10.6763L58.2621 9.6ZM46.9621 39V36H34.9621V39V42H46.9621V39ZM44.0621 32.9L46.8911 33.8985L49.8911 25.3985L47.0621 24.4L44.2331 23.4015L41.2331 31.9015L44.0621 32.9ZM47.0621 24.4V27.4H63.1621V24.4V21.4H47.0621V24.4ZM63.1621 24.4L60.3331 25.3985L63.3331 33.8985L66.1621 32.9L68.9911 31.9015L65.9911 23.4015L63.1621 24.4ZM66.1621 32.9V29.9H44.0621V32.9V35.9H66.1621V32.9ZM88.857 38.5L87.7907 41.3041L87.8143 41.3131L87.8381 41.3217L88.857 38.5ZM82.657 34.7L80.5996 36.8834L80.61 36.8931L80.6205 36.9028L82.657 34.7ZM78.607 28.9L75.8539 30.0917L78.607 28.9ZM78.607 14.1L75.8539 12.9083L78.607 14.1ZM82.657 8.3L80.6205 6.09718L80.61 6.10686L80.5996 6.11663L82.657 8.3ZM88.857 4.55L89.8886 7.36706L89.8995 7.36306L89.9104 7.35899L88.857 4.55ZM105.757 5L104.513 7.72991L104.519 7.73285L104.526 7.73577L105.757 5ZM112.357 10.2L114.355 12.4381L116.429 10.5864L114.74 8.37765L112.357 10.2ZM104.907 16.85L102.559 18.7167L104.535 21.2033L106.905 19.0881L104.907 16.85ZM101.457 13.85L99.9238 16.4286L99.9645 16.4528L100.006 16.4757L101.457 13.85ZM93.907 13.35L95.0212 16.1354L95.0212 16.1354L93.907 13.35ZM91.307 15.1L89.1391 13.0263L89.115 13.0515L89.0916 13.0772L91.307 15.1ZM89.657 17.9L92.466 18.9534L92.4713 18.9393L92.4764 18.9252L89.657 17.9ZM89.657 25.15L86.8377 26.1752L86.8428 26.1893L86.848 26.2034L89.657 25.15ZM91.307 27.9L89.0916 29.9228L89.115 29.9485L89.1391 29.9737L91.307 27.9ZM93.907 29.65L92.7929 32.4354L93.907 29.65ZM101.457 29.2L102.938 31.8091L102.949 31.8027L102.96 31.7963L101.457 29.2ZM104.907 26.15L106.905 23.9119L104.535 21.7967L102.559 24.2833L104.907 26.15ZM112.357 32.8L114.727 34.6394L116.444 32.4269L114.355 30.5619L112.357 32.8ZM105.757 38L107.001 40.7299L107.009 40.7264L107.016 40.7229L105.757 38ZM96.657 39.8V36.8C94.1707 36.8 91.9189 36.4161 89.876 35.6783L88.857 38.5L87.8381 41.3217C90.5952 42.3173 93.5434 42.8 96.657 42.8V39.8ZM88.857 38.5L89.9234 35.6959C87.8965 34.9251 86.1637 33.8563 84.6936 32.4972L82.657 34.7L80.6205 36.9028C82.6837 38.8103 85.0842 40.2749 87.7907 41.3041L88.857 38.5ZM82.657 34.7L84.7144 32.5166C83.2846 31.1693 82.1684 29.5756 81.3602 27.7083L78.607 28.9L75.8539 30.0917C76.979 32.6911 78.5628 34.964 80.5996 36.8834L82.657 34.7ZM78.607 28.9L81.3602 27.7083C80.5733 25.8904 80.157 23.8351 80.157 21.5H77.157H74.157C74.157 24.5649 74.7074 27.4429 75.8539 30.0917L78.607 28.9ZM77.157 21.5H80.157C80.157 19.1649 80.5733 17.1096 81.3602 15.2917L78.607 14.1L75.8539 12.9083C74.7074 15.5571 74.157 18.4351 74.157 21.5H77.157ZM78.607 14.1L81.3602 15.2917C82.1684 13.4244 83.2846 11.8307 84.7144 10.4834L82.657 8.3L80.5996 6.11663C78.5628 8.03597 76.979 10.3089 75.8539 12.9083L78.607 14.1ZM82.657 8.3L84.6936 10.5028C86.1554 9.15134 87.8762 8.10398 89.8886 7.36706L88.857 4.55L87.8254 1.73294C85.1045 2.72934 82.692 4.18199 80.6205 6.09718L82.657 8.3ZM88.857 4.55L89.9104 7.35899C91.9438 6.59647 94.1835 6.2 96.657 6.2V3.2V0.199999C93.5306 0.199999 90.5703 0.703525 87.8037 1.74101L88.857 4.55ZM96.657 3.2V6.2C99.7401 6.2 102.336 6.73797 104.513 7.72991L105.757 5L107.001 2.27009C103.911 0.862026 100.441 0.199999 96.657 0.199999V3.2ZM105.757 5L104.526 7.73577C106.751 8.73682 108.551 10.1611 109.974 12.0223L112.357 10.2L114.74 8.37765C112.697 5.70559 110.097 3.66317 106.988 2.26423L105.757 5ZM112.357 10.2L110.359 7.96192L102.909 14.6119L104.907 16.85L106.905 19.0881L114.355 12.4381L112.357 10.2ZM104.907 16.85L107.256 14.9833C106.012 13.4189 104.568 12.1418 102.908 11.2243L101.457 13.85L100.006 16.4757C100.879 16.9582 101.735 17.6811 102.559 18.7167L104.907 16.85ZM101.457 13.85L102.99 11.2714C101.251 10.2372 99.3122 9.75 97.257 9.75V12.75V15.75C98.3352 15.75 99.1964 15.9961 99.9238 16.4286L101.457 13.85ZM97.257 12.75V9.75C95.6969 9.75 94.1948 10.0038 92.7929 10.5646L93.907 13.35L95.0212 16.1354C95.6192 15.8962 96.3505 15.75 97.257 15.75V12.75ZM93.907 13.35L92.7929 10.5646C91.401 11.1213 90.1734 11.945 89.1391 13.0263L91.307 15.1L93.475 17.1737C93.9073 16.7216 94.413 16.3787 95.0212 16.1354L93.907 13.35ZM91.307 15.1L89.0916 13.0772C88.0953 14.1684 87.3547 15.4528 86.8377 16.8748L89.657 17.9L92.4764 18.9252C92.7593 18.1472 93.1188 17.565 93.5225 17.1228L91.307 15.1ZM89.657 17.9L86.848 16.8466C86.3022 18.3022 86.057 19.8671 86.057 21.5H89.057H92.057C92.057 20.4663 92.2119 19.6311 92.466 18.9534L89.657 17.9ZM89.057 21.5H86.057C86.057 23.1349 86.3028 24.7043 86.8377 26.1752L89.657 25.15L92.4764 24.1248C92.2113 23.3957 92.057 22.5317 92.057 21.5H89.057ZM89.657 25.15L86.848 26.2034C87.3692 27.5931 88.1097 28.8475 89.0916 29.9228L91.307 27.9L93.5225 25.8772C93.1043 25.4192 92.7449 24.8402 92.466 24.0966L89.657 25.15ZM91.307 27.9L89.1391 29.9737C90.1734 31.055 91.401 31.8787 92.7929 32.4354L93.907 29.65L95.0212 26.8646C94.413 26.6213 93.9073 26.2784 93.475 25.8263L91.307 27.9ZM93.907 29.65L92.7929 32.4354C94.1948 32.9962 95.6969 33.25 97.257 33.25V30.25V27.25C96.3505 27.25 95.6192 27.1038 95.0212 26.8646L93.907 29.65ZM97.257 30.25V33.25C99.2871 33.25 101.207 32.7915 102.938 31.8091L101.457 29.2L99.9762 26.5909C99.2404 27.0085 98.3603 27.25 97.257 27.25V30.25ZM101.457 29.2L102.96 31.7963C104.593 30.8512 106.02 29.5714 107.256 28.0167L104.907 26.15L102.559 24.2833C101.728 25.3286 100.855 26.0821 99.9539 26.6037L101.457 29.2ZM104.907 26.15L102.909 28.3881L110.359 35.0381L112.357 32.8L114.355 30.5619L106.905 23.9119L104.907 26.15ZM112.357 32.8L109.987 30.9606C108.56 32.7998 106.747 34.237 104.498 35.2771L105.757 38L107.016 40.7229C110.101 39.2963 112.688 37.2669 114.727 34.6394L112.357 32.8ZM105.757 38L104.513 35.2701C102.336 36.262 99.7401 36.8 96.657 36.8V39.8V42.8C100.441 42.8 103.911 42.138 107.001 40.7299L105.757 38ZM126.564 17V14H123.564V17H126.564ZM142.164 17H145.164V14H142.164V17ZM142.164 25.5V28.5H145.164V25.5H142.164ZM126.564 25.5H123.564V28.5H126.564V25.5ZM127.364 30.1H124.364V33.1H127.364V30.1ZM144.864 30.1H147.864V27.1H144.864V30.1ZM144.864 39V42H147.864V39H144.864ZM115.764 39H112.764V42H115.764V39ZM115.764 4V0.999998H112.764V4H115.764ZM144.214 4H147.214V0.999998H144.214V4ZM144.214 12.9V15.9H147.214V12.9H144.214ZM127.364 12.9V9.9H124.364V12.9H127.364ZM126.564 17V20H142.164V17V14H126.564V17ZM142.164 17H139.164V25.5H142.164H145.164V17H142.164ZM142.164 25.5V22.5H126.564V25.5V28.5H142.164V25.5ZM126.564 25.5H129.564V17H126.564H123.564V25.5H126.564ZM127.364 30.1V33.1H144.864V30.1V27.1H127.364V30.1ZM144.864 30.1H141.864V39H144.864H147.864V30.1H144.864ZM144.864 39V36H115.764V39V42H144.864V39ZM115.764 39H118.764V4H115.764H112.764V39H115.764ZM115.764 4V7H144.214V4V0.999998H115.764V4ZM144.214 4H141.214V12.9H144.214H147.214V4H144.214ZM144.214 12.9V9.9H127.364V12.9V15.9H144.214V12.9ZM127.364 12.9H124.364V30.1H127.364H130.364V12.9H127.364ZM149.407 39H146.407V42H149.407V39ZM149.407 4V0.999998H146.407V4H149.407ZM174.707 5.6L173.474 8.33504L173.481 8.33825L173.488 8.34143L174.707 5.6ZM180.257 10.2L177.741 11.835L177.748 11.8447L177.754 11.8543L180.257 10.2ZM180.257 24.2L182.746 25.874L182.753 25.8642L182.759 25.8543L180.257 24.2ZM174.707 28.65L173.52 25.8945L173.513 25.8976L173.506 25.9006L174.707 28.65ZM155.957 30.2L153.921 27.9964L148.288 33.2H155.957V30.2ZM161.207 25.35H164.207V18.4944L159.171 23.1464L161.207 25.35ZM161.207 39V42H164.207V39H161.207ZM170.357 39L167.87 40.6776L168.762 42H170.357V39ZM161.757 26.25V23.25H156.114L159.27 27.9276L161.757 26.25ZM174.257 26.25L176.735 24.5591L175.841 23.25H174.257V26.25ZM182.957 39V42H188.636L185.435 37.3091L182.957 39ZM161.207 26.65L159.065 28.7512L164.207 33.9904V26.65H161.207ZM155.957 21.3V18.3H148.81L153.815 23.4012L155.957 21.3ZM169.107 20.2L167.079 17.9885L167.056 18.0101L167.033 18.0321L169.107 20.2ZM169.107 14.2L167.033 16.3679L167.056 16.3899L167.079 16.4115L169.107 14.2ZM155.957 13.1L153.815 10.9988L148.81 16.1H155.957V13.1ZM161.207 7.75H164.207V0.40962L159.065 5.64879L161.207 7.75ZM149.407 39H152.407V4H149.407H146.407V39H149.407ZM149.407 4V7H166.257V4V0.999998H149.407V4ZM166.257 4V7C169.205 7 171.581 7.48198 173.474 8.33504L174.707 5.6L175.939 2.86495C173.099 1.58468 169.842 0.999998 166.257 0.999998V4ZM174.707 5.6L173.488 8.34143C175.414 9.19717 176.789 10.3701 177.741 11.835L180.257 10.2L182.772 8.56503C181.124 6.02991 178.8 4.13616 175.925 2.85856L174.707 5.6ZM180.257 10.2L177.754 11.8543C178.684 13.2617 179.207 15.0004 179.207 17.2H182.207H185.207C185.207 13.9996 184.429 11.0716 182.759 8.5457L180.257 10.2ZM182.207 17.2H179.207C179.207 19.3996 178.684 21.1383 177.754 22.5457L180.257 24.2L182.759 25.8543C184.429 23.3284 185.207 20.4004 185.207 17.2H182.207ZM180.257 24.2L177.767 22.526C176.827 23.9245 175.457 25.0605 173.52 25.8945L174.707 28.65L175.893 31.4055C178.756 30.1728 181.087 28.3421 182.746 25.874L180.257 24.2ZM174.707 28.65L173.506 25.9006C171.604 26.7311 169.216 27.2 166.257 27.2V30.2V33.2C169.831 33.2 173.076 32.6356 175.907 31.3994L174.707 28.65ZM166.257 30.2V27.2H155.957V30.2V33.2H166.257V30.2ZM155.957 30.2L157.992 32.4036L163.242 27.5536L161.207 25.35L159.171 23.1464L153.921 27.9964L155.957 30.2ZM161.207 25.35H158.207V39H161.207H164.207V25.35H161.207ZM161.207 39V36H149.407V39V42H161.207V39ZM170.357 39L172.844 37.3224L164.244 24.5724L161.757 26.25L159.27 27.9276L167.87 40.6776L170.357 39ZM161.757 26.25V29.25H174.257V26.25V23.25H161.757V26.25ZM174.257 26.25L171.779 27.9409L180.479 40.6909L182.957 39L185.435 37.3091L176.735 24.5591L174.257 26.25ZM182.957 39V36H170.357V39V42H182.957V39ZM161.207 26.65L163.348 24.5488L158.098 19.1988L155.957 21.3L153.815 23.4012L159.065 28.7512L161.207 26.65ZM155.957 21.3V24.3H165.507V21.3V18.3H155.957V21.3ZM165.507 21.3V24.3C167.508 24.3 169.619 23.8615 171.18 22.3679L169.107 20.2L167.033 18.0321C167.061 18.0052 166.772 18.3 165.507 18.3V21.3ZM169.107 20.2L171.134 22.4115C172.659 21.0136 173.307 19.1537 173.307 17.2H170.307H167.307C167.307 17.7797 167.155 17.9197 167.079 17.9885L169.107 20.2ZM170.307 17.2H173.307C173.307 15.2463 172.659 13.3864 171.134 11.9885L169.107 14.2L167.079 16.4115C167.155 16.4803 167.307 16.6203 167.307 17.2H170.307ZM169.107 14.2L171.18 12.0321C169.619 10.5385 167.508 10.1 165.507 10.1V13.1V16.1C166.772 16.1 167.061 16.3948 167.033 16.3679L169.107 14.2ZM165.507 13.1V10.1H155.957V13.1V16.1H165.507V13.1ZM155.957 13.1L158.098 15.2012L163.348 9.85122L161.207 7.75L159.065 5.64879L153.815 10.9988L155.957 13.1ZM161.207 7.75H158.207V26.65H161.207H164.207V7.75H161.207ZM191.212 38.8L191.923 35.8854L191.212 38.8ZM184.462 36.2L181.718 34.9875L180.651 37.4032L182.912 38.7682L184.462 36.2ZM188.262 27.6L189.768 25.0049L186.872 23.3252L185.518 26.3875L188.262 27.6ZM193.812 29.95L192.963 32.8273L192.991 32.8355L193.019 32.8432L193.812 29.95ZM202.462 30.6L203.081 33.5356L203.136 33.5241L203.19 33.5104L202.462 30.6ZM203.913 29.95L205.906 32.1922L205.971 32.1337L206.034 32.0713L203.913 29.95ZM203.312 27.4L201.92 30.0575L203.312 27.4ZM200.512 26.5L199.825 29.4202L199.875 29.4318L199.924 29.4417L200.512 26.5ZM196.762 25.7L196.119 28.6302L196.154 28.6378L196.188 28.6445L196.762 25.7ZM192.613 24.55L191.643 27.389L191.653 27.3926L191.664 27.396L192.613 24.55ZM188.812 22.7L187.132 25.1848L187.148 25.1961L187.165 25.2071L188.812 22.7ZM186.062 19.7L183.437 21.1511L183.445 21.166L183.453 21.1808L186.062 19.7ZM186.812 9.1L184.338 7.40429L184.331 7.41435L186.812 9.1ZM192.262 4.8L191.058 2.05239L191.051 2.05546L191.044 2.05856L192.262 4.8ZM208.312 3.95L207.675 6.88153L208.312 3.95ZM214.512 6.25L217.283 7.40039L218.303 4.94302L215.986 3.63654L214.512 6.25ZM210.963 14.8L209.621 17.4833L212.499 18.9224L213.733 15.9504L210.963 14.8ZM205.913 12.85L205.128 15.7457L205.136 15.7477L205.143 15.7497L205.913 12.85ZM198.512 12.5L197.65 9.62652L198.512 12.5ZM197.062 13.3L194.833 11.2931L194.774 11.3579L194.72 11.4259L197.062 13.3ZM197.712 15.85L196.32 18.5075L196.371 18.534L196.423 18.5586L197.712 15.85ZM200.462 16.7L199.858 19.6384L199.866 19.6401L199.874 19.6417L200.462 16.7ZM204.262 17.45L203.688 20.3945L203.701 20.397L204.262 17.45ZM208.413 18.55L207.443 21.389L208.413 18.55ZM212.163 20.4L210.482 22.8848L210.498 22.8961L210.515 22.9071L212.163 20.4ZM214.962 23.4L212.353 24.8808V24.8808L214.962 23.4ZM214.163 33.9L211.688 32.2043L211.681 32.2144L214.163 33.9ZM208.762 38.2L209.981 40.9414L209.997 40.9344L210.012 40.9272L208.762 38.2ZM199.712 39.8V36.8C197.008 36.8 194.414 36.493 191.923 35.8854L191.212 38.8L190.502 41.7146C193.477 42.4403 196.55 42.8 199.712 42.8V39.8ZM191.212 38.8L191.923 35.8854C189.386 35.2666 187.444 34.4956 186.013 33.6318L184.462 36.2L182.912 38.7682C185.015 40.0377 187.572 41 190.502 41.7146L191.212 38.8ZM184.462 36.2L187.207 37.4125L191.007 28.8125L188.262 27.6L185.518 26.3875L181.718 34.9875L184.462 36.2ZM188.262 27.6L186.757 30.1951C188.65 31.2929 190.724 32.1664 192.963 32.8273L193.812 29.95L194.662 27.0727C192.835 26.5336 191.208 25.8404 189.768 25.0049L188.262 27.6ZM193.812 29.95L193.019 32.8432C195.317 33.4732 197.584 33.8 199.812 33.8V30.8V27.8C198.174 27.8 196.442 27.5602 194.606 27.0568L193.812 29.95ZM199.812 30.8V33.8C201.024 33.8 202.147 33.7321 203.081 33.5356L202.462 30.6L201.844 27.6643C201.511 27.7346 200.868 27.8 199.812 27.8V30.8ZM202.462 30.6L203.19 33.5104C204.035 33.2991 205.072 32.9334 205.906 32.1922L203.913 29.95L201.919 27.7078C201.992 27.6436 202.049 27.6054 202.078 27.5875C202.107 27.5695 202.116 27.5667 202.098 27.575C202.08 27.583 202.042 27.5988 201.979 27.6196C201.917 27.6403 201.837 27.6641 201.735 27.6896L202.462 30.6ZM203.913 29.95L206.034 32.0713C206.859 31.2466 207.363 30.1477 207.363 28.9H204.363H201.363C201.363 28.7146 201.4 28.4979 201.493 28.2807C201.584 28.0671 201.702 27.9178 201.791 27.8287L203.913 29.95ZM204.363 28.9H207.363C207.363 26.8568 206.102 25.4747 204.705 24.7425L203.312 27.4L201.92 30.0575C201.967 30.0817 201.812 30.0121 201.642 29.7704C201.45 29.4963 201.363 29.1742 201.363 28.9H204.363ZM203.312 27.4L204.705 24.7425C203.658 24.1945 202.421 23.8223 201.101 23.5583L200.512 26.5L199.924 29.4417C200.937 29.6443 201.567 29.8722 201.92 30.0575L203.312 27.4ZM200.512 26.5L201.2 23.5798C200.023 23.3028 198.734 23.0282 197.337 22.7555L196.762 25.7L196.188 28.6445C197.524 28.9052 198.736 29.1639 199.825 29.4202L200.512 26.5ZM196.762 25.7L197.406 22.7698C196.148 22.4936 194.866 22.139 193.561 21.7039L192.613 24.55L191.664 27.396C193.159 27.8943 194.644 28.3064 196.119 28.6302L196.762 25.7ZM192.613 24.55L193.582 21.711C192.446 21.3231 191.408 20.8161 190.46 20.1929L188.812 22.7L187.165 25.2071C188.55 26.1173 190.046 26.8436 191.643 27.389L192.613 24.55ZM188.812 22.7L190.493 20.2151C189.757 19.7168 189.152 19.066 188.672 18.2192L186.062 19.7L183.453 21.1808C184.373 22.8007 185.602 24.1499 187.132 25.1848L188.812 22.7ZM186.062 19.7L188.688 18.2489C188.295 17.537 188.012 16.5024 188.012 15H185.012H182.012C182.012 17.2309 182.43 19.3296 183.437 21.1511L186.062 19.7ZM185.012 15H188.012C188.012 13.4252 188.437 12.0474 189.294 10.7856L186.812 9.1L184.331 7.41435C182.788 9.68592 182.012 12.2415 182.012 15H185.012ZM186.812 9.1L189.287 10.7957C190.148 9.53942 191.484 8.42875 193.481 7.54143L192.262 4.8L191.044 2.05856C188.241 3.30459 185.944 5.06058 184.338 7.4043L186.812 9.1ZM192.262 4.8L193.467 7.54761C195.411 6.69529 197.988 6.2 201.312 6.2V3.2V0.199999C197.437 0.199999 193.98 0.771372 191.058 2.05239L192.262 4.8ZM201.312 3.2V6.2C203.466 6.2 205.586 6.4273 207.675 6.88153L208.312 3.95L208.95 1.01847C206.439 0.472702 203.892 0.199999 201.312 0.199999V3.2ZM208.312 3.95L207.675 6.88153C209.717 7.32529 211.496 7.99357 213.039 8.86345L214.512 6.25L215.986 3.63654C213.862 2.43976 211.508 1.5747 208.95 1.01847L208.312 3.95ZM214.512 6.25L211.742 5.0996L208.192 13.6496L210.963 14.8L213.733 15.9504L217.283 7.40039L214.512 6.25ZM210.963 14.8L212.304 12.1167C210.414 11.1716 208.539 10.4431 206.682 9.95032L205.913 12.85L205.143 15.7497C206.553 16.1236 208.044 16.695 209.621 17.4833L210.963 14.8ZM205.913 12.85L206.697 9.95432C204.862 9.45732 203.031 9.2 201.212 9.2V12.2V15.2C202.46 15.2 203.763 15.376 205.128 15.7457L205.913 12.85ZM201.212 12.2V9.2C199.946 9.2 198.716 9.30676 197.65 9.62652L198.512 12.5L199.375 15.3735C199.642 15.2932 200.212 15.2 201.212 15.2V12.2ZM198.512 12.5L197.65 9.62652C196.724 9.9045 195.651 10.3843 194.833 11.2931L197.062 13.3L199.292 15.3069C199.232 15.3735 199.18 15.418 199.146 15.4441C199.112 15.47 199.094 15.4795 199.099 15.4767C199.104 15.4739 199.128 15.4614 199.175 15.4423C199.222 15.4233 199.287 15.3996 199.375 15.3735L198.512 12.5ZM197.062 13.3L194.72 11.4259C194.058 12.2528 193.663 13.2712 193.663 14.4H196.663H199.663C199.663 14.5407 199.638 14.6966 199.582 14.8502C199.527 15.0014 199.457 15.1096 199.405 15.1741L197.062 13.3ZM196.663 14.4H193.663C193.663 16.4754 194.997 17.8142 196.32 18.5075L197.712 15.85L199.105 13.1925C199.038 13.1575 199.184 13.2177 199.355 13.453C199.553 13.7261 199.663 14.0718 199.663 14.4H196.663ZM197.712 15.85L196.423 18.5586C197.419 19.0332 198.591 19.3777 199.858 19.6384L200.462 16.7L201.067 13.7616C200.067 13.5556 199.406 13.3335 199.002 13.1414L197.712 15.85ZM200.462 16.7L199.874 19.6417C201.046 19.8761 202.317 20.1271 203.688 20.3945L204.262 17.45L204.837 14.5055C203.474 14.2396 202.212 13.9905 201.051 13.7583L200.462 16.7ZM204.262 17.45L203.701 20.397C204.961 20.637 206.208 20.9673 207.443 21.389L208.413 18.55L209.382 15.711C207.884 15.1994 206.364 14.7964 204.824 14.503L204.262 17.45ZM208.413 18.55L207.443 21.389C208.572 21.7745 209.581 22.2753 210.482 22.8848L212.163 20.4L213.843 17.9151C212.478 16.9913 210.986 16.2588 209.382 15.7109L208.413 18.55ZM212.163 20.4L210.515 22.9071C211.278 23.4084 211.884 24.0541 212.353 24.8808L214.962 23.4L217.572 21.9192C216.641 20.2792 215.38 18.9249 213.81 17.8929L212.163 20.4ZM214.962 23.4L212.353 24.8808C212.733 25.5492 213.012 26.5375 213.012 28H216.012H219.012C219.012 25.7958 218.592 23.7175 217.572 21.9192L214.962 23.4ZM216.012 28H213.012C213.012 29.5135 212.587 30.8915 211.688 32.2043L214.163 33.9L216.637 35.5957C218.204 33.3085 219.012 30.7531 219.012 28H216.012ZM214.163 33.9L211.681 32.2144C210.854 33.432 209.532 34.5474 207.513 35.4728L208.762 38.2L210.012 40.9272C212.793 39.6526 215.071 37.9013 216.644 35.5856L214.163 33.9ZM208.762 38.2L207.544 35.4586C205.645 36.3026 203.077 36.8 199.712 36.8V39.8V42.8C203.615 42.8 207.08 42.2307 209.981 40.9414L208.762 38.2ZM233.914 28.8H230.914V31.8H233.914V28.8ZM233.914 20.3V17.3H230.914V20.3H233.914ZM248.914 20.3H251.914V17.3H248.914V20.3ZM248.914 28.8V31.8H251.914V28.8H248.914ZM233.914 28.8H236.914V20.3H233.914H230.914V28.8H233.914ZM233.914 20.3V23.3H248.914V20.3V17.3H233.914V20.3ZM248.914 20.3H245.914V28.8H248.914H251.914V20.3H248.914ZM248.914 28.8V25.8H233.914V28.8V31.8H248.914V28.8ZM273.537 38.8L274.248 35.8854L273.537 38.8ZM266.787 36.2L264.043 34.9875L262.975 37.4032L265.236 38.7682L266.787 36.2ZM270.587 27.6L272.092 25.0049L269.196 23.3252L267.843 26.3875L270.587 27.6ZM276.137 29.95L275.288 32.8273L275.315 32.8355L275.343 32.8432L276.137 29.95ZM284.787 30.6L285.405 33.5356L285.46 33.5241L285.514 33.5104L284.787 30.6ZM286.237 29.95L288.23 32.1922L288.296 32.1337L288.358 32.0713L286.237 29.95ZM285.637 27.4L284.245 30.0575L285.637 27.4ZM282.837 26.5L282.15 29.4202L282.199 29.4318L282.248 29.4417L282.837 26.5ZM279.087 25.7L278.444 28.6302L278.478 28.6378L278.512 28.6445L279.087 25.7ZM274.937 24.55L273.967 27.389L273.978 27.3926L273.988 27.396L274.937 24.55ZM271.137 22.7L269.456 25.1848L269.472 25.1961L269.489 25.2071L271.137 22.7ZM268.387 19.7L265.761 21.1511L265.769 21.166L265.778 21.1808L268.387 19.7ZM269.137 9.1L266.662 7.40429L266.655 7.41435L269.137 9.1ZM274.587 4.8L273.382 2.05239L273.375 2.05546L273.368 2.05856L274.587 4.8ZM290.637 3.95L289.999 6.88153L290.637 3.95ZM296.837 6.25L299.607 7.40039L300.628 4.94302L298.31 3.63654L296.837 6.25ZM293.287 14.8L291.945 17.4833L294.823 18.9224L296.057 15.9504L293.287 14.8ZM288.237 12.85L287.452 15.7457L287.46 15.7477L287.467 15.7497L288.237 12.85ZM280.837 12.5L279.975 9.62652L280.837 12.5ZM279.387 13.3L277.157 11.2931L277.099 11.3579L277.044 11.4259L279.387 13.3ZM280.037 15.85L278.645 18.5075L278.695 18.534L278.747 18.5586L280.037 15.85ZM282.787 16.7L282.182 19.6384L282.19 19.6401L282.198 19.6417L282.787 16.7ZM286.587 17.45L286.012 20.3945L286.025 20.397L286.587 17.45ZM290.737 18.55L289.767 21.389H289.767L290.737 18.55ZM294.487 20.4L292.806 22.8848L292.822 22.8961L292.839 22.9071L294.487 20.4ZM297.287 23.4L294.678 24.8808V24.8808L297.287 23.4ZM296.487 33.9L294.012 32.2043L294.005 32.2144L296.487 33.9ZM291.087 38.2L292.305 40.9414L292.321 40.9344L292.337 40.9272L291.087 38.2ZM282.037 39.8V36.8C279.333 36.8 276.739 36.493 274.248 35.8854L273.537 38.8L272.826 41.7146C275.802 42.4403 278.874 42.8 282.037 42.8V39.8ZM273.537 38.8L274.248 35.8854C271.71 35.2666 269.768 34.4956 268.337 33.6318L266.787 36.2L265.236 38.7682C267.339 40.0377 269.896 41 272.826 41.7146L273.537 38.8ZM266.787 36.2L269.531 37.4125L273.331 28.8125L270.587 27.6L267.843 26.3875L264.043 34.9875L266.787 36.2ZM270.587 27.6L269.082 30.1951C270.974 31.2929 273.048 32.1664 275.288 32.8273L276.137 29.95L276.986 27.0727C275.159 26.5336 273.532 25.8404 272.092 25.0049L270.587 27.6ZM276.137 29.95L275.343 32.8432C277.641 33.4732 279.908 33.8 282.137 33.8V30.8V27.8C280.499 27.8 278.766 27.5602 276.93 27.0568L276.137 29.95ZM282.137 30.8V33.8C283.348 33.8 284.472 33.7321 285.405 33.5356L284.787 30.6L284.169 27.6643C283.835 27.7346 283.192 27.8 282.137 27.8V30.8ZM284.787 30.6L285.514 33.5104C286.36 33.2991 287.396 32.9334 288.23 32.1922L286.237 29.95L284.244 27.7078C284.316 27.6436 284.373 27.6054 284.402 27.5875C284.431 27.5695 284.44 27.5667 284.422 27.575C284.404 27.583 284.366 27.5988 284.304 27.6196C284.242 27.6403 284.161 27.6641 284.059 27.6896L284.787 30.6ZM286.237 29.95L288.358 32.0713C289.183 31.2466 289.687 30.1477 289.687 28.9H286.687H283.687C283.687 28.7146 283.724 28.4979 283.817 28.2807C283.908 28.0671 284.026 27.9178 284.115 27.8287L286.237 29.95ZM286.687 28.9H289.687C289.687 26.8568 288.427 25.4747 287.029 24.7425L285.637 27.4L284.245 30.0575C284.291 30.0817 284.136 30.0121 283.967 29.7704C283.775 29.4963 283.687 29.1742 283.687 28.9H286.687ZM285.637 27.4L287.029 24.7425C285.983 24.1945 284.745 23.8223 283.425 23.5583L282.837 26.5L282.248 29.4417C283.261 29.6443 283.891 29.8722 284.245 30.0575L285.637 27.4ZM282.837 26.5L283.524 23.5798C282.347 23.3028 281.059 23.0282 279.661 22.7555L279.087 25.7L278.512 28.6445C279.848 28.9052 281.06 29.1639 282.15 29.4202L282.837 26.5ZM279.087 25.7L279.73 22.7698C278.472 22.4936 277.191 22.139 275.885 21.7039L274.937 24.55L273.988 27.396C275.483 27.8943 276.968 28.3064 278.444 28.6302L279.087 25.7ZM274.937 24.55L275.906 21.711C274.77 21.3231 273.733 20.8161 272.784 20.1929L271.137 22.7L269.489 25.2071C270.874 26.1173 272.37 26.8436 273.967 27.389L274.937 24.55ZM271.137 22.7L272.818 20.2151C272.081 19.7168 271.476 19.066 270.996 18.2192L268.387 19.7L265.778 21.1808C266.697 22.8007 267.926 24.1499 269.456 25.1848L271.137 22.7ZM268.387 19.7L271.012 18.2489C270.619 17.537 270.337 16.5024 270.337 15H267.337H264.337C264.337 17.2309 264.754 19.3296 265.761 21.1511L268.387 19.7ZM267.337 15H270.337C270.337 13.4252 270.761 12.0474 271.618 10.7856L269.137 9.1L266.655 7.41435C265.112 9.68592 264.337 12.2415 264.337 15H267.337ZM269.137 9.1L271.612 10.7957C272.472 9.53942 273.809 8.42875 275.805 7.54143L274.587 4.8L273.368 2.05856C270.565 3.30459 268.268 5.06058 266.662 7.4043L269.137 9.1ZM274.587 4.8L275.791 7.54761C277.736 6.69529 280.313 6.2 283.637 6.2V3.2V0.199999C279.761 0.199999 276.305 0.771372 273.382 2.05239L274.587 4.8ZM283.637 3.2V6.2C285.79 6.2 287.91 6.4273 289.999 6.88153L290.637 3.95L291.274 1.01847C288.763 0.472702 286.216 0.199999 283.637 0.199999V3.2ZM290.637 3.95L289.999 6.88153C292.041 7.32529 293.82 7.99357 295.364 8.86345L296.837 6.25L298.31 3.63654C296.186 2.43976 293.833 1.5747 291.274 1.01847L290.637 3.95ZM296.837 6.25L294.066 5.0996L290.516 13.6496L293.287 14.8L296.057 15.9504L299.607 7.40039L296.837 6.25ZM293.287 14.8L294.628 12.1167C292.738 11.1716 290.863 10.4431 289.006 9.95032L288.237 12.85L287.467 15.7497C288.877 16.1236 290.369 16.695 291.945 17.4833L293.287 14.8ZM288.237 12.85L289.021 9.95432C287.186 9.45732 285.355 9.2 283.537 9.2V12.2V15.2C284.785 15.2 286.088 15.376 287.452 15.7457L288.237 12.85ZM283.537 12.2V9.2C282.27 9.2 281.041 9.30676 279.975 9.62652L280.837 12.5L281.699 15.3735C281.966 15.2932 282.537 15.2 283.537 15.2V12.2ZM280.837 12.5L279.975 9.62652C279.048 9.9045 277.975 10.3843 277.157 11.2931L279.387 13.3L281.617 15.3069C281.557 15.3735 281.504 15.418 281.47 15.4441C281.437 15.47 281.418 15.4795 281.423 15.4767C281.429 15.4739 281.452 15.4614 281.499 15.4423C281.546 15.4233 281.612 15.3996 281.699 15.3735L280.837 12.5ZM279.387 13.3L277.044 11.4259C276.383 12.2528 275.987 13.2712 275.987 14.4H278.987H281.987C281.987 14.5407 281.962 14.6966 281.906 14.8502C281.851 15.0014 281.781 15.1096 281.729 15.1741L279.387 13.3ZM278.987 14.4H275.987C275.987 16.4754 277.321 17.8142 278.645 18.5075L280.037 15.85L281.429 13.1925C281.362 13.1575 281.509 13.2177 281.679 13.453C281.877 13.7261 281.987 14.0718 281.987 14.4H278.987ZM280.037 15.85L278.747 18.5586C279.744 19.0332 280.916 19.3777 282.182 19.6384L282.787 16.7L283.392 13.7616C282.391 13.5556 281.73 13.3335 281.327 13.1414L280.037 15.85ZM282.787 16.7L282.198 19.6417C283.37 19.8761 284.642 20.1271 286.012 20.3945L286.587 17.45L287.161 14.5055C285.798 14.2396 284.536 13.9905 283.375 13.7583L282.787 16.7ZM286.587 17.45L286.025 20.397C287.285 20.637 288.532 20.9673 289.767 21.389L290.737 18.55L291.706 15.711C290.208 15.1994 288.688 14.7964 287.148 14.503L286.587 17.45ZM290.737 18.55L289.767 21.389C290.896 21.7745 291.905 22.2753 292.806 22.8848L294.487 20.4L296.168 17.9151C294.802 16.9913 293.311 16.2588 291.706 15.7109L290.737 18.55ZM294.487 20.4L292.839 22.9071C293.602 23.4084 294.208 24.0541 294.678 24.8808L297.287 23.4L299.896 21.9192C298.965 20.2792 297.705 18.9249 296.134 17.8929L294.487 20.4ZM297.287 23.4L294.678 24.8808C295.057 25.5492 295.337 26.5375 295.337 28H298.337H301.337C301.337 25.7958 300.916 23.7175 299.896 21.9192L297.287 23.4ZM298.337 28H295.337C295.337 29.5135 294.911 30.8915 294.012 32.2043L296.487 33.9L298.962 35.5957C300.529 33.3085 301.337 30.7531 301.337 28H298.337ZM296.487 33.9L294.005 32.2144C293.178 33.432 291.856 34.5474 289.837 35.4728L291.087 38.2L292.337 40.9272C295.118 39.6526 297.395 37.9013 298.968 35.5856L296.487 33.9ZM291.087 38.2L289.868 35.4586C287.969 36.3026 285.401 36.8 282.037 36.8V39.8V42.8C285.939 42.8 289.404 42.2307 292.305 40.9414L291.087 38.2ZM324.548 4V0.999998H321.548V4H324.548ZM336.348 4H339.348V0.999998H336.348V4ZM336.348 39V42H339.348V39H336.348ZM324.548 39H321.548V42H324.548V39ZM313.648 39V42H316.648V39H313.648ZM301.848 39H298.848V42H301.848V39ZM301.848 4V0.999998H298.848V4H301.848ZM313.648 4H316.648V0.999998H313.648V4ZM325.348 26.1V29.1H328.348V26.1H325.348ZM312.848 26.1H309.848V29.1H312.848V26.1ZM312.848 16.4V13.4H309.848V16.4H312.848ZM325.348 16.4H328.348V13.4H325.348V16.4ZM324.548 4V7H336.348V4V0.999998H324.548V4ZM336.348 4H333.348V39H336.348H339.348V4H336.348ZM336.348 39V36H324.548V39V42H336.348V39ZM324.548 39H327.548V4H324.548H321.548V39H324.548ZM313.648 39V36H301.848V39V42H313.648V39ZM301.848 39H304.848V4H301.848H298.848V39H301.848ZM301.848 4V7H313.648V4V0.999998H301.848V4ZM313.648 4H310.648V39H313.648H316.648V4H313.648ZM325.348 26.1V23.1H312.848V26.1V29.1H325.348V26.1ZM312.848 26.1H315.848V16.4H312.848H309.848V26.1H312.848ZM312.848 16.4V19.4H325.348V16.4V13.4H312.848V16.4ZM325.348 16.4H322.348V26.1H325.348H328.348V16.4H325.348ZM352.834 17V14H349.834V17H352.834ZM368.434 17H371.434V14H368.434V17ZM368.434 25.5V28.5H371.434V25.5H368.434ZM352.834 25.5H349.834V28.5H352.834V25.5ZM353.634 30.1H350.634V33.1H353.634V30.1ZM371.134 30.1H374.134V27.1H371.134V30.1ZM371.134 39V42H374.134V39H371.134ZM342.034 39H339.034V42H342.034V39ZM342.034 4V0.999998H339.034V4H342.034ZM370.484 4H373.484V0.999998H370.484V4ZM370.484 12.9V15.9H373.484V12.9H370.484ZM353.634 12.9V9.9H350.634V12.9H353.634ZM352.834 17V20H368.434V17V14H352.834V17ZM368.434 17H365.434V25.5H368.434H371.434V17H368.434ZM368.434 25.5V22.5H352.834V25.5V28.5H368.434V25.5ZM352.834 25.5H355.834V17H352.834H349.834V25.5H352.834ZM353.634 30.1V33.1H371.134V30.1V27.1H353.634V30.1ZM371.134 30.1H368.134V39H371.134H374.134V30.1H371.134ZM371.134 39V36H342.034V39V42H371.134V39ZM342.034 39H345.034V4H342.034H339.034V39H342.034ZM342.034 4V7H370.484V4V0.999998H342.034V4ZM370.484 4H367.484V12.9H370.484H373.484V4H370.484ZM370.484 12.9V9.9H353.634V12.9V15.9H370.484V12.9ZM353.634 12.9H350.634V30.1H353.634H356.634V12.9H353.634ZM380.226 38.8L380.937 35.8854L380.226 38.8ZM373.476 36.2L370.732 34.9875L369.665 37.4032L371.926 38.7682L373.476 36.2ZM377.276 27.6L378.781 25.0049L375.885 23.3252L374.532 26.3875L377.276 27.6ZM382.826 29.95L381.977 32.8273L382.005 32.8355L382.033 32.8432L382.826 29.95ZM391.476 30.6L392.094 33.5356L392.149 33.5241L392.204 33.5104L391.476 30.6ZM392.926 29.95L394.919 32.1922L394.985 32.1337L395.047 32.0713L392.926 29.95ZM392.326 27.4L390.934 30.0575L392.326 27.4ZM389.526 26.5L388.839 29.4202L388.888 29.4318L388.938 29.4417L389.526 26.5ZM385.776 25.7L385.133 28.6302L385.167 28.6378L385.202 28.6445L385.776 25.7ZM381.626 24.55L380.657 27.389L380.667 27.3926L380.677 27.396L381.626 24.55ZM377.826 22.7L376.145 25.1848L376.162 25.1961L376.179 25.2071L377.826 22.7ZM375.076 19.7L372.45 21.1511L372.459 21.166L372.467 21.1808L375.076 19.7ZM375.826 9.1L373.351 7.40429L373.345 7.41435L375.826 9.1ZM381.276 4.8L380.072 2.05239L380.065 2.05546L380.058 2.05856L381.276 4.8ZM397.326 3.95L396.689 6.88153L397.326 3.95ZM403.526 6.25L406.297 7.40039L407.317 4.94302L404.999 3.63654L403.526 6.25ZM399.976 14.8L398.635 17.4833L401.513 18.9224L402.747 15.9504L399.976 14.8ZM394.926 12.85L394.142 15.7457L394.149 15.7477L394.157 15.7497L394.926 12.85ZM387.526 12.5L386.664 9.62652L387.526 12.5ZM386.076 13.3L383.846 11.2931L383.788 11.3579L383.734 11.4259L386.076 13.3ZM386.726 15.85L385.334 18.5075L385.385 18.534L385.436 18.5586L386.726 15.85ZM389.476 16.7L388.871 19.6384L388.88 19.6401L388.888 19.6417L389.476 16.7ZM393.276 17.45L392.702 20.3945L392.715 20.397L393.276 17.45ZM397.426 18.55L396.457 21.389H396.457L397.426 18.55ZM401.176 20.4L399.495 22.8848L399.512 22.8961L399.529 22.9071L401.176 20.4ZM403.976 23.4L401.367 24.8808V24.8808L403.976 23.4ZM403.176 33.9L400.701 32.2043L400.695 32.2144L403.176 33.9ZM397.776 38.2L398.995 40.9414L399.01 40.9344L399.026 40.9272L397.776 38.2ZM388.726 39.8V36.8C386.022 36.8 383.428 36.493 380.937 35.8854L380.226 38.8L379.515 41.7146C382.491 42.4403 385.564 42.8 388.726 42.8V39.8ZM380.226 38.8L380.937 35.8854C378.4 35.2666 376.457 34.4956 375.027 33.6318L373.476 36.2L371.926 38.7682C374.028 40.0377 376.586 41 379.515 41.7146L380.226 38.8ZM373.476 36.2L376.22 37.4125L380.02 28.8125L377.276 27.6L374.532 26.3875L370.732 34.9875L373.476 36.2ZM377.276 27.6L375.771 30.1951C377.664 31.2929 379.737 32.1664 381.977 32.8273L382.826 29.95L383.675 27.0727C381.848 26.5336 380.222 25.8404 378.781 25.0049L377.276 27.6ZM382.826 29.95L382.033 32.8432C384.33 33.4732 386.598 33.8 388.826 33.8V30.8V27.8C387.188 27.8 385.455 27.5602 383.619 27.0568L382.826 29.95ZM388.826 30.8V33.8C390.037 33.8 391.161 33.7321 392.094 33.5356L391.476 30.6L390.858 27.6643C390.525 27.7346 389.882 27.8 388.826 27.8V30.8ZM391.476 30.6L392.204 33.5104C393.049 33.2991 394.085 32.9334 394.919 32.1922L392.926 29.95L390.933 27.7078C391.005 27.6436 391.062 27.6054 391.091 27.5875C391.121 27.5695 391.13 27.5667 391.112 27.575C391.094 27.583 391.055 27.5988 390.993 27.6196C390.931 27.6403 390.85 27.6641 390.749 27.6896L391.476 30.6ZM392.926 29.95L395.047 32.0713C395.872 31.2466 396.376 30.1477 396.376 28.9H393.376H390.376C390.376 28.7146 390.413 28.4979 390.506 28.2807C390.598 28.0671 390.716 27.9178 390.805 27.8287L392.926 29.95ZM393.376 28.9H396.376C396.376 26.8568 395.116 25.4747 393.718 24.7425L392.326 27.4L390.934 30.0575C390.98 30.0817 390.825 30.0121 390.656 29.7704C390.464 29.4963 390.376 29.1742 390.376 28.9H393.376ZM392.326 27.4L393.718 24.7425C392.672 24.1945 391.435 23.8223 390.115 23.5583L389.526 26.5L388.938 29.4417C389.951 29.6443 390.58 29.8722 390.934 30.0575L392.326 27.4ZM389.526 26.5L390.213 23.5798C389.036 23.3028 387.748 23.0282 386.351 22.7555L385.776 25.7L385.202 28.6445C386.538 28.9052 387.749 29.1639 388.839 29.4202L389.526 26.5ZM385.776 25.7L386.419 22.7698C385.161 22.4936 383.88 22.139 382.575 21.7039L381.626 24.55L380.677 27.396C382.172 27.8943 383.658 28.3064 385.133 28.6302L385.776 25.7ZM381.626 24.55L382.596 21.711C381.46 21.3231 380.422 20.8161 379.474 20.1929L377.826 22.7L376.179 25.2071C377.564 26.1173 379.059 26.8436 380.657 27.389L381.626 24.55ZM377.826 22.7L379.507 20.2151C378.77 19.7168 378.166 19.066 377.685 18.2192L375.076 19.7L372.467 21.1808C373.387 22.8007 374.615 24.1499 376.145 25.1848L377.826 22.7ZM375.076 19.7L377.702 18.2489C377.308 17.537 377.026 16.5024 377.026 15H374.026H371.026C371.026 17.2309 371.444 19.3296 372.45 21.1511L375.076 19.7ZM374.026 15H377.026C377.026 13.4252 377.451 12.0474 378.308 10.7856L375.826 9.1L373.345 7.41435C371.802 9.68592 371.026 12.2415 371.026 15H374.026ZM375.826 9.1L378.301 10.7957C379.162 9.53942 380.498 8.42875 382.495 7.54143L381.276 4.8L380.058 2.05856C377.254 3.30459 374.957 5.06058 373.351 7.4043L375.826 9.1ZM381.276 4.8L382.481 7.54761C384.425 6.69529 387.002 6.2 390.326 6.2V3.2V0.199999C386.45 0.199999 382.994 0.771372 380.072 2.05239L381.276 4.8ZM390.326 3.2V6.2C392.48 6.2 394.599 6.4273 396.689 6.88153L397.326 3.95L397.963 1.01847C395.453 0.472702 392.906 0.199999 390.326 0.199999V3.2ZM397.326 3.95L396.689 6.88153C398.73 7.32529 400.51 7.99357 402.053 8.86345L403.526 6.25L404.999 3.63654C402.876 2.43976 400.522 1.5747 397.963 1.01847L397.326 3.95ZM403.526 6.25L400.755 5.0996L397.206 13.6496L399.976 14.8L402.747 15.9504L406.297 7.40039L403.526 6.25ZM399.976 14.8L401.318 12.1167C399.428 11.1716 397.553 10.4431 395.695 9.95032L394.926 12.85L394.157 15.7497C395.566 16.1236 397.058 16.695 398.635 17.4833L399.976 14.8ZM394.926 12.85L395.71 9.95432C393.875 9.45732 392.045 9.2 390.226 9.2V12.2V15.2C391.474 15.2 392.777 15.376 394.142 15.7457L394.926 12.85ZM390.226 12.2V9.2C388.96 9.2 387.73 9.30676 386.664 9.62652L387.526 12.5L388.388 15.3735C388.656 15.2932 389.226 15.2 390.226 15.2V12.2ZM387.526 12.5L386.664 9.62652C385.738 9.9045 384.664 10.3843 383.846 11.2931L386.076 13.3L388.306 15.3069C388.246 15.3735 388.194 15.418 388.16 15.4441C388.126 15.47 388.108 15.4795 388.113 15.4767C388.118 15.4739 388.142 15.4614 388.189 15.4423C388.235 15.4233 388.301 15.3996 388.388 15.3735L387.526 12.5ZM386.076 13.3L383.734 11.4259C383.072 12.2528 382.676 13.2712 382.676 14.4H385.676H388.676C388.676 14.5407 388.651 14.6966 388.596 14.8502C388.541 15.0014 388.47 15.1096 388.419 15.1741L386.076 13.3ZM385.676 14.4H382.676C382.676 16.4754 384.011 17.8142 385.334 18.5075L386.726 15.85L388.118 13.1925C388.051 13.1575 388.198 13.2177 388.368 13.453C388.566 13.7261 388.676 14.0718 388.676 14.4H385.676ZM386.726 15.85L385.436 18.5586C386.433 19.0332 387.605 19.3777 388.871 19.6384L389.476 16.7L390.081 13.7616C389.081 13.5556 388.419 13.3335 388.016 13.1414L386.726 15.85ZM389.476 16.7L388.888 19.6417C390.06 19.8761 391.331 20.1271 392.702 20.3945L393.276 17.45L393.851 14.5055C392.488 14.2396 391.226 13.9905 390.065 13.7583L389.476 16.7ZM393.276 17.45L392.715 20.397C393.975 20.637 395.222 20.9673 396.457 21.389L397.426 18.55L398.396 15.711C396.897 15.1994 395.378 14.7964 393.838 14.503L393.276 17.45ZM397.426 18.55L396.457 21.389C397.586 21.7745 398.594 22.2753 399.495 22.8848L401.176 20.4L402.857 17.9151C401.491 16.9913 400 16.2588 398.396 15.7109L397.426 18.55ZM401.176 20.4L399.529 22.9071C400.292 23.4084 400.898 24.0541 401.367 24.8808L403.976 23.4L406.585 21.9192C405.654 20.2792 404.394 18.9249 402.824 17.8929L401.176 20.4ZM403.976 23.4L401.367 24.8808C401.746 25.5492 402.026 26.5375 402.026 28H405.026H408.026C408.026 25.7958 407.606 23.7175 406.585 21.9192L403.976 23.4ZM405.026 28H402.026C402.026 29.5135 401.601 30.8915 400.701 32.2043L403.176 33.9L405.651 35.5957C407.218 33.3085 408.026 30.7531 408.026 28H405.026ZM403.176 33.9L400.695 32.2144C399.867 33.432 398.545 34.5474 396.526 35.4728L397.776 38.2L399.026 40.9272C401.807 39.6526 404.085 37.9013 405.658 35.5856L403.176 33.9ZM397.776 38.2L396.558 35.4586C394.659 36.3026 392.09 36.8 388.726 36.8V39.8V42.8C392.629 42.8 396.094 42.2307 398.995 40.9414L397.776 38.2ZM431.237 4V0.999998H428.237V4H431.237ZM443.038 4H446.038V0.999998H443.038V4ZM443.038 39V42H446.038V39H443.038ZM431.237 39H428.237V42H431.237V39ZM420.337 39V42H423.337V39H420.337ZM408.538 39H405.538V42H408.538V39ZM408.538 4V0.999998H405.538V4H408.538ZM420.337 4H423.337V0.999998H420.337V4ZM432.038 26.1V29.1H435.038V26.1H432.038ZM419.538 26.1H416.538V29.1H419.538V26.1ZM419.538 16.4V13.4H416.538V16.4H419.538ZM432.038 16.4H435.038V13.4H432.038V16.4ZM431.237 4V7H443.038V4V0.999998H431.237V4ZM443.038 4H440.038V39H443.038H446.038V4H443.038ZM443.038 39V36H431.237V39V42H443.038V39ZM431.237 39H434.237V4H431.237H428.237V39H431.237ZM420.337 39V36H408.538V39V42H420.337V39ZM408.538 39H411.538V4H408.538H405.538V39H408.538ZM408.538 4V7H420.337V4V0.999998H408.538V4ZM420.337 4H417.337V39H420.337H423.337V4H420.337ZM432.038 26.1V23.1H419.538V26.1V29.1H432.038V26.1ZM419.538 26.1H422.538V16.4H419.538H416.538V26.1H419.538ZM419.538 16.4V19.4H432.038V16.4V13.4H419.538V16.4ZM432.038 16.4H429.038V26.1H432.038H435.038V16.4H432.038ZM444.923 39L442.174 37.7984L440.337 42H444.923V39ZM460.223 4V0.999998H458.26L457.474 2.79837L460.223 4ZM471.823 4L474.572 2.79837L473.786 0.999998H471.823V4ZM487.123 39V42H491.709L489.872 37.7984L487.123 39ZM474.923 39L472.123 40.0763L472.862 42H474.923V39ZM463.623 9.6V6.6H459.256L460.823 10.6763L463.623 9.6ZM468.223 9.6L471.023 10.6763L472.59 6.6H468.223V9.6ZM456.923 39V42H458.984L459.723 40.0763L456.923 39ZM454.023 32.9L451.194 31.9015L449.783 35.9H454.023V32.9ZM457.023 24.4V21.4H454.901L454.194 23.4015L457.023 24.4ZM473.123 24.4L475.952 23.4015L475.246 21.4H473.123V24.4ZM476.123 32.9V35.9H480.363L478.952 31.9015L476.123 32.9ZM444.923 39L447.672 40.2016L462.972 5.20163L460.223 4L457.474 2.79837L442.174 37.7984L444.923 39ZM460.223 4V7H471.823V4V0.999998H460.223V4ZM471.823 4L469.074 5.20163L484.374 40.2016L487.123 39L489.872 37.7984L474.572 2.79837L471.823 4ZM487.123 39V36H474.923V39V42H487.123V39ZM474.923 39L477.723 37.9237L466.423 8.5237L463.623 9.6L460.823 10.6763L472.123 40.0763L474.923 39ZM463.623 9.6V12.6H468.223V9.6V6.6H463.623V9.6ZM468.223 9.6L465.423 8.5237L454.123 37.9237L456.923 39L459.723 40.0763L471.023 10.6763L468.223 9.6ZM456.923 39V36H444.923V39V42H456.923V39ZM454.023 32.9L456.852 33.8985L459.852 25.3985L457.023 24.4L454.194 23.4015L451.194 31.9015L454.023 32.9ZM457.023 24.4V27.4H473.123V24.4V21.4H457.023V24.4ZM473.123 24.4L470.294 25.3985L473.294 33.8985L476.123 32.9L478.952 31.9015L475.952 23.4015L473.123 24.4ZM476.123 32.9V29.9H454.023V32.9V35.9H476.123V32.9ZM499.556 31.5L496.56 31.6504L496.924 38.9089L501.786 33.5069L499.556 31.5ZM498.906 18.55L496.684 16.5343L495.848 17.4566L495.91 18.7004L498.906 18.55ZM512.106 4V0.999998H510.777L509.884 1.98426L512.106 4ZM524.956 4L527.177 6.01666L531.732 0.999998H524.956V4ZM510.156 20.3L512.301 22.3972L512.34 22.3576L512.377 22.3167L510.156 20.3ZM503.606 27L501.461 24.9028L501.418 24.9471L501.376 24.9931L503.606 27ZM489.006 39H486.006V42H489.006V39ZM489.006 4V0.999998H486.006V4H489.006ZM500.606 4H503.606V0.999998H500.606V4ZM500.606 39V42H503.606V39H500.606ZM512.006 39L509.615 40.8112L510.515 42H512.006V39ZM501.706 25.4L499.525 23.3401L497.781 25.1866L499.315 27.2112L501.706 25.4ZM509.356 17.3L511.755 15.4982L509.618 12.6535L507.175 15.2401L509.356 17.3ZM525.656 39V42H531.662L528.055 37.1982L525.656 39ZM499.556 31.5L502.552 31.3496L501.902 18.3996L498.906 18.55L495.91 18.7004L496.56 31.6504L499.556 31.5ZM498.906 18.55L501.128 20.5657L514.328 6.01573L512.106 4L509.884 1.98426L496.684 16.5343L498.906 18.55ZM512.106 4V7H524.956V4V0.999998H512.106V4ZM524.956 4L522.735 1.98334L507.935 18.2833L510.156 20.3L512.377 22.3167L527.177 6.01666L524.956 4ZM510.156 20.3L508.011 18.2028L501.461 24.9028L503.606 27L505.751 29.0972L512.301 22.3972L510.156 20.3ZM503.606 27L501.376 24.9931L497.326 29.4931L499.556 31.5L501.786 33.5069L505.836 29.0069L503.606 27ZM489.006 39H492.006V4H489.006H486.006V39H489.006ZM489.006 4V7H500.606V4V0.999998H489.006V4ZM500.606 4H497.606V39H500.606H503.606V4H500.606ZM500.606 39V36H489.006V39V42H500.606V39ZM512.006 39L514.398 37.1888L504.098 23.5888L501.706 25.4L499.315 27.2112L509.615 40.8112L512.006 39ZM501.706 25.4L503.887 27.4599L511.537 19.3599L509.356 17.3L507.175 15.2401L499.525 23.3401L501.706 25.4ZM509.356 17.3L506.958 19.1018L523.258 40.8018L525.656 39L528.055 37.1982L511.755 15.4982L509.356 17.3ZM525.656 39V36H512.006V39V42H525.656V39ZM532.104 39H529.104V42H532.104V39ZM532.104 13.15H535.104V10.15H532.104V13.15ZM521.854 13.15H518.854V16.15H521.854V13.15ZM521.854 4V0.999998H518.854V4H521.854ZM554.154 4H557.154V0.999998H554.154V4ZM554.154 13.15V16.15H557.154V13.15H554.154ZM543.904 13.15V10.15H540.904V13.15H543.904ZM543.904 39V42H546.904V39H543.904ZM532.104 39H535.104V13.15H532.104H529.104V39H532.104ZM532.104 13.15V10.15H521.854V13.15V16.15H532.104V13.15ZM521.854 13.15H524.854V4H521.854H518.854V13.15H521.854ZM521.854 4V7H554.154V4V0.999998H521.854V4ZM554.154 4H551.154V13.15H554.154H557.154V4H554.154ZM554.154 13.15V10.15H543.904V13.15V16.15H554.154V13.15ZM543.904 13.15H540.904V39H543.904H546.904V13.15H543.904ZM543.904 39V36H532.104V39V42H543.904V39ZM557.219 39H554.219V42H557.219V39ZM557.219 4V0.999998H554.219V4H557.219ZM569.019 4H572.019V0.999998H569.019V4ZM569.019 39V42H572.019V39H569.019ZM557.219 39H560.219V4H557.219H554.219V39H557.219ZM557.219 4V7H569.019V4V0.999998H557.219V4ZM569.019 4H566.019V39H569.019H572.019V4H569.019ZM569.019 39V36H557.219V39V42H569.019V39Z" fill="url(#paint0_linear_419_9637)" mask="url(#path-1-outside-1_419_9637)"/>
<defs>
<linearGradient id="paint0_linear_419_9637" x1="301.5" y1="-9" x2="301.5" y2="52" gradientUnits="userSpaceOnUse">
<stop stop-color="#E51D25"/>
<stop offset="1" stop-color="#1D3A69"/>
</linearGradient>
</defs>
</svg>
