<svg width="643" height="43" viewBox="0 0 643 43" fill="none" xmlns="http://www.w3.org/2000/svg">
<mask id="path-1-outside-1_453_3853" maskUnits="userSpaceOnUse" x="0" y="0" width="643" height="43" fill="black">
<rect fill="white" width="643" height="43"/>
<path d="M5.05 39L20.35 4H31.95L47.25 39H35.05L23.75 9.6H28.35L17.05 39H5.05ZM14.15 32.9L17.15 24.4H33.25L36.25 32.9H14.15ZM49.1332 39V4H60.9332V39H49.1332ZM66.6137 39V4H76.3137L90.3137 26.85H85.2137L98.8137 4H108.514L108.614 39H97.8637L97.7637 20.2H99.4637L90.1637 35.85H84.9637L75.2637 20.2H77.3637V39H66.6137ZM127.369 39.8C124.435 39.8 121.602 39.4667 118.869 38.8C116.135 38.1333 113.885 37.2667 112.119 36.2L115.919 27.6C117.585 28.5667 119.435 29.35 121.469 29.95C123.535 30.5167 125.535 30.8 127.469 30.8C128.602 30.8 129.485 30.7333 130.119 30.6C130.785 30.4333 131.269 30.2167 131.569 29.95C131.869 29.65 132.019 29.3 132.019 28.9C132.019 28.2667 131.669 27.7667 130.969 27.4C130.269 27.0333 129.335 26.7333 128.169 26.5C127.035 26.2333 125.785 25.9667 124.419 25.7C123.052 25.4 121.669 25.0167 120.269 24.55C118.902 24.0833 117.635 23.4667 116.469 22.7C115.335 21.9333 114.419 20.9333 113.719 19.7C113.019 18.4333 112.669 16.8667 112.669 15C112.669 12.8333 113.269 10.8667 114.469 9.1C115.702 7.3 117.519 5.86667 119.919 4.8C122.352 3.73333 125.369 3.2 128.969 3.2C131.335 3.2 133.669 3.45 135.969 3.95C138.269 4.45 140.335 5.21666 142.169 6.25L138.619 14.8C136.885 13.9333 135.202 13.2833 133.569 12.85C131.969 12.4167 130.402 12.2 128.869 12.2C127.735 12.2 126.835 12.3 126.169 12.5C125.502 12.7 125.019 12.9667 124.719 13.3C124.452 13.6333 124.319 14 124.319 14.4C124.319 15 124.669 15.4833 125.369 15.85C126.069 16.1833 126.985 16.4667 128.119 16.7C129.285 16.9333 130.552 17.1833 131.919 17.45C133.319 17.7167 134.702 18.0833 136.069 18.55C137.435 19.0167 138.685 19.6333 139.819 20.4C140.985 21.1667 141.919 22.1667 142.619 23.4C143.319 24.6333 143.669 26.1667 143.669 28C143.669 30.1333 143.052 32.1 141.819 33.9C140.619 35.6667 138.819 37.1 136.419 38.2C134.019 39.2667 131.002 39.8 127.369 39.8ZM180.27 39.8C177.47 39.8 174.87 39.3667 172.47 38.5C170.104 37.6 168.037 36.3333 166.27 34.7C164.537 33.0667 163.187 31.1333 162.22 28.9C161.254 26.6667 160.77 24.2 160.77 21.5C160.77 18.8 161.254 16.3333 162.22 14.1C163.187 11.8667 164.537 9.93333 166.27 8.3C168.037 6.66666 170.104 5.41666 172.47 4.55C174.87 3.65 177.47 3.2 180.27 3.2C183.704 3.2 186.737 3.8 189.37 5C192.037 6.2 194.237 7.93333 195.97 10.2L188.52 16.85C187.487 15.55 186.337 14.55 185.07 13.85C183.837 13.1167 182.437 12.75 180.87 12.75C179.637 12.75 178.52 12.95 177.52 13.35C176.52 13.75 175.654 14.3333 174.92 15.1C174.22 15.8667 173.67 16.8 173.27 17.9C172.87 18.9667 172.67 20.1667 172.67 21.5C172.67 22.8333 172.87 24.05 173.27 25.15C173.67 26.2167 174.22 27.1333 174.92 27.9C175.654 28.6667 176.52 29.25 177.52 29.65C178.52 30.05 179.637 30.25 180.87 30.25C182.437 30.25 183.837 29.9 185.07 29.2C186.337 28.4667 187.487 27.45 188.52 26.15L195.97 32.8C194.237 35.0333 192.037 36.7667 189.37 38C186.737 39.2 183.704 39.8 180.27 39.8ZM210.177 17H225.777V25.5H210.177V17ZM210.977 30.1H228.477V39H199.377V4H227.827V12.9H210.977V30.1ZM233.02 39V4H249.87C253.137 4 255.953 4.53333 258.32 5.6C260.72 6.66666 262.57 8.2 263.87 10.2C265.17 12.1667 265.82 14.5 265.82 17.2C265.82 19.9 265.17 22.2333 263.87 24.2C262.57 26.1333 260.72 27.6167 258.32 28.65C255.953 29.6833 253.137 30.2 249.87 30.2H239.57L244.82 25.35V39H233.02ZM253.97 39L245.37 26.25H257.87L266.57 39H253.97ZM244.82 26.65L239.57 21.3H249.12C250.753 21.3 251.953 20.9333 252.72 20.2C253.52 19.4667 253.92 18.4667 253.92 17.2C253.92 15.9333 253.52 14.9333 252.72 14.2C251.953 13.4667 250.753 13.1 249.12 13.1H239.57L244.82 7.75V26.65ZM277.388 39V13.15H267.138V4H299.438V13.15H289.188V39H277.388ZM302.502 39V4H314.302V39H302.502ZM330.983 18.9H346.383V27.8H330.983V18.9ZM331.783 39H319.983V4H348.433V12.9H331.783V39ZM352.161 39V4H363.961V39H352.161ZM380.441 17H396.041V25.5H380.441V17ZM381.241 30.1H398.741V39H369.641V4H398.091V12.9H381.241V30.1ZM403.284 39V4H420.534C424.434 4 427.867 4.71666 430.834 6.15C433.8 7.55 436.117 9.55 437.784 12.15C439.45 14.75 440.284 17.85 440.284 21.45C440.284 25.0833 439.45 28.2167 437.784 30.85C436.117 33.45 433.8 35.4667 430.834 36.9C427.867 38.3 424.434 39 420.534 39H403.284ZM415.084 29.8H420.034C421.7 29.8 423.15 29.4833 424.384 28.85C425.65 28.2167 426.634 27.2833 427.334 26.05C428.034 24.7833 428.384 23.25 428.384 21.45C428.384 19.6833 428.034 18.1833 427.334 16.95C426.634 15.7167 425.65 14.7833 424.384 14.15C423.15 13.5167 421.7 13.2 420.034 13.2H415.084V29.8ZM459.582 39V4H476.432C479.699 4 482.516 4.53333 484.882 5.6C487.282 6.66666 489.132 8.2 490.432 10.2C491.732 12.1667 492.382 14.5 492.382 17.2C492.382 19.9 491.732 22.2333 490.432 24.2C489.132 26.1333 487.282 27.6167 484.882 28.65C482.516 29.6833 479.699 30.2 476.432 30.2H466.132L471.382 25.35V39H459.582ZM480.532 39L471.932 26.25H484.432L493.132 39H480.532ZM471.382 26.65L466.132 21.3H475.682C477.316 21.3 478.516 20.9333 479.282 20.2C480.082 19.4667 480.482 18.4667 480.482 17.2C480.482 15.9333 480.082 14.9333 479.282 14.2C478.516 13.4667 477.316 13.1 475.682 13.1H466.132L471.382 7.75V26.65ZM515.188 39.8C512.355 39.8 509.722 39.35 507.288 38.45C504.888 37.55 502.805 36.2833 501.038 34.65C499.272 32.9833 497.888 31.0333 496.888 28.8C495.922 26.5667 495.438 24.1333 495.438 21.5C495.438 18.8333 495.922 16.4 496.888 14.2C497.888 11.9667 499.272 10.0333 501.038 8.4C502.805 6.73333 504.888 5.45 507.288 4.55C509.722 3.65 512.355 3.2 515.188 3.2C518.055 3.2 520.688 3.65 523.088 4.55C525.488 5.45 527.572 6.73333 529.338 8.4C531.105 10.0333 532.472 11.9667 533.438 14.2C534.438 16.4 534.938 18.8333 534.938 21.5C534.938 24.1333 534.438 26.5667 533.438 28.8C532.472 31.0333 531.105 32.9833 529.338 34.65C527.572 36.2833 525.488 37.55 523.088 38.45C520.688 39.35 518.055 39.8 515.188 39.8ZM515.188 30.25C516.288 30.25 517.305 30.05 518.238 29.65C519.205 29.25 520.038 28.6833 520.738 27.95C521.472 27.1833 522.038 26.2667 522.438 25.2C522.838 24.1 523.038 22.8667 523.038 21.5C523.038 20.1333 522.838 18.9167 522.438 17.85C522.038 16.75 521.472 15.8333 520.738 15.1C520.038 14.3333 519.205 13.75 518.238 13.35C517.305 12.95 516.288 12.75 515.188 12.75C514.088 12.75 513.055 12.95 512.088 13.35C511.155 13.75 510.322 14.3333 509.588 15.1C508.888 15.8333 508.338 16.75 507.938 17.85C507.538 18.9167 507.338 20.1333 507.338 21.5C507.338 22.8667 507.538 24.1 507.938 25.2C508.338 26.2667 508.888 27.1833 509.588 27.95C510.322 28.6833 511.155 29.25 512.088 29.65C513.055 30.05 514.088 30.25 515.188 30.25ZM555.971 39.8C550.604 39.8 546.421 38.35 543.421 35.45C540.421 32.55 538.921 28.4833 538.921 23.25V4H550.721V22.9C550.721 25.5667 551.204 27.4667 552.171 28.6C553.138 29.7 554.438 30.25 556.071 30.25C557.738 30.25 559.038 29.7 559.971 28.6C560.938 27.4667 561.421 25.5667 561.421 22.9V4H573.021V23.25C573.021 28.4833 571.521 32.55 568.521 35.45C565.521 38.35 561.338 39.8 555.971 39.8ZM585.542 39V13.15H575.292V4H607.592V13.15H597.342V39H585.542ZM621.457 17H637.057V25.5H621.457V17ZM622.257 30.1H639.757V39H610.657V4H639.107V12.9H622.257V30.1Z"/>
</mask>
<path d="M5.05 39L2.30117 37.7984L0.464454 42H5.05V39ZM20.35 4V0.999998H18.3873L17.6012 2.79837L20.35 4ZM31.95 4L34.6988 2.79837L33.9127 0.999998H31.95V4ZM47.25 39V42H51.8355L49.9988 37.7984L47.25 39ZM35.05 39L32.2497 40.0763L32.9891 42H35.05V39ZM23.75 9.6V6.6H19.383L20.9497 10.6763L23.75 9.6ZM28.35 9.6L31.1503 10.6763L32.717 6.6H28.35V9.6ZM17.05 39V42H19.1109L19.8503 40.0763L17.05 39ZM14.15 32.9L11.321 31.9015L9.90981 35.9H14.15V32.9ZM17.15 24.4V21.4H15.0275L14.321 23.4015L17.15 24.4ZM33.25 24.4L36.079 23.4015L35.3725 21.4H33.25V24.4ZM36.25 32.9V35.9H40.4902L39.079 31.9015L36.25 32.9ZM5.05 39L7.79883 40.2016L23.0988 5.20163L20.35 4L17.6012 2.79837L2.30117 37.7984L5.05 39ZM20.35 4V7H31.95V4V0.999998H20.35V4ZM31.95 4L29.2012 5.20163L44.5012 40.2016L47.25 39L49.9988 37.7984L34.6988 2.79837L31.95 4ZM47.25 39V36H35.05V39V42H47.25V39ZM35.05 39L37.8503 37.9237L26.5503 8.5237L23.75 9.6L20.9497 10.6763L32.2497 40.0763L35.05 39ZM23.75 9.6V12.6H28.35V9.6V6.6H23.75V9.6ZM28.35 9.6L25.5497 8.5237L14.2497 37.9237L17.05 39L19.8503 40.0763L31.1503 10.6763L28.35 9.6ZM17.05 39V36H5.05V39V42H17.05V39ZM14.15 32.9L16.979 33.8985L19.979 25.3985L17.15 24.4L14.321 23.4015L11.321 31.9015L14.15 32.9ZM17.15 24.4V27.4H33.25V24.4V21.4H17.15V24.4ZM33.25 24.4L30.421 25.3985L33.421 33.8985L36.25 32.9L39.079 31.9015L36.079 23.4015L33.25 24.4ZM36.25 32.9V29.9H14.15V32.9V35.9H36.25V32.9ZM49.1332 39H46.1332V42H49.1332V39ZM49.1332 4V0.999998H46.1332V4H49.1332ZM60.9332 4H63.9332V0.999998H60.9332V4ZM60.9332 39V42H63.9332V39H60.9332ZM49.1332 39H52.1332V4H49.1332H46.1332V39H49.1332ZM49.1332 4V7H60.9332V4V0.999998H49.1332V4ZM60.9332 4H57.9332V39H60.9332H63.9332V4H60.9332ZM60.9332 39V36H49.1332V39V42H60.9332V39ZM66.6137 39H63.6137V42H66.6137V39ZM66.6137 4V0.999998H63.6137V4H66.6137ZM76.3137 4L78.8717 2.4327L77.9939 0.999998H76.3137V4ZM90.3137 26.85V29.85H95.6701L92.8717 25.2827L90.3137 26.85ZM85.2137 26.85L82.6357 25.3156L79.937 29.85H85.2137V26.85ZM98.8137 4V0.999998H97.1081L96.2357 2.46564L98.8137 4ZM108.514 4L111.514 3.99143L111.505 0.999998H108.514V4ZM108.614 39V42H111.622L111.614 38.9914L108.614 39ZM97.8637 39L94.8637 39.016L94.8796 42H97.8637V39ZM97.7637 20.2V17.2H94.7477L94.7637 20.216L97.7637 20.2ZM99.4637 20.2L102.043 21.7326L104.736 17.2H99.4637V20.2ZM90.1637 35.85V38.85H91.8707L92.7427 37.3826L90.1637 35.85ZM84.9637 35.85L82.4137 37.4305L83.2936 38.85H84.9637V35.85ZM75.2637 20.2V17.2H69.8747L72.7137 21.7805L75.2637 20.2ZM77.3637 20.2H80.3637V17.2H77.3637V20.2ZM77.3637 39V42H80.3637V39H77.3637ZM66.6137 39H69.6137V4H66.6137H63.6137V39H66.6137ZM66.6137 4V7H76.3137V4V0.999998H66.6137V4ZM76.3137 4L73.7556 5.56729L87.7556 28.4173L90.3137 26.85L92.8717 25.2827L78.8717 2.4327L76.3137 4ZM90.3137 26.85V23.85H85.2137V26.85V29.85H90.3137V26.85ZM85.2137 26.85L87.7916 28.3843L101.392 5.53435L98.8137 4L96.2357 2.46564L82.6357 25.3156L85.2137 26.85ZM98.8137 4V7H108.514V4V0.999998H98.8137V4ZM108.514 4L105.514 4.00857L105.614 39.0086L108.614 39L111.614 38.9914L111.514 3.99143L108.514 4ZM108.614 39V36H97.8637V39V42H108.614V39ZM97.8637 39L100.864 38.984L100.764 20.184L97.7637 20.2L94.7637 20.216L94.8637 39.016L97.8637 39ZM97.7637 20.2V23.2H99.4637V20.2V17.2H97.7637V20.2ZM99.4637 20.2L96.8847 18.6674L87.5847 34.3174L90.1637 35.85L92.7427 37.3826L102.043 21.7326L99.4637 20.2ZM90.1637 35.85V32.85H84.9637V35.85V38.85H90.1637V35.85ZM84.9637 35.85L87.5136 34.2695L77.8136 18.6195L75.2637 20.2L72.7137 21.7805L82.4137 37.4305L84.9637 35.85ZM75.2637 20.2V23.2H77.3637V20.2V17.2H75.2637V20.2ZM77.3637 20.2H74.3637V39H77.3637H80.3637V20.2H77.3637ZM77.3637 39V36H66.6137V39V42H77.3637V39ZM118.869 38.8L119.58 35.8854L118.869 38.8ZM112.119 36.2L109.375 34.9875L108.307 37.4032L110.568 38.7682L112.119 36.2ZM115.919 27.6L117.424 25.0049L114.528 23.3252L113.175 26.3875L115.919 27.6ZM121.469 29.95L120.62 32.8273L120.647 32.8355L120.675 32.8432L121.469 29.95ZM130.119 30.6L130.737 33.5356L130.792 33.5241L130.846 33.5104L130.119 30.6ZM131.569 29.95L133.562 32.1922L133.628 32.1337L133.69 32.0713L131.569 29.95ZM130.969 27.4L129.577 30.0575L130.969 27.4ZM128.169 26.5L127.482 29.4202L127.531 29.4318L127.58 29.4417L128.169 26.5ZM124.419 25.7L123.776 28.6302L123.81 28.6378L123.844 28.6445L124.419 25.7ZM120.269 24.55L119.299 27.389L119.31 27.3926L119.32 27.396L120.269 24.55ZM116.469 22.7L114.788 25.1848L114.804 25.1961L114.821 25.2071L116.469 22.7ZM113.719 19.7L111.093 21.1511L111.101 21.166L111.11 21.1808L113.719 19.7ZM114.469 9.1L111.994 7.40429L111.987 7.41435L114.469 9.1ZM119.919 4.8L118.714 2.05239L118.707 2.05546L118.7 2.05856L119.919 4.8ZM135.969 3.95L135.331 6.88153L135.969 3.95ZM142.169 6.25L144.939 7.40039L145.96 4.94302L143.642 3.63654L142.169 6.25ZM138.619 14.8L137.277 17.4833L140.155 18.9224L141.389 15.9504L138.619 14.8ZM133.569 12.85L132.785 15.7457L132.792 15.7477L132.799 15.7497L133.569 12.85ZM126.169 12.5L125.307 9.62652L126.169 12.5ZM124.719 13.3L122.489 11.2931L122.431 11.3579L122.376 11.4259L124.719 13.3ZM125.369 15.85L123.977 18.5075L124.027 18.534L124.079 18.5586L125.369 15.85ZM128.119 16.7L127.514 19.6384L127.522 19.6401L127.53 19.6417L128.119 16.7ZM131.919 17.45L131.344 20.3945L131.357 20.397L131.919 17.45ZM136.069 18.55L135.099 21.389L136.069 18.55ZM139.819 20.4L138.138 22.8848L138.154 22.8961L138.171 22.9071L139.819 20.4ZM142.619 23.4L140.01 24.8808V24.8808L142.619 23.4ZM141.819 33.9L139.344 32.2043L139.337 32.2144L141.819 33.9ZM136.419 38.2L137.637 40.9414L137.653 40.9344L137.669 40.9272L136.419 38.2ZM127.369 39.8V36.8C124.665 36.8 122.071 36.493 119.58 35.8854L118.869 38.8L118.158 41.7146C121.134 42.4403 124.206 42.8 127.369 42.8V39.8ZM118.869 38.8L119.58 35.8854C117.043 35.2666 115.1 34.4956 113.669 33.6318L112.119 36.2L110.568 38.7682C112.671 40.0377 115.228 41 118.158 41.7146L118.869 38.8ZM112.119 36.2L114.863 37.4125L118.663 28.8125L115.919 27.6L113.175 26.3875L109.375 34.9875L112.119 36.2ZM115.919 27.6L114.414 30.1951C116.306 31.2929 118.38 32.1664 120.62 32.8273L121.469 29.95L122.318 27.0727C120.491 26.5336 118.864 25.8404 117.424 25.0049L115.919 27.6ZM121.469 29.95L120.675 32.8432C122.973 33.4732 125.24 33.8 127.469 33.8V30.8V27.8C125.831 27.8 124.098 27.5602 122.262 27.0568L121.469 29.95ZM127.469 30.8V33.8C128.68 33.8 129.804 33.7321 130.737 33.5356L130.119 30.6L129.501 27.6643C129.167 27.7346 128.524 27.8 127.469 27.8V30.8ZM130.119 30.6L130.846 33.5104C131.692 33.2991 132.728 32.9334 133.562 32.1922L131.569 29.95L129.576 27.7078C129.648 27.6436 129.705 27.6054 129.734 27.5875C129.763 27.5695 129.772 27.5667 129.754 27.575C129.736 27.583 129.698 27.5988 129.636 27.6196C129.574 27.6403 129.493 27.6641 129.391 27.6896L130.119 30.6ZM131.569 29.95L133.69 32.0713C134.515 31.2466 135.019 30.1477 135.019 28.9H132.019H129.019C129.019 28.7146 129.056 28.4979 129.149 28.2807C129.24 28.0671 129.358 27.9178 129.447 27.8287L131.569 29.95ZM132.019 28.9H135.019C135.019 26.8568 133.759 25.4747 132.361 24.7425L130.969 27.4L129.577 30.0575C129.623 30.0817 129.468 30.0121 129.299 29.7704C129.107 29.4963 129.019 29.1742 129.019 28.9H132.019ZM130.969 27.4L132.361 24.7425C131.315 24.1945 130.078 23.8223 128.757 23.5583L128.169 26.5L127.58 29.4417C128.593 29.6443 129.223 29.8722 129.577 30.0575L130.969 27.4ZM128.169 26.5L128.856 23.5798C127.679 23.3028 126.391 23.0282 124.993 22.7555L124.419 25.7L123.844 28.6445C125.18 28.9052 126.392 29.1639 127.482 29.4202L128.169 26.5ZM124.419 25.7L125.062 22.7698C123.804 22.4936 122.523 22.139 121.217 21.7039L120.269 24.55L119.32 27.396C120.815 27.8943 122.3 28.3064 123.776 28.6302L124.419 25.7ZM120.269 24.55L121.238 21.711C120.102 21.3231 119.065 20.8161 118.116 20.1929L116.469 22.7L114.821 25.2071C116.206 26.1173 117.702 26.8436 119.299 27.389L120.269 24.55ZM116.469 22.7L118.15 20.2151C117.413 19.7168 116.808 19.066 116.328 18.2192L113.719 19.7L111.11 21.1808C112.029 22.8007 113.258 24.1499 114.788 25.1848L116.469 22.7ZM113.719 19.7L116.344 18.2489C115.951 17.537 115.669 16.5024 115.669 15H112.669H109.669C109.669 17.2309 110.086 19.3296 111.093 21.1511L113.719 19.7ZM112.669 15H115.669C115.669 13.4252 116.093 12.0474 116.95 10.7856L114.469 9.1L111.987 7.41435C110.444 9.68592 109.669 12.2415 109.669 15H112.669ZM114.469 9.1L116.944 10.7957C117.804 9.53942 119.141 8.42875 121.137 7.54143L119.919 4.8L118.7 2.05856C115.897 3.30459 113.6 5.06058 111.994 7.4043L114.469 9.1ZM119.919 4.8L121.123 7.54761C123.068 6.69529 125.645 6.2 128.969 6.2V3.2V0.199999C125.093 0.199999 121.637 0.771372 118.714 2.05239L119.919 4.8ZM128.969 3.2V6.2C131.122 6.2 133.242 6.4273 135.331 6.88153L135.969 3.95L136.606 1.01847C134.096 0.472702 131.548 0.199999 128.969 0.199999V3.2ZM135.969 3.95L135.331 6.88153C137.373 7.32529 139.152 7.99357 140.696 8.86345L142.169 6.25L143.642 3.63654C141.518 2.43976 139.165 1.5747 136.606 1.01847L135.969 3.95ZM142.169 6.25L139.398 5.0996L135.848 13.6496L138.619 14.8L141.389 15.9504L144.939 7.40039L142.169 6.25ZM138.619 14.8L139.96 12.1167C138.07 11.1716 136.195 10.4431 134.338 9.95032L133.569 12.85L132.799 15.7497C134.209 16.1236 135.701 16.695 137.277 17.4833L138.619 14.8ZM133.569 12.85L134.353 9.95432C132.518 9.45732 130.687 9.2 128.869 9.2V12.2V15.2C130.117 15.2 131.42 15.376 132.785 15.7457L133.569 12.85ZM128.869 12.2V9.2C127.602 9.2 126.373 9.30676 125.307 9.62652L126.169 12.5L127.031 15.3735C127.298 15.2932 127.869 15.2 128.869 15.2V12.2ZM126.169 12.5L125.307 9.62652C124.38 9.9045 123.307 10.3843 122.489 11.2931L124.719 13.3L126.949 15.3069C126.889 15.3735 126.837 15.418 126.802 15.4441C126.769 15.47 126.75 15.4795 126.755 15.4767C126.761 15.4739 126.784 15.4614 126.831 15.4423C126.878 15.4233 126.944 15.3996 127.031 15.3735L126.169 12.5ZM124.719 13.3L122.376 11.4259C121.715 12.2528 121.319 13.2712 121.319 14.4H124.319H127.319C127.319 14.5407 127.294 14.6966 127.238 14.8502C127.183 15.0014 127.113 15.1096 127.061 15.1741L124.719 13.3ZM124.319 14.4H121.319C121.319 16.4754 122.653 17.8142 123.977 18.5075L125.369 15.85L126.761 13.1925C126.694 13.1575 126.841 13.2177 127.011 13.453C127.209 13.7261 127.319 14.0718 127.319 14.4H124.319ZM125.369 15.85L124.079 18.5586C125.076 19.0332 126.248 19.3777 127.514 19.6384L128.119 16.7L128.724 13.7616C127.723 13.5556 127.062 13.3335 126.659 13.1414L125.369 15.85ZM128.119 16.7L127.53 19.6417C128.702 19.8761 129.974 20.1271 131.344 20.3945L131.919 17.45L132.493 14.5055C131.13 14.2396 129.868 13.9905 128.707 13.7583L128.119 16.7ZM131.919 17.45L131.357 20.397C132.617 20.637 133.864 20.9673 135.099 21.389L136.069 18.55L137.038 15.711C135.54 15.1994 134.02 14.7964 132.48 14.503L131.919 17.45ZM136.069 18.55L135.099 21.389C136.228 21.7745 137.237 22.2753 138.138 22.8848L139.819 20.4L141.5 17.9151C140.134 16.9913 138.643 16.2588 137.038 15.7109L136.069 18.55ZM139.819 20.4L138.171 22.9071C138.934 23.4084 139.54 24.0541 140.01 24.8808L142.619 23.4L145.228 21.9192C144.297 20.2792 143.037 18.9249 141.466 17.8929L139.819 20.4ZM142.619 23.4L140.01 24.8808C140.389 25.5492 140.669 26.5375 140.669 28H143.669H146.669C146.669 25.7958 146.248 23.7175 145.228 21.9192L142.619 23.4ZM143.669 28H140.669C140.669 29.5135 140.243 30.8915 139.344 32.2043L141.819 33.9L144.294 35.5957C145.861 33.3085 146.669 30.7531 146.669 28H143.669ZM141.819 33.9L139.337 32.2144C138.51 33.432 137.188 34.5474 135.169 35.4728L136.419 38.2L137.669 40.9272C140.45 39.6526 142.727 37.9013 144.3 35.5856L141.819 33.9ZM136.419 38.2L135.2 35.4586C133.301 36.3026 130.733 36.8 127.369 36.8V39.8V42.8C131.271 42.8 134.736 42.2307 137.637 40.9414L136.419 38.2ZM172.47 38.5L171.404 41.3041L171.428 41.3131L171.451 41.3217L172.47 38.5ZM166.27 34.7L164.213 36.8834L164.223 36.8931L164.234 36.9028L166.27 34.7ZM162.22 28.9L159.467 30.0917L162.22 28.9ZM162.22 14.1L159.467 12.9083L162.22 14.1ZM166.27 8.3L164.234 6.09718L164.223 6.10686L164.213 6.11663L166.27 8.3ZM172.47 4.55L173.502 7.36706L173.513 7.36306L173.524 7.35899L172.47 4.55ZM189.37 5L188.126 7.72991L188.133 7.73285L188.139 7.73577L189.37 5ZM195.97 10.2L197.968 12.4381L200.042 10.5864L198.353 8.37765L195.97 10.2ZM188.52 16.85L186.172 18.7167L188.148 21.2033L190.518 19.0881L188.52 16.85ZM185.07 13.85L183.537 16.4286L183.578 16.4528L183.619 16.4757L185.07 13.85ZM177.52 13.35L178.634 16.1354L178.634 16.1354L177.52 13.35ZM174.92 15.1L172.752 13.0263L172.728 13.0515L172.705 13.0772L174.92 15.1ZM173.27 17.9L176.079 18.9534L176.085 18.9393L176.09 18.9252L173.27 17.9ZM173.27 25.15L170.451 26.1752L170.456 26.1893L170.461 26.2034L173.27 25.15ZM174.92 27.9L172.705 29.9228L172.728 29.9485L172.752 29.9737L174.92 27.9ZM177.52 29.65L176.406 32.4354L177.52 29.65ZM185.07 29.2L186.551 31.8091L186.562 31.8027L186.573 31.7963L185.07 29.2ZM188.52 26.15L190.518 23.9119L188.148 21.7967L186.172 24.2833L188.52 26.15ZM195.97 32.8L198.34 34.6394L200.057 32.4269L197.968 30.5619L195.97 32.8ZM189.37 38L190.614 40.7299L190.622 40.7264L190.63 40.7229L189.37 38ZM180.27 39.8V36.8C177.784 36.8 175.532 36.4161 173.489 35.6783L172.47 38.5L171.451 41.3217C174.208 42.3173 177.157 42.8 180.27 42.8V39.8ZM172.47 38.5L173.537 35.6959C171.51 34.9251 169.777 33.8563 168.307 32.4972L166.27 34.7L164.234 36.9028C166.297 38.8103 168.697 40.2749 171.404 41.3041L172.47 38.5ZM166.27 34.7L168.328 32.5166C166.898 31.1693 165.782 29.5756 164.973 27.7083L162.22 28.9L159.467 30.0917C160.592 32.6911 162.176 34.964 164.213 36.8834L166.27 34.7ZM162.22 28.9L164.973 27.7083C164.187 25.8904 163.77 23.8351 163.77 21.5H160.77H157.77C157.77 24.5649 158.321 27.4429 159.467 30.0917L162.22 28.9ZM160.77 21.5H163.77C163.77 19.1649 164.187 17.1096 164.973 15.2917L162.22 14.1L159.467 12.9083C158.321 15.5571 157.77 18.4351 157.77 21.5H160.77ZM162.22 14.1L164.973 15.2917C165.782 13.4244 166.898 11.8307 168.328 10.4834L166.27 8.3L164.213 6.11663C162.176 8.03597 160.592 10.3089 159.467 12.9083L162.22 14.1ZM166.27 8.3L168.307 10.5028C169.769 9.15134 171.49 8.10398 173.502 7.36706L172.47 4.55L171.439 1.73294C168.718 2.72934 166.305 4.18199 164.234 6.09718L166.27 8.3ZM172.47 4.55L173.524 7.35899C175.557 6.59647 177.797 6.2 180.27 6.2V3.2V0.199999C177.144 0.199999 174.184 0.703525 171.417 1.74101L172.47 4.55ZM180.27 3.2V6.2C183.353 6.2 185.95 6.73797 188.126 7.72991L189.37 5L190.614 2.27009C187.524 0.862026 184.054 0.199999 180.27 0.199999V3.2ZM189.37 5L188.139 7.73577C190.364 8.73682 192.164 10.1611 193.587 12.0223L195.97 10.2L198.353 8.37765C196.31 5.70559 193.71 3.66317 190.601 2.26423L189.37 5ZM195.97 10.2L193.973 7.96192L186.523 14.6119L188.52 16.85L190.518 19.0881L197.968 12.4381L195.97 10.2ZM188.52 16.85L190.869 14.9833C189.625 13.4189 188.182 12.1418 186.521 11.2243L185.07 13.85L183.619 16.4757C184.492 16.9582 185.349 17.6811 186.172 18.7167L188.52 16.85ZM185.07 13.85L186.604 11.2714C184.864 10.2372 182.926 9.75 180.87 9.75V12.75V15.75C181.948 15.75 182.81 15.9961 183.537 16.4286L185.07 13.85ZM180.87 12.75V9.75C179.31 9.75 177.808 10.0038 176.406 10.5646L177.52 13.35L178.634 16.1354C179.233 15.8962 179.964 15.75 180.87 15.75V12.75ZM177.52 13.35L176.406 10.5646C175.014 11.1213 173.787 11.945 172.752 13.0263L174.92 15.1L177.088 17.1737C177.521 16.7216 178.026 16.3787 178.634 16.1354L177.52 13.35ZM174.92 15.1L172.705 13.0772C171.709 14.1684 170.968 15.4528 170.451 16.8748L173.27 17.9L176.09 18.9252C176.373 18.1472 176.732 17.565 177.136 17.1228L174.92 15.1ZM173.27 17.9L170.461 16.8466C169.915 18.3022 169.67 19.8671 169.67 21.5H172.67H175.67C175.67 20.4663 175.825 19.6311 176.079 18.9534L173.27 17.9ZM172.67 21.5H169.67C169.67 23.1349 169.916 24.7043 170.451 26.1752L173.27 25.15L176.09 24.1248C175.825 23.3957 175.67 22.5317 175.67 21.5H172.67ZM173.27 25.15L170.461 26.2034C170.982 27.5931 171.723 28.8475 172.705 29.9228L174.92 27.9L177.136 25.8772C176.718 25.4192 176.358 24.8402 176.079 24.0966L173.27 25.15ZM174.92 27.9L172.752 29.9737C173.787 31.055 175.014 31.8787 176.406 32.4354L177.52 29.65L178.634 26.8646C178.026 26.6213 177.521 26.2784 177.088 25.8263L174.92 27.9ZM177.52 29.65L176.406 32.4354C177.808 32.9962 179.31 33.25 180.87 33.25V30.25V27.25C179.964 27.25 179.233 27.1038 178.634 26.8646L177.52 29.65ZM180.87 30.25V33.25C182.9 33.25 184.82 32.7915 186.551 31.8091L185.07 29.2L183.589 26.5909C182.854 27.0085 181.974 27.25 180.87 27.25V30.25ZM185.07 29.2L186.573 31.7963C188.206 30.8512 189.633 29.5714 190.869 28.0167L188.52 26.15L186.172 24.2833C185.341 25.3286 184.468 26.0821 183.567 26.6037L185.07 29.2ZM188.52 26.15L186.523 28.3881L193.973 35.0381L195.97 32.8L197.968 30.5619L190.518 23.9119L188.52 26.15ZM195.97 32.8L193.6 30.9606C192.173 32.7998 190.36 34.237 188.111 35.2771L189.37 38L190.63 40.7229C193.714 39.2963 196.301 37.2669 198.34 34.6394L195.97 32.8ZM189.37 38L188.126 35.2701C185.95 36.262 183.353 36.8 180.27 36.8V39.8V42.8C184.054 42.8 187.524 42.138 190.614 40.7299L189.37 38ZM210.177 17V14H207.177V17H210.177ZM225.777 17H228.777V14H225.777V17ZM225.777 25.5V28.5H228.777V25.5H225.777ZM210.177 25.5H207.177V28.5H210.177V25.5ZM210.977 30.1H207.977V33.1H210.977V30.1ZM228.477 30.1H231.477V27.1H228.477V30.1ZM228.477 39V42H231.477V39H228.477ZM199.377 39H196.377V42H199.377V39ZM199.377 4V0.999998H196.377V4H199.377ZM227.827 4H230.827V0.999998H227.827V4ZM227.827 12.9V15.9H230.827V12.9H227.827ZM210.977 12.9V9.9H207.977V12.9H210.977ZM210.177 17V20H225.777V17V14H210.177V17ZM225.777 17H222.777V25.5H225.777H228.777V17H225.777ZM225.777 25.5V22.5H210.177V25.5V28.5H225.777V25.5ZM210.177 25.5H213.177V17H210.177H207.177V25.5H210.177ZM210.977 30.1V33.1H228.477V30.1V27.1H210.977V30.1ZM228.477 30.1H225.477V39H228.477H231.477V30.1H228.477ZM228.477 39V36H199.377V39V42H228.477V39ZM199.377 39H202.377V4H199.377H196.377V39H199.377ZM199.377 4V7H227.827V4V0.999998H199.377V4ZM227.827 4H224.827V12.9H227.827H230.827V4H227.827ZM227.827 12.9V9.9H210.977V12.9V15.9H227.827V12.9ZM210.977 12.9H207.977V30.1H210.977H213.977V12.9H210.977ZM233.02 39H230.02V42H233.02V39ZM233.02 4V0.999998H230.02V4H233.02ZM258.32 5.6L257.087 8.33504L257.094 8.33825L257.102 8.34143L258.32 5.6ZM263.87 10.2L261.355 11.835L261.361 11.8447L261.367 11.8543L263.87 10.2ZM263.87 24.2L266.359 25.874L266.366 25.8642L266.373 25.8543L263.87 24.2ZM258.32 28.65L257.134 25.8945L257.127 25.8976L257.119 25.9006L258.32 28.65ZM239.57 30.2L237.534 27.9964L231.901 33.2H239.57V30.2ZM244.82 25.35H247.82V18.4944L242.784 23.1464L244.82 25.35ZM244.82 39V42H247.82V39H244.82ZM253.97 39L251.483 40.6776L252.375 42H253.97V39ZM245.37 26.25V23.25H239.728L242.883 27.9276L245.37 26.25ZM257.87 26.25L260.348 24.5591L259.455 23.25H257.87V26.25ZM266.57 39V42H272.249L269.048 37.3091L266.57 39ZM244.82 26.65L242.679 28.7512L247.82 33.9904V26.65H244.82ZM239.57 21.3V18.3H232.423L237.429 23.4012L239.57 21.3ZM252.72 20.2L250.693 17.9885L250.669 18.0101L250.646 18.0321L252.72 20.2ZM252.72 14.2L250.646 16.3679L250.669 16.3899L250.693 16.4115L252.72 14.2ZM239.57 13.1L237.429 10.9988L232.423 16.1H239.57V13.1ZM244.82 7.75H247.82V0.40962L242.679 5.64879L244.82 7.75ZM233.02 39H236.02V4H233.02H230.02V39H233.02ZM233.02 4V7H249.87V4V0.999998H233.02V4ZM249.87 4V7C252.818 7 255.195 7.48198 257.087 8.33504L258.32 5.6L259.553 2.86495C256.712 1.58468 253.455 0.999998 249.87 0.999998V4ZM258.32 5.6L257.102 8.34143C259.027 9.19717 260.402 10.3701 261.355 11.835L263.87 10.2L266.385 8.56503C264.737 6.02991 262.413 4.13616 259.538 2.85856L258.32 5.6ZM263.87 10.2L261.367 11.8543C262.298 13.2617 262.82 15.0004 262.82 17.2H265.82H268.82C268.82 13.9996 268.042 11.0716 266.373 8.5457L263.87 10.2ZM265.82 17.2H262.82C262.82 19.3996 262.298 21.1383 261.367 22.5457L263.87 24.2L266.373 25.8543C268.042 23.3284 268.82 20.4004 268.82 17.2H265.82ZM263.87 24.2L261.38 22.526C260.44 23.9245 259.071 25.0605 257.134 25.8945L258.32 28.65L259.506 31.4055C262.369 30.1728 264.7 28.3421 266.359 25.874L263.87 24.2ZM258.32 28.65L257.119 25.9006C255.218 26.7311 252.829 27.2 249.87 27.2V30.2V33.2C253.444 33.2 256.689 32.6356 259.52 31.3994L258.32 28.65ZM249.87 30.2V27.2H239.57V30.2V33.2H249.87V30.2ZM239.57 30.2L241.606 32.4036L246.856 27.5536L244.82 25.35L242.784 23.1464L237.534 27.9964L239.57 30.2ZM244.82 25.35H241.82V39H244.82H247.82V25.35H244.82ZM244.82 39V36H233.02V39V42H244.82V39ZM253.97 39L256.457 37.3224L247.857 24.5724L245.37 26.25L242.883 27.9276L251.483 40.6776L253.97 39ZM245.37 26.25V29.25H257.87V26.25V23.25H245.37V26.25ZM257.87 26.25L255.392 27.9409L264.092 40.6909L266.57 39L269.048 37.3091L260.348 24.5591L257.87 26.25ZM266.57 39V36H253.97V39V42H266.57V39ZM244.82 26.65L246.961 24.5488L241.711 19.1988L239.57 21.3L237.429 23.4012L242.679 28.7512L244.82 26.65ZM239.57 21.3V24.3H249.12V21.3V18.3H239.57V21.3ZM249.12 21.3V24.3C251.121 24.3 253.232 23.8615 254.794 22.3679L252.72 20.2L250.646 18.0321C250.674 18.0052 250.386 18.3 249.12 18.3V21.3ZM252.72 20.2L254.747 22.4115C256.272 21.0136 256.92 19.1537 256.92 17.2H253.92H250.92C250.92 17.7797 250.768 17.9197 250.693 17.9885L252.72 20.2ZM253.92 17.2H256.92C256.92 15.2463 256.272 13.3864 254.747 11.9885L252.72 14.2L250.693 16.4115C250.768 16.4803 250.92 16.6203 250.92 17.2H253.92ZM252.72 14.2L254.794 12.0321C253.232 10.5385 251.121 10.1 249.12 10.1V13.1V16.1C250.386 16.1 250.674 16.3948 250.646 16.3679L252.72 14.2ZM249.12 13.1V10.1H239.57V13.1V16.1H249.12V13.1ZM239.57 13.1L241.711 15.2012L246.961 9.85122L244.82 7.75L242.679 5.64879L237.429 10.9988L239.57 13.1ZM244.82 7.75H241.82V26.65H244.82H247.82V7.75H244.82ZM277.388 39H274.388V42H277.388V39ZM277.388 13.15H280.388V10.15H277.388V13.15ZM267.138 13.15H264.138V16.15H267.138V13.15ZM267.138 4V0.999998H264.138V4H267.138ZM299.438 4H302.438V0.999998H299.438V4ZM299.438 13.15V16.15H302.438V13.15H299.438ZM289.188 13.15V10.15H286.188V13.15H289.188ZM289.188 39V42H292.188V39H289.188ZM277.388 39H280.388V13.15H277.388H274.388V39H277.388ZM277.388 13.15V10.15H267.138V13.15V16.15H277.388V13.15ZM267.138 13.15H270.138V4H267.138H264.138V13.15H267.138ZM267.138 4V7H299.438V4V0.999998H267.138V4ZM299.438 4H296.438V13.15H299.438H302.438V4H299.438ZM299.438 13.15V10.15H289.188V13.15V16.15H299.438V13.15ZM289.188 13.15H286.188V39H289.188H292.188V13.15H289.188ZM289.188 39V36H277.388V39V42H289.188V39ZM302.502 39H299.502V42H302.502V39ZM302.502 4V0.999998H299.502V4H302.502ZM314.302 4H317.302V0.999998H314.302V4ZM314.302 39V42H317.302V39H314.302ZM302.502 39H305.502V4H302.502H299.502V39H302.502ZM302.502 4V7H314.302V4V0.999998H302.502V4ZM314.302 4H311.302V39H314.302H317.302V4H314.302ZM314.302 39V36H302.502V39V42H314.302V39ZM330.983 18.9V15.9H327.983V18.9H330.983ZM346.383 18.9H349.383V15.9H346.383V18.9ZM346.383 27.8V30.8H349.383V27.8H346.383ZM330.983 27.8H327.983V30.8H330.983V27.8ZM331.783 39V42H334.783V39H331.783ZM319.983 39H316.983V42H319.983V39ZM319.983 4V0.999998H316.983V4H319.983ZM348.433 4H351.433V0.999998H348.433V4ZM348.433 12.9V15.9H351.433V12.9H348.433ZM331.783 12.9V9.9H328.783V12.9H331.783ZM330.983 18.9V21.9H346.383V18.9V15.9H330.983V18.9ZM346.383 18.9H343.383V27.8H346.383H349.383V18.9H346.383ZM346.383 27.8V24.8H330.983V27.8V30.8H346.383V27.8ZM330.983 27.8H333.983V18.9H330.983H327.983V27.8H330.983ZM331.783 39V36H319.983V39V42H331.783V39ZM319.983 39H322.983V4H319.983H316.983V39H319.983ZM319.983 4V7H348.433V4V0.999998H319.983V4ZM348.433 4H345.433V12.9H348.433H351.433V4H348.433ZM348.433 12.9V9.9H331.783V12.9V15.9H348.433V12.9ZM331.783 12.9H328.783V39H331.783H334.783V12.9H331.783ZM352.161 39H349.161V42H352.161V39ZM352.161 4V0.999998H349.161V4H352.161ZM363.961 4H366.961V0.999998H363.961V4ZM363.961 39V42H366.961V39H363.961ZM352.161 39H355.161V4H352.161H349.161V39H352.161ZM352.161 4V7H363.961V4V0.999998H352.161V4ZM363.961 4H360.961V39H363.961H366.961V4H363.961ZM363.961 39V36H352.161V39V42H363.961V39ZM380.441 17V14H377.441V17H380.441ZM396.041 17H399.041V14H396.041V17ZM396.041 25.5V28.5H399.041V25.5H396.041ZM380.441 25.5H377.441V28.5H380.441V25.5ZM381.241 30.1H378.241V33.1H381.241V30.1ZM398.741 30.1H401.741V27.1H398.741V30.1ZM398.741 39V42H401.741V39H398.741ZM369.641 39H366.641V42H369.641V39ZM369.641 4V0.999998H366.641V4H369.641ZM398.091 4H401.091V0.999998H398.091V4ZM398.091 12.9V15.9H401.091V12.9H398.091ZM381.241 12.9V9.9H378.241V12.9H381.241ZM380.441 17V20H396.041V17V14H380.441V17ZM396.041 17H393.041V25.5H396.041H399.041V17H396.041ZM396.041 25.5V22.5H380.441V25.5V28.5H396.041V25.5ZM380.441 25.5H383.441V17H380.441H377.441V25.5H380.441ZM381.241 30.1V33.1H398.741V30.1V27.1H381.241V30.1ZM398.741 30.1H395.741V39H398.741H401.741V30.1H398.741ZM398.741 39V36H369.641V39V42H398.741V39ZM369.641 39H372.641V4H369.641H366.641V39H369.641ZM369.641 4V7H398.091V4V0.999998H369.641V4ZM398.091 4H395.091V12.9H398.091H401.091V4H398.091ZM398.091 12.9V9.9H381.241V12.9V15.9H398.091V12.9ZM381.241 12.9H378.241V30.1H381.241H384.241V12.9H381.241ZM403.284 39H400.284V42H403.284V39ZM403.284 4V0.999998H400.284V4H403.284ZM430.834 6.15L429.529 8.85124L429.541 8.85722L429.553 8.86307L430.834 6.15ZM437.784 12.15L435.258 13.769L437.784 12.15ZM437.784 30.85L440.309 32.469L440.314 32.4617L440.319 32.4544L437.784 30.85ZM430.834 36.9L432.114 39.6131L432.126 39.6072L432.139 39.6012L430.834 36.9ZM415.084 29.8H412.084V32.8H415.084V29.8ZM424.384 28.85L423.042 26.1667L423.028 26.1739L423.013 26.1813L424.384 28.85ZM427.334 26.05L429.943 27.5308L429.951 27.516L429.959 27.5011L427.334 26.05ZM427.334 16.95L429.943 15.4692V15.4692L427.334 16.95ZM424.384 14.15L423.013 16.8187L423.028 16.8261L423.042 16.8333L424.384 14.15ZM415.084 13.2V10.2H412.084V13.2H415.084ZM403.284 39H406.284V4H403.284H400.284V39H403.284ZM403.284 4V7H420.534V4V0.999998H403.284V4ZM420.534 4V7C424.064 7 427.037 7.64746 429.529 8.85124L430.834 6.15L432.139 3.44876C428.697 1.78587 424.803 0.999998 420.534 0.999998V4ZM430.834 6.15L429.553 8.86307C432.043 10.0382 433.915 11.6733 435.258 13.769L437.784 12.15L440.309 10.531C438.319 7.42667 435.557 5.06179 432.114 3.43693L430.834 6.15ZM437.784 12.15L435.258 13.769C436.566 15.8102 437.284 18.327 437.284 21.45H440.284H443.284C443.284 17.373 442.334 13.6898 440.309 10.531L437.784 12.15ZM440.284 21.45H437.284C437.284 24.6113 436.564 27.1674 435.249 29.2456L437.784 30.85L440.319 32.4544C442.337 29.266 443.284 25.5554 443.284 21.45H440.284ZM437.784 30.85L435.258 29.231C433.911 31.333 432.031 32.9897 429.529 34.1988L430.834 36.9L432.139 39.6012C435.57 37.9436 438.323 35.567 440.309 32.469L437.784 30.85ZM430.834 36.9L429.553 34.1869C427.056 35.3656 424.074 36 420.534 36V39V42C424.794 42 428.678 41.2344 432.114 39.6131L430.834 36.9ZM420.534 39V36H403.284V39V42H420.534V39ZM415.084 29.8V32.8H420.034V29.8V26.8H415.084V29.8ZM420.034 29.8V32.8C422.081 32.8 424.019 32.4095 425.754 31.5187L424.384 28.85L423.013 26.1813C422.281 26.5571 421.319 26.8 420.034 26.8V29.8ZM424.384 28.85L425.725 31.5333C427.525 30.6333 428.949 29.2811 429.943 27.5308L427.334 26.05L424.725 24.5692C424.318 25.2856 423.775 25.8 423.042 26.1667L424.384 28.85ZM427.334 26.05L429.959 27.5011C430.958 25.6944 431.384 23.6356 431.384 21.45H428.384H425.384C425.384 22.8644 425.109 23.8723 424.708 24.5989L427.334 26.05ZM428.384 21.45H431.384C431.384 19.2902 430.955 17.2522 429.943 15.4692L427.334 16.95L424.725 18.4308C425.113 19.1145 425.384 20.0764 425.384 21.45H428.384ZM427.334 16.95L429.943 15.4692C428.949 13.7189 427.525 12.3666 425.725 11.4667L424.384 14.15L423.042 16.8333C423.775 17.2 424.318 17.7144 424.725 18.4308L427.334 16.95ZM424.384 14.15L425.754 11.4813C424.019 10.5904 422.081 10.2 420.034 10.2V13.2V16.2C421.319 16.2 422.281 16.4429 423.013 16.8187L424.384 14.15ZM420.034 13.2V10.2H415.084V13.2V16.2H420.034V13.2ZM415.084 13.2H412.084V29.8H415.084H418.084V13.2H415.084ZM459.582 39H456.582V42H459.582V39ZM459.582 4V0.999998H456.582V4H459.582ZM484.882 5.6L483.65 8.33504L483.657 8.33825L483.664 8.34143L484.882 5.6ZM490.432 10.2L487.917 11.835L487.923 11.8447L487.93 11.8543L490.432 10.2ZM490.432 24.2L492.922 25.874L492.929 25.8642L492.935 25.8543L490.432 24.2ZM484.882 28.65L483.696 25.8945L483.689 25.8976L483.682 25.9006L484.882 28.65ZM466.132 30.2L464.097 27.9964L458.464 33.2H466.132V30.2ZM471.382 25.35H474.382V18.4944L469.347 23.1464L471.382 25.35ZM471.382 39V42H474.382V39H471.382ZM480.532 39L478.045 40.6776L478.937 42H480.532V39ZM471.932 26.25V23.25H466.29L469.445 27.9276L471.932 26.25ZM484.432 26.25L486.91 24.5591L486.017 23.25H484.432V26.25ZM493.132 39V42H498.811L495.611 37.3091L493.132 39ZM471.382 26.65L469.241 28.7512L474.382 33.9904V26.65H471.382ZM466.132 21.3V18.3H458.985L463.991 23.4012L466.132 21.3ZM479.282 20.2L477.255 17.9885L477.232 18.0101L477.209 18.0321L479.282 20.2ZM479.282 14.2L477.209 16.3679L477.232 16.3899L477.255 16.4115L479.282 14.2ZM466.132 13.1L463.991 10.9988L458.985 16.1H466.132V13.1ZM471.382 7.75H474.382V0.40962L469.241 5.64879L471.382 7.75ZM459.582 39H462.582V4H459.582H456.582V39H459.582ZM459.582 4V7H476.432V4V0.999998H459.582V4ZM476.432 4V7C479.38 7 481.757 7.48198 483.65 8.33504L484.882 5.6L486.115 2.86495C483.275 1.58468 480.018 0.999998 476.432 0.999998V4ZM484.882 5.6L483.664 8.34143C485.589 9.19717 486.965 10.3701 487.917 11.835L490.432 10.2L492.948 8.56503C491.3 6.02991 488.975 4.13616 486.101 2.85856L484.882 5.6ZM490.432 10.2L487.93 11.8543C488.86 13.2617 489.382 15.0004 489.382 17.2H492.382H495.382C495.382 13.9996 494.605 11.0716 492.935 8.5457L490.432 10.2ZM492.382 17.2H489.382C489.382 19.3996 488.86 21.1383 487.93 22.5457L490.432 24.2L492.935 25.8543C494.605 23.3284 495.382 20.4004 495.382 17.2H492.382ZM490.432 24.2L487.943 22.526C487.003 23.9245 485.633 25.0605 483.696 25.8945L484.882 28.65L486.069 31.4055C488.932 30.1728 491.262 28.3421 492.922 25.874L490.432 24.2ZM484.882 28.65L483.682 25.9006C481.78 26.7311 479.392 27.2 476.432 27.2V30.2V33.2C480.007 33.2 483.251 32.6356 486.083 31.3994L484.882 28.65ZM476.432 30.2V27.2H466.132V30.2V33.2H476.432V30.2ZM466.132 30.2L468.168 32.4036L473.418 27.5536L471.382 25.35L469.347 23.1464L464.097 27.9964L466.132 30.2ZM471.382 25.35H468.382V39H471.382H474.382V25.35H471.382ZM471.382 39V36H459.582V39V42H471.382V39ZM480.532 39L483.02 37.3224L474.42 24.5724L471.932 26.25L469.445 27.9276L478.045 40.6776L480.532 39ZM471.932 26.25V29.25H484.432V26.25V23.25H471.932V26.25ZM484.432 26.25L481.954 27.9409L490.654 40.6909L493.132 39L495.611 37.3091L486.91 24.5591L484.432 26.25ZM493.132 39V36H480.532V39V42H493.132V39ZM471.382 26.65L473.524 24.5488L468.274 19.1988L466.132 21.3L463.991 23.4012L469.241 28.7512L471.382 26.65ZM466.132 21.3V24.3H475.682V21.3V18.3H466.132V21.3ZM475.682 21.3V24.3C477.683 24.3 479.795 23.8615 481.356 22.3679L479.282 20.2L477.209 18.0321C477.237 18.0052 476.948 18.3 475.682 18.3V21.3ZM479.282 20.2L481.31 22.4115C482.835 21.0136 483.482 19.1537 483.482 17.2H480.482H477.482C477.482 17.7797 477.33 17.9197 477.255 17.9885L479.282 20.2ZM480.482 17.2H483.482C483.482 15.2463 482.835 13.3864 481.31 11.9885L479.282 14.2L477.255 16.4115C477.33 16.4803 477.482 16.6203 477.482 17.2H480.482ZM479.282 14.2L481.356 12.0321C479.795 10.5385 477.683 10.1 475.682 10.1V13.1V16.1C476.948 16.1 477.237 16.3948 477.209 16.3679L479.282 14.2ZM475.682 13.1V10.1H466.132V13.1V16.1H475.682V13.1ZM466.132 13.1L468.274 15.2012L473.524 9.85122L471.382 7.75L469.241 5.64879L463.991 10.9988L466.132 13.1ZM471.382 7.75H468.382V26.65H471.382H474.382V7.75H471.382ZM507.288 38.45L506.235 41.259L506.248 41.2637L507.288 38.45ZM501.038 34.65L498.98 36.8322L498.991 36.8426L499.002 36.8528L501.038 34.65ZM496.888 28.8L494.135 29.9917L494.143 30.0089L494.15 30.026L496.888 28.8ZM496.888 14.2L494.15 12.974L494.146 12.9836L494.142 12.9932L496.888 14.2ZM501.038 8.4L503.075 10.6028L503.086 10.5926L503.097 10.5822L501.038 8.4ZM507.288 4.55L506.248 1.73626L506.235 1.74101L507.288 4.55ZM523.088 4.55L522.035 7.35899V7.35899L523.088 4.55ZM529.338 8.4L527.28 10.5822L527.291 10.5926L527.302 10.6028L529.338 8.4ZM533.438 14.2L530.685 15.3917L530.696 15.4166L530.707 15.4414L533.438 14.2ZM533.438 28.8L530.7 27.574L530.693 27.5911L530.685 27.6083L533.438 28.8ZM529.338 34.65L531.375 36.8528L531.386 36.8426L531.397 36.8322L529.338 34.65ZM523.088 38.45L522.035 35.641L523.088 38.45ZM518.238 29.65L517.091 26.8779L517.074 26.8851L517.057 26.8926L518.238 29.65ZM520.738 27.95L518.57 25.8763L518.568 25.8786L520.738 27.95ZM522.438 25.2L525.247 26.2534L525.253 26.2393L525.258 26.2252L522.438 25.2ZM522.438 17.85L519.619 18.8752L519.624 18.8893L519.629 18.9034L522.438 17.85ZM520.738 15.1L518.523 17.1228L518.569 17.1731L518.617 17.2213L520.738 15.1ZM518.238 13.35L517.057 16.1074L517.074 16.1149L517.091 16.1221L518.238 13.35ZM512.088 13.35L510.941 10.5779L510.924 10.5851L510.907 10.5926L512.088 13.35ZM509.588 15.1L507.42 13.0263L507.418 13.0286L509.588 15.1ZM507.938 17.85L510.747 18.9034L510.753 18.8893L510.758 18.8752L507.938 17.85ZM507.938 25.2L505.119 26.2252L505.124 26.2393L505.129 26.2534L507.938 25.2ZM509.588 27.95L507.373 29.9728L507.419 30.0231L507.467 30.0713L509.588 27.95ZM512.088 29.65L510.907 32.4074L510.924 32.4149L510.941 32.4221L512.088 29.65ZM515.188 39.8V36.8C512.677 36.8 510.4 36.4022 508.329 35.6363L507.288 38.45L506.248 41.2637C509.043 42.2978 512.032 42.8 515.188 42.8V39.8ZM507.288 38.45L508.342 35.641C506.281 34.8685 504.538 33.7998 503.075 32.4472L501.038 34.65L499.002 36.8528C501.072 38.7669 503.495 40.2315 506.235 41.259L507.288 38.45ZM501.038 34.65L503.097 32.4678C501.62 31.0742 500.466 29.4498 499.626 27.574L496.888 28.8L494.15 30.026C495.31 32.6169 496.924 34.8925 498.98 36.8322L501.038 34.65ZM496.888 28.8L499.641 27.6083C498.851 25.7812 498.438 23.7574 498.438 21.5H495.438H492.438C492.438 24.5092 492.993 27.3521 494.135 29.9917L496.888 28.8ZM495.438 21.5H498.438C498.438 19.203 498.853 17.1866 499.635 15.4068L496.888 14.2L494.142 12.9932C492.99 15.6134 492.438 18.4636 492.438 21.5H495.438ZM496.888 14.2L499.626 15.426C500.464 13.5558 501.611 11.9565 503.075 10.6028L501.038 8.4L499.002 6.19718C496.933 8.11021 495.313 10.3775 494.15 12.974L496.888 14.2ZM501.038 8.4L503.097 10.5822C504.558 9.20418 506.294 8.12683 508.342 7.35899L507.288 4.55L506.235 1.74101C503.482 2.77317 501.052 4.26249 498.98 6.21782L501.038 8.4ZM507.288 4.55L508.329 7.36371C510.4 6.59778 512.677 6.2 515.188 6.2V3.2V0.199999C512.032 0.199999 509.043 0.702213 506.248 1.73629L507.288 4.55ZM515.188 3.2V6.2C517.738 6.2 520.009 6.59936 522.035 7.35899L523.088 4.55L524.142 1.74101C521.367 0.700639 518.372 0.199999 515.188 0.199999V3.2ZM523.088 4.55L522.035 7.35899C524.082 8.12683 525.819 9.20418 527.28 10.5822L529.338 8.4L531.397 6.21782C529.324 4.26249 526.894 2.77317 524.142 1.74101L523.088 4.55ZM529.338 8.4L527.302 10.6028C528.758 11.9493 529.882 13.5371 530.685 15.3917L533.438 14.2L536.191 13.0083C535.061 10.3963 533.452 8.11734 531.375 6.19718L529.338 8.4ZM533.438 14.2L530.707 15.4414C531.512 17.2128 531.938 19.2169 531.938 21.5H534.938H537.938C537.938 18.4498 537.364 15.5872 536.169 12.9586L533.438 14.2ZM534.938 21.5H531.938C531.938 23.7434 531.515 25.755 530.7 27.574L533.438 28.8L536.176 30.026C537.362 27.3783 537.938 24.5232 537.938 21.5H534.938ZM533.438 28.8L530.685 27.6083C529.88 29.4685 528.749 31.0813 527.28 32.4678L529.338 34.65L531.397 36.8322C533.461 34.8854 535.063 32.5981 536.191 29.9917L533.438 28.8ZM529.338 34.65L527.302 32.4472C525.839 33.7998 524.095 34.8685 522.035 35.641L523.088 38.45L524.142 41.259C526.881 40.2315 529.305 38.7669 531.375 36.8528L529.338 34.65ZM523.088 38.45L522.035 35.641C520.009 36.4006 517.738 36.8 515.188 36.8V39.8V42.8C518.372 42.8 521.367 42.2994 524.142 41.259L523.088 38.45ZM515.188 30.25V33.25C516.66 33.25 518.083 32.9804 519.42 32.4074L518.238 29.65L517.057 26.8926C516.527 27.1196 515.916 27.25 515.188 27.25V30.25ZM518.238 29.65L519.385 32.4221C520.725 31.8675 521.911 31.0667 522.908 30.0214L520.738 27.95L518.568 25.8786C518.166 26.2999 517.684 26.6325 517.091 26.8779L518.238 29.65ZM520.738 27.95L522.906 30.0237C523.94 28.9426 524.715 27.6716 525.247 26.2534L522.438 25.2L519.629 24.1466C519.361 24.8617 519.003 25.424 518.57 25.8763L520.738 27.95ZM522.438 25.2L525.258 26.2252C525.795 24.7466 526.038 23.1589 526.038 21.5H523.038H520.038C520.038 22.5745 519.881 23.4534 519.619 24.1748L522.438 25.2ZM523.038 21.5H526.038C526.038 19.8435 525.796 18.2599 525.247 16.7966L522.438 17.85L519.629 18.9034C519.881 19.5734 520.038 20.4231 520.038 21.5H523.038ZM522.438 17.85L525.258 16.8248C524.727 15.366 523.941 14.0596 522.86 12.9787L520.738 15.1L518.617 17.2213C519.003 17.607 519.349 18.134 519.619 18.8752L522.438 17.85ZM520.738 15.1L522.954 13.0772C521.955 11.9828 520.756 11.1449 519.385 10.5779L518.238 13.35L517.091 16.1221C517.654 16.3551 518.122 16.6838 518.523 17.1228L520.738 15.1ZM518.238 13.35L519.42 10.5926C518.083 10.0196 516.66 9.75 515.188 9.75V12.75V15.75C515.916 15.75 516.527 15.8804 517.057 16.1074L518.238 13.35ZM515.188 12.75V9.75C513.715 9.75 512.29 10.0198 510.941 10.5779L512.088 13.35L513.235 16.122C513.82 15.8802 514.461 15.75 515.188 15.75V12.75ZM512.088 13.35L510.907 10.5926C509.585 11.1589 508.42 11.981 507.42 13.0263L509.588 15.1L511.756 17.1737C512.223 16.6857 512.725 16.3411 513.27 16.1074L512.088 13.35ZM509.588 15.1L507.418 13.0286C506.391 14.1049 505.639 15.3947 505.119 16.8248L507.938 17.85L510.758 18.8752C511.038 18.1053 511.386 17.5618 511.758 17.1714L509.588 15.1ZM507.938 17.85L505.129 16.7966C504.581 18.2599 504.338 19.8435 504.338 21.5H507.338H510.338C510.338 20.4231 510.496 19.5734 510.747 18.9034L507.938 17.85ZM507.338 21.5H504.338C504.338 23.1589 504.581 24.7466 505.119 26.2252L507.938 25.2L510.758 24.1748C510.495 23.4534 510.338 22.5745 510.338 21.5H507.338ZM507.938 25.2L505.129 26.2534C505.65 27.6431 506.391 28.8975 507.373 29.9728L509.588 27.95L511.804 25.9272C511.386 25.4692 511.026 24.8902 510.747 24.1466L507.938 25.2ZM509.588 27.95L507.467 30.0713C508.464 31.0686 509.615 31.8538 510.907 32.4074L512.088 29.65L513.27 26.8926C512.695 26.6461 512.179 26.298 511.71 25.8287L509.588 27.95ZM512.088 29.65L510.941 32.4221C512.29 32.9802 513.715 33.25 515.188 33.25V30.25V27.25C514.461 27.25 513.82 27.1198 513.235 26.8779L512.088 29.65ZM543.421 35.45L541.336 37.607L543.421 35.45ZM538.921 4V0.999998H535.921V4H538.921ZM550.721 4H553.721V0.999998H550.721V4ZM552.171 28.6L549.889 30.5468L549.903 30.5637L549.918 30.5803L552.171 28.6ZM559.971 28.6L557.689 26.6532L557.684 26.6591L559.971 28.6ZM561.421 4V0.999998H558.421V4H561.421ZM573.021 4H576.021V0.999998H573.021V4ZM568.521 35.45L566.436 33.293L568.521 35.45ZM555.971 39.8V36.8C551.151 36.8 547.8 35.5102 545.506 33.293L543.421 35.45L541.336 37.607C545.042 41.1898 550.058 42.8 555.971 42.8V39.8ZM543.421 35.45L545.506 33.293C543.232 31.0945 541.921 27.8894 541.921 23.25H538.921H535.921C535.921 29.0773 537.61 34.0055 541.336 37.607L543.421 35.45ZM538.921 23.25H541.921V4H538.921H535.921V23.25H538.921ZM538.921 4V7H550.721V4V0.999998H538.921V4ZM550.721 4H547.721V22.9H550.721H553.721V4H550.721ZM550.721 22.9H547.721C547.721 25.7753 548.212 28.5814 549.889 30.5468L552.171 28.6L554.454 26.6532C554.197 26.3519 553.721 25.3581 553.721 22.9H550.721ZM552.171 28.6L549.918 30.5803C551.523 32.4076 553.686 33.25 556.071 33.25V30.25V27.25C555.189 27.25 554.752 26.9924 554.425 26.6197L552.171 28.6ZM556.071 30.25V33.25C558.466 33.25 560.664 32.4208 562.259 30.5409L559.971 28.6L557.684 26.6591C557.412 26.9792 557.009 27.25 556.071 27.25V30.25ZM559.971 28.6L562.254 30.5468C563.93 28.5814 564.421 25.7753 564.421 22.9H561.421H558.421C558.421 25.3581 557.945 26.3519 557.689 26.6532L559.971 28.6ZM561.421 22.9H564.421V4H561.421H558.421V22.9H561.421ZM561.421 4V7H573.021V4V0.999998H561.421V4ZM573.021 4H570.021V23.25H573.021H576.021V4H573.021ZM573.021 23.25H570.021C570.021 27.8894 568.71 31.0945 566.436 33.293L568.521 35.45L570.606 37.607C574.332 34.0055 576.021 29.0773 576.021 23.25H573.021ZM568.521 35.45L566.436 33.293C564.142 35.5102 560.791 36.8 555.971 36.8V39.8V42.8C561.884 42.8 566.9 41.1898 570.606 37.607L568.521 35.45ZM585.542 39H582.542V42H585.542V39ZM585.542 13.15H588.542V10.15H585.542V13.15ZM575.292 13.15H572.292V16.15H575.292V13.15ZM575.292 4V0.999998H572.292V4H575.292ZM607.592 4H610.592V0.999998H607.592V4ZM607.592 13.15V16.15H610.592V13.15H607.592ZM597.342 13.15V10.15H594.342V13.15H597.342ZM597.342 39V42H600.342V39H597.342ZM585.542 39H588.542V13.15H585.542H582.542V39H585.542ZM585.542 13.15V10.15H575.292V13.15V16.15H585.542V13.15ZM575.292 13.15H578.292V4H575.292H572.292V13.15H575.292ZM575.292 4V7H607.592V4V0.999998H575.292V4ZM607.592 4H604.592V13.15H607.592H610.592V4H607.592ZM607.592 13.15V10.15H597.342V13.15V16.15H607.592V13.15ZM597.342 13.15H594.342V39H597.342H600.342V13.15H597.342ZM597.342 39V36H585.542V39V42H597.342V39ZM621.457 17V14H618.457V17H621.457ZM637.057 17H640.057V14H637.057V17ZM637.057 25.5V28.5H640.057V25.5H637.057ZM621.457 25.5H618.457V28.5H621.457V25.5ZM622.257 30.1H619.257V33.1H622.257V30.1ZM639.757 30.1H642.757V27.1H639.757V30.1ZM639.757 39V42H642.757V39H639.757ZM610.657 39H607.657V42H610.657V39ZM610.657 4V0.999998H607.657V4H610.657ZM639.107 4H642.107V0.999998H639.107V4ZM639.107 12.9V15.9H642.107V12.9H639.107ZM622.257 12.9V9.9H619.257V12.9H622.257ZM621.457 17V20H637.057V17V14H621.457V17ZM637.057 17H634.057V25.5H637.057H640.057V17H637.057ZM637.057 25.5V22.5H621.457V25.5V28.5H637.057V25.5ZM621.457 25.5H624.457V17H621.457H618.457V25.5H621.457ZM622.257 30.1V33.1H639.757V30.1V27.1H622.257V30.1ZM639.757 30.1H636.757V39H639.757H642.757V30.1H639.757ZM639.757 39V36H610.657V39V42H639.757V39ZM610.657 39H613.657V4H610.657H607.657V39H610.657ZM610.657 4V7H639.107V4V0.999998H610.657V4ZM639.107 4H636.107V12.9H639.107H642.107V4H639.107ZM639.107 12.9V9.9H622.257V12.9V15.9H639.107V12.9ZM622.257 12.9H619.257V30.1H622.257H625.257V12.9H622.257Z" fill="url(#paint0_linear_453_3853)" mask="url(#path-1-outside-1_453_3853)"/>
<defs>
<linearGradient id="paint0_linear_453_3853" x1="324" y1="-9" x2="324" y2="52" gradientUnits="userSpaceOnUse">
<stop stop-color="#E51D25"/>
<stop offset="1" stop-color="#1D3A69"/>
</linearGradient>
</defs>
</svg>
