<svg width="240" height="43" viewBox="0 0 240 43" fill="none" xmlns="http://www.w3.org/2000/svg">
<mask id="path-1-outside-1_282_206" maskUnits="userSpaceOnUse" x="0" y="0" width="240" height="43" fill="black">
<rect fill="white" width="240" height="43"/>
<path d="M3.85 39V4H20.7C23.9667 4 26.7833 4.53333 29.15 5.6C31.55 6.66666 33.4 8.2 34.7 10.2C36 12.1667 36.65 14.5 36.65 17.2C36.65 19.9 36 22.2333 34.7 24.2C33.4 26.1333 31.55 27.6167 29.15 28.65C26.7833 29.6833 23.9667 30.2 20.7 30.2H10.4L15.65 25.35V39H3.85ZM24.8 39L16.2 26.25H28.7L37.4 39H24.8ZM15.65 26.65L10.4 21.3H19.95C21.5833 21.3 22.7833 20.9333 23.55 20.2C24.35 19.4667 24.75 18.4667 24.75 17.2C24.75 15.9333 24.35 14.9333 23.55 14.2C22.7833 13.4667 21.5833 13.1 19.95 13.1H10.4L15.65 7.75V26.65ZM51.9059 17H67.5059V25.5H51.9059V17ZM52.7059 30.1H70.2059V39H41.1059V4H69.5559V12.9H52.7059V30.1ZM87.7984 39.8C84.8651 39.8 82.0318 39.4667 79.2984 38.8C76.5651 38.1333 74.3151 37.2667 72.5484 36.2L76.3484 27.6C78.0151 28.5667 79.8651 29.35 81.8984 29.95C83.9651 30.5167 85.9651 30.8 87.8984 30.8C89.0318 30.8 89.9151 30.7333 90.5484 30.6C91.2151 30.4333 91.6984 30.2167 91.9984 29.95C92.2984 29.65 92.4484 29.3 92.4484 28.9C92.4484 28.2667 92.0984 27.7667 91.3984 27.4C90.6984 27.0333 89.7651 26.7333 88.5984 26.5C87.4651 26.2333 86.2151 25.9667 84.8484 25.7C83.4818 25.4 82.0984 25.0167 80.6984 24.55C79.3318 24.0833 78.0651 23.4667 76.8984 22.7C75.7651 21.9333 74.8484 20.9333 74.1484 19.7C73.4484 18.4333 73.0984 16.8667 73.0984 15C73.0984 12.8333 73.6984 10.8667 74.8984 9.1C76.1318 7.3 77.9484 5.86667 80.3484 4.8C82.7818 3.73333 85.7984 3.2 89.3984 3.2C91.7651 3.2 94.0984 3.45 96.3984 3.95C98.6984 4.45 100.765 5.21666 102.598 6.25L99.0484 14.8C97.3151 13.9333 95.6318 13.2833 93.9984 12.85C92.3984 12.4167 90.8318 12.2 89.2984 12.2C88.1651 12.2 87.2651 12.3 86.5984 12.5C85.9318 12.7 85.4484 12.9667 85.1484 13.3C84.8818 13.6333 84.7484 14 84.7484 14.4C84.7484 15 85.0984 15.4833 85.7984 15.85C86.4984 16.1833 87.4151 16.4667 88.5484 16.7C89.7151 16.9333 90.9818 17.1833 92.3484 17.45C93.7484 17.7167 95.1318 18.0833 96.4984 18.55C97.8651 19.0167 99.1151 19.6333 100.248 20.4C101.415 21.1667 102.348 22.1667 103.048 23.4C103.748 24.6333 104.098 26.1667 104.098 28C104.098 30.1333 103.482 32.1 102.248 33.9C101.048 35.6667 99.2484 37.1 96.8484 38.2C94.4484 39.2667 91.4318 39.8 87.7984 39.8ZM124.36 39.8C118.993 39.8 114.81 38.35 111.81 35.45C108.81 32.55 107.31 28.4833 107.31 23.25V4H119.11V22.9C119.11 25.5667 119.593 27.4667 120.56 28.6C121.526 29.7 122.826 30.25 124.46 30.25C126.126 30.25 127.426 29.7 128.36 28.6C129.326 27.4667 129.81 25.5667 129.81 22.9V4H141.41V23.25C141.41 28.4833 139.91 32.55 136.91 35.45C133.91 38.35 129.726 39.8 124.36 39.8ZM146.819 39V4H158.619V29.85H174.419V39H146.819ZM182.007 39V13.15H171.757V4H204.057V13.15H193.807V39H182.007ZM220.171 39.8C217.238 39.8 214.405 39.4667 211.671 38.8C208.938 38.1333 206.688 37.2667 204.921 36.2L208.721 27.6C210.388 28.5667 212.238 29.35 214.271 29.95C216.338 30.5167 218.338 30.8 220.271 30.8C221.405 30.8 222.288 30.7333 222.921 30.6C223.588 30.4333 224.071 30.2167 224.371 29.95C224.671 29.65 224.821 29.3 224.821 28.9C224.821 28.2667 224.471 27.7667 223.771 27.4C223.071 27.0333 222.138 26.7333 220.971 26.5C219.838 26.2333 218.588 25.9667 217.221 25.7C215.855 25.4 214.471 25.0167 213.071 24.55C211.705 24.0833 210.438 23.4667 209.271 22.7C208.138 21.9333 207.221 20.9333 206.521 19.7C205.821 18.4333 205.471 16.8667 205.471 15C205.471 12.8333 206.071 10.8667 207.271 9.1C208.505 7.3 210.321 5.86667 212.721 4.8C215.155 3.73333 218.171 3.2 221.771 3.2C224.138 3.2 226.471 3.45 228.771 3.95C231.071 4.45 233.138 5.21666 234.971 6.25L231.421 14.8C229.688 13.9333 228.005 13.2833 226.371 12.85C224.771 12.4167 223.205 12.2 221.671 12.2C220.538 12.2 219.638 12.3 218.971 12.5C218.305 12.7 217.821 12.9667 217.521 13.3C217.255 13.6333 217.121 14 217.121 14.4C217.121 15 217.471 15.4833 218.171 15.85C218.871 16.1833 219.788 16.4667 220.921 16.7C222.088 16.9333 223.355 17.1833 224.721 17.45C226.121 17.7167 227.505 18.0833 228.871 18.55C230.238 19.0167 231.488 19.6333 232.621 20.4C233.788 21.1667 234.721 22.1667 235.421 23.4C236.121 24.6333 236.471 26.1667 236.471 28C236.471 30.1333 235.855 32.1 234.621 33.9C233.421 35.6667 231.621 37.1 229.221 38.2C226.821 39.2667 223.805 39.8 220.171 39.8Z"/>
</mask>
<path d="M3.85 39H0.85V42H3.85V39ZM3.85 4V0.999998H0.85V4H3.85ZM29.15 5.6L27.9173 8.33504L27.9244 8.33825L27.9316 8.34143L29.15 5.6ZM34.7 10.2L32.1847 11.835L32.191 11.8447L32.1973 11.8543L34.7 10.2ZM34.7 24.2L37.1895 25.874L37.1961 25.8642L37.2027 25.8543L34.7 24.2ZM29.15 28.65L27.9636 25.8945L27.9566 25.8976L27.9496 25.9006L29.15 28.65ZM10.4 30.2L8.36429 27.9964L2.73152 33.2H10.4V30.2ZM15.65 25.35H18.65V18.4944L13.6143 23.1464L15.65 25.35ZM15.65 39V42H18.65V39H15.65ZM24.8 39L22.3129 40.6776L23.2049 42H24.8V39ZM16.2 26.25V23.25H10.5578L13.7129 27.9276L16.2 26.25ZM28.7 26.25L31.1781 24.5591L30.2848 23.25H28.7V26.25ZM37.4 39V42H43.0789L39.8781 37.3091L37.4 39ZM15.65 26.65L13.5088 28.7512L18.65 33.9904V26.65H15.65ZM10.4 21.3V18.3H3.2529L8.25876 23.4012L10.4 21.3ZM23.55 20.2L21.5228 17.9885L21.4993 18.0101L21.4763 18.0321L23.55 20.2ZM23.55 14.2L21.4763 16.3679L21.4993 16.3899L21.5228 16.4115L23.55 14.2ZM10.4 13.1L8.25876 10.9988L3.2529 16.1H10.4V13.1ZM15.65 7.75H18.65V0.40962L13.5088 5.64879L15.65 7.75ZM3.85 39H6.85V4H3.85H0.85V39H3.85ZM3.85 4V7H20.7V4V0.999998H3.85V4ZM20.7 4V7C23.648 7 26.0246 7.48198 27.9173 8.33504L29.15 5.6L30.3827 2.86495C27.5421 1.58468 24.2854 0.999998 20.7 0.999998V4ZM29.15 5.6L27.9316 8.34143C29.857 9.19717 31.2325 10.3701 32.1847 11.835L34.7 10.2L37.2153 8.56503C35.5675 6.02991 33.243 4.13616 30.3684 2.85856L29.15 5.6ZM34.7 10.2L32.1973 11.8543C33.1277 13.2617 33.65 15.0004 33.65 17.2H36.65H39.65C39.65 13.9996 38.8723 11.0716 37.2027 8.5457L34.7 10.2ZM36.65 17.2H33.65C33.65 19.3996 33.1277 21.1383 32.1973 22.5457L34.7 24.2L37.2027 25.8543C38.8723 23.3284 39.65 20.4004 39.65 17.2H36.65ZM34.7 24.2L32.2105 22.526C31.2701 23.9245 29.9008 25.0605 27.9636 25.8945L29.15 28.65L30.3364 31.4055C33.1992 30.1728 35.5299 28.3421 37.1895 25.874L34.7 24.2ZM29.15 28.65L27.9496 25.9006C26.0476 26.7311 23.6592 27.2 20.7 27.2V30.2V33.2C24.2742 33.2 27.519 32.6356 30.3504 31.3994L29.15 28.65ZM20.7 30.2V27.2H10.4V30.2V33.2H20.7V30.2ZM10.4 30.2L12.4357 32.4036L17.6857 27.5536L15.65 25.35L13.6143 23.1464L8.36429 27.9964L10.4 30.2ZM15.65 25.35H12.65V39H15.65H18.65V25.35H15.65ZM15.65 39V36H3.85V39V42H15.65V39ZM24.8 39L27.2871 37.3224L18.6871 24.5724L16.2 26.25L13.7129 27.9276L22.3129 40.6776L24.8 39ZM16.2 26.25V29.25H28.7V26.25V23.25H16.2V26.25ZM28.7 26.25L26.2219 27.9409L34.9219 40.6909L37.4 39L39.8781 37.3091L31.1781 24.5591L28.7 26.25ZM37.4 39V36H24.8V39V42H37.4V39ZM15.65 26.65L17.7912 24.5488L12.5412 19.1988L10.4 21.3L8.25876 23.4012L13.5088 28.7512L15.65 26.65ZM10.4 21.3V24.3H19.95V21.3V18.3H10.4V21.3ZM19.95 21.3V24.3C21.951 24.3 24.0622 23.8615 25.6237 22.3679L23.55 20.2L21.4763 18.0321C21.5045 18.0052 21.2157 18.3 19.95 18.3V21.3ZM23.55 20.2L25.5772 22.4115C27.1021 21.0136 27.75 19.1537 27.75 17.2H24.75H21.75C21.75 17.7797 21.5979 17.9197 21.5228 17.9885L23.55 20.2ZM24.75 17.2H27.75C27.75 15.2463 27.1021 13.3864 25.5772 11.9885L23.55 14.2L21.5228 16.4115C21.5979 16.4803 21.75 16.6203 21.75 17.2H24.75ZM23.55 14.2L25.6237 12.0321C24.0622 10.5385 21.951 10.1 19.95 10.1V13.1V16.1C21.2157 16.1 21.5045 16.3948 21.4763 16.3679L23.55 14.2ZM19.95 13.1V10.1H10.4V13.1V16.1H19.95V13.1ZM10.4 13.1L12.5412 15.2012L17.7912 9.85122L15.65 7.75L13.5088 5.64879L8.25876 10.9988L10.4 13.1ZM15.65 7.75H12.65V26.65H15.65H18.65V7.75H15.65ZM51.9059 17V14H48.9059V17H51.9059ZM67.5059 17H70.5059V14H67.5059V17ZM67.5059 25.5V28.5H70.5059V25.5H67.5059ZM51.9059 25.5H48.9059V28.5H51.9059V25.5ZM52.7059 30.1H49.7059V33.1H52.7059V30.1ZM70.2059 30.1H73.2059V27.1H70.2059V30.1ZM70.2059 39V42H73.2059V39H70.2059ZM41.1059 39H38.1059V42H41.1059V39ZM41.1059 4V0.999998H38.1059V4H41.1059ZM69.5559 4H72.5559V0.999998H69.5559V4ZM69.5559 12.9V15.9H72.5559V12.9H69.5559ZM52.7059 12.9V9.9H49.7059V12.9H52.7059ZM51.9059 17V20H67.5059V17V14H51.9059V17ZM67.5059 17H64.5059V25.5H67.5059H70.5059V17H67.5059ZM67.5059 25.5V22.5H51.9059V25.5V28.5H67.5059V25.5ZM51.9059 25.5H54.9059V17H51.9059H48.9059V25.5H51.9059ZM52.7059 30.1V33.1H70.2059V30.1V27.1H52.7059V30.1ZM70.2059 30.1H67.2059V39H70.2059H73.2059V30.1H70.2059ZM70.2059 39V36H41.1059V39V42H70.2059V39ZM41.1059 39H44.1059V4H41.1059H38.1059V39H41.1059ZM41.1059 4V7H69.5559V4V0.999998H41.1059V4ZM69.5559 4H66.5559V12.9H69.5559H72.5559V4H69.5559ZM69.5559 12.9V9.9H52.7059V12.9V15.9H69.5559V12.9ZM52.7059 12.9H49.7059V30.1H52.7059H55.7059V12.9H52.7059ZM79.2984 38.8L80.0093 35.8854L79.2984 38.8ZM72.5484 36.2L69.8044 34.9875L68.737 37.4032L70.9978 38.7682L72.5484 36.2ZM76.3484 27.6L77.8536 25.0049L74.9575 23.3252L73.6044 26.3875L76.3484 27.6ZM81.8984 29.95L81.0494 32.8273L81.0772 32.8355L81.1051 32.8432L81.8984 29.95ZM90.5484 30.6L91.1665 33.5356L91.2215 33.5241L91.276 33.5104L90.5484 30.6ZM91.9984 29.95L93.9915 32.1922L94.0574 32.1337L94.1198 32.0713L91.9984 29.95ZM91.3984 27.4L90.0064 30.0575L91.3984 27.4ZM88.5984 26.5L87.9113 29.4202L87.9605 29.4318L88.0101 29.4417L88.5984 26.5ZM84.8484 25.7L84.2052 28.6302L84.2395 28.6378L84.2739 28.6445L84.8484 25.7ZM80.6984 24.55L79.729 27.389L79.7394 27.3926L79.7498 27.396L80.6984 24.55ZM76.8984 22.7L75.2175 25.1848L75.2341 25.1961L75.2509 25.2071L76.8984 22.7ZM74.1484 19.7L71.5227 21.1511L71.531 21.166L71.5394 21.1808L74.1484 19.7ZM74.8984 9.1L72.4236 7.40429L72.4168 7.41435L74.8984 9.1ZM80.3484 4.8L79.144 2.05239L79.137 2.05546L79.13 2.05856L80.3484 4.8ZM96.3984 3.95L95.7611 6.88153L96.3984 3.95ZM102.598 6.25L105.369 7.40039L106.389 4.94302L104.071 3.63654L102.598 6.25ZM99.0484 14.8L97.7068 17.4833L100.585 18.9224L101.819 15.9504L99.0484 14.8ZM93.9984 12.85L93.2142 15.7457L93.2217 15.7477L93.2291 15.7497L93.9984 12.85ZM86.5984 12.5L85.7364 9.62652L86.5984 12.5ZM85.1484 13.3L82.9185 11.2931L82.8603 11.3579L82.8058 11.4259L85.1484 13.3ZM85.7984 15.85L84.4064 18.5075L84.457 18.534L84.5086 18.5586L85.7984 15.85ZM88.5484 16.7L87.9435 19.6384L87.9518 19.6401L87.9601 19.6417L88.5484 16.7ZM92.3484 17.45L91.7739 20.3945L91.7871 20.397L92.3484 17.45ZM96.4984 18.55L95.529 21.389L96.4984 18.55ZM100.248 20.4L98.5675 22.8848L98.5841 22.8961L98.6009 22.9071L100.248 20.4ZM103.048 23.4L100.439 24.8808L100.439 24.8808L103.048 23.4ZM102.248 33.9L99.7736 32.2043L99.7668 32.2144L102.248 33.9ZM96.8484 38.2L98.0669 40.9414L98.0827 40.9344L98.0984 40.9272L96.8484 38.2ZM87.7984 39.8V36.8C85.0944 36.8 82.5002 36.493 80.0093 35.8854L79.2984 38.8L78.5876 41.7146C81.5633 42.4403 84.6358 42.8 87.7984 42.8V39.8ZM79.2984 38.8L80.0093 35.8854C77.4722 35.2666 75.5297 34.4956 74.099 33.6318L72.5484 36.2L70.9978 38.7682C73.1005 40.0377 75.658 41 78.5876 41.7146L79.2984 38.8ZM72.5484 36.2L75.2925 37.4125L79.0925 28.8125L76.3484 27.6L73.6044 26.3875L69.8044 34.9875L72.5484 36.2ZM76.3484 27.6L74.8433 30.1951C76.7361 31.2929 78.8095 32.1664 81.0494 32.8273L81.8984 29.95L82.7475 27.0727C80.9207 26.5336 79.2941 25.8404 77.8536 25.0049L76.3484 27.6ZM81.8984 29.95L81.1051 32.8432C83.4026 33.4732 85.6699 33.8 87.8984 33.8V30.8V27.8C86.2603 27.8 84.5276 27.5602 82.6917 27.0568L81.8984 29.95ZM87.8984 30.8V33.8C89.1096 33.8 90.2333 33.7321 91.1665 33.5356L90.5484 30.6L89.9304 27.6643C89.5969 27.7346 88.954 27.8 87.8984 27.8V30.8ZM90.5484 30.6L91.276 33.5104C92.1214 33.2991 93.1577 32.9334 93.9915 32.1922L91.9984 29.95L90.0053 27.7078C90.0776 27.6436 90.1347 27.6054 90.1637 27.5875C90.1929 27.5695 90.2021 27.5667 90.1838 27.575C90.1658 27.583 90.1277 27.5988 90.0654 27.6196C90.0033 27.6403 89.9227 27.6641 89.8208 27.6896L90.5484 30.6ZM91.9984 29.95L94.1198 32.0713C94.9445 31.2466 95.4484 30.1477 95.4484 28.9H92.4484H89.4484C89.4484 28.7146 89.4854 28.4979 89.5785 28.2807C89.6701 28.0671 89.788 27.9178 89.8771 27.8287L91.9984 29.95ZM92.4484 28.9H95.4484C95.4484 26.8568 94.1883 25.4747 92.7905 24.7425L91.3984 27.4L90.0064 30.0575C90.0526 30.0817 89.8975 30.0121 89.7282 29.7704C89.5364 29.4963 89.4484 29.1742 89.4484 28.9H92.4484ZM91.3984 27.4L92.7905 24.7425C91.7443 24.1945 90.5072 23.8223 89.1868 23.5583L88.5984 26.5L88.0101 29.4417C89.023 29.6443 89.6526 29.8722 90.0064 30.0575L91.3984 27.4ZM88.5984 26.5L89.2856 23.5798C88.1085 23.3028 86.8203 23.0282 85.423 22.7555L84.8484 25.7L84.2739 28.6445C85.6099 28.9052 86.8217 29.1639 87.9113 29.4202L88.5984 26.5ZM84.8484 25.7L85.4917 22.7698C84.2337 22.4936 82.9523 22.139 81.6471 21.7039L80.6984 24.55L79.7498 27.396C81.2446 27.8943 82.7299 28.3064 84.2052 28.6302L84.8484 25.7ZM80.6984 24.55L81.6679 21.711C80.532 21.3231 79.4943 20.8161 78.546 20.1929L76.8984 22.7L75.2509 25.2071C76.6359 26.1173 78.1315 26.8436 79.729 27.389L80.6984 24.55ZM76.8984 22.7L78.5794 20.2151C77.8427 19.7168 77.2381 19.066 76.7575 18.2192L74.1484 19.7L71.5394 21.1808C72.4588 22.8007 73.6875 24.1499 75.2175 25.1848L76.8984 22.7ZM74.1484 19.7L76.7742 18.2489C76.3807 17.537 76.0984 16.5024 76.0984 15H73.0984H70.0984C70.0984 17.2309 70.5161 19.3296 71.5227 21.1511L74.1484 19.7ZM73.0984 15H76.0984C76.0984 13.4252 76.523 12.0474 77.3801 10.7856L74.8984 9.1L72.4168 7.41435C70.8738 9.68592 70.0984 12.2415 70.0984 15H73.0984ZM74.8984 9.1L77.3732 10.7957C78.234 9.53942 79.5704 8.42875 81.5669 7.54143L80.3484 4.8L79.13 2.05856C76.3265 3.30459 74.0295 5.06058 72.4236 7.4043L74.8984 9.1ZM80.3484 4.8L81.5529 7.54761C83.4972 6.69529 86.0743 6.2 89.3984 6.2V3.2V0.199999C85.5226 0.199999 82.0663 0.771372 79.144 2.05239L80.3484 4.8ZM89.3984 3.2V6.2C91.552 6.2 93.6717 6.4273 95.7611 6.88153L96.3984 3.95L97.0357 1.01847C94.5252 0.472702 91.9782 0.199999 89.3984 0.199999V3.2ZM96.3984 3.95L95.7611 6.88153C97.8025 7.32529 99.5821 7.99357 101.125 8.86345L102.598 6.25L104.071 3.63654C101.948 2.43976 99.5944 1.5747 97.0357 1.01847L96.3984 3.95ZM102.598 6.25L99.8278 5.0996L96.2778 13.6496L99.0484 14.8L101.819 15.9504L105.369 7.40039L102.598 6.25ZM99.0484 14.8L100.39 12.1167C98.4999 11.1716 96.625 10.4431 94.7677 9.95032L93.9984 12.85L93.2291 15.7497C94.6385 16.1236 96.1303 16.695 97.7068 17.4833L99.0484 14.8ZM93.9984 12.85L94.7827 9.95432C92.9476 9.45732 91.1171 9.2 89.2984 9.2V12.2V15.2C90.5464 15.2 91.8493 15.376 93.2142 15.7457L93.9984 12.85ZM89.2984 12.2V9.2C88.0318 9.2 86.8023 9.30676 85.7364 9.62652L86.5984 12.5L87.4605 15.3735C87.7279 15.2932 88.2984 15.2 89.2984 15.2V12.2ZM86.5984 12.5L85.7364 9.62652C84.8098 9.9045 83.7365 10.3843 82.9185 11.2931L85.1484 13.3L87.3783 15.3069C87.3184 15.3735 87.2662 15.418 87.232 15.4441C87.1982 15.47 87.1801 15.4795 87.1852 15.4767C87.1902 15.4739 87.2138 15.4614 87.2609 15.4423C87.3077 15.4233 87.3733 15.3996 87.4605 15.3735L86.5984 12.5ZM85.1484 13.3L82.8058 11.4259C82.1443 12.2528 81.7484 13.2712 81.7484 14.4H84.7484H87.7484C87.7484 14.5407 87.7237 14.6966 87.6678 14.8502C87.6128 15.0014 87.5427 15.1096 87.491 15.1741L85.1484 13.3ZM84.7484 14.4H81.7484C81.7484 16.4754 83.0829 17.8142 84.4064 18.5075L85.7984 15.85L87.1905 13.1925C87.1236 13.1575 87.2704 13.2177 87.4408 13.453C87.6386 13.7261 87.7484 14.0718 87.7484 14.4H84.7484ZM85.7984 15.85L84.5086 18.5586C85.5054 19.0332 86.6773 19.3777 87.9435 19.6384L88.5484 16.7L89.1534 13.7616C88.1529 13.5556 87.4915 13.3335 87.0882 13.1414L85.7984 15.85ZM88.5484 16.7L87.9601 19.6417C89.1321 19.8761 90.4034 20.1271 91.7739 20.3945L92.3484 17.45L92.923 14.5055C91.5602 14.2396 90.2982 13.9905 89.1368 13.7583L88.5484 16.7ZM92.3484 17.45L91.7871 20.397C93.0469 20.637 94.2939 20.9673 95.529 21.389L96.4984 18.55L97.4679 15.711C95.9697 15.1994 94.45 14.7964 92.9098 14.503L92.3484 17.45ZM96.4984 18.55L95.529 21.389C96.6578 21.7745 97.6665 22.2753 98.5675 22.8848L100.248 20.4L101.929 17.9151C100.564 16.9913 99.0724 16.2588 97.4679 15.7109L96.4984 18.55ZM100.248 20.4L98.6009 22.9071C99.3638 23.4084 99.9702 24.0541 100.439 24.8808L103.048 23.4L105.658 21.9192C104.727 20.2792 103.466 18.9249 101.896 17.8929L100.248 20.4ZM103.048 23.4L100.439 24.8808C100.819 25.5492 101.098 26.5375 101.098 28H104.098H107.098C107.098 25.7958 106.678 23.7175 105.657 21.9192L103.048 23.4ZM104.098 28H101.098C101.098 29.5135 100.673 30.8915 99.7736 32.2043L102.248 33.9L104.723 35.5957C106.29 33.3085 107.098 30.7531 107.098 28H104.098ZM102.248 33.9L99.7668 32.2144C98.9397 33.432 97.6176 34.5474 95.5985 35.4728L96.8484 38.2L98.0984 40.9272C100.879 39.6526 103.157 37.9013 104.73 35.5856L102.248 33.9ZM96.8484 38.2L95.63 35.4586C93.7308 36.3026 91.1628 36.8 87.7984 36.8V39.8V42.8C91.7008 42.8 95.166 42.2307 98.0669 40.9414L96.8484 38.2ZM111.81 35.45L109.725 37.607L111.81 35.45ZM107.31 4V0.999998H104.31V4H107.31ZM119.11 4H122.11V0.999998H119.11V4ZM120.56 28.6L118.277 30.5468L118.292 30.5637L118.306 30.5803L120.56 28.6ZM128.36 28.6L126.077 26.6532L126.072 26.6591L128.36 28.6ZM129.81 4V0.999998H126.81V4H129.81ZM141.41 4H144.41V0.999998H141.41V4ZM136.91 35.45L134.825 33.293H134.825L136.91 35.45ZM124.36 39.8V36.8C119.539 36.8 116.188 35.5102 113.895 33.293L111.81 35.45L109.725 37.607C113.431 41.1898 118.447 42.8 124.36 42.8V39.8ZM111.81 35.45L113.895 33.293C111.62 31.0945 110.31 27.8894 110.31 23.25H107.31H104.31C104.31 29.0773 105.999 34.0055 109.725 37.607L111.81 35.45ZM107.31 23.25H110.31V4H107.31H104.31V23.25H107.31ZM107.31 4V7H119.11V4V0.999998H107.31V4ZM119.11 4H116.11V22.9H119.11H122.11V4H119.11ZM119.11 22.9H116.11C116.11 25.7753 116.601 28.5814 118.277 30.5468L120.56 28.6L122.842 26.6532C122.585 26.3519 122.11 25.3581 122.11 22.9H119.11ZM120.56 28.6L118.306 30.5803C119.912 32.4076 122.075 33.25 124.46 33.25V30.25V27.25C123.578 27.25 123.141 26.9924 122.813 26.6197L120.56 28.6ZM124.46 30.25V33.25C126.855 33.25 129.052 32.4208 130.647 30.5409L128.36 28.6L126.072 26.6591C125.801 26.9792 125.398 27.25 124.46 27.25V30.25ZM128.36 28.6L130.642 30.5468C132.319 28.5814 132.81 25.7753 132.81 22.9H129.81H126.81C126.81 25.3581 126.334 26.3519 126.077 26.6532L128.36 28.6ZM129.81 22.9H132.81V4H129.81H126.81V22.9H129.81ZM129.81 4V7H141.41V4V0.999998H129.81V4ZM141.41 4H138.41V23.25H141.41H144.41V4H141.41ZM141.41 23.25H138.41C138.41 27.8894 137.099 31.0945 134.825 33.293L136.91 35.45L138.995 37.607C142.72 34.0055 144.41 29.0773 144.41 23.25H141.41ZM136.91 35.45L134.825 33.293C132.531 35.5102 129.18 36.8 124.36 36.8V39.8V42.8C130.273 42.8 135.288 41.1898 138.995 37.607L136.91 35.45ZM146.819 39H143.819V42H146.819V39ZM146.819 4V0.999998H143.819V4H146.819ZM158.619 4H161.619V0.999998H158.619V4ZM158.619 29.85H155.619V32.85H158.619V29.85ZM174.419 29.85H177.419V26.85H174.419V29.85ZM174.419 39V42H177.419V39H174.419ZM146.819 39H149.819V4H146.819H143.819V39H146.819ZM146.819 4V7H158.619V4V0.999998H146.819V4ZM158.619 4H155.619V29.85H158.619H161.619V4H158.619ZM158.619 29.85V32.85H174.419V29.85V26.85H158.619V29.85ZM174.419 29.85H171.419V39H174.419H177.419V29.85H174.419ZM174.419 39V36H146.819V39V42H174.419V39ZM182.007 39H179.007V42H182.007V39ZM182.007 13.15H185.007V10.15H182.007V13.15ZM171.757 13.15H168.757V16.15H171.757V13.15ZM171.757 4V0.999998H168.757V4H171.757ZM204.057 4H207.057V0.999998H204.057V4ZM204.057 13.15V16.15H207.057V13.15H204.057ZM193.807 13.15V10.15H190.807V13.15H193.807ZM193.807 39V42H196.807V39H193.807ZM182.007 39H185.007V13.15H182.007H179.007V39H182.007ZM182.007 13.15V10.15H171.757V13.15V16.15H182.007V13.15ZM171.757 13.15H174.757V4H171.757H168.757V13.15H171.757ZM171.757 4V7H204.057V4V0.999998H171.757V4ZM204.057 4H201.057V13.15H204.057H207.057V4H204.057ZM204.057 13.15V10.15H193.807V13.15V16.15H204.057V13.15ZM193.807 13.15H190.807V39H193.807H196.807V13.15H193.807ZM193.807 39V36H182.007V39V42H193.807V39ZM211.671 38.8L212.382 35.8854L211.671 38.8ZM204.921 36.2L202.177 34.9875L201.11 37.4032L203.371 38.7682L204.921 36.2ZM208.721 27.6L210.227 25.0049L207.331 23.3252L205.977 26.3875L208.721 27.6ZM214.271 29.95L213.422 32.8273L213.45 32.8355L213.478 32.8432L214.271 29.95ZM222.921 30.6L223.54 33.5356L223.595 33.5241L223.649 33.5104L222.921 30.6ZM224.371 29.95L226.365 32.1922L226.43 32.1337L226.493 32.0713L224.371 29.95ZM223.771 27.4L222.379 30.0575L223.771 27.4ZM220.971 26.5L220.284 29.4202L220.334 29.4318L220.383 29.4417L220.971 26.5ZM217.221 25.7L216.578 28.6302L216.613 28.6378L216.647 28.6445L217.221 25.7ZM213.071 24.55L212.102 27.389L212.112 27.3926L212.123 27.396L213.071 24.55ZM209.271 22.7L207.591 25.1848L207.607 25.1961L207.624 25.2071L209.271 22.7ZM206.521 19.7L203.896 21.1511L203.904 21.166L203.912 21.1808L206.521 19.7ZM207.271 9.1L204.797 7.40429L204.79 7.41435L207.271 9.1ZM212.721 4.8L211.517 2.05239L211.51 2.05546L211.503 2.05856L212.721 4.8ZM228.771 3.95L228.134 6.88153L228.771 3.95ZM234.971 6.25L237.742 7.40039L238.762 4.94302L236.445 3.63654L234.971 6.25ZM231.421 14.8L230.08 17.4833L232.958 18.9224L234.192 15.9504L231.421 14.8ZM226.371 12.85L225.587 15.7457L225.595 15.7477L225.602 15.7497L226.371 12.85ZM218.971 12.5L218.109 9.62652L218.971 12.5ZM217.521 13.3L215.292 11.2931L215.233 11.3579L215.179 11.4259L217.521 13.3ZM218.171 15.85L216.779 18.5075L216.83 18.534L216.882 18.5586L218.171 15.85ZM220.921 16.7L220.317 19.6384L220.325 19.6401L220.333 19.6417L220.921 16.7ZM224.721 17.45L224.147 20.3945L224.16 20.397L224.721 17.45ZM228.871 18.55L227.902 21.389L228.871 18.55ZM232.621 20.4L230.941 22.8848L230.957 22.8961L230.974 22.9071L232.621 20.4ZM235.421 23.4L232.812 24.8808V24.8808L235.421 23.4ZM234.621 33.9L232.147 32.2043L232.14 32.2144L234.621 33.9ZM229.221 38.2L230.44 40.9414L230.456 40.9344L230.471 40.9272L229.221 38.2ZM220.171 39.8V36.8C217.467 36.8 214.873 36.493 212.382 35.8854L211.671 38.8L210.961 41.7146C213.936 42.4403 217.009 42.8 220.171 42.8V39.8ZM211.671 38.8L212.382 35.8854C209.845 35.2666 207.903 34.4956 206.472 33.6318L204.921 36.2L203.371 38.7682C205.474 40.0377 208.031 41 210.961 41.7146L211.671 38.8ZM204.921 36.2L207.666 37.4125L211.466 28.8125L208.721 27.6L205.977 26.3875L202.177 34.9875L204.921 36.2ZM208.721 27.6L207.216 30.1951C209.109 31.2929 211.183 32.1664 213.422 32.8273L214.271 29.95L215.121 27.0727C213.294 26.5336 211.667 25.8404 210.227 25.0049L208.721 27.6ZM214.271 29.95L213.478 32.8432C215.776 33.4732 218.043 33.8 220.271 33.8V30.8V27.8C218.633 27.8 216.901 27.5602 215.065 27.0568L214.271 29.95ZM220.271 30.8V33.8C221.483 33.8 222.606 33.7321 223.54 33.5356L222.921 30.6L222.303 27.6643C221.97 27.7346 221.327 27.8 220.271 27.8V30.8ZM222.921 30.6L223.649 33.5104C224.494 33.2991 225.531 32.9334 226.365 32.1922L224.371 29.95L222.378 27.7078C222.451 27.6436 222.508 27.6054 222.537 27.5875C222.566 27.5695 222.575 27.5667 222.557 27.575C222.539 27.583 222.501 27.5988 222.438 27.6196C222.376 27.6403 222.296 27.6641 222.194 27.6896L222.921 30.6ZM224.371 29.95L226.493 32.0713C227.318 31.2466 227.821 30.1477 227.821 28.9H224.821H221.821C221.821 28.7146 221.858 28.4979 221.952 28.2807C222.043 28.0671 222.161 27.9178 222.25 27.8287L224.371 29.95ZM224.821 28.9H227.821C227.821 26.8568 226.561 25.4747 225.163 24.7425L223.771 27.4L222.379 30.0575C222.426 30.0817 222.27 30.0121 222.101 29.7704C221.909 29.4963 221.821 29.1742 221.821 28.9H224.821ZM223.771 27.4L225.164 24.7425C224.117 24.1945 222.88 23.8223 221.56 23.5583L220.971 26.5L220.383 29.4417C221.396 29.6443 222.026 29.8722 222.379 30.0575L223.771 27.4ZM220.971 26.5L221.659 23.5798C220.482 23.3028 219.193 23.0282 217.796 22.7555L217.221 25.7L216.647 28.6445C217.983 28.9052 219.195 29.1639 220.284 29.4202L220.971 26.5ZM217.221 25.7L217.865 22.7698C216.607 22.4936 215.325 22.139 214.02 21.7039L213.071 24.55L212.123 27.396C213.618 27.8943 215.103 28.3064 216.578 28.6302L217.221 25.7ZM213.071 24.55L214.041 21.711C212.905 21.3231 211.867 20.8161 210.919 20.1929L209.271 22.7L207.624 25.2071C209.009 26.1173 210.505 26.8436 212.102 27.389L213.071 24.55ZM209.271 22.7L210.952 20.2151C210.216 19.7168 209.611 19.066 209.131 18.2192L206.521 19.7L203.912 21.1808C204.832 22.8007 206.061 24.1499 207.591 25.1848L209.271 22.7ZM206.521 19.7L209.147 18.2489C208.754 17.537 208.471 16.5024 208.471 15H205.471H202.471C202.471 17.2309 202.889 19.3296 203.896 21.1511L206.521 19.7ZM205.471 15H208.471C208.471 13.4252 208.896 12.0474 209.753 10.7856L207.271 9.1L204.79 7.41435C203.247 9.68592 202.471 12.2415 202.471 15H205.471ZM207.271 9.1L209.746 10.7957C210.607 9.53942 211.943 8.42875 213.94 7.54143L212.721 4.8L211.503 2.05856C208.7 3.30459 206.403 5.06058 204.797 7.4043L207.271 9.1ZM212.721 4.8L213.926 7.54761C215.87 6.69529 218.447 6.2 221.771 6.2V3.2V0.199999C217.896 0.199999 214.439 0.771372 211.517 2.05239L212.721 4.8ZM221.771 3.2V6.2C223.925 6.2 226.045 6.4273 228.134 6.88153L228.771 3.95L229.409 1.01847C226.898 0.472702 224.351 0.199999 221.771 0.199999V3.2ZM228.771 3.95L228.134 6.88153C230.176 7.32529 231.955 7.99357 233.498 8.86345L234.971 6.25L236.445 3.63654C234.321 2.43976 231.967 1.5747 229.409 1.01847L228.771 3.95ZM234.971 6.25L232.201 5.0996L228.651 13.6496L231.421 14.8L234.192 15.9504L237.742 7.40039L234.971 6.25ZM231.421 14.8L232.763 12.1167C230.873 11.1716 228.998 10.4431 227.141 9.95032L226.371 12.85L225.602 15.7497C227.012 16.1236 228.503 16.695 230.08 17.4833L231.421 14.8ZM226.371 12.85L227.156 9.95432C225.321 9.45732 223.49 9.2 221.671 9.2V12.2V15.2C222.919 15.2 224.222 15.376 225.587 15.7457L226.371 12.85ZM221.671 12.2V9.2C220.405 9.2 219.175 9.30676 218.109 9.62652L218.971 12.5L219.834 15.3735C220.101 15.2932 220.671 15.2 221.671 15.2V12.2ZM218.971 12.5L218.109 9.62652C217.183 9.9045 216.109 10.3843 215.292 11.2931L217.521 13.3L219.751 15.3069C219.691 15.3735 219.639 15.418 219.605 15.4441C219.571 15.47 219.553 15.4795 219.558 15.4767C219.563 15.4739 219.587 15.4614 219.634 15.4423C219.681 15.4233 219.746 15.3996 219.834 15.3735L218.971 12.5ZM217.521 13.3L215.179 11.4259C214.517 12.2528 214.121 13.2712 214.121 14.4H217.121H220.121C220.121 14.5407 220.097 14.6966 220.041 14.8502C219.986 15.0014 219.916 15.1096 219.864 15.1741L217.521 13.3ZM217.121 14.4H214.121C214.121 16.4754 215.456 17.8142 216.779 18.5075L218.171 15.85L219.564 13.1925C219.497 13.1575 219.643 13.2177 219.814 13.453C220.012 13.7261 220.121 14.0718 220.121 14.4H217.121ZM218.171 15.85L216.882 18.5586C217.878 19.0332 219.05 19.3777 220.317 19.6384L220.921 16.7L221.526 13.7616C220.526 13.5556 219.865 13.3335 219.461 13.1414L218.171 15.85ZM220.921 16.7L220.333 19.6417C221.505 19.8761 222.776 20.1271 224.147 20.3945L224.721 17.45L225.296 14.5055C223.933 14.2396 222.671 13.9905 221.51 13.7583L220.921 16.7ZM224.721 17.45L224.16 20.397C225.42 20.637 226.667 20.9673 227.902 21.389L228.871 18.55L229.841 15.711C228.343 15.1994 226.823 14.7964 225.283 14.503L224.721 17.45ZM228.871 18.55L227.902 21.389C229.031 21.7745 230.04 22.2753 230.941 22.8848L232.621 20.4L234.302 17.9151C232.937 16.9913 231.445 16.2588 229.841 15.7109L228.871 18.55ZM232.621 20.4L230.974 22.9071C231.737 23.4084 232.343 24.0541 232.812 24.8808L235.421 23.4L238.031 21.9192C237.1 20.2792 235.839 18.9249 234.269 17.8929L232.621 20.4ZM235.421 23.4L232.812 24.8808C233.192 25.5492 233.471 26.5375 233.471 28H236.471H239.471C239.471 25.7958 239.051 23.7175 238.031 21.9192L235.421 23.4ZM236.471 28H233.471C233.471 29.5135 233.046 30.8915 232.147 32.2043L234.621 33.9L237.096 35.5957C238.663 33.3085 239.471 30.7531 239.471 28H236.471ZM234.621 33.9L232.14 32.2144C231.313 33.432 229.991 34.5474 227.972 35.4728L229.221 38.2L230.471 40.9272C233.252 39.6526 235.53 37.9013 237.103 35.5856L234.621 33.9ZM229.221 38.2L228.003 35.4586C226.104 36.3026 223.536 36.8 220.171 36.8V39.8V42.8C224.074 42.8 227.539 42.2307 230.44 40.9414L229.221 38.2Z" fill="url(#paint0_linear_282_206)" mask="url(#path-1-outside-1_282_206)"/>
<defs>
<linearGradient id="paint0_linear_282_206" x1="119.5" y1="-9" x2="119.5" y2="52" gradientUnits="userSpaceOnUse">
<stop stop-color="#E51D25"/>
<stop offset="1" stop-color="#1D3A69"/>
</linearGradient>
</defs>
</svg>
