<svg width="50" height="50" viewBox="0 0 50 50" fill="none" xmlns="http://www.w3.org/2000/svg">
<path d="M37.1565 31.4141C36.1309 30.4889 34.7804 30.0081 33.401 30.077C32.0215 30.1458 30.7256 30.7586 29.7972 31.7812L28.6643 33.0391C28.1832 33.5666 27.8185 34.1894 27.594 34.8672L27.4925 35.1719L27.1956 35.0547C22.1555 33.0569 18.0337 29.2635 15.6253 24.4062L15.469 24.0859L15.8128 23.9844C16.7142 23.7072 17.524 23.1916 18.1565 22.4922L19.2893 21.2422C20.2155 20.2165 20.6962 18.865 20.6259 17.4848C20.5556 16.1047 19.9399 14.809 18.9143 13.8828L17.0081 12.1563C16.5012 11.6963 15.9085 11.3408 15.264 11.1102C14.6195 10.8797 13.9359 10.7786 13.2522 10.8127C12.5686 10.8468 11.8984 11.0155 11.28 11.309C10.6617 11.6026 10.1073 12.0153 9.64872 12.5234L8.51591 13.7734C8.36517 13.9375 8.22677 14.1124 8.10185 14.2969L8.04716 14.3594C6.97685 15.2734 6.0706 17.4844 6.59403 20.2266C7.79763 26.4266 10.9778 32.0698 15.658 36.3106C20.3383 40.5514 26.2666 43.1616 32.555 43.75C34.1081 43.9243 35.6763 43.5987 37.0315 42.8203C37.4993 42.531 37.9207 42.1728 38.2815 41.7578L39.4143 40.5C40.3395 39.4755 40.8217 38.1266 40.7558 36.7478C40.69 35.369 40.0813 34.0723 39.0628 33.1406L37.1565 31.4141ZM25.7112 6.25C25.4058 6.27451 25.1209 6.41312 24.9131 6.63825C24.7053 6.86337 24.59 7.15849 24.59 7.46484C24.59 7.7712 24.7053 8.06632 24.9131 8.29144C25.1209 8.51656 25.4058 8.65518 25.7112 8.67969C29.8042 8.68382 33.7284 10.3116 36.6226 13.2058C39.5168 16.1 41.1446 20.0242 41.1487 24.1172C41.1732 24.4226 41.3118 24.7075 41.537 24.9153C41.7621 25.1231 42.0572 25.2384 42.3636 25.2384C42.6699 25.2384 42.965 25.1231 43.1902 24.9153C43.4153 24.7075 43.5539 24.4226 43.5784 24.1172C43.5722 19.3804 41.6878 14.8394 38.3384 11.49C34.989 8.14062 30.448 6.2562 25.7112 6.25Z" fill="#1D3A69"/>
<path d="M35.2031 24.3125C35.2276 24.6179 35.3662 24.9028 35.5914 25.1106C35.8165 25.3184 36.1116 25.4337 36.418 25.4337C36.7243 25.4337 37.0194 25.3184 37.2446 25.1106C37.4697 24.9028 37.6083 24.6179 37.6328 24.3125C37.6287 21.1001 36.3507 18.0204 34.0792 15.7489C31.8077 13.4774 28.728 12.1994 25.5156 12.1953C25.3566 12.1953 25.1991 12.2266 25.0522 12.2875C24.9053 12.3483 24.7718 12.4375 24.6594 12.55C24.5469 12.6624 24.4577 12.7959 24.3969 12.9428C24.336 13.0898 24.3047 13.2472 24.3047 13.4063C24.3047 13.5653 24.336 13.7227 24.3969 13.8697C24.4577 14.0166 24.5469 14.1501 24.6594 14.2625C24.7718 14.375 24.9053 14.4642 25.0522 14.525C25.1991 14.5859 25.3566 14.6172 25.5156 14.6172C28.085 14.6213 30.5478 15.6444 32.3639 17.4619C34.18 19.2795 35.2011 21.7431 35.2031 24.3125Z" fill="#1D3A69"/>
</svg>
