<svg width="351" height="43" viewBox="0 0 351 43" fill="none" xmlns="http://www.w3.org/2000/svg">
<mask id="path-1-outside-1_315_789" maskUnits="userSpaceOnUse" x="0" y="0" width="351" height="43" fill="black">
<rect fill="white" width="351" height="43"/>
<path d="M22.95 39.8C20.15 39.8 17.55 39.3667 15.15 38.5C12.7833 37.6 10.7167 36.3333 8.95 34.7C7.21667 33.0667 5.86667 31.1333 4.9 28.9C3.93333 26.6667 3.45 24.2 3.45 21.5C3.45 18.8 3.93333 16.3333 4.9 14.1C5.86667 11.8667 7.21667 9.93333 8.95 8.3C10.7167 6.66666 12.7833 5.41666 15.15 4.55C17.55 3.65 20.15 3.2 22.95 3.2C26.3833 3.2 29.4167 3.8 32.05 5C34.7167 6.2 36.9167 7.93333 38.65 10.2L31.2 16.85C30.1667 15.55 29.0167 14.55 27.75 13.85C26.5167 13.1167 25.1167 12.75 23.55 12.75C22.3167 12.75 21.2 12.95 20.2 13.35C19.2 13.75 18.3333 14.3333 17.6 15.1C16.9 15.8667 16.35 16.8 15.95 17.9C15.55 18.9667 15.35 20.1667 15.35 21.5C15.35 22.8333 15.55 24.05 15.95 25.15C16.35 26.2167 16.9 27.1333 17.6 27.9C18.3333 28.6667 19.2 29.25 20.2 29.65C21.2 30.05 22.3167 30.25 23.55 30.25C25.1167 30.25 26.5167 29.9 27.75 29.2C29.0167 28.4667 30.1667 27.45 31.2 26.15L38.65 32.8C36.9167 35.0333 34.7167 36.7667 32.05 38C29.4167 39.2 26.3833 39.8 22.95 39.8ZM59.6746 39.8C56.8413 39.8 54.2079 39.35 51.7746 38.45C49.3746 37.55 47.2913 36.2833 45.5246 34.65C43.7579 32.9833 42.3746 31.0333 41.3746 28.8C40.4079 26.5667 39.9246 24.1333 39.9246 21.5C39.9246 18.8333 40.4079 16.4 41.3746 14.2C42.3746 11.9667 43.7579 10.0333 45.5246 8.4C47.2913 6.73333 49.3746 5.45 51.7746 4.55C54.2079 3.65 56.8413 3.2 59.6746 3.2C62.5413 3.2 65.1746 3.65 67.5746 4.55C69.9746 5.45 72.0579 6.73333 73.8246 8.4C75.5913 10.0333 76.9579 11.9667 77.9246 14.2C78.9246 16.4 79.4246 18.8333 79.4246 21.5C79.4246 24.1333 78.9246 26.5667 77.9246 28.8C76.9579 31.0333 75.5913 32.9833 73.8246 34.65C72.0579 36.2833 69.9746 37.55 67.5746 38.45C65.1746 39.35 62.5413 39.8 59.6746 39.8ZM59.6746 30.25C60.7746 30.25 61.7913 30.05 62.7246 29.65C63.6913 29.25 64.5246 28.6833 65.2246 27.95C65.9579 27.1833 66.5246 26.2667 66.9246 25.2C67.3246 24.1 67.5246 22.8667 67.5246 21.5C67.5246 20.1333 67.3246 18.9167 66.9246 17.85C66.5246 16.75 65.9579 15.8333 65.2246 15.1C64.5246 14.3333 63.6913 13.75 62.7246 13.35C61.7913 12.95 60.7746 12.75 59.6746 12.75C58.5746 12.75 57.5413 12.95 56.5746 13.35C55.6413 13.75 54.8079 14.3333 54.0746 15.1C53.3746 15.8333 52.8246 16.75 52.4246 17.85C52.0246 18.9167 51.8246 20.1333 51.8246 21.5C51.8246 22.8667 52.0246 24.1 52.4246 25.2C52.8246 26.2667 53.3746 27.1833 54.0746 27.95C54.8079 28.6833 55.6413 29.25 56.5746 29.65C57.5413 30.05 58.5746 30.25 59.6746 30.25ZM83.7074 39V4H93.4074L111.207 25.3H106.707V4H118.207V39H108.507L90.7074 17.7H95.2074V39H83.7074ZM131.493 39V13.15H121.243V4H153.543V13.15H143.293V39H131.493ZM151.05 39L166.35 4H177.95L193.25 39H181.05L169.75 9.6H174.35L163.05 39H151.05ZM160.15 32.9L163.15 24.4H179.25L182.25 32.9H160.15ZM212.745 39.8C209.945 39.8 207.345 39.3667 204.945 38.5C202.578 37.6 200.512 36.3333 198.745 34.7C197.012 33.0667 195.662 31.1333 194.695 28.9C193.728 26.6667 193.245 24.2 193.245 21.5C193.245 18.8 193.728 16.3333 194.695 14.1C195.662 11.8667 197.012 9.93333 198.745 8.3C200.512 6.66666 202.578 5.41666 204.945 4.55C207.345 3.65 209.945 3.2 212.745 3.2C216.178 3.2 219.212 3.8 221.845 5C224.512 6.2 226.712 7.93333 228.445 10.2L220.995 16.85C219.962 15.55 218.812 14.55 217.545 13.85C216.312 13.1167 214.912 12.75 213.345 12.75C212.112 12.75 210.995 12.95 209.995 13.35C208.995 13.75 208.128 14.3333 207.395 15.1C206.695 15.8667 206.145 16.8 205.745 17.9C205.345 18.9667 205.145 20.1667 205.145 21.5C205.145 22.8333 205.345 24.05 205.745 25.15C206.145 26.2167 206.695 27.1333 207.395 27.9C208.128 28.6667 208.995 29.25 209.995 29.65C210.995 30.05 212.112 30.25 213.345 30.25C214.912 30.25 216.312 29.9 217.545 29.2C218.812 28.4667 219.962 27.45 220.995 26.15L228.445 32.8C226.712 35.0333 224.512 36.7667 221.845 38C219.212 39.2 216.178 39.8 212.745 39.8ZM239.208 39V13.15H228.958V4H261.258V13.15H251.008V39H239.208ZM296.063 39.8C290.696 39.8 286.513 38.35 283.513 35.45C280.513 32.55 279.013 28.4833 279.013 23.25V4H290.813V22.9C290.813 25.5667 291.296 27.4667 292.263 28.6C293.23 29.7 294.53 30.25 296.163 30.25C297.83 30.25 299.13 29.7 300.063 28.6C301.03 27.4667 301.513 25.5667 301.513 22.9V4H313.113V23.25C313.113 28.4833 311.613 32.55 308.613 35.45C305.613 38.35 301.43 39.8 296.063 39.8ZM331.572 39.8C328.639 39.8 325.805 39.4667 323.072 38.8C320.339 38.1333 318.089 37.2667 316.322 36.2L320.122 27.6C321.789 28.5667 323.639 29.35 325.672 29.95C327.739 30.5167 329.739 30.8 331.672 30.8C332.805 30.8 333.689 30.7333 334.322 30.6C334.989 30.4333 335.472 30.2167 335.772 29.95C336.072 29.65 336.222 29.3 336.222 28.9C336.222 28.2667 335.872 27.7667 335.172 27.4C334.472 27.0333 333.539 26.7333 332.372 26.5C331.239 26.2333 329.989 25.9667 328.622 25.7C327.255 25.4 325.872 25.0167 324.472 24.55C323.105 24.0833 321.839 23.4667 320.672 22.7C319.539 21.9333 318.622 20.9333 317.922 19.7C317.222 18.4333 316.872 16.8667 316.872 15C316.872 12.8333 317.472 10.8667 318.672 9.1C319.905 7.3 321.722 5.86667 324.122 4.8C326.555 3.73333 329.572 3.2 333.172 3.2C335.539 3.2 337.872 3.45 340.172 3.95C342.472 4.45 344.539 5.21666 346.372 6.25L342.822 14.8C341.089 13.9333 339.405 13.2833 337.772 12.85C336.172 12.4167 334.605 12.2 333.072 12.2C331.939 12.2 331.039 12.3 330.372 12.5C329.705 12.7 329.222 12.9667 328.922 13.3C328.655 13.6333 328.522 14 328.522 14.4C328.522 15 328.872 15.4833 329.572 15.85C330.272 16.1833 331.189 16.4667 332.322 16.7C333.489 16.9333 334.755 17.1833 336.122 17.45C337.522 17.7167 338.905 18.0833 340.272 18.55C341.639 19.0167 342.889 19.6333 344.022 20.4C345.189 21.1667 346.122 22.1667 346.822 23.4C347.522 24.6333 347.872 26.1667 347.872 28C347.872 30.1333 347.255 32.1 346.022 33.9C344.822 35.6667 343.022 37.1 340.622 38.2C338.222 39.2667 335.205 39.8 331.572 39.8Z"/>
</mask>
<path d="M15.15 38.5L14.0837 41.3041L14.1073 41.3131L14.1311 41.3217L15.15 38.5ZM8.95 34.7L6.8926 36.8834L6.90297 36.8931L6.91343 36.9028L8.95 34.7ZM4.9 28.9L2.14683 30.0917H2.14683L4.9 28.9ZM4.9 14.1L2.14683 12.9083H2.14683L4.9 14.1ZM8.95 8.3L6.91343 6.09718L6.90297 6.10686L6.8926 6.11663L8.95 8.3ZM15.15 4.55L16.1816 7.36706L16.1925 7.36306L16.2034 7.35899L15.15 4.55ZM32.05 5L30.806 7.72991L30.8124 7.73285L30.8189 7.73577L32.05 5ZM38.65 10.2L40.6478 12.4381L42.7221 10.5864L41.0331 8.37765L38.65 10.2ZM31.2 16.85L28.8515 18.7167L30.8281 21.2033L33.1978 19.0881L31.2 16.85ZM27.75 13.85L26.2168 16.4286L26.2575 16.4528L26.2989 16.4757L27.75 13.85ZM20.2 13.35L21.3142 16.1354L21.3142 16.1354L20.2 13.35ZM17.6 15.1L15.4321 13.0263L15.408 13.0515L15.3845 13.0772L17.6 15.1ZM15.95 17.9L18.759 18.9534L18.7643 18.9393L18.7694 18.9252L15.95 17.9ZM15.95 25.15L13.1306 26.1752L13.1357 26.1893L13.141 26.2034L15.95 25.15ZM17.6 27.9L15.3845 29.9228L15.408 29.9485L15.4321 29.9737L17.6 27.9ZM20.2 29.65L19.0858 32.4354L20.2 29.65ZM27.75 29.2L29.2308 31.8091L29.242 31.8027L29.2531 31.7963L27.75 29.2ZM31.2 26.15L33.1978 23.9119L30.8281 21.7967L28.8515 24.2833L31.2 26.15ZM38.65 32.8L41.02 34.6394L42.7371 32.4269L40.6478 30.5619L38.65 32.8ZM32.05 38L33.294 40.7299L33.3017 40.7264L33.3093 40.7229L32.05 38ZM22.95 39.8V36.8C20.4637 36.8 18.2119 36.4161 16.1689 35.6783L15.15 38.5L14.1311 41.3217C16.8881 42.3173 19.8363 42.8 22.95 42.8V39.8ZM15.15 38.5L16.2163 35.6959C14.1895 34.9251 12.4567 33.8563 10.9866 32.4972L8.95 34.7L6.91343 36.9028C8.97665 38.8103 11.3772 40.2749 14.0837 41.3041L15.15 38.5ZM8.95 34.7L11.0074 32.5166C9.57759 31.1693 8.46139 29.5756 7.65317 27.7083L4.9 28.9L2.14683 30.0917C3.27195 32.6911 4.85575 34.964 6.8926 36.8834L8.95 34.7ZM4.9 28.9L7.65317 27.7083C6.86632 25.8904 6.45 23.8351 6.45 21.5H3.45H0.45C0.45 24.5649 1.00035 27.4429 2.14683 30.0917L4.9 28.9ZM3.45 21.5H6.45C6.45 19.1649 6.86632 17.1096 7.65317 15.2917L4.9 14.1L2.14683 12.9083C1.00035 15.5571 0.45 18.4351 0.45 21.5H3.45ZM4.9 14.1L7.65317 15.2917C8.46139 13.4244 9.57759 11.8307 11.0074 10.4834L8.95 8.3L6.8926 6.11663C4.85575 8.03597 3.27195 10.3089 2.14683 12.9083L4.9 14.1ZM8.95 8.3L10.9866 10.5028C12.4484 9.15134 14.1692 8.10398 16.1816 7.36706L15.15 4.55L14.1184 1.73294C11.3975 2.72934 8.98497 4.18199 6.91343 6.09718L8.95 8.3ZM15.15 4.55L16.2034 7.35899C18.2367 6.59647 20.4765 6.2 22.95 6.2V3.2V0.199999C19.8235 0.199999 16.8633 0.703525 14.0966 1.74101L15.15 4.55ZM22.95 3.2V6.2C26.0331 6.2 28.6292 6.73797 30.806 7.72991L32.05 5L33.294 2.27009C30.2041 0.862026 26.7336 0.199999 22.95 0.199999V3.2ZM32.05 5L30.8189 7.73577C33.0435 8.73682 34.8436 10.1611 36.2669 12.0223L38.65 10.2L41.0331 8.37765C38.9897 5.70559 36.3899 3.66317 33.2811 2.26423L32.05 5ZM38.65 10.2L36.6523 7.96192L29.2023 14.6119L31.2 16.85L33.1978 19.0881L40.6478 12.4381L38.65 10.2ZM31.2 16.85L33.5485 14.9833C32.305 13.4189 30.8613 12.1418 29.2011 11.2243L27.75 13.85L26.2989 16.4757C27.1721 16.9582 28.0284 17.6811 28.8515 18.7167L31.2 16.85ZM27.75 13.85L29.2832 11.2714C27.5439 10.2372 25.6052 9.75 23.55 9.75V12.75V15.75C24.6281 15.75 25.4894 15.9961 26.2168 16.4286L27.75 13.85ZM23.55 12.75V9.75C21.9899 9.75 20.4878 10.0038 19.0858 10.5646L20.2 13.35L21.3142 16.1354C21.9122 15.8962 22.6435 15.75 23.55 15.75V12.75ZM20.2 13.35L19.0858 10.5646C17.694 11.1213 16.4664 11.945 15.4321 13.0263L17.6 15.1L19.7679 17.1737C20.2003 16.7216 20.706 16.3787 21.3142 16.1354L20.2 13.35ZM17.6 15.1L15.3845 13.0772C14.3883 14.1684 13.6477 15.4528 13.1306 16.8748L15.95 17.9L18.7694 18.9252C19.0523 18.1472 19.4117 17.565 19.8155 17.1228L17.6 15.1ZM15.95 17.9L13.141 16.8466C12.5952 18.3022 12.35 19.8671 12.35 21.5H15.35H18.35C18.35 20.4663 18.5048 19.6311 18.759 18.9534L15.95 17.9ZM15.35 21.5H12.35C12.35 23.1349 12.5957 24.7043 13.1306 26.1752L15.95 25.15L18.7694 24.1248C18.5043 23.3957 18.35 22.5317 18.35 21.5H15.35ZM15.95 25.15L13.141 26.2034C13.6622 27.5931 14.4027 28.8475 15.3845 29.9228L17.6 27.9L19.8155 25.8772C19.3973 25.4192 19.0378 24.8402 18.759 24.0966L15.95 25.15ZM17.6 27.9L15.4321 29.9737C16.4664 31.055 17.694 31.8787 19.0858 32.4354L20.2 29.65L21.3142 26.8646C20.706 26.6213 20.2003 26.2784 19.7679 25.8263L17.6 27.9ZM20.2 29.65L19.0858 32.4354C20.4878 32.9962 21.9899 33.25 23.55 33.25V30.25V27.25C22.6435 27.25 21.9122 27.1038 21.3142 26.8646L20.2 29.65ZM23.55 30.25V33.25C25.5801 33.25 27.4999 32.7915 29.2308 31.8091L27.75 29.2L26.2692 26.5909C25.5334 27.0085 24.6532 27.25 23.55 27.25V30.25ZM27.75 29.2L29.2531 31.7963C30.8855 30.8512 32.3127 29.5714 33.5485 28.0167L31.2 26.15L28.8515 24.2833C28.0206 25.3286 27.1478 26.0821 26.2469 26.6037L27.75 29.2ZM31.2 26.15L29.2023 28.3881L36.6523 35.0381L38.65 32.8L40.6478 30.5619L33.1978 23.9119L31.2 26.15ZM38.65 32.8L36.28 30.9606C34.8526 32.7998 33.0395 34.237 30.7907 35.2771L32.05 38L33.3093 40.7229C36.3939 39.2963 38.9807 37.2669 41.02 34.6394L38.65 32.8ZM32.05 38L30.806 35.2701C28.6292 36.262 26.0331 36.8 22.95 36.8V39.8V42.8C26.7336 42.8 30.2041 42.138 33.294 40.7299L32.05 38ZM51.7746 38.45L50.7212 41.259L50.7339 41.2637L51.7746 38.45ZM45.5246 34.65L43.4659 36.8322L43.4769 36.8426L43.488 36.8528L45.5246 34.65ZM41.3746 28.8L38.6214 29.9917L38.6289 30.0089L38.6366 30.026L41.3746 28.8ZM41.3746 14.2L38.6366 12.974L38.6323 12.9836L38.6281 12.9932L41.3746 14.2ZM45.5246 8.4L47.5612 10.6028L47.5723 10.5926L47.5833 10.5822L45.5246 8.4ZM51.7746 4.55L50.7339 1.73626L50.7212 1.74101L51.7746 4.55ZM67.5746 4.55L66.5212 7.35899V7.35899L67.5746 4.55ZM73.8246 8.4L71.7659 10.5822L71.7769 10.5926L71.788 10.6028L73.8246 8.4ZM77.9246 14.2L75.1714 15.3917L75.1823 15.4166L75.1935 15.4414L77.9246 14.2ZM77.9246 28.8L75.1866 27.574L75.1789 27.5911L75.1714 27.6083L77.9246 28.8ZM73.8246 34.65L75.8612 36.8528L75.8723 36.8426L75.8833 36.8322L73.8246 34.65ZM67.5746 38.45L66.5212 35.641L67.5746 38.45ZM62.7246 29.65L61.5776 26.8779L61.5602 26.8851L61.5429 26.8926L62.7246 29.65ZM65.2246 27.95L63.0567 25.8763L63.0545 25.8786L65.2246 27.95ZM66.9246 25.2L69.7336 26.2534L69.7389 26.2393L69.744 26.2252L66.9246 25.2ZM66.9246 17.85L64.1052 18.8752L64.1104 18.8893L64.1156 18.9034L66.9246 17.85ZM65.2246 15.1L63.0092 17.1228L63.0551 17.1731L63.1033 17.2213L65.2246 15.1ZM62.7246 13.35L61.5429 16.1074L61.5602 16.1149L61.5776 16.1221L62.7246 13.35ZM56.5746 13.35L55.4276 10.5779L55.4102 10.5851L55.3929 10.5926L56.5746 13.35ZM54.0746 15.1L51.9067 13.0263L51.9045 13.0286L54.0746 15.1ZM52.4246 17.85L55.2336 18.9034L55.2389 18.8893L55.244 18.8752L52.4246 17.85ZM52.4246 25.2L49.6052 26.2252L49.6104 26.2393L49.6156 26.2534L52.4246 25.2ZM54.0746 27.95L51.8592 29.9728L51.9051 30.0231L51.9533 30.0713L54.0746 27.95ZM56.5746 29.65L55.3929 32.4074L55.4102 32.4149L55.4276 32.4221L56.5746 29.65ZM59.6746 39.8V36.8C57.1637 36.8 54.8861 36.4022 52.8153 35.6363L51.7746 38.45L50.7339 41.2637C53.5298 42.2978 56.5188 42.8 59.6746 42.8V39.8ZM51.7746 38.45L52.828 35.641C50.7678 34.8685 49.0242 33.7998 47.5612 32.4472L45.5246 34.65L43.488 36.8528C45.5584 38.7669 47.9814 40.2315 50.7212 41.259L51.7746 38.45ZM45.5246 34.65L47.5833 32.4678C46.106 31.0742 44.9526 29.4498 44.1127 27.574L41.3746 28.8L38.6366 30.026C39.7967 32.6169 41.4099 34.8925 43.4659 36.8322L45.5246 34.65ZM41.3746 28.8L44.1278 27.6083C43.3369 25.7812 42.9246 23.7574 42.9246 21.5H39.9246H36.9246C36.9246 24.5092 37.479 27.3521 38.6214 29.9917L41.3746 28.8ZM39.9246 21.5H42.9246C42.9246 19.203 43.3391 17.1866 44.1212 15.4068L41.3746 14.2L38.6281 12.9932C37.4768 15.6134 36.9246 18.4636 36.9246 21.5H39.9246ZM41.3746 14.2L44.1127 15.426C44.9501 13.5558 46.097 11.9565 47.5612 10.6028L45.5246 8.4L43.488 6.19718C41.4189 8.11021 39.7992 10.3775 38.6366 12.974L41.3746 14.2ZM45.5246 8.4L47.5833 10.5822C49.044 9.20418 50.7804 8.12683 52.828 7.35899L51.7746 4.55L50.7212 1.74101C47.9688 2.77317 45.5386 4.26249 43.4659 6.21782L45.5246 8.4ZM51.7746 4.55L52.8153 7.36371C54.8861 6.59778 57.1637 6.2 59.6746 6.2V3.2V0.199999C56.5188 0.199999 53.5298 0.702213 50.7339 1.73629L51.7746 4.55ZM59.6746 3.2V6.2C62.2239 6.2 64.4956 6.59936 66.5212 7.35899L67.5746 4.55L68.628 1.74101C65.8537 0.700639 62.8587 0.199999 59.6746 0.199999V3.2ZM67.5746 4.55L66.5212 7.35899C68.5688 8.12683 70.3053 9.20418 71.7659 10.5822L73.8246 8.4L75.8833 6.21782C73.8106 4.26249 71.3804 2.77317 68.628 1.74101L67.5746 4.55ZM73.8246 8.4L71.788 10.6028C73.2445 11.9493 74.3687 13.5371 75.1714 15.3917L77.9246 14.2L80.6778 13.0083C79.5472 10.3963 77.9381 8.11734 75.8612 6.19718L73.8246 8.4ZM77.9246 14.2L75.1935 15.4414C75.9987 17.2128 76.4246 19.2169 76.4246 21.5H79.4246H82.4246C82.4246 18.4498 81.8505 15.5872 80.6557 12.9586L77.9246 14.2ZM79.4246 21.5H76.4246C76.4246 23.7434 76.001 25.755 75.1866 27.574L77.9246 28.8L80.6627 30.026C81.8482 27.3783 82.4246 24.5232 82.4246 21.5H79.4246ZM77.9246 28.8L75.1714 27.6083C74.3663 29.4685 73.2357 31.0813 71.766 32.4678L73.8246 34.65L75.8833 36.8322C77.9469 34.8854 79.5496 32.5981 80.6778 29.9917L77.9246 28.8ZM73.8246 34.65L71.788 32.4472C70.325 33.7998 68.5814 34.8685 66.5212 35.641L67.5746 38.45L68.628 41.259C71.3678 40.2315 73.7909 38.7669 75.8612 36.8528L73.8246 34.65ZM67.5746 38.45L66.5212 35.641C64.4956 36.4006 62.2239 36.8 59.6746 36.8V39.8V42.8C62.8587 42.8 65.8537 42.2994 68.628 41.259L67.5746 38.45ZM59.6746 30.25V33.25C61.1467 33.25 62.5694 32.9804 63.9064 32.4074L62.7246 29.65L61.5429 26.8926C61.0131 27.1196 60.4025 27.25 59.6746 27.25V30.25ZM62.7246 29.65L63.8717 32.4221C65.2118 31.8675 66.3969 31.0667 67.3947 30.0214L65.2246 27.95L63.0545 25.8786C62.6523 26.2999 62.1708 26.6325 61.5776 26.8779L62.7246 29.65ZM65.2246 27.95L67.3925 30.0237C68.4266 28.9426 69.2018 27.6716 69.7336 26.2534L66.9246 25.2L64.1156 24.1466C63.8475 24.8617 63.4893 25.424 63.0567 25.8763L65.2246 27.95ZM66.9246 25.2L69.744 26.2252C70.2817 24.7466 70.5246 23.1589 70.5246 21.5H67.5246H64.5246C64.5246 22.5745 64.3676 23.4534 64.1052 24.1748L66.9246 25.2ZM67.5246 21.5H70.5246C70.5246 19.8435 70.2823 18.2599 69.7336 16.7966L66.9246 17.85L64.1156 18.9034C64.3669 19.5734 64.5246 20.4231 64.5246 21.5H67.5246ZM66.9246 17.85L69.744 16.8248C69.2135 15.366 68.4269 14.0596 67.3459 12.9787L65.2246 15.1L63.1033 17.2213C63.489 17.607 63.8357 18.134 64.1052 18.8752L66.9246 17.85ZM65.2246 15.1L67.4401 13.0772C66.4409 11.9828 65.2419 11.1449 63.8717 10.5779L62.7246 13.35L61.5776 16.1221C62.1407 16.3551 62.6084 16.6838 63.0092 17.1228L65.2246 15.1ZM62.7246 13.35L63.9064 10.5926C62.5694 10.0196 61.1467 9.75 59.6746 9.75V12.75V15.75C60.4025 15.75 61.0131 15.8804 61.5429 16.1074L62.7246 13.35ZM59.6746 12.75V9.75C58.2016 9.75 56.7765 10.0198 55.4276 10.5779L56.5746 13.35L57.7217 16.122C58.3061 15.8802 58.9476 15.75 59.6746 15.75V12.75ZM56.5746 13.35L55.3929 10.5926C54.0715 11.1589 52.9066 11.981 51.9067 13.0263L54.0746 15.1L56.2425 17.1737C56.7093 16.6857 57.211 16.3411 57.7564 16.1074L56.5746 13.35ZM54.0746 15.1L51.9045 13.0286C50.8772 14.1049 50.1252 15.3947 49.6052 16.8248L52.4246 17.85L55.244 18.8752C55.524 18.1053 55.872 17.5618 56.2447 17.1714L54.0746 15.1ZM52.4246 17.85L49.6156 16.7966C49.0669 18.2599 48.8246 19.8435 48.8246 21.5H51.8246H54.8246C54.8246 20.4231 54.9823 19.5734 55.2336 18.9034L52.4246 17.85ZM51.8246 21.5H48.8246C48.8246 23.1589 49.0676 24.7466 49.6052 26.2252L52.4246 25.2L55.244 24.1748C54.9817 23.4534 54.8246 22.5745 54.8246 21.5H51.8246ZM52.4246 25.2L49.6156 26.2534C50.1368 27.6431 50.8773 28.8975 51.8592 29.9728L54.0746 27.95L56.2901 25.9272C55.8719 25.4692 55.5124 24.8902 55.2336 24.1466L52.4246 25.2ZM54.0746 27.95L51.9533 30.0713C52.9506 31.0686 54.1012 31.8538 55.3929 32.4074L56.5746 29.65L57.7564 26.8926C57.1814 26.6461 56.6653 26.298 56.1959 25.8287L54.0746 27.95ZM56.5746 29.65L55.4276 32.4221C56.7765 32.9802 58.2016 33.25 59.6746 33.25V30.25V27.25C58.9476 27.25 58.3061 27.1198 57.7217 26.8779L56.5746 29.65ZM83.7074 39H80.7074V42H83.7074V39ZM83.7074 4V0.999998H80.7074V4H83.7074ZM93.4074 4L95.7094 2.07626L94.81 0.999998H93.4074V4ZM111.207 25.3V28.3H117.624L113.509 23.3763L111.207 25.3ZM106.707 25.3H103.707V28.3H106.707V25.3ZM106.707 4V0.999998H103.707V4H106.707ZM118.207 4H121.207V0.999998H118.207V4ZM118.207 39V42H121.207V39H118.207ZM108.507 39L106.205 40.9237L107.105 42H108.507V39ZM90.7074 17.7V14.7H84.2907L88.4054 19.6237L90.7074 17.7ZM95.2074 17.7H98.2074V14.7H95.2074V17.7ZM95.2074 39V42H98.2074V39H95.2074ZM83.7074 39H86.7074V4H83.7074H80.7074V39H83.7074ZM83.7074 4V7H93.4074V4V0.999998H83.7074V4ZM93.4074 4L91.1054 5.92374L108.905 27.2237L111.207 25.3L113.509 23.3763L95.7094 2.07626L93.4074 4ZM111.207 25.3V22.3H106.707V25.3V28.3H111.207V25.3ZM106.707 25.3H109.707V4H106.707H103.707V25.3H106.707ZM106.707 4V7H118.207V4V0.999998H106.707V4ZM118.207 4H115.207V39H118.207H121.207V4H118.207ZM118.207 39V36H108.507V39V42H118.207V39ZM108.507 39L110.809 37.0763L93.0094 15.7763L90.7074 17.7L88.4054 19.6237L106.205 40.9237L108.507 39ZM90.7074 17.7V20.7H95.2074V17.7V14.7H90.7074V17.7ZM95.2074 17.7H92.2074V39H95.2074H98.2074V17.7H95.2074ZM95.2074 39V36H83.7074V39V42H95.2074V39ZM131.493 39H128.493V42H131.493V39ZM131.493 13.15H134.493V10.15H131.493V13.15ZM121.243 13.15H118.243V16.15H121.243V13.15ZM121.243 4V0.999998H118.243V4H121.243ZM153.543 4H156.543V0.999998H153.543V4ZM153.543 13.15V16.15H156.543V13.15H153.543ZM143.293 13.15V10.15H140.293V13.15H143.293ZM143.293 39V42H146.293V39H143.293ZM131.493 39H134.493V13.15H131.493H128.493V39H131.493ZM131.493 13.15V10.15H121.243V13.15V16.15H131.493V13.15ZM121.243 13.15H124.243V4H121.243H118.243V13.15H121.243ZM121.243 4V7H153.543V4V0.999998H121.243V4ZM153.543 4H150.543V13.15H153.543H156.543V4H153.543ZM153.543 13.15V10.15H143.293V13.15V16.15H153.543V13.15ZM143.293 13.15H140.293V39H143.293H146.293V13.15H143.293ZM143.293 39V36H131.493V39V42H143.293V39ZM151.05 39L148.301 37.7984L146.464 42H151.05V39ZM166.35 4V0.999998H164.387L163.601 2.79837L166.35 4ZM177.95 4L180.699 2.79837L179.913 0.999998H177.95V4ZM193.25 39V42H197.836L195.999 37.7984L193.25 39ZM181.05 39L178.25 40.0763L178.989 42H181.05V39ZM169.75 9.6V6.6H165.383L166.95 10.6763L169.75 9.6ZM174.35 9.6L177.15 10.6763L178.717 6.6H174.35V9.6ZM163.05 39V42H165.111L165.85 40.0763L163.05 39ZM160.15 32.9L157.321 31.9015L155.91 35.9H160.15V32.9ZM163.15 24.4V21.4H161.027L160.321 23.4015L163.15 24.4ZM179.25 24.4L182.079 23.4015L181.373 21.4H179.25V24.4ZM182.25 32.9V35.9H186.49L185.079 31.9015L182.25 32.9ZM151.05 39L153.799 40.2016L169.099 5.20163L166.35 4L163.601 2.79837L148.301 37.7984L151.05 39ZM166.35 4V7H177.95V4V0.999998H166.35V4ZM177.95 4L175.201 5.20163L190.501 40.2016L193.25 39L195.999 37.7984L180.699 2.79837L177.95 4ZM193.25 39V36H181.05V39V42H193.25V39ZM181.05 39L183.85 37.9237L172.55 8.5237L169.75 9.6L166.95 10.6763L178.25 40.0763L181.05 39ZM169.75 9.6V12.6H174.35V9.6V6.6H169.75V9.6ZM174.35 9.6L171.55 8.5237L160.25 37.9237L163.05 39L165.85 40.0763L177.15 10.6763L174.35 9.6ZM163.05 39V36H151.05V39V42H163.05V39ZM160.15 32.9L162.979 33.8985L165.979 25.3985L163.15 24.4L160.321 23.4015L157.321 31.9015L160.15 32.9ZM163.15 24.4V27.4H179.25V24.4V21.4H163.15V24.4ZM179.25 24.4L176.421 25.3985L179.421 33.8985L182.25 32.9L185.079 31.9015L182.079 23.4015L179.25 24.4ZM182.25 32.9V29.9H160.15V32.9V35.9H182.25V32.9ZM204.945 38.5L203.879 41.3041L203.902 41.3131L203.926 41.3217L204.945 38.5ZM198.745 34.7L196.688 36.8834L196.698 36.8931L196.708 36.9028L198.745 34.7ZM194.695 28.9L191.942 30.0917L194.695 28.9ZM194.695 14.1L191.942 12.9083L194.695 14.1ZM198.745 8.3L196.708 6.09718L196.698 6.10686L196.688 6.11663L198.745 8.3ZM204.945 4.55L205.977 7.36706L205.987 7.36306L205.998 7.35899L204.945 4.55ZM221.845 5L220.601 7.72991L220.607 7.73285L220.614 7.73577L221.845 5ZM228.445 10.2L230.443 12.4381L232.517 10.5864L230.828 8.37765L228.445 10.2ZM220.995 16.85L218.646 18.7167L220.623 21.2033L222.993 19.0881L220.995 16.85ZM217.545 13.85L216.012 16.4286L216.052 16.4528L216.094 16.4757L217.545 13.85ZM209.995 13.35L211.109 16.1354L211.109 16.1354L209.995 13.35ZM207.395 15.1L205.227 13.0263L205.203 13.0515L205.179 13.0772L207.395 15.1ZM205.745 17.9L208.554 18.9534L208.559 18.9393L208.564 18.9252L205.745 17.9ZM205.745 25.15L202.926 26.1752L202.931 26.1893L202.936 26.2034L205.745 25.15ZM207.395 27.9L205.179 29.9228L205.203 29.9485L205.227 29.9737L207.395 27.9ZM209.995 29.65L208.881 32.4354L209.995 29.65ZM217.545 29.2L219.026 31.8091L219.037 31.8027L219.048 31.7963L217.545 29.2ZM220.995 26.15L222.993 23.9119L220.623 21.7967L218.646 24.2833L220.995 26.15ZM228.445 32.8L230.815 34.6394L232.532 32.4269L230.443 30.5619L228.445 32.8ZM221.845 38L223.089 40.7299L223.097 40.7264L223.104 40.7229L221.845 38ZM212.745 39.8V36.8C210.259 36.8 208.007 36.4161 205.964 35.6783L204.945 38.5L203.926 41.3217C206.683 42.3173 209.631 42.8 212.745 42.8V39.8ZM204.945 38.5L206.011 35.6959C203.984 34.9251 202.252 33.8563 200.781 32.4972L198.745 34.7L196.708 36.9028C198.772 38.8103 201.172 40.2749 203.879 41.3041L204.945 38.5ZM198.745 34.7L200.802 32.5166C199.373 31.1693 198.256 29.5756 197.448 27.7083L194.695 28.9L191.942 30.0917C193.067 32.6911 194.651 34.964 196.688 36.8834L198.745 34.7ZM194.695 28.9L197.448 27.7083C196.661 25.8904 196.245 23.8351 196.245 21.5H193.245H190.245C190.245 24.5649 190.795 27.4429 191.942 30.0917L194.695 28.9ZM193.245 21.5H196.245C196.245 19.1649 196.661 17.1096 197.448 15.2917L194.695 14.1L191.942 12.9083C190.795 15.5571 190.245 18.4351 190.245 21.5H193.245ZM194.695 14.1L197.448 15.2917C198.256 13.4244 199.373 11.8307 200.802 10.4834L198.745 8.3L196.688 6.11663C194.651 8.03597 193.067 10.3089 191.942 12.9083L194.695 14.1ZM198.745 8.3L200.781 10.5028C202.243 9.15134 203.964 8.10398 205.977 7.36706L204.945 4.55L203.913 1.73294C201.192 2.72934 198.78 4.18199 196.708 6.09718L198.745 8.3ZM204.945 4.55L205.998 7.35899C208.032 6.59647 210.271 6.2 212.745 6.2V3.2V0.199999C209.618 0.199999 206.658 0.703525 203.892 1.74101L204.945 4.55ZM212.745 3.2V6.2C215.828 6.2 218.424 6.73797 220.601 7.72991L221.845 5L223.089 2.27009C219.999 0.862026 216.528 0.199999 212.745 0.199999V3.2ZM221.845 5L220.614 7.73577C222.838 8.73682 224.639 10.1611 226.062 12.0223L228.445 10.2L230.828 8.37765C228.785 5.70559 226.185 3.66317 223.076 2.26423L221.845 5ZM228.445 10.2L226.447 7.96192L218.997 14.6119L220.995 16.85L222.993 19.0881L230.443 12.4381L228.445 10.2ZM220.995 16.85L223.343 14.9833C222.1 13.4189 220.656 12.1418 218.996 11.2243L217.545 13.85L216.094 16.4757C216.967 16.9582 217.823 17.6811 218.646 18.7167L220.995 16.85ZM217.545 13.85L219.078 11.2714C217.339 10.2372 215.4 9.75 213.345 9.75V12.75V15.75C214.423 15.75 215.284 15.9961 216.012 16.4286L217.545 13.85ZM213.345 12.75V9.75C211.785 9.75 210.283 10.0038 208.881 10.5646L209.995 13.35L211.109 16.1354C211.707 15.8962 212.438 15.75 213.345 15.75V12.75ZM209.995 13.35L208.881 10.5646C207.489 11.1213 206.261 11.945 205.227 13.0263L207.395 15.1L209.563 17.1737C209.995 16.7216 210.501 16.3787 211.109 16.1354L209.995 13.35ZM207.395 15.1L205.179 13.0772C204.183 14.1684 203.443 15.4528 202.926 16.8748L205.745 17.9L208.564 18.9252C208.847 18.1472 209.207 17.565 209.61 17.1228L207.395 15.1ZM205.745 17.9L202.936 16.8466C202.39 18.3022 202.145 19.8671 202.145 21.5H205.145H208.145C208.145 20.4663 208.3 19.6311 208.554 18.9534L205.745 17.9ZM205.145 21.5H202.145C202.145 23.1349 202.391 24.7043 202.926 26.1752L205.745 25.15L208.564 24.1248C208.299 23.3957 208.145 22.5317 208.145 21.5H205.145ZM205.745 25.15L202.936 26.2034C203.457 27.5931 204.198 28.8475 205.179 29.9228L207.395 27.9L209.61 25.8772C209.192 25.4192 208.833 24.8402 208.554 24.0966L205.745 25.15ZM207.395 27.9L205.227 29.9737C206.261 31.055 207.489 31.8787 208.881 32.4354L209.995 29.65L211.109 26.8646C210.501 26.6213 209.995 26.2784 209.563 25.8263L207.395 27.9ZM209.995 29.65L208.881 32.4354C210.283 32.9962 211.785 33.25 213.345 33.25V30.25V27.25C212.438 27.25 211.707 27.1038 211.109 26.8646L209.995 29.65ZM213.345 30.25V33.25C215.375 33.25 217.295 32.7915 219.026 31.8091L217.545 29.2L216.064 26.5909C215.328 27.0085 214.448 27.25 213.345 27.25V30.25ZM217.545 29.2L219.048 31.7963C220.68 30.8512 222.108 29.5714 223.343 28.0167L220.995 26.15L218.646 24.2833C217.816 25.3286 216.943 26.0821 216.042 26.6037L217.545 29.2ZM220.995 26.15L218.997 28.3881L226.447 35.0381L228.445 32.8L230.443 30.5619L222.993 23.9119L220.995 26.15ZM228.445 32.8L226.075 30.9606C224.648 32.7998 222.834 34.237 220.586 35.2771L221.845 38L223.104 40.7229C226.189 39.2963 228.776 37.2669 230.815 34.6394L228.445 32.8ZM221.845 38L220.601 35.2701C218.424 36.262 215.828 36.8 212.745 36.8V39.8V42.8C216.528 42.8 219.999 42.138 223.089 40.7299L221.845 38ZM239.208 39H236.208V42H239.208V39ZM239.208 13.15H242.208V10.15H239.208V13.15ZM228.958 13.15H225.958V16.15H228.958V13.15ZM228.958 4V0.999998H225.958V4H228.958ZM261.258 4H264.258V0.999998H261.258V4ZM261.258 13.15V16.15H264.258V13.15H261.258ZM251.008 13.15V10.15H248.008V13.15H251.008ZM251.008 39V42H254.008V39H251.008ZM239.208 39H242.208V13.15H239.208H236.208V39H239.208ZM239.208 13.15V10.15H228.958V13.15V16.15H239.208V13.15ZM228.958 13.15H231.958V4H228.958H225.958V13.15H228.958ZM228.958 4V7H261.258V4V0.999998H228.958V4ZM261.258 4H258.258V13.15H261.258H264.258V4H261.258ZM261.258 13.15V10.15H251.008V13.15V16.15H261.258V13.15ZM251.008 13.15H248.008V39H251.008H254.008V13.15H251.008ZM251.008 39V36H239.208V39V42H251.008V39ZM283.513 35.45L281.428 37.607L283.513 35.45ZM279.013 4V0.999998H276.013V4H279.013ZM290.813 4H293.813V0.999998H290.813V4ZM292.263 28.6L289.98 30.5468L289.995 30.5637L290.009 30.5803L292.263 28.6ZM300.063 28.6L297.78 26.6532L297.775 26.6591L300.063 28.6ZM301.513 4V0.999998H298.513V4H301.513ZM313.113 4H316.113V0.999998H313.113V4ZM308.613 35.45L306.528 33.293L308.613 35.45ZM296.063 39.8V36.8C291.243 36.8 287.892 35.5102 285.598 33.293L283.513 35.45L281.428 37.607C285.134 41.1898 290.15 42.8 296.063 42.8V39.8ZM283.513 35.45L285.598 33.293C283.324 31.0945 282.013 27.8894 282.013 23.25H279.013H276.013C276.013 29.0773 277.702 34.0055 281.428 37.607L283.513 35.45ZM279.013 23.25H282.013V4H279.013H276.013V23.25H279.013ZM279.013 4V7H290.813V4V0.999998H279.013V4ZM290.813 4H287.813V22.9H290.813H293.813V4H290.813ZM290.813 22.9H287.813C287.813 25.7753 288.304 28.5814 289.98 30.5468L292.263 28.6L294.545 26.6532C294.288 26.3519 293.813 25.3581 293.813 22.9H290.813ZM292.263 28.6L290.009 30.5803C291.615 32.4076 293.778 33.25 296.163 33.25V30.25V27.25C295.281 27.25 294.844 26.9924 294.516 26.6197L292.263 28.6ZM296.163 30.25V33.25C298.558 33.25 300.755 32.4208 302.35 30.5409L300.063 28.6L297.775 26.6591C297.504 26.9792 297.101 27.25 296.163 27.25V30.25ZM300.063 28.6L302.345 30.5468C304.022 28.5814 304.513 25.7753 304.513 22.9H301.513H298.513C298.513 25.3581 298.037 26.3519 297.78 26.6532L300.063 28.6ZM301.513 22.9H304.513V4H301.513H298.513V22.9H301.513ZM301.513 4V7H313.113V4V0.999998H301.513V4ZM313.113 4H310.113V23.25H313.113H316.113V4H313.113ZM313.113 23.25H310.113C310.113 27.8894 308.802 31.0945 306.528 33.293L308.613 35.45L310.698 37.607C314.424 34.0055 316.113 29.0773 316.113 23.25H313.113ZM308.613 35.45L306.528 33.293C304.234 35.5102 300.883 36.8 296.063 36.8V39.8V42.8C301.976 42.8 306.992 41.1898 310.698 37.607L308.613 35.45ZM323.072 38.8L323.783 35.8854L323.072 38.8ZM316.322 36.2L313.578 34.9875L312.51 37.4032L314.771 38.7682L316.322 36.2ZM320.122 27.6L321.627 25.0049L318.731 23.3252L317.378 26.3875L320.122 27.6ZM325.672 29.95L324.823 32.8273L324.851 32.8355L324.879 32.8432L325.672 29.95ZM334.322 30.6L334.94 33.5356L334.995 33.5241L335.049 33.5104L334.322 30.6ZM335.772 29.95L337.765 32.1922L337.831 32.1337L337.893 32.0713L335.772 29.95ZM335.172 27.4L333.78 30.0575L335.172 27.4ZM332.372 26.5L331.685 29.4202L331.734 29.4318L331.784 29.4417L332.372 26.5ZM328.622 25.7L327.979 28.6302L328.013 28.6378L328.047 28.6445L328.622 25.7ZM324.472 24.55L323.502 27.389L323.513 27.3926L323.523 27.396L324.472 24.55ZM320.672 22.7L318.991 25.1848L319.008 25.1961L319.024 25.2071L320.672 22.7ZM317.922 19.7L315.296 21.1511L315.304 21.166L315.313 21.1808L317.922 19.7ZM318.672 9.1L316.197 7.40429L316.19 7.41435L318.672 9.1ZM324.122 4.8L322.917 2.05239L322.91 2.05546L322.903 2.05856L324.122 4.8ZM340.172 3.95L339.535 6.88153L340.172 3.95ZM346.372 6.25L349.143 7.40039L350.163 4.94302L347.845 3.63654L346.372 6.25ZM342.822 14.8L341.48 17.4833L344.359 18.9224L345.593 15.9504L342.822 14.8ZM337.772 12.85L336.988 15.7457L336.995 15.7477L337.003 15.7497L337.772 12.85ZM330.372 12.5L329.51 9.62652L330.372 12.5ZM328.922 13.3L326.692 11.2931L326.634 11.3579L326.579 11.4259L328.922 13.3ZM329.572 15.85L328.18 18.5075L328.23 18.534L328.282 18.5586L329.572 15.85ZM332.322 16.7L331.717 19.6384L331.725 19.6401L331.734 19.6417L332.322 16.7ZM336.122 17.45L335.547 20.3945L335.561 20.397L336.122 17.45ZM340.272 18.55L339.302 21.389H339.302L340.272 18.55ZM344.022 20.4L342.341 22.8848L342.358 22.8961L342.374 22.9071L344.022 20.4ZM346.822 23.4L344.213 24.8808V24.8808L346.822 23.4ZM346.022 33.9L343.547 32.2043L343.54 32.2144L346.022 33.9ZM340.622 38.2L341.84 40.9414L341.856 40.9344L341.872 40.9272L340.622 38.2ZM331.572 39.8V36.8C328.868 36.8 326.274 36.493 323.783 35.8854L323.072 38.8L322.361 41.7146C325.337 42.4403 328.409 42.8 331.572 42.8V39.8ZM323.072 38.8L323.783 35.8854C321.246 35.2666 319.303 34.4956 317.872 33.6318L316.322 36.2L314.771 38.7682C316.874 40.0377 319.431 41 322.361 41.7146L323.072 38.8ZM316.322 36.2L319.066 37.4125L322.866 28.8125L320.122 27.6L317.378 26.3875L313.578 34.9875L316.322 36.2ZM320.122 27.6L318.617 30.1951C320.51 31.2929 322.583 32.1664 324.823 32.8273L325.672 29.95L326.521 27.0727C324.694 26.5336 323.068 25.8404 321.627 25.0049L320.122 27.6ZM325.672 29.95L324.879 32.8432C327.176 33.4732 329.443 33.8 331.672 33.8V30.8V27.8C330.034 27.8 328.301 27.5602 326.465 27.0568L325.672 29.95ZM331.672 30.8V33.8C332.883 33.8 334.007 33.7321 334.94 33.5356L334.322 30.6L333.704 27.6643C333.37 27.7346 332.727 27.8 331.672 27.8V30.8ZM334.322 30.6L335.049 33.5104C335.895 33.2991 336.931 32.9334 337.765 32.1922L335.772 29.95L333.779 27.7078C333.851 27.6436 333.908 27.6054 333.937 27.5875C333.966 27.5695 333.976 27.5667 333.957 27.575C333.939 27.583 333.901 27.5988 333.839 27.6196C333.777 27.6403 333.696 27.6641 333.594 27.6896L334.322 30.6ZM335.772 29.95L337.893 32.0713C338.718 31.2466 339.222 30.1477 339.222 28.9H336.222H333.222C333.222 28.7146 333.259 28.4979 333.352 28.2807C333.444 28.0671 333.561 27.9178 333.651 27.8287L335.772 29.95ZM336.222 28.9H339.222C339.222 26.8568 337.962 25.4747 336.564 24.7425L335.172 27.4L333.78 30.0575C333.826 30.0817 333.671 30.0121 333.502 29.7704C333.31 29.4963 333.222 29.1742 333.222 28.9H336.222ZM335.172 27.4L336.564 24.7425C335.518 24.1945 334.281 23.8223 332.96 23.5583L332.372 26.5L331.784 29.4417C332.796 29.6443 333.426 29.8722 333.78 30.0575L335.172 27.4ZM332.372 26.5L333.059 23.5798C331.882 23.3028 330.594 23.0282 329.196 22.7555L328.622 25.7L328.047 28.6445C329.383 28.9052 330.595 29.1639 331.685 29.4202L332.372 26.5ZM328.622 25.7L329.265 22.7698C328.007 22.4936 326.726 22.139 325.421 21.7039L324.472 24.55L323.523 27.396C325.018 27.8943 326.503 28.3064 327.979 28.6302L328.622 25.7ZM324.472 24.55L325.441 21.711C324.305 21.3231 323.268 20.8161 322.319 20.1929L320.672 22.7L319.024 25.2071C320.409 26.1173 321.905 26.8436 323.502 27.389L324.472 24.55ZM320.672 22.7L322.353 20.2151C321.616 19.7168 321.012 19.066 320.531 18.2192L317.922 19.7L315.313 21.1808C316.232 22.8007 317.461 24.1499 318.991 25.1848L320.672 22.7ZM317.922 19.7L320.548 18.2489C320.154 17.537 319.872 16.5024 319.872 15H316.872H313.872C313.872 17.2309 314.29 19.3296 315.296 21.1511L317.922 19.7ZM316.872 15H319.872C319.872 13.4252 320.296 12.0474 321.154 10.7856L318.672 9.1L316.19 7.41435C314.647 9.68592 313.872 12.2415 313.872 15H316.872ZM318.672 9.1L321.147 10.7957C322.007 9.53942 323.344 8.42875 325.34 7.54143L324.122 4.8L322.903 2.05856C320.1 3.30459 317.803 5.06058 316.197 7.4043L318.672 9.1ZM324.122 4.8L325.326 7.54761C327.271 6.69529 329.848 6.2 333.172 6.2V3.2V0.199999C329.296 0.199999 325.84 0.771372 322.917 2.05239L324.122 4.8ZM333.172 3.2V6.2C335.325 6.2 337.445 6.4273 339.535 6.88153L340.172 3.95L340.809 1.01847C338.299 0.472702 335.752 0.199999 333.172 0.199999V3.2ZM340.172 3.95L339.535 6.88153C341.576 7.32529 343.355 7.99357 344.899 8.86345L346.372 6.25L347.845 3.63654C345.722 2.43976 343.368 1.5747 340.809 1.01847L340.172 3.95ZM346.372 6.25L343.601 5.0996L340.051 13.6496L342.822 14.8L345.593 15.9504L349.143 7.40039L346.372 6.25ZM342.822 14.8L344.164 12.1167C342.273 11.1716 340.398 10.4431 338.541 9.95032L337.772 12.85L337.003 15.7497C338.412 16.1236 339.904 16.695 341.48 17.4833L342.822 14.8ZM337.772 12.85L338.556 9.95432C336.721 9.45732 334.891 9.2 333.072 9.2V12.2V15.2C334.32 15.2 335.623 15.376 336.988 15.7457L337.772 12.85ZM333.072 12.2V9.2C331.805 9.2 330.576 9.30676 329.51 9.62652L330.372 12.5L331.234 15.3735C331.501 15.2932 332.072 15.2 333.072 15.2V12.2ZM330.372 12.5L329.51 9.62652C328.583 9.9045 327.51 10.3843 326.692 11.2931L328.922 13.3L331.152 15.3069C331.092 15.3735 331.04 15.418 331.005 15.4441C330.972 15.47 330.954 15.4795 330.959 15.4767C330.964 15.4739 330.987 15.4614 331.034 15.4423C331.081 15.4233 331.147 15.3996 331.234 15.3735L330.372 12.5ZM328.922 13.3L326.579 11.4259C325.918 12.2528 325.522 13.2712 325.522 14.4H328.522H331.522C331.522 14.5407 331.497 14.6966 331.441 14.8502C331.386 15.0014 331.316 15.1096 331.264 15.1741L328.922 13.3ZM328.522 14.4H325.522C325.522 16.4754 326.856 17.8142 328.18 18.5075L329.572 15.85L330.964 13.1925C330.897 13.1575 331.044 13.2177 331.214 13.453C331.412 13.7261 331.522 14.0718 331.522 14.4H328.522ZM329.572 15.85L328.282 18.5586C329.279 19.0332 330.451 19.3777 331.717 19.6384L332.322 16.7L332.927 13.7616C331.926 13.5556 331.265 13.3335 330.862 13.1414L329.572 15.85ZM332.322 16.7L331.734 19.6417C332.905 19.8761 334.177 20.1271 335.547 20.3945L336.122 17.45L336.696 14.5055C335.334 14.2396 334.072 13.9905 332.91 13.7583L332.322 16.7ZM336.122 17.45L335.561 20.397C336.82 20.637 338.067 20.9673 339.302 21.389L340.272 18.55L341.241 15.711C339.743 15.1994 338.223 14.7964 336.683 14.503L336.122 17.45ZM340.272 18.55L339.302 21.389C340.431 21.7745 341.44 22.2753 342.341 22.8848L344.022 20.4L345.703 17.9151C344.337 16.9913 342.846 16.2588 341.241 15.7109L340.272 18.55ZM344.022 20.4L342.374 22.9071C343.137 23.4084 343.744 24.0541 344.213 24.8808L346.822 23.4L349.431 21.9192C348.5 20.2792 347.24 18.9249 345.669 17.8929L344.022 20.4ZM346.822 23.4L344.213 24.8808C344.592 25.5492 344.872 26.5375 344.872 28H347.872H350.872C350.872 25.7958 350.452 23.7175 349.431 21.9192L346.822 23.4ZM347.872 28H344.872C344.872 29.5135 344.447 30.8915 343.547 32.2043L346.022 33.9L348.497 35.5957C350.064 33.3085 350.872 30.7531 350.872 28H347.872ZM346.022 33.9L343.54 32.2144C342.713 33.432 341.391 34.5474 339.372 35.4728L340.622 38.2L341.872 40.9272C344.653 39.6526 346.931 37.9013 348.504 35.5856L346.022 33.9ZM340.622 38.2L339.403 35.4586C337.504 36.3026 334.936 36.8 331.572 36.8V39.8V42.8C335.474 42.8 338.939 42.2307 341.84 40.9414L340.622 38.2Z" fill="url(#paint0_linear_315_789)" mask="url(#path-1-outside-1_315_789)"/>
<defs>
<linearGradient id="paint0_linear_315_789" x1="175.5" y1="-9" x2="175.5" y2="52" gradientUnits="userSpaceOnUse">
<stop stop-color="#E51D25"/>
<stop offset="1" stop-color="#1D3A69"/>
</linearGradient>
</defs>
</svg>
