<svg width="33" height="32" viewBox="0 0 33 32" fill="none" xmlns="http://www.w3.org/2000/svg">
<g clip-path="url(#clip0_264_56)">
<path fill-rule="evenodd" clip-rule="evenodd" d="M17.749 6.995V7.994C17.731 8.88 16.298 9.385 15.845 8.417C15.7847 8.28404 15.7527 8.13999 15.751 7.994V6.995H12.755C11.986 6.958 11.471 5.953 12 5.342C12.182 5.132 12.329 5.018 12.755 4.997C13.753 4.997 14.752 4.994 15.751 4.988V3.999C15.7483 3.89249 15.7653 3.78639 15.801 3.686C15.933 3.285 16.328 3 16.77 3C17.303 3.021 17.737 3.42 17.749 3.999V4.976C19.746 4.964 21.744 4.953 23.742 4.963V3.999C23.752 3.465 24.142 3.023 24.721 3H24.76C25.294 3.021 25.728 3.42 25.739 3.999V4.981L26.812 4.998C28.343 5.046 29.705 6.363 29.734 7.957C29.772 13.974 29.772 19.992 29.734 26.01C29.706 27.555 28.369 28.939 26.775 28.969C20.092 29.01 13.408 29.01 6.72499 28.969C5.18599 28.94 3.79599 27.63 3.76599 26.01C3.72799 19.992 3.72799 13.974 3.76599 7.957C3.79399 6.401 5.12699 5.008 6.75899 4.997H7.76099V3.999C7.75783 3.89245 7.7748 3.78626 7.81099 3.686C7.94299 3.285 8.33799 3 8.77899 3C9.31299 3.021 9.74699 3.42 9.75799 3.999V7.994C9.74099 8.879 8.34899 9.375 7.87199 8.453C7.80015 8.31059 7.76216 8.1535 7.76099 7.994V6.991C7.41965 6.98833 7.07829 6.98966 6.73699 6.995C6.22999 7.011 5.77899 7.455 5.76299 7.969C5.65149 13.9778 5.65149 19.9882 5.76299 25.997C5.77899 26.505 6.22299 26.955 6.73699 26.971C13.4117 27.095 20.0882 27.095 26.763 26.971C27.27 26.955 27.721 26.511 27.737 25.997C27.848 19.989 27.848 13.977 27.737 7.969C27.7219 7.71081 27.6106 7.46765 27.4252 7.28738C27.2397 7.10711 26.9935 7.0028 26.735 6.995H25.739V7.994C25.722 8.871 24.326 9.366 23.853 8.453C23.7816 8.31041 23.7437 8.15344 23.742 7.994V6.995H17.749ZM8.75899 22.976C8.8929 22.9718 9.02631 22.9945 9.15127 23.0428C9.27624 23.0911 9.39022 23.1641 9.48644 23.2573C9.58267 23.3505 9.65918 23.4621 9.71143 23.5855C9.76368 23.7089 9.79061 23.8415 9.79061 23.9755C9.79061 24.1095 9.76368 24.2421 9.71143 24.3655C9.65918 24.4888 9.58267 24.6005 9.48644 24.6937C9.39022 24.7869 9.27624 24.8599 9.15127 24.9082C9.02631 24.9565 8.8929 24.9792 8.75899 24.975C8.49938 24.9668 8.25315 24.8579 8.07241 24.6713C7.89167 24.4848 7.79061 24.2352 7.79061 23.9755C7.79061 23.7158 7.89167 23.4662 8.07241 23.2797C8.25315 23.0931 8.49938 22.9842 8.75899 22.976ZM12.755 22.976C12.8899 22.9701 13.0247 22.9916 13.1511 23.0392C13.2775 23.0868 13.393 23.1595 13.4905 23.253C13.5881 23.3465 13.6657 23.4587 13.7186 23.583C13.7716 23.7072 13.7988 23.841 13.7987 23.976C13.7986 24.1111 13.771 24.2448 13.7178 24.369C13.6646 24.4931 13.5868 24.6052 13.4891 24.6985C13.3914 24.7917 13.2758 24.8642 13.1492 24.9116C13.0227 24.9589 12.8879 24.9802 12.753 24.974C12.4958 24.9622 12.253 24.8517 12.0753 24.6654C11.8975 24.4792 11.7984 24.2315 11.7987 23.974C11.7989 23.7166 11.8985 23.4691 12.0766 23.2832C12.2548 23.0973 12.4978 22.9873 12.755 22.976ZM16.75 22.976C17.0072 22.9875 17.2501 23.0978 17.428 23.2839C17.606 23.47 17.7053 23.7175 17.7053 23.975C17.7053 24.2325 17.606 24.48 17.428 24.6661C17.2501 24.8522 17.0072 24.9625 16.75 24.974C16.4928 24.9625 16.2499 24.8522 16.072 24.6661C15.894 24.48 15.7947 24.2325 15.7947 23.975C15.7947 23.7175 15.894 23.47 16.072 23.2839C16.2499 23.0978 16.4928 22.9875 16.75 22.976ZM8.75899 18.981C8.89277 18.9768 9.02604 18.9995 9.15088 19.0477C9.27573 19.096 9.3896 19.1689 9.48573 19.262C9.58186 19.3552 9.65829 19.4667 9.71049 19.5899C9.76269 19.7132 9.78959 19.8456 9.78959 19.9795C9.78959 20.1133 9.76269 20.2458 9.71049 20.3691C9.65829 20.4923 9.58186 20.6038 9.48573 20.697C9.3896 20.7901 9.27573 20.863 9.15088 20.9113C9.02604 20.9595 8.89277 20.9822 8.75899 20.978C8.49964 20.9698 8.25366 20.861 8.0731 20.6746C7.89255 20.4883 7.79159 20.239 7.79159 19.9795C7.79159 19.72 7.89255 19.4707 8.0731 19.2844C8.25366 19.098 8.49964 18.9892 8.75899 18.981ZM12.755 18.981C13.0198 18.981 13.2738 19.0862 13.461 19.2735C13.6483 19.4607 13.7535 19.7147 13.7535 19.9795C13.7535 20.2443 13.6483 20.4983 13.461 20.6855C13.2738 20.8728 13.0198 20.978 12.755 20.978C12.4902 20.978 12.2362 20.8728 12.0489 20.6855C11.8617 20.4983 11.7565 20.2443 11.7565 19.9795C11.7565 19.7147 11.8617 19.4607 12.0489 19.2735C12.2362 19.0862 12.4902 18.981 12.755 18.981ZM16.75 18.981C16.8839 18.9768 17.0173 18.9995 17.1423 19.0478C17.2672 19.0961 17.3812 19.1691 17.4774 19.2623C17.5737 19.3555 17.6502 19.4671 17.7024 19.5905C17.7547 19.7139 17.7816 19.8465 17.7816 19.9805C17.7816 20.1145 17.7547 20.2471 17.7024 20.3705C17.6502 20.4939 17.5737 20.6055 17.4774 20.6987C17.3812 20.7919 17.2672 20.8649 17.1423 20.9132C17.0173 20.9615 16.8839 20.9842 16.75 20.98C16.4904 20.9718 16.2441 20.8629 16.0634 20.6763C15.8827 20.4898 15.7816 20.2402 15.7816 19.9805C15.7816 19.7208 15.8827 19.4712 16.0634 19.2847C16.2441 19.0981 16.4904 18.9892 16.75 18.981ZM20.745 18.981C20.8789 18.9768 21.0123 18.9995 21.1373 19.0478C21.2622 19.0961 21.3762 19.1691 21.4724 19.2623C21.5687 19.3555 21.6452 19.4671 21.6974 19.5905C21.7497 19.7139 21.7766 19.8465 21.7766 19.9805C21.7766 20.1145 21.7497 20.2471 21.6974 20.3705C21.6452 20.4939 21.5687 20.6055 21.4724 20.6987C21.3762 20.7919 21.2622 20.8649 21.1373 20.9132C21.0123 20.9615 20.8789 20.9842 20.745 20.98C20.4854 20.9718 20.2391 20.8629 20.0584 20.6763C19.8777 20.4898 19.7766 20.2402 19.7766 19.9805C19.7766 19.7208 19.8777 19.4712 20.0584 19.2847C20.2391 19.0981 20.4854 18.9892 20.745 18.981ZM24.74 18.981C24.8738 18.9768 25.007 18.9995 25.1319 19.0477C25.2567 19.096 25.3706 19.1689 25.4667 19.262C25.5629 19.3552 25.6393 19.4667 25.6915 19.5899C25.7437 19.7132 25.7706 19.8456 25.7706 19.9795C25.7706 20.1133 25.7437 20.2458 25.6915 20.3691C25.6393 20.4923 25.5629 20.6038 25.4667 20.697C25.3706 20.7901 25.2567 20.863 25.1319 20.9113C25.007 20.9595 24.8738 20.9822 24.74 20.978C24.4806 20.9698 24.2347 20.861 24.0541 20.6746C23.8736 20.4883 23.7726 20.239 23.7726 19.9795C23.7726 19.72 23.8736 19.4707 24.0541 19.2844C24.2347 19.098 24.4806 18.9892 24.74 18.981ZM12.755 14.986C12.886 14.986 13.0158 15.0118 13.1369 15.062C13.258 15.1121 13.368 15.1856 13.4607 15.2783C13.5534 15.371 13.6269 15.481 13.677 15.6021C13.7272 15.7232 13.753 15.8529 13.753 15.984C13.753 16.1151 13.7272 16.2448 13.677 16.3659C13.6269 16.487 13.5534 16.597 13.4607 16.6897C13.368 16.7824 13.258 16.8559 13.1369 16.906C13.0158 16.9562 12.886 16.982 12.755 16.982C12.4903 16.982 12.2365 16.8769 12.0493 16.6897C11.8621 16.5025 11.757 16.2487 11.757 15.984C11.757 15.7193 11.8621 15.4655 12.0493 15.2783C12.2365 15.0911 12.4903 14.986 12.755 14.986ZM16.75 14.986C16.8849 14.98 17.0197 15.0013 17.1462 15.0488C17.2726 15.0963 17.3882 15.1689 17.4858 15.2623C17.5834 15.3556 17.6612 15.4678 17.7142 15.592C17.7673 15.7162 17.7947 15.8499 17.7947 15.985C17.7947 16.1201 17.7673 16.2538 17.7142 16.378C17.6612 16.5022 17.5834 16.6144 17.4858 16.7077C17.3882 16.8011 17.2726 16.8737 17.1462 16.9212C17.0197 16.9687 16.8849 16.99 16.75 16.984C16.4928 16.9725 16.2499 16.8622 16.072 16.6761C15.894 16.49 15.7947 16.2425 15.7947 15.985C15.7947 15.7275 15.894 15.48 16.072 15.2939C16.2499 15.1078 16.4928 14.9975 16.75 14.986ZM20.745 14.986C20.8799 14.98 21.0147 15.0013 21.1412 15.0488C21.2676 15.0963 21.3832 15.1689 21.4808 15.2623C21.5784 15.3556 21.6562 15.4678 21.7092 15.592C21.7623 15.7162 21.7897 15.8499 21.7897 15.985C21.7897 16.1201 21.7623 16.2538 21.7092 16.378C21.6562 16.5022 21.5784 16.6144 21.4808 16.7077C21.3832 16.8011 21.2676 16.8737 21.1412 16.9212C21.0147 16.9687 20.8799 16.99 20.745 16.984C20.4878 16.9725 20.2449 16.8622 20.067 16.6761C19.889 16.49 19.7897 16.2425 19.7897 15.985C19.7897 15.7275 19.889 15.48 20.067 15.2939C20.2449 15.1078 20.4878 14.9975 20.745 14.986ZM24.74 14.986C25.0048 14.9859 25.2588 15.0909 25.4462 15.2781C25.6335 15.4653 25.7389 15.7192 25.739 15.984C25.7391 16.2488 25.634 16.5028 25.4469 16.6902C25.2597 16.8775 25.0058 16.9829 24.741 16.983C24.6099 16.9831 24.48 16.9573 24.3588 16.9072C24.2377 16.8571 24.1276 16.7836 24.0348 16.6909C23.942 16.5982 23.8684 16.4882 23.8182 16.3671C23.7679 16.246 23.7421 16.1161 23.742 15.985C23.7419 15.8539 23.7677 15.724 23.8178 15.6029C23.8679 15.4817 23.9414 15.3716 24.0341 15.2788C24.1268 15.186 24.2368 15.1124 24.3579 15.0622C24.479 15.012 24.6089 14.9861 24.74 14.986Z" fill="white"/>
</g>
<defs>
<clipPath id="clip0_264_56">
<rect width="32" height="32" fill="white" transform="translate(0.75)"/>
</clipPath>
</defs>
</svg>
