<svg width="145" height="51" viewBox="0 0 145 51" fill="none" xmlns="http://www.w3.org/2000/svg">
<mask id="path-1-outside-1_419_8533" maskUnits="userSpaceOnUse" x="0" y="0" width="145" height="51" fill="black">
<rect fill="white" width="145" height="51"/>
<path d="M14.85 18.9H30.25V27.8H14.85V18.9ZM15.65 39H3.85V4H32.3V12.9H15.65V39ZM30.9582 39L46.2582 4H57.8582L73.1582 39H60.9582L49.6582 9.6H54.2582L42.9582 39H30.9582ZM40.0582 32.9L43.0582 24.4H59.1582L62.1582 32.9H40.0582ZM92.9031 39.8C90.0698 39.8 87.4365 39.35 85.0031 38.45C82.6031 37.55 80.5198 36.2833 78.7531 34.65C76.9865 32.9833 75.6031 31.0333 74.6031 28.8C73.6365 26.5667 73.1531 24.1333 73.1531 21.5C73.1531 18.8333 73.6365 16.4 74.6031 14.2C75.6031 11.9667 76.9865 10.0333 78.7531 8.4C80.5198 6.73333 82.6031 5.45 85.0031 4.55C87.4365 3.65 90.0698 3.2 92.9031 3.2C95.7698 3.2 98.4031 3.65 100.803 4.55C103.203 5.45 105.286 6.73333 107.053 8.4C108.82 10.0333 110.186 11.9667 111.153 14.2C112.153 16.4 112.653 18.8333 112.653 21.5C112.653 24.1333 112.153 26.5667 111.153 28.8C110.186 31.0333 108.82 32.9833 107.053 34.65C105.286 36.2833 103.203 37.55 100.803 38.45C98.4031 39.35 95.7698 39.8 92.9031 39.8ZM104.353 47.85C102.72 47.85 101.203 47.6833 99.8031 47.35C98.4031 47.05 97.0365 46.5333 95.7031 45.8C94.4031 45.0667 93.0365 44.05 91.6031 42.75C90.1698 41.4833 88.5698 39.9 86.8031 38L99.0031 35C99.8031 36.2333 100.486 37.1833 101.053 37.85C101.62 38.5167 102.17 38.9833 102.703 39.25C103.27 39.5167 103.903 39.65 104.603 39.65C106.336 39.65 107.953 38.9 109.453 37.4L114.553 43.4C112.053 46.3667 108.653 47.85 104.353 47.85ZM92.9031 30.25C94.0031 30.25 95.0198 30.05 95.9531 29.65C96.9198 29.25 97.7531 28.6833 98.4531 27.95C99.1865 27.1833 99.7531 26.2667 100.153 25.2C100.553 24.1 100.753 22.8667 100.753 21.5C100.753 20.1333 100.553 18.9167 100.153 17.85C99.7531 16.75 99.1865 15.8333 98.4531 15.1C97.7531 14.3333 96.9198 13.75 95.9531 13.35C95.0198 12.95 94.0031 12.75 92.9031 12.75C91.8031 12.75 90.7698 12.95 89.8031 13.35C88.8698 13.75 88.0365 14.3333 87.3031 15.1C86.6031 15.8333 86.0531 16.75 85.6531 17.85C85.2531 18.9167 85.0531 20.1333 85.0531 21.5C85.0531 22.8667 85.2531 24.1 85.6531 25.2C86.0531 26.2667 86.6031 27.1833 87.3031 27.95C88.0365 28.6833 88.8698 29.25 89.8031 29.65C90.7698 30.05 91.8031 30.25 92.9031 30.25ZM127.286 39.5C124.953 39.5 122.653 39.25 120.386 38.75C118.119 38.25 116.286 37.6 114.886 36.8L117.986 29.35C119.286 30.1167 120.786 30.7167 122.486 31.15C124.219 31.5833 125.903 31.8 127.536 31.8C128.903 31.8 129.819 31.6833 130.286 31.45C130.786 31.2167 131.036 30.9 131.036 30.5C131.036 30.1 130.753 29.8167 130.186 29.65C129.619 29.45 128.869 29.3 127.936 29.2C127.003 29.1 125.969 28.9833 124.836 28.85C123.736 28.6833 122.619 28.45 121.486 28.15C120.353 27.85 119.319 27.4 118.386 26.8C117.453 26.2 116.703 25.4 116.136 24.4C115.569 23.3667 115.286 22.0667 115.286 20.5C115.286 18.7667 115.803 17.2 116.836 15.8C117.903 14.4 119.469 13.2833 121.536 12.45C123.636 11.5833 126.219 11.15 129.286 11.15C131.286 11.15 133.286 11.3333 135.286 11.7C137.286 12.0667 139.003 12.6333 140.436 13.4L137.336 20.85C135.936 20.0833 134.553 19.5667 133.186 19.3C131.853 19 130.603 18.85 129.436 18.85C128.003 18.85 127.019 18.9833 126.486 19.25C125.986 19.5167 125.736 19.8167 125.736 20.15C125.736 20.55 126.019 20.85 126.586 21.05C127.153 21.25 127.903 21.4 128.836 21.5C129.769 21.6 130.786 21.7333 131.886 21.9C133.019 22.0333 134.136 22.2667 135.236 22.6C136.369 22.9 137.403 23.35 138.336 23.95C139.269 24.55 140.019 25.3667 140.586 26.4C141.153 27.4 141.436 28.6833 141.436 30.25C141.436 31.8833 140.919 33.4167 139.886 34.85C138.853 36.25 137.286 37.3833 135.186 38.25C133.086 39.0833 130.453 39.5 127.286 39.5Z"/>
</mask>
<path d="M14.85 18.9V15.9H11.85V18.9H14.85ZM30.25 18.9H33.25V15.9H30.25V18.9ZM30.25 27.8V30.8H33.25V27.8H30.25ZM14.85 27.8H11.85V30.8H14.85V27.8ZM15.65 39V42H18.65V39H15.65ZM3.85 39H0.85V42H3.85V39ZM3.85 4V0.999998H0.85V4H3.85ZM32.3 4H35.3V0.999998H32.3V4ZM32.3 12.9V15.9H35.3V12.9H32.3ZM15.65 12.9V9.9H12.65V12.9H15.65ZM14.85 18.9V21.9H30.25V18.9V15.9H14.85V18.9ZM30.25 18.9H27.25V27.8H30.25H33.25V18.9H30.25ZM30.25 27.8V24.8H14.85V27.8V30.8H30.25V27.8ZM14.85 27.8H17.85V18.9H14.85H11.85V27.8H14.85ZM15.65 39V36H3.85V39V42H15.65V39ZM3.85 39H6.85V4H3.85H0.85V39H3.85ZM3.85 4V7H32.3V4V0.999998H3.85V4ZM32.3 4H29.3V12.9H32.3H35.3V4H32.3ZM32.3 12.9V9.9H15.65V12.9V15.9H32.3V12.9ZM15.65 12.9H12.65V39H15.65H18.65V12.9H15.65ZM30.9582 39L28.2094 37.7984L26.3727 42H30.9582V39ZM46.2582 4V0.999998H44.2955L43.5094 2.79837L46.2582 4ZM57.8582 4L60.607 2.79837L59.8209 0.999998H57.8582V4ZM73.1582 39V42H77.7438L75.907 37.7984L73.1582 39ZM60.9582 39L58.1579 40.0763L58.8973 42H60.9582V39ZM49.6582 9.6V6.6H45.2912L46.8579 10.6763L49.6582 9.6ZM54.2582 9.6L57.0585 10.6763L58.6252 6.6H54.2582V9.6ZM42.9582 39V42H45.0191L45.7585 40.0763L42.9582 39ZM40.0582 32.9L37.2292 31.9015L35.818 35.9H40.0582V32.9ZM43.0582 24.4V21.4H40.9357L40.2292 23.4015L43.0582 24.4ZM59.1582 24.4L61.9872 23.4015L61.2808 21.4H59.1582V24.4ZM62.1582 32.9V35.9H66.3984L64.9872 31.9015L62.1582 32.9ZM30.9582 39L33.707 40.2016L49.007 5.20163L46.2582 4L43.5094 2.79837L28.2094 37.7984L30.9582 39ZM46.2582 4V7H57.8582V4V0.999998H46.2582V4ZM57.8582 4L55.1094 5.20163L70.4094 40.2016L73.1582 39L75.907 37.7984L60.607 2.79837L57.8582 4ZM73.1582 39V36H60.9582V39V42H73.1582V39ZM60.9582 39L63.7585 37.9237L52.4585 8.5237L49.6582 9.6L46.8579 10.6763L58.1579 40.0763L60.9582 39ZM49.6582 9.6V12.6H54.2582V9.6V6.6H49.6582V9.6ZM54.2582 9.6L51.4579 8.5237L40.1579 37.9237L42.9582 39L45.7585 40.0763L57.0585 10.6763L54.2582 9.6ZM42.9582 39V36H30.9582V39V42H42.9582V39ZM40.0582 32.9L42.8872 33.8985L45.8872 25.3985L43.0582 24.4L40.2292 23.4015L37.2292 31.9015L40.0582 32.9ZM43.0582 24.4V27.4H59.1582V24.4V21.4H43.0582V24.4ZM59.1582 24.4L56.3292 25.3985L59.3292 33.8985L62.1582 32.9L64.9872 31.9015L61.9872 23.4015L59.1582 24.4ZM62.1582 32.9V29.9H40.0582V32.9V35.9H62.1582V32.9ZM85.0031 38.45L83.9497 41.259L83.9624 41.2637L85.0031 38.45ZM78.7531 34.65L76.6945 36.8322L76.7055 36.8426L76.7166 36.8528L78.7531 34.65ZM74.6031 28.8L71.85 29.9917L71.8574 30.0089L71.8651 30.026L74.6031 28.8ZM74.6031 14.2L71.8651 12.974L71.8608 12.9836L71.8566 12.9932L74.6031 14.2ZM78.7531 8.4L80.7897 10.6028L80.8008 10.5926L80.8118 10.5822L78.7531 8.4ZM85.0031 4.55L83.9624 1.73626L83.9498 1.74101L85.0031 4.55ZM100.803 4.55L99.7498 7.35899V7.35899L100.803 4.55ZM107.053 8.4L104.994 10.5822L105.005 10.5926L105.017 10.6028L107.053 8.4ZM111.153 14.2L108.4 15.3917L108.411 15.4166L108.422 15.4414L111.153 14.2ZM111.153 28.8L108.415 27.574L108.407 27.5911L108.4 27.6083L111.153 28.8ZM107.053 34.65L109.09 36.8528L109.101 36.8426L109.112 36.8322L107.053 34.65ZM100.803 38.45L99.7498 35.641L100.803 38.45ZM99.8031 47.35L100.498 44.4316L100.465 44.4237L100.432 44.4166L99.8031 47.35ZM95.7031 45.8L94.2292 48.4129L94.2432 48.4209L94.2574 48.4286L95.7031 45.8ZM91.6031 42.75L93.6186 40.5278L93.6042 40.5148L93.5897 40.502L91.6031 42.75ZM86.8031 38L86.0868 35.0868L81.131 36.3054L84.6061 40.0428L86.8031 38ZM99.0031 35L101.52 33.3674L100.359 31.5773L98.2868 32.0868L99.0031 35ZM101.053 37.85L98.7673 39.7929L98.7673 39.7929L101.053 37.85ZM102.703 39.25L101.361 41.9333L101.393 41.9492L101.426 41.9645L102.703 39.25ZM109.453 37.4L111.739 35.4571L109.632 32.9784L107.332 35.2787L109.453 37.4ZM114.553 43.4L116.847 45.3332L118.483 43.3916L116.839 41.4571L114.553 43.4ZM95.9531 29.65L94.8061 26.8779L94.7887 26.8851L94.7714 26.8926L95.9531 29.65ZM98.4531 27.95L96.2852 25.8763L96.2831 25.8786L98.4531 27.95ZM100.153 25.2L102.962 26.2534L102.967 26.2393L102.973 26.2252L100.153 25.2ZM100.153 17.85L97.3337 18.8752L97.3389 18.8893L97.3441 18.9034L100.153 17.85ZM98.4531 15.1L96.2377 17.1228L96.2836 17.1731L96.3318 17.2213L98.4531 15.1ZM95.9531 13.35L94.7714 16.1074L94.7887 16.1149L94.8061 16.1221L95.9531 13.35ZM89.8031 13.35L88.6561 10.5779L88.6387 10.5851L88.6214 10.5926L89.8031 13.35ZM87.3031 15.1L85.1352 13.0263L85.1331 13.0286L87.3031 15.1ZM85.6531 17.85L88.4621 18.9034L88.4674 18.8893L88.4725 18.8752L85.6531 17.85ZM85.6531 25.2L82.8337 26.2252L82.8389 26.2393L82.8441 26.2534L85.6531 25.2ZM87.3031 27.95L85.0877 29.9728L85.1336 30.0231L85.1818 30.0713L87.3031 27.95ZM89.8031 29.65L88.6214 32.4074L88.6387 32.4149L88.6561 32.4221L89.8031 29.65ZM92.9031 39.8V36.8C90.3923 36.8 88.1146 36.4022 86.0438 35.6363L85.0031 38.45L83.9624 41.2637C86.7583 42.2978 89.7473 42.8 92.9031 42.8V39.8ZM85.0031 38.45L86.0565 35.641C83.9963 34.8685 82.2527 33.7998 80.7897 32.4472L78.7531 34.65L76.7166 36.8528C78.7869 38.7669 81.2099 40.2315 83.9498 41.259L85.0031 38.45ZM78.7531 34.65L80.8118 32.4678C79.3345 31.0742 78.1811 29.4498 77.3412 27.574L74.6031 28.8L71.8651 30.026C73.0252 32.6169 74.6384 34.8925 76.6945 36.8322L78.7531 34.65ZM74.6031 28.8L77.3563 27.6083C76.5654 25.7812 76.1531 23.7574 76.1531 21.5H73.1531H70.1531C70.1531 24.5092 70.7075 27.3521 71.85 29.9917L74.6031 28.8ZM73.1531 21.5H76.1531C76.1531 19.203 76.5676 17.1866 77.3497 15.4068L74.6031 14.2L71.8566 12.9932C70.7053 15.6134 70.1531 18.4636 70.1531 21.5H73.1531ZM74.6031 14.2L77.3412 15.426C78.1786 13.5558 79.3255 11.9565 80.7897 10.6028L78.7531 8.4L76.7166 6.19718C74.6474 8.11021 73.0277 10.3775 71.8651 12.974L74.6031 14.2ZM78.7531 8.4L80.8118 10.5822C82.2725 9.20418 84.0089 8.12683 86.0565 7.35899L85.0031 4.55L83.9498 1.74101C81.1973 2.77317 78.7671 4.26249 76.6945 6.21782L78.7531 8.4ZM85.0031 4.55L86.0438 7.36371C88.1146 6.59778 90.3923 6.2 92.9031 6.2V3.2V0.199999C89.7473 0.199999 86.7583 0.702213 83.9624 1.73629L85.0031 4.55ZM92.9031 3.2V6.2C95.4524 6.2 97.7241 6.59936 99.7498 7.35899L100.803 4.55L101.856 1.74101C99.0822 0.700639 96.0872 0.199999 92.9031 0.199999V3.2ZM100.803 4.55L99.7498 7.35899C101.797 8.12683 103.534 9.20418 104.994 10.5822L107.053 8.4L109.112 6.21782C107.039 4.26249 104.609 2.77317 101.856 1.74101L100.803 4.55ZM107.053 8.4L105.017 10.6028C106.473 11.9493 107.597 13.5371 108.4 15.3917L111.153 14.2L113.906 13.0083C112.776 10.3963 111.167 8.11734 109.09 6.19718L107.053 8.4ZM111.153 14.2L108.422 15.4414C109.227 17.2128 109.653 19.2169 109.653 21.5H112.653H115.653C115.653 18.4498 115.079 15.5872 113.884 12.9586L111.153 14.2ZM112.653 21.5H109.653C109.653 23.7434 109.23 25.755 108.415 27.574L111.153 28.8L113.891 30.026C115.077 27.3783 115.653 24.5232 115.653 21.5H112.653ZM111.153 28.8L108.4 27.6083C107.595 29.4685 106.464 31.0813 104.994 32.4678L107.053 34.65L109.112 36.8322C111.175 34.8854 112.778 32.5981 113.906 29.9917L111.153 28.8ZM107.053 34.65L105.017 32.4472C103.554 33.7998 101.81 34.8685 99.7498 35.641L100.803 38.45L101.856 41.259C104.596 40.2315 107.019 38.7669 109.09 36.8528L107.053 34.65ZM100.803 38.45L99.7498 35.641C97.7241 36.4006 95.4524 36.8 92.9031 36.8V39.8V42.8C96.0872 42.8 99.0822 42.2994 101.856 41.259L100.803 38.45ZM104.353 47.85V44.85C102.923 44.85 101.642 44.704 100.498 44.4316L99.8031 47.35L99.1083 50.2684C100.764 50.6627 102.517 50.85 104.353 50.85V47.85ZM99.8031 47.35L100.432 44.4166C99.3349 44.1816 98.2422 43.7727 97.1489 43.1714L95.7031 45.8L94.2574 48.4286C95.8307 49.294 97.4713 49.9184 99.1745 50.2834L99.8031 47.35ZM95.7031 45.8L97.1771 43.1871C96.119 42.5902 94.9324 41.7195 93.6186 40.5278L91.6031 42.75L89.5877 44.9722C91.1405 46.3806 92.6873 47.5432 94.2292 48.4129L95.7031 45.8ZM91.6031 42.75L93.5897 40.502C92.2504 39.3184 90.7218 37.8088 89.0001 35.9572L86.8031 38L84.6061 40.0428C86.4178 41.9912 88.0892 43.6482 89.6165 44.998L91.6031 42.75ZM86.8031 38L87.5195 40.9132L99.7195 37.9132L99.0031 35L98.2868 32.0868L86.0868 35.0868L86.8031 38ZM99.0031 35L96.4862 36.6326C97.3162 37.9121 98.0799 38.9842 98.7673 39.7929L101.053 37.85L103.339 35.9071C102.893 35.3825 102.29 34.5546 101.52 33.3674L99.0031 35ZM101.053 37.85L98.7673 39.7929C99.4838 40.6359 100.339 41.4221 101.361 41.9333L102.703 39.25L104.045 36.5667C104.001 36.5446 103.756 36.3974 103.339 35.9071L101.053 37.85ZM102.703 39.25L101.426 41.9645C102.437 42.4402 103.514 42.65 104.603 42.65V39.65V36.65C104.292 36.65 104.103 36.5931 103.981 36.5355L102.703 39.25ZM104.603 39.65V42.65C107.303 42.65 109.646 41.45 111.574 39.5213L109.453 37.4L107.332 35.2787C106.26 36.35 105.37 36.65 104.603 36.65V39.65ZM109.453 37.4L107.167 39.3429L112.267 45.3429L114.553 43.4L116.839 41.4571L111.739 35.4571L109.453 37.4ZM114.553 43.4L112.259 41.4668C110.395 43.6785 107.877 44.85 104.353 44.85V47.85V50.85C109.43 50.85 113.711 49.0548 116.847 45.3332L114.553 43.4ZM92.9031 30.25V33.25C94.3752 33.25 95.7979 32.9804 97.1349 32.4074L95.9531 29.65L94.7714 26.8926C94.2416 27.1196 93.631 27.25 92.9031 27.25V30.25ZM95.9531 29.65L97.1002 32.4221C98.4403 31.8675 99.6254 31.0667 100.623 30.0214L98.4531 27.95L96.2831 25.8786C95.8808 26.2999 95.3993 26.6325 94.8061 26.8779L95.9531 29.65ZM98.4531 27.95L100.621 30.0237C101.655 28.9426 102.43 27.6716 102.962 26.2534L100.153 25.2L97.3441 24.1466C97.076 24.8617 96.7178 25.424 96.2852 25.8763L98.4531 27.95ZM100.153 25.2L102.973 26.2252C103.51 24.7466 103.753 23.1589 103.753 21.5H100.753H97.7531C97.7531 22.5745 97.5961 23.4534 97.3337 24.1748L100.153 25.2ZM100.753 21.5H103.753C103.753 19.8435 103.511 18.2599 102.962 16.7966L100.153 17.85L97.3441 18.9034C97.5954 19.5734 97.7531 20.4231 97.7531 21.5H100.753ZM100.153 17.85L102.973 16.8248C102.442 15.366 101.655 14.0596 100.574 12.9787L98.4531 15.1L96.3318 17.2213C96.7175 17.607 97.0642 18.134 97.3337 18.8752L100.153 17.85ZM98.4531 15.1L100.669 13.0772C99.6694 11.9828 98.4704 11.1449 97.1002 10.5779L95.9531 13.35L94.8061 16.1221C95.3692 16.3551 95.8369 16.6838 96.2377 17.1228L98.4531 15.1ZM95.9531 13.35L97.1349 10.5926C95.7979 10.0196 94.3752 9.75 92.9031 9.75V12.75V15.75C93.631 15.75 94.2416 15.8804 94.7714 16.1074L95.9531 13.35ZM92.9031 12.75V9.75C91.4301 9.75 90.005 10.0198 88.6561 10.5779L89.8031 13.35L90.9502 16.122C91.5346 15.8802 92.1761 15.75 92.9031 15.75V12.75ZM89.8031 13.35L88.6214 10.5926C87.3 11.1589 86.1351 11.981 85.1352 13.0263L87.3031 15.1L89.4711 17.1737C89.9378 16.6857 90.4396 16.3411 90.9849 16.1074L89.8031 13.35ZM87.3031 15.1L85.1331 13.0286C84.1057 14.1049 83.3538 15.3947 82.8337 16.8248L85.6531 17.85L88.4725 18.8752C88.7525 18.1053 89.1006 17.5618 89.4732 17.1714L87.3031 15.1ZM85.6531 17.85L82.8441 16.7966C82.2954 18.2599 82.0531 19.8435 82.0531 21.5H85.0531H88.0531C88.0531 20.4231 88.2109 19.5734 88.4621 18.9034L85.6531 17.85ZM85.0531 21.5H82.0531C82.0531 23.1589 82.2961 24.7466 82.8337 26.2252L85.6531 25.2L88.4725 24.1748C88.2102 23.4534 88.0531 22.5745 88.0531 21.5H85.0531ZM85.6531 25.2L82.8441 26.2534C83.3653 27.6431 84.1058 28.8975 85.0877 29.9728L87.3031 27.95L89.5186 25.9272C89.1004 25.4692 88.741 24.8902 88.4621 24.1466L85.6531 25.2ZM87.3031 27.95L85.1818 30.0713C86.1791 31.0686 87.3297 31.8538 88.6214 32.4074L89.8031 29.65L90.9849 26.8926C90.4099 26.6461 89.8938 26.298 89.4244 25.8287L87.3031 27.95ZM89.8031 29.65L88.6561 32.4221C90.005 32.9802 91.4301 33.25 92.9031 33.25V30.25V27.25C92.1761 27.25 91.5346 27.1198 90.9502 26.8779L89.8031 29.65ZM120.386 38.75L119.74 41.6796L120.386 38.75ZM114.886 36.8L112.116 35.6475L111.099 38.0914L113.398 39.4047L114.886 36.8ZM117.986 29.35L119.51 26.7659L116.541 25.0147L115.216 28.1975L117.986 29.35ZM122.486 31.15L121.745 34.0571L121.758 34.0604L122.486 31.15ZM130.286 31.45L129.017 28.7314L128.981 28.7486L128.944 28.7667L130.286 31.45ZM130.186 29.65L129.187 32.479L129.263 32.5056L129.339 32.5281L130.186 29.65ZM124.836 28.85L124.387 31.8161L124.436 31.8236L124.485 31.8295L124.836 28.85ZM121.486 28.15L120.718 31.0501L121.486 28.15ZM118.386 26.8L116.764 29.3235L118.386 26.8ZM116.136 24.4L113.506 25.8425L113.516 25.8608L113.526 25.879L116.136 24.4ZM116.836 15.8L114.45 13.9819L114.436 14.0001L114.422 14.0184L116.836 15.8ZM121.536 12.45L122.658 15.2323L122.669 15.2278L122.68 15.2231L121.536 12.45ZM135.286 11.7L134.745 14.6508L135.286 11.7ZM140.436 13.4L143.206 14.5525L144.252 12.0388L141.851 10.7546L140.436 13.4ZM137.336 20.85L135.895 23.4813L138.823 25.0848L140.106 22.0025L137.336 20.85ZM133.186 19.3L132.527 22.2268L132.569 22.2362L132.611 22.2445L133.186 19.3ZM126.486 19.25L125.144 16.5667L125.109 16.5844L125.074 16.6029L126.486 19.25ZM126.586 21.05L127.584 18.221L126.586 21.05ZM128.836 21.5L129.156 18.5171L128.836 21.5ZM131.886 21.9L131.437 24.8661L131.486 24.8736L131.535 24.8795L131.886 21.9ZM135.236 22.6L134.366 25.4711L134.417 25.4865L134.468 25.5001L135.236 22.6ZM138.336 23.95L139.958 21.4265V21.4265L138.336 23.95ZM140.586 26.4L137.956 27.8425L137.966 27.8608L137.976 27.879L140.586 26.4ZM139.886 34.85L142.3 36.6316L142.31 36.618L142.319 36.6044L139.886 34.85ZM135.186 38.25L136.292 41.0385L136.311 41.0309L136.33 41.0231L135.186 38.25ZM127.286 39.5V36.5C125.169 36.5 123.085 36.2734 121.032 35.8204L120.386 38.75L119.74 41.6796C122.22 42.2266 124.736 42.5 127.286 42.5V39.5ZM120.386 38.75L121.032 35.8204C118.943 35.3596 117.424 34.7951 116.374 34.1953L114.886 36.8L113.398 39.4047C115.148 40.4049 117.296 41.1404 119.74 41.6796L120.386 38.75ZM114.886 36.8L117.656 37.9525L120.756 30.5025L117.986 29.35L115.216 28.1975L112.116 35.6475L114.886 36.8ZM117.986 29.35L116.462 31.9341C118.042 32.8661 119.813 33.5647 121.745 34.057L122.486 31.15L123.227 28.243C121.758 27.8686 120.53 27.3673 119.51 26.7659L117.986 29.35ZM122.486 31.15L121.758 34.0604C123.708 34.5477 125.636 34.8 127.536 34.8V31.8V28.8C126.17 28.8 124.731 28.6189 123.214 28.2396L122.486 31.15ZM127.536 31.8V34.8C128.292 34.8 128.999 34.7684 129.627 34.6885C130.204 34.6151 130.944 34.4749 131.628 34.1333L130.286 31.45L128.944 28.7667C129.077 28.7005 129.15 28.6861 129.116 28.6948C129.089 28.7016 129.012 28.7184 128.87 28.7365C128.581 28.7733 128.146 28.8 127.536 28.8V31.8ZM130.286 31.45L131.555 34.1685C132.642 33.661 134.036 32.5066 134.036 30.5H131.036H128.036C128.036 30.0191 128.205 29.5447 128.494 29.1786C128.745 28.86 128.991 28.7437 129.017 28.7314L130.286 31.45ZM131.036 30.5H134.036C134.036 29.5028 133.648 28.5694 132.945 27.8662C132.319 27.2408 131.586 26.9346 131.032 26.7719L130.186 29.65L129.339 32.5281C129.33 32.5254 129.26 32.5045 129.154 32.4482C129.047 32.3916 128.88 32.2868 128.702 32.1088C128.282 31.689 128.036 31.0972 128.036 30.5H131.036ZM130.186 29.65L131.184 26.821C130.312 26.513 129.307 26.3297 128.256 26.2171L127.936 29.2L127.616 32.1829C128.432 32.2703 128.927 32.387 129.187 32.479L130.186 29.65ZM127.936 29.2L128.256 26.2171C127.334 26.1184 126.312 26.0029 125.186 25.8705L124.836 28.85L124.485 31.8295C125.627 31.9637 126.671 32.0816 127.616 32.1829L127.936 29.2ZM124.836 28.85L125.285 25.8839C124.298 25.7343 123.288 25.5236 122.254 25.2499L121.486 28.15L120.718 31.0501C121.951 31.3764 123.174 31.6324 124.387 31.8161L124.836 28.85ZM121.486 28.15L122.254 25.2499C121.406 25.0255 120.664 24.6977 120.008 24.2765L118.386 26.8L116.764 29.3235C117.975 30.1023 119.299 30.6745 120.718 31.0501L121.486 28.15ZM118.386 26.8L120.008 24.2765C119.499 23.949 119.082 23.5136 118.746 22.921L116.136 24.4L113.526 25.879C114.323 27.2864 115.406 28.451 116.764 29.3235L118.386 26.8ZM116.136 24.4L118.766 22.9575C118.509 22.4881 118.286 21.7225 118.286 20.5H115.286H112.286C112.286 22.4109 112.63 24.2452 113.506 25.8425L116.136 24.4ZM115.286 20.5H118.286C118.286 19.4106 118.596 18.4678 119.25 17.5816L116.836 15.8L114.422 14.0184C113.01 15.9322 112.286 18.1227 112.286 20.5H115.286ZM116.836 15.8L119.222 17.6181C119.886 16.7476 120.96 15.9168 122.658 15.2323L121.536 12.45L120.414 9.66768C117.978 10.6499 115.92 12.0524 114.45 13.9819L116.836 15.8ZM121.536 12.45L122.68 15.2231C124.315 14.5487 126.483 14.15 129.286 14.15V11.15V8.15C125.956 8.15 122.957 8.61794 120.391 9.67688L121.536 12.45ZM129.286 11.15V14.15C131.101 14.15 132.92 14.3163 134.745 14.6508L135.286 11.7L135.827 8.74918C133.651 8.35034 131.47 8.15 129.286 8.15V11.15ZM135.286 11.7L134.745 14.6508C136.513 14.9749 137.92 15.4565 139.021 16.0454L140.436 13.4L141.851 10.7546C140.085 9.81016 138.059 9.15842 135.827 8.74918L135.286 11.7ZM140.436 13.4L137.666 12.2475L134.566 19.6975L137.336 20.85L140.106 22.0025L143.206 14.5525L140.436 13.4ZM137.336 20.85L138.777 18.2187C137.145 17.325 135.471 16.6893 133.76 16.3555L133.186 19.3L132.611 22.2445C133.634 22.444 134.727 22.8417 135.895 23.4813L137.336 20.85ZM133.186 19.3L133.844 16.3732C132.331 16.0326 130.858 15.85 129.436 15.85V18.85V21.85C130.347 21.85 131.374 21.9674 132.527 22.2268L133.186 19.3ZM129.436 18.85V15.85C128.638 15.85 127.89 15.8864 127.22 15.9772C126.589 16.0628 125.837 16.2204 125.144 16.5667L126.486 19.25L127.828 21.9333C127.668 22.013 127.675 21.9705 128.027 21.9228C128.34 21.8803 128.8 21.85 129.436 21.85V18.85ZM126.486 19.25L125.074 16.6029C124.311 17.0101 122.736 18.0841 122.736 20.15H125.736H128.736C128.736 20.802 128.471 21.3035 128.228 21.5956C128.02 21.8453 127.848 21.9234 127.898 21.8971L126.486 19.25ZM125.736 20.15H122.736C122.736 21.1424 123.118 22.0475 123.767 22.7349C124.352 23.3534 125.045 23.6874 125.587 23.879L126.586 21.05L127.584 18.221C127.587 18.2218 127.644 18.2419 127.735 18.2954C127.827 18.3493 127.973 18.4492 128.129 18.6151C128.495 19.0025 128.736 19.5576 128.736 20.15H125.736ZM126.586 21.05L125.587 23.879C126.46 24.187 127.465 24.3703 128.516 24.4829L128.836 21.5L129.156 18.5171C128.34 18.4297 127.845 18.313 127.584 18.221L126.586 21.05ZM128.836 21.5L128.516 24.4829C129.399 24.5775 130.372 24.7049 131.437 24.8661L131.886 21.9L132.335 18.9339C131.2 18.7618 130.139 18.6225 129.156 18.5171L128.836 21.5ZM131.886 21.9L131.535 24.8795C132.491 24.9919 133.434 25.1888 134.366 25.4711L135.236 22.6L136.106 19.7289C134.838 19.3446 133.547 19.0747 132.236 18.9205L131.886 21.9ZM135.236 22.6L134.468 25.5001C135.316 25.7245 136.058 26.0523 136.714 26.4735L138.336 23.95L139.958 21.4265C138.747 20.6477 137.423 20.0755 136.004 19.6999L135.236 22.6ZM138.336 23.95L136.714 26.4735C137.2 26.7861 137.614 27.2198 137.956 27.8425L140.586 26.4L143.216 24.9575C142.425 23.5135 141.339 22.3139 139.958 21.4265L138.336 23.95ZM140.586 26.4L137.976 27.879C138.211 28.2935 138.436 29.0215 138.436 30.25H141.436H144.436C144.436 28.3452 144.094 26.5065 143.196 24.921L140.586 26.4ZM141.436 30.25H138.436C138.436 31.2013 138.149 32.129 137.452 33.0956L139.886 34.85L142.319 36.6044C143.689 34.7043 144.436 32.5654 144.436 30.25H141.436ZM139.886 34.85L137.472 33.0684C136.849 33.9133 135.787 34.7565 134.041 35.4769L135.186 38.25L136.33 41.0231C138.785 40.0102 140.857 38.5867 142.3 36.6316L139.886 34.85ZM135.186 38.25L134.079 35.4615C132.442 36.1111 130.215 36.5 127.286 36.5V39.5V42.5C130.691 42.5 133.729 42.0555 136.292 41.0385L135.186 38.25Z" fill="url(#paint0_linear_419_8533)" mask="url(#path-1-outside-1_419_8533)"/>
<defs>
<linearGradient id="paint0_linear_419_8533" x1="72" y1="-9" x2="72" y2="52" gradientUnits="userSpaceOnUse">
<stop stop-color="#E51D25"/>
<stop offset="1" stop-color="#1D3A69"/>
</linearGradient>
</defs>
</svg>
