<svg width="30" height="30" viewBox="0 0 30 30" fill="none" xmlns="http://www.w3.org/2000/svg">
<rect width="30" height="30" rx="5" fill="#1D3A69"/>
<g clip-path="url(#clip0_855_1819)">
<path d="M10.6327 23V12.8795H7.20239V23H10.6327ZM8.91798 11.4969C10.1142 11.4969 10.8588 10.7198 10.8588 9.74862C10.8365 8.75556 10.1142 8 8.94068 8C7.76731 8 7 8.75558 7 9.74862C7 10.7198 7.7444 11.4969 8.89559 11.4969H8.91787H8.91798ZM12.5313 23H15.9617V17.3482C15.9617 17.0458 15.9839 16.7436 16.0745 16.5274C16.3225 15.923 16.8869 15.2971 17.8345 15.2971C19.0758 15.2971 19.5724 16.2252 19.5724 17.5857V22.9999H23.0025V17.1969C23.0025 14.0883 21.3101 12.6419 19.0532 12.6419C17.2027 12.6419 16.3902 13.6563 15.9388 14.3471H15.9617V12.8793H12.5314C12.5764 13.829 12.5314 22.9998 12.5314 22.9998L12.5313 23Z" fill="white"/>
</g>
<defs>
<clipPath id="clip0_855_1819">
<rect width="16" height="15" fill="white" transform="translate(7 8)"/>
</clipPath>
</defs>
</svg>
