<svg width="50" height="50" viewBox="0 0 50 50" fill="none" xmlns="http://www.w3.org/2000/svg">
<path d="M39.375 14.3828C39.375 10.5703 37.8605 6.91399 35.1647 4.21815C32.4688 1.52232 28.8125 0.0078125 25 0.0078125C21.1875 0.0078125 17.5312 1.52232 14.8353 4.21815C12.1395 6.91399 10.625 10.5703 10.625 14.3828C10.625 22.3203 25 42.3906 25 42.3906C25 42.3906 39.375 22.3203 39.375 14.3828ZM15.625 14.3828C15.625 12.5286 16.1748 10.7161 17.205 9.17434C18.2351 7.63263 19.6993 6.43101 21.4123 5.72144C23.1254 5.01187 25.0104 4.82621 26.829 5.18795C28.6475 5.54969 30.318 6.44257 31.6291 7.75369C32.9402 9.0648 33.8331 10.7353 34.1949 12.5538C34.5566 14.3724 34.3709 16.2574 33.6614 17.9705C32.9518 19.6835 31.7502 21.1477 30.2085 22.1778C28.6668 23.208 26.8542 23.7578 25 23.7578C22.5136 23.7578 20.129 22.7701 18.3709 21.0119C16.6127 19.2538 15.625 16.8692 15.625 14.3828Z" fill="#1D3A69"/>
<path d="M32.2344 33.5937C31.1562 35.3516 30.1094 36.9766 29.1875 38.3672C33.0938 38.8984 35.8281 40.1484 35.8281 41.6172C35.8281 43.5547 30.9844 45.1328 25 45.1328C19.0156 45.1328 14.1719 43.5703 14.1719 41.6172C14.1719 40.1406 16.9219 38.8906 20.8203 38.3672C19.8984 36.9766 18.8516 35.3438 17.7734 33.5859C8.32031 34.6562 1.49219 37.8281 1.49219 41.5859C1.49219 46.2344 12.0156 50 25 50C37.9844 50 48.5078 46.2344 48.5078 41.5859C48.5078 37.8281 41.6797 34.6562 32.2344 33.5937Z" fill="#1D3A69"/>
</svg>
