<svg width="33" height="32" viewBox="0 0 33 32" fill="none" xmlns="http://www.w3.org/2000/svg">
<path d="M30.75 29.824V9.588L22.75 5.588L21.872 5.08C21.624 4.668 21.342 4.276 20.992 3.928C18.652 1.59 14.848 1.59 12.508 3.928C11.376 5.062 10.75 6.57 10.75 8.172C10.75 8.32 10.782 8.464 10.792 8.61L2.75 4.588V24.824L10.75 28.824L11.704 29.3L12.75 28.884L21.704 25.302L30.75 29.824ZM28.75 10.824V26.588L22.75 23.588V8.172V7.824L28.75 10.824ZM13.922 5.342C15.48 3.784 18.02 3.784 19.578 5.342C19.946 5.71 20.228 6.138 20.426 6.6L20.466 6.7C20.48 6.734 20.486 6.77 20.498 6.804C20.572 7.008 20.638 7.214 20.678 7.424C20.724 7.668 20.75 7.918 20.75 8.172C20.75 9.24 20.334 10.244 19.578 11L16.75 13.828L13.922 11C13.732 10.81 13.564 10.604 13.418 10.386C13.392 10.346 13.376 10.302 13.352 10.264C13.238 10.078 13.13 9.89 13.048 9.688C12.854 9.214 12.75 8.7 12.75 8.172C12.75 7.104 13.166 6.098 13.922 5.342ZM4.75 23.588V7.824L10.75 10.824V26.588L4.75 23.588ZM12.75 12.656L16.75 16.656L20.75 12.656V23.53L12.75 26.73V12.656Z" fill="white"/>
<path d="M16.75 9.06403C17.4404 9.06403 18 8.50438 18 7.81403C18 7.12367 17.4404 6.56403 16.75 6.56403C16.0596 6.56403 15.5 7.12367 15.5 7.81403C15.5 8.50438 16.0596 9.06403 16.75 9.06403Z" fill="white"/>
</svg>
