<svg width="471" height="43" viewBox="0 0 471 43" fill="none" xmlns="http://www.w3.org/2000/svg">
<mask id="path-1-outside-1_430_10083" maskUnits="userSpaceOnUse" x="0" y="0" width="471" height="43" fill="black">
<rect fill="white" width="471" height="43"/>
<path d="M3.87832 39V4H13.5783L31.3783 25.3H26.8783V4H38.3783V39H28.6783L10.8783 17.7H15.3783V39H3.87832ZM54.8639 17H70.4639V25.5H54.8639V17ZM55.6639 30.1H73.1639V39H44.0639V4H72.5139V12.9H55.6639V30.1ZM73.9064 39L89.2064 4H100.806L116.106 39H103.906L92.6064 9.6H97.2064L85.9064 39H73.9064ZM83.0064 32.9L86.0064 24.4H102.106L105.106 32.9H83.0064ZM117.99 39V4H134.84C138.106 4 140.923 4.53333 143.29 5.6C145.69 6.66666 147.54 8.2 148.84 10.2C150.14 12.1667 150.79 14.5 150.79 17.2C150.79 19.9 150.14 22.2333 148.84 24.2C147.54 26.1333 145.69 27.6167 143.29 28.65C140.923 29.6833 138.106 30.2 134.84 30.2H124.54L129.79 25.35V39H117.99ZM138.94 39L130.34 26.25H142.84L151.54 39H138.94ZM129.79 26.65L124.54 21.3H134.09C135.723 21.3 136.923 20.9333 137.69 20.2C138.49 19.4667 138.89 18.4667 138.89 17.2C138.89 15.9333 138.49 14.9333 137.69 14.2C136.923 13.4667 135.723 13.1 134.09 13.1H124.54L129.79 7.75V26.65ZM170.236 39V4H188.936C193.769 4 197.336 4.86667 199.636 6.6C201.936 8.3 203.086 10.4833 203.086 13.15C203.086 14.9167 202.586 16.5 201.586 17.9C200.619 19.2667 199.202 20.35 197.336 21.15C195.469 21.95 193.169 22.35 190.436 22.35L191.436 19.65C194.169 19.65 196.519 20.0333 198.486 20.8C200.486 21.5667 202.019 22.6833 203.086 24.15C204.186 25.5833 204.736 27.3167 204.736 29.35C204.736 32.3833 203.469 34.75 200.936 36.45C198.436 38.15 194.769 39 189.936 39H170.236ZM181.836 30.75H188.936C190.236 30.75 191.202 30.5167 191.836 30.05C192.502 29.5833 192.836 28.9 192.836 28C192.836 27.1 192.502 26.4167 191.836 25.95C191.202 25.4833 190.236 25.25 188.936 25.25H181.036V17.45H187.336C188.669 17.45 189.636 17.2333 190.236 16.8C190.869 16.3333 191.186 15.6833 191.186 14.85C191.186 13.9833 190.869 13.3333 190.236 12.9C189.636 12.4667 188.669 12.25 187.336 12.25H181.836V30.75ZM217.175 39V23.65L219.875 30.7L203.975 4H216.425L227.175 22.25H219.925L230.775 4H242.175L226.375 30.7L228.975 23.65V39H217.175ZM281.363 4H293.163V39H281.363V4ZM270.463 39H258.663V4H270.463V39ZM282.163 26.1H269.663V16.4H282.163V26.1ZM317.199 39.8C314.366 39.8 311.732 39.35 309.299 38.45C306.899 37.55 304.816 36.2833 303.049 34.65C301.282 32.9833 299.899 31.0333 298.899 28.8C297.932 26.5667 297.449 24.1333 297.449 21.5C297.449 18.8333 297.932 16.4 298.899 14.2C299.899 11.9667 301.282 10.0333 303.049 8.4C304.816 6.73333 306.899 5.45 309.299 4.55C311.732 3.65 314.366 3.2 317.199 3.2C320.066 3.2 322.699 3.65 325.099 4.55C327.499 5.45 329.582 6.73333 331.349 8.4C333.116 10.0333 334.482 11.9667 335.449 14.2C336.449 16.4 336.949 18.8333 336.949 21.5C336.949 24.1333 336.449 26.5667 335.449 28.8C334.482 31.0333 333.116 32.9833 331.349 34.65C329.582 36.2833 327.499 37.55 325.099 38.45C322.699 39.35 320.066 39.8 317.199 39.8ZM317.199 30.25C318.299 30.25 319.316 30.05 320.249 29.65C321.216 29.25 322.049 28.6833 322.749 27.95C323.482 27.1833 324.049 26.2667 324.449 25.2C324.849 24.1 325.049 22.8667 325.049 21.5C325.049 20.1333 324.849 18.9167 324.449 17.85C324.049 16.75 323.482 15.8333 322.749 15.1C322.049 14.3333 321.216 13.75 320.249 13.35C319.316 12.95 318.299 12.75 317.199 12.75C316.099 12.75 315.066 12.95 314.099 13.35C313.166 13.75 312.332 14.3333 311.599 15.1C310.899 15.8333 310.349 16.75 309.949 17.85C309.549 18.9167 309.349 20.1333 309.349 21.5C309.349 22.8667 309.549 24.1 309.949 25.2C310.349 26.2667 310.899 27.1833 311.599 27.95C312.332 28.6833 313.166 29.25 314.099 29.65C315.066 30.05 316.099 30.25 317.199 30.25ZM348.344 39V13.15H338.094V4H370.394V13.15H360.144V39H348.344ZM384.258 17H399.858V25.5H384.258V17ZM385.058 30.1H402.558V39H373.458V4H401.908V12.9H385.058V30.1ZM407.101 39V4H418.901V29.85H434.701V39H407.101ZM451.01 39.8C448.077 39.8 445.244 39.4667 442.51 38.8C439.777 38.1333 437.527 37.2667 435.76 36.2L439.56 27.6C441.227 28.5667 443.077 29.35 445.11 29.95C447.177 30.5167 449.177 30.8 451.11 30.8C452.244 30.8 453.127 30.7333 453.76 30.6C454.427 30.4333 454.91 30.2167 455.21 29.95C455.51 29.65 455.66 29.3 455.66 28.9C455.66 28.2667 455.31 27.7667 454.61 27.4C453.91 27.0333 452.977 26.7333 451.81 26.5C450.677 26.2333 449.427 25.9667 448.06 25.7C446.694 25.4 445.31 25.0167 443.91 24.55C442.544 24.0833 441.277 23.4667 440.11 22.7C438.977 21.9333 438.06 20.9333 437.36 19.7C436.66 18.4333 436.31 16.8667 436.31 15C436.31 12.8333 436.91 10.8667 438.11 9.1C439.344 7.3 441.16 5.86667 443.56 4.8C445.994 3.73333 449.01 3.2 452.61 3.2C454.977 3.2 457.31 3.45 459.61 3.95C461.91 4.45 463.977 5.21666 465.81 6.25L462.26 14.8C460.527 13.9333 458.844 13.2833 457.21 12.85C455.61 12.4167 454.044 12.2 452.51 12.2C451.377 12.2 450.477 12.3 449.81 12.5C449.144 12.7 448.66 12.9667 448.36 13.3C448.094 13.6333 447.96 14 447.96 14.4C447.96 15 448.31 15.4833 449.01 15.85C449.71 16.1833 450.627 16.4667 451.76 16.7C452.927 16.9333 454.194 17.1833 455.56 17.45C456.96 17.7167 458.344 18.0833 459.71 18.55C461.077 19.0167 462.327 19.6333 463.46 20.4C464.627 21.1667 465.56 22.1667 466.26 23.4C466.96 24.6333 467.31 26.1667 467.31 28C467.31 30.1333 466.694 32.1 465.46 33.9C464.26 35.6667 462.46 37.1 460.06 38.2C457.66 39.2667 454.644 39.8 451.01 39.8Z"/>
</mask>
<path d="M3.87832 39H0.878321V42H3.87832V39ZM3.87832 4V0.999998H0.878321V4H3.87832ZM13.5783 4L15.8803 2.07626L14.9809 0.999998H13.5783V4ZM31.3783 25.3V28.3H37.795L33.6803 23.3763L31.3783 25.3ZM26.8783 25.3H23.8783V28.3H26.8783V25.3ZM26.8783 4V0.999998H23.8783V4H26.8783ZM38.3783 4H41.3783V0.999998H38.3783V4ZM38.3783 39V42H41.3783V39H38.3783ZM28.6783 39L26.3763 40.9237L27.2757 42H28.6783V39ZM10.8783 17.7V14.7H4.46164L8.57632 19.6237L10.8783 17.7ZM15.3783 17.7H18.3783V14.7H15.3783V17.7ZM15.3783 39V42H18.3783V39H15.3783ZM3.87832 39H6.87832V4H3.87832H0.878321V39H3.87832ZM3.87832 4V7H13.5783V4V0.999998H3.87832V4ZM13.5783 4L11.2763 5.92374L29.0763 27.2237L31.3783 25.3L33.6803 23.3763L15.8803 2.07626L13.5783 4ZM31.3783 25.3V22.3H26.8783V25.3V28.3H31.3783V25.3ZM26.8783 25.3H29.8783V4H26.8783H23.8783V25.3H26.8783ZM26.8783 4V7H38.3783V4V0.999998H26.8783V4ZM38.3783 4H35.3783V39H38.3783H41.3783V4H38.3783ZM38.3783 39V36H28.6783V39V42H38.3783V39ZM28.6783 39L30.9803 37.0763L13.1803 15.7763L10.8783 17.7L8.57632 19.6237L26.3763 40.9237L28.6783 39ZM10.8783 17.7V20.7H15.3783V17.7V14.7H10.8783V17.7ZM15.3783 17.7H12.3783V39H15.3783H18.3783V17.7H15.3783ZM15.3783 39V36H3.87832V39V42H15.3783V39ZM54.8639 17V14H51.8639V17H54.8639ZM70.4639 17H73.4639V14H70.4639V17ZM70.4639 25.5V28.5H73.4639V25.5H70.4639ZM54.8639 25.5H51.8639V28.5H54.8639V25.5ZM55.6639 30.1H52.6639V33.1H55.6639V30.1ZM73.1639 30.1H76.1639V27.1H73.1639V30.1ZM73.1639 39V42H76.1639V39H73.1639ZM44.0639 39H41.0639V42H44.0639V39ZM44.0639 4V0.999998H41.0639V4H44.0639ZM72.5139 4H75.5139V0.999998H72.5139V4ZM72.5139 12.9V15.9H75.5139V12.9H72.5139ZM55.6639 12.9V9.9H52.6639V12.9H55.6639ZM54.8639 17V20H70.4639V17V14H54.8639V17ZM70.4639 17H67.4639V25.5H70.4639H73.4639V17H70.4639ZM70.4639 25.5V22.5H54.8639V25.5V28.5H70.4639V25.5ZM54.8639 25.5H57.8639V17H54.8639H51.8639V25.5H54.8639ZM55.6639 30.1V33.1H73.1639V30.1V27.1H55.6639V30.1ZM73.1639 30.1H70.1639V39H73.1639H76.1639V30.1H73.1639ZM73.1639 39V36H44.0639V39V42H73.1639V39ZM44.0639 39H47.0639V4H44.0639H41.0639V39H44.0639ZM44.0639 4V7H72.5139V4V0.999998H44.0639V4ZM72.5139 4H69.5139V12.9H72.5139H75.5139V4H72.5139ZM72.5139 12.9V9.9H55.6639V12.9V15.9H72.5139V12.9ZM55.6639 12.9H52.6639V30.1H55.6639H58.6639V12.9H55.6639ZM73.9064 39L71.1576 37.7984L69.3209 42H73.9064V39ZM89.2064 4V0.999998H87.2438L86.4576 2.79837L89.2064 4ZM100.806 4L103.555 2.79837L102.769 0.999998H100.806V4ZM116.106 39V42H120.692L118.855 37.7984L116.106 39ZM103.906 39L101.106 40.0763L101.846 42H103.906V39ZM92.6064 9.6V6.6H88.2394L89.8062 10.6763L92.6064 9.6ZM97.2064 9.6L100.007 10.6763L101.573 6.6H97.2064V9.6ZM85.9064 39V42H87.9673L88.7067 40.0763L85.9064 39ZM83.0064 32.9L80.1775 31.9015L78.7663 35.9H83.0064V32.9ZM86.0064 24.4V21.4H83.8839L83.1775 23.4015L86.0064 24.4ZM102.106 24.4L104.935 23.4015L104.229 21.4H102.106V24.4ZM105.106 32.9V35.9H109.347L107.935 31.9015L105.106 32.9ZM73.9064 39L76.6553 40.2016L91.9553 5.20163L89.2064 4L86.4576 2.79837L71.1576 37.7984L73.9064 39ZM89.2064 4V7H100.806V4V0.999998H89.2064V4ZM100.806 4L98.0576 5.20163L113.358 40.2016L116.106 39L118.855 37.7984L103.555 2.79837L100.806 4ZM116.106 39V36H103.906V39V42H116.106V39ZM103.906 39L106.707 37.9237L95.4067 8.5237L92.6064 9.6L89.8062 10.6763L101.106 40.0763L103.906 39ZM92.6064 9.6V12.6H97.2064V9.6V6.6H92.6064V9.6ZM97.2064 9.6L94.4062 8.5237L83.1062 37.9237L85.9064 39L88.7067 40.0763L100.007 10.6763L97.2064 9.6ZM85.9064 39V36H73.9064V39V42H85.9064V39ZM83.0064 32.9L85.8354 33.8985L88.8354 25.3985L86.0064 24.4L83.1775 23.4015L80.1775 31.9015L83.0064 32.9ZM86.0064 24.4V27.4H102.106V24.4V21.4H86.0064V24.4ZM102.106 24.4L99.2775 25.3985L102.277 33.8985L105.106 32.9L107.935 31.9015L104.935 23.4015L102.106 24.4ZM105.106 32.9V29.9H83.0064V32.9V35.9H105.106V32.9ZM117.99 39H114.99V42H117.99V39ZM117.99 4V0.999998H114.99V4H117.99ZM143.29 5.6L142.057 8.33504L142.064 8.33825L142.071 8.34143L143.29 5.6ZM148.84 10.2L146.324 11.835L146.331 11.8447L146.337 11.8543L148.84 10.2ZM148.84 24.2L151.329 25.874L151.336 25.8642L151.342 25.8543L148.84 24.2ZM143.29 28.65L142.103 25.8945L142.096 25.8976L142.089 25.9006L143.29 28.65ZM124.54 30.2L122.504 27.9964L116.871 33.2H124.54V30.2ZM129.79 25.35H132.79V18.4944L127.754 23.1464L129.79 25.35ZM129.79 39V42H132.79V39H129.79ZM138.94 39L136.453 40.6776L137.345 42H138.94V39ZM130.34 26.25V23.25H124.697L127.853 27.9276L130.34 26.25ZM142.84 26.25L145.318 24.5591L144.424 23.25H142.84V26.25ZM151.54 39V42H157.219L154.018 37.3091L151.54 39ZM129.79 26.65L127.648 28.7512L132.79 33.9904V26.65H129.79ZM124.54 21.3V18.3H117.393L122.398 23.4012L124.54 21.3ZM137.69 20.2L135.662 17.9885L135.639 18.0101L135.616 18.0321L137.69 20.2ZM137.69 14.2L135.616 16.3679L135.639 16.3899L135.662 16.4115L137.69 14.2ZM124.54 13.1L122.398 10.9988L117.393 16.1H124.54V13.1ZM129.79 7.75H132.79V0.40962L127.648 5.64879L129.79 7.75ZM117.99 39H120.99V4H117.99H114.99V39H117.99ZM117.99 4V7H134.84V4V0.999998H117.99V4ZM134.84 4V7C137.788 7 140.164 7.48198 142.057 8.33504L143.29 5.6L144.522 2.86495C141.682 1.58468 138.425 0.999998 134.84 0.999998V4ZM143.29 5.6L142.071 8.34143C143.997 9.19717 145.372 10.3701 146.324 11.835L148.84 10.2L151.355 8.56503C149.707 6.02991 147.383 4.13616 144.508 2.85856L143.29 5.6ZM148.84 10.2L146.337 11.8543C147.267 13.2617 147.79 15.0004 147.79 17.2H150.79H153.79C153.79 13.9996 153.012 11.0716 151.342 8.5457L148.84 10.2ZM150.79 17.2H147.79C147.79 19.3996 147.267 21.1383 146.337 22.5457L148.84 24.2L151.342 25.8543C153.012 23.3284 153.79 20.4004 153.79 17.2H150.79ZM148.84 24.2L146.35 22.526C145.41 23.9245 144.04 25.0605 142.103 25.8945L143.29 28.65L144.476 31.4055C147.339 30.1728 149.67 28.3421 151.329 25.874L148.84 24.2ZM143.29 28.65L142.089 25.9006C140.187 26.7311 137.799 27.2 134.84 27.2V30.2V33.2C138.414 33.2 141.659 32.6356 144.49 31.3994L143.29 28.65ZM134.84 30.2V27.2H124.54V30.2V33.2H134.84V30.2ZM124.54 30.2L126.575 32.4036L131.825 27.5536L129.79 25.35L127.754 23.1464L122.504 27.9964L124.54 30.2ZM129.79 25.35H126.79V39H129.79H132.79V25.35H129.79ZM129.79 39V36H117.99V39V42H129.79V39ZM138.94 39L141.427 37.3224L132.827 24.5724L130.34 26.25L127.853 27.9276L136.453 40.6776L138.94 39ZM130.34 26.25V29.25H142.84V26.25V23.25H130.34V26.25ZM142.84 26.25L140.362 27.9409L149.062 40.6909L151.54 39L154.018 37.3091L145.318 24.5591L142.84 26.25ZM151.54 39V36H138.94V39V42H151.54V39ZM129.79 26.65L131.931 24.5488L126.681 19.1988L124.54 21.3L122.398 23.4012L127.648 28.7512L129.79 26.65ZM124.54 21.3V24.3H134.09V21.3V18.3H124.54V21.3ZM134.09 21.3V24.3C136.091 24.3 138.202 23.8615 139.763 22.3679L137.69 20.2L135.616 18.0321C135.644 18.0052 135.355 18.3 134.09 18.3V21.3ZM137.69 20.2L139.717 22.4115C141.242 21.0136 141.89 19.1537 141.89 17.2H138.89H135.89C135.89 17.7797 135.738 17.9197 135.662 17.9885L137.69 20.2ZM138.89 17.2H141.89C141.89 15.2463 141.242 13.3864 139.717 11.9885L137.69 14.2L135.662 16.4115C135.738 16.4803 135.89 16.6203 135.89 17.2H138.89ZM137.69 14.2L139.763 12.0321C138.202 10.5385 136.091 10.1 134.09 10.1V13.1V16.1C135.355 16.1 135.644 16.3948 135.616 16.3679L137.69 14.2ZM134.09 13.1V10.1H124.54V13.1V16.1H134.09V13.1ZM124.54 13.1L126.681 15.2012L131.931 9.85122L129.79 7.75L127.648 5.64879L122.398 10.9988L124.54 13.1ZM129.79 7.75H126.79V26.65H129.79H132.79V7.75H129.79ZM170.236 39H167.236V42H170.236V39ZM170.236 4V0.999998H167.236V4H170.236ZM199.636 6.6L197.83 8.99583L197.841 9.00423L197.853 9.01253L199.636 6.6ZM201.586 17.9L199.145 16.1563L199.136 16.1676L201.586 17.9ZM197.336 21.15L196.154 18.3926V18.3926L197.336 21.15ZM190.436 22.35L187.622 21.3081L186.125 25.35H190.436V22.35ZM191.436 19.65V16.65H189.348L188.622 18.6081L191.436 19.65ZM198.486 20.8L197.396 23.5951L197.404 23.5982L197.412 23.6012L198.486 20.8ZM203.086 24.15L200.66 25.9145L200.682 25.9458L200.706 25.9765L203.086 24.15ZM200.936 36.45L199.264 33.9589L199.256 33.964L199.249 33.9692L200.936 36.45ZM181.836 30.75H178.836V33.75H181.836V30.75ZM191.836 30.05L190.115 27.5923L190.085 27.6132L190.056 27.6348L191.836 30.05ZM191.836 25.95L190.056 28.3652L190.085 28.3868L190.115 28.4077L191.836 25.95ZM181.036 25.25H178.036V28.25H181.036V25.25ZM181.036 17.45V14.45H178.036V17.45H181.036ZM190.236 16.8L191.992 19.232L192.004 19.2237L192.015 19.2152L190.236 16.8ZM190.236 12.9L188.479 15.332L188.51 15.3544L188.542 15.3759L190.236 12.9ZM181.836 12.25V9.25H178.836V12.25H181.836ZM170.236 39H173.236V4H170.236H167.236V39H170.236ZM170.236 4V7H188.936V4V0.999998H170.236V4ZM188.936 4V7C193.519 7 196.299 7.84185 197.83 8.99583L199.636 6.6L201.441 4.20417C198.373 1.89148 194.019 0.999998 188.936 0.999998V4ZM199.636 6.6L197.853 9.01253C199.452 10.1947 200.086 11.5127 200.086 13.15H203.086H206.086C206.086 9.454 204.42 6.40531 201.419 4.18747L199.636 6.6ZM203.086 13.15H200.086C200.086 14.3093 199.771 15.2795 199.145 16.1563L201.586 17.9L204.027 19.6437C205.401 17.7205 206.086 15.524 206.086 13.15H203.086ZM201.586 17.9L199.136 16.1676C198.552 16.9944 197.62 17.7641 196.154 18.3926L197.336 21.15L198.518 23.9074C200.784 22.9359 202.686 21.539 204.035 19.6324L201.586 17.9ZM197.336 21.15L196.154 18.3926C194.766 18.9874 192.895 19.35 190.436 19.35V22.35V25.35C193.443 25.35 196.172 24.9125 198.518 23.9074L197.336 21.15ZM190.436 22.35L193.249 23.3919L194.249 20.6919L191.436 19.65L188.622 18.6081L187.622 21.3081L190.436 22.35ZM191.436 19.65V22.65C193.901 22.65 195.862 22.9973 197.396 23.5951L198.486 20.8L199.575 18.0049C197.176 17.0694 194.437 16.65 191.436 16.65V19.65ZM198.486 20.8L197.412 23.6012C198.97 24.1985 199.992 24.9964 200.66 25.9145L203.086 24.15L205.512 22.3855C204.046 20.3703 202.001 18.9348 199.56 17.9988L198.486 20.8ZM203.086 24.15L200.706 25.9765C201.354 26.8207 201.736 27.8901 201.736 29.35H204.736H207.736C207.736 26.7433 207.018 24.346 205.466 22.3235L203.086 24.15ZM204.736 29.35H201.736C201.736 31.3765 200.973 32.8121 199.264 33.9589L200.936 36.45L202.607 38.9411C205.965 36.6879 207.736 33.3901 207.736 29.35H204.736ZM200.936 36.45L199.249 33.9692C197.463 35.1836 194.498 36 189.936 36V39V42C195.041 42 199.409 41.1164 202.623 38.9308L200.936 36.45ZM189.936 39V36H170.236V39V42H189.936V39ZM181.836 30.75V33.75H188.936V30.75V27.75H181.836V30.75ZM188.936 30.75V33.75C190.495 33.75 192.227 33.4883 193.615 32.4652L191.836 30.05L190.056 27.6348C190.134 27.5776 190.126 27.612 189.932 27.6588C189.737 27.7058 189.417 27.75 188.936 27.75V30.75ZM191.836 30.05L193.556 32.5077C195.119 31.4136 195.836 29.7579 195.836 28H192.836H189.836C189.836 28.0773 189.823 28.0089 189.889 27.8722C189.921 27.8068 189.963 27.7446 190.009 27.6908C190.055 27.6379 190.095 27.6064 190.115 27.5923L191.836 30.05ZM192.836 28H195.836C195.836 26.2421 195.119 24.5864 193.556 23.4923L191.836 25.95L190.115 28.4077C190.095 28.3936 190.055 28.3621 190.009 28.3092C189.963 28.2554 189.921 28.1932 189.889 28.1278C189.823 27.9911 189.836 27.9227 189.836 28H192.836ZM191.836 25.95L193.615 23.5348C192.227 22.5117 190.495 22.25 188.936 22.25V25.25V28.25C189.417 28.25 189.737 28.2942 189.932 28.3412C190.126 28.388 190.134 28.4224 190.056 28.3652L191.836 25.95ZM188.936 25.25V22.25H181.036V25.25V28.25H188.936V25.25ZM181.036 25.25H184.036V17.45H181.036H178.036V25.25H181.036ZM181.036 17.45V20.45H187.336V17.45V14.45H181.036V17.45ZM187.336 17.45V20.45C188.857 20.45 190.612 20.229 191.992 19.232L190.236 16.8L188.479 14.368C188.6 14.2808 188.618 14.3122 188.405 14.3601C188.196 14.4069 187.852 14.45 187.336 14.45V17.45ZM190.236 16.8L192.015 19.2152C193.468 18.1449 194.186 16.5704 194.186 14.85H191.186H188.186C188.186 14.8808 188.182 14.7911 188.251 14.6486C188.324 14.5002 188.418 14.4132 188.456 14.3848L190.236 16.8ZM191.186 14.85H194.186C194.186 13.1423 193.496 11.4959 191.93 10.4241L190.236 12.9L188.542 15.3759C188.456 15.3174 188.335 15.198 188.251 15.0264C188.174 14.8687 188.186 14.7826 188.186 14.85H191.186ZM190.236 12.9L191.992 10.468C190.612 9.47103 188.857 9.25 187.336 9.25V12.25V15.25C187.852 15.25 188.196 15.2931 188.405 15.3399C188.618 15.3878 188.6 15.4192 188.479 15.332L190.236 12.9ZM187.336 12.25V9.25H181.836V12.25V15.25H187.336V12.25ZM181.836 12.25H178.836V30.75H181.836H184.836V12.25H181.836ZM217.175 39H214.175V42H217.175V39ZM217.175 23.65L219.977 22.5771L214.175 23.65H217.175ZM219.875 30.7L217.298 32.235L222.677 29.6271L219.875 30.7ZM203.975 4V0.999998H198.697L201.398 5.53496L203.975 4ZM216.425 4L219.01 2.47739L218.14 0.999998H216.425V4ZM227.175 22.25V25.25H232.424L229.76 20.7274L227.175 22.25ZM219.925 22.25L217.347 20.7169L214.651 25.25H219.925V22.25ZM230.775 4V0.999998H229.069L228.197 2.46691L230.775 4ZM242.175 4L244.757 5.52781L247.436 0.999998H242.175V4ZM226.375 30.7L223.561 29.662L228.957 32.2278L226.375 30.7ZM228.975 23.65H231.975L226.161 22.612L228.975 23.65ZM228.975 39V42H231.975V39H228.975ZM217.175 39H220.175V23.65H217.175H214.175V39H217.175ZM217.175 23.65L214.374 24.7229L217.074 31.7729L219.875 30.7L222.677 29.6271L219.977 22.5771L217.175 23.65ZM219.875 30.7L222.453 29.165L206.553 2.46504L203.975 4L201.398 5.53496L217.298 32.235L219.875 30.7ZM203.975 4V7H216.425V4V0.999998H203.975V4ZM216.425 4L213.84 5.5226L224.59 23.7726L227.175 22.25L229.76 20.7274L219.01 2.47739L216.425 4ZM227.175 22.25V19.25H219.925V22.25V25.25H227.175V22.25ZM219.925 22.25L222.504 23.7831L233.354 5.53308L230.775 4L228.197 2.46691L217.347 20.7169L219.925 22.25ZM230.775 4V7H242.175V4V0.999998H230.775V4ZM242.175 4L239.593 2.47218L223.793 29.1722L226.375 30.7L228.957 32.2278L244.757 5.52781L242.175 4ZM226.375 30.7L229.19 31.738L231.79 24.688L228.975 23.65L226.161 22.612L223.561 29.662L226.375 30.7ZM228.975 23.65H225.975V39H228.975H231.975V23.65H228.975ZM228.975 39V36H217.175V39V42H228.975V39ZM281.363 4V0.999998H278.363V4H281.363ZM293.163 4H296.163V0.999998H293.163V4ZM293.163 39V42H296.163V39H293.163ZM281.363 39H278.363V42H281.363V39ZM270.463 39V42H273.463V39H270.463ZM258.663 39H255.663V42H258.663V39ZM258.663 4V0.999998H255.663V4H258.663ZM270.463 4H273.463V0.999998H270.463V4ZM282.163 26.1V29.1H285.163V26.1H282.163ZM269.663 26.1H266.663V29.1H269.663V26.1ZM269.663 16.4V13.4H266.663V16.4H269.663ZM282.163 16.4H285.163V13.4H282.163V16.4ZM281.363 4V7H293.163V4V0.999998H281.363V4ZM293.163 4H290.163V39H293.163H296.163V4H293.163ZM293.163 39V36H281.363V39V42H293.163V39ZM281.363 39H284.363V4H281.363H278.363V39H281.363ZM270.463 39V36H258.663V39V42H270.463V39ZM258.663 39H261.663V4H258.663H255.663V39H258.663ZM258.663 4V7H270.463V4V0.999998H258.663V4ZM270.463 4H267.463V39H270.463H273.463V4H270.463ZM282.163 26.1V23.1H269.663V26.1V29.1H282.163V26.1ZM269.663 26.1H272.663V16.4H269.663H266.663V26.1H269.663ZM269.663 16.4V19.4H282.163V16.4V13.4H269.663V16.4ZM282.163 16.4H279.163V26.1H282.163H285.163V16.4H282.163ZM309.299 38.45L308.246 41.259L308.258 41.2637L309.299 38.45ZM303.049 34.65L300.99 36.8322L301.001 36.8426L301.012 36.8528L303.049 34.65ZM298.899 28.8L296.146 29.9917L296.153 30.0089L296.161 30.026L298.899 28.8ZM298.899 14.2L296.161 12.974L296.157 12.9836L296.152 12.9932L298.899 14.2ZM303.049 8.4L305.086 10.6028L305.097 10.5926L305.108 10.5822L303.049 8.4ZM309.299 4.55L308.258 1.73626L308.246 1.74101L309.299 4.55ZM325.099 4.55L324.046 7.35899V7.35899L325.099 4.55ZM331.349 8.4L329.29 10.5822L329.301 10.5926L329.312 10.6028L331.349 8.4ZM335.449 14.2L332.696 15.3917L332.707 15.4166L332.718 15.4414L335.449 14.2ZM335.449 28.8L332.711 27.574L332.703 27.5911L332.696 27.6083L335.449 28.8ZM331.349 34.65L333.386 36.8528L333.397 36.8426L333.408 36.8322L331.349 34.65ZM325.099 38.45L324.046 35.641L325.099 38.45ZM320.249 29.65L319.102 26.8779L319.085 26.8851L319.067 26.8926L320.249 29.65ZM322.749 27.95L320.581 25.8763L320.579 25.8786L322.749 27.95ZM324.449 25.2L327.258 26.2534L327.263 26.2393L327.268 26.2252L324.449 25.2ZM324.449 17.85L321.63 18.8752L321.635 18.8893L321.64 18.9034L324.449 17.85ZM322.749 15.1L320.534 17.1228L320.58 17.1731L320.628 17.2213L322.749 15.1ZM320.249 13.35L319.067 16.1074L319.085 16.1149L319.102 16.1221L320.249 13.35ZM314.099 13.35L312.952 10.5779L312.935 10.5851L312.917 10.5926L314.099 13.35ZM311.599 15.1L309.431 13.0263L309.429 13.0286L311.599 15.1ZM309.949 17.85L312.758 18.9034L312.763 18.8893L312.768 18.8752L309.949 17.85ZM309.949 25.2L307.13 26.2252L307.135 26.2393L307.14 26.2534L309.949 25.2ZM311.599 27.95L309.384 29.9728L309.43 30.0231L309.478 30.0713L311.599 27.95ZM314.099 29.65L312.917 32.4074L312.935 32.4149L312.952 32.4221L314.099 29.65ZM317.199 39.8V36.8C314.688 36.8 312.411 36.4022 310.34 35.6363L309.299 38.45L308.258 41.2637C311.054 42.2978 314.043 42.8 317.199 42.8V39.8ZM309.299 38.45L310.352 35.641C308.292 34.8685 306.549 33.7998 305.086 32.4472L303.049 34.65L301.012 36.8528C303.083 38.7669 305.506 40.2315 308.246 41.259L309.299 38.45ZM303.049 34.65L305.108 32.4678C303.63 31.0742 302.477 29.4498 301.637 27.574L298.899 28.8L296.161 30.026C297.321 32.6169 298.934 34.8925 300.99 36.8322L303.049 34.65ZM298.899 28.8L301.652 27.6083C300.861 25.7812 300.449 23.7574 300.449 21.5H297.449H294.449C294.449 24.5092 295.003 27.3521 296.146 29.9917L298.899 28.8ZM297.449 21.5H300.449C300.449 19.203 300.864 17.1866 301.646 15.4068L298.899 14.2L296.152 12.9932C295.001 15.6134 294.449 18.4636 294.449 21.5H297.449ZM298.899 14.2L301.637 15.426C302.474 13.5558 303.621 11.9565 305.086 10.6028L303.049 8.4L301.012 6.19718C298.943 8.11021 297.324 10.3775 296.161 12.974L298.899 14.2ZM303.049 8.4L305.108 10.5822C306.568 9.20418 308.305 8.12683 310.352 7.35899L309.299 4.55L308.246 1.74101C305.493 2.77317 303.063 4.26249 300.99 6.21782L303.049 8.4ZM309.299 4.55L310.34 7.36371C312.411 6.59778 314.688 6.2 317.199 6.2V3.2V0.199999C314.043 0.199999 311.054 0.702213 308.258 1.73629L309.299 4.55ZM317.199 3.2V6.2C319.748 6.2 322.02 6.59936 324.046 7.35899L325.099 4.55L326.152 1.74101C323.378 0.700639 320.383 0.199999 317.199 0.199999V3.2ZM325.099 4.55L324.046 7.35899C326.093 8.12683 327.83 9.20418 329.29 10.5822L331.349 8.4L333.408 6.21782C331.335 4.26249 328.905 2.77317 326.152 1.74101L325.099 4.55ZM331.349 8.4L329.312 10.6028C330.769 11.9493 331.893 13.5371 332.696 15.3917L335.449 14.2L338.202 13.0083C337.072 10.3963 335.462 8.11734 333.386 6.19718L331.349 8.4ZM335.449 14.2L332.718 15.4414C333.523 17.2128 333.949 19.2169 333.949 21.5H336.949H339.949C339.949 18.4498 339.375 15.5872 338.18 12.9586L335.449 14.2ZM336.949 21.5H333.949C333.949 23.7434 333.525 25.755 332.711 27.574L335.449 28.8L338.187 30.026C339.373 27.3783 339.949 24.5232 339.949 21.5H336.949ZM335.449 28.8L332.696 27.6083C331.891 29.4685 330.76 31.0813 329.29 32.4678L331.349 34.65L333.408 36.8322C335.471 34.8854 337.074 32.5981 338.202 29.9917L335.449 28.8ZM331.349 34.65L329.312 32.4472C327.849 33.7998 326.106 34.8685 324.046 35.641L325.099 38.45L326.152 41.259C328.892 40.2315 331.315 38.7669 333.386 36.8528L331.349 34.65ZM325.099 38.45L324.046 35.641C322.02 36.4006 319.748 36.8 317.199 36.8V39.8V42.8C320.383 42.8 323.378 42.2994 326.152 41.259L325.099 38.45ZM317.199 30.25V33.25C318.671 33.25 320.094 32.9804 321.431 32.4074L320.249 29.65L319.067 26.8926C318.538 27.1196 317.927 27.25 317.199 27.25V30.25ZM320.249 29.65L321.396 32.4221C322.736 31.8675 323.921 31.0667 324.919 30.0214L322.749 27.95L320.579 25.8786C320.177 26.2999 319.695 26.6325 319.102 26.8779L320.249 29.65ZM322.749 27.95L324.917 30.0237C325.951 28.9426 326.726 27.6716 327.258 26.2534L324.449 25.2L321.64 24.1466C321.372 24.8617 321.014 25.424 320.581 25.8763L322.749 27.95ZM324.449 25.2L327.268 26.2252C327.806 24.7466 328.049 23.1589 328.049 21.5H325.049H322.049C322.049 22.5745 321.892 23.4534 321.63 24.1748L324.449 25.2ZM325.049 21.5H328.049C328.049 19.8435 327.807 18.2599 327.258 16.7966L324.449 17.85L321.64 18.9034C321.891 19.5734 322.049 20.4231 322.049 21.5H325.049ZM324.449 17.85L327.268 16.8248C326.738 15.366 325.951 14.0596 324.87 12.9787L322.749 15.1L320.628 17.2213C321.013 17.607 321.36 18.134 321.63 18.8752L324.449 17.85ZM322.749 15.1L324.964 13.0772C323.965 11.9828 322.766 11.1449 321.396 10.5779L320.249 13.35L319.102 16.1221C319.665 16.3551 320.133 16.6838 320.534 17.1228L322.749 15.1ZM320.249 13.35L321.431 10.5926C320.094 10.0196 318.671 9.75 317.199 9.75V12.75V15.75C317.927 15.75 318.538 15.8804 319.067 16.1074L320.249 13.35ZM317.199 12.75V9.75C315.726 9.75 314.301 10.0198 312.952 10.5779L314.099 13.35L315.246 16.122C315.831 15.8802 316.472 15.75 317.199 15.75V12.75ZM314.099 13.35L312.917 10.5926C311.596 11.1589 310.431 11.981 309.431 13.0263L311.599 15.1L313.767 17.1737C314.234 16.6857 314.735 16.3411 315.281 16.1074L314.099 13.35ZM311.599 15.1L309.429 13.0286C308.402 14.1049 307.65 15.3947 307.13 16.8248L309.949 17.85L312.768 18.8752C313.048 18.1053 313.396 17.5618 313.769 17.1714L311.599 15.1ZM309.949 17.85L307.14 16.7966C306.591 18.2599 306.349 19.8435 306.349 21.5H309.349H312.349C312.349 20.4231 312.507 19.5734 312.758 18.9034L309.949 17.85ZM309.349 21.5H306.349C306.349 23.1589 306.592 24.7466 307.13 26.2252L309.949 25.2L312.768 24.1748C312.506 23.4534 312.349 22.5745 312.349 21.5H309.349ZM309.949 25.2L307.14 26.2534C307.661 27.6431 308.402 28.8975 309.384 29.9728L311.599 27.95L313.814 25.9272C313.396 25.4692 313.037 24.8902 312.758 24.1466L309.949 25.2ZM311.599 27.95L309.478 30.0713C310.475 31.0686 311.626 31.8538 312.917 32.4074L314.099 29.65L315.281 26.8926C314.706 26.6461 314.19 26.298 313.72 25.8287L311.599 27.95ZM314.099 29.65L312.952 32.4221C314.301 32.9802 315.726 33.25 317.199 33.25V30.25V27.25C316.472 27.25 315.831 27.1198 315.246 26.8779L314.099 29.65ZM348.344 39H345.344V42H348.344V39ZM348.344 13.15H351.344V10.15H348.344V13.15ZM338.094 13.15H335.094V16.15H338.094V13.15ZM338.094 4V0.999998H335.094V4H338.094ZM370.394 4H373.394V0.999998H370.394V4ZM370.394 13.15V16.15H373.394V13.15H370.394ZM360.144 13.15V10.15H357.144V13.15H360.144ZM360.144 39V42H363.144V39H360.144ZM348.344 39H351.344V13.15H348.344H345.344V39H348.344ZM348.344 13.15V10.15H338.094V13.15V16.15H348.344V13.15ZM338.094 13.15H341.094V4H338.094H335.094V13.15H338.094ZM338.094 4V7H370.394V4V0.999998H338.094V4ZM370.394 4H367.394V13.15H370.394H373.394V4H370.394ZM370.394 13.15V10.15H360.144V13.15V16.15H370.394V13.15ZM360.144 13.15H357.144V39H360.144H363.144V13.15H360.144ZM360.144 39V36H348.344V39V42H360.144V39ZM384.258 17V14H381.258V17H384.258ZM399.858 17H402.858V14H399.858V17ZM399.858 25.5V28.5H402.858V25.5H399.858ZM384.258 25.5H381.258V28.5H384.258V25.5ZM385.058 30.1H382.058V33.1H385.058V30.1ZM402.558 30.1H405.558V27.1H402.558V30.1ZM402.558 39V42H405.558V39H402.558ZM373.458 39H370.458V42H373.458V39ZM373.458 4V0.999998H370.458V4H373.458ZM401.908 4H404.908V0.999998H401.908V4ZM401.908 12.9V15.9H404.908V12.9H401.908ZM385.058 12.9V9.9H382.058V12.9H385.058ZM384.258 17V20H399.858V17V14H384.258V17ZM399.858 17H396.858V25.5H399.858H402.858V17H399.858ZM399.858 25.5V22.5H384.258V25.5V28.5H399.858V25.5ZM384.258 25.5H387.258V17H384.258H381.258V25.5H384.258ZM385.058 30.1V33.1H402.558V30.1V27.1H385.058V30.1ZM402.558 30.1H399.558V39H402.558H405.558V30.1H402.558ZM402.558 39V36H373.458V39V42H402.558V39ZM373.458 39H376.458V4H373.458H370.458V39H373.458ZM373.458 4V7H401.908V4V0.999998H373.458V4ZM401.908 4H398.908V12.9H401.908H404.908V4H401.908ZM401.908 12.9V9.9H385.058V12.9V15.9H401.908V12.9ZM385.058 12.9H382.058V30.1H385.058H388.058V12.9H385.058ZM407.101 39H404.101V42H407.101V39ZM407.101 4V0.999998H404.101V4H407.101ZM418.901 4H421.901V0.999998H418.901V4ZM418.901 29.85H415.901V32.85H418.901V29.85ZM434.701 29.85H437.701V26.85H434.701V29.85ZM434.701 39V42H437.701V39H434.701ZM407.101 39H410.101V4H407.101H404.101V39H407.101ZM407.101 4V7H418.901V4V0.999998H407.101V4ZM418.901 4H415.901V29.85H418.901H421.901V4H418.901ZM418.901 29.85V32.85H434.701V29.85V26.85H418.901V29.85ZM434.701 29.85H431.701V39H434.701H437.701V29.85H434.701ZM434.701 39V36H407.101V39V42H434.701V39ZM442.51 38.8L443.221 35.8854L442.51 38.8ZM435.76 36.2L433.016 34.9875L431.949 37.4032L434.21 38.7682L435.76 36.2ZM439.56 27.6L441.065 25.0049L438.169 23.3252L436.816 26.3875L439.56 27.6ZM445.11 29.95L444.261 32.8273L444.289 32.8355L444.317 32.8432L445.11 29.95ZM453.76 30.6L454.378 33.5356L454.433 33.5241L454.488 33.5104L453.76 30.6ZM455.21 29.95L457.203 32.1922L457.269 32.1337L457.332 32.0713L455.21 29.95ZM454.61 27.4L453.218 30.0575L454.61 27.4ZM451.81 26.5L451.123 29.4202L451.172 29.4318L451.222 29.4417L451.81 26.5ZM448.06 25.7L447.417 28.6302L447.451 28.6378L447.486 28.6445L448.06 25.7ZM443.91 24.55L442.941 27.389L442.951 27.3926L442.962 27.396L443.91 24.55ZM440.11 22.7L438.429 25.1848L438.446 25.1961L438.463 25.2071L440.11 22.7ZM437.36 19.7L434.735 21.1511L434.743 21.166L434.751 21.1808L437.36 19.7ZM438.11 9.1L435.636 7.40429L435.629 7.41435L438.11 9.1ZM443.56 4.8L442.356 2.05239L442.349 2.05546L442.342 2.05856L443.56 4.8ZM459.61 3.95L458.973 6.88153L459.61 3.95ZM465.81 6.25L468.581 7.40039L469.601 4.94302L467.283 3.63654L465.81 6.25ZM462.26 14.8L460.919 17.4833L463.797 18.9224L465.031 15.9504L462.26 14.8ZM457.21 12.85L456.426 15.7457L456.434 15.7477L456.441 15.7497L457.21 12.85ZM449.81 12.5L448.948 9.62652L449.81 12.5ZM448.36 13.3L446.13 11.2931L446.072 11.3579L446.018 11.4259L448.36 13.3ZM449.01 15.85L447.618 18.5075L447.669 18.534L447.721 18.5586L449.01 15.85ZM451.76 16.7L451.155 19.6384L451.164 19.6401L451.172 19.6417L451.76 16.7ZM455.56 17.45L454.986 20.3945L454.999 20.397L455.56 17.45ZM459.71 18.55L458.741 21.389H458.741L459.71 18.55ZM463.46 20.4L461.779 22.8848L461.796 22.8961L461.813 22.9071L463.46 20.4ZM466.26 23.4L463.651 24.8808V24.8808L466.26 23.4ZM465.46 33.9L462.986 32.2043L462.979 32.2144L465.46 33.9ZM460.06 38.2L461.279 40.9414L461.295 40.9344L461.31 40.9272L460.06 38.2ZM451.01 39.8V36.8C448.306 36.8 445.712 36.493 443.221 35.8854L442.51 38.8L441.799 41.7146C444.775 42.4403 447.848 42.8 451.01 42.8V39.8ZM442.51 38.8L443.221 35.8854C440.684 35.2666 438.742 34.4956 437.311 33.6318L435.76 36.2L434.21 38.7682C436.312 40.0377 438.87 41 441.799 41.7146L442.51 38.8ZM435.76 36.2L438.504 37.4125L442.304 28.8125L439.56 27.6L436.816 26.3875L433.016 34.9875L435.76 36.2ZM439.56 27.6L438.055 30.1951C439.948 31.2929 442.021 32.1664 444.261 32.8273L445.11 29.95L445.959 27.0727C444.133 26.5336 442.506 25.8404 441.065 25.0049L439.56 27.6ZM445.11 29.95L444.317 32.8432C446.615 33.4732 448.882 33.8 451.11 33.8V30.8V27.8C449.472 27.8 447.739 27.5602 445.904 27.0568L445.11 29.95ZM451.11 30.8V33.8C452.322 33.8 453.445 33.7321 454.378 33.5356L453.76 30.6L453.142 27.6643C452.809 27.7346 452.166 27.8 451.11 27.8V30.8ZM453.76 30.6L454.488 33.5104C455.333 33.2991 456.37 32.9334 457.203 32.1922L455.21 29.95L453.217 27.7078C453.289 27.6436 453.347 27.6054 453.376 27.5875C453.405 27.5695 453.414 27.5667 453.396 27.575C453.378 27.583 453.34 27.5988 453.277 27.6196C453.215 27.6403 453.135 27.6641 453.033 27.6896L453.76 30.6ZM455.21 29.95L457.332 32.0713C458.156 31.2466 458.66 30.1477 458.66 28.9H455.66H452.66C452.66 28.7146 452.697 28.4979 452.79 28.2807C452.882 28.0671 453 27.9178 453.089 27.8287L455.21 29.95ZM455.66 28.9H458.66C458.66 26.8568 457.4 25.4747 456.002 24.7425L454.61 27.4L453.218 30.0575C453.265 30.0817 453.109 30.0121 452.94 29.7704C452.748 29.4963 452.66 29.1742 452.66 28.9H455.66ZM454.61 27.4L456.002 24.7425C454.956 24.1945 453.719 23.8223 452.399 23.5583L451.81 26.5L451.222 29.4417C452.235 29.6443 452.865 29.8722 453.218 30.0575L454.61 27.4ZM451.81 26.5L452.497 23.5798C451.32 23.3028 450.032 23.0282 448.635 22.7555L448.06 25.7L447.486 28.6445C448.822 28.9052 450.034 29.1639 451.123 29.4202L451.81 26.5ZM448.06 25.7L448.704 22.7698C447.446 22.4936 446.164 22.139 444.859 21.7039L443.91 24.55L442.962 27.396C444.457 27.8943 445.942 28.3064 447.417 28.6302L448.06 25.7ZM443.91 24.55L444.88 21.711C443.744 21.3231 442.706 20.8161 441.758 20.1929L440.11 22.7L438.463 25.2071C439.848 26.1173 441.343 26.8436 442.941 27.389L443.91 24.55ZM440.11 22.7L441.791 20.2151C441.055 19.7168 440.45 19.066 439.969 18.2192L437.36 19.7L434.751 21.1808C435.671 22.8007 436.899 24.1499 438.429 25.1848L440.11 22.7ZM437.36 19.7L439.986 18.2489C439.593 17.537 439.31 16.5024 439.31 15H436.31H433.31C433.31 17.2309 433.728 19.3296 434.735 21.1511L437.36 19.7ZM436.31 15H439.31C439.31 13.4252 439.735 12.0474 440.592 10.7856L438.11 9.1L435.629 7.41435C434.086 9.68592 433.31 12.2415 433.31 15H436.31ZM438.11 9.1L440.585 10.7957C441.446 9.53942 442.782 8.42875 444.779 7.54143L443.56 4.8L442.342 2.05856C439.538 3.30459 437.241 5.06058 435.636 7.4043L438.11 9.1ZM443.56 4.8L444.765 7.54761C446.709 6.69529 449.286 6.2 452.61 6.2V3.2V0.199999C448.734 0.199999 445.278 0.771372 442.356 2.05239L443.56 4.8ZM452.61 3.2V6.2C454.764 6.2 456.884 6.4273 458.973 6.88153L459.61 3.95L460.248 1.01847C457.737 0.472702 455.19 0.199999 452.61 0.199999V3.2ZM459.61 3.95L458.973 6.88153C461.014 7.32529 462.794 7.99357 464.337 8.86345L465.81 6.25L467.283 3.63654C465.16 2.43976 462.806 1.5747 460.248 1.01847L459.61 3.95ZM465.81 6.25L463.04 5.0996L459.49 13.6496L462.26 14.8L465.031 15.9504L468.581 7.40039L465.81 6.25ZM462.26 14.8L463.602 12.1167C461.712 11.1716 459.837 10.4431 457.98 9.95032L457.21 12.85L456.441 15.7497C457.85 16.1236 459.342 16.695 460.919 17.4833L462.26 14.8ZM457.21 12.85L457.995 9.95432C456.16 9.45732 454.329 9.2 452.51 9.2V12.2V15.2C453.758 15.2 455.061 15.376 456.426 15.7457L457.21 12.85ZM452.51 12.2V9.2C451.244 9.2 450.014 9.30676 448.948 9.62652L449.81 12.5L450.672 15.3735C450.94 15.2932 451.51 15.2 452.51 15.2V12.2ZM449.81 12.5L448.948 9.62652C448.022 9.9045 446.948 10.3843 446.13 11.2931L448.36 13.3L450.59 15.3069C450.53 15.3735 450.478 15.418 450.444 15.4441C450.41 15.47 450.392 15.4795 450.397 15.4767C450.402 15.4739 450.426 15.4614 450.473 15.4423C450.52 15.4233 450.585 15.3996 450.672 15.3735L449.81 12.5ZM448.36 13.3L446.018 11.4259C445.356 12.2528 444.96 13.2712 444.96 14.4H447.96H450.96C450.96 14.5407 450.936 14.6966 450.88 14.8502C450.825 15.0014 450.755 15.1096 450.703 15.1741L448.36 13.3ZM447.96 14.4H444.96C444.96 16.4754 446.295 17.8142 447.618 18.5075L449.01 15.85L450.402 13.1925C450.336 13.1575 450.482 13.2177 450.653 13.453C450.85 13.7261 450.96 14.0718 450.96 14.4H447.96ZM449.01 15.85L447.721 18.5586C448.717 19.0332 449.889 19.3777 451.155 19.6384L451.76 16.7L452.365 13.7616C451.365 13.5556 450.703 13.3335 450.3 13.1414L449.01 15.85ZM451.76 16.7L451.172 19.6417C452.344 19.8761 453.615 20.1271 454.986 20.3945L455.56 17.45L456.135 14.5055C454.772 14.2396 453.51 13.9905 452.349 13.7583L451.76 16.7ZM455.56 17.45L454.999 20.397C456.259 20.637 457.506 20.9673 458.741 21.389L459.71 18.55L460.68 15.711C459.182 15.1994 457.662 14.7964 456.122 14.503L455.56 17.45ZM459.71 18.55L458.741 21.389C459.87 21.7745 460.878 22.2753 461.779 22.8848L463.46 20.4L465.141 17.9151C463.776 16.9913 462.284 16.2588 460.68 15.7109L459.71 18.55ZM463.46 20.4L461.813 22.9071C462.576 23.4084 463.182 24.0541 463.651 24.8808L466.26 23.4L468.869 21.9192C467.939 20.2792 466.678 18.9249 465.108 17.8929L463.46 20.4ZM466.26 23.4L463.651 24.8808C464.031 25.5492 464.31 26.5375 464.31 28H467.31H470.31C470.31 25.7958 469.89 23.7175 468.869 21.9192L466.26 23.4ZM467.31 28H464.31C464.31 29.5135 463.885 30.8915 462.986 32.2043L465.46 33.9L467.935 35.5957C469.502 33.3085 470.31 30.7531 470.31 28H467.31ZM465.46 33.9L462.979 32.2144C462.152 33.432 460.83 34.5474 458.81 35.4728L460.06 38.2L461.31 40.9272C464.091 39.6526 466.369 37.9013 467.942 35.5856L465.46 33.9ZM460.06 38.2L458.842 35.4586C456.943 36.3026 454.375 36.8 451.01 36.8V39.8V42.8C454.913 42.8 458.378 42.2307 461.279 40.9414L460.06 38.2Z" fill="url(#paint0_linear_430_10083)" mask="url(#path-1-outside-1_430_10083)"/>
<defs>
<linearGradient id="paint0_linear_430_10083" x1="234.5" y1="-9" x2="234.5" y2="52" gradientUnits="userSpaceOnUse">
<stop stop-color="#E51D25"/>
<stop offset="1" stop-color="#1D3A69"/>
</linearGradient>
</defs>
</svg>
