<svg width="362" height="43" viewBox="0 0 362 43" fill="none" xmlns="http://www.w3.org/2000/svg">
<mask id="path-1-outside-1_306_279" maskUnits="userSpaceOnUse" x="0" y="0" width="362" height="43" fill="black">
<rect fill="white" width="362" height="43"/>
<path d="M3.85 39V4H20.7C23.9667 4 26.7833 4.53333 29.15 5.6C31.55 6.66666 33.4 8.2 34.7 10.2C36 12.1667 36.65 14.5 36.65 17.2C36.65 19.9 36 22.2333 34.7 24.2C33.4 26.1333 31.55 27.6167 29.15 28.65C26.7833 29.6833 23.9667 30.2 20.7 30.2H10.4L15.65 25.35V39H3.85ZM24.8 39L16.2 26.25H28.7L37.4 39H24.8ZM15.65 26.65L10.4 21.3H19.95C21.5833 21.3 22.7833 20.9333 23.55 20.2C24.35 19.4667 24.75 18.4667 24.75 17.2C24.75 15.9333 24.35 14.9333 23.55 14.2C22.7833 13.4667 21.5833 13.1 19.95 13.1H10.4L15.65 7.75V26.65ZM59.4559 39.8C56.6225 39.8 53.9892 39.35 51.5559 38.45C49.1559 37.55 47.0725 36.2833 45.3059 34.65C43.5392 32.9833 42.1559 31.0333 41.1559 28.8C40.1892 26.5667 39.7059 24.1333 39.7059 21.5C39.7059 18.8333 40.1892 16.4 41.1559 14.2C42.1559 11.9667 43.5392 10.0333 45.3059 8.4C47.0725 6.73333 49.1559 5.45 51.5559 4.55C53.9892 3.65 56.6225 3.2 59.4559 3.2C62.3225 3.2 64.9559 3.65 67.3559 4.55C69.7559 5.45 71.8392 6.73333 73.6059 8.4C75.3725 10.0333 76.7392 11.9667 77.7059 14.2C78.7059 16.4 79.2059 18.8333 79.2059 21.5C79.2059 24.1333 78.7059 26.5667 77.7059 28.8C76.7392 31.0333 75.3725 32.9833 73.6059 34.65C71.8392 36.2833 69.7559 37.55 67.3559 38.45C64.9559 39.35 62.3225 39.8 59.4559 39.8ZM59.4559 30.25C60.5559 30.25 61.5725 30.05 62.5059 29.65C63.4725 29.25 64.3059 28.6833 65.0059 27.95C65.7392 27.1833 66.3059 26.2667 66.7059 25.2C67.1059 24.1 67.3059 22.8667 67.3059 21.5C67.3059 20.1333 67.1059 18.9167 66.7059 17.85C66.3059 16.75 65.7392 15.8333 65.0059 15.1C64.3059 14.3333 63.4725 13.75 62.5059 13.35C61.5725 12.95 60.5559 12.75 59.4559 12.75C58.3559 12.75 57.3225 12.95 56.3559 13.35C55.4225 13.75 54.5892 14.3333 53.8559 15.1C53.1559 15.8333 52.6059 16.75 52.2059 17.85C51.8059 18.9167 51.6059 20.1333 51.6059 21.5C51.6059 22.8667 51.8059 24.1 52.2059 25.2C52.6059 26.2667 53.1559 27.1833 53.8559 27.95C54.5892 28.6833 55.4225 29.25 56.3559 29.65C57.3225 30.05 58.3559 30.25 59.4559 30.25ZM100.239 39.8C94.872 39.8 90.6887 38.35 87.6887 35.45C84.6887 32.55 83.1887 28.4833 83.1887 23.25V4H94.9887V22.9C94.9887 25.5667 95.472 27.4667 96.4387 28.6C97.4053 29.7 98.7053 30.25 100.339 30.25C102.005 30.25 103.305 29.7 104.239 28.6C105.205 27.4667 105.689 25.5667 105.689 22.9V4H117.289V23.25C117.289 28.4833 115.789 32.55 112.789 35.45C109.789 38.35 105.605 39.8 100.239 39.8ZM129.809 39V13.15H119.559V4H151.859V13.15H141.609V39H129.809ZM165.724 17H181.324V25.5H165.724V17ZM166.524 30.1H184.024V39H154.924V4H183.374V12.9H166.524V30.1ZM203.557 39V4H213.257L227.257 26.85H222.157L235.757 4H245.457L245.557 39H234.807L234.707 20.2H236.407L227.107 35.85H221.907L212.207 20.2H214.307V39H203.557ZM247.462 39L262.762 4H274.362L289.662 39H277.462L266.162 9.6H270.762L259.462 39H247.462ZM256.562 32.9L259.562 24.4H275.662L278.662 32.9H256.562ZM291.545 39V4H308.395C311.662 4 314.479 4.53333 316.845 5.6C319.245 6.66666 321.095 8.2 322.395 10.2C323.695 12.1667 324.345 14.5 324.345 17.2C324.345 19.9 323.695 22.2333 322.395 24.2C321.095 26.1667 319.245 27.7 316.845 28.8C314.479 29.8667 311.662 30.4 308.395 30.4H298.095L303.345 25.35V39H291.545ZM303.345 26.65L298.095 21.3H307.645C309.279 21.3 310.479 20.9333 311.245 20.2C312.045 19.4667 312.445 18.4667 312.445 17.2C312.445 15.9333 312.045 14.9333 311.245 14.2C310.479 13.4667 309.279 13.1 307.645 13.1H298.095L303.345 7.75V26.65ZM341.754 39.8C338.82 39.8 335.987 39.4667 333.254 38.8C330.52 38.1333 328.27 37.2667 326.504 36.2L330.304 27.6C331.97 28.5667 333.82 29.35 335.854 29.95C337.92 30.5167 339.92 30.8 341.854 30.8C342.987 30.8 343.87 30.7333 344.504 30.6C345.17 30.4333 345.654 30.2167 345.954 29.95C346.254 29.65 346.404 29.3 346.404 28.9C346.404 28.2667 346.054 27.7667 345.354 27.4C344.654 27.0333 343.72 26.7333 342.554 26.5C341.42 26.2333 340.17 25.9667 338.804 25.7C337.437 25.4 336.054 25.0167 334.654 24.55C333.287 24.0833 332.02 23.4667 330.854 22.7C329.72 21.9333 328.804 20.9333 328.104 19.7C327.404 18.4333 327.054 16.8667 327.054 15C327.054 12.8333 327.654 10.8667 328.854 9.1C330.087 7.3 331.904 5.86667 334.304 4.8C336.737 3.73333 339.754 3.2 343.354 3.2C345.72 3.2 348.054 3.45 350.354 3.95C352.654 4.45 354.72 5.21666 356.554 6.25L353.004 14.8C351.27 13.9333 349.587 13.2833 347.954 12.85C346.354 12.4167 344.787 12.2 343.254 12.2C342.12 12.2 341.22 12.3 340.554 12.5C339.887 12.7 339.404 12.9667 339.104 13.3C338.837 13.6333 338.704 14 338.704 14.4C338.704 15 339.054 15.4833 339.754 15.85C340.454 16.1833 341.37 16.4667 342.504 16.7C343.67 16.9333 344.937 17.1833 346.304 17.45C347.704 17.7167 349.087 18.0833 350.454 18.55C351.82 19.0167 353.07 19.6333 354.204 20.4C355.37 21.1667 356.304 22.1667 357.004 23.4C357.704 24.6333 358.054 26.1667 358.054 28C358.054 30.1333 357.437 32.1 356.204 33.9C355.004 35.6667 353.204 37.1 350.804 38.2C348.404 39.2667 345.387 39.8 341.754 39.8Z"/>
</mask>
<path d="M3.85 39H0.85V42H3.85V39ZM3.85 4V0.999998H0.85V4H3.85ZM29.15 5.6L27.9173 8.33504L27.9244 8.33825L27.9316 8.34143L29.15 5.6ZM34.7 10.2L32.1847 11.835L32.191 11.8447L32.1973 11.8543L34.7 10.2ZM34.7 24.2L37.1895 25.874L37.1961 25.8642L37.2027 25.8543L34.7 24.2ZM29.15 28.65L27.9636 25.8945L27.9566 25.8976L27.9496 25.9006L29.15 28.65ZM10.4 30.2L8.36429 27.9964L2.73152 33.2H10.4V30.2ZM15.65 25.35H18.65V18.4944L13.6143 23.1464L15.65 25.35ZM15.65 39V42H18.65V39H15.65ZM24.8 39L22.3129 40.6776L23.2049 42H24.8V39ZM16.2 26.25V23.25H10.5578L13.7129 27.9276L16.2 26.25ZM28.7 26.25L31.1781 24.5591L30.2848 23.25H28.7V26.25ZM37.4 39V42H43.0789L39.8781 37.3091L37.4 39ZM15.65 26.65L13.5088 28.7512L18.65 33.9904V26.65H15.65ZM10.4 21.3V18.3H3.2529L8.25876 23.4012L10.4 21.3ZM23.55 20.2L21.5228 17.9885L21.4993 18.0101L21.4763 18.0321L23.55 20.2ZM23.55 14.2L21.4763 16.3679L21.4993 16.3899L21.5228 16.4115L23.55 14.2ZM10.4 13.1L8.25876 10.9988L3.2529 16.1H10.4V13.1ZM15.65 7.75H18.65V0.40962L13.5088 5.64879L15.65 7.75ZM3.85 39H6.85V4H3.85H0.85V39H3.85ZM3.85 4V7H20.7V4V0.999998H3.85V4ZM20.7 4V7C23.648 7 26.0246 7.48198 27.9173 8.33504L29.15 5.6L30.3827 2.86495C27.5421 1.58468 24.2854 0.999998 20.7 0.999998V4ZM29.15 5.6L27.9316 8.34143C29.857 9.19717 31.2325 10.3701 32.1847 11.835L34.7 10.2L37.2153 8.56503C35.5675 6.02991 33.243 4.13616 30.3684 2.85856L29.15 5.6ZM34.7 10.2L32.1973 11.8543C33.1277 13.2617 33.65 15.0004 33.65 17.2H36.65H39.65C39.65 13.9996 38.8723 11.0716 37.2027 8.5457L34.7 10.2ZM36.65 17.2H33.65C33.65 19.3996 33.1277 21.1383 32.1973 22.5457L34.7 24.2L37.2027 25.8543C38.8723 23.3284 39.65 20.4004 39.65 17.2H36.65ZM34.7 24.2L32.2105 22.526C31.2701 23.9245 29.9008 25.0605 27.9636 25.8945L29.15 28.65L30.3364 31.4055C33.1992 30.1728 35.5299 28.3421 37.1895 25.874L34.7 24.2ZM29.15 28.65L27.9496 25.9006C26.0476 26.7311 23.6592 27.2 20.7 27.2V30.2V33.2C24.2742 33.2 27.519 32.6356 30.3504 31.3994L29.15 28.65ZM20.7 30.2V27.2H10.4V30.2V33.2H20.7V30.2ZM10.4 30.2L12.4357 32.4036L17.6857 27.5536L15.65 25.35L13.6143 23.1464L8.36429 27.9964L10.4 30.2ZM15.65 25.35H12.65V39H15.65H18.65V25.35H15.65ZM15.65 39V36H3.85V39V42H15.65V39ZM24.8 39L27.2871 37.3224L18.6871 24.5724L16.2 26.25L13.7129 27.9276L22.3129 40.6776L24.8 39ZM16.2 26.25V29.25H28.7V26.25V23.25H16.2V26.25ZM28.7 26.25L26.2219 27.9409L34.9219 40.6909L37.4 39L39.8781 37.3091L31.1781 24.5591L28.7 26.25ZM37.4 39V36H24.8V39V42H37.4V39ZM15.65 26.65L17.7912 24.5488L12.5412 19.1988L10.4 21.3L8.25876 23.4012L13.5088 28.7512L15.65 26.65ZM10.4 21.3V24.3H19.95V21.3V18.3H10.4V21.3ZM19.95 21.3V24.3C21.951 24.3 24.0622 23.8615 25.6237 22.3679L23.55 20.2L21.4763 18.0321C21.5045 18.0052 21.2157 18.3 19.95 18.3V21.3ZM23.55 20.2L25.5772 22.4115C27.1021 21.0136 27.75 19.1537 27.75 17.2H24.75H21.75C21.75 17.7797 21.5979 17.9197 21.5228 17.9885L23.55 20.2ZM24.75 17.2H27.75C27.75 15.2463 27.1021 13.3864 25.5772 11.9885L23.55 14.2L21.5228 16.4115C21.5979 16.4803 21.75 16.6203 21.75 17.2H24.75ZM23.55 14.2L25.6237 12.0321C24.0622 10.5385 21.951 10.1 19.95 10.1V13.1V16.1C21.2157 16.1 21.5045 16.3948 21.4763 16.3679L23.55 14.2ZM19.95 13.1V10.1H10.4V13.1V16.1H19.95V13.1ZM10.4 13.1L12.5412 15.2012L17.7912 9.85122L15.65 7.75L13.5088 5.64879L8.25876 10.9988L10.4 13.1ZM15.65 7.75H12.65V26.65H15.65H18.65V7.75H15.65ZM51.5559 38.45L50.5025 41.259L50.5152 41.2637L51.5559 38.45ZM45.3059 34.65L43.2472 36.8322L43.2582 36.8426L43.2693 36.8528L45.3059 34.65ZM41.1559 28.8L38.4027 29.9917L38.4101 30.0089L38.4178 30.026L41.1559 28.8ZM41.1559 14.2L38.4178 12.974L38.4135 12.9836L38.4093 12.9932L41.1559 14.2ZM45.3059 8.4L47.3424 10.6028L47.3535 10.5926L47.3645 10.5822L45.3059 8.4ZM51.5559 4.55L50.5152 1.73626L50.5025 1.74101L51.5559 4.55ZM67.3559 4.55L66.3025 7.35899V7.35899L67.3559 4.55ZM73.6059 8.4L71.5472 10.5822L71.5582 10.5926L71.5693 10.6028L73.6059 8.4ZM77.7059 14.2L74.9527 15.3917L74.9635 15.4166L74.9748 15.4414L77.7059 14.2ZM77.7059 28.8L74.9678 27.574L74.9601 27.5911L74.9527 27.6083L77.7059 28.8ZM73.6059 34.65L75.6424 36.8528L75.6535 36.8426L75.6645 36.8322L73.6059 34.65ZM67.3559 38.45L66.3025 35.641L67.3559 38.45ZM62.5059 29.65L61.3588 26.8779L61.3414 26.8851L61.3241 26.8926L62.5059 29.65ZM65.0059 27.95L62.8379 25.8763L62.8358 25.8786L65.0059 27.95ZM66.7059 25.2L69.5148 26.2534L69.5201 26.2393L69.5252 26.2252L66.7059 25.2ZM66.7059 17.85L63.8865 18.8752L63.8916 18.8893L63.8969 18.9034L66.7059 17.85ZM65.0059 15.1L62.7904 17.1228L62.8364 17.1731L62.8845 17.2213L65.0059 15.1ZM62.5059 13.35L61.3241 16.1074L61.3414 16.1149L61.3588 16.1221L62.5059 13.35ZM56.3559 13.35L55.2088 10.5779L55.1914 10.5851L55.1741 10.5926L56.3559 13.35ZM53.8559 15.1L51.6879 13.0263L51.6858 13.0286L53.8559 15.1ZM52.2059 17.85L55.0148 18.9034L55.0201 18.8893L55.0252 18.8752L52.2059 17.85ZM52.2059 25.2L49.3865 26.2252L49.3916 26.2393L49.3969 26.2534L52.2059 25.2ZM53.8559 27.95L51.6404 29.9728L51.6864 30.0231L51.7345 30.0713L53.8559 27.95ZM56.3559 29.65L55.1741 32.4074L55.1914 32.4149L55.2088 32.4221L56.3559 29.65ZM59.4559 39.8V36.8C56.945 36.8 54.6674 36.4022 52.5965 35.6363L51.5559 38.45L50.5152 41.2637C53.311 42.2978 56.3001 42.8 59.4559 42.8V39.8ZM51.5559 38.45L52.6092 35.641C50.5491 34.8685 48.8054 33.7998 47.3424 32.4472L45.3059 34.65L43.2693 36.8528C45.3396 38.7669 47.7626 40.2315 50.5025 41.259L51.5559 38.45ZM45.3059 34.65L47.3645 32.4678C45.8872 31.0742 44.7338 29.4498 43.8939 27.574L41.1559 28.8L38.4178 30.026C39.5779 32.6169 41.1912 34.8925 43.2472 36.8322L45.3059 34.65ZM41.1559 28.8L43.909 27.6083C43.1182 25.7812 42.7059 23.7574 42.7059 21.5H39.7059H36.7059C36.7059 24.5092 37.2602 27.3521 38.4027 29.9917L41.1559 28.8ZM39.7059 21.5H42.7059C42.7059 19.203 43.1204 17.1866 43.9024 15.4068L41.1559 14.2L38.4093 12.9932C37.258 15.6134 36.7059 18.4636 36.7059 21.5H39.7059ZM41.1559 14.2L43.8939 15.426C44.7313 13.5558 45.8783 11.9565 47.3424 10.6028L45.3059 8.4L43.2693 6.19718C41.2001 8.11021 39.5804 10.3775 38.4178 12.974L41.1559 14.2ZM45.3059 8.4L47.3645 10.5822C48.8252 9.20418 50.5617 8.12683 52.6092 7.35899L51.5559 4.55L50.5025 1.74101C47.7501 2.77317 45.3198 4.26249 43.2472 6.21782L45.3059 8.4ZM51.5559 4.55L52.5965 7.36371C54.6674 6.59778 56.945 6.2 59.4559 6.2V3.2V0.199999C56.3001 0.199999 53.311 0.702213 50.5152 1.73629L51.5559 4.55ZM59.4559 3.2V6.2C62.0051 6.2 64.2768 6.59936 66.3025 7.35899L67.3559 4.55L68.4092 1.74101C65.6349 0.700639 62.6399 0.199999 59.4559 0.199999V3.2ZM67.3559 4.55L66.3025 7.35899C68.3501 8.12683 70.0865 9.20418 71.5472 10.5822L73.6059 8.4L75.6645 6.21782C73.5919 4.26249 71.1617 2.77317 68.4092 1.74101L67.3559 4.55ZM73.6059 8.4L71.5693 10.6028C73.0257 11.9493 74.15 13.5371 74.9527 15.3917L77.7059 14.2L80.459 13.0083C79.3284 10.3963 77.7193 8.11734 75.6424 6.19718L73.6059 8.4ZM77.7059 14.2L74.9748 15.4414C75.78 17.2128 76.2059 19.2169 76.2059 21.5H79.2059H82.2059C82.2059 18.4498 81.6318 15.5872 80.437 12.9586L77.7059 14.2ZM79.2059 21.5H76.2059C76.2059 23.7434 75.7823 25.755 74.9678 27.574L77.7059 28.8L80.4439 30.026C81.6295 27.3783 82.2059 24.5232 82.2059 21.5H79.2059ZM77.7059 28.8L74.9527 27.6083C74.1475 29.4685 73.0169 31.0813 71.5472 32.4678L73.6059 34.65L75.6645 36.8322C77.7281 34.8854 79.3308 32.5981 80.459 29.9917L77.7059 28.8ZM73.6059 34.65L71.5693 32.4472C70.1063 33.7998 68.3626 34.8685 66.3025 35.641L67.3559 38.45L68.4092 41.259C71.1491 40.2315 73.5721 38.7669 75.6424 36.8528L73.6059 34.65ZM67.3559 38.45L66.3025 35.641C64.2768 36.4006 62.0051 36.8 59.4559 36.8V39.8V42.8C62.6399 42.8 65.6349 42.2994 68.4092 41.259L67.3559 38.45ZM59.4559 30.25V33.25C60.928 33.25 62.3507 32.9804 63.6876 32.4074L62.5059 29.65L61.3241 26.8926C60.7944 27.1196 60.1838 27.25 59.4559 27.25V30.25ZM62.5059 29.65L63.6529 32.4221C64.993 31.8675 66.1781 31.0667 67.1759 30.0214L65.0059 27.95L62.8358 25.8786C62.4336 26.2999 61.952 26.6325 61.3588 26.8779L62.5059 29.65ZM65.0059 27.95L67.1738 30.0237C68.2078 28.9426 68.983 27.6716 69.5148 26.2534L66.7059 25.2L63.8969 24.1466C63.6287 24.8617 63.2706 25.424 62.8379 25.8763L65.0059 27.95ZM66.7059 25.2L69.5252 26.2252C70.0629 24.7466 70.3059 23.1589 70.3059 21.5H67.3059H64.3059C64.3059 22.5745 64.1488 23.4534 63.8865 24.1748L66.7059 25.2ZM67.3059 21.5H70.3059C70.3059 19.8435 70.0636 18.2599 69.5148 16.7966L66.7059 17.85L63.8969 18.9034C64.1481 19.5734 64.3059 20.4231 64.3059 21.5H67.3059ZM66.7059 17.85L69.5252 16.8248C68.9948 15.366 68.2081 14.0596 67.1272 12.9787L65.0059 15.1L62.8845 17.2213C63.2702 17.607 63.617 18.134 63.8865 18.8752L66.7059 17.85ZM65.0059 15.1L67.2213 13.0772C66.2221 11.9828 65.0231 11.1449 63.6529 10.5779L62.5059 13.35L61.3588 16.1221C61.9219 16.3551 62.3896 16.6838 62.7904 17.1228L65.0059 15.1ZM62.5059 13.35L63.6876 10.5926C62.3507 10.0196 60.928 9.75 59.4559 9.75V12.75V15.75C60.1838 15.75 60.7944 15.8804 61.3241 16.1074L62.5059 13.35ZM59.4559 12.75V9.75C57.9828 9.75 56.5577 10.0198 55.2088 10.5779L56.3559 13.35L57.5029 16.122C58.0873 15.8802 58.7289 15.75 59.4559 15.75V12.75ZM56.3559 13.35L55.1741 10.5926C53.8528 11.1589 52.6878 11.981 51.6879 13.0263L53.8559 15.1L56.0238 17.1737C56.4906 16.6857 56.9923 16.3411 57.5376 16.1074L56.3559 13.35ZM53.8559 15.1L51.6858 13.0286C50.6584 14.1049 49.9065 15.3947 49.3865 16.8248L52.2059 17.85L55.0252 18.8752C55.3052 18.1053 55.6533 17.5618 56.0259 17.1714L53.8559 15.1ZM52.2059 17.85L49.3969 16.7966C48.8481 18.2599 48.6059 19.8435 48.6059 21.5H51.6059H54.6059C54.6059 20.4231 54.7636 19.5734 55.0148 18.9034L52.2059 17.85ZM51.6059 21.5H48.6059C48.6059 23.1589 48.8488 24.7466 49.3865 26.2252L52.2059 25.2L55.0252 24.1748C54.7629 23.4534 54.6059 22.5745 54.6059 21.5H51.6059ZM52.2059 25.2L49.3969 26.2534C49.918 27.6431 50.6586 28.8975 51.6404 29.9728L53.8559 27.95L56.0713 25.9272C55.6532 25.4692 55.2937 24.8902 55.0148 24.1466L52.2059 25.2ZM53.8559 27.95L51.7345 30.0713C52.7319 31.0686 53.8824 31.8538 55.1741 32.4074L56.3559 29.65L57.5376 26.8926C56.9627 26.6461 56.4465 26.298 55.9772 25.8287L53.8559 27.95ZM56.3559 29.65L55.2088 32.4221C56.5577 32.9802 57.9828 33.25 59.4559 33.25V30.25V27.25C58.7289 27.25 58.0873 27.1198 57.5029 26.8779L56.3559 29.65ZM87.6887 35.45L85.6036 37.607L87.6887 35.45ZM83.1887 4V0.999998H80.1887V4H83.1887ZM94.9887 4H97.9887V0.999998H94.9887V4ZM96.4387 28.6L94.1562 30.5468L94.1705 30.5637L94.1852 30.5803L96.4387 28.6ZM104.239 28.6L101.956 26.6532L101.951 26.6591L104.239 28.6ZM105.689 4V0.999998H102.689V4H105.689ZM117.289 4H120.289V0.999998H117.289V4ZM112.789 35.45L110.704 33.293L112.789 35.45ZM100.239 39.8V36.8C95.4183 36.8 92.0673 35.5102 89.7737 33.293L87.6887 35.45L85.6036 37.607C89.31 41.1898 94.3257 42.8 100.239 42.8V39.8ZM87.6887 35.45L89.7737 33.293C87.4993 31.0945 86.1887 27.8894 86.1887 23.25H83.1887H80.1887C80.1887 29.0773 81.878 34.0055 85.6036 37.607L87.6887 35.45ZM83.1887 23.25H86.1887V4H83.1887H80.1887V23.25H83.1887ZM83.1887 4V7H94.9887V4V0.999998H83.1887V4ZM94.9887 4H91.9887V22.9H94.9887H97.9887V4H94.9887ZM94.9887 22.9H91.9887C91.9887 25.7753 92.4798 28.5814 94.1562 30.5468L96.4387 28.6L98.7212 26.6532C98.4642 26.3519 97.9887 25.3581 97.9887 22.9H94.9887ZM96.4387 28.6L94.1852 30.5803C95.791 32.4076 97.9538 33.25 100.339 33.25V30.25V27.25C99.4569 27.25 99.0197 26.9924 98.6922 26.6197L96.4387 28.6ZM100.339 30.25V33.25C102.734 33.25 104.931 32.4208 106.526 30.5409L104.239 28.6L101.951 26.6591C101.679 26.9792 101.277 27.25 100.339 27.25V30.25ZM104.239 28.6L106.521 30.5468C108.198 28.5814 108.689 25.7753 108.689 22.9H105.689H102.689C102.689 25.3581 102.213 26.3519 101.956 26.6532L104.239 28.6ZM105.689 22.9H108.689V4H105.689H102.689V22.9H105.689ZM105.689 4V7H117.289V4V0.999998H105.689V4ZM117.289 4H114.289V23.25H117.289H120.289V4H117.289ZM117.289 23.25H114.289C114.289 27.8894 112.978 31.0945 110.704 33.293L112.789 35.45L114.874 37.607C118.599 34.0055 120.289 29.0773 120.289 23.25H117.289ZM112.789 35.45L110.704 33.293C108.41 35.5102 105.059 36.8 100.239 36.8V39.8V42.8C106.152 42.8 111.167 41.1898 114.874 37.607L112.789 35.45ZM129.809 39H126.809V42H129.809V39ZM129.809 13.15H132.809V10.15H129.809V13.15ZM119.559 13.15H116.559V16.15H119.559V13.15ZM119.559 4V0.999998H116.559V4H119.559ZM151.859 4H154.859V0.999998H151.859V4ZM151.859 13.15V16.15H154.859V13.15H151.859ZM141.609 13.15V10.15H138.609V13.15H141.609ZM141.609 39V42H144.609V39H141.609ZM129.809 39H132.809V13.15H129.809H126.809V39H129.809ZM129.809 13.15V10.15H119.559V13.15V16.15H129.809V13.15ZM119.559 13.15H122.559V4H119.559H116.559V13.15H119.559ZM119.559 4V7H151.859V4V0.999998H119.559V4ZM151.859 4H148.859V13.15H151.859H154.859V4H151.859ZM151.859 13.15V10.15H141.609V13.15V16.15H151.859V13.15ZM141.609 13.15H138.609V39H141.609H144.609V13.15H141.609ZM141.609 39V36H129.809V39V42H141.609V39ZM165.724 17V14H162.724V17H165.724ZM181.324 17H184.324V14H181.324V17ZM181.324 25.5V28.5H184.324V25.5H181.324ZM165.724 25.5H162.724V28.5H165.724V25.5ZM166.524 30.1H163.524V33.1H166.524V30.1ZM184.024 30.1H187.024V27.1H184.024V30.1ZM184.024 39V42H187.024V39H184.024ZM154.924 39H151.924V42H154.924V39ZM154.924 4V0.999998H151.924V4H154.924ZM183.374 4H186.374V0.999998H183.374V4ZM183.374 12.9V15.9H186.374V12.9H183.374ZM166.524 12.9V9.9H163.524V12.9H166.524ZM165.724 17V20H181.324V17V14H165.724V17ZM181.324 17H178.324V25.5H181.324H184.324V17H181.324ZM181.324 25.5V22.5H165.724V25.5V28.5H181.324V25.5ZM165.724 25.5H168.724V17H165.724H162.724V25.5H165.724ZM166.524 30.1V33.1H184.024V30.1V27.1H166.524V30.1ZM184.024 30.1H181.024V39H184.024H187.024V30.1H184.024ZM184.024 39V36H154.924V39V42H184.024V39ZM154.924 39H157.924V4H154.924H151.924V39H154.924ZM154.924 4V7H183.374V4V0.999998H154.924V4ZM183.374 4H180.374V12.9H183.374H186.374V4H183.374ZM183.374 12.9V9.9H166.524V12.9V15.9H183.374V12.9ZM166.524 12.9H163.524V30.1H166.524H169.524V12.9H166.524ZM203.557 39H200.557V42H203.557V39ZM203.557 4V0.999998H200.557V4H203.557ZM213.257 4L215.815 2.4327L214.937 0.999998H213.257V4ZM227.257 26.85V29.85H232.613L229.815 25.2827L227.257 26.85ZM222.157 26.85L219.579 25.3156L216.88 29.85H222.157V26.85ZM235.757 4V0.999998H234.051L233.179 2.46564L235.757 4ZM245.457 4L248.457 3.99143L248.448 0.999998H245.457V4ZM245.557 39V42H248.566L248.557 38.9914L245.557 39ZM234.807 39L231.807 39.016L231.823 42H234.807V39ZM234.707 20.2V17.2H231.691L231.707 20.216L234.707 20.2ZM236.407 20.2L238.986 21.7326L241.68 17.2H236.407V20.2ZM227.107 35.85V38.85H228.814L229.686 37.3826L227.107 35.85ZM221.907 35.85L219.357 37.4305L220.237 38.85H221.907V35.85ZM212.207 20.2V17.2H206.818L209.657 21.7805L212.207 20.2ZM214.307 20.2H217.307V17.2H214.307V20.2ZM214.307 39V42H217.307V39H214.307ZM203.557 39H206.557V4H203.557H200.557V39H203.557ZM203.557 4V7H213.257V4V0.999998H203.557V4ZM213.257 4L210.699 5.56729L224.699 28.4173L227.257 26.85L229.815 25.2827L215.815 2.4327L213.257 4ZM227.257 26.85V23.85H222.157V26.85V29.85H227.257V26.85ZM222.157 26.85L224.735 28.3843L238.335 5.53435L235.757 4L233.179 2.46564L219.579 25.3156L222.157 26.85ZM235.757 4V7H245.457V4V0.999998H235.757V4ZM245.457 4L242.457 4.00857L242.557 39.0086L245.557 39L248.557 38.9914L248.457 3.99143L245.457 4ZM245.557 39V36H234.807V39V42H245.557V39ZM234.807 39L237.807 38.984L237.707 20.184L234.707 20.2L231.707 20.216L231.807 39.016L234.807 39ZM234.707 20.2V23.2H236.407V20.2V17.2H234.707V20.2ZM236.407 20.2L233.828 18.6674L224.528 34.3174L227.107 35.85L229.686 37.3826L238.986 21.7326L236.407 20.2ZM227.107 35.85V32.85H221.907V35.85V38.85H227.107V35.85ZM221.907 35.85L224.457 34.2695L214.757 18.6195L212.207 20.2L209.657 21.7805L219.357 37.4305L221.907 35.85ZM212.207 20.2V23.2H214.307V20.2V17.2H212.207V20.2ZM214.307 20.2H211.307V39H214.307H217.307V20.2H214.307ZM214.307 39V36H203.557V39V42H214.307V39ZM247.462 39L244.713 37.7984L242.877 42H247.462V39ZM262.762 4V0.999998H260.799L260.013 2.79837L262.762 4ZM274.362 4L277.111 2.79837L276.325 0.999998H274.362V4ZM289.662 39V42H294.248L292.411 37.7984L289.662 39ZM277.462 39L274.662 40.0763L275.401 42H277.462V39ZM266.162 9.6V6.6H261.795L263.362 10.6763L266.162 9.6ZM270.762 9.6L273.562 10.6763L275.129 6.6H270.762V9.6ZM259.462 39V42H261.523L262.262 40.0763L259.462 39ZM256.562 32.9L253.733 31.9015L252.322 35.9H256.562V32.9ZM259.562 24.4V21.4H257.44L256.733 23.4015L259.562 24.4ZM275.662 24.4L278.491 23.4015L277.785 21.4H275.662V24.4ZM278.662 32.9V35.9H282.902L281.491 31.9015L278.662 32.9ZM247.462 39L250.211 40.2016L265.511 5.20163L262.762 4L260.013 2.79837L244.713 37.7984L247.462 39ZM262.762 4V7H274.362V4V0.999998H262.762V4ZM274.362 4L271.613 5.20163L286.913 40.2016L289.662 39L292.411 37.7984L277.111 2.79837L274.362 4ZM289.662 39V36H277.462V39V42H289.662V39ZM277.462 39L280.262 37.9237L268.962 8.5237L266.162 9.6L263.362 10.6763L274.662 40.0763L277.462 39ZM266.162 9.6V12.6H270.762V9.6V6.6H266.162V9.6ZM270.762 9.6L267.962 8.5237L256.662 37.9237L259.462 39L262.262 40.0763L273.562 10.6763L270.762 9.6ZM259.462 39V36H247.462V39V42H259.462V39ZM256.562 32.9L259.391 33.8985L262.391 25.3985L259.562 24.4L256.733 23.4015L253.733 31.9015L256.562 32.9ZM259.562 24.4V27.4H275.662V24.4V21.4H259.562V24.4ZM275.662 24.4L272.833 25.3985L275.833 33.8985L278.662 32.9L281.491 31.9015L278.491 23.4015L275.662 24.4ZM278.662 32.9V29.9H256.562V32.9V35.9H278.662V32.9ZM291.545 39H288.545V42H291.545V39ZM291.545 4V0.999998H288.545V4H291.545ZM316.845 5.6L315.613 8.33504L315.62 8.33825L315.627 8.34143L316.845 5.6ZM322.395 10.2L319.88 11.835L319.886 11.8447L319.893 11.8543L322.395 10.2ZM322.395 24.2L319.893 22.5457V22.5457L322.395 24.2ZM316.845 28.8L318.078 31.535L318.087 31.5311L318.095 31.5272L316.845 28.8ZM298.095 30.4L296.016 28.2379L290.649 33.4H298.095V30.4ZM303.345 25.35H306.345V18.3017L301.266 23.1879L303.345 25.35ZM303.345 39V42H306.345V39H303.345ZM303.345 26.65L301.204 28.7512L306.345 33.9904V26.65H303.345ZM298.095 21.3V18.3H290.948L295.954 23.4012L298.095 21.3ZM311.245 20.2L309.218 17.9885L309.195 18.0101L309.172 18.0321L311.245 20.2ZM311.245 14.2L309.172 16.3679L309.195 16.3899L309.218 16.4115L311.245 14.2ZM298.095 13.1L295.954 10.9988L290.948 16.1H298.095V13.1ZM303.345 7.75H306.345V0.40962L301.204 5.64879L303.345 7.75ZM291.545 39H294.545V4H291.545H288.545V39H291.545ZM291.545 4V7H308.395V4V0.999998H291.545V4ZM308.395 4V7C311.343 7 313.72 7.48198 315.613 8.33504L316.845 5.6L318.078 2.86495C315.237 1.58468 311.981 0.999998 308.395 0.999998V4ZM316.845 5.6L315.627 8.34143C317.552 9.19717 318.928 10.3701 319.88 11.835L322.395 10.2L324.911 8.56503C323.263 6.02991 320.938 4.13616 318.064 2.85856L316.845 5.6ZM322.395 10.2L319.893 11.8543C320.823 13.2617 321.345 15.0004 321.345 17.2H324.345H327.345C327.345 13.9996 326.568 11.0716 324.898 8.5457L322.395 10.2ZM324.345 17.2H321.345C321.345 19.3996 320.823 21.1383 319.893 22.5457L322.395 24.2L324.898 25.8543C326.568 23.3284 327.345 20.4004 327.345 17.2H324.345ZM322.395 24.2L319.893 22.5457C318.938 23.9902 317.549 25.1776 315.595 26.0728L316.845 28.8L318.095 31.5272C320.942 30.2224 323.253 28.3431 324.898 25.8543L322.395 24.2ZM316.845 28.8L315.613 26.065C313.72 26.918 311.343 27.4 308.395 27.4V30.4V33.4C311.981 33.4 315.237 32.8153 318.078 31.535L316.845 28.8ZM308.395 30.4V27.4H298.095V30.4V33.4H308.395V30.4ZM298.095 30.4L300.175 32.5621L305.425 27.5121L303.345 25.35L301.266 23.1879L296.016 28.2379L298.095 30.4ZM303.345 25.35H300.345V39H303.345H306.345V25.35H303.345ZM303.345 39V36H291.545V39V42H303.345V39ZM303.345 26.65L305.487 24.5488L300.237 19.1988L298.095 21.3L295.954 23.4012L301.204 28.7512L303.345 26.65ZM298.095 21.3V24.3H307.645V21.3V18.3H298.095V21.3ZM307.645 21.3V24.3C309.646 24.3 311.758 23.8615 313.319 22.3679L311.245 20.2L309.172 18.0321C309.2 18.0052 308.911 18.3 307.645 18.3V21.3ZM311.245 20.2L313.272 22.4115C314.797 21.0136 315.445 19.1537 315.445 17.2H312.445H309.445C309.445 17.7797 309.293 17.9197 309.218 17.9885L311.245 20.2ZM312.445 17.2H315.445C315.445 15.2463 314.797 13.3864 313.272 11.9885L311.245 14.2L309.218 16.4115C309.293 16.4803 309.445 16.6203 309.445 17.2H312.445ZM311.245 14.2L313.319 12.0321C311.758 10.5385 309.646 10.1 307.645 10.1V13.1V16.1C308.911 16.1 309.2 16.3948 309.172 16.3679L311.245 14.2ZM307.645 13.1V10.1H298.095V13.1V16.1H307.645V13.1ZM298.095 13.1L300.237 15.2012L305.487 9.85122L303.345 7.75L301.204 5.64879L295.954 10.9988L298.095 13.1ZM303.345 7.75H300.345V26.65H303.345H306.345V7.75H303.345ZM333.254 38.8L333.964 35.8854L333.254 38.8ZM326.504 36.2L323.759 34.9875L322.692 37.4032L324.953 38.7682L326.504 36.2ZM330.304 27.6L331.809 25.0049L328.913 23.3252L327.559 26.3875L330.304 27.6ZM335.854 29.95L335.004 32.8273L335.032 32.8355L335.06 32.8432L335.854 29.95ZM344.504 30.6L345.122 33.5356L345.177 33.5241L345.231 33.5104L344.504 30.6ZM345.954 29.95L347.947 32.1922L348.013 32.1337L348.075 32.0713L345.954 29.95ZM345.354 27.4L343.961 30.0575L345.354 27.4ZM342.554 26.5L341.866 29.4202L341.916 29.4318L341.965 29.4417L342.554 26.5ZM338.804 25.7L338.16 28.6302L338.195 28.6378L338.229 28.6445L338.804 25.7ZM334.654 24.55L333.684 27.389L333.694 27.3926L333.705 27.396L334.654 24.55ZM330.854 22.7L329.173 25.1848L329.189 25.1961L329.206 25.2071L330.854 22.7ZM328.104 19.7L325.478 21.1511L325.486 21.166L325.494 21.1808L328.104 19.7ZM328.854 9.1L326.379 7.40429L326.372 7.41435L328.854 9.1ZM334.304 4.8L333.099 2.05239L333.092 2.05546L333.085 2.05856L334.304 4.8ZM350.354 3.95L349.716 6.88153L350.354 3.95ZM356.554 6.25L359.324 7.40039L360.344 4.94302L358.027 3.63654L356.554 6.25ZM353.004 14.8L351.662 17.4833L354.54 18.9224L355.774 15.9504L353.004 14.8ZM347.954 12.85L347.169 15.7457L347.177 15.7477L347.184 15.7497L347.954 12.85ZM340.554 12.5L339.691 9.62652L340.554 12.5ZM339.104 13.3L336.874 11.2931L336.815 11.3579L336.761 11.4259L339.104 13.3ZM339.754 15.85L338.362 18.5075L338.412 18.534L338.464 18.5586L339.754 15.85ZM342.504 16.7L341.899 19.6384L341.907 19.6401L341.915 19.6417L342.504 16.7ZM346.304 17.45L345.729 20.3945L345.742 20.397L346.304 17.45ZM350.454 18.55L349.484 21.389H349.484L350.454 18.55ZM354.204 20.4L352.523 22.8848L352.539 22.8961L352.556 22.9071L354.204 20.4ZM357.004 23.4L354.394 24.8808V24.8808L357.004 23.4ZM356.204 33.9L353.729 32.2043L353.722 32.2144L356.204 33.9ZM350.804 38.2L352.022 40.9414L352.038 40.9344L352.053 40.9272L350.804 38.2ZM341.754 39.8V36.8C339.049 36.8 336.455 36.493 333.964 35.8854L333.254 38.8L332.543 41.7146C335.518 42.4403 338.591 42.8 341.754 42.8V39.8ZM333.254 38.8L333.964 35.8854C331.427 35.2666 329.485 34.4956 328.054 33.6318L326.504 36.2L324.953 38.7682C327.056 40.0377 329.613 41 332.543 41.7146L333.254 38.8ZM326.504 36.2L329.248 37.4125L333.048 28.8125L330.304 27.6L327.559 26.3875L323.759 34.9875L326.504 36.2ZM330.304 27.6L328.798 30.1951C330.691 31.2929 332.765 32.1664 335.004 32.8273L335.854 29.95L336.703 27.0727C334.876 26.5336 333.249 25.8404 331.809 25.0049L330.304 27.6ZM335.854 29.95L335.06 32.8432C337.358 33.4732 339.625 33.8 341.854 33.8V30.8V27.8C340.215 27.8 338.483 27.5602 336.647 27.0568L335.854 29.95ZM341.854 30.8V33.8C343.065 33.8 344.188 33.7321 345.122 33.5356L344.504 30.6L343.885 27.6643C343.552 27.7346 342.909 27.8 341.854 27.8V30.8ZM344.504 30.6L345.231 33.5104C346.077 33.2991 347.113 32.9334 347.947 32.1922L345.954 29.95L343.96 27.7078C344.033 27.6436 344.09 27.6054 344.119 27.5875C344.148 27.5695 344.157 27.5667 344.139 27.575C344.121 27.583 344.083 27.5988 344.02 27.6196C343.958 27.6403 343.878 27.6641 343.776 27.6896L344.504 30.6ZM345.954 29.95L348.075 32.0713C348.9 31.2466 349.404 30.1477 349.404 28.9H346.404H343.404C343.404 28.7146 343.441 28.4979 343.534 28.2807C343.625 28.0671 343.743 27.9178 343.832 27.8287L345.954 29.95ZM346.404 28.9H349.404C349.404 26.8568 348.143 25.4747 346.746 24.7425L345.354 27.4L343.961 30.0575C344.008 30.0817 343.853 30.0121 343.683 29.7704C343.491 29.4963 343.404 29.1742 343.404 28.9H346.404ZM345.354 27.4L346.746 24.7425C345.699 24.1945 344.462 23.8223 343.142 23.5583L342.554 26.5L341.965 29.4417C342.978 29.6443 343.608 29.8722 343.961 30.0575L345.354 27.4ZM342.554 26.5L343.241 23.5798C342.064 23.3028 340.775 23.0282 339.378 22.7555L338.804 25.7L338.229 28.6445C339.565 28.9052 340.777 29.1639 341.866 29.4202L342.554 26.5ZM338.804 25.7L339.447 22.7698C338.189 22.4936 336.907 22.139 335.602 21.7039L334.654 24.55L333.705 27.396C335.2 27.8943 336.685 28.3064 338.16 28.6302L338.804 25.7ZM334.654 24.55L335.623 21.711C334.487 21.3231 333.449 20.8161 332.501 20.1929L330.854 22.7L329.206 25.2071C330.591 26.1173 332.087 26.8436 333.684 27.389L334.654 24.55ZM330.854 22.7L332.534 20.2151C331.798 19.7168 331.193 19.066 330.713 18.2192L328.104 19.7L325.494 21.1808C326.414 22.8007 327.643 24.1499 329.173 25.1848L330.854 22.7ZM328.104 19.7L330.729 18.2489C330.336 17.537 330.054 16.5024 330.054 15H327.054H324.054C324.054 17.2309 324.471 19.3296 325.478 21.1511L328.104 19.7ZM327.054 15H330.054C330.054 13.4252 330.478 12.0474 331.335 10.7856L328.854 9.1L326.372 7.41435C324.829 9.68592 324.054 12.2415 324.054 15H327.054ZM328.854 9.1L331.328 10.7957C332.189 9.53942 333.525 8.42875 335.522 7.54143L334.304 4.8L333.085 2.05856C330.282 3.30459 327.985 5.06058 326.379 7.4043L328.854 9.1ZM334.304 4.8L335.508 7.54761C337.452 6.69529 340.029 6.2 343.354 6.2V3.2V0.199999C339.478 0.199999 336.021 0.771372 333.099 2.05239L334.304 4.8ZM343.354 3.2V6.2C345.507 6.2 347.627 6.4273 349.716 6.88153L350.354 3.95L350.991 1.01847C348.48 0.472702 345.933 0.199999 343.354 0.199999V3.2ZM350.354 3.95L349.716 6.88153C351.758 7.32529 353.537 7.99357 355.08 8.86345L356.554 6.25L358.027 3.63654C355.903 2.43976 353.549 1.5747 350.991 1.01847L350.354 3.95ZM356.554 6.25L353.783 5.0996L350.233 13.6496L353.004 14.8L355.774 15.9504L359.324 7.40039L356.554 6.25ZM353.004 14.8L354.345 12.1167C352.455 11.1716 350.58 10.4431 348.723 9.95032L347.954 12.85L347.184 15.7497C348.594 16.1236 350.085 16.695 351.662 17.4833L353.004 14.8ZM347.954 12.85L348.738 9.95432C346.903 9.45732 345.072 9.2 343.254 9.2V12.2V15.2C344.501 15.2 345.804 15.376 347.169 15.7457L347.954 12.85ZM343.254 12.2V9.2C341.987 9.2 340.757 9.30676 339.691 9.62652L340.554 12.5L341.416 15.3735C341.683 15.2932 342.253 15.2 343.254 15.2V12.2ZM340.554 12.5L339.691 9.62652C338.765 9.9045 337.692 10.3843 336.874 11.2931L339.104 13.3L341.333 15.3069C341.273 15.3735 341.221 15.418 341.187 15.4441C341.153 15.47 341.135 15.4795 341.14 15.4767C341.145 15.4739 341.169 15.4614 341.216 15.4423C341.263 15.4233 341.328 15.3996 341.416 15.3735L340.554 12.5ZM339.104 13.3L336.761 11.4259C336.099 12.2528 335.704 13.2712 335.704 14.4H338.704H341.704C341.704 14.5407 341.679 14.6966 341.623 14.8502C341.568 15.0014 341.498 15.1096 341.446 15.1741L339.104 13.3ZM338.704 14.4H335.704C335.704 16.4754 337.038 17.8142 338.362 18.5075L339.754 15.85L341.146 13.1925C341.079 13.1575 341.225 13.2177 341.396 13.453C341.594 13.7261 341.704 14.0718 341.704 14.4H338.704ZM339.754 15.85L338.464 18.5586C339.46 19.0332 340.632 19.3777 341.899 19.6384L342.504 16.7L343.108 13.7616C342.108 13.5556 341.447 13.3335 341.043 13.1414L339.754 15.85ZM342.504 16.7L341.915 19.6417C343.087 19.8761 344.358 20.1271 345.729 20.3945L346.304 17.45L346.878 14.5055C345.515 14.2396 344.253 13.9905 343.092 13.7583L342.504 16.7ZM346.304 17.45L345.742 20.397C347.002 20.637 348.249 20.9673 349.484 21.389L350.454 18.55L351.423 15.711C349.925 15.1994 348.405 14.7964 346.865 14.503L346.304 17.45ZM350.454 18.55L349.484 21.389C350.613 21.7745 351.622 22.2753 352.523 22.8848L354.204 20.4L355.884 17.9151C354.519 16.9913 353.027 16.2588 351.423 15.7109L350.454 18.55ZM354.204 20.4L352.556 22.9071C353.319 23.4084 353.925 24.0541 354.394 24.8808L357.004 23.4L359.613 21.9192C358.682 20.2792 357.422 18.9249 355.851 17.8929L354.204 20.4ZM357.004 23.4L354.394 24.8808C354.774 25.5492 355.054 26.5375 355.054 28H358.054H361.054C361.054 25.7958 360.633 23.7175 359.613 21.9192L357.004 23.4ZM358.054 28H355.054C355.054 29.5135 354.628 30.8915 353.729 32.2043L356.204 33.9L358.678 35.5957C360.245 33.3085 361.054 30.7531 361.054 28H358.054ZM356.204 33.9L353.722 32.2144C352.895 33.432 351.573 34.5474 349.554 35.4728L350.804 38.2L352.053 40.9272C354.834 39.6526 357.112 37.9013 358.685 35.5856L356.204 33.9ZM350.804 38.2L349.585 35.4586C347.686 36.3026 345.118 36.8 341.754 36.8V39.8V42.8C345.656 42.8 349.121 42.2307 352.022 40.9414L350.804 38.2Z" fill="url(#paint0_linear_306_279)" mask="url(#path-1-outside-1_306_279)"/>
<defs>
<linearGradient id="paint0_linear_306_279" x1="180" y1="-9" x2="180" y2="52" gradientUnits="userSpaceOnUse">
<stop stop-color="#E51D25"/>
<stop offset="1" stop-color="#1D3A69"/>
</linearGradient>
</defs>
</svg>
