<svg width="30" height="30" viewBox="0 0 30 30" fill="none" xmlns="http://www.w3.org/2000/svg">
<rect width="30" height="30" rx="5" fill="#1D3A69"/>
<g clip-path="url(#clip0_855_1823)">
<path d="M24 9.70441C23.326 9.98888 22.611 10.1756 21.879 10.2584C22.6415 9.82297 23.227 9.13349 23.5027 8.31198C22.7778 8.72179 21.9847 9.01052 21.1577 9.16571C20.484 8.48199 19.5243 8.05469 18.4621 8.05469C16.4226 8.05469 14.7691 9.62992 14.7691 11.5728C14.7691 11.8486 14.8018 12.117 14.8647 12.3746C11.7956 12.2278 9.07448 10.8272 7.25304 8.69869C6.93523 9.21829 6.75312 9.82271 6.75312 10.4674C6.75312 11.688 7.40513 12.7648 8.39597 13.3957C7.80953 13.3782 7.23599 13.2273 6.72323 12.9556C6.72302 12.9704 6.72302 12.9851 6.72302 12.9999C6.72302 14.7045 7.99596 16.1265 9.68529 16.4497C9.14148 16.5906 8.57107 16.6112 8.01762 16.5099C8.48752 17.9077 9.85137 18.9248 11.4673 18.9532C10.2034 19.8968 8.61105 20.4593 6.88095 20.4593C6.58282 20.4593 6.28891 20.4426 6 20.4101C7.63427 21.4083 9.57539 21.9908 11.6609 21.9908C18.4535 21.9908 22.1679 16.6299 22.1679 11.9808C22.1679 11.8282 22.1644 11.6765 22.1573 11.5256C22.8802 11.0277 23.5042 10.411 24 9.70441Z" fill="white"/>
</g>
<defs>
<clipPath id="clip0_855_1823">
<rect width="18" height="14" fill="white" transform="translate(6 8)"/>
</clipPath>
</defs>
</svg>
