<svg width="465" height="43" viewBox="0 0 465 43" fill="none" xmlns="http://www.w3.org/2000/svg">
<mask id="path-1-outside-1_264_745" maskUnits="userSpaceOnUse" x="0" y="0" width="465" height="43" fill="black">
<rect fill="white" width="465" height="43"/>
<path d="M19.9195 39.8C16.9862 39.8 14.1529 39.4667 11.4195 38.8C8.6862 38.1333 6.4362 37.2667 4.66953 36.2L8.46953 27.6C10.1362 28.5667 11.9862 29.35 14.0195 29.95C16.0862 30.5167 18.0862 30.8 20.0195 30.8C21.1529 30.8 22.0362 30.7333 22.6695 30.6C23.3362 30.4333 23.8195 30.2167 24.1195 29.95C24.4195 29.65 24.5695 29.3 24.5695 28.9C24.5695 28.2667 24.2195 27.7667 23.5195 27.4C22.8195 27.0333 21.8862 26.7333 20.7195 26.5C19.5862 26.2333 18.3362 25.9667 16.9695 25.7C15.6029 25.4 14.2195 25.0167 12.8195 24.55C11.4529 24.0833 10.1862 23.4667 9.01953 22.7C7.8862 21.9333 6.96953 20.9333 6.26953 19.7C5.56953 18.4333 5.21953 16.8667 5.21953 15C5.21953 12.8333 5.81953 10.8667 7.01953 9.1C8.25286 7.3 10.0695 5.86667 12.4695 4.8C14.9029 3.73333 17.9195 3.2 21.5195 3.2C23.8862 3.2 26.2195 3.45 28.5195 3.95C30.8195 4.45 32.8862 5.21666 34.7195 6.25L31.1695 14.8C29.4362 13.9333 27.7529 13.2833 26.1195 12.85C24.5195 12.4167 22.9529 12.2 21.4195 12.2C20.2862 12.2 19.3862 12.3 18.7195 12.5C18.0529 12.7 17.5695 12.9667 17.2695 13.3C17.0029 13.6333 16.8695 14 16.8695 14.4C16.8695 15 17.2195 15.4833 17.9195 15.85C18.6195 16.1833 19.5362 16.4667 20.6695 16.7C21.8362 16.9333 23.1029 17.1833 24.4695 17.45C25.8695 17.7167 27.2529 18.0833 28.6195 18.55C29.9862 19.0167 31.2362 19.6333 32.3695 20.4C33.5362 21.1667 34.4695 22.1667 35.1695 23.4C35.8695 24.6333 36.2195 26.1667 36.2195 28C36.2195 30.1333 35.6029 32.1 34.3695 33.9C33.1695 35.6667 31.3695 37.1 28.9695 38.2C26.5695 39.2667 23.5529 39.8 19.9195 39.8ZM62.4309 4H74.2309V39H62.4309V4ZM51.5309 39H39.7309V4H51.5309V39ZM63.2309 26.1H50.7309V16.4H63.2309V26.1ZM79.9164 39V4H91.7164V39H79.9164ZM97.3969 39V4H109.197V29.85H124.997V39H97.3969ZM128.256 39V4H145.106C148.373 4 151.19 4.53333 153.556 5.6C155.956 6.66666 157.806 8.2 159.106 10.2C160.406 12.1667 161.056 14.5 161.056 17.2C161.056 19.9 160.406 22.2333 159.106 24.2C157.806 26.1667 155.956 27.7 153.556 28.8C151.19 29.8667 148.373 30.4 145.106 30.4H134.806L140.056 25.35V39H128.256ZM140.056 26.65L134.806 21.3H144.356C145.99 21.3 147.19 20.9333 147.956 20.2C148.756 19.4667 149.156 18.4667 149.156 17.2C149.156 15.9333 148.756 14.9333 147.956 14.2C147.19 13.4667 145.99 13.1 144.356 13.1H134.806L140.056 7.75V26.65ZM176.605 39L191.905 4H203.505L218.805 39H206.605L195.305 9.6H199.905L188.605 39H176.605ZM185.705 32.9L188.705 24.4H204.805L207.805 32.9H185.705ZM218.646 39L233.946 4H245.546L260.846 39H248.646L237.346 9.6H241.946L230.646 39H218.646ZM227.746 32.9L230.746 24.4H246.846L249.846 32.9H227.746ZM262.729 39V4H279.579C282.846 4 285.662 4.53333 288.029 5.6C290.429 6.66666 292.279 8.2 293.579 10.2C294.879 12.1667 295.529 14.5 295.529 17.2C295.529 19.9 294.879 22.2333 293.579 24.2C292.279 26.1333 290.429 27.6167 288.029 28.65C285.662 29.6833 282.846 30.2 279.579 30.2H269.279L274.529 25.35V39H262.729ZM283.679 39L275.079 26.25H287.579L296.279 39H283.679ZM274.529 26.65L269.279 21.3H278.829C280.462 21.3 281.662 20.9333 282.429 20.2C283.229 19.4667 283.629 18.4667 283.629 17.2C283.629 15.9333 283.229 14.9333 282.429 14.2C281.662 13.4667 280.462 13.1 278.829 13.1H269.279L274.529 7.75V26.65ZM296.185 39L311.485 4H323.085L338.385 39H326.185L314.885 9.6H319.485L308.185 39H296.185ZM305.285 32.9L308.285 24.4H324.385L327.385 32.9H305.285ZM340.268 39V4H349.968L363.968 26.85H358.868L372.468 4H382.168L382.268 39H371.518L371.418 20.2H373.118L363.818 35.85H358.618L348.918 20.2H351.018V39H340.268ZM387.973 39V4H406.673C411.506 4 415.073 4.86667 417.373 6.6C419.673 8.3 420.823 10.4833 420.823 13.15C420.823 14.9167 420.323 16.5 419.323 17.9C418.356 19.2667 416.94 20.35 415.073 21.15C413.206 21.95 410.906 22.35 408.173 22.35L409.173 19.65C411.906 19.65 414.256 20.0333 416.223 20.8C418.223 21.5667 419.756 22.6833 420.823 24.15C421.923 25.5833 422.473 27.3167 422.473 29.35C422.473 32.3833 421.206 34.75 418.673 36.45C416.173 38.15 412.506 39 407.673 39H387.973ZM399.573 30.75H406.673C407.973 30.75 408.94 30.5167 409.573 30.05C410.24 29.5833 410.573 28.9 410.573 28C410.573 27.1 410.24 26.4167 409.573 25.95C408.94 25.4833 407.973 25.25 406.673 25.25H398.773V17.45H405.073C406.406 17.45 407.373 17.2333 407.973 16.8C408.606 16.3333 408.923 15.6833 408.923 14.85C408.923 13.9833 408.606 13.3333 407.973 12.9C407.373 12.4667 406.406 12.25 405.073 12.25H399.573V30.75ZM449.345 4H461.145V39H449.345V4ZM438.445 39H426.645V4H438.445V39ZM450.145 26.1H437.645V16.4H450.145V26.1Z"/>
</mask>
<path d="M11.4195 38.8L12.1304 35.8854L11.4195 38.8ZM4.66953 36.2L1.92547 34.9875L0.85809 37.4032L3.11892 38.7682L4.66953 36.2ZM8.46953 27.6L9.97469 25.0049L7.0786 23.3252L5.72547 26.3875L8.46953 27.6ZM14.0195 29.95L13.1705 32.8273L13.1983 32.8355L13.2262 32.8432L14.0195 29.95ZM22.6695 30.6L23.2876 33.5356L23.3426 33.5241L23.3971 33.5104L22.6695 30.6ZM24.1195 29.95L26.1126 32.1922L26.1785 32.1337L26.2409 32.0713L24.1195 29.95ZM23.5195 27.4L22.1275 30.0575H22.1275L23.5195 27.4ZM20.7195 26.5L20.0324 29.4202L20.0816 29.4318L20.1312 29.4417L20.7195 26.5ZM16.9695 25.7L16.3263 28.6302L16.3606 28.6378L16.395 28.6445L16.9695 25.7ZM12.8195 24.55L11.8501 27.389L11.8605 27.3926L11.8708 27.396L12.8195 24.55ZM9.01953 22.7L7.3386 25.1848L7.35523 25.1961L7.372 25.2071L9.01953 22.7ZM6.26953 19.7L3.64381 21.1511L3.65206 21.166L3.66047 21.1808L6.26953 19.7ZM7.01953 9.1L4.54471 7.40429L4.53788 7.41435L7.01953 9.1ZM12.4695 4.8L11.2651 2.05239L11.2581 2.05546L11.2511 2.05856L12.4695 4.8ZM28.5195 3.95L27.8822 6.88153L28.5195 3.95ZM34.7195 6.25L37.4902 7.40039L38.5105 4.94302L36.1926 3.63654L34.7195 6.25ZM31.1695 14.8L29.8279 17.4833L32.7062 18.9224L33.9402 15.9504L31.1695 14.8ZM26.1195 12.85L25.3353 15.7457L25.3428 15.7477L25.3502 15.7497L26.1195 12.85ZM18.7195 12.5L17.8575 9.62652H17.8575L18.7195 12.5ZM17.2695 13.3L15.0396 11.2931L14.9814 11.3579L14.9269 11.4259L17.2695 13.3ZM17.9195 15.85L16.5275 18.5075L16.5781 18.534L16.6297 18.5586L17.9195 15.85ZM20.6695 16.7L20.0646 19.6384L20.0729 19.6401L20.0812 19.6417L20.6695 16.7ZM24.4695 17.45L23.895 20.3945L23.9082 20.397L24.4695 17.45ZM28.6195 18.55L27.6501 21.389L28.6195 18.55ZM32.3695 20.4L30.6886 22.8848L30.7052 22.8961L30.722 22.9071L32.3695 20.4ZM35.1695 23.4L32.5605 24.8808L32.5605 24.8808L35.1695 23.4ZM34.3695 33.9L31.8947 32.2043L31.8879 32.2144L34.3695 33.9ZM28.9695 38.2L30.1879 40.9414L30.2038 40.9344L30.2195 40.9272L28.9695 38.2ZM19.9195 39.8V36.8C17.2155 36.8 14.6213 36.493 12.1304 35.8854L11.4195 38.8L10.7087 41.7146C13.6844 42.4403 16.7569 42.8 19.9195 42.8V39.8ZM11.4195 38.8L12.1304 35.8854C9.59329 35.2666 7.65082 34.4956 6.22014 33.6318L4.66953 36.2L3.11892 38.7682C5.22157 40.0377 7.77911 41 10.7087 41.7146L11.4195 38.8ZM4.66953 36.2L7.41359 37.4125L11.2136 28.8125L8.46953 27.6L5.72547 26.3875L1.92547 34.9875L4.66953 36.2ZM8.46953 27.6L6.96438 30.1951C8.85721 31.2929 10.9306 32.1664 13.1705 32.8273L14.0195 29.95L14.8686 27.0727C13.0418 26.5336 11.4152 25.8404 9.97469 25.0049L8.46953 27.6ZM14.0195 29.95L13.2262 32.8432C15.5237 33.4732 17.791 33.8 20.0195 33.8V30.8V27.8C18.3814 27.8 16.6487 27.5602 14.8128 27.0568L14.0195 29.95ZM20.0195 30.8V33.8C21.2307 33.8 22.3544 33.7321 23.2876 33.5356L22.6695 30.6L22.0515 27.6643C21.718 27.7346 21.0751 27.8 20.0195 27.8V30.8ZM22.6695 30.6L23.3971 33.5104C24.2425 33.2991 25.2788 32.9334 26.1126 32.1922L24.1195 29.95L22.1264 27.7078C22.1987 27.6436 22.2558 27.6054 22.2848 27.5875C22.314 27.5695 22.3232 27.5667 22.3049 27.575C22.2868 27.583 22.2488 27.5988 22.1865 27.6196C22.1244 27.6403 22.0437 27.6641 21.9419 27.6896L22.6695 30.6ZM24.1195 29.95L26.2409 32.0713C27.0656 31.2466 27.5695 30.1477 27.5695 28.9H24.5695H21.5695C21.5695 28.7146 21.6065 28.4979 21.6996 28.2807C21.7912 28.0671 21.9091 27.9178 21.9982 27.8287L24.1195 29.95ZM24.5695 28.9H27.5695C27.5695 26.8568 26.3094 25.4747 24.9116 24.7425L23.5195 27.4L22.1275 30.0575C22.1737 30.0817 22.0185 30.0121 21.8493 29.7704C21.6575 29.4963 21.5695 29.1742 21.5695 28.9H24.5695ZM23.5195 27.4L24.9116 24.7425C23.8654 24.1945 22.6283 23.8223 21.3079 23.5583L20.7195 26.5L20.1312 29.4417C21.1441 29.6443 21.7737 29.8722 22.1275 30.0575L23.5195 27.4ZM20.7195 26.5L21.4067 23.5798C20.2296 23.3028 18.9414 23.0282 17.5441 22.7555L16.9695 25.7L16.395 28.6445C17.731 28.9052 18.9428 29.1639 20.0324 29.4202L20.7195 26.5ZM16.9695 25.7L17.6128 22.7698C16.3548 22.4936 15.0734 22.139 13.7682 21.7039L12.8195 24.55L11.8708 27.396C13.3657 27.8943 14.851 28.3064 16.3263 28.6302L16.9695 25.7ZM12.8195 24.55L13.789 21.711C12.6531 21.3231 11.6154 20.8161 10.6671 20.1929L9.01953 22.7L7.372 25.2071C8.757 26.1173 10.2526 26.8436 11.8501 27.389L12.8195 24.55ZM9.01953 22.7L10.7005 20.2151C9.96378 19.7168 9.35919 19.066 8.87859 18.2192L6.26953 19.7L3.66047 21.1808C4.57988 22.8007 5.80862 24.1499 7.3386 25.1848L9.01953 22.7ZM6.26953 19.7L8.89526 18.2489C8.50183 17.537 8.21953 16.5024 8.21953 15H5.21953H2.21953C2.21953 17.2309 2.63724 19.3296 3.64381 21.1511L6.26953 19.7ZM5.21953 15H8.21953C8.21953 13.4252 8.64413 12.0474 9.50118 10.7856L7.01953 9.1L4.53788 7.41435C2.99493 9.68592 2.21953 12.2415 2.21953 15H5.21953ZM7.01953 9.1L9.49433 10.7957C10.3551 9.53942 11.6915 8.42875 13.6879 7.54143L12.4695 4.8L11.2511 2.05856C8.44756 3.30459 6.15062 5.06058 4.54473 7.4043L7.01953 9.1ZM12.4695 4.8L13.674 7.54761C15.6183 6.69529 18.1954 6.2 21.5195 6.2V3.2V0.199999C17.6437 0.199999 14.1874 0.771372 11.2651 2.05239L12.4695 4.8ZM21.5195 3.2V6.2C23.6731 6.2 25.7928 6.4273 27.8822 6.88153L28.5195 3.95L29.1568 1.01847C26.6463 0.472702 24.0993 0.199999 21.5195 0.199999V3.2ZM28.5195 3.95L27.8822 6.88153C29.9236 7.32529 31.7031 7.99357 33.2465 8.86345L34.7195 6.25L36.1926 3.63654C34.0692 2.43976 31.7155 1.5747 29.1568 1.01847L28.5195 3.95ZM34.7195 6.25L31.9489 5.0996L28.3989 13.6496L31.1695 14.8L33.9402 15.9504L37.4902 7.40039L34.7195 6.25ZM31.1695 14.8L32.5112 12.1167C30.621 11.1716 28.7461 10.4431 26.8888 9.95032L26.1195 12.85L25.3502 15.7497C26.7596 16.1236 28.2514 16.695 29.8279 17.4833L31.1695 14.8ZM26.1195 12.85L26.9038 9.95432C25.0687 9.45732 23.2382 9.2 21.4195 9.2V12.2V15.2C22.6675 15.2 23.9704 15.376 25.3353 15.7457L26.1195 12.85ZM21.4195 12.2V9.2C20.1529 9.2 18.9234 9.30676 17.8575 9.62652L18.7195 12.5L19.5816 15.3735C19.849 15.2932 20.4195 15.2 21.4195 15.2V12.2ZM18.7195 12.5L17.8575 9.62652C16.9309 9.9045 15.8575 10.3843 15.0396 11.2931L17.2695 13.3L19.4994 15.3069C19.4395 15.3735 19.3873 15.418 19.3531 15.4441C19.3193 15.47 19.3012 15.4795 19.3063 15.4767C19.3113 15.4739 19.3349 15.4614 19.382 15.4423C19.4288 15.4233 19.4944 15.3996 19.5816 15.3735L18.7195 12.5ZM17.2695 13.3L14.9269 11.4259C14.2654 12.2528 13.8695 13.2712 13.8695 14.4H16.8695H19.8695C19.8695 14.5407 19.8448 14.6966 19.7889 14.8502C19.7339 15.0014 19.6638 15.1096 19.6121 15.1741L17.2695 13.3ZM16.8695 14.4H13.8695C13.8695 16.4754 15.204 17.8142 16.5275 18.5075L17.9195 15.85L19.3116 13.1925C19.2447 13.1575 19.3915 13.2177 19.5619 13.453C19.7597 13.7261 19.8695 14.0718 19.8695 14.4H16.8695ZM17.9195 15.85L16.6297 18.5586C17.6265 19.0332 18.7984 19.3777 20.0646 19.6384L20.6695 16.7L21.2745 13.7616C20.274 13.5556 19.6126 13.3335 19.2093 13.1414L17.9195 15.85ZM20.6695 16.7L20.0812 19.6417C21.2531 19.8761 22.5245 20.1271 23.895 20.3945L24.4695 17.45L25.0441 14.5055C23.6813 14.2396 22.4192 13.9905 21.2579 13.7583L20.6695 16.7ZM24.4695 17.45L23.9082 20.397C25.168 20.637 26.415 20.9673 27.6501 21.389L28.6195 18.55L29.589 15.711C28.0907 15.1994 26.5711 14.7964 25.0309 14.503L24.4695 17.45ZM28.6195 18.55L27.6501 21.389C28.7789 21.7745 29.7876 22.2753 30.6886 22.8848L32.3695 20.4L34.0505 17.9151C32.6848 16.9913 31.1935 16.2588 29.589 15.7109L28.6195 18.55ZM32.3695 20.4L30.722 22.9071C31.4849 23.4084 32.0913 24.0541 32.5605 24.8808L35.1695 23.4L37.7786 21.9192C36.8478 20.2792 35.5875 18.9249 34.0171 17.8929L32.3695 20.4ZM35.1695 23.4L32.5605 24.8808C32.9398 25.5492 33.2195 26.5375 33.2195 28H36.2195H39.2195C39.2195 25.7958 38.7992 23.7175 37.7786 21.9192L35.1695 23.4ZM36.2195 28H33.2195C33.2195 29.5135 32.7943 30.8915 31.8947 32.2043L34.3695 33.9L36.8443 35.5957C38.4115 33.3085 39.2195 30.7531 39.2195 28H36.2195ZM34.3695 33.9L31.8879 32.2144C31.0608 33.432 29.7387 34.5474 27.7196 35.4728L28.9695 38.2L30.2195 40.9272C33.0003 39.6526 35.2783 37.9013 36.8512 35.5856L34.3695 33.9ZM28.9695 38.2L27.7511 35.4586C25.8519 36.3026 23.2838 36.8 19.9195 36.8V39.8V42.8C23.8219 42.8 27.2871 42.2307 30.1879 40.9414L28.9695 38.2ZM62.4309 4V0.999998H59.4309V4H62.4309ZM74.2309 4H77.2309V0.999998H74.2309V4ZM74.2309 39V42H77.2309V39H74.2309ZM62.4309 39H59.4309V42H62.4309V39ZM51.5309 39V42H54.5309V39H51.5309ZM39.7309 39H36.7309V42H39.7309V39ZM39.7309 4V0.999998H36.7309V4H39.7309ZM51.5309 4H54.5309V0.999998H51.5309V4ZM63.2309 26.1V29.1H66.2309V26.1H63.2309ZM50.7309 26.1H47.7309V29.1H50.7309V26.1ZM50.7309 16.4V13.4H47.7309V16.4H50.7309ZM63.2309 16.4H66.2309V13.4H63.2309V16.4ZM62.4309 4V7H74.2309V4V0.999998H62.4309V4ZM74.2309 4H71.2309V39H74.2309H77.2309V4H74.2309ZM74.2309 39V36H62.4309V39V42H74.2309V39ZM62.4309 39H65.4309V4H62.4309H59.4309V39H62.4309ZM51.5309 39V36H39.7309V39V42H51.5309V39ZM39.7309 39H42.7309V4H39.7309H36.7309V39H39.7309ZM39.7309 4V7H51.5309V4V0.999998H39.7309V4ZM51.5309 4H48.5309V39H51.5309H54.5309V4H51.5309ZM63.2309 26.1V23.1H50.7309V26.1V29.1H63.2309V26.1ZM50.7309 26.1H53.7309V16.4H50.7309H47.7309V26.1H50.7309ZM50.7309 16.4V19.4H63.2309V16.4V13.4H50.7309V16.4ZM63.2309 16.4H60.2309V26.1H63.2309H66.2309V16.4H63.2309ZM79.9164 39H76.9164V42H79.9164V39ZM79.9164 4V0.999998H76.9164V4H79.9164ZM91.7164 4H94.7164V0.999998H91.7164V4ZM91.7164 39V42H94.7164V39H91.7164ZM79.9164 39H82.9164V4H79.9164H76.9164V39H79.9164ZM79.9164 4V7H91.7164V4V0.999998H79.9164V4ZM91.7164 4H88.7164V39H91.7164H94.7164V4H91.7164ZM91.7164 39V36H79.9164V39V42H91.7164V39ZM97.3969 39H94.3969V42H97.3969V39ZM97.3969 4V0.999998H94.3969V4H97.3969ZM109.197 4H112.197V0.999998H109.197V4ZM109.197 29.85H106.197V32.85H109.197V29.85ZM124.997 29.85H127.997V26.85H124.997V29.85ZM124.997 39V42H127.997V39H124.997ZM97.3969 39H100.397V4H97.3969H94.3969V39H97.3969ZM97.3969 4V7H109.197V4V0.999998H97.3969V4ZM109.197 4H106.197V29.85H109.197H112.197V4H109.197ZM109.197 29.85V32.85H124.997V29.85V26.85H109.197V29.85ZM124.997 29.85H121.997V39H124.997H127.997V29.85H124.997ZM124.997 39V36H97.3969V39V42H124.997V39ZM128.256 39H125.256V42H128.256V39ZM128.256 4V0.999998H125.256V4H128.256ZM153.556 5.6L152.324 8.33504L152.331 8.33825L152.338 8.34143L153.556 5.6ZM159.106 10.2L156.591 11.835L156.597 11.8447L156.604 11.8543L159.106 10.2ZM159.106 24.2L156.604 22.5457V22.5457L159.106 24.2ZM153.556 28.8L154.789 31.535L154.798 31.5311L154.806 31.5272L153.556 28.8ZM134.806 30.4L132.727 28.2379L127.36 33.4H134.806V30.4ZM140.056 25.35H143.056V18.3017L137.977 23.1879L140.056 25.35ZM140.056 39V42H143.056V39H140.056ZM140.056 26.65L137.915 28.7512L143.056 33.9904V26.65H140.056ZM134.806 21.3V18.3H127.659L132.665 23.4012L134.806 21.3ZM147.956 20.2L145.929 17.9885L145.906 18.0101L145.883 18.0321L147.956 20.2ZM147.956 14.2L145.883 16.3679L145.906 16.3899L145.929 16.4115L147.956 14.2ZM134.806 13.1L132.665 10.9988L127.659 16.1H134.806V13.1ZM140.056 7.75H143.056V0.40962L137.915 5.64879L140.056 7.75ZM128.256 39H131.256V4H128.256H125.256V39H128.256ZM128.256 4V7H145.106V4V0.999998H128.256V4ZM145.106 4V7C148.054 7 150.431 7.48198 152.324 8.33504L153.556 5.6L154.789 2.86495C151.948 1.58468 148.692 0.999998 145.106 0.999998V4ZM153.556 5.6L152.338 8.34143C154.263 9.19717 155.639 10.3701 156.591 11.835L159.106 10.2L161.622 8.56503C159.974 6.02991 157.649 4.13616 154.775 2.85856L153.556 5.6ZM159.106 10.2L156.604 11.8543C157.534 13.2617 158.056 15.0004 158.056 17.2H161.056H164.056C164.056 13.9996 163.279 11.0716 161.609 8.5457L159.106 10.2ZM161.056 17.2H158.056C158.056 19.3996 157.534 21.1383 156.604 22.5457L159.106 24.2L161.609 25.8543C163.279 23.3284 164.056 20.4004 164.056 17.2H161.056ZM159.106 24.2L156.604 22.5457C155.649 23.9902 154.26 25.1776 152.306 26.0728L153.556 28.8L154.806 31.5272C157.653 30.2224 159.964 28.3431 161.609 25.8543L159.106 24.2ZM153.556 28.8L152.324 26.065C150.431 26.918 148.054 27.4 145.106 27.4V30.4V33.4C148.692 33.4 151.948 32.8153 154.789 31.535L153.556 28.8ZM145.106 30.4V27.4H134.806V30.4V33.4H145.106V30.4ZM134.806 30.4L136.886 32.5621L142.136 27.5121L140.056 25.35L137.977 23.1879L132.727 28.2379L134.806 30.4ZM140.056 25.35H137.056V39H140.056H143.056V25.35H140.056ZM140.056 39V36H128.256V39V42H140.056V39ZM140.056 26.65L142.197 24.5488L136.947 19.1988L134.806 21.3L132.665 23.4012L137.915 28.7512L140.056 26.65ZM134.806 21.3V24.3H144.356V21.3V18.3H134.806V21.3ZM144.356 21.3V24.3C146.357 24.3 148.468 23.8615 150.03 22.3679L147.956 20.2L145.883 18.0321C145.911 18.0052 145.622 18.3 144.356 18.3V21.3ZM147.956 20.2L149.983 22.4115C151.508 21.0136 152.156 19.1537 152.156 17.2H149.156H146.156C146.156 17.7797 146.004 17.9197 145.929 17.9885L147.956 20.2ZM149.156 17.2H152.156C152.156 15.2463 151.508 13.3864 149.983 11.9885L147.956 14.2L145.929 16.4115C146.004 16.4803 146.156 16.6203 146.156 17.2H149.156ZM147.956 14.2L150.03 12.0321C148.468 10.5385 146.357 10.1 144.356 10.1V13.1V16.1C145.622 16.1 145.911 16.3948 145.883 16.3679L147.956 14.2ZM144.356 13.1V10.1H134.806V13.1V16.1H144.356V13.1ZM134.806 13.1L136.947 15.2012L142.197 9.85122L140.056 7.75L137.915 5.64879L132.665 10.9988L134.806 13.1ZM140.056 7.75H137.056V26.65H140.056H143.056V7.75H140.056ZM176.605 39L173.856 37.7984L172.019 42H176.605V39ZM191.905 4V0.999998H189.942L189.156 2.79837L191.905 4ZM203.505 4L206.254 2.79837L205.467 0.999998H203.505V4ZM218.805 39V42H223.39L221.554 37.7984L218.805 39ZM206.605 39L203.804 40.0763L204.544 42H206.605V39ZM195.305 9.6V6.6H190.938L192.504 10.6763L195.305 9.6ZM199.905 9.6L202.705 10.6763L204.272 6.6H199.905V9.6ZM188.605 39V42H190.666L191.405 40.0763L188.605 39ZM185.705 32.9L182.876 31.9015L181.464 35.9H185.705V32.9ZM188.705 24.4V21.4H186.582L185.876 23.4015L188.705 24.4ZM204.805 24.4L207.634 23.4015L206.927 21.4H204.805V24.4ZM207.805 32.9V35.9H212.045L210.634 31.9015L207.805 32.9ZM176.605 39L179.354 40.2016L194.654 5.20163L191.905 4L189.156 2.79837L173.856 37.7984L176.605 39ZM191.905 4V7H203.505V4V0.999998H191.905V4ZM203.505 4L200.756 5.20163L216.056 40.2016L218.805 39L221.554 37.7984L206.254 2.79837L203.505 4ZM218.805 39V36H206.605V39V42H218.805V39ZM206.605 39L209.405 37.9237L198.105 8.5237L195.305 9.6L192.504 10.6763L203.804 40.0763L206.605 39ZM195.305 9.6V12.6H199.905V9.6V6.6H195.305V9.6ZM199.905 9.6L197.104 8.5237L185.804 37.9237L188.605 39L191.405 40.0763L202.705 10.6763L199.905 9.6ZM188.605 39V36H176.605V39V42H188.605V39ZM185.705 32.9L188.534 33.8985L191.534 25.3985L188.705 24.4L185.876 23.4015L182.876 31.9015L185.705 32.9ZM188.705 24.4V27.4H204.805V24.4V21.4H188.705V24.4ZM204.805 24.4L201.976 25.3985L204.976 33.8985L207.805 32.9L210.634 31.9015L207.634 23.4015L204.805 24.4ZM207.805 32.9V29.9H185.705V32.9V35.9H207.805V32.9ZM218.646 39L215.897 37.7984L214.06 42H218.646V39ZM233.946 4V0.999998H231.983L231.197 2.79837L233.946 4ZM245.546 4L248.295 2.79837L247.508 0.999998H245.546V4ZM260.846 39V42H265.431L263.595 37.7984L260.846 39ZM248.646 39L245.845 40.0763L246.585 42H248.646V39ZM237.346 9.6V6.6H232.979L234.545 10.6763L237.346 9.6ZM241.946 9.6L244.746 10.6763L246.313 6.6H241.946V9.6ZM230.646 39V42H232.707L233.446 40.0763L230.646 39ZM227.746 32.9L224.917 31.9015L223.506 35.9H227.746V32.9ZM230.746 24.4V21.4H228.623L227.917 23.4015L230.746 24.4ZM246.846 24.4L249.675 23.4015L248.968 21.4H246.846V24.4ZM249.846 32.9V35.9H254.086L252.675 31.9015L249.846 32.9ZM218.646 39L221.395 40.2016L236.695 5.20163L233.946 4L231.197 2.79837L215.897 37.7984L218.646 39ZM233.946 4V7H245.546V4V0.999998H233.946V4ZM245.546 4L242.797 5.20163L258.097 40.2016L260.846 39L263.595 37.7984L248.295 2.79837L245.546 4ZM260.846 39V36H248.646V39V42H260.846V39ZM248.646 39L251.446 37.9237L240.146 8.5237L237.346 9.6L234.545 10.6763L245.845 40.0763L248.646 39ZM237.346 9.6V12.6H241.946V9.6V6.6H237.346V9.6ZM241.946 9.6L239.145 8.5237L227.845 37.9237L230.646 39L233.446 40.0763L244.746 10.6763L241.946 9.6ZM230.646 39V36H218.646V39V42H230.646V39ZM227.746 32.9L230.575 33.8985L233.575 25.3985L230.746 24.4L227.917 23.4015L224.917 31.9015L227.746 32.9ZM230.746 24.4V27.4H246.846V24.4V21.4H230.746V24.4ZM246.846 24.4L244.017 25.3985L247.017 33.8985L249.846 32.9L252.675 31.9015L249.675 23.4015L246.846 24.4ZM249.846 32.9V29.9H227.746V32.9V35.9H249.846V32.9ZM262.729 39H259.729V42H262.729V39ZM262.729 4V0.999998H259.729V4H262.729ZM288.029 5.6L286.796 8.33504L286.803 8.33825L286.81 8.34143L288.029 5.6ZM293.579 10.2L291.064 11.835L291.07 11.8447L291.076 11.8543L293.579 10.2ZM293.579 24.2L296.068 25.874L296.075 25.8642L296.082 25.8543L293.579 24.2ZM288.029 28.65L286.843 25.8945L286.836 25.8976L286.828 25.9006L288.029 28.65ZM269.279 30.2L267.243 27.9964L261.61 33.2H269.279V30.2ZM274.529 25.35H277.529V18.4944L272.493 23.1464L274.529 25.35ZM274.529 39V42H277.529V39H274.529ZM283.679 39L281.192 40.6776L282.084 42H283.679V39ZM275.079 26.25V23.25H269.437L272.592 27.9276L275.079 26.25ZM287.579 26.25L290.057 24.5591L289.164 23.25H287.579V26.25ZM296.279 39V42H301.958L298.757 37.3091L296.279 39ZM274.529 26.65L272.388 28.7512L277.529 33.9904V26.65H274.529ZM269.279 21.3V18.3H262.132L267.138 23.4012L269.279 21.3ZM282.429 20.2L280.402 17.9885L280.378 18.0101L280.355 18.0321L282.429 20.2ZM282.429 14.2L280.355 16.3679L280.378 16.3899L280.402 16.4115L282.429 14.2ZM269.279 13.1L267.138 10.9988L262.132 16.1H269.279V13.1ZM274.529 7.75H277.529V0.40962L272.388 5.64879L274.529 7.75ZM262.729 39H265.729V4H262.729H259.729V39H262.729ZM262.729 4V7H279.579V4V0.999998H262.729V4ZM279.579 4V7C282.527 7 284.903 7.48198 286.796 8.33504L288.029 5.6L289.262 2.86495C286.421 1.58468 283.164 0.999998 279.579 0.999998V4ZM288.029 5.6L286.81 8.34143C288.736 9.19717 290.111 10.3701 291.064 11.835L293.579 10.2L296.094 8.56503C294.446 6.02991 292.122 4.13616 289.247 2.85856L288.029 5.6ZM293.579 10.2L291.076 11.8543C292.007 13.2617 292.529 15.0004 292.529 17.2H295.529H298.529C298.529 13.9996 297.751 11.0716 296.082 8.5457L293.579 10.2ZM295.529 17.2H292.529C292.529 19.3996 292.007 21.1383 291.076 22.5457L293.579 24.2L296.082 25.8543C297.751 23.3284 298.529 20.4004 298.529 17.2H295.529ZM293.579 24.2L291.089 22.526C290.149 23.9245 288.78 25.0605 286.843 25.8945L288.029 28.65L289.215 31.4055C292.078 30.1728 294.409 28.3421 296.068 25.874L293.579 24.2ZM288.029 28.65L286.828 25.9006C284.927 26.7311 282.538 27.2 279.579 27.2V30.2V33.2C283.153 33.2 286.398 32.6356 289.229 31.3994L288.029 28.65ZM279.579 30.2V27.2H269.279V30.2V33.2H279.579V30.2ZM269.279 30.2L271.315 32.4036L276.565 27.5536L274.529 25.35L272.493 23.1464L267.243 27.9964L269.279 30.2ZM274.529 25.35H271.529V39H274.529H277.529V25.35H274.529ZM274.529 39V36H262.729V39V42H274.529V39ZM283.679 39L286.166 37.3224L277.566 24.5724L275.079 26.25L272.592 27.9276L281.192 40.6776L283.679 39ZM275.079 26.25V29.25H287.579V26.25V23.25H275.079V26.25ZM287.579 26.25L285.101 27.9409L293.801 40.6909L296.279 39L298.757 37.3091L290.057 24.5591L287.579 26.25ZM296.279 39V36H283.679V39V42H296.279V39ZM274.529 26.65L276.67 24.5488L271.42 19.1988L269.279 21.3L267.138 23.4012L272.388 28.7512L274.529 26.65ZM269.279 21.3V24.3H278.829V21.3V18.3H269.279V21.3ZM278.829 21.3V24.3C280.83 24.3 282.941 23.8615 284.503 22.3679L282.429 20.2L280.355 18.0321C280.383 18.0052 280.095 18.3 278.829 18.3V21.3ZM282.429 20.2L284.456 22.4115C285.981 21.0136 286.629 19.1537 286.629 17.2H283.629H280.629C280.629 17.7797 280.477 17.9197 280.402 17.9885L282.429 20.2ZM283.629 17.2H286.629C286.629 15.2463 285.981 13.3864 284.456 11.9885L282.429 14.2L280.402 16.4115C280.477 16.4803 280.629 16.6203 280.629 17.2H283.629ZM282.429 14.2L284.503 12.0321C282.941 10.5385 280.83 10.1 278.829 10.1V13.1V16.1C280.095 16.1 280.383 16.3948 280.355 16.3679L282.429 14.2ZM278.829 13.1V10.1H269.279V13.1V16.1H278.829V13.1ZM269.279 13.1L271.42 15.2012L276.67 9.85122L274.529 7.75L272.388 5.64879L267.138 10.9988L269.279 13.1ZM274.529 7.75H271.529V26.65H274.529H277.529V7.75H274.529ZM296.185 39L293.436 37.7984L291.599 42H296.185V39ZM311.485 4V0.999998H309.522L308.736 2.79837L311.485 4ZM323.085 4L325.834 2.79837L325.047 0.999998H323.085V4ZM338.385 39V42H342.97L341.134 37.7984L338.385 39ZM326.185 39L323.384 40.0763L324.124 42H326.185V39ZM314.885 9.6V6.6H310.518L312.084 10.6763L314.885 9.6ZM319.485 9.6L322.285 10.6763L323.852 6.6H319.485V9.6ZM308.185 39V42H310.246L310.985 40.0763L308.185 39ZM305.285 32.9L302.456 31.9015L301.045 35.9H305.285V32.9ZM308.285 24.4V21.4H306.162L305.456 23.4015L308.285 24.4ZM324.385 24.4L327.214 23.4015L326.507 21.4H324.385V24.4ZM327.385 32.9V35.9H331.625L330.214 31.9015L327.385 32.9ZM296.185 39L298.934 40.2016L314.234 5.20163L311.485 4L308.736 2.79837L293.436 37.7984L296.185 39ZM311.485 4V7H323.085V4V0.999998H311.485V4ZM323.085 4L320.336 5.20163L335.636 40.2016L338.385 39L341.134 37.7984L325.834 2.79837L323.085 4ZM338.385 39V36H326.185V39V42H338.385V39ZM326.185 39L328.985 37.9237L317.685 8.5237L314.885 9.6L312.084 10.6763L323.384 40.0763L326.185 39ZM314.885 9.6V12.6H319.485V9.6V6.6H314.885V9.6ZM319.485 9.6L316.684 8.5237L305.384 37.9237L308.185 39L310.985 40.0763L322.285 10.6763L319.485 9.6ZM308.185 39V36H296.185V39V42H308.185V39ZM305.285 32.9L308.114 33.8985L311.114 25.3985L308.285 24.4L305.456 23.4015L302.456 31.9015L305.285 32.9ZM308.285 24.4V27.4H324.385V24.4V21.4H308.285V24.4ZM324.385 24.4L321.556 25.3985L324.556 33.8985L327.385 32.9L330.214 31.9015L327.214 23.4015L324.385 24.4ZM327.385 32.9V29.9H305.285V32.9V35.9H327.385V32.9ZM340.268 39H337.268V42H340.268V39ZM340.268 4V0.999998H337.268V4H340.268ZM349.968 4L352.526 2.4327L351.648 0.999998H349.968V4ZM363.968 26.85V29.85H369.324L366.526 25.2827L363.968 26.85ZM358.868 26.85L356.29 25.3156L353.591 29.85H358.868V26.85ZM372.468 4V0.999998H370.762L369.89 2.46564L372.468 4ZM382.168 4L385.168 3.99143L385.159 0.999998H382.168V4ZM382.268 39V42H385.277L385.268 38.9914L382.268 39ZM371.518 39L368.518 39.016L368.534 42H371.518V39ZM371.418 20.2V17.2H368.402L368.418 20.216L371.418 20.2ZM373.118 20.2L375.697 21.7326L378.39 17.2H373.118V20.2ZM363.818 35.85V38.85H365.525L366.397 37.3826L363.818 35.85ZM358.618 35.85L356.068 37.4305L356.948 38.85H358.618V35.85ZM348.918 20.2V17.2H343.529L346.368 21.7805L348.918 20.2ZM351.018 20.2H354.018V17.2H351.018V20.2ZM351.018 39V42H354.018V39H351.018ZM340.268 39H343.268V4H340.268H337.268V39H340.268ZM340.268 4V7H349.968V4V0.999998H340.268V4ZM349.968 4L347.41 5.56729L361.41 28.4173L363.968 26.85L366.526 25.2827L352.526 2.4327L349.968 4ZM363.968 26.85V23.85H358.868V26.85V29.85H363.968V26.85ZM358.868 26.85L361.446 28.3843L375.046 5.53435L372.468 4L369.89 2.46564L356.29 25.3156L358.868 26.85ZM372.468 4V7H382.168V4V0.999998H372.468V4ZM382.168 4L379.168 4.00857L379.268 39.0086L382.268 39L385.268 38.9914L385.168 3.99143L382.168 4ZM382.268 39V36H371.518V39V42H382.268V39ZM371.518 39L374.518 38.984L374.418 20.184L371.418 20.2L368.418 20.216L368.518 39.016L371.518 39ZM371.418 20.2V23.2H373.118V20.2V17.2H371.418V20.2ZM373.118 20.2L370.539 18.6674L361.239 34.3174L363.818 35.85L366.397 37.3826L375.697 21.7326L373.118 20.2ZM363.818 35.85V32.85H358.618V35.85V38.85H363.818V35.85ZM358.618 35.85L361.168 34.2695L351.468 18.6195L348.918 20.2L346.368 21.7805L356.068 37.4305L358.618 35.85ZM348.918 20.2V23.2H351.018V20.2V17.2H348.918V20.2ZM351.018 20.2H348.018V39H351.018H354.018V20.2H351.018ZM351.018 39V36H340.268V39V42H351.018V39ZM387.973 39H384.973V42H387.973V39ZM387.973 4V0.999998H384.973V4H387.973ZM417.373 6.6L415.568 8.99583L415.579 9.00423L415.59 9.01253L417.373 6.6ZM419.323 17.9L416.882 16.1563L416.874 16.1676L419.323 17.9ZM415.073 21.15L413.891 18.3926V18.3926L415.073 21.15ZM408.173 22.35L405.36 21.3081L403.863 25.35H408.173V22.35ZM409.173 19.65V16.65H407.085L406.36 18.6081L409.173 19.65ZM416.223 20.8L415.133 23.5951L415.141 23.5982L415.149 23.6012L416.223 20.8ZM420.823 24.15L418.397 25.9145L418.42 25.9458L418.443 25.9765L420.823 24.15ZM418.673 36.45L417.001 33.9589L416.994 33.964L416.986 33.9692L418.673 36.45ZM399.573 30.75H396.573V33.75H399.573V30.75ZM409.573 30.05L407.853 27.5923L407.823 27.6132L407.793 27.6348L409.573 30.05ZM409.573 25.95L407.793 28.3652L407.823 28.3868L407.853 28.4077L409.573 25.95ZM398.773 25.25H395.773V28.25H398.773V25.25ZM398.773 17.45V14.45H395.773V17.45H398.773ZM407.973 16.8L409.73 19.232L409.741 19.2237L409.753 19.2152L407.973 16.8ZM407.973 12.9L406.217 15.332L406.247 15.3544L406.279 15.3759L407.973 12.9ZM399.573 12.25V9.25H396.573V12.25H399.573ZM387.973 39H390.973V4H387.973H384.973V39H387.973ZM387.973 4V7H406.673V4V0.999998H387.973V4ZM406.673 4V7C411.256 7 414.036 7.84185 415.568 8.99583L417.373 6.6L419.179 4.20417C416.11 1.89148 411.757 0.999998 406.673 0.999998V4ZM417.373 6.6L415.59 9.01253C417.189 10.1947 417.823 11.5127 417.823 13.15H420.823H423.823C423.823 9.454 422.157 6.40531 419.156 4.18747L417.373 6.6ZM420.823 13.15H417.823C417.823 14.3093 417.508 15.2795 416.882 16.1563L419.323 17.9L421.764 19.6437C423.138 17.7205 423.823 15.524 423.823 13.15H420.823ZM419.323 17.9L416.874 16.1676C416.289 16.9944 415.358 17.7641 413.891 18.3926L415.073 21.15L416.255 23.9074C418.522 22.9359 420.424 21.539 421.772 19.6324L419.323 17.9ZM415.073 21.15L413.891 18.3926C412.503 18.9874 410.633 19.35 408.173 19.35V22.35V25.35C411.18 25.35 413.91 24.9125 416.255 23.9074L415.073 21.15ZM408.173 22.35L410.986 23.3919L411.986 20.6919L409.173 19.65L406.36 18.6081L405.36 21.3081L408.173 22.35ZM409.173 19.65V22.65C411.638 22.65 413.6 22.9973 415.133 23.5951L416.223 20.8L417.313 18.0049C414.913 17.0694 412.175 16.65 409.173 16.65V19.65ZM416.223 20.8L415.149 23.6012C416.707 24.1985 417.729 24.9964 418.397 25.9145L420.823 24.15L423.249 22.3855C421.784 20.3703 419.739 18.9348 417.297 17.9988L416.223 20.8ZM420.823 24.15L418.443 25.9765C419.091 26.8207 419.473 27.8901 419.473 29.35H422.473H425.473C425.473 26.7433 424.755 24.346 423.203 22.3235L420.823 24.15ZM422.473 29.35H419.473C419.473 31.3765 418.71 32.8121 417.001 33.9589L418.673 36.45L420.345 38.9411C423.702 36.6879 425.473 33.3901 425.473 29.35H422.473ZM418.673 36.45L416.986 33.9692C415.2 35.1836 412.235 36 407.673 36V39V42C412.778 42 417.146 41.1164 420.36 38.9308L418.673 36.45ZM407.673 39V36H387.973V39V42H407.673V39ZM399.573 30.75V33.75H406.673V30.75V27.75H399.573V30.75ZM406.673 30.75V33.75C408.233 33.75 409.964 33.4883 411.353 32.4652L409.573 30.05L407.793 27.6348C407.871 27.5776 407.863 27.612 407.669 27.6588C407.474 27.7058 407.154 27.75 406.673 27.75V30.75ZM409.573 30.05L411.293 32.5077C412.856 31.4136 413.573 29.7579 413.573 28H410.573H407.573C407.573 28.0773 407.56 28.0089 407.627 27.8722C407.659 27.8068 407.7 27.7446 407.747 27.6908C407.793 27.6379 407.832 27.6064 407.853 27.5923L409.573 30.05ZM410.573 28H413.573C413.573 26.2421 412.856 24.5864 411.293 23.4923L409.573 25.95L407.853 28.4077C407.832 28.3936 407.793 28.3621 407.747 28.3092C407.7 28.2554 407.659 28.1932 407.627 28.1278C407.56 27.9911 407.573 27.9227 407.573 28H410.573ZM409.573 25.95L411.353 23.5348C409.964 22.5117 408.233 22.25 406.673 22.25V25.25V28.25C407.154 28.25 407.474 28.2942 407.669 28.3412C407.863 28.388 407.871 28.4224 407.793 28.3652L409.573 25.95ZM406.673 25.25V22.25H398.773V25.25V28.25H406.673V25.25ZM398.773 25.25H401.773V17.45H398.773H395.773V25.25H398.773ZM398.773 17.45V20.45H405.073V17.45V14.45H398.773V17.45ZM405.073 17.45V20.45C406.594 20.45 408.349 20.229 409.73 19.232L407.973 16.8L406.217 14.368C406.337 14.2808 406.356 14.3122 406.142 14.3601C405.933 14.4069 405.59 14.45 405.073 14.45V17.45ZM407.973 16.8L409.753 19.2152C411.205 18.1449 411.923 16.5704 411.923 14.85H408.923H405.923C405.923 14.8808 405.919 14.7911 405.989 14.6486C406.061 14.5002 406.155 14.4132 406.193 14.3848L407.973 16.8ZM408.923 14.85H411.923C411.923 13.1423 411.234 11.4959 409.667 10.4241L407.973 12.9L406.279 15.3759C406.194 15.3174 406.072 15.198 405.989 15.0264C405.912 14.8687 405.923 14.7826 405.923 14.85H408.923ZM407.973 12.9L409.73 10.468C408.349 9.47103 406.594 9.25 405.073 9.25V12.25V15.25C405.59 15.25 405.933 15.2931 406.142 15.3399C406.356 15.3878 406.337 15.4192 406.217 15.332L407.973 12.9ZM405.073 12.25V9.25H399.573V12.25V15.25H405.073V12.25ZM399.573 12.25H396.573V30.75H399.573H402.573V12.25H399.573ZM449.345 4V0.999998H446.345V4H449.345ZM461.145 4H464.145V0.999998H461.145V4ZM461.145 39V42H464.145V39H461.145ZM449.345 39H446.345V42H449.345V39ZM438.445 39V42H441.445V39H438.445ZM426.645 39H423.645V42H426.645V39ZM426.645 4V0.999998H423.645V4H426.645ZM438.445 4H441.445V0.999998H438.445V4ZM450.145 26.1V29.1H453.145V26.1H450.145ZM437.645 26.1H434.645V29.1H437.645V26.1ZM437.645 16.4V13.4H434.645V16.4H437.645ZM450.145 16.4H453.145V13.4H450.145V16.4ZM449.345 4V7H461.145V4V0.999998H449.345V4ZM461.145 4H458.145V39H461.145H464.145V4H461.145ZM461.145 39V36H449.345V39V42H461.145V39ZM449.345 39H452.345V4H449.345H446.345V39H449.345ZM438.445 39V36H426.645V39V42H438.445V39ZM426.645 39H429.645V4H426.645H423.645V39H426.645ZM426.645 4V7H438.445V4V0.999998H426.645V4ZM438.445 4H435.445V39H438.445H441.445V4H438.445ZM450.145 26.1V23.1H437.645V26.1V29.1H450.145V26.1ZM437.645 26.1H440.645V16.4H437.645H434.645V26.1H437.645ZM437.645 16.4V19.4H450.145V16.4V13.4H437.645V16.4ZM450.145 16.4H447.145V26.1H450.145H453.145V16.4H450.145Z" fill="url(#paint0_linear_264_745)" mask="url(#path-1-outside-1_264_745)"/>
<defs>
<linearGradient id="paint0_linear_264_745" x1="234" y1="-9" x2="234" y2="52" gradientUnits="userSpaceOnUse">
<stop stop-color="#E51D25"/>
<stop offset="1" stop-color="#1D3A69"/>
</linearGradient>
</defs>
</svg>
