<svg width="58" height="58" viewBox="0 0 58 58" fill="none" xmlns="http://www.w3.org/2000/svg">
<path d="M55.2812 21.75H2.71875V47.125H55.2812V21.75Z" fill="#1D3A69"/>
<path d="M55.2812 21.75H2.71875V10.875H49.8437V16.3125H55.2812V21.75Z" fill="#1D3A69"/>
<path d="M49.8437 42.5938H8.15625V44.4062H49.8437V42.5938Z" fill="#1D3A69"/>
<path d="M7.25 13.5938H5.4375V15.4062H7.25V13.5938Z" fill="#1D3A69"/>
<path d="M7.25 17.2188H5.4375V19.0312H7.25V17.2188Z" fill="#1D3A69"/>
<path d="M16.3125 39.875H9.0625C8.82215 39.875 8.59164 39.7795 8.42168 39.6096C8.25173 39.4396 8.15625 39.2091 8.15625 38.9688V26.2812C8.15625 26.0409 8.25173 25.8104 8.42168 25.6404C8.59164 25.4705 8.82215 25.375 9.0625 25.375H16.3125C16.5529 25.375 16.7834 25.4705 16.9533 25.6404C17.1233 25.8104 17.2187 26.0409 17.2187 26.2812V38.9688C17.2187 39.2091 17.1233 39.4396 16.9533 39.6096C16.7834 39.7795 16.5529 39.875 16.3125 39.875ZM9.96875 38.0625H15.4062V27.1875H9.96875V38.0625ZM27.1875 39.875H19.9375C19.6971 39.875 19.4666 39.7795 19.2967 39.6096C19.1267 39.4396 19.0312 39.2091 19.0312 38.9688V26.2812C19.0312 26.0409 19.1267 25.8104 19.2967 25.6404C19.4666 25.4705 19.6971 25.375 19.9375 25.375H27.1875C27.4279 25.375 27.6584 25.4705 27.8283 25.6404C27.9983 25.8104 28.0937 26.0409 28.0937 26.2812V38.9688C28.0937 39.2091 27.9983 39.4396 27.8283 39.6096C27.6584 39.7795 27.4279 39.875 27.1875 39.875ZM20.8437 38.0625H26.2812V27.1875H20.8437V38.0625ZM38.0625 39.875H30.8125C30.5721 39.875 30.3416 39.7795 30.1717 39.6096C30.0017 39.4396 29.9062 39.2091 29.9062 38.9688V26.2812C29.9062 26.0409 30.0017 25.8104 30.1717 25.6404C30.3416 25.4705 30.5721 25.375 30.8125 25.375H38.0625C38.3029 25.375 38.5334 25.4705 38.7033 25.6404C38.8733 25.8104 38.9687 26.0409 38.9687 26.2812V38.9688C38.9687 39.2091 38.8733 39.4396 38.7033 39.6096C38.5334 39.7795 38.3029 39.875 38.0625 39.875ZM31.7187 38.0625H37.1562V27.1875H31.7187V38.0625ZM46.2187 38.0625V26.2812C46.2187 26.0409 46.1233 25.8104 45.9533 25.6404C45.7834 25.4705 45.5528 25.375 45.3125 25.375H40.7812V27.1875H44.4062V38.0625H40.7812V39.875H49.8437V38.0625H46.2187Z" fill="#1D3A69"/>
<path d="M46.2187 14.5H9.96875V18.125H46.2187V14.5Z" fill="#1D3A69"/>
<path d="M49.8438 10.875L55.2812 16.3125H49.8438V10.875Z" fill="#1D3A69"/>
<path d="M55.922 15.6718L50.4845 10.2343C50.3146 10.0643 50.0841 9.9688 49.8438 9.96875H2.71875C2.4784 9.96875 2.24789 10.0642 2.07793 10.2342C1.90798 10.4041 1.8125 10.6346 1.8125 10.875V47.125C1.8125 47.3654 1.90798 47.5959 2.07793 47.7658C2.24789 47.9358 2.4784 48.0312 2.71875 48.0312H55.2812C55.5216 48.0312 55.7521 47.9358 55.9221 47.7658C56.092 47.5959 56.1875 47.3654 56.1875 47.125V16.3125C56.1875 16.0722 56.0919 15.8417 55.922 15.6718ZM50.75 13.0627L53.0936 15.4062H50.75V13.0627ZM3.625 11.7812H48.9375V16.3125C48.9375 16.5529 49.033 16.7834 49.2029 16.9533C49.3729 17.1233 49.6034 17.2188 49.8438 17.2188H54.375V20.8438H3.625V11.7812ZM54.375 46.2188H3.625V22.6562H54.375V46.2188Z" fill="white"/>
<path d="M49.8437 42.5938H8.15625V44.4062H49.8437V42.5938Z" fill="white"/>
<path d="M7.25 13.5938H5.4375V15.4062H7.25V13.5938Z" fill="white"/>
<path d="M7.25 17.2188H5.4375V19.0312H7.25V17.2188Z" fill="white"/>
<path d="M9.0625 39.875H16.3125C16.5529 39.875 16.7834 39.7795 16.9533 39.6096C17.1233 39.4396 17.2187 39.2091 17.2187 38.9687V26.2812C17.2187 26.0409 17.1233 25.8104 16.9533 25.6404C16.7834 25.4705 16.5529 25.375 16.3125 25.375H9.0625C8.82215 25.375 8.59164 25.4705 8.42168 25.6404C8.25173 25.8104 8.15625 26.0409 8.15625 26.2812V38.9687C8.15625 39.2091 8.25173 39.4396 8.42168 39.6096C8.59164 39.7795 8.82215 39.875 9.0625 39.875ZM9.96875 27.1875H15.4062V38.0625H9.96875V27.1875ZM19.9375 39.875H27.1875C27.4279 39.875 27.6584 39.7795 27.8283 39.6096C27.9983 39.4396 28.0937 39.2091 28.0937 38.9687V26.2812C28.0937 26.0409 27.9983 25.8104 27.8283 25.6404C27.6584 25.4705 27.4279 25.375 27.1875 25.375H19.9375C19.6971 25.375 19.4666 25.4705 19.2967 25.6404C19.1267 25.8104 19.0312 26.0409 19.0312 26.2812V38.9687C19.0312 39.2091 19.1267 39.4396 19.2967 39.6096C19.4666 39.7795 19.6971 39.875 19.9375 39.875ZM20.8437 27.1875H26.2812V38.0625H20.8437V27.1875ZM30.8125 39.875H38.0625C38.3029 39.875 38.5334 39.7795 38.7033 39.6096C38.8733 39.4396 38.9687 39.2091 38.9687 38.9687V26.2812C38.9687 26.0409 38.8733 25.8104 38.7033 25.6404C38.5334 25.4705 38.3029 25.375 38.0625 25.375H30.8125C30.5721 25.375 30.3416 25.4705 30.1717 25.6404C30.0017 25.8104 29.9062 26.0409 29.9062 26.2812V38.9687C29.9062 39.2091 30.0017 39.4396 30.1717 39.6096C30.3416 39.7795 30.5721 39.875 30.8125 39.875ZM31.7187 27.1875H37.1562V38.0625H31.7187V27.1875ZM49.8437 38.0625H46.2187V26.2812C46.2187 26.0409 46.1233 25.8104 45.9533 25.6404C45.7834 25.4705 45.5528 25.375 45.3125 25.375H40.7812V27.1875H44.4062V38.0625H40.7812V39.875H49.8437V38.0625ZM9.0625 19.0312H47.125V13.5938H9.0625V19.0312ZM10.875 15.4062H45.3125V17.2187H10.875V15.4062Z" fill="white"/>
</svg>
