<svg width="59" height="58" viewBox="0 0 59 58" fill="none" xmlns="http://www.w3.org/2000/svg">
<path d="M30.4375 7C18.0084 7 7.9375 17.0709 7.9375 29.5C7.9375 41.9291 18.0084 52 30.4375 52C42.8666 52 52.9375 41.9291 52.9375 29.5C52.9375 17.0709 42.8666 7 30.4375 7ZM29.9507 18.25C31.1514 18.25 32.1142 19.2236 32.1142 20.4135C32.1142 21.6034 31.1406 22.5769 29.9507 22.5769C28.7608 22.5769 27.7873 21.6034 27.7873 20.4135C27.7873 19.2236 28.75 18.25 29.9507 18.25ZM33.899 39.8846H26.976V39.0192H28.7067V26.0385H26.976V25.1731H32.1683V39.0192H33.899V39.8846Z" fill="#1D3A69"/>
</svg>
