<svg width="59" height="58" viewBox="0 0 59 58" fill="none" xmlns="http://www.w3.org/2000/svg">
<path d="M45.5176 53.2219H42.5147C42.3154 53.2219 42.1244 53.1428 41.9835 53.0019C41.8426 52.861 41.7634 52.6699 41.7634 52.4707C41.7634 52.2714 41.8426 52.0803 41.9835 51.9394C42.1244 51.7986 42.3154 51.7194 42.5147 51.7194H45.5176C45.7168 51.7194 45.9079 51.7986 46.0488 51.9394C46.1897 52.0803 46.2688 52.2714 46.2688 52.4707C46.2688 52.6699 46.1897 52.861 46.0488 53.0019C45.9079 53.1428 45.7168 53.2219 45.5176 53.2219ZM39.5107 53.2219H36.5068C36.3075 53.2219 36.1164 53.1428 35.9755 53.0019C35.8347 52.861 35.7555 52.6699 35.7555 52.4707C35.7555 52.2714 35.8347 52.0803 35.9755 51.9394C36.1164 51.7986 36.3075 51.7194 36.5068 51.7194H39.5107C39.71 51.7194 39.9011 51.7986 40.042 51.9394C40.1828 52.0803 40.262 52.2714 40.262 52.4707C40.262 52.6699 40.1828 52.861 40.042 53.0019C39.9011 53.1428 39.71 53.2219 39.5107 53.2219ZM33.5028 53.2219H30.4999C30.3007 53.2219 30.1096 53.1428 29.9687 53.0019C29.8278 52.861 29.7487 52.6699 29.7487 52.4707C29.7487 52.2714 29.8278 52.0803 29.9687 51.9394C30.1096 51.7986 30.3007 51.7194 30.4999 51.7194H33.5039C33.7031 51.7194 33.8942 51.7986 34.0351 51.9394C34.176 52.0803 34.2552 52.2714 34.2552 52.4707C34.2552 52.6699 34.176 52.861 34.0351 53.0019C33.8942 53.1428 33.7021 53.2219 33.5028 53.2219ZM27.4971 53.2219H25.6082C25.1749 53.2221 24.7432 53.1699 24.3224 53.0665C24.1365 53.0117 23.9789 52.8871 23.8826 52.7189C23.7863 52.5506 23.7588 52.3517 23.8056 52.1636C23.8525 51.9755 23.9703 51.8128 24.1342 51.7095C24.2982 51.6061 24.4958 51.5701 24.6857 51.6089C24.979 51.6822 25.2898 51.7183 25.6093 51.7194H27.4971C27.6963 51.7194 27.8874 51.7986 28.0283 51.9394C28.1692 52.0803 28.2483 52.2714 28.2483 52.4707C28.2483 52.6699 28.1692 52.861 28.0283 53.0019C27.8874 53.1428 27.6963 53.2219 27.4971 53.2219ZM22.067 51.4425C21.9489 51.4429 21.8324 51.4153 21.7271 51.3621C21.6217 51.3088 21.5304 51.2314 21.4607 51.1361C20.8041 50.2388 20.443 49.1379 20.443 48.0359L20.4473 47.8444C20.4494 47.7453 20.4714 47.6476 20.5121 47.5573C20.5528 47.4669 20.6114 47.3857 20.6842 47.3186C20.7571 47.2514 20.8428 47.1997 20.9362 47.1665C21.0296 47.1333 21.1287 47.1193 21.2276 47.1254C21.3261 47.1293 21.4229 47.1526 21.5124 47.194C21.6019 47.2353 21.6824 47.2939 21.7493 47.3664C21.8161 47.4388 21.8681 47.5237 21.9021 47.6163C21.9362 47.7088 21.9516 47.8071 21.9477 47.9056L21.9455 48.037C21.9455 48.8216 22.2027 49.6073 22.6721 50.2475C22.7543 50.3594 22.8038 50.4918 22.8152 50.6301C22.8266 50.7684 22.7994 50.9072 22.7367 51.031C22.674 51.1548 22.5783 51.2588 22.46 51.3314C22.3418 51.4041 22.2057 51.4425 22.067 51.4425ZM22.3066 45.9008C22.162 45.901 22.0205 45.8594 21.899 45.781C21.7775 45.7027 21.6812 45.5909 21.6217 45.4591C21.5622 45.3274 21.542 45.1813 21.5635 45.0383C21.585 44.8953 21.6474 44.7616 21.743 44.6533L23.8661 42.4722C24.008 42.3427 24.1941 42.2724 24.3862 42.2758C24.5783 42.2792 24.7618 42.356 24.899 42.4904C25.0363 42.6249 25.1169 42.8068 25.1242 42.9988C25.1315 43.1907 25.0651 43.3783 24.9385 43.5228L22.8702 45.6458C22.7998 45.726 22.7131 45.7902 22.6159 45.8342C22.5187 45.8781 22.4133 45.9008 22.3066 45.9008ZM26.5012 41.6C26.3532 41.6005 26.2083 41.5572 26.0849 41.4755C25.9615 41.3938 25.865 41.2773 25.8076 41.1408C25.7503 41.0044 25.7346 40.854 25.7626 40.7086C25.7906 40.5633 25.861 40.4294 25.965 40.324L28.0639 38.1759C28.2058 38.0463 28.3919 37.976 28.584 37.9794C28.7761 37.9828 28.9597 38.0596 29.0969 38.194C29.2342 38.3285 29.3147 38.5104 29.3221 38.7024C29.3294 38.8944 29.263 39.0819 29.1364 39.2264L27.0374 41.3746C26.9677 41.4461 26.8843 41.5029 26.7922 41.5416C26.7001 41.5804 26.6011 41.6002 26.5012 41.6ZM30.6991 37.3037C30.5514 37.3034 30.4071 37.2596 30.2842 37.1777C30.1613 37.0959 30.0651 36.9797 30.0078 36.8436C29.9505 36.7075 29.9346 36.5576 29.9619 36.4125C29.9893 36.2674 30.0588 36.1335 30.1618 36.0277L32.2596 33.8795C32.4005 33.7444 32.5884 33.6693 32.7836 33.6703C32.9788 33.6712 33.166 33.748 33.3056 33.8845C33.4452 34.0209 33.5262 34.2063 33.5316 34.4014C33.5369 34.5966 33.4662 34.7861 33.3343 34.93L31.2364 37.0782C31.1664 37.1497 31.0828 37.2065 30.9905 37.2452C30.8983 37.2839 30.7992 37.3038 30.6991 37.3037ZM34.897 33.0062C34.7492 33.0065 34.6046 32.9631 34.4814 32.8814C34.3582 32.7997 34.2619 32.6835 34.2046 32.5472C34.1473 32.411 34.1315 32.2608 34.1593 32.1156C34.1871 31.9705 34.2572 31.8367 34.3608 31.7313L36.4214 29.6105C36.4853 29.5339 36.5638 29.4709 36.6524 29.425C36.7409 29.3791 36.8378 29.3514 36.9371 29.3433C37.0365 29.3353 37.1366 29.3471 37.2313 29.3782C37.3261 29.4092 37.4137 29.4588 37.4891 29.5241C37.5645 29.5894 37.6261 29.669 37.6704 29.7584C37.7147 29.8477 37.7407 29.945 37.7469 30.0446C37.7532 30.1441 37.7395 30.2439 37.7068 30.3381C37.6741 30.4323 37.6229 30.519 37.5562 30.5932C37.4853 30.6755 37.4119 30.7558 37.3363 30.8339L35.4332 32.7808C35.3634 32.8523 35.28 32.9091 35.1879 32.9478C35.0958 32.9865 34.9969 33.0064 34.897 33.0062ZM38.0585 27.3594L37.3067 27.343C37.318 26.5024 37.0519 25.6816 36.5494 25.0077C36.4866 24.9294 36.44 24.8392 36.4126 24.7426C36.3852 24.646 36.3774 24.5448 36.3898 24.4452C36.4021 24.3455 36.4344 24.2493 36.4846 24.1623C36.5348 24.0753 36.602 23.9993 36.6821 23.9387C36.7622 23.8782 36.8537 23.8343 36.951 23.8097C37.0484 23.7851 37.1497 23.7803 37.249 23.7956C37.3483 23.8109 37.4435 23.846 37.529 23.8987C37.6144 23.9514 37.6885 24.0208 37.7467 24.1027C38.4339 25.011 38.8104 26.1348 38.8093 27.2653L38.0585 27.3594ZM34.6858 23.6977C34.6283 23.698 34.571 23.6914 34.5151 23.678C34.2301 23.6125 33.9386 23.5794 33.6462 23.5796H31.6906C31.4915 23.5796 31.3005 23.5005 31.1597 23.3597C31.019 23.2189 30.9399 23.0279 30.9399 22.8288C30.9399 22.6297 31.019 22.4388 31.1597 22.298C31.3005 22.1572 31.4915 22.0781 31.6906 22.0781H33.6462C34.0576 22.0781 34.4636 22.1252 34.8554 22.216C35.0347 22.2579 35.1923 22.3642 35.2983 22.5147C35.4044 22.6653 35.4514 22.8495 35.4304 23.0324C35.4095 23.2153 35.3221 23.3842 35.1848 23.5068C35.0475 23.6295 34.8699 23.6975 34.6858 23.6977ZM28.6877 23.5807H25.6838C25.4845 23.5807 25.2934 23.5015 25.1525 23.3606C25.0116 23.2197 24.9325 23.0286 24.9325 22.8294C24.9325 22.6301 25.0116 22.4391 25.1525 22.2982C25.2934 22.1573 25.4845 22.0781 25.6838 22.0781H28.6877C28.887 22.0781 29.078 22.1573 29.2189 22.2982C29.3598 22.4391 29.439 22.6301 29.439 22.8294C29.439 23.0286 29.3598 23.2197 29.2189 23.3606C29.078 23.5015 28.887 23.5807 28.6877 23.5807ZM22.6798 23.5807H19.6769C19.4777 23.5807 19.2866 23.5015 19.1457 23.3606C19.0048 23.2197 18.9257 23.0286 18.9257 22.8294C18.9257 22.6301 19.0048 22.4391 19.1457 22.2982C19.2866 22.1573 19.4777 22.0781 19.6769 22.0781H22.6809C22.8801 22.0781 23.0712 22.1573 23.2121 22.2982C23.353 22.4391 23.4321 22.6301 23.4321 22.8294C23.4321 23.0286 23.353 23.2197 23.2121 23.3606C23.0712 23.5015 22.8801 23.5807 22.6809 23.5807H22.6798ZM16.673 23.5807H13.6712C13.4719 23.5807 13.2809 23.5015 13.14 23.3606C12.9991 23.2197 12.9199 23.0286 12.9199 22.8294C12.9199 22.6301 12.9991 22.4391 13.14 22.2982C13.2809 22.1573 13.4719 22.0781 13.6712 22.0781H16.6741C16.8733 22.0781 17.0644 22.1573 17.2053 22.2982C17.3462 22.4391 17.4253 22.6301 17.4253 22.8294C17.4253 23.0286 17.3462 23.2197 17.2053 23.3606C17.0644 23.5015 16.8733 23.5807 16.6741 23.5807H16.673Z" fill="#1D3A69"/>
<path d="M13.544 2.73633C8.77375 2.73633 4.90088 6.59497 4.90088 11.3652C4.90088 15.0312 10.0093 21.6804 12.3708 24.5586C12.5126 24.7326 12.6913 24.873 12.894 24.9694C13.0967 25.0657 13.3184 25.1157 13.5429 25.1157C13.7674 25.1157 13.989 25.0657 14.1917 24.9694C14.3945 24.873 14.5732 24.7326 14.7149 24.5586C17.0732 21.6793 22.1728 15.0312 22.1728 11.3652C22.1736 10.2318 21.9509 9.10945 21.5175 8.06222C21.0841 7.01499 20.4485 6.06347 19.6471 5.26206C18.8457 4.46065 17.8942 3.82508 16.8469 3.3917C15.7997 2.95831 14.6773 2.73561 13.544 2.73633Z" fill="#1D3A69"/>
<path d="M13.5444 16.1779C12.9123 16.178 12.2864 16.0536 11.7024 15.8118C11.1184 15.57 10.5877 15.2155 10.1408 14.7685C9.69384 14.3216 9.33933 13.7909 9.09751 13.207C8.85569 12.623 8.7313 11.997 8.73145 11.365C8.73296 10.4152 9.01588 9.48724 9.54447 8.6982C10.0731 7.90916 10.8236 7.29444 11.7013 6.9317C12.5791 6.56895 13.5446 6.47444 14.476 6.66009C15.4074 6.84575 16.2629 7.30324 16.9345 7.97481C17.6061 8.64637 18.0636 9.50188 18.2492 10.4333C18.4349 11.3647 18.3404 12.3302 17.9776 13.208C17.6149 14.0857 17.0002 14.8363 16.2111 15.3648C15.4221 15.8934 14.4941 16.1764 13.5444 16.1779Z" fill="white"/>
<path d="M13.544 2.73633C13.4423 2.73633 13.3274 2.73633 13.2267 2.75056C15.455 2.83491 17.564 3.77942 19.1108 5.38575C20.6575 6.99207 21.5217 9.13524 21.5218 11.3652C21.5218 15.0367 16.42 21.6848 14.0638 24.5618C13.8329 24.8354 13.544 25.0105 13.2256 25.0817C13.4975 25.1407 13.7804 25.1235 14.0431 25.0317C14.3057 24.94 14.5379 24.7773 14.7139 24.5618C17.07 21.6848 22.1729 15.0367 22.1729 11.3652C22.1736 10.2318 21.9509 9.10945 21.5175 8.06222C21.0842 7.01499 20.4486 6.06347 19.6472 5.26206C18.8458 4.46065 17.8942 3.82508 16.847 3.3917C15.7998 2.95831 14.6774 2.73561 13.544 2.73633Z" fill="#1D3A69"/>
<path d="M8.25394 11.3652C8.25394 7.18815 11.2305 3.70486 15.1767 2.90928C14.6404 2.79243 14.0929 2.73446 13.544 2.73637C8.77375 2.73637 4.90088 6.59502 4.90088 11.3652C4.90088 15.0368 10.0027 21.6849 12.373 24.5619C12.5152 24.7349 12.694 24.8742 12.8964 24.9699C13.0989 25.0656 13.32 25.1152 13.544 25.1152C13.7679 25.1152 13.9891 25.0656 14.1915 24.9699C14.394 24.8742 14.5727 24.7349 14.7149 24.5619C14.8736 24.3737 15.0465 24.1712 15.2205 23.9403C12.7057 20.8181 8.25394 14.7916 8.25394 11.3652Z" fill="#1D3A69"/>
<path d="M45.6588 32.8849C40.8886 32.8849 37.0146 36.7435 37.0146 41.5127C37.0146 45.1798 42.1241 51.8279 44.4857 54.706C44.6274 54.8801 44.8061 55.0204 45.0089 55.1168C45.2116 55.2132 45.4333 55.2632 45.6577 55.2632C45.8822 55.2632 46.1039 55.2132 46.3066 55.1168C46.5093 55.0204 46.6881 54.8801 46.8298 54.706C49.1881 51.8268 54.2866 45.1798 54.2866 41.5127C54.2873 40.3794 54.0647 39.2571 53.6314 38.2099C53.198 37.1628 52.5626 36.2113 51.7613 35.4099C50.96 34.6085 50.0086 33.9729 48.9615 33.5395C47.9144 33.106 46.7921 32.8843 45.6588 32.8849Z" fill="#1D3A69"/>
<path d="M45.6587 46.3253C45.0266 46.3256 44.4005 46.2013 43.8164 45.9596C43.2323 45.7178 42.7015 45.3633 42.2545 44.9164C41.8074 44.4694 41.4528 43.9387 41.2109 43.3547C40.969 42.7706 40.8446 42.1446 40.8447 41.5124C40.8462 40.5627 41.1292 39.6347 41.6578 38.8457C42.1863 38.0566 42.9369 37.4419 43.8146 37.0792C44.6924 36.7164 45.6579 36.6219 46.5893 36.8076C47.5207 36.9932 48.3762 37.4507 49.0478 38.1223C49.7194 38.7938 50.1769 39.6493 50.3625 40.5808C50.5482 41.5122 50.4536 42.4777 50.0909 43.3554C49.7282 44.2332 49.1134 44.9837 48.3244 45.5123C47.5354 46.0409 46.6085 46.3238 45.6587 46.3253Z" fill="white"/>
<path d="M45.6588 32.8849C45.557 32.8849 45.441 32.8849 45.3403 32.898C47.5689 32.9821 49.6782 33.9265 51.2251 35.5328C52.7721 37.1392 53.6364 39.2825 53.6365 41.5127C53.6365 45.1842 48.5347 51.8323 46.1786 54.7093C45.9477 54.9829 45.6588 55.158 45.3403 55.2291C45.6122 55.2882 45.8951 55.2709 46.1578 55.1792C46.4205 55.0874 46.6527 54.9248 46.8286 54.7093C49.1847 51.8323 54.2877 45.1842 54.2877 41.5127C54.2884 40.3793 54.0657 39.2569 53.6323 38.2097C53.1989 37.1625 52.5633 36.2109 51.7619 35.4095C50.9605 34.6081 50.009 33.9725 48.9618 33.5392C47.9145 33.1058 46.7921 32.8842 45.6588 32.8849Z" fill="#1D3A69"/>
<path d="M40.3688 41.5127C40.3688 37.3356 43.3454 33.8523 47.2916 33.0578C46.7553 32.9406 46.2078 32.8823 45.6588 32.8838C40.8886 32.8838 37.0146 36.7436 37.0146 41.5127C37.0146 45.1842 42.1176 51.8323 44.4879 54.7093C44.6301 54.8823 44.8088 55.0217 45.0113 55.1174C45.2138 55.213 45.4349 55.2626 45.6588 55.2626C45.8828 55.2626 46.1039 55.213 46.3064 55.1174C46.5088 55.0217 46.6876 54.8823 46.8298 54.7093C46.9885 54.5211 47.1614 54.3187 47.3354 54.0877C44.8195 50.9656 40.3688 44.9391 40.3688 41.5138V41.5127Z" fill="#1D3A69"/>
</svg>
