<svg width="289" height="27" viewBox="0 0 289 27" fill="none" xmlns="http://www.w3.org/2000/svg">
<mask id="path-1-outside-1_313_500" maskUnits="userSpaceOnUse" x="0" y="0" width="289" height="27" fill="black">
<rect fill="white" width="289" height="27"/>
<path d="M16.5097 3H23.5897V24H16.5097V3ZM9.96969 24H2.88969V3H9.96969V24ZM16.9897 16.26H9.48969V10.44H16.9897V16.26ZM24.721 24L33.901 3H40.861L50.041 24H42.721L35.941 6.36H38.701L31.921 24H24.721ZM30.181 20.34L31.981 15.24H41.641L43.441 20.34H30.181ZM51.1709 24V3H58.2509V18.51H67.7309V24H51.1709ZM76.2866 11.94H85.5266V17.28H76.2866V11.94ZM76.7666 24H69.6866V3H86.7566V8.34H76.7666V24ZM97.9873 24V3H103.807L112.207 16.71H109.147L117.307 3H123.127L123.187 24H116.737L116.677 12.72H117.697L112.117 22.11H108.997L103.177 12.72H104.437V24H97.9873ZM124.33 24L133.51 3H140.47L149.65 24H142.33L135.55 6.36H138.31L131.53 24H124.33ZM129.79 20.34L131.59 15.24H141.25L143.05 20.34H129.79ZM150.78 24V3H160.89C162.85 3 164.54 3.32 165.96 3.96C167.4 4.6 168.51 5.52 169.29 6.72C170.07 7.9 170.46 9.3 170.46 10.92C170.46 12.54 170.07 13.94 169.29 15.12C168.51 16.28 167.4 17.17 165.96 17.79C164.54 18.41 162.85 18.72 160.89 18.72H154.71L157.86 15.81V24H150.78ZM163.35 24L158.19 16.35H165.69L170.91 24H163.35ZM157.86 16.59L154.71 13.38H160.44C161.42 13.38 162.14 13.16 162.6 12.72C163.08 12.28 163.32 11.68 163.32 10.92C163.32 10.16 163.08 9.56 162.6 9.12C162.14 8.68 161.42 8.46 160.44 8.46H154.71L157.86 5.25V16.59ZM170.854 24L180.034 3H186.994L196.174 24H188.854L182.074 6.36H184.834L178.054 24H170.854ZM176.314 20.34L178.114 15.24H187.774L189.574 20.34H176.314ZM200.809 24V8.49H194.659V3H214.039V8.49H207.889V24H200.809ZM229.498 3H236.578V24H229.498V3ZM222.958 24H215.878V3H222.958V24ZM229.978 16.26H222.478V10.44H229.978V16.26ZM250.999 24.48C249.299 24.48 247.719 24.21 246.259 23.67C244.819 23.13 243.569 22.37 242.509 21.39C241.449 20.39 240.619 19.22 240.019 17.88C239.439 16.54 239.149 15.08 239.149 13.5C239.149 11.9 239.439 10.44 240.019 9.12C240.619 7.78 241.449 6.62 242.509 5.64C243.569 4.64 244.819 3.87 246.259 3.33C247.719 2.79 249.299 2.52 250.999 2.52C252.719 2.52 254.299 2.79 255.739 3.33C257.179 3.87 258.429 4.64 259.489 5.64C260.549 6.62 261.369 7.78 261.949 9.12C262.549 10.44 262.849 11.9 262.849 13.5C262.849 15.08 262.549 16.54 261.949 17.88C261.369 19.22 260.549 20.39 259.489 21.39C258.429 22.37 257.179 23.13 255.739 23.67C254.299 24.21 252.719 24.48 250.999 24.48ZM250.999 18.75C251.659 18.75 252.269 18.63 252.829 18.39C253.409 18.15 253.909 17.81 254.329 17.37C254.769 16.91 255.109 16.36 255.349 15.72C255.589 15.06 255.709 14.32 255.709 13.5C255.709 12.68 255.589 11.95 255.349 11.31C255.109 10.65 254.769 10.1 254.329 9.66C253.909 9.2 253.409 8.85 252.829 8.61C252.269 8.37 251.659 8.25 250.999 8.25C250.339 8.25 249.719 8.37 249.139 8.61C248.579 8.85 248.079 9.2 247.639 9.66C247.219 10.1 246.889 10.65 246.649 11.31C246.409 11.95 246.289 12.68 246.289 13.5C246.289 14.32 246.409 15.06 246.649 15.72C246.889 16.36 247.219 16.91 247.639 17.37C248.079 17.81 248.579 18.15 249.139 18.39C249.719 18.63 250.339 18.75 250.999 18.75ZM265.419 24V3H271.239L281.919 15.78H279.219V3H286.119V24H280.299L269.619 11.22H272.319V24H265.419Z"/>
</mask>
<path d="M16.5097 3V0.999999H14.5097V3H16.5097ZM23.5897 3H25.5897V0.999999H23.5897V3ZM23.5897 24V26H25.5897V24H23.5897ZM16.5097 24H14.5097V26H16.5097V24ZM9.96969 24V26H11.9697V24H9.96969ZM2.88969 24H0.889688V26H2.88969V24ZM2.88969 3V0.999999H0.889688V3H2.88969ZM9.96969 3H11.9697V0.999999H9.96969V3ZM16.9897 16.26V18.26H18.9897V16.26H16.9897ZM9.48969 16.26H7.48969V18.26H9.48969V16.26ZM9.48969 10.44V8.44H7.48969V10.44H9.48969ZM16.9897 10.44H18.9897V8.44H16.9897V10.44ZM16.5097 3V5H23.5897V3V0.999999H16.5097V3ZM23.5897 3H21.5897V24H23.5897H25.5897V3H23.5897ZM23.5897 24V22H16.5097V24V26H23.5897V24ZM16.5097 24H18.5097V3H16.5097H14.5097V24H16.5097ZM9.96969 24V22H2.88969V24V26H9.96969V24ZM2.88969 24H4.88969V3H2.88969H0.889688V24H2.88969ZM2.88969 3V5H9.96969V3V0.999999H2.88969V3ZM9.96969 3H7.96969V24H9.96969H11.9697V3H9.96969ZM16.9897 16.26V14.26H9.48969V16.26V18.26H16.9897V16.26ZM9.48969 16.26H11.4897V10.44H9.48969H7.48969V16.26H9.48969ZM9.48969 10.44V12.44H16.9897V10.44V8.44H9.48969V10.44ZM16.9897 10.44H14.9897V16.26H16.9897H18.9897V10.44H16.9897ZM24.721 24L22.8885 23.1989L21.664 26H24.721V24ZM33.901 3V0.999999H32.5926L32.0685 2.19891L33.901 3ZM40.861 3L42.6936 2.19891L42.1695 0.999999H40.861V3ZM50.041 24V26H53.098L51.8736 23.1989L50.041 24ZM42.721 24L40.8542 24.7175L41.3471 26H42.721V24ZM35.941 6.36V4.36H33.0297L34.0742 7.07753L35.941 6.36ZM38.701 6.36L40.5679 7.07753L41.6124 4.36H38.701V6.36ZM31.921 24V26H33.2949L33.7879 24.7175L31.921 24ZM30.181 20.34L28.295 19.6744L27.3542 22.34H30.181V20.34ZM31.981 15.24V13.24H30.566L30.095 14.5744L31.981 15.24ZM41.641 15.24L43.527 14.5744L43.056 13.24H41.641V15.24ZM43.441 20.34V22.34H46.2678L45.327 19.6744L43.441 20.34ZM24.721 24L26.5536 24.8011L35.7336 3.80109L33.901 3L32.0685 2.19891L22.8885 23.1989L24.721 24ZM33.901 3V5H40.861V3V0.999999H33.901V3ZM40.861 3L39.0285 3.80109L48.2085 24.8011L50.041 24L51.8736 23.1989L42.6936 2.19891L40.861 3ZM50.041 24V22H42.721V24V26H50.041V24ZM42.721 24L44.5879 23.2825L37.8079 5.64247L35.941 6.36L34.0742 7.07753L40.8542 24.7175L42.721 24ZM35.941 6.36V8.36H38.701V6.36V4.36H35.941V6.36ZM38.701 6.36L36.8342 5.64247L30.0542 23.2825L31.921 24L33.7879 24.7175L40.5679 7.07753L38.701 6.36ZM31.921 24V22H24.721V24V26H31.921V24ZM30.181 20.34L32.067 21.0056L33.867 15.9056L31.981 15.24L30.095 14.5744L28.295 19.6744L30.181 20.34ZM31.981 15.24V17.24H41.641V15.24V13.24H31.981V15.24ZM41.641 15.24L39.755 15.9056L41.555 21.0056L43.441 20.34L45.327 19.6744L43.527 14.5744L41.641 15.24ZM43.441 20.34V18.34H30.181V20.34V22.34H43.441V20.34ZM51.1709 24H49.1709V26H51.1709V24ZM51.1709 3V0.999999H49.1709V3H51.1709ZM58.2509 3H60.2509V0.999999H58.2509V3ZM58.2509 18.51H56.2509V20.51H58.2509V18.51ZM67.7309 18.51H69.7309V16.51H67.7309V18.51ZM67.7309 24V26H69.7309V24H67.7309ZM51.1709 24H53.1709V3H51.1709H49.1709V24H51.1709ZM51.1709 3V5H58.2509V3V0.999999H51.1709V3ZM58.2509 3H56.2509V18.51H58.2509H60.2509V3H58.2509ZM58.2509 18.51V20.51H67.7309V18.51V16.51H58.2509V18.51ZM67.7309 18.51H65.7309V24H67.7309H69.7309V18.51H67.7309ZM67.7309 24V22H51.1709V24V26H67.7309V24ZM76.2866 11.94V9.94H74.2866V11.94H76.2866ZM85.5266 11.94H87.5266V9.94H85.5266V11.94ZM85.5266 17.28V19.28H87.5266V17.28H85.5266ZM76.2866 17.28H74.2866V19.28H76.2866V17.28ZM76.7666 24V26H78.7666V24H76.7666ZM69.6866 24H67.6866V26H69.6866V24ZM69.6866 3V0.999999H67.6866V3H69.6866ZM86.7566 3H88.7566V0.999999H86.7566V3ZM86.7566 8.34V10.34H88.7566V8.34H86.7566ZM76.7666 8.34V6.34H74.7666V8.34H76.7666ZM76.2866 11.94V13.94H85.5266V11.94V9.94H76.2866V11.94ZM85.5266 11.94H83.5266V17.28H85.5266H87.5266V11.94H85.5266ZM85.5266 17.28V15.28H76.2866V17.28V19.28H85.5266V17.28ZM76.2866 17.28H78.2866V11.94H76.2866H74.2866V17.28H76.2866ZM76.7666 24V22H69.6866V24V26H76.7666V24ZM69.6866 24H71.6866V3H69.6866H67.6866V24H69.6866ZM69.6866 3V5H86.7566V3V0.999999H69.6866V3ZM86.7566 3H84.7566V8.34H86.7566H88.7566V3H86.7566ZM86.7566 8.34V6.34H76.7666V8.34V10.34H86.7566V8.34ZM76.7666 8.34H74.7666V24H76.7666H78.7666V8.34H76.7666ZM97.9873 24H95.9873V26H97.9873V24ZM97.9873 3V0.999999H95.9873V3H97.9873ZM103.807 3L105.513 1.95514L104.928 0.999999H103.807V3ZM112.207 16.71V18.71H115.778L113.913 15.6651L112.207 16.71ZM109.147 16.71L107.429 15.6871L105.63 18.71H109.147V16.71ZM117.307 3V0.999999H116.17L115.589 1.9771L117.307 3ZM123.127 3L125.127 2.99428L125.122 0.999999H123.127V3ZM123.187 24V26H125.193L125.187 23.9943L123.187 24ZM116.737 24L114.737 24.0106L114.748 26H116.737V24ZM116.677 12.72V10.72H114.667L114.677 12.7306L116.677 12.72ZM117.697 12.72L119.417 13.7417L121.212 10.72H117.697V12.72ZM112.117 22.11V24.11H113.255L113.837 23.1317L112.117 22.11ZM108.997 22.11L107.297 23.1636L107.884 24.11H108.997V22.11ZM103.177 12.72V10.72H99.5847L101.477 13.7736L103.177 12.72ZM104.437 12.72H106.437V10.72H104.437V12.72ZM104.437 24V26H106.437V24H104.437ZM97.9873 24H99.9873V3H97.9873H95.9873V24H97.9873ZM97.9873 3V5H103.807V3V0.999999H97.9873V3ZM103.807 3L102.102 4.04486L110.502 17.7549L112.207 16.71L113.913 15.6651L105.513 1.95514L103.807 3ZM112.207 16.71V14.71H109.147V16.71V18.71H112.207V16.71ZM109.147 16.71L110.866 17.7329L119.026 4.0229L117.307 3L115.589 1.9771L107.429 15.6871L109.147 16.71ZM117.307 3V5H123.127V3V0.999999H117.307V3ZM123.127 3L121.127 3.00571L121.187 24.0057L123.187 24L125.187 23.9943L125.127 2.99428L123.127 3ZM123.187 24V22H116.737V24V26H123.187V24ZM116.737 24L118.737 23.9894L118.677 12.7094L116.677 12.72L114.677 12.7306L114.737 24.0106L116.737 24ZM116.677 12.72V14.72H117.697V12.72V10.72H116.677V12.72ZM117.697 12.72L115.978 11.6983L110.398 21.0883L112.117 22.11L113.837 23.1317L119.417 13.7417L117.697 12.72ZM112.117 22.11V20.11H108.997V22.11V24.11H112.117V22.11ZM108.997 22.11L110.697 21.0564L104.877 11.6664L103.177 12.72L101.477 13.7736L107.297 23.1636L108.997 22.11ZM103.177 12.72V14.72H104.437V12.72V10.72H103.177V12.72ZM104.437 12.72H102.437V24H104.437H106.437V12.72H104.437ZM104.437 24V22H97.9873V24V26H104.437V24ZM124.33 24L122.498 23.1989L121.273 26H124.33V24ZM133.51 3V0.999999H132.202L131.678 2.19891L133.51 3ZM140.47 3L142.303 2.19891L141.779 0.999999H140.47V3ZM149.65 24V26H152.707L151.483 23.1989L149.65 24ZM142.33 24L140.464 24.7175L140.956 26H142.33V24ZM135.55 6.36V4.36H132.639L133.684 7.07753L135.55 6.36ZM138.31 6.36L140.177 7.07753L141.222 4.36H138.31V6.36ZM131.53 24V26H132.904L133.397 24.7175L131.53 24ZM129.79 20.34L127.904 19.6744L126.964 22.34H129.79V20.34ZM131.59 15.24V13.24H130.175L129.704 14.5744L131.59 15.24ZM141.25 15.24L143.136 14.5744L142.665 13.24H141.25V15.24ZM143.05 20.34V22.34H145.877L144.936 19.6744L143.05 20.34ZM124.33 24L126.163 24.8011L135.343 3.80109L133.51 3L131.678 2.19891L122.498 23.1989L124.33 24ZM133.51 3V5H140.47V3V0.999999H133.51V3ZM140.47 3L138.638 3.80109L147.818 24.8011L149.65 24L151.483 23.1989L142.303 2.19891L140.47 3ZM149.65 24V22H142.33V24V26H149.65V24ZM142.33 24L144.197 23.2825L137.417 5.64247L135.55 6.36L133.684 7.07753L140.464 24.7175L142.33 24ZM135.55 6.36V8.36H138.31V6.36V4.36H135.55V6.36ZM138.31 6.36L136.444 5.64247L129.664 23.2825L131.53 24L133.397 24.7175L140.177 7.07753L138.31 6.36ZM131.53 24V22H124.33V24V26H131.53V24ZM129.79 20.34L131.676 21.0056L133.476 15.9056L131.59 15.24L129.704 14.5744L127.904 19.6744L129.79 20.34ZM131.59 15.24V17.24H141.25V15.24V13.24H131.59V15.24ZM141.25 15.24L139.364 15.9056L141.164 21.0056L143.05 20.34L144.936 19.6744L143.136 14.5744L141.25 15.24ZM143.05 20.34V18.34H129.79V20.34V22.34H143.05V20.34ZM150.78 24H148.78V26H150.78V24ZM150.78 3V0.999999H148.78V3H150.78ZM165.96 3.96L165.139 5.78339L165.148 5.78762L165.96 3.96ZM169.29 6.72L167.613 7.80997L167.618 7.81644L167.622 7.82287L169.29 6.72ZM169.29 15.12L170.95 16.236L170.954 16.2294L170.959 16.2229L169.29 15.12ZM165.96 17.79L165.169 15.953L165.16 15.9571L165.96 17.79ZM154.71 18.72L153.353 17.2509L149.598 20.72H154.71V18.72ZM157.86 15.81H159.86V11.2396L156.503 14.3409L157.86 15.81ZM157.86 24V26H159.86V24H157.86ZM163.35 24L161.692 25.1184L162.287 26H163.35V24ZM158.19 16.35V14.35H154.429L156.532 17.4684L158.19 16.35ZM165.69 16.35L167.342 15.2227L166.747 14.35H165.69V16.35ZM170.91 24V26H174.696L172.562 22.8727L170.91 24ZM157.86 16.59L156.433 17.9908L159.86 21.4836V16.59H157.86ZM154.71 13.38V11.38H149.946L153.283 14.7808L154.71 13.38ZM162.6 12.72L161.249 11.2457L161.233 11.26L161.218 11.2747L162.6 12.72ZM162.6 9.12L161.218 10.5653L161.233 10.58L161.249 10.5943L162.6 9.12ZM154.71 8.46L153.283 7.05919L149.946 10.46H154.71V8.46ZM157.86 5.25H159.86V0.356413L156.433 3.84919L157.86 5.25ZM150.78 24H152.78V3H150.78H148.78V24H150.78ZM150.78 3V5H160.89V3V0.999999H150.78V3ZM160.89 3V5C162.638 5 164.034 5.28577 165.139 5.78336L165.96 3.96L166.782 2.13664C165.046 1.35423 163.063 0.999999 160.89 0.999999V3ZM165.96 3.96L165.148 5.78762C166.272 6.28701 167.065 6.96672 167.613 7.80997L169.29 6.72L170.967 5.63002C169.955 4.07328 168.529 2.91299 166.773 2.13238L165.96 3.96ZM169.29 6.72L167.622 7.82287C168.155 8.63002 168.46 9.63358 168.46 10.92H170.46H172.46C172.46 8.96642 171.985 7.16998 170.959 5.61713L169.29 6.72ZM170.46 10.92H168.46C168.46 12.2064 168.155 13.21 167.622 14.0171L169.29 15.12L170.959 16.2229C171.985 14.67 172.46 12.8736 172.46 10.92H170.46ZM169.29 15.12L167.631 14.004C167.09 14.8075 166.301 15.4659 165.169 15.953L165.96 17.79L166.751 19.627C168.5 18.8741 169.93 17.7525 170.95 16.236L169.29 15.12ZM165.96 17.79L165.16 15.9571C164.05 16.4418 162.645 16.72 160.89 16.72V18.72V20.72C163.055 20.72 165.031 20.3782 166.761 19.6229L165.96 17.79ZM160.89 18.72V16.72H154.71V18.72V20.72H160.89V18.72ZM154.71 18.72L156.067 20.1891L159.217 17.2791L157.86 15.81L156.503 14.3409L153.353 17.2509L154.71 18.72ZM157.86 15.81H155.86V24H157.86H159.86V15.81H157.86ZM157.86 24V22H150.78V24V26H157.86V24ZM163.35 24L165.008 22.8816L159.848 15.2316L158.19 16.35L156.532 17.4684L161.692 25.1184L163.35 24ZM158.19 16.35V18.35H165.69V16.35V14.35H158.19V16.35ZM165.69 16.35L164.038 17.4773L169.258 25.1273L170.91 24L172.562 22.8727L167.342 15.2227L165.69 16.35ZM170.91 24V22H163.35V24V26H170.91V24ZM157.86 16.59L159.288 15.1892L156.138 11.9792L154.71 13.38L153.283 14.7808L156.433 17.9908L157.86 16.59ZM154.71 13.38V15.38H160.44V13.38V11.38H154.71V13.38ZM160.44 13.38V15.38C161.665 15.38 162.993 15.1121 163.983 14.1653L162.6 12.72L161.218 11.2747C161.288 11.2079 161.175 11.38 160.44 11.38V13.38ZM162.6 12.72L163.952 14.1943C164.915 13.3113 165.32 12.138 165.32 10.92H163.32H161.32C161.32 11.0896 161.294 11.1712 161.283 11.1972C161.276 11.2163 161.269 11.2269 161.249 11.2457L162.6 12.72ZM163.32 10.92H165.32C165.32 9.70199 164.915 8.5287 163.952 7.64569L162.6 9.12L161.249 10.5943C161.269 10.6131 161.276 10.6237 161.283 10.6428C161.294 10.6688 161.32 10.7504 161.32 10.92H163.32ZM162.6 9.12L163.983 7.67472C162.993 6.72789 161.665 6.46 160.44 6.46V8.46V10.46C161.175 10.46 161.288 10.6321 161.218 10.5653L162.6 9.12ZM160.44 8.46V6.46H154.71V8.46V10.46H160.44V8.46ZM154.71 8.46L156.138 9.86081L159.288 6.65081L157.86 5.25L156.433 3.84919L153.283 7.05919L154.71 8.46ZM157.86 5.25H155.86V16.59H157.86H159.86V5.25H157.86ZM170.854 24L169.021 23.1989L167.797 26H170.854V24ZM180.034 3V0.999999H178.725L178.201 2.19891L180.034 3ZM186.994 3L188.826 2.19891L188.302 0.999999H186.994V3ZM196.174 24V26H199.231L198.006 23.1989L196.174 24ZM188.854 24L186.987 24.7175L187.48 26H188.854V24ZM182.074 6.36V4.36H179.162L180.207 7.07753L182.074 6.36ZM184.834 6.36L186.701 7.07753L187.745 4.36H184.834V6.36ZM178.054 24V26H179.428L179.921 24.7175L178.054 24ZM176.314 20.34L174.428 19.6744L173.487 22.34H176.314V20.34ZM178.114 15.24V13.24H176.699L176.228 14.5744L178.114 15.24ZM187.774 15.24L189.66 14.5744L189.189 13.24H187.774V15.24ZM189.574 20.34V22.34H192.401L191.46 19.6744L189.574 20.34ZM170.854 24L172.686 24.8011L181.866 3.80109L180.034 3L178.201 2.19891L169.021 23.1989L170.854 24ZM180.034 3V5H186.994V3V0.999999H180.034V3ZM186.994 3L185.161 3.80109L194.341 24.8011L196.174 24L198.006 23.1989L188.826 2.19891L186.994 3ZM196.174 24V22H188.854V24V26H196.174V24ZM188.854 24L190.721 23.2825L183.941 5.64247L182.074 6.36L180.207 7.07753L186.987 24.7175L188.854 24ZM182.074 6.36V8.36H184.834V6.36V4.36H182.074V6.36ZM184.834 6.36L182.967 5.64247L176.187 23.2825L178.054 24L179.921 24.7175L186.701 7.07753L184.834 6.36ZM178.054 24V22H170.854V24V26H178.054V24ZM176.314 20.34L178.2 21.0056L180 15.9056L178.114 15.24L176.228 14.5744L174.428 19.6744L176.314 20.34ZM178.114 15.24V17.24H187.774V15.24V13.24H178.114V15.24ZM187.774 15.24L185.888 15.9056L187.688 21.0056L189.574 20.34L191.46 19.6744L189.66 14.5744L187.774 15.24ZM189.574 20.34V18.34H176.314V20.34V22.34H189.574V20.34ZM200.809 24H198.809V26H200.809V24ZM200.809 8.49H202.809V6.49H200.809V8.49ZM194.659 8.49H192.659V10.49H194.659V8.49ZM194.659 3V0.999999H192.659V3H194.659ZM214.039 3H216.039V0.999999H214.039V3ZM214.039 8.49V10.49H216.039V8.49H214.039ZM207.889 8.49V6.49H205.889V8.49H207.889ZM207.889 24V26H209.889V24H207.889ZM200.809 24H202.809V8.49H200.809H198.809V24H200.809ZM200.809 8.49V6.49H194.659V8.49V10.49H200.809V8.49ZM194.659 8.49H196.659V3H194.659H192.659V8.49H194.659ZM194.659 3V5H214.039V3V0.999999H194.659V3ZM214.039 3H212.039V8.49H214.039H216.039V3H214.039ZM214.039 8.49V6.49H207.889V8.49V10.49H214.039V8.49ZM207.889 8.49H205.889V24H207.889H209.889V8.49H207.889ZM207.889 24V22H200.809V24V26H207.889V24ZM229.498 3V0.999999H227.498V3H229.498ZM236.578 3H238.578V0.999999H236.578V3ZM236.578 24V26H238.578V24H236.578ZM229.498 24H227.498V26H229.498V24ZM222.958 24V26H224.958V24H222.958ZM215.878 24H213.878V26H215.878V24ZM215.878 3V0.999999H213.878V3H215.878ZM222.958 3H224.958V0.999999H222.958V3ZM229.978 16.26V18.26H231.978V16.26H229.978ZM222.478 16.26H220.478V18.26H222.478V16.26ZM222.478 10.44V8.44H220.478V10.44H222.478ZM229.978 10.44H231.978V8.44H229.978V10.44ZM229.498 3V5H236.578V3V0.999999H229.498V3ZM236.578 3H234.578V24H236.578H238.578V3H236.578ZM236.578 24V22H229.498V24V26H236.578V24ZM229.498 24H231.498V3H229.498H227.498V24H229.498ZM222.958 24V22H215.878V24V26H222.958V24ZM215.878 24H217.878V3H215.878H213.878V24H215.878ZM215.878 3V5H222.958V3V0.999999H215.878V3ZM222.958 3H220.958V24H222.958H224.958V3H222.958ZM229.978 16.26V14.26H222.478V16.26V18.26H229.978V16.26ZM222.478 16.26H224.478V10.44H222.478H220.478V16.26H222.478ZM222.478 10.44V12.44H229.978V10.44V8.44H222.478V10.44ZM229.978 10.44H227.978V16.26H229.978H231.978V10.44H229.978ZM246.259 23.67L245.557 25.5427L245.566 25.5458L246.259 23.67ZM242.509 21.39L241.137 22.8448L241.144 22.8517L241.152 22.8585L242.509 21.39ZM240.019 17.88L238.184 18.6744L238.189 18.6859L238.194 18.6973L240.019 17.88ZM240.019 9.12L238.194 8.30265L238.188 8.31545L240.019 9.12ZM242.509 5.64L243.867 7.10854L243.874 7.1017L243.882 7.09479L242.509 5.64ZM246.259 3.33L245.565 1.45417L245.557 1.45734L246.259 3.33ZM255.739 3.33L255.037 5.20266V5.20266L255.739 3.33ZM259.489 5.64L258.117 7.09479L258.124 7.1017L258.132 7.10854L259.489 5.64ZM261.949 9.12L260.114 9.91444L260.121 9.93109L260.129 9.94761L261.949 9.12ZM261.949 17.88L260.124 17.0627L260.119 17.0741L260.114 17.0856L261.949 17.88ZM259.489 21.39L260.847 22.8585L260.854 22.8517L260.862 22.8448L259.489 21.39ZM255.739 23.67L255.037 21.7973L255.739 23.67ZM252.829 18.39L252.065 16.542L252.053 16.5468L252.041 16.5517L252.829 18.39ZM254.329 17.37L252.884 15.9876L252.883 15.989L254.329 17.37ZM255.349 15.72L257.222 16.4222L257.225 16.4129L257.229 16.4035L255.349 15.72ZM255.349 11.31L253.47 11.9935L253.473 12.0029L253.477 12.0122L255.349 11.31ZM254.329 9.66L252.852 11.0085L252.883 11.0421L252.915 11.0742L254.329 9.66ZM252.829 8.61L252.041 10.4483L252.053 10.4532L252.065 10.458L252.829 8.61ZM249.139 8.61L248.375 6.76197L248.363 6.76676L248.351 6.77171L249.139 8.61ZM247.639 9.66L246.194 8.27755L246.193 8.27905L247.639 9.66ZM246.649 11.31L248.522 12.0122L248.525 12.0029L248.529 11.9935L246.649 11.31ZM246.649 15.72L244.77 16.4035L244.773 16.4129L244.777 16.4222L246.649 15.72ZM247.639 17.37L246.162 18.7185L246.193 18.7521L246.225 18.7842L247.639 17.37ZM249.139 18.39L248.351 20.2283L248.363 20.2332L248.375 20.238L249.139 18.39ZM250.999 24.48V22.48C249.514 22.48 248.171 22.2448 246.953 21.7942L246.259 23.67L245.566 25.5458C247.267 26.1752 249.084 26.48 250.999 26.48V24.48ZM246.259 23.67L246.962 21.7973C245.748 21.3423 244.725 20.7143 243.867 19.9215L242.509 21.39L241.152 22.8585C242.414 24.0257 243.89 24.9177 245.557 25.5427L246.259 23.67ZM242.509 21.39L243.882 19.9352C243.015 19.1172 242.338 18.1643 241.845 17.0627L240.019 17.88L238.194 18.6973C238.901 20.2757 239.884 21.6628 241.137 22.8448L242.509 21.39ZM240.019 17.88L241.855 17.0856C241.392 16.0164 241.149 14.8294 241.149 13.5H239.149H237.149C237.149 15.3306 237.487 17.0636 238.184 18.6744L240.019 17.88ZM239.149 13.5H241.149C241.149 12.1465 241.393 10.9644 241.85 9.92455L240.019 9.12L238.188 8.31545C237.485 9.91558 237.149 11.6535 237.149 13.5H239.149ZM240.019 9.12L241.845 9.93733C242.336 8.83943 243.009 7.90208 243.867 7.10854L242.509 5.64L241.152 4.17145C239.89 5.33792 238.902 6.72057 238.194 8.30267L240.019 9.12ZM242.509 5.64L243.882 7.09479C244.738 6.28723 245.757 5.65455 246.962 5.20266L246.259 3.33L245.557 1.45734C243.882 2.08545 242.401 2.99277 241.137 4.18521L242.509 5.64ZM246.259 3.33L246.953 5.20581C248.171 4.75519 249.514 4.52 250.999 4.52V2.52V0.52C249.084 0.52 247.267 0.824809 245.566 1.45419L246.259 3.33ZM250.999 2.52V4.52C252.508 4.52 253.847 4.75624 255.037 5.20266L255.739 3.33L256.442 1.45734C254.752 0.82376 252.931 0.52 250.999 0.52V2.52ZM255.739 3.33L255.037 5.20266C256.242 5.65455 257.261 6.28723 258.117 7.09479L259.489 5.64L260.862 4.18521C259.598 2.99277 258.116 2.08545 256.442 1.45734L255.739 3.33ZM259.489 5.64L258.132 7.10854C258.985 7.89733 259.643 8.82693 260.114 9.91444L261.949 9.12L263.785 8.32555C263.095 6.73307 262.114 5.34267 260.847 4.17145L259.489 5.64ZM261.949 9.12L260.129 9.94761C260.599 10.9819 260.849 12.1557 260.849 13.5H262.849H264.849C264.849 11.6443 264.5 9.89812 263.77 8.29239L261.949 9.12ZM262.849 13.5H260.849C260.849 14.8201 260.6 15.9989 260.124 17.0627L261.949 17.88L263.775 18.6973C264.498 17.0811 264.849 15.3399 264.849 13.5H262.849ZM261.949 17.88L260.114 17.0856C259.642 18.1768 258.979 19.122 258.117 19.9352L259.489 21.39L260.862 22.8448C262.12 21.658 263.097 20.2632 263.785 18.6744L261.949 17.88ZM259.489 21.39L258.132 19.9215C257.274 20.7143 256.25 21.3423 255.037 21.7973L255.739 23.67L256.442 25.5427C258.108 24.9177 259.585 24.0257 260.847 22.8585L259.489 21.39ZM255.739 23.67L255.037 21.7973C253.847 22.2438 252.508 22.48 250.999 22.48V24.48V26.48C252.931 26.48 254.752 26.1762 256.442 25.5427L255.739 23.67ZM250.999 18.75V20.75C251.907 20.75 252.788 20.5836 253.617 20.2283L252.829 18.39L252.041 16.5517C251.751 16.6764 251.411 16.75 250.999 16.75V18.75ZM252.829 18.39L253.594 20.238C254.423 19.895 255.157 19.3989 255.776 18.751L254.329 17.37L252.883 15.989C252.661 16.2211 252.396 16.405 252.065 16.542L252.829 18.39ZM254.329 17.37L255.775 18.7524C256.415 18.0829 256.894 17.2966 257.222 16.4222L255.349 15.72L253.477 15.0178C253.325 15.4234 253.124 15.7371 252.884 15.9876L254.329 17.37ZM255.349 15.72L257.229 16.4035C257.561 15.4911 257.709 14.5148 257.709 13.5H255.709H253.709C253.709 14.1252 253.618 14.6289 253.47 15.0365L255.349 15.72ZM255.709 13.5H257.709C257.709 12.4868 257.561 11.5122 257.222 10.6078L255.349 11.31L253.477 12.0122C253.617 12.3878 253.709 12.8732 253.709 13.5H255.709ZM255.349 11.31L257.229 10.6265C256.902 9.72731 256.415 8.91754 255.744 8.24578L254.329 9.66L252.915 11.0742C253.123 11.2825 253.317 11.5727 253.47 11.9935L255.349 11.31ZM254.329 9.66L255.806 8.31146C255.187 7.633 254.443 7.11329 253.594 6.76197L252.829 8.61L252.065 10.458C252.376 10.5867 252.632 10.767 252.852 11.0085L254.329 9.66ZM252.829 8.61L253.617 6.77171C252.788 6.41639 251.907 6.25 250.999 6.25V8.25V10.25C251.411 10.25 251.751 10.3236 252.041 10.4483L252.829 8.61ZM250.999 8.25V6.25C250.091 6.25 249.209 6.41652 248.375 6.76197L249.139 8.61L249.904 10.458C250.229 10.3235 250.588 10.25 250.999 10.25V8.25ZM249.139 8.61L248.351 6.77171C247.533 7.12257 246.812 7.63177 246.194 8.27755L247.639 9.66L249.085 11.0424C249.347 10.7682 249.626 10.5774 249.927 10.4483L249.139 8.61ZM247.639 9.66L246.193 8.27905C245.554 8.94768 245.09 9.74649 244.77 10.6265L246.649 11.31L248.529 11.9935C248.689 11.5535 248.884 11.2523 249.086 11.041L247.639 9.66ZM246.649 11.31L244.777 10.6078C244.437 11.5122 244.289 12.4868 244.289 13.5H246.289H248.289C248.289 12.8732 248.381 12.3878 248.522 12.0122L246.649 11.31ZM246.289 13.5H244.289C244.289 14.5148 244.438 15.4911 244.77 16.4035L246.649 15.72L248.529 15.0365C248.381 14.6289 248.289 14.1252 248.289 13.5H246.289ZM246.649 15.72L244.777 16.4222C245.097 17.2776 245.554 18.0528 246.162 18.7185L247.639 17.37L249.116 16.0215C248.884 15.7672 248.681 15.4424 248.522 15.0178L246.649 15.72ZM247.639 17.37L246.225 18.7842C246.841 19.4002 247.553 19.8859 248.351 20.2283L249.139 18.39L249.927 16.5517C249.606 16.4141 249.318 16.2198 249.054 15.9558L247.639 17.37ZM249.139 18.39L248.375 20.238C249.209 20.5835 250.091 20.75 250.999 20.75V18.75V16.75C250.588 16.75 250.229 16.6765 249.904 16.542L249.139 18.39ZM265.419 24H263.419V26H265.419V24ZM265.419 3V0.999999H263.419V3H265.419ZM271.239 3L272.774 1.7175L272.174 0.999999H271.239V3ZM281.919 15.78V17.78H286.197L283.454 14.4975L281.919 15.78ZM279.219 15.78H277.219V17.78H279.219V15.78ZM279.219 3V0.999999H277.219V3H279.219ZM286.119 3H288.119V0.999999H286.119V3ZM286.119 24V26H288.119V24H286.119ZM280.299 24L278.764 25.2825L279.364 26H280.299V24ZM269.619 11.22V9.22H265.341L268.084 12.5025L269.619 11.22ZM272.319 11.22H274.319V9.22H272.319V11.22ZM272.319 24V26H274.319V24H272.319ZM265.419 24H267.419V3H265.419H263.419V24H265.419ZM265.419 3V5H271.239V3V0.999999H265.419V3ZM271.239 3L269.704 4.28249L280.384 17.0625L281.919 15.78L283.454 14.4975L272.774 1.7175L271.239 3ZM281.919 15.78V13.78H279.219V15.78V17.78H281.919V15.78ZM279.219 15.78H281.219V3H279.219H277.219V15.78H279.219ZM279.219 3V5H286.119V3V0.999999H279.219V3ZM286.119 3H284.119V24H286.119H288.119V3H286.119ZM286.119 24V22H280.299V24V26H286.119V24ZM280.299 24L281.834 22.7175L271.154 9.93751L269.619 11.22L268.084 12.5025L278.764 25.2825L280.299 24ZM269.619 11.22V13.22H272.319V11.22V9.22H269.619V11.22ZM272.319 11.22H270.319V24H272.319H274.319V11.22H272.319ZM272.319 24V22H265.419V24V26H272.319V24Z" fill="url(#paint0_linear_313_500)" mask="url(#path-1-outside-1_313_500)"/>
<defs>
<linearGradient id="paint0_linear_313_500" x1="144.5" y1="-5" x2="144.5" y2="32" gradientUnits="userSpaceOnUse">
<stop stop-color="#E51D25"/>
<stop offset="1" stop-color="#1D3A69"/>
</linearGradient>
</defs>
</svg>
