<svg width="381" height="43" viewBox="0 0 381 43" fill="none" xmlns="http://www.w3.org/2000/svg">
<mask id="path-1-outside-1_312_461" maskUnits="userSpaceOnUse" x="0" y="0" width="381" height="43" fill="black">
<rect fill="white" width="381" height="43"/>
<path d="M3.08242 39V4H19.9324C23.1991 4 26.0158 4.53333 28.3824 5.6C30.7824 6.66666 32.6324 8.2 33.9324 10.2C35.2324 12.1667 35.8824 14.5 35.8824 17.2C35.8824 19.9 35.2324 22.2333 33.9324 24.2C32.6324 26.1667 30.7824 27.7 28.3824 28.8C26.0158 29.8667 23.1991 30.4 19.9324 30.4H9.63242L14.8824 25.35V39H3.08242ZM14.8824 26.65L9.63242 21.3H19.1824C20.8158 21.3 22.0158 20.9333 22.7824 20.2C23.5824 19.4667 23.9824 18.4667 23.9824 17.2C23.9824 15.9333 23.5824 14.9333 22.7824 14.2C22.0158 13.4667 20.8158 13.1 19.1824 13.1H9.63242L14.8824 7.75V26.65ZM39.7523 39V4H56.6023C59.869 4 62.6857 4.53333 65.0523 5.6C67.4523 6.66666 69.3023 8.2 70.6023 10.2C71.9023 12.1667 72.5523 14.5 72.5523 17.2C72.5523 19.9 71.9023 22.2333 70.6023 24.2C69.3023 26.1333 67.4523 27.6167 65.0523 28.65C62.6857 29.6833 59.869 30.2 56.6023 30.2H46.3023L51.5523 25.35V39H39.7523ZM60.7023 39L52.1023 26.25H64.6023L73.3023 39H60.7023ZM51.5523 26.65L46.3023 21.3H55.8523C57.4857 21.3 58.6857 20.9333 59.4523 20.2C60.2523 19.4667 60.6523 18.4667 60.6523 17.2C60.6523 15.9333 60.2523 14.9333 59.4523 14.2C58.6857 13.4667 57.4857 13.1 55.8523 13.1H46.3023L51.5523 7.75V26.65ZM77.0082 39V4H88.8082V39H77.0082ZM93.2387 39V31.75L112.739 9.05L114.189 13.15H93.7387V4H124.589V11.25L105.089 33.95L103.639 29.85H125.389V39H93.2387ZM139.615 17H155.215V25.5H139.615V17ZM140.415 30.1H157.915V39H128.815V4H157.265V12.9H140.415V30.1ZM177.448 39V4H187.148L201.148 26.85H196.048L209.648 4H219.348L219.448 39H208.698L208.598 20.2H210.298L200.998 35.85H195.798L186.098 20.2H188.198V39H177.448ZM243.503 39.8C240.669 39.8 238.036 39.35 235.603 38.45C233.203 37.55 231.119 36.2833 229.353 34.65C227.586 32.9833 226.203 31.0333 225.203 28.8C224.236 26.5667 223.753 24.1333 223.753 21.5C223.753 18.8333 224.236 16.4 225.203 14.2C226.203 11.9667 227.586 10.0333 229.353 8.4C231.119 6.73333 233.203 5.45 235.603 4.55C238.036 3.65 240.669 3.2 243.503 3.2C246.369 3.2 249.003 3.65 251.403 4.55C253.803 5.45 255.886 6.73333 257.653 8.4C259.419 10.0333 260.786 11.9667 261.753 14.2C262.753 16.4 263.253 18.8333 263.253 21.5C263.253 24.1333 262.753 26.5667 261.753 28.8C260.786 31.0333 259.419 32.9833 257.653 34.65C255.886 36.2833 253.803 37.55 251.403 38.45C249.003 39.35 246.369 39.8 243.503 39.8ZM243.503 30.25C244.603 30.25 245.619 30.05 246.553 29.65C247.519 29.25 248.353 28.6833 249.053 27.95C249.786 27.1833 250.353 26.2667 250.753 25.2C251.153 24.1 251.353 22.8667 251.353 21.5C251.353 20.1333 251.153 18.9167 250.753 17.85C250.353 16.75 249.786 15.8333 249.053 15.1C248.353 14.3333 247.519 13.75 246.553 13.35C245.619 12.95 244.603 12.75 243.503 12.75C242.403 12.75 241.369 12.95 240.403 13.35C239.469 13.75 238.636 14.3333 237.903 15.1C237.203 15.8333 236.653 16.75 236.253 17.85C235.853 18.9167 235.653 20.1333 235.653 21.5C235.653 22.8667 235.853 24.1 236.253 25.2C236.653 26.2667 237.203 27.1833 237.903 27.95C238.636 28.6833 239.469 29.25 240.403 29.65C241.369 30.05 242.403 30.25 243.503 30.25ZM267.536 39V4H277.236L295.036 25.3H290.536V4H302.036V39H292.336L274.536 17.7H279.036V39H267.536ZM318.521 17H334.121V25.5H318.521V17ZM319.321 30.1H336.821V39H307.721V4H336.171V12.9H319.321V30.1ZM350.12 39V23.65L352.82 30.7L336.92 4H349.37L360.12 22.25H352.87L363.72 4H375.12L359.32 30.7L361.92 23.65V39H350.12Z"/>
</mask>
<path d="M3.08242 39H0.0824221V42H3.08242V39ZM3.08242 4V0.999998H0.0824221V4H3.08242ZM28.3824 5.6L27.1497 8.33504L27.1569 8.33825L27.164 8.34143L28.3824 5.6ZM33.9324 10.2L31.4171 11.835L31.4234 11.8447L31.4298 11.8543L33.9324 10.2ZM33.9324 24.2L31.4298 22.5457V22.5457L33.9324 24.2ZM28.3824 28.8L29.6151 31.535L29.6238 31.5311L29.6324 31.5272L28.3824 28.8ZM9.63242 30.4L7.55268 28.2379L2.18614 33.4H9.63242V30.4ZM14.8824 25.35H17.8824V18.3017L12.8027 23.1879L14.8824 25.35ZM14.8824 39V42H17.8824V39H14.8824ZM14.8824 26.65L12.7412 28.7512L17.8824 33.9904V26.65H14.8824ZM9.63242 21.3V18.3H2.48532L7.49118 23.4012L9.63242 21.3ZM22.7824 20.2L20.7552 17.9885L20.7318 18.0101L20.7088 18.0321L22.7824 20.2ZM22.7824 14.2L20.7088 16.3679L20.7318 16.3899L20.7553 16.4115L22.7824 14.2ZM9.63242 13.1L7.49118 10.9988L2.48532 16.1H9.63242V13.1ZM14.8824 7.75H17.8824V0.40962L12.7412 5.64879L14.8824 7.75ZM3.08242 39H6.08242V4H3.08242H0.0824221V39H3.08242ZM3.08242 4V7H19.9324V4V0.999998H3.08242V4ZM19.9324 4V7C22.8804 7 25.257 7.48198 27.1497 8.33504L28.3824 5.6L29.6151 2.86495C26.7745 1.58468 23.5178 0.999998 19.9324 0.999998V4ZM28.3824 5.6L27.164 8.34143C29.0894 9.19717 30.4649 10.3701 31.4171 11.835L33.9324 10.2L36.4478 8.56503C34.7999 6.02991 32.4754 4.13616 29.6008 2.85856L28.3824 5.6ZM33.9324 10.2L31.4298 11.8543C32.3601 13.2617 32.8824 15.0004 32.8824 17.2H35.8824H38.8824C38.8824 13.9996 38.1048 11.0716 36.4351 8.5457L33.9324 10.2ZM35.8824 17.2H32.8824C32.8824 19.3996 32.3601 21.1383 31.4298 22.5457L33.9324 24.2L36.4351 25.8543C38.1048 23.3284 38.8824 20.4004 38.8824 17.2H35.8824ZM33.9324 24.2L31.4298 22.5457C30.4749 23.9902 29.0857 25.1776 27.1325 26.0728L28.3824 28.8L29.6324 31.5272C32.4791 30.2224 34.7899 28.3431 36.4351 25.8543L33.9324 24.2ZM28.3824 28.8L27.1497 26.065C25.257 26.918 22.8804 27.4 19.9324 27.4V30.4V33.4C23.5178 33.4 26.7745 32.8153 29.6151 31.535L28.3824 28.8ZM19.9324 30.4V27.4H9.63242V30.4V33.4H19.9324V30.4ZM9.63242 30.4L11.7122 32.5621L16.9622 27.5121L14.8824 25.35L12.8027 23.1879L7.55268 28.2379L9.63242 30.4ZM14.8824 25.35H11.8824V39H14.8824H17.8824V25.35H14.8824ZM14.8824 39V36H3.08242V39V42H14.8824V39ZM14.8824 26.65L17.0237 24.5488L11.7737 19.1988L9.63242 21.3L7.49118 23.4012L12.7412 28.7512L14.8824 26.65ZM9.63242 21.3V24.3H19.1824V21.3V18.3H9.63242V21.3ZM19.1824 21.3V24.3C21.1834 24.3 23.2946 23.8615 24.8561 22.3679L22.7824 20.2L20.7088 18.0321C20.7369 18.0052 20.4481 18.3 19.1824 18.3V21.3ZM22.7824 20.2L24.8096 22.4115C26.3345 21.0136 26.9824 19.1537 26.9824 17.2H23.9824H20.9824C20.9824 17.7797 20.8303 17.9197 20.7552 17.9885L22.7824 20.2ZM23.9824 17.2H26.9824C26.9824 15.2463 26.3345 13.3864 24.8096 11.9885L22.7824 14.2L20.7553 16.4115C20.8303 16.4803 20.9824 16.6203 20.9824 17.2H23.9824ZM22.7824 14.2L24.8561 12.0321C23.2946 10.5385 21.1834 10.1 19.1824 10.1V13.1V16.1C20.4481 16.1 20.7369 16.3948 20.7088 16.3679L22.7824 14.2ZM19.1824 13.1V10.1H9.63242V13.1V16.1H19.1824V13.1ZM9.63242 13.1L11.7737 15.2012L17.0237 9.85122L14.8824 7.75L12.7412 5.64879L7.49118 10.9988L9.63242 13.1ZM14.8824 7.75H11.8824V26.65H14.8824H17.8824V7.75H14.8824ZM39.7523 39H36.7523V42H39.7523V39ZM39.7523 4V0.999998H36.7523V4H39.7523ZM65.0523 5.6L63.8196 8.33504L63.8268 8.33825L63.8339 8.34143L65.0523 5.6ZM70.6023 10.2L68.087 11.835L68.0933 11.8447L68.0997 11.8543L70.6023 10.2ZM70.6023 24.2L73.0919 25.874L73.0985 25.8642L73.105 25.8543L70.6023 24.2ZM65.0523 28.65L63.866 25.8945L63.8589 25.8976L63.8519 25.9006L65.0523 28.65ZM46.3023 30.2L44.2666 27.9964L38.6339 33.2H46.3023V30.2ZM51.5523 25.35H54.5523V18.4944L49.5166 23.1464L51.5523 25.35ZM51.5523 39V42H54.5523V39H51.5523ZM60.7023 39L58.2152 40.6776L59.1072 42H60.7023V39ZM52.1023 26.25V23.25H46.4602L49.6152 27.9276L52.1023 26.25ZM64.6023 26.25L67.0804 24.5591L66.1871 23.25H64.6023V26.25ZM73.3023 39V42H78.9813L75.7804 37.3091L73.3023 39ZM51.5523 26.65L49.4111 28.7512L54.5523 33.9904V26.65H51.5523ZM46.3023 21.3V18.3H39.1552L44.1611 23.4012L46.3023 21.3ZM59.4523 20.2L57.4252 17.9885L57.4017 18.0101L57.3787 18.0321L59.4523 20.2ZM59.4523 14.2L57.3787 16.3679L57.4017 16.3899L57.4252 16.4115L59.4523 14.2ZM46.3023 13.1L44.1611 10.9988L39.1552 16.1H46.3023V13.1ZM51.5523 7.75H54.5523V0.40962L49.4111 5.64879L51.5523 7.75ZM39.7523 39H42.7523V4H39.7523H36.7523V39H39.7523ZM39.7523 4V7H56.6023V4V0.999998H39.7523V4ZM56.6023 4V7C59.5503 7 61.9269 7.48198 63.8196 8.33504L65.0523 5.6L66.285 2.86495C63.4444 1.58468 60.1877 0.999998 56.6023 0.999998V4ZM65.0523 5.6L63.8339 8.34143C65.7593 9.19717 67.1348 10.3701 68.087 11.835L70.6023 10.2L73.1177 8.56503C71.4698 6.02991 69.1453 4.13616 66.2708 2.85856L65.0523 5.6ZM70.6023 10.2L68.0997 11.8543C69.03 13.2617 69.5523 15.0004 69.5523 17.2H72.5523H75.5523C75.5523 13.9996 74.7747 11.0716 73.105 8.5457L70.6023 10.2ZM72.5523 17.2H69.5523C69.5523 19.3996 69.03 21.1383 68.0997 22.5457L70.6023 24.2L73.105 25.8543C74.7747 23.3284 75.5523 20.4004 75.5523 17.2H72.5523ZM70.6023 24.2L68.1128 22.526C67.1724 23.9245 65.8031 25.0605 63.866 25.8945L65.0523 28.65L66.2387 31.4055C69.1015 30.1728 71.4323 28.3421 73.0919 25.874L70.6023 24.2ZM65.0523 28.65L63.8519 25.9006C61.95 26.7311 59.5615 27.2 56.6023 27.2V30.2V33.2C60.1765 33.2 63.4214 32.6356 66.2528 31.3994L65.0523 28.65ZM56.6023 30.2V27.2H46.3023V30.2V33.2H56.6023V30.2ZM46.3023 30.2L48.3381 32.4036L53.5881 27.5536L51.5523 25.35L49.5166 23.1464L44.2666 27.9964L46.3023 30.2ZM51.5523 25.35H48.5523V39H51.5523H54.5523V25.35H51.5523ZM51.5523 39V36H39.7523V39V42H51.5523V39ZM60.7023 39L63.1895 37.3224L54.5895 24.5724L52.1023 26.25L49.6152 27.9276L58.2152 40.6776L60.7023 39ZM52.1023 26.25V29.25H64.6023V26.25V23.25H52.1023V26.25ZM64.6023 26.25L62.1243 27.9409L70.8243 40.6909L73.3023 39L75.7804 37.3091L67.0804 24.5591L64.6023 26.25ZM73.3023 39V36H60.7023V39V42H73.3023V39ZM51.5523 26.65L53.6936 24.5488L48.4436 19.1988L46.3023 21.3L44.1611 23.4012L49.4111 28.7512L51.5523 26.65ZM46.3023 21.3V24.3H55.8523V21.3V18.3H46.3023V21.3ZM55.8523 21.3V24.3C57.8533 24.3 59.9645 23.8615 61.526 22.3679L59.4523 20.2L57.3787 18.0321C57.4068 18.0052 57.118 18.3 55.8523 18.3V21.3ZM59.4523 20.2L61.4795 22.4115C63.0044 21.0136 63.6523 19.1537 63.6523 17.2H60.6523H57.6523C57.6523 17.7797 57.5003 17.9197 57.4252 17.9885L59.4523 20.2ZM60.6523 17.2H63.6523C63.6523 15.2463 63.0044 13.3864 61.4795 11.9885L59.4523 14.2L57.4252 16.4115C57.5003 16.4803 57.6523 16.6203 57.6523 17.2H60.6523ZM59.4523 14.2L61.526 12.0321C59.9645 10.5385 57.8533 10.1 55.8523 10.1V13.1V16.1C57.118 16.1 57.4068 16.3948 57.3787 16.3679L59.4523 14.2ZM55.8523 13.1V10.1H46.3023V13.1V16.1H55.8523V13.1ZM46.3023 13.1L48.4436 15.2012L53.6936 9.85122L51.5523 7.75L49.4111 5.64879L44.1611 10.9988L46.3023 13.1ZM51.5523 7.75H48.5523V26.65H51.5523H54.5523V7.75H51.5523ZM77.0082 39H74.0082V42H77.0082V39ZM77.0082 4V0.999998H74.0082V4H77.0082ZM88.8082 4H91.8082V0.999998H88.8082V4ZM88.8082 39V42H91.8082V39H88.8082ZM77.0082 39H80.0082V4H77.0082H74.0082V39H77.0082ZM77.0082 4V7H88.8082V4V0.999998H77.0082V4ZM88.8082 4H85.8082V39H88.8082H91.8082V4H88.8082ZM88.8082 39V36H77.0082V39V42H88.8082V39ZM93.2387 39H90.2387V42H93.2387V39ZM93.2387 31.75L90.963 29.7952L90.2387 30.6384V31.75H93.2387ZM112.739 9.05L115.567 8.04973L113.839 3.16473L110.463 7.09515L112.739 9.05ZM114.189 13.15V16.15H118.432L117.017 12.1497L114.189 13.15ZM93.7387 13.15H90.7387V16.15H93.7387V13.15ZM93.7387 4V0.999998H90.7387V4H93.7387ZM124.589 4H127.589V0.999998H124.589V4ZM124.589 11.25L126.864 13.2048L127.589 12.3616V11.25H124.589ZM105.089 33.95L102.26 34.9503L103.988 39.8353L107.364 35.9049L105.089 33.95ZM103.639 29.85V26.85H99.3956L100.81 30.8503L103.639 29.85ZM125.389 29.85H128.389V26.85H125.389V29.85ZM125.389 39V42H128.389V39H125.389ZM93.2387 39H96.2387V31.75H93.2387H90.2387V39H93.2387ZM93.2387 31.75L95.5143 33.7048L115.014 11.0048L112.739 9.05L110.463 7.09515L90.963 29.7952L93.2387 31.75ZM112.739 9.05L109.91 10.0503L111.36 14.1503L114.189 13.15L117.017 12.1497L115.567 8.04973L112.739 9.05ZM114.189 13.15V10.15H93.7387V13.15V16.15H114.189V13.15ZM93.7387 13.15H96.7387V4H93.7387H90.7387V13.15H93.7387ZM93.7387 4V7H124.589V4V0.999998H93.7387V4ZM124.589 4H121.589V11.25H124.589H127.589V4H124.589ZM124.589 11.25L122.313 9.29515L102.813 31.9952L105.089 33.95L107.364 35.9049L126.864 13.2048L124.589 11.25ZM105.089 33.95L107.917 32.9497L106.467 28.8497L103.639 29.85L100.81 30.8503L102.26 34.9503L105.089 33.95ZM103.639 29.85V32.85H125.389V29.85V26.85H103.639V29.85ZM125.389 29.85H122.389V39H125.389H128.389V29.85H125.389ZM125.389 39V36H93.2387V39V42H125.389V39ZM139.615 17V14H136.615V17H139.615ZM155.215 17H158.215V14H155.215V17ZM155.215 25.5V28.5H158.215V25.5H155.215ZM139.615 25.5H136.615V28.5H139.615V25.5ZM140.415 30.1H137.415V33.1H140.415V30.1ZM157.915 30.1H160.915V27.1H157.915V30.1ZM157.915 39V42H160.915V39H157.915ZM128.815 39H125.815V42H128.815V39ZM128.815 4V0.999998H125.815V4H128.815ZM157.265 4H160.265V0.999998H157.265V4ZM157.265 12.9V15.9H160.265V12.9H157.265ZM140.415 12.9V9.9H137.415V12.9H140.415ZM139.615 17V20H155.215V17V14H139.615V17ZM155.215 17H152.215V25.5H155.215H158.215V17H155.215ZM155.215 25.5V22.5H139.615V25.5V28.5H155.215V25.5ZM139.615 25.5H142.615V17H139.615H136.615V25.5H139.615ZM140.415 30.1V33.1H157.915V30.1V27.1H140.415V30.1ZM157.915 30.1H154.915V39H157.915H160.915V30.1H157.915ZM157.915 39V36H128.815V39V42H157.915V39ZM128.815 39H131.815V4H128.815H125.815V39H128.815ZM128.815 4V7H157.265V4V0.999998H128.815V4ZM157.265 4H154.265V12.9H157.265H160.265V4H157.265ZM157.265 12.9V9.9H140.415V12.9V15.9H157.265V12.9ZM140.415 12.9H137.415V30.1H140.415H143.415V12.9H140.415ZM177.448 39H174.448V42H177.448V39ZM177.448 4V0.999998H174.448V4H177.448ZM187.148 4L189.706 2.4327L188.828 0.999998H187.148V4ZM201.148 26.85V29.85H206.504L203.706 25.2827L201.148 26.85ZM196.048 26.85L193.47 25.3156L190.771 29.85H196.048V26.85ZM209.648 4V0.999998H207.942L207.07 2.46564L209.648 4ZM219.348 4L222.348 3.99143L222.339 0.999998H219.348V4ZM219.448 39V42H222.456L222.448 38.9914L219.448 39ZM208.698 39L205.698 39.016L205.714 42H208.698V39ZM208.598 20.2V17.2H205.582L205.598 20.216L208.598 20.2ZM210.298 20.2L212.877 21.7326L215.57 17.2H210.298V20.2ZM200.998 35.85V38.85H202.705L203.577 37.3826L200.998 35.85ZM195.798 35.85L193.248 37.4305L194.128 38.85H195.798V35.85ZM186.098 20.2V17.2H180.709L183.548 21.7805L186.098 20.2ZM188.198 20.2H191.198V17.2H188.198V20.2ZM188.198 39V42H191.198V39H188.198ZM177.448 39H180.448V4H177.448H174.448V39H177.448ZM177.448 4V7H187.148V4V0.999998H177.448V4ZM187.148 4L184.59 5.56729L198.59 28.4173L201.148 26.85L203.706 25.2827L189.706 2.4327L187.148 4ZM201.148 26.85V23.85H196.048V26.85V29.85H201.148V26.85ZM196.048 26.85L198.626 28.3843L212.226 5.53435L209.648 4L207.07 2.46564L193.47 25.3156L196.048 26.85ZM209.648 4V7H219.348V4V0.999998H209.648V4ZM219.348 4L216.348 4.00857L216.448 39.0086L219.448 39L222.448 38.9914L222.348 3.99143L219.348 4ZM219.448 39V36H208.698V39V42H219.448V39ZM208.698 39L211.698 38.984L211.598 20.184L208.598 20.2L205.598 20.216L205.698 39.016L208.698 39ZM208.598 20.2V23.2H210.298V20.2V17.2H208.598V20.2ZM210.298 20.2L207.719 18.6674L198.419 34.3174L200.998 35.85L203.577 37.3826L212.877 21.7326L210.298 20.2ZM200.998 35.85V32.85H195.798V35.85V38.85H200.998V35.85ZM195.798 35.85L198.348 34.2695L188.648 18.6195L186.098 20.2L183.548 21.7805L193.248 37.4305L195.798 35.85ZM186.098 20.2V23.2H188.198V20.2V17.2H186.098V20.2ZM188.198 20.2H185.198V39H188.198H191.198V20.2H188.198ZM188.198 39V36H177.448V39V42H188.198V39ZM235.603 38.45L234.549 41.259L234.562 41.2637L235.603 38.45ZM229.353 34.65L227.294 36.8322L227.305 36.8426L227.316 36.8528L229.353 34.65ZM225.203 28.8L222.45 29.9917L222.457 30.0089L222.465 30.026L225.203 28.8ZM225.203 14.2L222.465 12.974L222.46 12.9836L222.456 12.9932L225.203 14.2ZM229.353 8.4L231.389 10.6028L231.4 10.5926L231.411 10.5822L229.353 8.4ZM235.603 4.55L234.562 1.73626L234.549 1.74101L235.603 4.55ZM251.403 4.55L250.349 7.35899V7.35899L251.403 4.55ZM257.653 8.4L255.594 10.5822L255.605 10.5926L255.616 10.6028L257.653 8.4ZM261.753 14.2L259 15.3917L259.01 15.4166L259.022 15.4414L261.753 14.2ZM261.753 28.8L259.015 27.574L259.007 27.5911L259 27.6083L261.753 28.8ZM257.653 34.65L259.689 36.8528L259.7 36.8426L259.711 36.8322L257.653 34.65ZM251.403 38.45L250.349 35.641L251.403 38.45ZM246.553 29.65L245.406 26.8779L245.388 26.8851L245.371 26.8926L246.553 29.65ZM249.053 27.95L246.885 25.8763L246.883 25.8786L249.053 27.95ZM250.753 25.2L253.562 26.2534L253.567 26.2393L253.572 26.2252L250.753 25.2ZM250.753 17.85L247.933 18.8752L247.938 18.8893L247.944 18.9034L250.753 17.85ZM249.053 15.1L246.837 17.1228L246.883 17.1731L246.931 17.2213L249.053 15.1ZM246.553 13.35L245.371 16.1074L245.388 16.1149L245.406 16.1221L246.553 13.35ZM240.403 13.35L239.256 10.5779L239.238 10.5851L239.221 10.5926L240.403 13.35ZM237.903 15.1L235.735 13.0263L235.733 13.0286L237.903 15.1ZM236.253 17.85L239.062 18.9034L239.067 18.8893L239.072 18.8752L236.253 17.85ZM236.253 25.2L233.433 26.2252L233.438 26.2393L233.444 26.2534L236.253 25.2ZM237.903 27.95L235.687 29.9728L235.733 30.0231L235.781 30.0713L237.903 27.95ZM240.403 29.65L239.221 32.4074L239.238 32.4149L239.256 32.4221L240.403 29.65ZM243.503 39.8V36.8C240.992 36.8 238.714 36.4022 236.643 35.6363L235.603 38.45L234.562 41.2637C237.358 42.2978 240.347 42.8 243.503 42.8V39.8ZM235.603 38.45L236.656 35.641C234.596 34.8685 232.852 33.7998 231.389 32.4472L229.353 34.65L227.316 36.8528C229.386 38.7669 231.81 40.2315 234.549 41.259L235.603 38.45ZM229.353 34.65L231.411 32.4678C229.934 31.0742 228.781 29.4498 227.941 27.574L225.203 28.8L222.465 30.026C223.625 32.6169 225.238 34.8925 227.294 36.8322L229.353 34.65ZM225.203 28.8L227.956 27.6083C227.165 25.7812 226.753 23.7574 226.753 21.5H223.753H220.753C220.753 24.5092 221.307 27.3521 222.45 29.9917L225.203 28.8ZM223.753 21.5H226.753C226.753 19.203 227.167 17.1866 227.949 15.4068L225.203 14.2L222.456 12.9932C221.305 15.6134 220.753 18.4636 220.753 21.5H223.753ZM225.203 14.2L227.941 15.426C228.778 13.5558 229.925 11.9565 231.389 10.6028L229.353 8.4L227.316 6.19718C225.247 8.11021 223.627 10.3775 222.465 12.974L225.203 14.2ZM229.353 8.4L231.411 10.5822C232.872 9.20418 234.609 8.12683 236.656 7.35899L235.603 4.55L234.549 1.74101C231.797 2.77317 229.367 4.26249 227.294 6.21782L229.353 8.4ZM235.603 4.55L236.643 7.36371C238.714 6.59778 240.992 6.2 243.503 6.2V3.2V0.199999C240.347 0.199999 237.358 0.702213 234.562 1.73629L235.603 4.55ZM243.503 3.2V6.2C246.052 6.2 248.324 6.59936 250.349 7.35899L251.403 4.55L252.456 1.74101C249.682 0.700639 246.687 0.199999 243.503 0.199999V3.2ZM251.403 4.55L250.349 7.35899C252.397 8.12683 254.133 9.20418 255.594 10.5822L257.653 8.4L259.711 6.21782C257.639 4.26249 255.209 2.77317 252.456 1.74101L251.403 4.55ZM257.653 8.4L255.616 10.6028C257.073 11.9493 258.197 13.5371 259 15.3917L261.753 14.2L264.506 13.0083C263.375 10.3963 261.766 8.11734 259.689 6.19718L257.653 8.4ZM261.753 14.2L259.022 15.4414C259.827 17.2128 260.253 19.2169 260.253 21.5H263.253H266.253C266.253 18.4498 265.679 15.5872 264.484 12.9586L261.753 14.2ZM263.253 21.5H260.253C260.253 23.7434 259.829 25.755 259.015 27.574L261.753 28.8L264.491 30.026C265.676 27.3783 266.253 24.5232 266.253 21.5H263.253ZM261.753 28.8L259 27.6083C258.194 29.4685 257.064 31.0813 255.594 32.4678L257.653 34.65L259.711 36.8322C261.775 34.8854 263.378 32.5981 264.506 29.9917L261.753 28.8ZM257.653 34.65L255.616 32.4472C254.153 33.7998 252.41 34.8685 250.349 35.641L251.403 38.45L252.456 41.259C255.196 40.2315 257.619 38.7669 259.689 36.8528L257.653 34.65ZM251.403 38.45L250.349 35.641C248.324 36.4006 246.052 36.8 243.503 36.8V39.8V42.8C246.687 42.8 249.682 42.2994 252.456 41.259L251.403 38.45ZM243.503 30.25V33.25C244.975 33.25 246.398 32.9804 247.734 32.4074L246.553 29.65L245.371 26.8926C244.841 27.1196 244.231 27.25 243.503 27.25V30.25ZM246.553 29.65L247.7 32.4221C249.04 31.8675 250.225 31.0667 251.223 30.0214L249.053 27.95L246.883 25.8786C246.48 26.2999 245.999 26.6325 245.406 26.8779L246.553 29.65ZM249.053 27.95L251.221 30.0237C252.255 28.9426 253.03 27.6716 253.562 26.2534L250.753 25.2L247.944 24.1466C247.676 24.8617 247.317 25.424 246.885 25.8763L249.053 27.95ZM250.753 25.2L253.572 26.2252C254.11 24.7466 254.353 23.1589 254.353 21.5H251.353H248.353C248.353 22.5745 248.196 23.4534 247.933 24.1748L250.753 25.2ZM251.353 21.5H254.353C254.353 19.8435 254.11 18.2599 253.562 16.7966L250.753 17.85L247.944 18.9034C248.195 19.5734 248.353 20.4231 248.353 21.5H251.353ZM250.753 17.85L253.572 16.8248C253.042 15.366 252.255 14.0596 251.174 12.9787L249.053 15.1L246.931 17.2213C247.317 17.607 247.664 18.134 247.933 18.8752L250.753 17.85ZM249.053 15.1L251.268 13.0772C250.269 11.9828 249.07 11.1449 247.7 10.5779L246.553 13.35L245.406 16.1221C245.969 16.3551 246.436 16.6838 246.837 17.1228L249.053 15.1ZM246.553 13.35L247.734 10.5926C246.398 10.0196 244.975 9.75 243.503 9.75V12.75V15.75C244.231 15.75 244.841 15.8804 245.371 16.1074L246.553 13.35ZM243.503 12.75V9.75C242.03 9.75 240.605 10.0198 239.256 10.5779L240.403 13.35L241.55 16.122C242.134 15.8802 242.776 15.75 243.503 15.75V12.75ZM240.403 13.35L239.221 10.5926C237.9 11.1589 236.735 11.981 235.735 13.0263L237.903 15.1L240.071 17.1737C240.537 16.6857 241.039 16.3411 241.584 16.1074L240.403 13.35ZM237.903 15.1L235.733 13.0286C234.705 14.1049 233.953 15.3947 233.433 16.8248L236.253 17.85L239.072 18.8752C239.352 18.1053 239.7 17.5618 240.073 17.1714L237.903 15.1ZM236.253 17.85L233.444 16.7966C232.895 18.2599 232.653 19.8435 232.653 21.5H235.653H238.653C238.653 20.4231 238.81 19.5734 239.062 18.9034L236.253 17.85ZM235.653 21.5H232.653C232.653 23.1589 232.896 24.7466 233.433 26.2252L236.253 25.2L239.072 24.1748C238.81 23.4534 238.653 22.5745 238.653 21.5H235.653ZM236.253 25.2L233.444 26.2534C233.965 27.6431 234.705 28.8975 235.687 29.9728L237.903 27.95L240.118 25.9272C239.7 25.4692 239.341 24.8902 239.062 24.1466L236.253 25.2ZM237.903 27.95L235.781 30.0713C236.779 31.0686 237.929 31.8538 239.221 32.4074L240.403 29.65L241.584 26.8926C241.01 26.6461 240.493 26.298 240.024 25.8287L237.903 27.95ZM240.403 29.65L239.256 32.4221C240.605 32.9802 242.03 33.25 243.503 33.25V30.25V27.25C242.776 27.25 242.134 27.1198 241.55 26.8779L240.403 29.65ZM267.536 39H264.536V42H267.536V39ZM267.536 4V0.999998H264.536V4H267.536ZM277.236 4L279.538 2.07626L278.638 0.999998H277.236V4ZM295.036 25.3V28.3H301.452L297.338 23.3763L295.036 25.3ZM290.536 25.3H287.536V28.3H290.536V25.3ZM290.536 4V0.999998H287.536V4H290.536ZM302.036 4H305.036V0.999998H302.036V4ZM302.036 39V42H305.036V39H302.036ZM292.336 39L290.034 40.9237L290.933 42H292.336V39ZM274.536 17.7V14.7H268.119L272.234 19.6237L274.536 17.7ZM279.036 17.7H282.036V14.7H279.036V17.7ZM279.036 39V42H282.036V39H279.036ZM267.536 39H270.536V4H267.536H264.536V39H267.536ZM267.536 4V7H277.236V4V0.999998H267.536V4ZM277.236 4L274.934 5.92374L292.734 27.2237L295.036 25.3L297.338 23.3763L279.538 2.07626L277.236 4ZM295.036 25.3V22.3H290.536V25.3V28.3H295.036V25.3ZM290.536 25.3H293.536V4H290.536H287.536V25.3H290.536ZM290.536 4V7H302.036V4V0.999998H290.536V4ZM302.036 4H299.036V39H302.036H305.036V4H302.036ZM302.036 39V36H292.336V39V42H302.036V39ZM292.336 39L294.638 37.0763L276.838 15.7763L274.536 17.7L272.234 19.6237L290.034 40.9237L292.336 39ZM274.536 17.7V20.7H279.036V17.7V14.7H274.536V17.7ZM279.036 17.7H276.036V39H279.036H282.036V17.7H279.036ZM279.036 39V36H267.536V39V42H279.036V39ZM318.521 17V14H315.521V17H318.521ZM334.121 17H337.121V14H334.121V17ZM334.121 25.5V28.5H337.121V25.5H334.121ZM318.521 25.5H315.521V28.5H318.521V25.5ZM319.321 30.1H316.321V33.1H319.321V30.1ZM336.821 30.1H339.821V27.1H336.821V30.1ZM336.821 39V42H339.821V39H336.821ZM307.721 39H304.721V42H307.721V39ZM307.721 4V0.999998H304.721V4H307.721ZM336.171 4H339.171V0.999998H336.171V4ZM336.171 12.9V15.9H339.171V12.9H336.171ZM319.321 12.9V9.9H316.321V12.9H319.321ZM318.521 17V20H334.121V17V14H318.521V17ZM334.121 17H331.121V25.5H334.121H337.121V17H334.121ZM334.121 25.5V22.5H318.521V25.5V28.5H334.121V25.5ZM318.521 25.5H321.521V17H318.521H315.521V25.5H318.521ZM319.321 30.1V33.1H336.821V30.1V27.1H319.321V30.1ZM336.821 30.1H333.821V39H336.821H339.821V30.1H336.821ZM336.821 39V36H307.721V39V42H336.821V39ZM307.721 39H310.721V4H307.721H304.721V39H307.721ZM307.721 4V7H336.171V4V0.999998H307.721V4ZM336.171 4H333.171V12.9H336.171H339.171V4H336.171ZM336.171 12.9V9.9H319.321V12.9V15.9H336.171V12.9ZM319.321 12.9H316.321V30.1H319.321H322.321V12.9H319.321ZM350.12 39H347.12V42H350.12V39ZM350.12 23.65L352.921 22.5771L347.12 23.65H350.12ZM352.82 30.7L350.242 32.235L355.621 29.6271L352.82 30.7ZM336.92 4V0.999998H331.641L334.342 5.53496L336.92 4ZM349.37 4L351.954 2.47739L351.084 0.999998H349.37V4ZM360.12 22.25V25.25H365.368L362.704 20.7274L360.12 22.25ZM352.87 22.25L350.291 20.7169L347.596 25.25H352.87V22.25ZM363.72 4V0.999998H362.013L361.141 2.46691L363.72 4ZM375.12 4L377.701 5.52781L380.381 0.999998H375.12V4ZM359.32 30.7L356.505 29.662L361.901 32.2278L359.32 30.7ZM361.92 23.65H364.92L359.105 22.612L361.92 23.65ZM361.92 39V42H364.92V39H361.92ZM350.12 39H353.12V23.65H350.12H347.12V39H350.12ZM350.12 23.65L347.318 24.7229L350.018 31.7729L352.82 30.7L355.621 29.6271L352.921 22.5771L350.12 23.65ZM352.82 30.7L355.397 29.165L339.497 2.46504L336.92 4L334.342 5.53496L350.242 32.235L352.82 30.7ZM336.92 4V7H349.37V4V0.999998H336.92V4ZM349.37 4L346.785 5.5226L357.535 23.7726L360.12 22.25L362.704 20.7274L351.954 2.47739L349.37 4ZM360.12 22.25V19.25H352.87V22.25V25.25H360.12V22.25ZM352.87 22.25L355.448 23.7831L366.298 5.53308L363.72 4L361.141 2.46691L350.291 20.7169L352.87 22.25ZM363.72 4V7H375.12V4V0.999998H363.72V4ZM375.12 4L372.538 2.47218L356.738 29.1722L359.32 30.7L361.901 32.2278L377.701 5.52781L375.12 4ZM359.32 30.7L362.134 31.738L364.734 24.688L361.92 23.65L359.105 22.612L356.505 29.662L359.32 30.7ZM361.92 23.65H358.92V39H361.92H364.92V23.65H361.92ZM361.92 39V36H350.12V39V42H361.92V39Z" fill="url(#paint0_linear_312_461)" mask="url(#path-1-outside-1_312_461)"/>
<defs>
<linearGradient id="paint0_linear_312_461" x1="187" y1="-9" x2="187" y2="52" gradientUnits="userSpaceOnUse">
<stop stop-color="#E51D25"/>
<stop offset="1" stop-color="#1D3A69"/>
</linearGradient>
</defs>
</svg>
