<svg width="403" height="27" viewBox="0 0 403 27" fill="none" xmlns="http://www.w3.org/2000/svg">
<mask id="path-1-outside-1_313_588" maskUnits="userSpaceOnUse" x="0" y="0" width="403" height="27" fill="black">
<rect fill="white" width="403" height="27"/>
<path d="M5.98926 24V5.46L9.01926 8.34H2.38926V3H13.0693V24H5.98926ZM25.1583 24.48C23.2983 24.48 21.6483 24.05 20.2083 23.19C18.7883 22.33 17.6683 21.08 16.8483 19.44C16.0483 17.8 15.6483 15.82 15.6483 13.5C15.6483 11.18 16.0483 9.2 16.8483 7.56C17.6683 5.92 18.7883 4.67 20.2083 3.81C21.6483 2.95 23.2983 2.52 25.1583 2.52C27.0183 2.52 28.6583 2.95 30.0783 3.81C31.5183 4.67 32.6383 5.92 33.4383 7.56C34.2583 9.2 34.6683 11.18 34.6683 13.5C34.6683 15.82 34.2583 17.8 33.4383 19.44C32.6383 21.08 31.5183 22.33 30.0783 23.19C28.6583 24.05 27.0183 24.48 25.1583 24.48ZM25.1583 18.81C25.6183 18.81 26.0283 18.65 26.3883 18.33C26.7483 18.01 27.0283 17.46 27.2283 16.68C27.4483 15.9 27.5583 14.84 27.5583 13.5C27.5583 12.14 27.4483 11.08 27.2283 10.32C27.0283 9.54 26.7483 8.99 26.3883 8.67C26.0283 8.35 25.6183 8.19 25.1583 8.19C24.6983 8.19 24.2883 8.35 23.9283 8.67C23.5683 8.99 23.2783 9.54 23.0583 10.32C22.8583 11.08 22.7583 12.14 22.7583 13.5C22.7583 14.84 22.8583 15.9 23.0583 16.68C23.2783 17.46 23.5683 18.01 23.9283 18.33C24.2883 18.65 24.6983 18.81 25.1583 18.81ZM52.5839 19.5L52.1939 11.73L60.1139 3H67.8239L58.9439 12.78L55.0139 16.8L52.5839 19.5ZM46.2539 24V3H53.2139V24H46.2539ZM60.0539 24L53.8739 15.84L58.4639 10.98L68.2439 24H60.0539ZM69.1934 24V3H75.0134L83.4134 16.71H80.3534L88.5134 3H94.3334L94.3934 24H87.9434L87.8834 12.72H88.9034L83.3234 22.11H80.2034L74.3834 12.72H75.6434V24H69.1934ZM113.411 24L104.531 3H112.151L119.381 20.73H114.851L122.291 3H129.251L120.371 24H113.411ZM129.955 24V3H137.035V24H129.955ZM145.753 24.48C144.113 24.48 142.633 24.22 141.313 23.7C139.993 23.16 138.893 22.38 138.013 21.36L141.823 16.86C142.383 17.54 142.933 18.06 143.473 18.42C144.013 18.76 144.573 18.93 145.153 18.93C146.673 18.93 147.433 18.06 147.433 16.32V8.34H140.293V3H154.423V15.9C154.423 18.78 153.683 20.93 152.203 22.35C150.723 23.77 148.573 24.48 145.753 24.48ZM154.951 24L164.131 3H171.091L180.271 24H172.951L166.171 6.36H168.931L162.151 24H154.951ZM160.411 20.34L162.211 15.24H171.871L173.671 20.34H160.411ZM185.453 24V14.79L187.073 19.02L177.533 3H185.003L191.453 13.95H187.103L193.613 3H200.453L190.973 19.02L192.533 14.79V24H185.453ZM210.346 24V3H220.696C223.036 3 225.096 3.43 226.876 4.29C228.656 5.13 230.046 6.33 231.046 7.89C232.046 9.45 232.546 11.31 232.546 13.47C232.546 15.65 232.046 17.53 231.046 19.11C230.046 20.67 228.656 21.88 226.876 22.74C225.096 23.58 223.036 24 220.696 24H210.346ZM217.426 18.48H220.396C221.396 18.48 222.266 18.29 223.006 17.91C223.766 17.53 224.356 16.97 224.776 16.23C225.196 15.47 225.406 14.55 225.406 13.47C225.406 12.41 225.196 11.51 224.776 10.77C224.356 10.03 223.766 9.47 223.006 9.09C222.266 8.71 221.396 8.52 220.396 8.52H217.426V18.48ZM235.131 24V3H242.211V24H235.131ZM250.929 24L244.209 3H251.499L256.929 20.73H253.269L259.029 3H265.539L270.909 20.73H267.399L273.069 3H279.789L273.069 24H265.479L261.099 9.48H263.139L258.519 24H250.929ZM278.32 24L287.5 3H294.46L303.64 24H296.32L289.54 6.36H292.3L285.52 24H278.32ZM283.78 20.34L285.58 15.24H295.24L297.04 20.34H283.78ZM312.6 24.48C310.84 24.48 309.14 24.28 307.5 23.88C305.86 23.48 304.51 22.96 303.45 22.32L305.73 17.16C306.73 17.74 307.84 18.21 309.06 18.57C310.3 18.91 311.5 19.08 312.66 19.08C313.34 19.08 313.87 19.04 314.25 18.96C314.65 18.86 314.94 18.73 315.12 18.57C315.3 18.39 315.39 18.18 315.39 17.94C315.39 17.56 315.18 17.26 314.76 17.04C314.34 16.82 313.78 16.64 313.08 16.5C312.4 16.34 311.65 16.18 310.83 16.02C310.01 15.84 309.18 15.61 308.34 15.33C307.52 15.05 306.76 14.68 306.06 14.22C305.38 13.76 304.83 13.16 304.41 12.42C303.99 11.66 303.78 10.72 303.78 9.6C303.78 8.3 304.14 7.12 304.86 6.06C305.6 4.98 306.69 4.12 308.13 3.48C309.59 2.84 311.4 2.52 313.56 2.52C314.98 2.52 316.38 2.67 317.76 2.97C319.14 3.27 320.38 3.73 321.48 4.35L319.35 9.48C318.31 8.96 317.3 8.57 316.32 8.31C315.36 8.05 314.42 7.92 313.5 7.92C312.82 7.92 312.28 7.98 311.88 8.1C311.48 8.22 311.19 8.38 311.01 8.58C310.85 8.78 310.77 9 310.77 9.24C310.77 9.6 310.98 9.89 311.4 10.11C311.82 10.31 312.37 10.48 313.05 10.62C313.75 10.76 314.51 10.91 315.33 11.07C316.17 11.23 317 11.45 317.82 11.73C318.64 12.01 319.39 12.38 320.07 12.84C320.77 13.3 321.33 13.9 321.75 14.64C322.17 15.38 322.38 16.3 322.38 17.4C322.38 18.68 322.01 19.86 321.27 20.94C320.55 22 319.47 22.86 318.03 23.52C316.59 24.16 314.78 24.48 312.6 24.48ZM333.481 24V3H343.591C345.551 3 347.241 3.32 348.661 3.96C350.101 4.6 351.211 5.52 351.991 6.72C352.771 7.9 353.161 9.3 353.161 10.92C353.161 12.54 352.771 13.94 351.991 15.12C351.211 16.28 350.101 17.17 348.661 17.79C347.241 18.41 345.551 18.72 343.591 18.72H337.411L340.561 15.81V24H333.481ZM346.051 24L340.891 16.35H348.391L353.611 24H346.051ZM340.561 16.59L337.411 13.38H343.141C344.121 13.38 344.841 13.16 345.301 12.72C345.781 12.28 346.021 11.68 346.021 10.92C346.021 10.16 345.781 9.56 345.301 9.12C344.841 8.68 344.121 8.46 343.141 8.46H337.411L340.561 5.25V16.59ZM365.884 24.48C362.664 24.48 360.154 23.61 358.354 21.87C356.554 20.13 355.654 17.69 355.654 14.55V3H362.734V14.34C362.734 15.94 363.024 17.08 363.604 17.76C364.184 18.42 364.964 18.75 365.944 18.75C366.944 18.75 367.724 18.42 368.284 17.76C368.864 17.08 369.154 15.94 369.154 14.34V3H376.114V14.55C376.114 17.69 375.214 20.13 373.414 21.87C371.614 23.61 369.104 24.48 365.884 24.48ZM379.359 24V3H385.179L395.859 15.78H393.159V3H400.059V24H394.239L383.559 11.22H386.259V24H379.359Z"/>
</mask>
<path d="M5.98926 24H3.98926V26H5.98926V24ZM5.98926 5.46L7.36713 4.01036L3.98926 0.799704V5.46H5.98926ZM9.01926 8.34V10.34H14.0264L10.3971 6.89036L9.01926 8.34ZM2.38926 8.34H0.389258V10.34H2.38926V8.34ZM2.38926 3V0.999999H0.389258V3H2.38926ZM13.0693 3H15.0693V0.999999H13.0693V3ZM13.0693 24V26H15.0693V24H13.0693ZM5.98926 24H7.98926V5.46H5.98926H3.98926V24H5.98926ZM5.98926 5.46L4.61138 6.90964L7.64138 9.78964L9.01926 8.34L10.3971 6.89036L7.36713 4.01036L5.98926 5.46ZM9.01926 8.34V6.34H2.38926V8.34V10.34H9.01926V8.34ZM2.38926 8.34H4.38926V3H2.38926H0.389258V8.34H2.38926ZM2.38926 3V5H13.0693V3V0.999999H2.38926V3ZM13.0693 3H11.0693V24H13.0693H15.0693V3H13.0693ZM13.0693 24V22H5.98926V24V26H13.0693V24ZM20.2083 23.19L19.1722 24.9008L19.1828 24.9071L20.2083 23.19ZM16.8483 19.44L15.0508 20.3168L15.0551 20.3257L15.0595 20.3344L16.8483 19.44ZM16.8483 7.56L15.0595 6.66557L15.0551 6.67434L15.0508 6.68315L16.8483 7.56ZM20.2083 3.81L19.1828 2.09288L19.1723 2.09928L20.2083 3.81ZM30.0783 3.81L29.0422 5.52075L29.0528 5.52709L30.0783 3.81ZM33.4383 7.56L31.6408 8.43685L31.6451 8.44566L31.6495 8.45443L33.4383 7.56ZM33.4383 19.44L31.6495 18.5456L31.6451 18.5543L31.6408 18.5632L33.4383 19.44ZM30.0783 23.19L29.0528 21.4729L29.0423 21.4793L30.0783 23.19ZM27.2283 16.68L25.3034 16.1371L25.2969 16.1601L25.291 16.1832L27.2283 16.68ZM27.2283 10.32L25.291 10.8167L25.2986 10.8466L25.3072 10.8761L27.2283 10.32ZM26.3883 8.67L27.717 7.17518L27.717 7.17518L26.3883 8.67ZM23.9283 8.67L22.5996 7.17518L22.5996 7.17518L23.9283 8.67ZM23.0583 10.32L21.1334 9.77708L21.1286 9.79401L21.1242 9.81101L23.0583 10.32ZM23.0583 16.68L21.121 17.1768L21.1269 17.1999L21.1334 17.2229L23.0583 16.68ZM25.1583 24.48V22.48C23.619 22.48 22.3308 22.1281 21.2338 21.4729L20.2083 23.19L19.1828 24.9071C20.9658 25.9719 22.9777 26.48 25.1583 26.48V24.48ZM20.2083 23.19L21.2444 21.4793C20.1806 20.835 19.3066 19.8844 18.6372 18.5456L16.8483 19.44L15.0595 20.3344C16.0301 22.2756 17.3961 23.825 19.1723 24.9007L20.2083 23.19ZM16.8483 19.44L18.6459 18.5632C18.0102 17.26 17.6483 15.5961 17.6483 13.5H15.6483H13.6483C13.6483 16.0439 14.0864 18.3399 15.0508 20.3168L16.8483 19.44ZM15.6483 13.5H17.6483C17.6483 11.4039 18.0102 9.73995 18.6459 8.43685L16.8483 7.56L15.0508 6.68315C14.0864 8.66005 13.6483 10.9561 13.6483 13.5H15.6483ZM16.8483 7.56L18.6372 8.45443C19.3066 7.11563 20.1806 6.16502 21.2444 5.52072L20.2083 3.81L19.1723 2.09928C17.3961 3.17498 16.0301 4.72437 15.0595 6.66557L16.8483 7.56ZM20.2083 3.81L21.2338 5.52709C22.3308 4.87193 23.619 4.52 25.1583 4.52V2.52V0.52C22.9777 0.52 20.9658 1.02807 19.1828 2.09291L20.2083 3.81ZM25.1583 2.52V4.52C26.6982 4.52 27.9712 4.87204 29.0423 5.52072L30.0783 3.81L31.1144 2.09928C29.3455 1.02795 27.3385 0.52 25.1583 0.52V2.52ZM30.0783 3.81L29.0528 5.52709C30.13 6.17042 30.9955 7.11396 31.6408 8.43685L33.4383 7.56L35.2359 6.68315C34.2812 4.72604 32.9066 3.16958 31.1038 2.09291L30.0783 3.81ZM33.4383 7.56L31.6495 8.45443C32.2987 9.75295 32.6683 11.4103 32.6683 13.5H34.6683H36.6683C36.6683 10.9497 36.2179 8.64704 35.2272 6.66557L33.4383 7.56ZM34.6683 13.5H32.6683C32.6683 15.5897 32.2987 17.247 31.6495 18.5456L33.4383 19.44L35.2272 20.3344C36.2179 18.353 36.6683 16.0503 36.6683 13.5H34.6683ZM33.4383 19.44L31.6408 18.5632C30.9955 19.886 30.13 20.8296 29.0528 21.4729L30.0783 23.19L31.1038 24.9071C32.9066 23.8304 34.2812 22.274 35.2359 20.3168L33.4383 19.44ZM30.0783 23.19L29.0423 21.4793C27.9712 22.128 26.6982 22.48 25.1583 22.48V24.48V26.48C27.3385 26.48 29.3455 25.972 31.1144 24.9007L30.0783 23.19ZM25.1583 18.81V20.81C26.1328 20.81 27.0098 20.4535 27.717 19.8248L26.3883 18.33L25.0596 16.8352C25.0488 16.8448 25.0457 16.846 25.0509 16.8428C25.0564 16.8394 25.0675 16.8332 25.0837 16.8268C25.1 16.8205 25.1168 16.8158 25.1322 16.813C25.1474 16.8102 25.1568 16.81 25.1583 16.81V18.81ZM26.3883 18.33L27.717 19.8248C28.5144 19.1161 28.9264 18.1097 29.1656 17.1768L27.2283 16.68L25.291 16.1832C25.2171 16.4715 25.1428 16.6585 25.086 16.7701C25.0288 16.8825 25.0088 16.8804 25.0596 16.8352L26.3883 18.33ZM27.2283 16.68L29.1532 17.2229C29.4449 16.1889 29.5583 14.9206 29.5583 13.5H27.5583H25.5583C25.5583 14.7594 25.4518 15.6111 25.3034 16.1371L27.2283 16.68ZM27.5583 13.5H29.5583C29.5583 12.0661 29.4461 10.7888 29.1495 9.76388L27.2283 10.32L25.3072 10.8761C25.4505 11.3712 25.5583 12.2139 25.5583 13.5H27.5583ZM27.2283 10.32L29.1656 9.82325C28.9264 8.89027 28.5144 7.88394 27.717 7.17518L26.3883 8.67L25.0596 10.1648C25.0088 10.1196 25.0288 10.1175 25.086 10.2299C25.1428 10.3415 25.2171 10.5285 25.291 10.8167L27.2283 10.32ZM26.3883 8.67L27.717 7.17518C27.0098 6.54652 26.1328 6.19 25.1583 6.19V8.19V10.19C25.1568 10.19 25.1474 10.1898 25.1322 10.187C25.1168 10.1842 25.1 10.1795 25.0837 10.1732C25.0675 10.1668 25.0564 10.1606 25.0509 10.1572C25.0457 10.154 25.0488 10.1552 25.0596 10.1648L26.3883 8.67ZM25.1583 8.19V6.19C24.1838 6.19 23.3068 6.54652 22.5996 7.17518L23.9283 8.67L25.257 10.1648C25.2678 10.1552 25.2709 10.154 25.2657 10.1572C25.2602 10.1606 25.2491 10.1668 25.2329 10.1732C25.2166 10.1795 25.1999 10.1842 25.1844 10.187C25.1692 10.1898 25.1598 10.19 25.1583 10.19V8.19ZM23.9283 8.67L22.5996 7.17518C21.8194 7.86864 21.394 8.85309 21.1334 9.77708L23.0583 10.32L24.9832 10.8629C25.0659 10.5697 25.1467 10.3754 25.21 10.2553C25.274 10.1338 25.3001 10.1266 25.257 10.1648L23.9283 8.67ZM23.0583 10.32L21.1242 9.81101C20.8599 10.8151 20.7583 12.0737 20.7583 13.5H22.7583H24.7583C24.7583 12.2063 24.8567 11.3449 24.9925 10.829L23.0583 10.32ZM22.7583 13.5H20.7583C20.7583 14.9125 20.861 16.1628 21.121 17.1768L23.0583 16.68L24.9956 16.1832C24.8556 15.6372 24.7583 14.7675 24.7583 13.5H22.7583ZM23.0583 16.68L21.1334 17.2229C21.394 18.1469 21.8194 19.1314 22.5996 19.8248L23.9283 18.33L25.257 16.8352C25.3001 16.8734 25.274 16.8662 25.21 16.7447C25.1467 16.6246 25.0659 16.4303 24.9832 16.1371L23.0583 16.68ZM23.9283 18.33L22.5996 19.8248C23.3068 20.4535 24.1838 20.81 25.1583 20.81V18.81V16.81C25.1598 16.81 25.1692 16.8102 25.1844 16.813C25.1999 16.8158 25.2166 16.8205 25.2329 16.8268C25.2491 16.8332 25.2602 16.8394 25.2657 16.8428C25.2709 16.846 25.2678 16.8448 25.257 16.8352L23.9283 18.33ZM52.5839 19.5L50.5865 19.6003L50.8293 24.4393L54.0705 20.8379L52.5839 19.5ZM52.1939 11.73L50.7127 10.3862L50.1548 11.0011L50.1965 11.8303L52.1939 11.73ZM60.1139 3V0.999999H59.228L58.6327 1.65617L60.1139 3ZM67.8239 3L69.3046 4.34444L72.3413 0.999999H67.8239V3ZM58.9439 12.78L60.3741 14.1781L60.3999 14.1517L60.4246 14.1244L58.9439 12.78ZM55.0139 16.8L53.5838 15.4019L53.555 15.4314L53.5274 15.4621L55.0139 16.8ZM46.2539 24H44.2539V26H46.2539V24ZM46.2539 3V0.999999H44.2539V3H46.2539ZM53.2139 3H55.2139V0.999999H53.2139V3ZM53.2139 24V26H55.2139V24H53.2139ZM60.0539 24L58.4596 25.2075L59.0598 26H60.0539V24ZM53.8739 15.84L52.4199 14.4668L51.2573 15.6977L52.2796 17.0475L53.8739 15.84ZM58.4639 10.98L60.0631 9.77882L58.6385 7.88235L57.0099 9.60675L58.4639 10.98ZM68.2439 24V26H72.2476L69.8431 22.7988L68.2439 24ZM52.5839 19.5L54.5814 19.3997L54.1914 11.6297L52.1939 11.73L50.1965 11.8303L50.5865 19.6003L52.5839 19.5ZM52.1939 11.73L53.6752 13.0738L61.5952 4.34382L60.1139 3L58.6327 1.65617L50.7127 10.3862L52.1939 11.73ZM60.1139 3V5H67.8239V3V0.999999H60.1139V3ZM67.8239 3L66.3432 1.65556L57.4632 11.4356L58.9439 12.78L60.4246 14.1244L69.3046 4.34444L67.8239 3ZM58.9439 12.78L57.5138 11.3819L53.5838 15.4019L55.0139 16.8L56.4441 18.1981L60.3741 14.1781L58.9439 12.78ZM55.0139 16.8L53.5274 15.4621L51.0974 18.1621L52.5839 19.5L54.0705 20.8379L56.5005 18.1379L55.0139 16.8ZM46.2539 24H48.2539V3H46.2539H44.2539V24H46.2539ZM46.2539 3V5H53.2139V3V0.999999H46.2539V3ZM53.2139 3H51.2139V24H53.2139H55.2139V3H53.2139ZM53.2139 24V22H46.2539V24V26H53.2139V24ZM60.0539 24L61.6483 22.7925L55.4683 14.6325L53.8739 15.84L52.2796 17.0475L58.4596 25.2075L60.0539 24ZM53.8739 15.84L55.328 17.2132L59.918 12.3532L58.4639 10.98L57.0099 9.60675L52.4199 14.4668L53.8739 15.84ZM58.4639 10.98L56.8648 12.1812L66.6448 25.2012L68.2439 24L69.8431 22.7988L60.0631 9.77882L58.4639 10.98ZM68.2439 24V22H60.0539V24V26H68.2439V24ZM69.1934 24H67.1934V26H69.1934V24ZM69.1934 3V0.999999H67.1934V3H69.1934ZM75.0134 3L76.7188 1.95514L76.1336 0.999999H75.0134V3ZM83.4134 16.71V18.71H86.9843L85.1188 15.6651L83.4134 16.71ZM80.3534 16.71L78.6348 15.6871L76.8356 18.71H80.3534V16.71ZM88.5134 3V0.999999H87.3763L86.7948 1.9771L88.5134 3ZM94.3334 3L96.3334 2.99428L96.3277 0.999999H94.3334V3ZM94.3934 24V26H96.3991L96.3934 23.9943L94.3934 24ZM87.9434 24L85.9434 24.0106L85.954 26H87.9434V24ZM87.8834 12.72V10.72H85.8727L85.8834 12.7306L87.8834 12.72ZM88.9034 12.72L90.6227 13.7417L92.4184 10.72H88.9034V12.72ZM83.3234 22.11V24.11H84.4614L85.0427 23.1317L83.3234 22.11ZM80.2034 22.11L78.5034 23.1636L79.09 24.11H80.2034V22.11ZM74.3834 12.72V10.72H70.7908L72.6834 13.7736L74.3834 12.72ZM75.6434 12.72H77.6434V10.72H75.6434V12.72ZM75.6434 24V26H77.6434V24H75.6434ZM69.1934 24H71.1934V3H69.1934H67.1934V24H69.1934ZM69.1934 3V5H75.0134V3V0.999999H69.1934V3ZM75.0134 3L73.308 4.04486L81.708 17.7549L83.4134 16.71L85.1188 15.6651L76.7188 1.95514L75.0134 3ZM83.4134 16.71V14.71H80.3534V16.71V18.71H83.4134V16.71ZM80.3534 16.71L82.072 17.7329L90.232 4.0229L88.5134 3L86.7948 1.9771L78.6348 15.6871L80.3534 16.71ZM88.5134 3V5H94.3334V3V0.999999H88.5134V3ZM94.3334 3L92.3334 3.00571L92.3934 24.0057L94.3934 24L96.3934 23.9943L96.3334 2.99428L94.3334 3ZM94.3934 24V22H87.9434V24V26H94.3934V24ZM87.9434 24L89.9434 23.9894L89.8834 12.7094L87.8834 12.72L85.8834 12.7306L85.9434 24.0106L87.9434 24ZM87.8834 12.72V14.72H88.9034V12.72V10.72H87.8834V12.72ZM88.9034 12.72L87.1841 11.6983L81.6041 21.0883L83.3234 22.11L85.0427 23.1317L90.6227 13.7417L88.9034 12.72ZM83.3234 22.11V20.11H80.2034V22.11V24.11H83.3234V22.11ZM80.2034 22.11L81.9034 21.0564L76.0834 11.6664L74.3834 12.72L72.6834 13.7736L78.5034 23.1636L80.2034 22.11ZM74.3834 12.72V14.72H75.6434V12.72V10.72H74.3834V12.72ZM75.6434 12.72H73.6434V24H75.6434H77.6434V12.72H75.6434ZM75.6434 24V22H69.1934V24V26H75.6434V24ZM113.411 24L111.569 24.7789L112.085 26H113.411V24ZM104.531 3V0.999999H101.513L102.689 3.77894L104.531 3ZM112.151 3L114.003 2.24481L113.495 0.999999H112.151V3ZM119.381 20.73V22.73H122.356L121.233 19.9748L119.381 20.73ZM114.851 20.73L113.006 19.9561L111.842 22.73H114.851V20.73ZM122.291 3V0.999999H120.961L120.446 2.22612L122.291 3ZM129.251 3L131.093 3.77894L132.268 0.999999H129.251V3ZM120.371 24V26H121.696L122.213 24.7789L120.371 24ZM113.411 24L115.253 23.2211L106.373 2.22106L104.531 3L102.689 3.77894L111.569 24.7789L113.411 24ZM104.531 3V5H112.151V3V0.999999H104.531V3ZM112.151 3L110.299 3.75519L117.529 21.4852L119.381 20.73L121.233 19.9748L114.003 2.24481L112.151 3ZM119.381 20.73V18.73H114.851V20.73V22.73H119.381V20.73ZM114.851 20.73L116.695 21.5039L124.135 3.77388L122.291 3L120.446 2.22612L113.006 19.9561L114.851 20.73ZM122.291 3V5H129.251V3V0.999999H122.291V3ZM129.251 3L127.409 2.22106L118.529 23.2211L120.371 24L122.213 24.7789L131.093 3.77894L129.251 3ZM120.371 24V22H113.411V24V26H120.371V24ZM129.955 24H127.955V26H129.955V24ZM129.955 3V0.999999H127.955V3H129.955ZM137.035 3H139.035V0.999999H137.035V3ZM137.035 24V26H139.035V24H137.035ZM129.955 24H131.955V3H129.955H127.955V24H129.955ZM129.955 3V5H137.035V3V0.999999H129.955V3ZM137.035 3H135.035V24H137.035H139.035V3H137.035ZM137.035 24V22H129.955V24V26H137.035V24ZM141.313 23.7L140.556 25.5511L140.568 25.556L140.58 25.5608L141.313 23.7ZM138.013 21.36L136.487 20.0677L135.382 21.3722L136.499 22.6665L138.013 21.36ZM141.823 16.86L143.367 15.5886L141.845 13.7397L140.297 15.5677L141.823 16.86ZM143.473 18.42L142.364 20.0841L142.386 20.0986L142.408 20.1125L143.473 18.42ZM147.433 8.34H149.433V6.34H147.433V8.34ZM140.293 8.34H138.293V10.34H140.293V8.34ZM140.293 3V0.999999H138.293V3H140.293ZM154.423 3H156.423V0.999999H154.423V3ZM152.203 22.35L153.588 23.7932L152.203 22.35ZM145.753 24.48V22.48C144.326 22.48 143.1 22.254 142.046 21.8392L141.313 23.7L140.58 25.5608C142.167 26.186 143.901 26.48 145.753 26.48V24.48ZM141.313 23.7L142.071 21.8489C141.025 21.4211 140.19 20.8209 139.528 20.0535L138.013 21.36L136.499 22.6665C137.597 23.9391 138.962 24.8989 140.556 25.5511L141.313 23.7ZM138.013 21.36L139.54 22.6523L143.35 18.1523L141.823 16.86L140.297 15.5677L136.487 20.0677L138.013 21.36ZM141.823 16.86L140.28 18.1314C140.923 18.9127 141.614 19.5842 142.364 20.0841L143.473 18.42L144.583 16.7559C144.253 16.5358 143.844 16.1673 143.367 15.5886L141.823 16.86ZM143.473 18.42L142.408 20.1125C143.234 20.6325 144.159 20.93 145.153 20.93V18.93V16.93C144.988 16.93 144.793 16.8875 144.539 16.7275L143.473 18.42ZM145.153 18.93V20.93C146.297 20.93 147.499 20.5901 148.37 19.5933C149.195 18.6481 149.433 17.4369 149.433 16.32H147.433H145.433C145.433 16.9431 145.291 17.0369 145.357 16.9617C145.372 16.9446 145.391 16.9279 145.41 16.9144C145.43 16.9012 145.441 16.8971 145.438 16.8983C145.429 16.9017 145.347 16.93 145.153 16.93V18.93ZM147.433 16.32H149.433V8.34H147.433H145.433V16.32H147.433ZM147.433 8.34V6.34H140.293V8.34V10.34H147.433V8.34ZM140.293 8.34H142.293V3H140.293H138.293V8.34H140.293ZM140.293 3V5H154.423V3V0.999999H140.293V3ZM154.423 3H152.423V15.9H154.423H156.423V3H154.423ZM154.423 15.9H152.423C152.423 18.4599 151.769 19.9955 150.819 20.9068L152.203 22.35L153.588 23.7932C155.598 21.8645 156.423 19.1001 156.423 15.9H154.423ZM152.203 22.35L150.819 20.9068C149.832 21.8534 148.254 22.48 145.753 22.48V24.48V26.48C148.893 26.48 151.615 25.6866 153.588 23.7932L152.203 22.35ZM154.951 24L153.118 23.1989L151.893 26H154.951V24ZM164.131 3V0.999999H162.822L162.298 2.19891L164.131 3ZM171.091 3L172.923 2.19891L172.399 0.999999H171.091V3ZM180.271 24V26H183.328L182.103 23.1989L180.271 24ZM172.951 24L171.084 24.7175L171.577 26H172.951V24ZM166.171 6.36V4.36H163.259L164.304 7.07753L166.171 6.36ZM168.931 6.36L170.797 7.07753L171.842 4.36H168.931V6.36ZM162.151 24V26H163.524L164.017 24.7175L162.151 24ZM160.411 20.34L158.525 19.6744L157.584 22.34H160.411V20.34ZM162.211 15.24V13.24H160.795L160.325 14.5744L162.211 15.24ZM171.871 15.24L173.756 14.5744L173.286 13.24H171.871V15.24ZM173.671 20.34V22.34H176.497L175.556 19.6744L173.671 20.34ZM154.951 24L156.783 24.8011L165.963 3.80109L164.131 3L162.298 2.19891L153.118 23.1989L154.951 24ZM164.131 3V5H171.091V3V0.999999H164.131V3ZM171.091 3L169.258 3.80109L178.438 24.8011L180.271 24L182.103 23.1989L172.923 2.19891L171.091 3ZM180.271 24V22H172.951V24V26H180.271V24ZM172.951 24L174.817 23.2825L168.037 5.64247L166.171 6.36L164.304 7.07753L171.084 24.7175L172.951 24ZM166.171 6.36V8.36H168.931V6.36V4.36H166.171V6.36ZM168.931 6.36L167.064 5.64247L160.284 23.2825L162.151 24L164.017 24.7175L170.797 7.07753L168.931 6.36ZM162.151 24V22H154.951V24V26H162.151V24ZM160.411 20.34L162.296 21.0056L164.096 15.9056L162.211 15.24L160.325 14.5744L158.525 19.6744L160.411 20.34ZM162.211 15.24V17.24H171.871V15.24V13.24H162.211V15.24ZM171.871 15.24L169.985 15.9056L171.785 21.0056L173.671 20.34L175.556 19.6744L173.756 14.5744L171.871 15.24ZM173.671 20.34V18.34H160.411V20.34V22.34H173.671V20.34ZM185.453 24H183.453V26H185.453V24ZM185.453 14.79L187.32 14.0747L183.453 14.79H185.453ZM187.073 19.02L185.354 20.0433L188.94 18.3047L187.073 19.02ZM177.533 3V0.999999H174.014L175.814 4.02331L177.533 3ZM185.003 3L186.726 1.98493L186.146 0.999999H185.003V3ZM191.453 13.95V15.95H194.952L193.176 12.9349L191.453 13.95ZM187.103 13.95L185.384 12.9279L183.587 15.95H187.103V13.95ZM193.613 3V0.999999H192.475L191.894 1.97794L193.613 3ZM200.453 3L202.174 4.01854L203.96 0.999999H200.453V3ZM190.973 19.02L189.096 18.328L192.694 20.0385L190.973 19.02ZM192.533 14.79H194.533L190.656 14.098L192.533 14.79ZM192.533 24V26H194.533V24H192.533ZM185.453 24H187.453V14.79H185.453H183.453V24H185.453ZM185.453 14.79L183.585 15.5053L185.205 19.7353L187.073 19.02L188.94 18.3047L187.32 14.0747L185.453 14.79ZM187.073 19.02L188.791 17.9967L179.251 1.97669L177.533 3L175.814 4.02331L185.354 20.0433L187.073 19.02ZM177.533 3V5H185.003V3V0.999999H177.533V3ZM185.003 3L183.28 4.01507L189.73 14.9651L191.453 13.95L193.176 12.9349L186.726 1.98493L185.003 3ZM191.453 13.95V11.95H187.103V13.95V15.95H191.453V13.95ZM187.103 13.95L188.822 14.9721L195.332 4.02205L193.613 3L191.894 1.97794L185.384 12.9279L187.103 13.95ZM193.613 3V5H200.453V3V0.999999H193.613V3ZM200.453 3L198.732 1.98145L189.252 18.0015L190.973 19.02L192.694 20.0385L202.174 4.01854L200.453 3ZM190.973 19.02L192.849 19.712L194.409 15.482L192.533 14.79L190.656 14.098L189.096 18.328L190.973 19.02ZM192.533 14.79H190.533V24H192.533H194.533V14.79H192.533ZM192.533 24V22H185.453V24V26H192.533V24ZM210.346 24H208.346V26H210.346V24ZM210.346 3V0.999999H208.346V3H210.346ZM226.876 4.29L226.006 6.09083L226.014 6.09481L226.022 6.09871L226.876 4.29ZM231.046 7.89L229.362 8.96933L231.046 7.89ZM231.046 19.11L232.73 20.1894L232.736 20.1796L231.046 19.11ZM226.876 22.74L227.729 24.5487L227.738 24.5448L227.746 24.5408L226.876 22.74ZM217.426 18.48H215.426V20.48H217.426V18.48ZM223.006 17.91L222.111 16.1211L222.102 16.126L222.092 16.1309L223.006 17.91ZM224.776 16.23L226.515 17.2172L226.521 17.2073L226.526 17.1974L224.776 16.23ZM224.776 10.77L226.515 9.78279V9.78279L224.776 10.77ZM223.006 9.09L222.092 10.8691L222.102 10.874L222.111 10.8789L223.006 9.09ZM217.426 8.52V6.52H215.426V8.52H217.426ZM210.346 24H212.346V3H210.346H208.346V24H210.346ZM210.346 3V5H220.696V3V0.999999H210.346V3ZM220.696 3V5C222.789 5 224.542 5.38386 226.006 6.09083L226.876 4.29L227.746 2.48917C225.649 1.47614 223.282 0.999999 220.696 0.999999V3ZM226.876 4.29L226.022 6.09871C227.485 6.78881 228.578 7.74555 229.362 8.96933L231.046 7.89L232.73 6.81067C231.514 4.91445 229.827 3.47119 227.729 2.48128L226.876 4.29ZM231.046 7.89L229.362 8.96933C230.123 10.1568 230.546 11.628 230.546 13.47H232.546H234.546C234.546 10.992 233.968 8.74321 232.73 6.81067L231.046 7.89ZM232.546 13.47H230.546C230.546 15.3353 230.122 16.8305 229.356 18.0404L231.046 19.11L232.736 20.1796C233.97 18.2295 234.546 15.9647 234.546 13.47H232.546ZM231.046 19.11L229.362 18.0307C228.575 19.2587 227.476 20.2287 226.006 20.9392L226.876 22.74L227.746 24.5408C229.835 23.5313 231.517 22.0813 232.73 20.1893L231.046 19.11ZM226.876 22.74L226.022 20.9313C224.555 21.6237 222.796 22 220.696 22V24V26C223.276 26 225.637 25.5363 227.729 24.5487L226.876 22.74ZM220.696 24V22H210.346V24V26H220.696V24ZM217.426 18.48V20.48H220.396V18.48V16.48H217.426V18.48ZM220.396 18.48V20.48C221.65 20.48 222.845 20.2408 223.919 19.6891L223.006 17.91L222.092 16.1309C221.686 16.3392 221.142 16.48 220.396 16.48V18.48ZM223.006 17.91L223.9 19.6989C225.016 19.1411 225.9 18.3018 226.515 17.2172L224.776 16.23L223.036 15.2428C222.812 15.6382 222.516 15.9189 222.111 16.1211L223.006 17.91ZM224.776 16.23L226.526 17.1974C227.145 16.0774 227.406 14.807 227.406 13.47H225.406H223.406C223.406 14.293 223.246 14.8626 223.025 15.2626L224.776 16.23ZM225.406 13.47H227.406C227.406 12.1479 227.143 10.8892 226.515 9.78279L224.776 10.77L223.036 11.7572C223.248 12.1308 223.406 12.6721 223.406 13.47H225.406ZM224.776 10.77L226.515 9.78279C225.9 8.69818 225.016 7.85888 223.9 7.30115L223.006 9.09L222.111 10.8789C222.516 11.0811 222.812 11.3618 223.036 11.7572L224.776 10.77ZM223.006 9.09L223.919 7.31087C222.845 6.75919 221.65 6.52 220.396 6.52V8.52V10.52C221.142 10.52 221.686 10.6608 222.092 10.8691L223.006 9.09ZM220.396 8.52V6.52H217.426V8.52V10.52H220.396V8.52ZM217.426 8.52H215.426V18.48H217.426H219.426V8.52H217.426ZM235.131 24H233.131V26H235.131V24ZM235.131 3V0.999999H233.131V3H235.131ZM242.211 3H244.211V0.999999H242.211V3ZM242.211 24V26H244.211V24H242.211ZM235.131 24H237.131V3H235.131H233.131V24H235.131ZM235.131 3V5H242.211V3V0.999999H235.131V3ZM242.211 3H240.211V24H242.211H244.211V3H242.211ZM242.211 24V22H235.131V24V26H242.211V24ZM250.929 24L249.024 24.6096L249.469 26H250.929V24ZM244.209 3V0.999999H241.469L242.304 3.60955L244.209 3ZM251.499 3L253.411 2.41433L252.978 0.999999H251.499V3ZM256.929 20.73V22.73H259.633L258.841 20.1443L256.929 20.73ZM253.269 20.73L251.367 20.112L250.517 22.73H253.269V20.73ZM259.029 3V0.999999H257.576L257.127 2.38204L259.029 3ZM265.539 3L267.453 2.42025L267.023 0.999999H265.539V3ZM270.909 20.73V22.73H273.605L272.823 20.1503L270.909 20.73ZM267.399 20.73L265.494 20.1208L264.66 22.73H267.399V20.73ZM273.069 3V0.999999H271.609L271.164 2.3908L273.069 3ZM279.789 3L281.694 3.60955L282.529 0.999999H279.789V3ZM273.069 24V26H274.529L274.974 24.6096L273.069 24ZM265.479 24L263.564 24.5776L263.993 26H265.479V24ZM261.099 9.48V7.48H258.407L259.184 10.0576L261.099 9.48ZM263.139 9.48L265.045 10.0864L265.874 7.48H263.139V9.48ZM258.519 24V26H259.982L260.425 24.6064L258.519 24ZM250.929 24L252.834 23.3904L246.114 2.39045L244.209 3L242.304 3.60955L249.024 24.6096L250.929 24ZM244.209 3V5H251.499V3V0.999999H244.209V3ZM251.499 3L249.587 3.58567L255.017 21.3157L256.929 20.73L258.841 20.1443L253.411 2.41433L251.499 3ZM256.929 20.73V18.73H253.269V20.73V22.73H256.929V20.73ZM253.269 20.73L255.171 21.348L260.931 3.61795L259.029 3L257.127 2.38204L251.367 20.112L253.269 20.73ZM259.029 3V5H265.539V3V0.999999H259.029V3ZM265.539 3L263.625 3.57974L268.995 21.3097L270.909 20.73L272.823 20.1503L267.453 2.42025L265.539 3ZM270.909 20.73V18.73H267.399V20.73V22.73H270.909V20.73ZM267.399 20.73L269.304 21.3392L274.974 3.6092L273.069 3L271.164 2.3908L265.494 20.1208L267.399 20.73ZM273.069 3V5H279.789V3V0.999999H273.069V3ZM279.789 3L277.884 2.39045L271.164 23.3904L273.069 24L274.974 24.6096L281.694 3.60955L279.789 3ZM273.069 24V22H265.479V24V26H273.069V24ZM265.479 24L267.394 23.4224L263.014 8.9024L261.099 9.48L259.184 10.0576L263.564 24.5776L265.479 24ZM261.099 9.48V11.48H263.139V9.48V7.48H261.099V9.48ZM263.139 9.48L261.233 8.87359L256.613 23.3936L258.519 24L260.425 24.6064L265.045 10.0864L263.139 9.48ZM258.519 24V22H250.929V24V26H258.519V24ZM278.32 24L276.487 23.1989L275.263 26H278.32V24ZM287.5 3V0.999999H286.191L285.667 2.19891L287.5 3ZM294.46 3L296.292 2.19891L295.768 0.999999H294.46V3ZM303.64 24V26H306.697L305.472 23.1989L303.64 24ZM296.32 24L294.453 24.7175L294.946 26H296.32V24ZM289.54 6.36V4.36H286.628L287.673 7.07753L289.54 6.36ZM292.3 6.36L294.167 7.07753L295.211 4.36H292.3V6.36ZM285.52 24V26H286.894L287.387 24.7175L285.52 24ZM283.78 20.34L281.894 19.6744L280.953 22.34H283.78V20.34ZM285.58 15.24V13.24H284.165L283.694 14.5744L285.58 15.24ZM295.24 15.24L297.126 14.5744L296.655 13.24H295.24V15.24ZM297.04 20.34V22.34H299.866L298.926 19.6744L297.04 20.34ZM278.32 24L280.152 24.8011L289.332 3.80109L287.5 3L285.667 2.19891L276.487 23.1989L278.32 24ZM287.5 3V5H294.46V3V0.999999H287.5V3ZM294.46 3L292.627 3.80109L301.807 24.8011L303.64 24L305.472 23.1989L296.292 2.19891L294.46 3ZM303.64 24V22H296.32V24V26H303.64V24ZM296.32 24L298.186 23.2825L291.406 5.64247L289.54 6.36L287.673 7.07753L294.453 24.7175L296.32 24ZM289.54 6.36V8.36H292.3V6.36V4.36H289.54V6.36ZM292.3 6.36L290.433 5.64247L283.653 23.2825L285.52 24L287.387 24.7175L294.167 7.07753L292.3 6.36ZM285.52 24V22H278.32V24V26H285.52V24ZM283.78 20.34L285.666 21.0056L287.466 15.9056L285.58 15.24L283.694 14.5744L281.894 19.6744L283.78 20.34ZM285.58 15.24V17.24H295.24V15.24V13.24H285.58V15.24ZM295.24 15.24L293.354 15.9056L295.154 21.0056L297.04 20.34L298.926 19.6744L297.126 14.5744L295.24 15.24ZM297.04 20.34V18.34H283.78V20.34V22.34H297.04V20.34ZM307.5 23.88L307.973 21.937L307.5 23.88ZM303.45 22.32L301.62 21.5117L300.909 23.1221L302.416 24.0321L303.45 22.32ZM305.73 17.16L306.733 15.4299L304.802 14.3101L303.9 16.3517L305.73 17.16ZM309.06 18.57L308.494 20.4882L308.512 20.4937L308.531 20.4988L309.06 18.57ZM314.25 18.96L314.662 20.9171L314.698 20.9094L314.735 20.9003L314.25 18.96ZM315.12 18.57L316.448 20.0648L316.492 20.0258L316.534 19.9842L315.12 18.57ZM314.76 17.04L313.832 18.8117L314.76 17.04ZM313.08 16.5L312.621 18.4468L312.654 18.4546L312.687 18.4612L313.08 16.5ZM310.83 16.02L310.401 17.9735L310.424 17.9785L310.447 17.983L310.83 16.02ZM308.34 15.33L307.693 17.2227L307.7 17.2251L307.707 17.2274L308.34 15.33ZM306.06 14.22L304.939 15.8766L304.95 15.8841L304.961 15.8914L306.06 14.22ZM304.41 12.42L302.659 13.3874L302.665 13.3973L302.67 13.4072L304.41 12.42ZM304.86 6.06L303.21 4.92953L303.205 4.93623L304.86 6.06ZM308.13 3.48L307.327 1.64824L307.317 1.65238L308.13 3.48ZM317.76 2.97L317.335 4.92435L317.76 2.97ZM321.48 4.35L323.327 5.11693L324.007 3.47868L322.462 2.60769L321.48 4.35ZM319.35 9.48L318.455 11.2689L320.374 12.2283L321.197 10.2469L319.35 9.48ZM316.32 8.31L315.797 10.2405L315.807 10.2431L316.32 8.31ZM311.88 8.1L311.305 6.18435L311.88 8.1ZM311.01 8.58L309.523 7.24207L309.484 7.28525L309.448 7.33061L311.01 8.58ZM311.4 10.11L310.472 11.8817L310.505 11.8993L310.54 11.9157L311.4 10.11ZM313.05 10.62L312.646 12.5789L312.657 12.5812L313.05 10.62ZM315.33 11.07L314.947 13.033L314.955 13.0347L315.33 11.07ZM317.82 11.73L317.173 13.6227L317.82 11.73ZM320.07 12.84L318.949 14.4966L318.96 14.5041L318.971 14.5114L320.07 12.84ZM321.75 14.64L320.01 15.6272V15.6272L321.75 14.64ZM321.27 20.94L319.62 19.8095L319.615 19.8162L321.27 20.94ZM318.03 23.52L318.842 25.3476L318.852 25.3429L318.863 25.3381L318.03 23.52ZM312.6 24.48V22.48C310.992 22.48 309.452 22.2975 307.973 21.937L307.5 23.88L307.026 25.823C308.827 26.2625 310.687 26.48 312.6 26.48V24.48ZM307.5 23.88L307.973 21.937C306.464 21.5689 305.319 21.1126 304.483 20.6079L303.45 22.32L302.416 24.0321C303.7 24.8074 305.255 25.3911 307.026 25.823L307.5 23.88ZM303.45 22.32L305.279 23.1283L307.559 17.9683L305.73 17.16L303.9 16.3517L301.62 21.5117L303.45 22.32ZM305.73 17.16L304.726 18.8901C305.877 19.5575 307.136 20.0876 308.494 20.4882L309.06 18.57L309.626 16.6518C308.543 16.3324 307.582 15.9225 306.733 15.4299L305.73 17.16ZM309.06 18.57L308.531 20.4988C309.925 20.881 311.303 21.08 312.66 21.08V19.08V17.08C311.696 17.08 310.675 16.939 309.588 16.6412L309.06 18.57ZM312.66 19.08V21.08C313.391 21.08 314.082 21.0392 314.662 20.9171L314.25 18.96L313.838 17.0029C313.657 17.0408 313.288 17.08 312.66 17.08V19.08ZM314.25 18.96L314.735 20.9003C315.254 20.7705 315.912 20.5412 316.448 20.0648L315.12 18.57L313.791 17.0752C313.844 17.0279 313.888 16.9983 313.914 16.9823C313.94 16.9663 313.953 16.9606 313.949 16.9625C313.945 16.9643 313.928 16.9713 313.896 16.982C313.865 16.9926 313.821 17.0055 313.764 17.0197L314.25 18.96ZM315.12 18.57L316.534 19.9842C317.064 19.4544 317.39 18.7451 317.39 17.94H315.39H313.39C313.39 17.8031 313.417 17.6461 313.484 17.4897C313.55 17.3355 313.636 17.2252 313.705 17.1558L315.12 18.57ZM315.39 17.94H317.39C317.39 16.6201 316.573 15.732 315.688 15.2683L314.76 17.04L313.832 18.8117C313.839 18.8156 313.718 18.7547 313.594 18.5769C313.454 18.3775 313.39 18.1439 313.39 17.94H315.39ZM314.76 17.04L315.688 15.2683C315.037 14.9274 314.274 14.6993 313.472 14.5388L313.08 16.5L312.687 18.4612C313.285 18.5807 313.642 18.7126 313.832 18.8117L314.76 17.04ZM313.08 16.5L313.538 14.5532C312.828 14.3863 312.053 14.221 311.213 14.057L310.83 16.02L310.447 17.983C311.246 18.139 311.971 18.2937 312.621 18.4468L313.08 16.5ZM310.83 16.02L311.258 14.0665C310.511 13.9024 309.749 13.6916 308.972 13.4326L308.34 15.33L307.707 17.2274C308.61 17.5284 309.508 17.7776 310.401 17.9735L310.83 16.02ZM308.34 15.33L308.986 13.4373C308.32 13.2098 307.712 12.9129 307.158 12.5486L306.06 14.22L304.961 15.8914C305.807 16.4471 306.719 16.8902 307.693 17.2227L308.34 15.33ZM306.06 14.22L307.18 12.5634C306.765 12.2823 306.423 11.9151 306.149 11.4328L304.41 12.42L302.67 13.4072C303.236 14.4049 303.995 15.2377 304.939 15.8766L306.06 14.22ZM304.41 12.42L306.16 11.4526C305.944 11.0625 305.78 10.4772 305.78 9.6H303.78H301.78C301.78 10.9628 302.035 12.2575 302.659 13.3874L304.41 12.42ZM303.78 9.6H305.78C305.78 8.69455 306.023 7.90716 306.514 7.18376L304.86 6.06L303.205 4.93623C302.257 6.33283 301.78 7.90545 301.78 9.6H303.78ZM304.86 6.06L306.509 7.19046C307.001 6.47294 307.771 5.82805 308.942 5.30762L308.13 3.48L307.317 1.65238C305.608 2.41195 304.198 3.48705 303.21 4.92953L304.86 6.06ZM308.13 3.48L308.933 5.31174C310.067 4.81464 311.583 4.52 313.56 4.52V2.52V0.52C311.216 0.52 309.113 0.865359 307.327 1.64826L308.13 3.48ZM313.56 2.52V4.52C314.838 4.52 316.095 4.65486 317.335 4.92435L317.76 2.97L318.184 1.01565C316.664 0.685134 315.122 0.52 313.56 0.52V2.52ZM317.76 2.97L317.335 4.92435C318.542 5.18686 319.591 5.58127 320.498 6.0923L321.48 4.35L322.462 2.60769C321.168 1.87873 319.737 1.35313 318.184 1.01565L317.76 2.97ZM321.48 4.35L319.632 3.58307L317.502 8.71307L319.35 9.48L321.197 10.2469L323.327 5.11693L321.48 4.35ZM319.35 9.48L320.244 7.69114C319.099 7.11887 317.962 6.67649 316.832 6.37688L316.32 8.31L315.807 10.2431C316.637 10.4635 317.52 10.8011 318.455 11.2689L319.35 9.48ZM316.32 8.31L316.842 6.37955C315.726 6.0771 314.61 5.92 313.5 5.92V7.92V9.92C314.229 9.92 314.993 10.0229 315.797 10.2405L316.32 8.31ZM313.5 7.92V5.92C312.731 5.92 311.971 5.9845 311.305 6.18435L311.88 8.1L312.454 10.0157C312.588 9.9755 312.908 9.92 313.5 9.92V7.92ZM311.88 8.1L311.305 6.18435C310.732 6.35634 310.048 6.65844 309.523 7.24207L311.01 8.58L312.496 9.91793C312.407 10.017 312.335 10.0574 312.328 10.0612C312.324 10.0637 312.33 10.0596 312.352 10.0507C312.374 10.0419 312.407 10.0298 312.454 10.0157L311.88 8.1ZM311.01 8.58L309.448 7.33061C309.025 7.85967 308.77 8.51416 308.77 9.24H310.77H312.77C312.77 9.34713 312.751 9.46387 312.709 9.57849C312.668 9.69152 312.615 9.77527 312.571 9.82939L311.01 8.58ZM310.77 9.24H308.77C308.77 10.5836 309.636 11.4439 310.472 11.8817L311.4 10.11L312.328 8.33834C312.306 8.32721 312.422 8.38155 312.547 8.55448C312.69 8.75269 312.77 9.00119 312.77 9.24H310.77ZM311.4 10.11L310.54 11.9157C311.158 12.2099 311.878 12.4207 312.646 12.5789L313.05 10.62L313.453 8.66109C312.861 8.53932 312.482 8.41008 312.259 8.30428L311.4 10.11ZM313.05 10.62L312.657 12.5812C313.361 12.7219 314.124 12.8725 314.947 13.033L315.33 11.07L315.713 9.10702C314.895 8.94752 314.138 8.79813 313.442 8.65884L313.05 10.62ZM315.33 11.07L314.955 13.0347C315.702 13.1769 316.441 13.3726 317.173 13.6227L317.82 11.73L318.466 9.8373C317.558 9.52735 316.637 9.28313 315.704 9.10532L315.33 11.07ZM317.82 11.73L317.173 13.6227C317.835 13.8485 318.424 14.1413 318.949 14.4966L320.07 12.84L321.19 11.1834C320.355 10.6187 319.444 10.1714 318.466 9.8373L317.82 11.73ZM320.07 12.84L318.971 14.5114C319.402 14.7945 319.744 15.1583 320.01 15.6272L321.75 14.64L323.489 13.6528C322.915 12.6417 322.137 11.8055 321.168 11.1686L320.07 12.84ZM321.75 14.64L320.01 15.6272C320.216 15.9906 320.38 16.5472 320.38 17.4H322.38H324.38C324.38 16.0528 324.123 14.7694 323.489 13.6528L321.75 14.64ZM322.38 17.4H320.38C320.38 18.2668 320.137 19.0543 319.62 19.8095L321.27 20.94L322.919 22.0705C323.882 20.6657 324.38 19.0932 324.38 17.4H322.38ZM321.27 20.94L319.615 19.8162C319.144 20.5102 318.382 21.1582 317.196 21.7019L318.03 23.52L318.863 25.3381C320.557 24.5618 321.955 23.4898 322.924 22.0638L321.27 20.94ZM318.03 23.52L317.217 21.6924C316.111 22.184 314.6 22.48 312.6 22.48V24.48V26.48C314.959 26.48 317.068 26.136 318.842 25.3476L318.03 23.52ZM333.48 24H331.48V26H333.48V24ZM333.48 3V0.999999H331.48V3H333.48ZM348.661 3.96L347.839 5.78339L347.848 5.78762L348.661 3.96ZM351.991 6.72L350.314 7.80997L350.318 7.81644L350.322 7.82287L351.991 6.72ZM351.991 15.12L353.65 16.236L353.655 16.2294L353.659 16.2229L351.991 15.12ZM348.661 17.79L347.87 15.953L347.86 15.9571L348.661 17.79ZM337.411 18.72L336.053 17.2509L332.298 20.72H337.411V18.72ZM340.561 15.81H342.561V11.2396L339.203 14.3409L340.561 15.81ZM340.561 24V26H342.561V24H340.561ZM346.051 24L344.392 25.1184L344.987 26H346.051V24ZM340.891 16.35V14.35H337.129L339.232 17.4684L340.891 16.35ZM348.391 16.35L350.043 15.2227L349.447 14.35H348.391V16.35ZM353.611 24V26H357.396L355.263 22.8727L353.611 24ZM340.561 16.59L339.133 17.9908L342.561 21.4836V16.59H340.561ZM337.411 13.38V11.38H332.646L335.983 14.7808L337.411 13.38ZM345.301 12.72L343.949 11.2457L343.933 11.26L343.918 11.2747L345.301 12.72ZM345.301 9.12L343.918 10.5653L343.933 10.58L343.949 10.5943L345.301 9.12ZM337.411 8.46L335.983 7.05919L332.646 10.46H337.411V8.46ZM340.561 5.25H342.561V0.356413L339.133 3.84919L340.561 5.25ZM333.48 24H335.48V3H333.48H331.48V24H333.48ZM333.48 3V5H343.591V3V0.999999H333.48V3ZM343.591 3V5C345.338 5 346.735 5.28577 347.839 5.78336L348.661 3.96L349.482 2.13664C347.746 1.35423 345.763 0.999999 343.591 0.999999V3ZM348.661 3.96L347.848 5.78762C348.972 6.28701 349.766 6.96672 350.314 7.80997L351.991 6.72L353.667 5.63002C352.656 4.07328 351.229 2.91299 349.473 2.13238L348.661 3.96ZM351.991 6.72L350.322 7.82287C350.856 8.63002 351.161 9.63358 351.161 10.92H353.161H355.161C355.161 8.96642 354.685 7.16998 353.659 5.61713L351.991 6.72ZM353.161 10.92H351.161C351.161 12.2064 350.856 13.21 350.322 14.0171L351.991 15.12L353.659 16.2229C354.685 14.67 355.161 12.8736 355.161 10.92H353.161ZM351.991 15.12L350.331 14.004C349.791 14.8075 349.001 15.4659 347.87 15.953L348.661 17.79L349.451 19.627C351.2 18.8741 352.63 17.7525 353.65 16.236L351.991 15.12ZM348.661 17.79L347.86 15.9571C346.75 16.4418 345.345 16.72 343.591 16.72V18.72V20.72C345.756 20.72 347.731 20.3782 349.461 19.6229L348.661 17.79ZM343.591 18.72V16.72H337.411V18.72V20.72H343.591V18.72ZM337.411 18.72L338.768 20.1891L341.918 17.2791L340.561 15.81L339.203 14.3409L336.053 17.2509L337.411 18.72ZM340.561 15.81H338.561V24H340.561H342.561V15.81H340.561ZM340.561 24V22H333.48V24V26H340.561V24ZM346.051 24L347.709 22.8816L342.549 15.2316L340.891 16.35L339.232 17.4684L344.392 25.1184L346.051 24ZM340.891 16.35V18.35H348.391V16.35V14.35H340.891V16.35ZM348.391 16.35L346.738 17.4773L351.958 25.1273L353.611 24L355.263 22.8727L350.043 15.2227L348.391 16.35ZM353.611 24V22H346.051V24V26H353.611V24ZM340.561 16.59L341.988 15.1892L338.838 11.9792L337.411 13.38L335.983 14.7808L339.133 17.9908L340.561 16.59ZM337.411 13.38V15.38H343.141V13.38V11.38H337.411V13.38ZM343.141 13.38V15.38C344.366 15.38 345.693 15.1121 346.683 14.1653L345.301 12.72L343.918 11.2747C343.988 11.2079 343.875 11.38 343.141 11.38V13.38ZM345.301 12.72L346.652 14.1943C347.615 13.3113 348.021 12.138 348.021 10.92H346.021H344.021C344.021 11.0896 343.994 11.1712 343.984 11.1972C343.976 11.2163 343.97 11.2269 343.949 11.2457L345.301 12.72ZM346.021 10.92H348.021C348.021 9.70199 347.615 8.5287 346.652 7.64569L345.301 9.12L343.949 10.5943C343.97 10.6131 343.976 10.6237 343.984 10.6428C343.994 10.6688 344.021 10.7504 344.021 10.92H346.021ZM345.301 9.12L346.683 7.67472C345.693 6.72789 344.366 6.46 343.141 6.46V8.46V10.46C343.875 10.46 343.988 10.6321 343.918 10.5653L345.301 9.12ZM343.141 8.46V6.46H337.411V8.46V10.46H343.141V8.46ZM337.411 8.46L338.838 9.86081L341.988 6.65081L340.561 5.25L339.133 3.84919L335.983 7.05919L337.411 8.46ZM340.561 5.25H338.561V16.59H340.561H342.561V5.25H340.561ZM358.354 21.87L356.964 23.308L358.354 21.87ZM355.654 3V0.999999H353.654V3H355.654ZM362.734 3H364.734V0.999999H362.734V3ZM363.604 17.76L362.082 19.0579L362.092 19.0691L362.102 19.0802L363.604 17.76ZM368.284 17.76L366.762 16.4621L366.759 16.466L368.284 17.76ZM369.154 3V0.999999H367.154V3H369.154ZM376.114 3H378.114V0.999999H376.114V3ZM373.414 21.87L372.024 20.432V20.432L373.414 21.87ZM365.884 24.48V22.48C363.028 22.48 361.073 21.7168 359.744 20.432L358.354 21.87L356.964 23.308C359.235 25.5032 362.3 26.48 365.884 26.48V24.48ZM358.354 21.87L359.744 20.432C358.428 19.1596 357.654 17.294 357.654 14.55H355.654H353.654C353.654 18.086 354.68 21.1004 356.964 23.308L358.354 21.87ZM355.654 14.55H357.654V3H355.654H353.654V14.55H355.654ZM355.654 3V5H362.734V3V0.999999H355.654V3ZM362.734 3H360.734V14.34H362.734H364.734V3H362.734ZM362.734 14.34H360.734C360.734 16.0791 361.029 17.8232 362.082 19.0579L363.604 17.76L365.126 16.4621C365.019 16.3368 364.734 15.8009 364.734 14.34H362.734ZM363.604 17.76L362.102 19.0802C363.108 20.2251 364.463 20.75 365.944 20.75V18.75V16.75C365.465 16.75 365.26 16.6149 365.106 16.4398L363.604 17.76ZM365.944 18.75V20.75C367.43 20.75 368.808 20.2338 369.809 19.054L368.284 17.76L366.759 16.466C366.64 16.6062 366.458 16.75 365.944 16.75V18.75ZM368.284 17.76L369.806 19.0579C370.859 17.8232 371.154 16.0791 371.154 14.34H369.154H367.154C367.154 15.8009 366.869 16.3368 366.762 16.4621L368.284 17.76ZM369.154 14.34H371.154V3H369.154H367.154V14.34H369.154ZM369.154 3V5H376.114V3V0.999999H369.154V3ZM376.114 3H374.114V14.55H376.114H378.114V3H376.114ZM376.114 14.55H374.114C374.114 17.294 373.34 19.1596 372.024 20.432L373.414 21.87L374.804 23.308C377.088 21.1004 378.114 18.086 378.114 14.55H376.114ZM373.414 21.87L372.024 20.432C370.695 21.7168 368.74 22.48 365.884 22.48V24.48V26.48C369.468 26.48 372.533 25.5032 374.804 23.308L373.414 21.87ZM379.359 24H377.359V26H379.359V24ZM379.359 3V0.999999H377.359V3H379.359ZM385.179 3L386.714 1.7175L386.114 0.999999H385.179V3ZM395.859 15.78V17.78H400.137L397.394 14.4975L395.859 15.78ZM393.159 15.78H391.159V17.78H393.159V15.78ZM393.159 3V0.999999H391.159V3H393.159ZM400.059 3H402.059V0.999999H400.059V3ZM400.059 24V26H402.059V24H400.059ZM394.239 24L392.705 25.2825L393.304 26H394.239V24ZM383.559 11.22V9.22H379.282L382.025 12.5025L383.559 11.22ZM386.259 11.22H388.259V9.22H386.259V11.22ZM386.259 24V26H388.259V24H386.259ZM379.359 24H381.359V3H379.359H377.359V24H379.359ZM379.359 3V5H385.179V3V0.999999H379.359V3ZM385.179 3L383.645 4.28249L394.325 17.0625L395.859 15.78L397.394 14.4975L386.714 1.7175L385.179 3ZM395.859 15.78V13.78H393.159V15.78V17.78H395.859V15.78ZM393.159 15.78H395.159V3H393.159H391.159V15.78H393.159ZM393.159 3V5H400.059V3V0.999999H393.159V3ZM400.059 3H398.059V24H400.059H402.059V3H400.059ZM400.059 24V22H394.239V24V26H400.059V24ZM394.239 24L395.774 22.7175L385.094 9.93751L383.559 11.22L382.025 12.5025L392.705 25.2825L394.239 24ZM383.559 11.22V13.22H386.259V11.22V9.22H383.559V11.22ZM386.259 11.22H384.259V24H386.259H388.259V11.22H386.259ZM386.259 24V22H379.359V24V26H386.259V24Z" fill="url(#paint0_linear_313_588)" mask="url(#path-1-outside-1_313_588)"/>
<defs>
<linearGradient id="paint0_linear_313_588" x1="202" y1="-5" x2="202" y2="32" gradientUnits="userSpaceOnUse">
<stop stop-color="#E51D25"/>
<stop offset="1" stop-color="#1D3A69"/>
</linearGradient>
</defs>
</svg>
