<svg width="60" height="60" viewBox="0 0 60 60" fill="none" xmlns="http://www.w3.org/2000/svg">
<rect width="60" height="60" rx="10" fill="#73BE5F"/>
<g clip-path="url(#clip0_419_10046)">
<path d="M30.0086 21.9137C25.4657 21.9137 21.8014 25.5207 21.8014 29.9926C21.8014 34.4644 25.4657 38.0715 30.0086 38.0715C34.5514 38.0715 38.2157 34.4644 38.2157 29.9926C38.2157 25.5207 34.5514 21.9137 30.0086 21.9137ZM30.0086 35.2449C27.0729 35.2449 24.6729 32.8894 24.6729 29.9926C24.6729 27.0957 27.0657 24.7402 30.0086 24.7402C32.9514 24.7402 35.3443 27.0957 35.3443 29.9926C35.3443 32.8894 32.9443 35.2449 30.0086 35.2449ZM40.4657 21.5832C40.4657 22.6309 39.6086 23.4676 38.5514 23.4676C37.4872 23.4676 36.6371 22.6238 36.6371 21.5832C36.6371 20.5426 37.4943 19.6988 38.5514 19.6988C39.6086 19.6988 40.4657 20.5426 40.4657 21.5832ZM45.9014 23.4957C45.78 20.9715 45.1943 18.7355 43.3157 16.8934C41.4443 15.0512 39.1729 14.4746 36.6086 14.348C33.9657 14.2004 26.0443 14.2004 23.4014 14.348C20.8443 14.4676 18.5729 15.0441 16.6943 16.8863C14.8157 18.7285 14.2372 20.9644 14.1086 23.4887C13.9586 26.0902 13.9586 33.8879 14.1086 36.4894C14.23 39.0137 14.8157 41.2496 16.6943 43.0918C18.5729 44.934 20.8372 45.5105 23.4014 45.6371C26.0443 45.7847 33.9657 45.7847 36.6086 45.6371C39.1729 45.5176 41.4443 44.941 43.3157 43.0918C45.1871 41.2496 45.7729 39.0137 45.9014 36.4894C46.0514 33.8879 46.0514 26.0973 45.9014 23.4957ZM42.4871 39.2808C41.93 40.659 40.8514 41.7207 39.4443 42.2762C37.3372 43.0988 32.3372 42.909 30.0086 42.909C27.68 42.909 22.6729 43.0918 20.5729 42.2762C19.1729 41.7277 18.0943 40.666 17.53 39.2808C16.6943 37.2066 16.8872 32.2848 16.8872 29.9926C16.8872 27.7004 16.7014 22.7715 17.53 20.7043C18.0872 19.3262 19.1657 18.2645 20.5729 17.709C22.68 16.8863 27.68 17.0762 30.0086 17.0762C32.3372 17.0762 37.3443 16.8934 39.4443 17.709C40.8443 18.2574 41.9229 19.3191 42.4871 20.7043C43.3229 22.7785 43.13 27.7004 43.13 29.9926C43.13 32.2848 43.3229 37.2137 42.4871 39.2808Z" fill="white"/>
</g>
<defs>
<clipPath id="clip0_419_10046">
<rect width="32" height="36" fill="white" transform="translate(14 12)"/>
</clipPath>
</defs>
</svg>
