<svg width="60" height="60" viewBox="0 0 60 60" fill="none" xmlns="http://www.w3.org/2000/svg">
<rect width="60" height="60" rx="10" fill="#73BE5F"/>
<g clip-path="url(#clip0_419_10050)">
<path d="M21.2654 46V25.7591H14.4048V46H21.2654ZM17.836 22.9938C20.2284 22.9938 21.7175 21.4396 21.7175 19.4972C21.673 17.5111 20.2285 16 17.8814 16C15.5346 16 14 17.5112 14 19.4972C14 21.4397 15.4888 22.9938 17.7912 22.9938H17.8357H17.836ZM25.0627 46H31.9233V34.6965C31.9233 34.0915 31.9679 33.4872 32.149 33.0548C32.645 31.8461 33.7739 30.5942 35.669 30.5942C38.1516 30.5942 39.1448 32.4504 39.1448 35.1714V45.9999H46.005V34.3939C46.005 28.1767 42.6203 25.2839 38.1064 25.2839C34.4054 25.2839 32.7804 27.3125 31.8777 28.6942H31.9235V25.7586H25.0629C25.1529 27.6579 25.0629 45.9996 25.0629 45.9996L25.0627 46Z" fill="white"/>
</g>
<defs>
<clipPath id="clip0_419_10050">
<rect width="32" height="30" fill="white" transform="translate(14 16)"/>
</clipPath>
</defs>
</svg>
