<svg width="60" height="60" viewBox="0 0 60 60" fill="none" xmlns="http://www.w3.org/2000/svg">
<rect width="60" height="60" rx="10" fill="#73BE5F"/>
<g clip-path="url(#clip0_419_10054)">
<path fill-rule="evenodd" clip-rule="evenodd" d="M39.8759 20.069C37.2556 17.4465 33.7708 16.0015 30.058 16C22.4081 16 16.1819 22.2238 16.1789 29.8738C16.1779 32.3191 16.817 34.7061 18.0315 36.8102L16.0625 44L23.42 42.0706C25.4472 43.1759 27.7296 43.7584 30.0525 43.7594H30.0582C37.7074 43.7594 43.9341 37.5349 43.9372 29.8848C43.9386 26.1775 42.4964 22.6915 39.8759 20.069ZM30.0582 41.4161H30.0535C27.9835 41.4153 25.9533 40.8594 24.1822 39.8086L23.7609 39.5587L19.3949 40.7036L20.5603 36.4481L20.2859 36.0119C19.1312 34.1758 18.5213 32.0536 18.5222 29.8746C18.5247 23.5163 23.6997 18.3433 30.0628 18.3433C33.1439 18.3445 36.0403 19.5456 38.2183 21.7254C40.3963 23.9051 41.595 26.8026 41.5939 29.8839C41.5912 36.2428 36.4163 41.4161 30.0582 41.4161ZM36.3858 32.7792C36.039 32.6057 34.334 31.767 34.0161 31.6513C33.6982 31.5356 33.4671 31.4777 33.2358 31.8248C33.0047 32.1719 32.3401 32.9528 32.1377 33.1841C31.9355 33.4155 31.7332 33.4444 31.3864 33.2709C31.0396 33.0974 29.9222 32.7313 28.5976 31.5502C27.5667 30.631 26.8706 29.4956 26.6684 29.1486C26.4661 28.8015 26.6469 28.6138 26.8205 28.441C26.9764 28.2857 27.1672 28.0361 27.3406 27.8337C27.514 27.6312 27.5718 27.4866 27.6874 27.2553C27.803 27.0239 27.7452 26.8214 27.6585 26.6479C27.5718 26.4744 26.8783 24.768 26.5893 24.0739C26.3078 23.3978 26.0219 23.4893 25.809 23.4787C25.6069 23.4687 25.3755 23.4665 25.1444 23.4665C24.9132 23.4665 24.5375 23.5533 24.2196 23.9003C23.9017 24.2474 23.0059 25.0861 23.0059 26.7925C23.0059 28.4989 24.2485 30.1474 24.4219 30.3788C24.5953 30.6101 26.8672 34.1119 30.346 35.6135C31.1734 35.9707 31.8194 36.184 32.323 36.3439C33.1538 36.6076 33.9098 36.5704 34.5074 36.4812C35.1736 36.3817 36.5591 35.6425 36.8481 34.8327C37.1371 34.0229 37.1371 33.3287 37.0504 33.1841C36.9637 33.0395 36.7325 32.9528 36.3858 32.7792Z" fill="white"/>
</g>
<defs>
<clipPath id="clip0_419_10054">
<rect width="27.8768" height="28" fill="white" transform="translate(16.0615 16)"/>
</clipPath>
</defs>
</svg>
