<svg width="263" height="43" viewBox="0 0 263 43" fill="none" xmlns="http://www.w3.org/2000/svg">
<mask id="path-1-outside-1_304_71" maskUnits="userSpaceOnUse" x="0" y="0" width="263" height="43" fill="black">
<rect fill="white" width="263" height="43"/>
<path d="M3.85 39V4H22.55C27.3833 4 30.95 4.86667 33.25 6.6C35.55 8.3 36.7 10.4833 36.7 13.15C36.7 14.9167 36.2 16.5 35.2 17.9C34.2333 19.2667 32.8167 20.35 30.95 21.15C29.0833 21.95 26.7833 22.35 24.05 22.35L25.05 19.65C27.7833 19.65 30.1333 20.0333 32.1 20.8C34.1 21.5667 35.6333 22.6833 36.7 24.15C37.8 25.5833 38.35 27.3167 38.35 29.35C38.35 32.3833 37.0833 34.75 34.55 36.45C32.05 38.15 28.3833 39 23.55 39H3.85ZM15.45 30.75H22.55C23.85 30.75 24.8167 30.5167 25.45 30.05C26.1167 29.5833 26.45 28.9 26.45 28C26.45 27.1 26.1167 26.4167 25.45 25.95C24.8167 25.4833 23.85 25.25 22.55 25.25H14.65V17.45H20.95C22.2833 17.45 23.25 17.2333 23.85 16.8C24.4833 16.3333 24.8 15.6833 24.8 14.85C24.8 13.9833 24.4833 13.3333 23.85 12.9C23.25 12.4667 22.2833 12.25 20.95 12.25H15.45V30.75ZM42.5219 39V4H54.3219V39H42.5219ZM60.0023 39V4H78.7023C83.5357 4 87.1023 4.86667 89.4023 6.6C91.7023 8.3 92.8523 10.4833 92.8523 13.15C92.8523 14.9167 92.3523 16.5 91.3523 17.9C90.3857 19.2667 88.969 20.35 87.1023 21.15C85.2357 21.95 82.9357 22.35 80.2023 22.35L81.2023 19.65C83.9357 19.65 86.2857 20.0333 88.2523 20.8C90.2523 21.5667 91.7857 22.6833 92.8523 24.15C93.9523 25.5833 94.5023 27.3167 94.5023 29.35C94.5023 32.3833 93.2357 34.75 90.7023 36.45C88.2023 38.15 84.5357 39 79.7023 39H60.0023ZM71.6023 30.75H78.7023C80.0023 30.75 80.969 30.5167 81.6023 30.05C82.269 29.5833 82.6023 28.9 82.6023 28C82.6023 27.1 82.269 26.4167 81.6023 25.95C80.969 25.4833 80.0023 25.25 78.7023 25.25H70.8023V17.45H77.1023C78.4357 17.45 79.4023 17.2333 80.0023 16.8C80.6357 16.3333 80.9523 15.6833 80.9523 14.85C80.9523 13.9833 80.6357 13.3333 80.0023 12.9C79.4023 12.4667 78.4357 12.25 77.1023 12.25H71.6023V30.75ZM124.464 17H140.064V25.5H124.464V17ZM125.264 30.1H142.764V39H113.664V4H142.114V12.9H125.264V30.1ZM143.813 39L159.413 17.2L159.363 25.45L144.263 4H157.513L166.313 17L160.663 17.05L169.263 4H181.963L166.863 25V16.8L182.713 39H169.213L160.413 25.4L165.863 25.35L157.263 39H143.813ZM184.123 39V4H200.973C204.24 4 207.057 4.53333 209.423 5.6C211.823 6.66666 213.673 8.2 214.973 10.2C216.273 12.1667 216.923 14.5 216.923 17.2C216.923 19.9 216.273 22.2333 214.973 24.2C213.673 26.1667 211.823 27.7 209.423 28.8C207.057 29.8667 204.24 30.4 200.973 30.4H190.673L195.923 25.35V39H184.123ZM195.923 26.65L190.673 21.3H200.223C201.857 21.3 203.057 20.9333 203.823 20.2C204.623 19.4667 205.023 18.4667 205.023 17.2C205.023 15.9333 204.623 14.9333 203.823 14.2C203.057 13.4667 201.857 13.1 200.223 13.1H190.673L195.923 7.75V26.65ZM239.632 39.8C236.798 39.8 234.165 39.35 231.732 38.45C229.332 37.55 227.248 36.2833 225.482 34.65C223.715 32.9833 222.332 31.0333 221.332 28.8C220.365 26.5667 219.882 24.1333 219.882 21.5C219.882 18.8333 220.365 16.4 221.332 14.2C222.332 11.9667 223.715 10.0333 225.482 8.4C227.248 6.73333 229.332 5.45 231.732 4.55C234.165 3.65 236.798 3.2 239.632 3.2C242.498 3.2 245.132 3.65 247.532 4.55C249.932 5.45 252.015 6.73333 253.782 8.4C255.548 10.0333 256.915 11.9667 257.882 14.2C258.882 16.4 259.382 18.8333 259.382 21.5C259.382 24.1333 258.882 26.5667 257.882 28.8C256.915 31.0333 255.548 32.9833 253.782 34.65C252.015 36.2833 249.932 37.55 247.532 38.45C245.132 39.35 242.498 39.8 239.632 39.8ZM239.632 30.25C240.732 30.25 241.748 30.05 242.682 29.65C243.648 29.25 244.482 28.6833 245.182 27.95C245.915 27.1833 246.482 26.2667 246.882 25.2C247.282 24.1 247.482 22.8667 247.482 21.5C247.482 20.1333 247.282 18.9167 246.882 17.85C246.482 16.75 245.915 15.8333 245.182 15.1C244.482 14.3333 243.648 13.75 242.682 13.35C241.748 12.95 240.732 12.75 239.632 12.75C238.532 12.75 237.498 12.95 236.532 13.35C235.598 13.75 234.765 14.3333 234.032 15.1C233.332 15.8333 232.782 16.75 232.382 17.85C231.982 18.9167 231.782 20.1333 231.782 21.5C231.782 22.8667 231.982 24.1 232.382 25.2C232.782 26.2667 233.332 27.1833 234.032 27.95C234.765 28.6833 235.598 29.25 236.532 29.65C237.498 30.05 238.532 30.25 239.632 30.25Z"/>
</mask>
<path d="M3.85 39H0.85V42H3.85V39ZM3.85 4V0.999998H0.85V4H3.85ZM33.25 6.6L31.4445 8.99583L31.4556 9.00423L31.4668 9.01253L33.25 6.6ZM35.2 17.9L32.7588 16.1563L32.7508 16.1676L35.2 17.9ZM30.95 21.15L29.7682 18.3926V18.3926L30.95 21.15ZM24.05 22.35L21.2368 21.3081L19.7397 25.35H24.05V22.35ZM25.05 19.65V16.65H22.962L22.2368 18.6081L25.05 19.65ZM32.1 20.8L31.0104 23.5951L31.0183 23.5982L31.0262 23.6012L32.1 20.8ZM36.7 24.15L34.2738 25.9145L34.2965 25.9458L34.3201 25.9765L36.7 24.15ZM34.55 36.45L32.8783 33.9589L32.8707 33.964L32.8631 33.9692L34.55 36.45ZM15.45 30.75H12.45V33.75H15.45V30.75ZM25.45 30.05L23.7296 27.5923L23.6998 27.6132L23.6704 27.6348L25.45 30.05ZM25.45 25.95L23.6704 28.3652L23.6998 28.3868L23.7296 28.4077L25.45 25.95ZM14.65 25.25H11.65V28.25H14.65V25.25ZM14.65 17.45V14.45H11.65V17.45H14.65ZM23.85 16.8L25.6065 19.232L25.6181 19.2237L25.6296 19.2152L23.85 16.8ZM23.85 12.9L22.0935 15.332L22.1245 15.3544L22.1559 15.3759L23.85 12.9ZM15.45 12.25V9.25H12.45V12.25H15.45ZM3.85 39H6.85V4H3.85H0.85V39H3.85ZM3.85 4V7H22.55V4V0.999998H3.85V4ZM22.55 4V7C27.133 7 29.9132 7.84185 31.4445 8.99583L33.25 6.6L35.0556 4.20417C31.9868 1.89148 27.6337 0.999998 22.55 0.999998V4ZM33.25 6.6L31.4668 9.01253C33.0662 10.1947 33.7 11.5127 33.7 13.15H36.7H39.7C39.7 9.454 38.0338 6.40531 35.0332 4.18747L33.25 6.6ZM36.7 13.15H33.7C33.7 14.3093 33.3851 15.2795 32.7588 16.1563L35.2 17.9L37.6412 19.6437C39.0149 17.7205 39.7 15.524 39.7 13.15H36.7ZM35.2 17.9L32.7508 16.1676C32.166 16.9944 31.2348 17.7641 29.7682 18.3926L30.95 21.15L32.1318 23.9074C34.3986 22.9359 36.3007 21.539 37.6493 19.6324L35.2 17.9ZM30.95 21.15L29.7682 18.3926C28.3802 18.9874 26.5097 19.35 24.05 19.35V22.35V25.35C27.057 25.35 29.7865 24.9125 32.1318 23.9074L30.95 21.15ZM24.05 22.35L26.8632 23.3919L27.8632 20.6919L25.05 19.65L22.2368 18.6081L21.2368 21.3081L24.05 22.35ZM25.05 19.65V22.65C27.5152 22.65 29.4768 22.9973 31.0104 23.5951L32.1 20.8L33.1896 18.0049C30.7899 17.0694 28.0515 16.65 25.05 16.65V19.65ZM32.1 20.8L31.0262 23.6012C32.5844 24.1985 33.6061 24.9964 34.2738 25.9145L36.7 24.15L39.1262 22.3855C37.6606 20.3703 35.6156 18.9348 33.1738 17.9988L32.1 20.8ZM36.7 24.15L34.3201 25.9765C34.968 26.8207 35.35 27.8901 35.35 29.35H38.35H41.35C41.35 26.7433 40.632 24.346 39.0799 22.3235L36.7 24.15ZM38.35 29.35H35.35C35.35 31.3765 34.5872 32.8121 32.8783 33.9589L34.55 36.45L36.2217 38.9411C39.5794 36.6879 41.35 33.3901 41.35 29.35H38.35ZM34.55 36.45L32.8631 33.9692C31.0772 35.1836 28.1118 36 23.55 36V39V42C28.6549 42 33.0228 41.1164 36.2369 38.9308L34.55 36.45ZM23.55 39V36H3.85V39V42H23.55V39ZM15.45 30.75V33.75H22.55V30.75V27.75H15.45V30.75ZM22.55 30.75V33.75C24.1095 33.75 25.8411 33.4883 27.2296 32.4652L25.45 30.05L23.6704 27.6348C23.7481 27.5776 23.7398 27.612 23.5461 27.6588C23.3512 27.7058 23.0309 27.75 22.55 27.75V30.75ZM25.45 30.05L27.1704 32.5077C28.7334 31.4136 29.45 29.7579 29.45 28H26.45H23.45C23.45 28.0773 23.437 28.0089 23.5037 27.8722C23.5356 27.8068 23.577 27.7446 23.6237 27.6908C23.6697 27.6379 23.7094 27.6064 23.7296 27.5923L25.45 30.05ZM26.45 28H29.45C29.45 26.2421 28.7334 24.5864 27.1704 23.4923L25.45 25.95L23.7296 28.4077C23.7094 28.3936 23.6697 28.3621 23.6237 28.3092C23.577 28.2554 23.5356 28.1932 23.5037 28.1278C23.437 27.9911 23.45 27.9227 23.45 28H26.45ZM25.45 25.95L27.2296 23.5348C25.8411 22.5117 24.1095 22.25 22.55 22.25V25.25V28.25C23.0309 28.25 23.3512 28.2942 23.5461 28.3412C23.7398 28.388 23.7481 28.4224 23.6704 28.3652L25.45 25.95ZM22.55 25.25V22.25H14.65V25.25V28.25H22.55V25.25ZM14.65 25.25H17.65V17.45H14.65H11.65V25.25H14.65ZM14.65 17.45V20.45H20.95V17.45V14.45H14.65V17.45ZM20.95 17.45V20.45C22.4714 20.45 24.2261 20.229 25.6065 19.232L23.85 16.8L22.0935 14.368C22.2142 14.2808 22.2326 14.3122 22.0189 14.3601C21.8103 14.4069 21.4665 14.45 20.95 14.45V17.45ZM23.85 16.8L25.6296 19.2152C27.0821 18.1449 27.8 16.5704 27.8 14.85H24.8H21.8C21.8 14.8808 21.7961 14.7911 21.8655 14.6486C21.9378 14.5002 22.0319 14.4132 22.0704 14.3848L23.85 16.8ZM24.8 14.85H27.8C27.8 13.1423 27.1106 11.4959 25.5441 10.4241L23.85 12.9L22.1559 15.3759C22.0705 15.3174 21.9491 15.198 21.8655 15.0264C21.7887 14.8687 21.8 14.7826 21.8 14.85H24.8ZM23.85 12.9L25.6065 10.468C24.2261 9.47103 22.4714 9.25 20.95 9.25V12.25V15.25C21.4665 15.25 21.8103 15.2931 22.0189 15.3399C22.2326 15.3878 22.2142 15.4192 22.0935 15.332L23.85 12.9ZM20.95 12.25V9.25H15.45V12.25V15.25H20.95V12.25ZM15.45 12.25H12.45V30.75H15.45H18.45V12.25H15.45ZM42.5219 39H39.5219V42H42.5219V39ZM42.5219 4V0.999998H39.5219V4H42.5219ZM54.3219 4H57.3219V0.999998H54.3219V4ZM54.3219 39V42H57.3219V39H54.3219ZM42.5219 39H45.5219V4H42.5219H39.5219V39H42.5219ZM42.5219 4V7H54.3219V4V0.999998H42.5219V4ZM54.3219 4H51.3219V39H54.3219H57.3219V4H54.3219ZM54.3219 39V36H42.5219V39V42H54.3219V39ZM60.0023 39H57.0023V42H60.0023V39ZM60.0023 4V0.999998H57.0023V4H60.0023ZM89.4023 6.6L87.5968 8.99583L87.6079 9.00423L87.6192 9.01253L89.4023 6.6ZM91.3523 17.9L88.9111 16.1563L88.9031 16.1676L91.3523 17.9ZM87.1023 21.15L85.9206 18.3926V18.3926L87.1023 21.15ZM80.2023 22.35L77.3891 21.3081L75.8921 25.35H80.2023V22.35ZM81.2023 19.65V16.65H79.1143L78.3891 18.6081L81.2023 19.65ZM88.2523 20.8L87.1627 23.5951L87.1706 23.5982L87.1785 23.6012L88.2523 20.8ZM92.8523 24.15L90.4261 25.9145L90.4489 25.9458L90.4724 25.9765L92.8523 24.15ZM90.7023 36.45L89.0307 33.9589L89.023 33.964L89.0154 33.9692L90.7023 36.45ZM71.6023 30.75H68.6023V33.75H71.6023V30.75ZM81.6023 30.05L79.882 27.5923L79.8521 27.6132L79.8227 27.6348L81.6023 30.05ZM81.6023 25.95L79.8227 28.3652L79.8521 28.3868L79.882 28.4077L81.6023 25.95ZM70.8023 25.25H67.8023V28.25H70.8023V25.25ZM70.8023 17.45V14.45H67.8023V17.45H70.8023ZM80.0023 16.8L81.7588 19.232L81.7704 19.2237L81.7819 19.2152L80.0023 16.8ZM80.0023 12.9L78.2459 15.332L78.2768 15.3544L78.3083 15.3759L80.0023 12.9ZM71.6023 12.25V9.25H68.6023V12.25H71.6023ZM60.0023 39H63.0023V4H60.0023H57.0023V39H60.0023ZM60.0023 4V7H78.7023V4V0.999998H60.0023V4ZM78.7023 4V7C83.2854 7 86.0656 7.84185 87.5968 8.99583L89.4023 6.6L91.2079 4.20417C88.1391 1.89148 83.786 0.999998 78.7023 0.999998V4ZM89.4023 6.6L87.6192 9.01253C89.2186 10.1947 89.8523 11.5127 89.8523 13.15H92.8523H95.8523C95.8523 9.454 94.1861 6.40531 91.1855 4.18747L89.4023 6.6ZM92.8523 13.15H89.8523C89.8523 14.3093 89.5374 15.2795 88.9111 16.1563L91.3523 17.9L93.7935 19.6437C95.1673 17.7205 95.8523 15.524 95.8523 13.15H92.8523ZM91.3523 17.9L88.9031 16.1676C88.3183 16.9944 87.3871 17.7641 85.9206 18.3926L87.1023 21.15L88.2841 23.9074C90.5509 22.9359 92.453 21.539 93.8016 19.6324L91.3523 17.9ZM87.1023 21.15L85.9206 18.3926C84.5325 18.9874 82.662 19.35 80.2023 19.35V22.35V25.35C83.2093 25.35 85.9388 24.9125 88.2841 23.9074L87.1023 21.15ZM80.2023 22.35L83.0156 23.3919L84.0156 20.6919L81.2023 19.65L78.3891 18.6081L77.3891 21.3081L80.2023 22.35ZM81.2023 19.65V22.65C83.6675 22.65 85.6291 22.9973 87.1627 23.5951L88.2523 20.8L89.342 18.0049C86.9423 17.0694 84.2038 16.65 81.2023 16.65V19.65ZM88.2523 20.8L87.1785 23.6012C88.7367 24.1985 89.7584 24.9964 90.4261 25.9145L92.8523 24.15L95.2786 22.3855C93.813 20.3703 91.768 18.9348 89.3262 17.9988L88.2523 20.8ZM92.8523 24.15L90.4724 25.9765C91.1203 26.8207 91.5023 27.8901 91.5023 29.35H94.5023H97.5023C97.5023 26.7433 96.7844 24.346 95.2323 22.3235L92.8523 24.15ZM94.5023 29.35H91.5023C91.5023 31.3765 90.7396 32.8121 89.0307 33.9589L90.7023 36.45L92.374 38.9411C95.7318 36.6879 97.5023 33.3901 97.5023 29.35H94.5023ZM90.7023 36.45L89.0154 33.9692C87.2296 35.1836 84.2641 36 79.7023 36V39V42C84.8072 42 89.1751 41.1164 92.3893 38.9308L90.7023 36.45ZM79.7023 39V36H60.0023V39V42H79.7023V39ZM71.6023 30.75V33.75H78.7023V30.75V27.75H71.6023V30.75ZM78.7023 30.75V33.75C80.2618 33.75 81.9934 33.4883 83.3819 32.4652L81.6023 30.05L79.8227 27.6348C79.9005 27.5776 79.8922 27.612 79.6984 27.6588C79.5035 27.7058 79.1833 27.75 78.7023 27.75V30.75ZM81.6023 30.05L83.3227 32.5077C84.8857 31.4136 85.6023 29.7579 85.6023 28H82.6023H79.6023C79.6023 28.0773 79.5894 28.0089 79.656 27.8722C79.688 27.8068 79.7293 27.7446 79.776 27.6908C79.822 27.6379 79.8618 27.6064 79.882 27.5923L81.6023 30.05ZM82.6023 28H85.6023C85.6023 26.2421 84.8857 24.5864 83.3227 23.4923L81.6023 25.95L79.882 28.4077C79.8618 28.3936 79.822 28.3621 79.776 28.3092C79.7293 28.2554 79.688 28.1932 79.656 28.1278C79.5894 27.9911 79.6023 27.9227 79.6023 28H82.6023ZM81.6023 25.95L83.3819 23.5348C81.9934 22.5117 80.2618 22.25 78.7023 22.25V25.25V28.25C79.1833 28.25 79.5035 28.2942 79.6984 28.3412C79.8922 28.388 79.9005 28.4224 79.8227 28.3652L81.6023 25.95ZM78.7023 25.25V22.25H70.8023V25.25V28.25H78.7023V25.25ZM70.8023 25.25H73.8023V17.45H70.8023H67.8023V25.25H70.8023ZM70.8023 17.45V20.45H77.1023V17.45V14.45H70.8023V17.45ZM77.1023 17.45V20.45C78.6238 20.45 80.3784 20.229 81.7588 19.232L80.0023 16.8L78.2459 14.368C78.3665 14.2808 78.3849 14.3122 78.1712 14.3601C77.9626 14.4069 77.6188 14.45 77.1023 14.45V17.45ZM80.0023 16.8L81.7819 19.2152C83.2344 18.1449 83.9523 16.5704 83.9523 14.85H80.9523H77.9523C77.9523 14.8808 77.9485 14.7911 78.0179 14.6486C78.0902 14.5002 78.1843 14.4132 78.2227 14.3848L80.0023 16.8ZM80.9523 14.85H83.9523C83.9523 13.1423 83.2629 11.4959 81.6964 10.4241L80.0023 12.9L78.3083 15.3759C78.2228 15.3174 78.1015 15.198 78.0179 15.0264C77.941 14.8687 77.9523 14.7826 77.9523 14.85H80.9523ZM80.0023 12.9L81.7588 10.468C80.3784 9.47103 78.6238 9.25 77.1023 9.25V12.25V15.25C77.6188 15.25 77.9626 15.2931 78.1712 15.3399C78.3849 15.3878 78.3665 15.4192 78.2459 15.332L80.0023 12.9ZM77.1023 12.25V9.25H71.6023V12.25V15.25H77.1023V12.25ZM71.6023 12.25H68.6023V30.75H71.6023H74.6023V12.25H71.6023ZM124.464 17V14H121.464V17H124.464ZM140.064 17H143.064V14H140.064V17ZM140.064 25.5V28.5H143.064V25.5H140.064ZM124.464 25.5H121.464V28.5H124.464V25.5ZM125.264 30.1H122.264V33.1H125.264V30.1ZM142.764 30.1H145.764V27.1H142.764V30.1ZM142.764 39V42H145.764V39H142.764ZM113.664 39H110.664V42H113.664V39ZM113.664 4V0.999998H110.664V4H113.664ZM142.114 4H145.114V0.999998H142.114V4ZM142.114 12.9V15.9H145.114V12.9H142.114ZM125.264 12.9V9.9H122.264V12.9H125.264ZM124.464 17V20H140.064V17V14H124.464V17ZM140.064 17H137.064V25.5H140.064H143.064V17H140.064ZM140.064 25.5V22.5H124.464V25.5V28.5H140.064V25.5ZM124.464 25.5H127.464V17H124.464H121.464V25.5H124.464ZM125.264 30.1V33.1H142.764V30.1V27.1H125.264V30.1ZM142.764 30.1H139.764V39H142.764H145.764V30.1H142.764ZM142.764 39V36H113.664V39V42H142.764V39ZM113.664 39H116.664V4H113.664H110.664V39H113.664ZM113.664 4V7H142.114V4V0.999998H113.664V4ZM142.114 4H139.114V12.9H142.114H145.114V4H142.114ZM142.114 12.9V9.9H125.264V12.9V15.9H142.114V12.9ZM125.264 12.9H122.264V30.1H125.264H128.264V12.9H125.264ZM143.813 39L141.373 37.2542L137.977 42H143.813V39ZM159.413 17.2L162.413 17.2182L162.47 7.77263L156.973 15.4542L159.413 17.2ZM159.363 25.45L156.91 27.1769L162.306 34.8424L162.363 25.4682L159.363 25.45ZM144.263 4V0.999998H138.482L141.81 5.7269L144.263 4ZM157.513 4L159.997 2.3183L159.105 0.999998H157.513V4ZM166.313 17L166.339 19.9999L171.933 19.9504L168.797 15.3183L166.313 17ZM160.663 17.05L158.158 15.3992L155.06 20.0997L160.689 20.0499L160.663 17.05ZM169.263 4V0.999998H167.647L166.758 2.34921L169.263 4ZM181.963 4L184.399 5.75138L187.815 0.999998H181.963V4ZM166.863 25H163.863V34.311L169.299 26.7514L166.863 25ZM166.863 16.8L169.304 15.0568L163.863 7.43517V16.8H166.863ZM182.713 39V42H188.541L185.154 37.2568L182.713 39ZM169.213 39L166.694 40.6298L167.581 42H169.213V39ZM160.413 25.4L160.385 22.4001L154.931 22.4502L157.894 27.0298L160.413 25.4ZM165.863 25.35L168.401 26.9492L171.33 22.2997L165.835 22.3501L165.863 25.35ZM157.263 39V42H158.919L159.801 40.5992L157.263 39ZM143.813 39L146.253 40.7458L161.853 18.9458L159.413 17.2L156.973 15.4542L141.373 37.2542L143.813 39ZM159.413 17.2L156.413 17.1818L156.363 25.4318L159.363 25.45L162.363 25.4682L162.413 17.2182L159.413 17.2ZM159.363 25.45L161.816 23.7231L146.716 2.27309L144.263 4L141.81 5.7269L156.91 27.1769L159.363 25.45ZM144.263 4V7H157.513V4V0.999998H144.263V4ZM157.513 4L155.029 5.6817L163.829 18.6817L166.313 17L168.797 15.3183L159.997 2.3183L157.513 4ZM166.313 17L166.286 14.0001L160.636 14.0501L160.663 17.05L160.689 20.0499L166.339 19.9999L166.313 17ZM160.663 17.05L163.168 18.7008L171.768 5.65079L169.263 4L166.758 2.34921L158.158 15.3992L160.663 17.05ZM169.263 4V7H181.963V4V0.999998H169.263V4ZM181.963 4L179.527 2.24861L164.427 23.2486L166.863 25L169.299 26.7514L184.399 5.75138L181.963 4ZM166.863 25H169.863V16.8H166.863H163.863V25H166.863ZM166.863 16.8L164.421 18.5432L180.271 40.7432L182.713 39L185.154 37.2568L169.304 15.0568L166.863 16.8ZM182.713 39V36H169.213V39V42H182.713V39ZM169.213 39L171.732 37.3702L162.932 23.7702L160.413 25.4L157.894 27.0298L166.694 40.6298L169.213 39ZM160.413 25.4L160.44 28.3999L165.89 28.3499L165.863 25.35L165.835 22.3501L160.385 22.4001L160.413 25.4ZM165.863 25.35L163.325 23.7508L154.725 37.4008L157.263 39L159.801 40.5992L168.401 26.9492L165.863 25.35ZM157.263 39V36H143.813V39V42H157.263V39ZM184.123 39H181.123V42H184.123V39ZM184.123 4V0.999998H181.123V4H184.123ZM209.423 5.6L208.191 8.33504L208.198 8.33825L208.205 8.34143L209.423 5.6ZM214.973 10.2L212.458 11.835L212.464 11.8447L212.471 11.8543L214.973 10.2ZM214.973 24.2L212.471 22.5457V22.5457L214.973 24.2ZM209.423 28.8L210.656 31.535L210.665 31.5311L210.673 31.5272L209.423 28.8ZM190.673 30.4L188.594 28.2379L183.227 33.4H190.673V30.4ZM195.923 25.35H198.923V18.3017L193.844 23.1879L195.923 25.35ZM195.923 39V42H198.923V39H195.923ZM195.923 26.65L193.782 28.7512L198.923 33.9904V26.65H195.923ZM190.673 21.3V18.3H183.526L188.532 23.4012L190.673 21.3ZM203.823 20.2L201.796 17.9885L201.773 18.0101L201.75 18.0321L203.823 20.2ZM203.823 14.2L201.75 16.3679L201.773 16.3899L201.796 16.4115L203.823 14.2ZM190.673 13.1L188.532 10.9988L183.526 16.1H190.673V13.1ZM195.923 7.75H198.923V0.40962L193.782 5.64879L195.923 7.75ZM184.123 39H187.123V4H184.123H181.123V39H184.123ZM184.123 4V7H200.973V4V0.999998H184.123V4ZM200.973 4V7C203.921 7 206.298 7.48198 208.191 8.33504L209.423 5.6L210.656 2.86495C207.816 1.58468 204.559 0.999998 200.973 0.999998V4ZM209.423 5.6L208.205 8.34143C210.13 9.19717 211.506 10.3701 212.458 11.835L214.973 10.2L217.489 8.56503C215.841 6.02991 213.516 4.13616 210.642 2.85856L209.423 5.6ZM214.973 10.2L212.471 11.8543C213.401 13.2617 213.923 15.0004 213.923 17.2H216.923H219.923C219.923 13.9996 219.146 11.0716 217.476 8.5457L214.973 10.2ZM216.923 17.2H213.923C213.923 19.3996 213.401 21.1383 212.471 22.5457L214.973 24.2L217.476 25.8543C219.146 23.3284 219.923 20.4004 219.923 17.2H216.923ZM214.973 24.2L212.471 22.5457C211.516 23.9902 210.127 25.1776 208.173 26.0728L209.423 28.8L210.673 31.5272C213.52 30.2224 215.831 28.3431 217.476 25.8543L214.973 24.2ZM209.423 28.8L208.191 26.065C206.298 26.918 203.921 27.4 200.973 27.4V30.4V33.4C204.559 33.4 207.816 32.8153 210.656 31.535L209.423 28.8ZM200.973 30.4V27.4H190.673V30.4V33.4H200.973V30.4ZM190.673 30.4L192.753 32.5621L198.003 27.5121L195.923 25.35L193.844 23.1879L188.594 28.2379L190.673 30.4ZM195.923 25.35H192.923V39H195.923H198.923V25.35H195.923ZM195.923 39V36H184.123V39V42H195.923V39ZM195.923 26.65L198.065 24.5488L192.815 19.1988L190.673 21.3L188.532 23.4012L193.782 28.7512L195.923 26.65ZM190.673 21.3V24.3H200.223V21.3V18.3H190.673V21.3ZM200.223 21.3V24.3C202.224 24.3 204.336 23.8615 205.897 22.3679L203.823 20.2L201.75 18.0321C201.778 18.0052 201.489 18.3 200.223 18.3V21.3ZM203.823 20.2L205.851 22.4115C207.376 21.0136 208.023 19.1537 208.023 17.2H205.023H202.023C202.023 17.7797 201.871 17.9197 201.796 17.9885L203.823 20.2ZM205.023 17.2H208.023C208.023 15.2463 207.376 13.3864 205.851 11.9885L203.823 14.2L201.796 16.4115C201.871 16.4803 202.023 16.6203 202.023 17.2H205.023ZM203.823 14.2L205.897 12.0321C204.336 10.5385 202.224 10.1 200.223 10.1V13.1V16.1C201.489 16.1 201.778 16.3948 201.75 16.3679L203.823 14.2ZM200.223 13.1V10.1H190.673V13.1V16.1H200.223V13.1ZM190.673 13.1L192.815 15.2012L198.065 9.85122L195.923 7.75L193.782 5.64879L188.532 10.9988L190.673 13.1ZM195.923 7.75H192.923V26.65H195.923H198.923V7.75H195.923ZM231.732 38.45L230.678 41.259L230.691 41.2637L231.732 38.45ZM225.482 34.65L223.423 36.8322L223.434 36.8426L223.445 36.8528L225.482 34.65ZM221.332 28.8L218.578 29.9917L218.586 30.0089L218.594 30.026L221.332 28.8ZM221.332 14.2L218.594 12.974L218.589 12.9836L218.585 12.9932L221.332 14.2ZM225.482 8.4L227.518 10.6028L227.529 10.5926L227.54 10.5822L225.482 8.4ZM231.732 4.55L230.691 1.73626L230.678 1.74101L231.732 4.55ZM247.532 4.55L246.478 7.35899V7.35899L247.532 4.55ZM253.782 8.4L251.723 10.5822L251.734 10.5926L251.745 10.6028L253.782 8.4ZM257.882 14.2L255.128 15.3917L255.139 15.4166L255.151 15.4414L257.882 14.2ZM257.882 28.8L255.144 27.574L255.136 27.5911L255.128 27.6083L257.882 28.8ZM253.782 34.65L255.818 36.8528L255.829 36.8426L255.84 36.8322L253.782 34.65ZM247.532 38.45L246.478 35.641L247.532 38.45ZM242.682 29.65L241.535 26.8779L241.517 26.8851L241.5 26.8926L242.682 29.65ZM245.182 27.95L243.014 25.8763L243.012 25.8786L245.182 27.95ZM246.882 25.2L249.691 26.2534L249.696 26.2393L249.701 26.2252L246.882 25.2ZM246.882 17.85L244.062 18.8752L244.067 18.8893L244.073 18.9034L246.882 17.85ZM245.182 15.1L242.966 17.1228L243.012 17.1731L243.06 17.2213L245.182 15.1ZM242.682 13.35L241.5 16.1074L241.517 16.1149L241.535 16.1221L242.682 13.35ZM236.532 13.35L235.385 10.5779L235.367 10.5851L235.35 10.5926L236.532 13.35ZM234.032 15.1L231.864 13.0263L231.862 13.0286L234.032 15.1ZM232.382 17.85L235.191 18.9034L235.196 18.8893L235.201 18.8752L232.382 17.85ZM232.382 25.2L229.562 26.2252L229.567 26.2393L229.573 26.2534L232.382 25.2ZM234.032 27.95L231.816 29.9728L231.862 30.0231L231.91 30.0713L234.032 27.95ZM236.532 29.65L235.35 32.4074L235.367 32.4149L235.385 32.4221L236.532 29.65ZM239.632 39.8V36.8C237.121 36.8 234.843 36.4022 232.772 35.6363L231.732 38.45L230.691 41.2637C233.487 42.2978 236.476 42.8 239.632 42.8V39.8ZM231.732 38.45L232.785 35.641C230.725 34.8685 228.981 33.7998 227.518 32.4472L225.482 34.65L223.445 36.8528C225.515 38.7669 227.938 40.2315 230.678 41.259L231.732 38.45ZM225.482 34.65L227.54 32.4678C226.063 31.0742 224.91 29.4498 224.07 27.574L221.332 28.8L218.594 30.026C219.754 32.6169 221.367 34.8925 223.423 36.8322L225.482 34.65ZM221.332 28.8L224.085 27.6083C223.294 25.7812 222.882 23.7574 222.882 21.5H219.882H216.882C216.882 24.5092 217.436 27.3521 218.578 29.9917L221.332 28.8ZM219.882 21.5H222.882C222.882 19.203 223.296 17.1866 224.078 15.4068L221.332 14.2L218.585 12.9932C217.434 15.6134 216.882 18.4636 216.882 21.5H219.882ZM221.332 14.2L224.07 15.426C224.907 13.5558 226.054 11.9565 227.518 10.6028L225.482 8.4L223.445 6.19718C221.376 8.11021 219.756 10.3775 218.594 12.974L221.332 14.2ZM225.482 8.4L227.54 10.5822C229.001 9.20418 230.737 8.12683 232.785 7.35899L231.732 4.55L230.678 1.74101C227.926 2.77317 225.496 4.26249 223.423 6.21782L225.482 8.4ZM231.732 4.55L232.772 7.36371C234.843 6.59778 237.121 6.2 239.632 6.2V3.2V0.199999C236.476 0.199999 233.487 0.702213 230.691 1.73629L231.732 4.55ZM239.632 3.2V6.2C242.181 6.2 244.453 6.59936 246.478 7.35899L247.532 4.55L248.585 1.74101C245.811 0.700639 242.816 0.199999 239.632 0.199999V3.2ZM247.532 4.55L246.478 7.35899C248.526 8.12683 250.262 9.20418 251.723 10.5822L253.782 8.4L255.84 6.21782C253.768 4.26249 251.337 2.77317 248.585 1.74101L247.532 4.55ZM253.782 8.4L251.745 10.6028C253.202 11.9493 254.326 13.5371 255.128 15.3917L257.882 14.2L260.635 13.0083C259.504 10.3963 257.895 8.11734 255.818 6.19718L253.782 8.4ZM257.882 14.2L255.151 15.4414C255.956 17.2128 256.382 19.2169 256.382 21.5H259.382H262.382C262.382 18.4498 261.808 15.5872 260.613 12.9586L257.882 14.2ZM259.382 21.5H256.382C256.382 23.7434 255.958 25.755 255.144 27.574L257.882 28.8L260.62 30.026C261.805 27.3783 262.382 24.5232 262.382 21.5H259.382ZM257.882 28.8L255.128 27.6083C254.323 29.4685 253.193 31.0813 251.723 32.4678L253.782 34.65L255.84 36.8322C257.904 34.8854 259.507 32.5981 260.635 29.9917L257.882 28.8ZM253.782 34.65L251.745 32.4472C250.282 33.7998 248.538 34.8685 246.478 35.641L247.532 38.45L248.585 41.259C251.325 40.2315 253.748 38.7669 255.818 36.8528L253.782 34.65ZM247.532 38.45L246.478 35.641C244.453 36.4006 242.181 36.8 239.632 36.8V39.8V42.8C242.816 42.8 245.811 42.2994 248.585 41.259L247.532 38.45ZM239.632 30.25V33.25C241.104 33.25 242.526 32.9804 243.863 32.4074L242.682 29.65L241.5 26.8926C240.97 27.1196 240.36 27.25 239.632 27.25V30.25ZM242.682 29.65L243.829 32.4221C245.169 31.8675 246.354 31.0667 247.352 30.0214L245.182 27.95L243.012 25.8786C242.609 26.2999 242.128 26.6325 241.535 26.8779L242.682 29.65ZM245.182 27.95L247.35 30.0237C248.384 28.9426 249.159 27.6716 249.691 26.2534L246.882 25.2L244.073 24.1466C243.804 24.8617 243.446 25.424 243.014 25.8763L245.182 27.95ZM246.882 25.2L249.701 26.2252C250.239 24.7466 250.482 23.1589 250.482 21.5H247.482H244.482C244.482 22.5745 244.325 23.4534 244.062 24.1748L246.882 25.2ZM247.482 21.5H250.482C250.482 19.8435 250.239 18.2599 249.691 16.7966L246.882 17.85L244.073 18.9034C244.324 19.5734 244.482 20.4231 244.482 21.5H247.482ZM246.882 17.85L249.701 16.8248C249.171 15.366 248.384 14.0596 247.303 12.9787L245.182 15.1L243.06 17.2213C243.446 17.607 243.793 18.134 244.062 18.8752L246.882 17.85ZM245.182 15.1L247.397 13.0772C246.398 11.9828 245.199 11.1449 243.829 10.5779L242.682 13.35L241.535 16.1221C242.098 16.3551 242.565 16.6838 242.966 17.1228L245.182 15.1ZM242.682 13.35L243.863 10.5926C242.526 10.0196 241.104 9.75 239.632 9.75V12.75V15.75C240.36 15.75 240.97 15.8804 241.5 16.1074L242.682 13.35ZM239.632 12.75V9.75C238.159 9.75 236.734 10.0198 235.385 10.5779L236.532 13.35L237.679 16.122C238.263 15.8802 238.905 15.75 239.632 15.75V12.75ZM236.532 13.35L235.35 10.5926C234.029 11.1589 232.864 11.981 231.864 13.0263L234.032 15.1L236.2 17.1737C236.666 16.6857 237.168 16.3411 237.713 16.1074L236.532 13.35ZM234.032 15.1L231.862 13.0286C230.834 14.1049 230.082 15.3947 229.562 16.8248L232.382 17.85L235.201 18.8752C235.481 18.1053 235.829 17.5618 236.202 17.1714L234.032 15.1ZM232.382 17.85L229.573 16.7966C229.024 18.2599 228.782 19.8435 228.782 21.5H231.782H234.782C234.782 20.4231 234.939 19.5734 235.191 18.9034L232.382 17.85ZM231.782 21.5H228.782C228.782 23.1589 229.025 24.7466 229.562 26.2252L232.382 25.2L235.201 24.1748C234.939 23.4534 234.782 22.5745 234.782 21.5H231.782ZM232.382 25.2L229.573 26.2534C230.094 27.6431 230.834 28.8975 231.816 29.9728L234.032 27.95L236.247 25.9272C235.829 25.4692 235.469 24.8902 235.191 24.1466L232.382 25.2ZM234.032 27.95L231.91 30.0713C232.908 31.0686 234.058 31.8538 235.35 32.4074L236.532 29.65L237.713 26.8926C237.138 26.6461 236.622 26.298 236.153 25.8287L234.032 27.95ZM236.532 29.65L235.385 32.4221C236.734 32.9802 238.159 33.25 239.632 33.25V30.25V27.25C238.905 27.25 238.263 27.1198 237.679 26.8779L236.532 29.65Z" fill="url(#paint0_linear_304_71)" mask="url(#path-1-outside-1_304_71)"/>
<defs>
<linearGradient id="paint0_linear_304_71" x1="131" y1="-9" x2="131" y2="52" gradientUnits="userSpaceOnUse">
<stop stop-color="#E51D25"/>
<stop offset="1" stop-color="#1D3A69"/>
</linearGradient>
</defs>
</svg>
