<svg width="424" height="43" viewBox="0 0 424 43" fill="none" xmlns="http://www.w3.org/2000/svg">
<mask id="path-1-outside-1_419_9398" maskUnits="userSpaceOnUse" x="0" y="0" width="424" height="43" fill="black">
<rect fill="white" width="424" height="43"/>
<path d="M3.1332 39V4H19.9832C23.2499 4 26.0665 4.53333 28.4332 5.6C30.8332 6.66666 32.6832 8.2 33.9832 10.2C35.2832 12.1667 35.9332 14.5 35.9332 17.2C35.9332 19.9 35.2832 22.2333 33.9832 24.2C32.6832 26.1333 30.8332 27.6167 28.4332 28.65C26.0665 29.6833 23.2499 30.2 19.9832 30.2H9.6832L14.9332 25.35V39H3.1332ZM24.0832 39L15.4832 26.25H27.9832L36.6832 39H24.0832ZM14.9332 26.65L9.6832 21.3H19.2332C20.8665 21.3 22.0665 20.9333 22.8332 20.2C23.6332 19.4667 24.0332 18.4667 24.0332 17.2C24.0332 15.9333 23.6332 14.9333 22.8332 14.2C22.0665 13.4667 20.8665 13.1 19.2332 13.1H9.6832L14.9332 7.75V26.65ZM51.1891 17H66.7891V25.5H51.1891V17ZM51.9891 30.1H69.4891V39H40.3891V4H68.8391V12.9H51.9891V30.1ZM92.1816 39.8C89.3483 39.8 86.7316 39.3667 84.3316 38.5C81.965 37.6 79.8983 36.3333 78.1316 34.7C76.3983 33.0667 75.0483 31.1333 74.0816 28.9C73.115 26.6667 72.6316 24.2 72.6316 21.5C72.6316 18.8 73.115 16.3333 74.0816 14.1C75.0483 11.8667 76.415 9.93333 78.1816 8.3C79.9483 6.66666 82.0316 5.41666 84.4316 4.55C86.865 3.65 89.5316 3.2 92.4316 3.2C95.8983 3.2 98.9816 3.78333 101.682 4.95C104.415 6.11666 106.665 7.78333 108.432 9.95L100.882 16.6C99.7816 15.3333 98.5816 14.3833 97.2816 13.75C96.015 13.0833 94.5983 12.75 93.0316 12.75C91.7316 12.75 90.5483 12.95 89.4816 13.35C88.4483 13.75 87.565 14.3333 86.8316 15.1C86.0983 15.8667 85.5316 16.7833 85.1316 17.85C84.7316 18.9167 84.5316 20.1333 84.5316 21.5C84.5316 22.8 84.7316 24 85.1316 25.1C85.5316 26.1667 86.0983 27.0833 86.8316 27.85C87.565 28.6167 88.4316 29.2167 89.4316 29.65C90.465 30.05 91.615 30.25 92.8816 30.25C94.215 30.25 95.515 30.0333 96.7816 29.6C98.0483 29.1333 99.3983 28.35 100.832 27.25L107.432 35.35C105.298 36.7833 102.865 37.8833 100.132 38.65C97.3983 39.4167 94.7483 39.8 92.1816 39.8ZM97.1816 33.85V20.55H107.432V35.35L97.1816 33.85ZM112.459 39V4H124.259V39H112.459ZM142.99 39.8C140.057 39.8 137.223 39.4667 134.49 38.8C131.757 38.1333 129.507 37.2667 127.74 36.2L131.54 27.6C133.207 28.5667 135.057 29.35 137.09 29.95C139.157 30.5167 141.157 30.8 143.09 30.8C144.223 30.8 145.107 30.7333 145.74 30.6C146.407 30.4333 146.89 30.2167 147.19 29.95C147.49 29.65 147.64 29.3 147.64 28.9C147.64 28.2667 147.29 27.7667 146.59 27.4C145.89 27.0333 144.957 26.7333 143.79 26.5C142.657 26.2333 141.407 25.9667 140.04 25.7C138.673 25.4 137.29 25.0167 135.89 24.55C134.523 24.0833 133.257 23.4667 132.09 22.7C130.957 21.9333 130.04 20.9333 129.34 19.7C128.64 18.4333 128.29 16.8667 128.29 15C128.29 12.8333 128.89 10.8667 130.09 9.1C131.323 7.3 133.14 5.86667 135.54 4.8C137.973 3.73333 140.99 3.2 144.59 3.2C146.957 3.2 149.29 3.45 151.59 3.95C153.89 4.45 155.957 5.21666 157.79 6.25L154.24 14.8C152.507 13.9333 150.823 13.2833 149.19 12.85C147.59 12.4167 146.023 12.2 144.49 12.2C143.357 12.2 142.457 12.3 141.79 12.5C141.123 12.7 140.64 12.9667 140.34 13.3C140.073 13.6333 139.94 14 139.94 14.4C139.94 15 140.29 15.4833 140.99 15.85C141.69 16.1833 142.607 16.4667 143.74 16.7C144.907 16.9333 146.173 17.1833 147.54 17.45C148.94 17.7167 150.323 18.0833 151.69 18.55C153.057 19.0167 154.307 19.6333 155.44 20.4C156.607 21.1667 157.54 22.1667 158.24 23.4C158.94 24.6333 159.29 26.1667 159.29 28C159.29 30.1333 158.673 32.1 157.44 33.9C156.24 35.6667 154.44 37.1 152.04 38.2C149.64 39.2667 146.623 39.8 142.99 39.8ZM169.913 39V13.15H159.663V4H191.963V13.15H181.713V39H169.913ZM205.828 17H221.428V25.5H205.828V17ZM206.628 30.1H224.128V39H195.028V4H223.478V12.9H206.628V30.1ZM228.67 39V4H245.52C248.787 4 251.604 4.53333 253.97 5.6C256.37 6.66666 258.22 8.2 259.52 10.2C260.82 12.1667 261.47 14.5 261.47 17.2C261.47 19.9 260.82 22.2333 259.52 24.2C258.22 26.1333 256.37 27.6167 253.97 28.65C251.604 29.6833 248.787 30.2 245.52 30.2H235.22L240.47 25.35V39H228.67ZM249.62 39L241.02 26.25H253.52L262.22 39H249.62ZM240.47 26.65L235.22 21.3H244.77C246.404 21.3 247.604 20.9333 248.37 20.2C249.17 19.4667 249.57 18.4667 249.57 17.2C249.57 15.9333 249.17 14.9333 248.37 14.2C247.604 13.4667 246.404 13.1 244.77 13.1H235.22L240.47 7.75V26.65ZM280.916 39V4H290.616L308.416 25.3H303.916V4H315.416V39H305.716L287.916 17.7H292.416V39H280.916ZM339.452 39.8C336.619 39.8 333.985 39.35 331.552 38.45C329.152 37.55 327.069 36.2833 325.302 34.65C323.535 32.9833 322.152 31.0333 321.152 28.8C320.185 26.5667 319.702 24.1333 319.702 21.5C319.702 18.8333 320.185 16.4 321.152 14.2C322.152 11.9667 323.535 10.0333 325.302 8.4C327.069 6.73333 329.152 5.45 331.552 4.55C333.985 3.65 336.619 3.2 339.452 3.2C342.319 3.2 344.952 3.65 347.352 4.55C349.752 5.45 351.835 6.73333 353.602 8.4C355.369 10.0333 356.735 11.9667 357.702 14.2C358.702 16.4 359.202 18.8333 359.202 21.5C359.202 24.1333 358.702 26.5667 357.702 28.8C356.735 31.0333 355.369 32.9833 353.602 34.65C351.835 36.2833 349.752 37.55 347.352 38.45C344.952 39.35 342.319 39.8 339.452 39.8ZM339.452 30.25C340.552 30.25 341.569 30.05 342.502 29.65C343.469 29.25 344.302 28.6833 345.002 27.95C345.735 27.1833 346.302 26.2667 346.702 25.2C347.102 24.1 347.302 22.8667 347.302 21.5C347.302 20.1333 347.102 18.9167 346.702 17.85C346.302 16.75 345.735 15.8333 345.002 15.1C344.302 14.3333 343.469 13.75 342.502 13.35C341.569 12.95 340.552 12.75 339.452 12.75C338.352 12.75 337.319 12.95 336.352 13.35C335.419 13.75 334.585 14.3333 333.852 15.1C333.152 15.8333 332.602 16.75 332.202 17.85C331.802 18.9167 331.602 20.1333 331.602 21.5C331.602 22.8667 331.802 24.1 332.202 25.2C332.602 26.2667 333.152 27.1833 333.852 27.95C334.585 28.6833 335.419 29.25 336.352 29.65C337.319 30.05 338.352 30.25 339.452 30.25ZM371.114 39L359.914 4H372.064L381.114 33.55H375.014L384.614 4H395.464L404.414 33.55H398.564L408.014 4H419.214L408.014 39H395.364L388.064 14.8H391.464L383.764 39H371.114Z"/>
</mask>
<path d="M3.1332 39H0.133203V42H3.1332V39ZM3.1332 4V0.999998H0.133203V4H3.1332ZM28.4332 5.6L27.2005 8.33504L27.2076 8.33825L27.2148 8.34143L28.4332 5.6ZM33.9832 10.2L31.4679 11.835L31.4742 11.8447L31.4805 11.8543L33.9832 10.2ZM33.9832 24.2L36.4727 25.874L36.4793 25.8642L36.4859 25.8543L33.9832 24.2ZM28.4332 28.65L27.2468 25.8945L27.2398 25.8976L27.2328 25.9006L28.4332 28.65ZM9.6832 30.2L7.64749 27.9964L2.01472 33.2H9.6832V30.2ZM14.9332 25.35H17.9332V18.4944L12.8975 23.1464L14.9332 25.35ZM14.9332 39V42H17.9332V39H14.9332ZM24.0832 39L21.5961 40.6776L22.4881 42H24.0832V39ZM15.4832 26.25V23.25H9.84102L12.9961 27.9276L15.4832 26.25ZM27.9832 26.25L30.4613 24.5591L29.568 23.25H27.9832V26.25ZM36.6832 39V42H42.3621L39.1613 37.3091L36.6832 39ZM14.9332 26.65L12.792 28.7512L17.9332 33.9904V26.65H14.9332ZM9.6832 21.3V18.3H2.5361L7.54197 23.4012L9.6832 21.3ZM22.8332 20.2L20.806 17.9885L20.7826 18.0101L20.7595 18.0321L22.8332 20.2ZM22.8332 14.2L20.7595 16.3679L20.7826 16.3899L20.806 16.4115L22.8332 14.2ZM9.6832 13.1L7.54197 10.9988L2.5361 16.1H9.6832V13.1ZM14.9332 7.75H17.9332V0.40962L12.792 5.64879L14.9332 7.75ZM3.1332 39H6.1332V4H3.1332H0.133203V39H3.1332ZM3.1332 4V7H19.9832V4V0.999998H3.1332V4ZM19.9832 4V7C22.9312 7 25.3078 7.48198 27.2005 8.33504L28.4332 5.6L29.6659 2.86495C26.8253 1.58468 23.5686 0.999998 19.9832 0.999998V4ZM28.4332 5.6L27.2148 8.34143C29.1402 9.19717 30.5157 10.3701 31.4679 11.835L33.9832 10.2L36.4985 8.56503C34.8507 6.02991 32.5262 4.13616 29.6516 2.85856L28.4332 5.6ZM33.9832 10.2L31.4805 11.8543C32.4109 13.2617 32.9332 15.0004 32.9332 17.2H35.9332H38.9332C38.9332 13.9996 38.1555 11.0716 36.4859 8.5457L33.9832 10.2ZM35.9332 17.2H32.9332C32.9332 19.3996 32.4109 21.1383 31.4805 22.5457L33.9832 24.2L36.4859 25.8543C38.1555 23.3284 38.9332 20.4004 38.9332 17.2H35.9332ZM33.9832 24.2L31.4937 22.526C30.5533 23.9245 29.184 25.0605 27.2468 25.8945L28.4332 28.65L29.6196 31.4055C32.4824 30.1728 34.8131 28.3421 36.4727 25.874L33.9832 24.2ZM28.4332 28.65L27.2328 25.9006C25.3308 26.7311 22.9424 27.2 19.9832 27.2V30.2V33.2C23.5574 33.2 26.8023 32.6356 29.6336 31.3994L28.4332 28.65ZM19.9832 30.2V27.2H9.6832V30.2V33.2H19.9832V30.2ZM9.6832 30.2L11.7189 32.4036L16.9689 27.5536L14.9332 25.35L12.8975 23.1464L7.64749 27.9964L9.6832 30.2ZM14.9332 25.35H11.9332V39H14.9332H17.9332V25.35H14.9332ZM14.9332 39V36H3.1332V39V42H14.9332V39ZM24.0832 39L26.5703 37.3224L17.9703 24.5724L15.4832 26.25L12.9961 27.9276L21.5961 40.6776L24.0832 39ZM15.4832 26.25V29.25H27.9832V26.25V23.25H15.4832V26.25ZM27.9832 26.25L25.5051 27.9409L34.2051 40.6909L36.6832 39L39.1613 37.3091L30.4613 24.5591L27.9832 26.25ZM36.6832 39V36H24.0832V39V42H36.6832V39ZM14.9332 26.65L17.0744 24.5488L11.8244 19.1988L9.6832 21.3L7.54197 23.4012L12.792 28.7512L14.9332 26.65ZM9.6832 21.3V24.3H19.2332V21.3V18.3H9.6832V21.3ZM19.2332 21.3V24.3C21.2342 24.3 23.3454 23.8615 24.9069 22.3679L22.8332 20.2L20.7595 18.0321C20.7877 18.0052 20.4989 18.3 19.2332 18.3V21.3ZM22.8332 20.2L24.8604 22.4115C26.3853 21.0136 27.0332 19.1537 27.0332 17.2H24.0332H21.0332C21.0332 17.7797 20.8811 17.9197 20.806 17.9885L22.8332 20.2ZM24.0332 17.2H27.0332C27.0332 15.2463 26.3853 13.3864 24.8604 11.9885L22.8332 14.2L20.806 16.4115C20.8811 16.4803 21.0332 16.6203 21.0332 17.2H24.0332ZM22.8332 14.2L24.9069 12.0321C23.3454 10.5385 21.2342 10.1 19.2332 10.1V13.1V16.1C20.4989 16.1 20.7877 16.3948 20.7595 16.3679L22.8332 14.2ZM19.2332 13.1V10.1H9.6832V13.1V16.1H19.2332V13.1ZM9.6832 13.1L11.8244 15.2012L17.0744 9.85122L14.9332 7.75L12.792 5.64879L7.54197 10.9988L9.6832 13.1ZM14.9332 7.75H11.9332V26.65H14.9332H17.9332V7.75H14.9332ZM51.1891 17V14H48.1891V17H51.1891ZM66.7891 17H69.7891V14H66.7891V17ZM66.7891 25.5V28.5H69.7891V25.5H66.7891ZM51.1891 25.5H48.1891V28.5H51.1891V25.5ZM51.9891 30.1H48.9891V33.1H51.9891V30.1ZM69.4891 30.1H72.4891V27.1H69.4891V30.1ZM69.4891 39V42H72.4891V39H69.4891ZM40.3891 39H37.3891V42H40.3891V39ZM40.3891 4V0.999998H37.3891V4H40.3891ZM68.8391 4H71.8391V0.999998H68.8391V4ZM68.8391 12.9V15.9H71.8391V12.9H68.8391ZM51.9891 12.9V9.9H48.9891V12.9H51.9891ZM51.1891 17V20H66.7891V17V14H51.1891V17ZM66.7891 17H63.7891V25.5H66.7891H69.7891V17H66.7891ZM66.7891 25.5V22.5H51.1891V25.5V28.5H66.7891V25.5ZM51.1891 25.5H54.1891V17H51.1891H48.1891V25.5H51.1891ZM51.9891 30.1V33.1H69.4891V30.1V27.1H51.9891V30.1ZM69.4891 30.1H66.4891V39H69.4891H72.4891V30.1H69.4891ZM69.4891 39V36H40.3891V39V42H69.4891V39ZM40.3891 39H43.3891V4H40.3891H37.3891V39H40.3891ZM40.3891 4V7H68.8391V4V0.999998H40.3891V4ZM68.8391 4H65.8391V12.9H68.8391H71.8391V4H68.8391ZM68.8391 12.9V9.9H51.9891V12.9V15.9H68.8391V12.9ZM51.9891 12.9H48.9891V30.1H51.9891H54.9891V12.9H51.9891ZM84.3316 38.5L83.2653 41.3041L83.2889 41.3131L83.3127 41.3217L84.3316 38.5ZM78.1316 34.7L76.0742 36.8834L76.0846 36.8931L76.0951 36.9028L78.1316 34.7ZM74.0816 28.9L71.3285 30.0917L74.0816 28.9ZM74.0816 14.1L71.3285 12.9083L74.0816 14.1ZM78.1816 8.3L76.1451 6.09718L78.1816 8.3ZM84.4316 4.55L85.4506 7.37166L85.4615 7.36773L85.4723 7.36371L84.4316 4.55ZM101.682 4.95L100.492 7.70393L100.504 7.70917L101.682 4.95ZM108.432 9.95L110.415 12.2013L112.582 10.2924L110.757 8.05418L108.432 9.95ZM100.882 16.6L98.6165 18.5671L100.597 20.8481L102.865 18.8513L100.882 16.6ZM97.2816 13.75L95.8844 16.4048L95.9257 16.4265L95.9677 16.447L97.2816 13.75ZM89.4816 13.35L88.4283 10.541L88.4134 10.5466L88.3987 10.5523L89.4816 13.35ZM86.8316 15.1L88.9996 17.1737L88.9996 17.1737L86.8316 15.1ZM85.1316 17.85L87.9406 18.9034L85.1316 17.85ZM85.1316 25.1L82.3123 26.1252L82.3174 26.1393L82.3227 26.1534L85.1316 25.1ZM86.8316 27.85L88.9996 25.7763L86.8316 27.85ZM89.4316 29.65L88.2388 32.4027L88.2933 32.4263L88.3487 32.4477L89.4316 29.65ZM96.7816 29.6L97.7527 32.4385L97.7859 32.4271L97.8188 32.415L96.7816 29.6ZM100.832 27.25L103.157 25.355L101.317 23.0961L99.0052 24.8701L100.832 27.25ZM107.432 35.35L109.105 37.8401L111.835 36.0054L109.757 33.455L107.432 35.35ZM100.132 38.65L100.942 41.5385L100.132 38.65ZM97.1816 33.85H94.1816V36.4429L96.7472 36.8184L97.1816 33.85ZM97.1816 20.55V17.55H94.1816V20.55H97.1816ZM107.432 20.55H110.432V17.55H107.432V20.55ZM107.432 35.35L106.997 38.3184L110.432 38.821V35.35H107.432ZM92.1816 39.8V36.8C89.6576 36.8 87.3898 36.4147 85.3506 35.6783L84.3316 38.5L83.3127 41.3217C86.0735 42.3186 89.039 42.8 92.1816 42.8V39.8ZM84.3316 38.5L85.398 35.6959C83.3712 34.9251 81.6383 33.8563 80.1682 32.4972L78.1316 34.7L76.0951 36.9028C78.1583 38.8103 80.5588 40.2749 83.2653 41.3041L84.3316 38.5ZM78.1316 34.7L80.189 32.5166C78.7592 31.1693 77.643 29.5756 76.8348 27.7083L74.0816 28.9L71.3285 30.0917C72.4536 32.6911 74.0374 34.964 76.0742 36.8834L78.1316 34.7ZM74.0816 28.9L76.8348 27.7083C76.048 25.8904 75.6316 23.8351 75.6316 21.5H72.6316H69.6316C69.6316 24.5649 70.182 27.4429 71.3285 30.0917L74.0816 28.9ZM72.6316 21.5H75.6316C75.6316 19.1649 76.048 17.1096 76.8348 15.2917L74.0816 14.1L71.3285 12.9083C70.182 15.5571 69.6316 18.4351 69.6316 21.5H72.6316ZM74.0816 14.1L76.8348 15.2917C77.6375 13.4371 78.7618 11.8493 80.2182 10.5028L78.1816 8.3L76.1451 6.09718C74.0682 8.01734 72.4591 10.2963 71.3285 12.9083L74.0816 14.1ZM78.1816 8.3L80.2182 10.5028C81.6729 9.15795 83.4046 8.1105 85.4506 7.37166L84.4316 4.55L83.4127 1.72834C80.6587 2.72283 78.2238 4.17538 76.1451 6.09718L78.1816 8.3ZM84.4316 4.55L85.4723 7.36371C87.5356 6.60057 89.8453 6.2 92.4316 6.2V3.2V0.199999C89.218 0.199999 86.1943 0.699432 83.391 1.73629L84.4316 4.55ZM92.4316 3.2V6.2C95.5611 6.2 98.2284 6.72593 100.492 7.7039L101.682 4.95L102.872 2.19609C99.7349 0.840738 96.2355 0.199999 92.4316 0.199999V3.2ZM101.682 4.95L100.504 7.70917C102.82 8.69754 104.666 10.0793 106.107 11.8458L108.432 9.95L110.757 8.05418C108.664 5.48741 106.01 3.53579 102.859 2.19083L101.682 4.95ZM108.432 9.95L106.449 7.69875L98.8988 14.3487L100.882 16.6L102.865 18.8513L110.415 12.2013L108.432 9.95ZM100.882 16.6L103.147 14.6329C101.824 13.1098 100.312 11.8892 98.5955 11.053L97.2816 13.75L95.9677 16.447C96.8514 16.8775 97.7393 17.5569 98.6165 18.5671L100.882 16.6ZM97.2816 13.75L98.6789 11.0952C96.9417 10.1809 95.0382 9.75 93.0316 9.75V12.75V15.75C94.1584 15.75 95.0883 15.9858 95.8844 16.4048L97.2816 13.75ZM93.0316 12.75V9.75C91.4221 9.75 89.8758 9.9982 88.4283 10.541L89.4816 13.35L90.535 16.159C91.2208 15.9018 92.0412 15.75 93.0316 15.75V12.75ZM89.4816 13.35L88.3987 10.5523C86.9736 11.1039 85.7148 11.9275 84.6637 13.0263L86.8316 15.1L88.9996 17.1737C89.4152 16.7392 89.923 16.3961 90.5646 16.1477L89.4816 13.35ZM86.8316 15.1L84.6637 13.0263C83.6297 14.1074 82.8545 15.3784 82.3227 16.7966L85.1316 17.85L87.9406 18.9034C88.2088 18.1883 88.5669 17.626 88.9996 17.1737L86.8316 15.1ZM85.1316 17.85L82.3227 16.7966C81.7739 18.2599 81.5316 19.8435 81.5316 21.5H84.5316H87.5316C87.5316 20.4231 87.6894 19.5734 87.9406 18.9034L85.1316 17.85ZM84.5316 21.5H81.5316C81.5316 23.1112 81.7803 24.6623 82.3123 26.1252L85.1316 25.1L87.951 24.0748C87.683 23.3377 87.5316 22.4888 87.5316 21.5H84.5316ZM85.1316 25.1L82.3227 26.1534C82.8545 27.5716 83.6297 28.8426 84.6637 29.9237L86.8316 27.85L88.9996 25.7763C88.5669 25.324 88.2088 24.7617 87.9406 24.0466L85.1316 25.1ZM86.8316 27.85L84.6637 29.9237C85.6812 30.9874 86.882 31.8147 88.2388 32.4027L89.4316 29.65L90.6245 26.8973C89.9813 26.6186 89.4488 26.246 88.9996 25.7763L86.8316 27.85ZM89.4316 29.65L88.3487 32.4477C89.7732 32.9991 91.2971 33.25 92.8816 33.25V30.25V27.25C91.9329 27.25 91.1568 27.1009 90.5146 26.8523L89.4316 29.65ZM92.8816 30.25V33.25C94.5467 33.25 96.1747 32.9783 97.7527 32.4385L96.7816 29.6L95.8106 26.7615C94.8552 27.0883 93.8832 27.25 92.8816 27.25V30.25ZM96.7816 29.6L97.8188 32.415C99.4464 31.8154 101.061 30.8558 102.658 29.6299L100.832 27.25L99.0052 24.8701C97.7359 25.8442 96.6502 26.4513 95.7445 26.785L96.7816 29.6ZM100.832 27.25L98.5059 29.145L105.106 37.245L107.432 35.35L109.757 33.455L103.157 25.355L100.832 27.25ZM107.432 35.35L105.759 32.8599C103.916 34.0978 101.78 35.072 99.3214 35.7615L100.132 38.65L100.942 41.5385C103.95 40.6947 106.681 39.4688 109.105 37.8401L107.432 35.35ZM100.132 38.65L99.3214 35.7615C96.8242 36.4619 94.4472 36.8 92.1816 36.8V39.8V42.8C95.0495 42.8 97.9724 42.3714 100.942 41.5385L100.132 38.65ZM97.1816 33.85H100.182V20.55H97.1816H94.1816V33.85H97.1816ZM97.1816 20.55V23.55H107.432V20.55V17.55H97.1816V20.55ZM107.432 20.55H104.432V35.35H107.432H110.432V20.55H107.432ZM107.432 35.35L107.866 32.3816L97.616 30.8816L97.1816 33.85L96.7472 36.8184L106.997 38.3184L107.432 35.35ZM112.459 39H109.459V42H112.459V39ZM112.459 4V0.999998H109.459V4H112.459ZM124.259 4H127.259V0.999998H124.259V4ZM124.259 39V42H127.259V39H124.259ZM112.459 39H115.459V4H112.459H109.459V39H112.459ZM112.459 4V7H124.259V4V0.999998H112.459V4ZM124.259 4H121.259V39H124.259H127.259V4H124.259ZM124.259 39V36H112.459V39V42H124.259V39ZM134.49 38.8L135.201 35.8854L134.49 38.8ZM127.74 36.2L124.996 34.9875L123.928 37.4032L126.189 38.7682L127.74 36.2ZM131.54 27.6L133.045 25.0049L130.149 23.3252L128.796 26.3875L131.54 27.6ZM137.09 29.95L136.241 32.8273L136.269 32.8355L136.297 32.8432L137.09 29.95ZM145.74 30.6L146.358 33.5356L146.413 33.5241L146.467 33.5104L145.74 30.6ZM147.19 29.95L149.183 32.1922L149.249 32.1337L149.311 32.0713L147.19 29.95ZM146.59 27.4L145.198 30.0575L146.59 27.4ZM143.79 26.5L143.103 29.4202L143.152 29.4318L143.201 29.4417L143.79 26.5ZM140.04 25.7L139.397 28.6302L139.431 28.6378L139.465 28.6445L140.04 25.7ZM135.89 24.55L134.92 27.389L134.931 27.3926L134.941 27.396L135.89 24.55ZM132.09 22.7L130.409 25.1848L130.426 25.1961L130.442 25.2071L132.09 22.7ZM129.34 19.7L126.714 21.1511L126.722 21.166L126.731 21.1808L129.34 19.7ZM130.09 9.1L127.615 7.40429L127.608 7.41435L130.09 9.1ZM135.54 4.8L134.335 2.05239L134.328 2.05546L134.321 2.05856L135.54 4.8ZM151.59 3.95L150.953 6.88153L151.59 3.95ZM157.79 6.25L160.561 7.40039L161.581 4.94302L159.263 3.63654L157.79 6.25ZM154.24 14.8L152.898 17.4833L155.777 18.9224L157.011 15.9504L154.24 14.8ZM149.19 12.85L148.406 15.7457L148.413 15.7477L148.421 15.7497L149.19 12.85ZM141.79 12.5L140.928 9.62652L141.79 12.5ZM140.34 13.3L138.11 11.2931L138.052 11.3579L137.997 11.4259L140.34 13.3ZM140.99 15.85L139.598 18.5075L139.648 18.534L139.7 18.5586L140.99 15.85ZM143.74 16.7L143.135 19.6384L143.143 19.6401L143.151 19.6417L143.74 16.7ZM147.54 17.45L146.965 20.3945L146.979 20.397L147.54 17.45ZM151.69 18.55L150.72 21.389L151.69 18.55ZM155.44 20.4L153.759 22.8848L153.776 22.8961L153.792 22.9071L155.44 20.4ZM158.24 23.4L155.631 24.8808V24.8808L158.24 23.4ZM157.44 33.9L154.965 32.2043L154.958 32.2144L157.44 33.9ZM152.04 38.2L153.258 40.9414L153.274 40.9344L153.29 40.9272L152.04 38.2ZM142.99 39.8V36.8C140.286 36.8 137.692 36.493 135.201 35.8854L134.49 38.8L133.779 41.7146C136.755 42.4403 139.827 42.8 142.99 42.8V39.8ZM134.49 38.8L135.201 35.8854C132.664 35.2666 130.721 34.4956 129.29 33.6318L127.74 36.2L126.189 38.7682C128.292 40.0377 130.849 41 133.779 41.7146L134.49 38.8ZM127.74 36.2L130.484 37.4125L134.284 28.8125L131.54 27.6L128.796 26.3875L124.996 34.9875L127.74 36.2ZM131.54 27.6L130.035 30.1951C131.928 31.2929 134.001 32.1664 136.241 32.8273L137.09 29.95L137.939 27.0727C136.112 26.5336 134.486 25.8404 133.045 25.0049L131.54 27.6ZM137.09 29.95L136.297 32.8432C138.594 33.4732 140.861 33.8 143.09 33.8V30.8V27.8C141.452 27.8 139.719 27.5602 137.883 27.0568L137.09 29.95ZM143.09 30.8V33.8C144.301 33.8 145.425 33.7321 146.358 33.5356L145.74 30.6L145.122 27.6643C144.788 27.7346 144.145 27.8 143.09 27.8V30.8ZM145.74 30.6L146.467 33.5104C147.313 33.2991 148.349 32.9334 149.183 32.1922L147.19 29.95L145.197 27.7078C145.269 27.6436 145.326 27.6054 145.355 27.5875C145.384 27.5695 145.394 27.5667 145.375 27.575C145.357 27.583 145.319 27.5988 145.257 27.6196C145.195 27.6403 145.114 27.6641 145.012 27.6896L145.74 30.6ZM147.19 29.95L149.311 32.0713C150.136 31.2466 150.64 30.1477 150.64 28.9H147.64H144.64C144.64 28.7146 144.677 28.4979 144.77 28.2807C144.861 28.0671 144.979 27.9178 145.069 27.8287L147.19 29.95ZM147.64 28.9H150.64C150.64 26.8568 149.38 25.4747 147.982 24.7425L146.59 27.4L145.198 30.0575C145.244 30.0817 145.089 30.0121 144.92 29.7704C144.728 29.4963 144.64 29.1742 144.64 28.9H147.64ZM146.59 27.4L147.982 24.7425C146.936 24.1945 145.699 23.8223 144.378 23.5583L143.79 26.5L143.201 29.4417C144.214 29.6443 144.844 29.8722 145.198 30.0575L146.59 27.4ZM143.79 26.5L144.477 23.5798C143.3 23.3028 142.012 23.0282 140.614 22.7555L140.04 25.7L139.465 28.6445C140.801 28.9052 142.013 29.1639 143.103 29.4202L143.79 26.5ZM140.04 25.7L140.683 22.7698C139.425 22.4936 138.144 22.139 136.839 21.7039L135.89 24.55L134.941 27.396C136.436 27.8943 137.921 28.3064 139.397 28.6302L140.04 25.7ZM135.89 24.55L136.859 21.711C135.723 21.3231 134.686 20.8161 133.737 20.1929L132.09 22.7L130.442 25.2071C131.827 26.1173 133.323 26.8436 134.92 27.389L135.89 24.55ZM132.09 22.7L133.771 20.2151C133.034 19.7168 132.43 19.066 131.949 18.2192L129.34 19.7L126.731 21.1808C127.65 22.8007 128.879 24.1499 130.409 25.1848L132.09 22.7ZM129.34 19.7L131.966 18.2489C131.572 17.537 131.29 16.5024 131.29 15H128.29H125.29C125.29 17.2309 125.708 19.3296 126.714 21.1511L129.34 19.7ZM128.29 15H131.29C131.29 13.4252 131.714 12.0474 132.571 10.7856L130.09 9.1L127.608 7.41435C126.065 9.68592 125.29 12.2415 125.29 15H128.29ZM130.09 9.1L132.565 10.7957C133.425 9.53942 134.762 8.42875 136.758 7.54143L135.54 4.8L134.321 2.05856C131.518 3.30459 129.221 5.06058 127.615 7.4043L130.09 9.1ZM135.54 4.8L136.744 7.54761C138.689 6.69529 141.266 6.2 144.59 6.2V3.2V0.199999C140.714 0.199999 137.258 0.771372 134.335 2.05239L135.54 4.8ZM144.59 3.2V6.2C146.743 6.2 148.863 6.4273 150.953 6.88153L151.59 3.95L152.227 1.01847C149.717 0.472702 147.17 0.199999 144.59 0.199999V3.2ZM151.59 3.95L150.953 6.88153C152.994 7.32529 154.773 7.99357 156.317 8.86345L157.79 6.25L159.263 3.63654C157.14 2.43976 154.786 1.5747 152.227 1.01847L151.59 3.95ZM157.79 6.25L155.019 5.0996L151.469 13.6496L154.24 14.8L157.011 15.9504L160.561 7.40039L157.79 6.25ZM154.24 14.8L155.581 12.1167C153.691 11.1716 151.816 10.4431 149.959 9.95032L149.19 12.85L148.421 15.7497C149.83 16.1236 151.322 16.695 152.898 17.4833L154.24 14.8ZM149.19 12.85L149.974 9.95432C148.139 9.45732 146.309 9.2 144.49 9.2V12.2V15.2C145.738 15.2 147.041 15.376 148.406 15.7457L149.19 12.85ZM144.49 12.2V9.2C143.223 9.2 141.994 9.30676 140.928 9.62652L141.79 12.5L142.652 15.3735C142.919 15.2932 143.49 15.2 144.49 15.2V12.2ZM141.79 12.5L140.928 9.62652C140.001 9.9045 138.928 10.3843 138.11 11.2931L140.34 13.3L142.57 15.3069C142.51 15.3735 142.458 15.418 142.423 15.4441C142.39 15.47 142.372 15.4795 142.377 15.4767C142.382 15.4739 142.405 15.4614 142.452 15.4423C142.499 15.4233 142.565 15.3996 142.652 15.3735L141.79 12.5ZM140.34 13.3L137.997 11.4259C137.336 12.2528 136.94 13.2712 136.94 14.4H139.94H142.94C142.94 14.5407 142.915 14.6966 142.859 14.8502C142.804 15.0014 142.734 15.1096 142.682 15.1741L140.34 13.3ZM139.94 14.4H136.94C136.94 16.4754 138.274 17.8142 139.598 18.5075L140.99 15.85L142.382 13.1925C142.315 13.1575 142.462 13.2177 142.632 13.453C142.83 13.7261 142.94 14.0718 142.94 14.4H139.94ZM140.99 15.85L139.7 18.5586C140.697 19.0332 141.869 19.3777 143.135 19.6384L143.74 16.7L144.345 13.7616C143.344 13.5556 142.683 13.3335 142.28 13.1414L140.99 15.85ZM143.74 16.7L143.151 19.6417C144.323 19.8761 145.595 20.1271 146.965 20.3945L147.54 17.45L148.114 14.5055C146.752 14.2396 145.49 13.9905 144.328 13.7583L143.74 16.7ZM147.54 17.45L146.979 20.397C148.238 20.637 149.485 20.9673 150.72 21.389L151.69 18.55L152.659 15.711C151.161 15.1994 149.641 14.7964 148.101 14.503L147.54 17.45ZM151.69 18.55L150.72 21.389C151.849 21.7745 152.858 22.2753 153.759 22.8848L155.44 20.4L157.121 17.9151C155.755 16.9913 154.264 16.2588 152.659 15.7109L151.69 18.55ZM155.44 20.4L153.792 22.9071C154.555 23.4084 155.162 24.0541 155.631 24.8808L158.24 23.4L160.849 21.9192C159.918 20.2792 158.658 18.9249 157.087 17.8929L155.44 20.4ZM158.24 23.4L155.631 24.8808C156.01 25.5492 156.29 26.5375 156.29 28H159.29H162.29C162.29 25.7958 161.87 23.7175 160.849 21.9192L158.24 23.4ZM159.29 28H156.29C156.29 29.5135 155.865 30.8915 154.965 32.2043L157.44 33.9L159.915 35.5957C161.482 33.3085 162.29 30.7531 162.29 28H159.29ZM157.44 33.9L154.958 32.2144C154.131 33.432 152.809 34.5474 150.79 35.4728L152.04 38.2L153.29 40.9272C156.071 39.6526 158.349 37.9013 159.921 35.5856L157.44 33.9ZM152.04 38.2L150.821 35.4586C148.922 36.3026 146.354 36.8 142.99 36.8V39.8V42.8C146.892 42.8 150.357 42.2307 153.258 40.9414L152.04 38.2ZM169.913 39H166.913V42H169.913V39ZM169.913 13.15H172.913V10.15H169.913V13.15ZM159.663 13.15H156.663V16.15H159.663V13.15ZM159.663 4V0.999998H156.663V4H159.663ZM191.963 4H194.963V0.999998H191.963V4ZM191.963 13.15V16.15H194.963V13.15H191.963ZM181.713 13.15V10.15H178.713V13.15H181.713ZM181.713 39V42H184.713V39H181.713ZM169.913 39H172.913V13.15H169.913H166.913V39H169.913ZM169.913 13.15V10.15H159.663V13.15V16.15H169.913V13.15ZM159.663 13.15H162.663V4H159.663H156.663V13.15H159.663ZM159.663 4V7H191.963V4V0.999998H159.663V4ZM191.963 4H188.963V13.15H191.963H194.963V4H191.963ZM191.963 13.15V10.15H181.713V13.15V16.15H191.963V13.15ZM181.713 13.15H178.713V39H181.713H184.713V13.15H181.713ZM181.713 39V36H169.913V39V42H181.713V39ZM205.828 17V14H202.828V17H205.828ZM221.428 17H224.428V14H221.428V17ZM221.428 25.5V28.5H224.428V25.5H221.428ZM205.828 25.5H202.828V28.5H205.828V25.5ZM206.628 30.1H203.628V33.1H206.628V30.1ZM224.128 30.1H227.128V27.1H224.128V30.1ZM224.128 39V42H227.128V39H224.128ZM195.028 39H192.028V42H195.028V39ZM195.028 4V0.999998H192.028V4H195.028ZM223.478 4H226.478V0.999998H223.478V4ZM223.478 12.9V15.9H226.478V12.9H223.478ZM206.628 12.9V9.9H203.628V12.9H206.628ZM205.828 17V20H221.428V17V14H205.828V17ZM221.428 17H218.428V25.5H221.428H224.428V17H221.428ZM221.428 25.5V22.5H205.828V25.5V28.5H221.428V25.5ZM205.828 25.5H208.828V17H205.828H202.828V25.5H205.828ZM206.628 30.1V33.1H224.128V30.1V27.1H206.628V30.1ZM224.128 30.1H221.128V39H224.128H227.128V30.1H224.128ZM224.128 39V36H195.028V39V42H224.128V39ZM195.028 39H198.028V4H195.028H192.028V39H195.028ZM195.028 4V7H223.478V4V0.999998H195.028V4ZM223.478 4H220.478V12.9H223.478H226.478V4H223.478ZM223.478 12.9V9.9H206.628V12.9V15.9H223.478V12.9ZM206.628 12.9H203.628V30.1H206.628H209.628V12.9H206.628ZM228.67 39H225.67V42H228.67V39ZM228.67 4V0.999998H225.67V4H228.67ZM253.97 5.6L252.738 8.33504L252.745 8.33825L252.752 8.34143L253.97 5.6ZM259.52 10.2L257.005 11.835L257.011 11.8447L257.018 11.8543L259.52 10.2ZM259.52 24.2L262.01 25.874L262.016 25.8642L262.023 25.8543L259.52 24.2ZM253.97 28.65L252.784 25.8945L252.777 25.8976L252.77 25.9006L253.97 28.65ZM235.22 30.2L233.185 27.9964L227.552 33.2H235.22V30.2ZM240.47 25.35H243.47V18.4944L238.435 23.1464L240.47 25.35ZM240.47 39V42H243.47V39H240.47ZM249.62 39L247.133 40.6776L248.025 42H249.62V39ZM241.02 26.25V23.25H235.378L238.533 27.9276L241.02 26.25ZM253.52 26.25L255.998 24.5591L255.105 23.25H253.52V26.25ZM262.22 39V42H267.899L264.698 37.3091L262.22 39ZM240.47 26.65L238.329 28.7512L243.47 33.9904V26.65H240.47ZM235.22 21.3V18.3H228.073L233.079 23.4012L235.22 21.3ZM248.37 20.2L246.343 17.9885L246.32 18.0101L246.297 18.0321L248.37 20.2ZM248.37 14.2L246.297 16.3679L246.32 16.3899L246.343 16.4115L248.37 14.2ZM235.22 13.1L233.079 10.9988L228.073 16.1H235.22V13.1ZM240.47 7.75H243.47V0.40962L238.329 5.64879L240.47 7.75ZM228.67 39H231.67V4H228.67H225.67V39H228.67ZM228.67 4V7H245.52V4V0.999998H228.67V4ZM245.52 4V7C248.468 7 250.845 7.48198 252.738 8.33504L253.97 5.6L255.203 2.86495C252.362 1.58468 249.106 0.999998 245.52 0.999998V4ZM253.97 5.6L252.752 8.34143C254.677 9.19717 256.053 10.3701 257.005 11.835L259.52 10.2L262.036 8.56503C260.388 6.02991 258.063 4.13616 255.189 2.85856L253.97 5.6ZM259.52 10.2L257.018 11.8543C257.948 13.2617 258.47 15.0004 258.47 17.2H261.47H264.47C264.47 13.9996 263.693 11.0716 262.023 8.5457L259.52 10.2ZM261.47 17.2H258.47C258.47 19.3996 257.948 21.1383 257.018 22.5457L259.52 24.2L262.023 25.8543C263.693 23.3284 264.47 20.4004 264.47 17.2H261.47ZM259.52 24.2L257.031 22.526C256.09 23.9245 254.721 25.0605 252.784 25.8945L253.97 28.65L255.157 31.4055C258.02 30.1728 260.35 28.3421 262.01 25.874L259.52 24.2ZM253.97 28.65L252.77 25.9006C250.868 26.7311 248.479 27.2 245.52 27.2V30.2V33.2C249.094 33.2 252.339 32.6356 255.171 31.3994L253.97 28.65ZM245.52 30.2V27.2H235.22V30.2V33.2H245.52V30.2ZM235.22 30.2L237.256 32.4036L242.506 27.5536L240.47 25.35L238.435 23.1464L233.185 27.9964L235.22 30.2ZM240.47 25.35H237.47V39H240.47H243.47V25.35H240.47ZM240.47 39V36H228.67V39V42H240.47V39ZM249.62 39L252.107 37.3224L243.507 24.5724L241.02 26.25L238.533 27.9276L247.133 40.6776L249.62 39ZM241.02 26.25V29.25H253.52V26.25V23.25H241.02V26.25ZM253.52 26.25L251.042 27.9409L259.742 40.6909L262.22 39L264.698 37.3091L255.998 24.5591L253.52 26.25ZM262.22 39V36H249.62V39V42H262.22V39ZM240.47 26.65L242.612 24.5488L237.362 19.1988L235.22 21.3L233.079 23.4012L238.329 28.7512L240.47 26.65ZM235.22 21.3V24.3H244.77V21.3V18.3H235.22V21.3ZM244.77 21.3V24.3C246.771 24.3 248.883 23.8615 250.444 22.3679L248.37 20.2L246.297 18.0321C246.325 18.0052 246.036 18.3 244.77 18.3V21.3ZM248.37 20.2L250.397 22.4115C251.922 21.0136 252.57 19.1537 252.57 17.2H249.57H246.57C246.57 17.7797 246.418 17.9197 246.343 17.9885L248.37 20.2ZM249.57 17.2H252.57C252.57 15.2463 251.922 13.3864 250.397 11.9885L248.37 14.2L246.343 16.4115C246.418 16.4803 246.57 16.6203 246.57 17.2H249.57ZM248.37 14.2L250.444 12.0321C248.883 10.5385 246.771 10.1 244.77 10.1V13.1V16.1C246.036 16.1 246.325 16.3948 246.297 16.3679L248.37 14.2ZM244.77 13.1V10.1H235.22V13.1V16.1H244.77V13.1ZM235.22 13.1L237.362 15.2012L242.612 9.85122L240.47 7.75L238.329 5.64879L233.079 10.9988L235.22 13.1ZM240.47 7.75H237.47V26.65H240.47H243.47V7.75H240.47ZM280.916 39H277.916V42H280.916V39ZM280.916 4V0.999998H277.916V4H280.916ZM290.616 4L292.918 2.07626L292.019 0.999998H290.616V4ZM308.416 25.3V28.3H314.833L310.718 23.3763L308.416 25.3ZM303.916 25.3H300.916V28.3H303.916V25.3ZM303.916 4V0.999998H300.916V4H303.916ZM315.416 4H318.416V0.999998H315.416V4ZM315.416 39V42H318.416V39H315.416ZM305.716 39L303.414 40.9237L304.314 42H305.716V39ZM287.916 17.7V14.7H281.5L285.614 19.6237L287.916 17.7ZM292.416 17.7H295.416V14.7H292.416V17.7ZM292.416 39V42H295.416V39H292.416ZM280.916 39H283.916V4H280.916H277.916V39H280.916ZM280.916 4V7H290.616V4V0.999998H280.916V4ZM290.616 4L288.314 5.92374L306.114 27.2237L308.416 25.3L310.718 23.3763L292.918 2.07626L290.616 4ZM308.416 25.3V22.3H303.916V25.3V28.3H308.416V25.3ZM303.916 25.3H306.916V4H303.916H300.916V25.3H303.916ZM303.916 4V7H315.416V4V0.999998H303.916V4ZM315.416 4H312.416V39H315.416H318.416V4H315.416ZM315.416 39V36H305.716V39V42H315.416V39ZM305.716 39L308.018 37.0763L290.218 15.7763L287.916 17.7L285.614 19.6237L303.414 40.9237L305.716 39ZM287.916 17.7V20.7H292.416V17.7V14.7H287.916V17.7ZM292.416 17.7H289.416V39H292.416H295.416V17.7H292.416ZM292.416 39V36H280.916V39V42H292.416V39ZM331.552 38.45L330.499 41.259L330.511 41.2637L331.552 38.45ZM325.302 34.65L323.243 36.8322L323.254 36.8426L323.265 36.8528L325.302 34.65ZM321.152 28.8L318.399 29.9917L318.406 30.0089L318.414 30.026L321.152 28.8ZM321.152 14.2L318.414 12.974L318.41 12.9836L318.405 12.9932L321.152 14.2ZM325.302 8.4L327.339 10.6028L327.35 10.5926L327.361 10.5822L325.302 8.4ZM331.552 4.55L330.511 1.73626L330.499 1.74101L331.552 4.55ZM347.352 4.55L346.299 7.35899V7.35899L347.352 4.55ZM353.602 8.4L351.543 10.5822L351.554 10.5926L351.565 10.6028L353.602 8.4ZM357.702 14.2L354.949 15.3917L354.96 15.4166L354.971 15.4414L357.702 14.2ZM357.702 28.8L354.964 27.574L354.956 27.5911L354.949 27.6083L357.702 28.8ZM353.602 34.65L355.639 36.8528L355.65 36.8426L355.661 36.8322L353.602 34.65ZM347.352 38.45L346.299 35.641L347.352 38.45ZM342.502 29.65L341.355 26.8779L341.337 26.8851L341.32 26.8926L342.502 29.65ZM345.002 27.95L342.834 25.8763L342.832 25.8786L345.002 27.95ZM346.702 25.2L349.511 26.2534L349.516 26.2393L349.521 26.2252L346.702 25.2ZM346.702 17.85L343.883 18.8752L343.888 18.8893L343.893 18.9034L346.702 17.85ZM345.002 15.1L342.786 17.1228L342.832 17.1731L342.881 17.2213L345.002 15.1ZM342.502 13.35L341.32 16.1074L341.337 16.1149L341.355 16.1221L342.502 13.35ZM336.352 13.35L335.205 10.5779L335.188 10.5851L335.17 10.5926L336.352 13.35ZM333.852 15.1L331.684 13.0263L331.682 13.0286L333.852 15.1ZM332.202 17.85L335.011 18.9034L335.016 18.8893L335.021 18.8752L332.202 17.85ZM332.202 25.2L329.383 26.2252L329.388 26.2393L329.393 26.2534L332.202 25.2ZM333.852 27.95L331.637 29.9728L331.682 30.0231L331.731 30.0713L333.852 27.95ZM336.352 29.65L335.17 32.4074L335.188 32.4149L335.205 32.4221L336.352 29.65ZM339.452 39.8V36.8C336.941 36.8 334.663 36.4022 332.593 35.6363L331.552 38.45L330.511 41.2637C333.307 42.2978 336.296 42.8 339.452 42.8V39.8ZM331.552 38.45L332.605 35.641C330.545 34.8685 328.802 33.7998 327.339 32.4472L325.302 34.65L323.265 36.8528C325.336 38.7669 327.759 40.2315 330.499 41.259L331.552 38.45ZM325.302 34.65L327.361 32.4678C325.883 31.0742 324.73 29.4498 323.89 27.574L321.152 28.8L318.414 30.026C319.574 32.6169 321.187 34.8925 323.243 36.8322L325.302 34.65ZM321.152 28.8L323.905 27.6083C323.114 25.7812 322.702 23.7574 322.702 21.5H319.702H316.702C316.702 24.5092 317.256 27.3521 318.399 29.9917L321.152 28.8ZM319.702 21.5H322.702C322.702 19.203 323.116 17.1866 323.898 15.4068L321.152 14.2L318.405 12.9932C317.254 15.6134 316.702 18.4636 316.702 21.5H319.702ZM321.152 14.2L323.89 15.426C324.727 13.5558 325.874 11.9565 327.339 10.6028L325.302 8.4L323.265 6.19718C321.196 8.11021 319.577 10.3775 318.414 12.974L321.152 14.2ZM325.302 8.4L327.361 10.5822C328.821 9.20418 330.558 8.12683 332.605 7.35899L331.552 4.55L330.499 1.74101C327.746 2.77317 325.316 4.26249 323.243 6.21782L325.302 8.4ZM331.552 4.55L332.593 7.36371C334.663 6.59778 336.941 6.2 339.452 6.2V3.2V0.199999C336.296 0.199999 333.307 0.702213 330.511 1.73629L331.552 4.55ZM339.452 3.2V6.2C342.001 6.2 344.273 6.59936 346.299 7.35899L347.352 4.55L348.405 1.74101C345.631 0.700639 342.636 0.199999 339.452 0.199999V3.2ZM347.352 4.55L346.299 7.35899C348.346 8.12683 350.083 9.20418 351.543 10.5822L353.602 8.4L355.661 6.21782C353.588 4.26249 351.158 2.77317 348.405 1.74101L347.352 4.55ZM353.602 8.4L351.565 10.6028C353.022 11.9493 354.146 13.5371 354.949 15.3917L357.702 14.2L360.455 13.0083C359.325 10.3963 357.715 8.11734 355.639 6.19718L353.602 8.4ZM357.702 14.2L354.971 15.4414C355.776 17.2128 356.202 19.2169 356.202 21.5H359.202H362.202C362.202 18.4498 361.628 15.5872 360.433 12.9586L357.702 14.2ZM359.202 21.5H356.202C356.202 23.7434 355.778 25.755 354.964 27.574L357.702 28.8L360.44 30.026C361.626 27.3783 362.202 24.5232 362.202 21.5H359.202ZM357.702 28.8L354.949 27.6083C354.144 29.4685 353.013 31.0813 351.543 32.4678L353.602 34.65L355.661 36.8322C357.724 34.8854 359.327 32.5981 360.455 29.9917L357.702 28.8ZM353.602 34.65L351.565 32.4472C350.102 33.7998 348.359 34.8685 346.299 35.641L347.352 38.45L348.405 41.259C351.145 40.2315 353.568 38.7669 355.639 36.8528L353.602 34.65ZM347.352 38.45L346.299 35.641C344.273 36.4006 342.001 36.8 339.452 36.8V39.8V42.8C342.636 42.8 345.631 42.2994 348.405 41.259L347.352 38.45ZM339.452 30.25V33.25C340.924 33.25 342.347 32.9804 343.684 32.4074L342.502 29.65L341.32 26.8926C340.79 27.1196 340.18 27.25 339.452 27.25V30.25ZM342.502 29.65L343.649 32.4221C344.989 31.8675 346.174 31.0667 347.172 30.0214L345.002 27.95L342.832 25.8786C342.43 26.2999 341.948 26.6325 341.355 26.8779L342.502 29.65ZM345.002 27.95L347.17 30.0237C348.204 28.9426 348.979 27.6716 349.511 26.2534L346.702 25.2L343.893 24.1466C343.625 24.8617 343.267 25.424 342.834 25.8763L345.002 27.95ZM346.702 25.2L349.521 26.2252C350.059 24.7466 350.302 23.1589 350.302 21.5H347.302H344.302C344.302 22.5745 344.145 23.4534 343.883 24.1748L346.702 25.2ZM347.302 21.5H350.302C350.302 19.8435 350.06 18.2599 349.511 16.7966L346.702 17.85L343.893 18.9034C344.144 19.5734 344.302 20.4231 344.302 21.5H347.302ZM346.702 17.85L349.521 16.8248C348.991 15.366 348.204 14.0596 347.123 12.9787L345.002 15.1L342.881 17.2213C343.266 17.607 343.613 18.134 343.883 18.8752L346.702 17.85ZM345.002 15.1L347.217 13.0772C346.218 11.9828 345.019 11.1449 343.649 10.5779L342.502 13.35L341.355 16.1221C341.918 16.3551 342.386 16.6838 342.786 17.1228L345.002 15.1ZM342.502 13.35L343.684 10.5926C342.347 10.0196 340.924 9.75 339.452 9.75V12.75V15.75C340.18 15.75 340.79 15.8804 341.32 16.1074L342.502 13.35ZM339.452 12.75V9.75C337.979 9.75 336.554 10.0198 335.205 10.5779L336.352 13.35L337.499 16.122C338.083 15.8802 338.725 15.75 339.452 15.75V12.75ZM336.352 13.35L335.17 10.5926C333.849 11.1589 332.684 11.981 331.684 13.0263L333.852 15.1L336.02 17.1737C336.487 16.6857 336.988 16.3411 337.534 16.1074L336.352 13.35ZM333.852 15.1L331.682 13.0286C330.655 14.1049 329.903 15.3947 329.383 16.8248L332.202 17.85L335.021 18.8752C335.301 18.1053 335.649 17.5618 336.022 17.1714L333.852 15.1ZM332.202 17.85L329.393 16.7966C328.844 18.2599 328.602 19.8435 328.602 21.5H331.602H334.602C334.602 20.4231 334.76 19.5734 335.011 18.9034L332.202 17.85ZM331.602 21.5H328.602C328.602 23.1589 328.845 24.7466 329.383 26.2252L332.202 25.2L335.021 24.1748C334.759 23.4534 334.602 22.5745 334.602 21.5H331.602ZM332.202 25.2L329.393 26.2534C329.914 27.6431 330.655 28.8975 331.637 29.9728L333.852 27.95L336.067 25.9272C335.649 25.4692 335.29 24.8902 335.011 24.1466L332.202 25.2ZM333.852 27.95L331.731 30.0713C332.728 31.0686 333.879 31.8538 335.17 32.4074L336.352 29.65L337.534 26.8926C336.959 26.6461 336.443 26.298 335.973 25.8287L333.852 27.95ZM336.352 29.65L335.205 32.4221C336.554 32.9802 337.979 33.25 339.452 33.25V30.25V27.25C338.725 27.25 338.083 27.1198 337.499 26.8779L336.352 29.65ZM371.114 39L368.257 39.9143L368.924 42H371.114V39ZM359.914 4V0.999998H355.804L357.057 4.91432L359.914 4ZM372.064 4L374.933 3.12149L374.283 0.999998H372.064V4ZM381.114 33.55V36.55H385.17L383.983 32.6715L381.114 33.55ZM375.014 33.55L372.161 32.6231L370.885 36.55H375.014V33.55ZM384.614 4V0.999998H382.434L381.761 3.07307L384.614 4ZM395.464 4L398.335 3.13038L397.69 0.999998H395.464V4ZM404.414 33.55V36.55H408.457L407.285 32.6804L404.414 33.55ZM398.564 33.55L395.707 32.6362L394.455 36.55H398.564V33.55ZM408.014 4V0.999998H405.824L405.157 3.0862L408.014 4ZM419.214 4L422.071 4.91432L423.324 0.999998H419.214V4ZM408.014 39V42H410.204L410.871 39.9143L408.014 39ZM395.364 39L392.492 39.8664L393.135 42H395.364V39ZM388.064 14.8V11.8H384.026L385.192 15.6664L388.064 14.8ZM391.464 14.8L394.323 15.7096L395.567 11.8H391.464V14.8ZM383.764 39V42H385.958L386.623 39.9096L383.764 39ZM371.114 39L373.971 38.0857L362.771 3.08567L359.914 4L357.057 4.91432L368.257 39.9143L371.114 39ZM359.914 4V7H372.064V4V0.999998H359.914V4ZM372.064 4L369.196 4.8785L378.246 34.4285L381.114 33.55L383.983 32.6715L374.933 3.12149L372.064 4ZM381.114 33.55V30.55H375.014V33.55V36.55H381.114V33.55ZM375.014 33.55L377.867 34.4769L387.467 4.92693L384.614 4L381.761 3.07307L372.161 32.6231L375.014 33.55ZM384.614 4V7H395.464V4V0.999998H384.614V4ZM395.464 4L392.593 4.86962L401.543 34.4196L404.414 33.55L407.285 32.6804L398.335 3.13038L395.464 4ZM404.414 33.55V30.55H398.564V33.55V36.55H404.414V33.55ZM398.564 33.55L401.422 34.4638L410.872 4.9138L408.014 4L405.157 3.0862L395.707 32.6362L398.564 33.55ZM408.014 4V7H419.214V4V0.999998H408.014V4ZM419.214 4L416.357 3.08567L405.157 38.0857L408.014 39L410.871 39.9143L422.071 4.91432L419.214 4ZM408.014 39V36H395.364V39V42H408.014V39ZM395.364 39L398.236 38.1336L390.936 13.9336L388.064 14.8L385.192 15.6664L392.492 39.8664L395.364 39ZM388.064 14.8V17.8H391.464V14.8V11.8H388.064V14.8ZM391.464 14.8L388.605 13.8904L380.905 38.0904L383.764 39L386.623 39.9096L394.323 15.7096L391.464 14.8ZM383.764 39V36H371.114V39V42H383.764V39Z" fill="url(#paint0_linear_419_9398)" mask="url(#path-1-outside-1_419_9398)"/>
<defs>
<linearGradient id="paint0_linear_419_9398" x1="210" y1="-9" x2="210" y2="52" gradientUnits="userSpaceOnUse">
<stop stop-color="#E51D25"/>
<stop offset="1" stop-color="#1D3A69"/>
</linearGradient>
</defs>
</svg>
