<svg width="644" height="43" viewBox="0 0 644 43" fill="none" xmlns="http://www.w3.org/2000/svg">
<mask id="path-1-outside-1_436_10472" maskUnits="userSpaceOnUse" x="0" y="0" width="644" height="43" fill="black">
<rect fill="white" width="644" height="43"/>
<path d="M5.32539 39L20.6254 4H32.2254L47.5254 39H35.3254L24.0254 9.6H28.6254L17.3254 39H5.32539ZM14.4254 32.9L17.4254 24.4H33.5254L36.5254 32.9H14.4254ZM49.4086 39V4H61.2086V39H49.4086ZM66.8891 39V4H76.5891L90.5891 26.85H85.4891L99.0891 4H108.789L108.889 39H98.1391L98.0391 20.2H99.7391L90.4391 35.85H85.2391L75.5391 20.2H77.6391V39H66.8891ZM127.644 39.8C124.711 39.8 121.877 39.4667 119.144 38.8C116.411 38.1333 114.161 37.2667 112.394 36.2L116.194 27.6C117.861 28.5667 119.711 29.35 121.744 29.95C123.811 30.5167 125.811 30.8 127.744 30.8C128.877 30.8 129.761 30.7333 130.394 30.6C131.061 30.4333 131.544 30.2167 131.844 29.95C132.144 29.65 132.294 29.3 132.294 28.9C132.294 28.2667 131.944 27.7667 131.244 27.4C130.544 27.0333 129.611 26.7333 128.444 26.5C127.311 26.2333 126.061 25.9667 124.694 25.7C123.327 25.4 121.944 25.0167 120.544 24.55C119.177 24.0833 117.911 23.4667 116.744 22.7C115.611 21.9333 114.694 20.9333 113.994 19.7C113.294 18.4333 112.944 16.8667 112.944 15C112.944 12.8333 113.544 10.8667 114.744 9.1C115.977 7.3 117.794 5.86667 120.194 4.8C122.627 3.73333 125.644 3.2 129.244 3.2C131.611 3.2 133.944 3.45 136.244 3.95C138.544 4.45 140.611 5.21666 142.444 6.25L138.894 14.8C137.161 13.9333 135.477 13.2833 133.844 12.85C132.244 12.4167 130.677 12.2 129.144 12.2C128.011 12.2 127.111 12.3 126.444 12.5C125.777 12.7 125.294 12.9667 124.994 13.3C124.727 13.6333 124.594 14 124.594 14.4C124.594 15 124.944 15.4833 125.644 15.85C126.344 16.1833 127.261 16.4667 128.394 16.7C129.561 16.9333 130.827 17.1833 132.194 17.45C133.594 17.7167 134.977 18.0833 136.344 18.55C137.711 19.0167 138.961 19.6333 140.094 20.4C141.261 21.1667 142.194 22.1667 142.894 23.4C143.594 24.6333 143.944 26.1667 143.944 28C143.944 30.1333 143.327 32.1 142.094 33.9C140.894 35.6667 139.094 37.1 136.694 38.2C134.294 39.2667 131.277 39.8 127.644 39.8ZM180.546 39.8C177.746 39.8 175.146 39.3667 172.746 38.5C170.379 37.6 168.312 36.3333 166.546 34.7C164.812 33.0667 163.462 31.1333 162.496 28.9C161.529 26.6667 161.046 24.2 161.046 21.5C161.046 18.8 161.529 16.3333 162.496 14.1C163.462 11.8667 164.812 9.93333 166.546 8.3C168.312 6.66666 170.379 5.41666 172.746 4.55C175.146 3.65 177.746 3.2 180.546 3.2C183.979 3.2 187.012 3.8 189.646 5C192.312 6.2 194.512 7.93333 196.246 10.2L188.796 16.85C187.762 15.55 186.612 14.55 185.346 13.85C184.112 13.1167 182.712 12.75 181.146 12.75C179.912 12.75 178.796 12.95 177.796 13.35C176.796 13.75 175.929 14.3333 175.196 15.1C174.496 15.8667 173.946 16.8 173.546 17.9C173.146 18.9667 172.946 20.1667 172.946 21.5C172.946 22.8333 173.146 24.05 173.546 25.15C173.946 26.2167 174.496 27.1333 175.196 27.9C175.929 28.6667 176.796 29.25 177.796 29.65C178.796 30.05 179.912 30.25 181.146 30.25C182.712 30.25 184.112 29.9 185.346 29.2C186.612 28.4667 187.762 27.45 188.796 26.15L196.246 32.8C194.512 35.0333 192.312 36.7667 189.646 38C187.012 39.2 183.979 39.8 180.546 39.8ZM210.453 17H226.053V25.5H210.453V17ZM211.253 30.1H228.753V39H199.653V4H228.103V12.9H211.253V30.1ZM233.295 39V4H250.145C253.412 4 256.229 4.53333 258.595 5.6C260.995 6.66666 262.845 8.2 264.145 10.2C265.445 12.1667 266.095 14.5 266.095 17.2C266.095 19.9 265.445 22.2333 264.145 24.2C262.845 26.1333 260.995 27.6167 258.595 28.65C256.229 29.6833 253.412 30.2 250.145 30.2H239.845L245.095 25.35V39H233.295ZM254.245 39L245.645 26.25H258.145L266.845 39H254.245ZM245.095 26.65L239.845 21.3H249.395C251.029 21.3 252.229 20.9333 252.995 20.2C253.795 19.4667 254.195 18.4667 254.195 17.2C254.195 15.9333 253.795 14.9333 252.995 14.2C252.229 13.4667 251.029 13.1 249.395 13.1H239.845L245.095 7.75V26.65ZM277.663 39V13.15H267.413V4H299.713V13.15H289.463V39H277.663ZM302.778 39V4H314.578V39H302.778ZM331.258 18.9H346.658V27.8H331.258V18.9ZM332.058 39H320.258V4H348.708V12.9H332.058V39ZM352.436 39V4H364.236V39H352.436ZM380.716 17H396.316V25.5H380.716V17ZM381.516 30.1H399.016V39H369.916V4H398.366V12.9H381.516V30.1ZM403.559 39V4H420.809C424.709 4 428.142 4.71666 431.109 6.15C434.076 7.55 436.392 9.55 438.059 12.15C439.726 14.75 440.559 17.85 440.559 21.45C440.559 25.0833 439.726 28.2167 438.059 30.85C436.392 33.45 434.076 35.4667 431.109 36.9C428.142 38.3 424.709 39 420.809 39H403.559ZM415.359 29.8H420.309C421.976 29.8 423.426 29.4833 424.659 28.85C425.926 28.2167 426.909 27.2833 427.609 26.05C428.309 24.7833 428.659 23.25 428.659 21.45C428.659 19.6833 428.309 18.1833 427.609 16.95C426.909 15.7167 425.926 14.7833 424.659 14.15C423.426 13.5167 421.976 13.2 420.309 13.2H415.359V29.8ZM459.858 39V4H476.708C479.974 4 482.791 4.53333 485.158 5.6C487.558 6.66666 489.408 8.2 490.708 10.2C492.008 12.1667 492.658 14.5 492.658 17.2C492.658 19.9 492.008 22.2333 490.708 24.2C489.408 26.1333 487.558 27.6167 485.158 28.65C482.791 29.6833 479.974 30.2 476.708 30.2H466.408L471.658 25.35V39H459.858ZM480.808 39L472.208 26.25H484.708L493.408 39H480.808ZM471.658 26.65L466.408 21.3H475.958C477.591 21.3 478.791 20.9333 479.558 20.2C480.358 19.4667 480.758 18.4667 480.758 17.2C480.758 15.9333 480.358 14.9333 479.558 14.2C478.791 13.4667 477.591 13.1 475.958 13.1H466.408L471.658 7.75V26.65ZM515.464 39.8C512.63 39.8 509.997 39.35 507.564 38.45C505.164 37.55 503.08 36.2833 501.314 34.65C499.547 32.9833 498.164 31.0333 497.164 28.8C496.197 26.5667 495.714 24.1333 495.714 21.5C495.714 18.8333 496.197 16.4 497.164 14.2C498.164 11.9667 499.547 10.0333 501.314 8.4C503.08 6.73333 505.164 5.45 507.564 4.55C509.997 3.65 512.63 3.2 515.464 3.2C518.33 3.2 520.964 3.65 523.364 4.55C525.764 5.45 527.847 6.73333 529.614 8.4C531.38 10.0333 532.747 11.9667 533.714 14.2C534.714 16.4 535.214 18.8333 535.214 21.5C535.214 24.1333 534.714 26.5667 533.714 28.8C532.747 31.0333 531.38 32.9833 529.614 34.65C527.847 36.2833 525.764 37.55 523.364 38.45C520.964 39.35 518.33 39.8 515.464 39.8ZM515.464 30.25C516.564 30.25 517.58 30.05 518.514 29.65C519.48 29.25 520.314 28.6833 521.014 27.95C521.747 27.1833 522.314 26.2667 522.714 25.2C523.114 24.1 523.314 22.8667 523.314 21.5C523.314 20.1333 523.114 18.9167 522.714 17.85C522.314 16.75 521.747 15.8333 521.014 15.1C520.314 14.3333 519.48 13.75 518.514 13.35C517.58 12.95 516.564 12.75 515.464 12.75C514.364 12.75 513.33 12.95 512.364 13.35C511.43 13.75 510.597 14.3333 509.864 15.1C509.164 15.8333 508.614 16.75 508.214 17.85C507.814 18.9167 507.614 20.1333 507.614 21.5C507.614 22.8667 507.814 24.1 508.214 25.2C508.614 26.2667 509.164 27.1833 509.864 27.95C510.597 28.6833 511.43 29.25 512.364 29.65C513.33 30.05 514.364 30.25 515.464 30.25ZM556.246 39.8C550.88 39.8 546.696 38.35 543.696 35.45C540.696 32.55 539.196 28.4833 539.196 23.25V4H550.996V22.9C550.996 25.5667 551.48 27.4667 552.446 28.6C553.413 29.7 554.713 30.25 556.346 30.25C558.013 30.25 559.313 29.7 560.246 28.6C561.213 27.4667 561.696 25.5667 561.696 22.9V4H573.296V23.25C573.296 28.4833 571.796 32.55 568.796 35.45C565.796 38.35 561.613 39.8 556.246 39.8ZM585.817 39V13.15H575.567V4H607.867V13.15H597.617V39H585.817ZM621.732 17H637.332V25.5H621.732V17ZM622.532 30.1H640.032V39H610.932V4H639.382V12.9H622.532V30.1Z"/>
</mask>
<path d="M5.32539 39L2.57656 37.7984L0.739845 42H5.32539V39ZM20.6254 4V0.999998H18.6627L17.8766 2.79837L20.6254 4ZM32.2254 4L34.9742 2.79837L34.1881 0.999998H32.2254V4ZM47.5254 39V42H52.1109L50.2742 37.7984L47.5254 39ZM35.3254 39L32.5251 40.0763L33.2645 42H35.3254V39ZM24.0254 9.6V6.6H19.6584L21.2251 10.6763L24.0254 9.6ZM28.6254 9.6L31.4257 10.6763L32.9924 6.6H28.6254V9.6ZM17.3254 39V42H19.3863L20.1257 40.0763L17.3254 39ZM14.4254 32.9L11.5964 31.9015L10.1852 35.9H14.4254V32.9ZM17.4254 24.4V21.4H15.3028L14.5964 23.4015L17.4254 24.4ZM33.5254 24.4L36.3544 23.4015L35.6479 21.4H33.5254V24.4ZM36.5254 32.9V35.9H40.7656L39.3544 31.9015L36.5254 32.9ZM5.32539 39L8.07422 40.2016L23.3742 5.20163L20.6254 4L17.8766 2.79837L2.57656 37.7984L5.32539 39ZM20.6254 4V7H32.2254V4V0.999998H20.6254V4ZM32.2254 4L29.4766 5.20163L44.7766 40.2016L47.5254 39L50.2742 37.7984L34.9742 2.79837L32.2254 4ZM47.5254 39V36H35.3254V39V42H47.5254V39ZM35.3254 39L38.1257 37.9237L26.8257 8.5237L24.0254 9.6L21.2251 10.6763L32.5251 40.0763L35.3254 39ZM24.0254 9.6V12.6H28.6254V9.6V6.6H24.0254V9.6ZM28.6254 9.6L25.8251 8.5237L14.5251 37.9237L17.3254 39L20.1257 40.0763L31.4257 10.6763L28.6254 9.6ZM17.3254 39V36H5.32539V39V42H17.3254V39ZM14.4254 32.9L17.2544 33.8985L20.2544 25.3985L17.4254 24.4L14.5964 23.4015L11.5964 31.9015L14.4254 32.9ZM17.4254 24.4V27.4H33.5254V24.4V21.4H17.4254V24.4ZM33.5254 24.4L30.6964 25.3985L33.6964 33.8985L36.5254 32.9L39.3544 31.9015L36.3544 23.4015L33.5254 24.4ZM36.5254 32.9V29.9H14.4254V32.9V35.9H36.5254V32.9ZM49.4086 39H46.4086V42H49.4086V39ZM49.4086 4V0.999998H46.4086V4H49.4086ZM61.2086 4H64.2086V0.999998H61.2086V4ZM61.2086 39V42H64.2086V39H61.2086ZM49.4086 39H52.4086V4H49.4086H46.4086V39H49.4086ZM49.4086 4V7H61.2086V4V0.999998H49.4086V4ZM61.2086 4H58.2086V39H61.2086H64.2086V4H61.2086ZM61.2086 39V36H49.4086V39V42H61.2086V39ZM66.8891 39H63.8891V42H66.8891V39ZM66.8891 4V0.999998H63.8891V4H66.8891ZM76.5891 4L79.1471 2.4327L78.2693 0.999998H76.5891V4ZM90.5891 26.85V29.85H95.9454L93.1471 25.2827L90.5891 26.85ZM85.4891 26.85L82.9111 25.3156L80.2123 29.85H85.4891V26.85ZM99.0891 4V0.999998H97.3835L96.5111 2.46564L99.0891 4ZM108.789 4L111.789 3.99143L111.781 0.999998H108.789V4ZM108.889 39V42H111.898L111.889 38.9914L108.889 39ZM98.1391 39L95.1391 39.016L95.155 42H98.1391V39ZM98.0391 20.2V17.2H95.0231L95.0391 20.216L98.0391 20.2ZM99.7391 20.2L102.318 21.7326L105.012 17.2H99.7391V20.2ZM90.4391 35.85V38.85H92.146L93.0181 37.3826L90.4391 35.85ZM85.2391 35.85L82.6891 37.4305L83.569 38.85H85.2391V35.85ZM75.5391 20.2V17.2H70.1501L72.9891 21.7805L75.5391 20.2ZM77.6391 20.2H80.6391V17.2H77.6391V20.2ZM77.6391 39V42H80.6391V39H77.6391ZM66.8891 39H69.8891V4H66.8891H63.8891V39H66.8891ZM66.8891 4V7H76.5891V4V0.999998H66.8891V4ZM76.5891 4L74.031 5.56729L88.031 28.4173L90.5891 26.85L93.1471 25.2827L79.1471 2.4327L76.5891 4ZM90.5891 26.85V23.85H85.4891V26.85V29.85H90.5891V26.85ZM85.4891 26.85L88.067 28.3843L101.667 5.53435L99.0891 4L96.5111 2.46564L82.9111 25.3156L85.4891 26.85ZM99.0891 4V7H108.789V4V0.999998H99.0891V4ZM108.789 4L105.789 4.00857L105.889 39.0086L108.889 39L111.889 38.9914L111.789 3.99143L108.789 4ZM108.889 39V36H98.1391V39V42H108.889V39ZM98.1391 39L101.139 38.984L101.039 20.184L98.0391 20.2L95.0391 20.216L95.1391 39.016L98.1391 39ZM98.0391 20.2V23.2H99.7391V20.2V17.2H98.0391V20.2ZM99.7391 20.2L97.1601 18.6674L87.8601 34.3174L90.4391 35.85L93.0181 37.3826L102.318 21.7326L99.7391 20.2ZM90.4391 35.85V32.85H85.2391V35.85V38.85H90.4391V35.85ZM85.2391 35.85L87.789 34.2695L78.089 18.6195L75.5391 20.2L72.9891 21.7805L82.6891 37.4305L85.2391 35.85ZM75.5391 20.2V23.2H77.6391V20.2V17.2H75.5391V20.2ZM77.6391 20.2H74.6391V39H77.6391H80.6391V20.2H77.6391ZM77.6391 39V36H66.8891V39V42H77.6391V39ZM119.144 38.8L119.855 35.8854L119.144 38.8ZM112.394 36.2L109.65 34.9875L108.583 37.4032L110.844 38.7682L112.394 36.2ZM116.194 27.6L117.699 25.0049L114.803 23.3252L113.45 26.3875L116.194 27.6ZM121.744 29.95L120.895 32.8273L120.923 32.8355L120.951 32.8432L121.744 29.95ZM130.394 30.6L131.012 33.5356L131.067 33.5241L131.122 33.5104L130.394 30.6ZM131.844 29.95L133.837 32.1922L133.903 32.1337L133.965 32.0713L131.844 29.95ZM131.244 27.4L129.852 30.0575L131.244 27.4ZM128.444 26.5L127.757 29.4202L127.806 29.4318L127.856 29.4417L128.444 26.5ZM124.694 25.7L124.051 28.6302L124.085 28.6378L124.12 28.6445L124.694 25.7ZM120.544 24.55L119.575 27.389L119.585 27.3926L119.595 27.396L120.544 24.55ZM116.744 22.7L115.063 25.1848L115.08 25.1961L115.097 25.2071L116.744 22.7ZM113.994 19.7L111.368 21.1511L111.377 21.166L111.385 21.1808L113.994 19.7ZM114.744 9.1L112.269 7.40429L112.262 7.41435L114.744 9.1ZM120.194 4.8L118.99 2.05239L118.983 2.05546L118.976 2.05856L120.194 4.8ZM136.244 3.95L135.607 6.88153L136.244 3.95ZM142.444 6.25L145.215 7.40039L146.235 4.94302L143.917 3.63654L142.444 6.25ZM138.894 14.8L137.553 17.4833L140.431 18.9224L141.665 15.9504L138.894 14.8ZM133.844 12.85L133.06 15.7457L133.067 15.7477L133.075 15.7497L133.844 12.85ZM126.444 12.5L125.582 9.62652L126.444 12.5ZM124.994 13.3L122.764 11.2931L122.706 11.3579L122.652 11.4259L124.994 13.3ZM125.644 15.85L124.252 18.5075L124.303 18.534L124.354 18.5586L125.644 15.85ZM128.394 16.7L127.789 19.6384L127.797 19.6401L127.806 19.6417L128.394 16.7ZM132.194 17.45L131.62 20.3945L131.633 20.397L132.194 17.45ZM136.344 18.55L135.375 21.389L136.344 18.55ZM140.094 20.4L138.413 22.8848L138.43 22.8961L138.447 22.9071L140.094 20.4ZM142.894 23.4L140.285 24.8808V24.8808L142.894 23.4ZM142.094 33.9L139.619 32.2043L139.612 32.2144L142.094 33.9ZM136.694 38.2L137.913 40.9414L137.928 40.9344L137.944 40.9272L136.694 38.2ZM127.644 39.8V36.8C124.94 36.8 122.346 36.493 119.855 35.8854L119.144 38.8L118.433 41.7146C121.409 42.4403 124.481 42.8 127.644 42.8V39.8ZM119.144 38.8L119.855 35.8854C117.318 35.2666 115.375 34.4956 113.945 33.6318L112.394 36.2L110.844 38.7682C112.946 40.0377 115.504 41 118.433 41.7146L119.144 38.8ZM112.394 36.2L115.138 37.4125L118.938 28.8125L116.194 27.6L113.45 26.3875L109.65 34.9875L112.394 36.2ZM116.194 27.6L114.689 30.1951C116.582 31.2929 118.655 32.1664 120.895 32.8273L121.744 29.95L122.593 27.0727C120.766 26.5336 119.14 25.8404 117.699 25.0049L116.194 27.6ZM121.744 29.95L120.951 32.8432C123.248 33.4732 125.516 33.8 127.744 33.8V30.8V27.8C126.106 27.8 124.373 27.5602 122.537 27.0568L121.744 29.95ZM127.744 30.8V33.8C128.955 33.8 130.079 33.7321 131.012 33.5356L130.394 30.6L129.776 27.6643C129.443 27.7346 128.8 27.8 127.744 27.8V30.8ZM130.394 30.6L131.122 33.5104C131.967 33.2991 133.003 32.9334 133.837 32.1922L131.844 29.95L129.851 27.7078C129.923 27.6436 129.98 27.6054 130.009 27.5875C130.039 27.5695 130.048 27.5667 130.029 27.575C130.011 27.583 129.973 27.5988 129.911 27.6196C129.849 27.6403 129.768 27.6641 129.667 27.6896L130.394 30.6ZM131.844 29.95L133.965 32.0713C134.79 31.2466 135.294 30.1477 135.294 28.9H132.294H129.294C129.294 28.7146 129.331 28.4979 129.424 28.2807C129.516 28.0671 129.634 27.9178 129.723 27.8287L131.844 29.95ZM132.294 28.9H135.294C135.294 26.8568 134.034 25.4747 132.636 24.7425L131.244 27.4L129.852 30.0575C129.898 30.0817 129.743 30.0121 129.574 29.7704C129.382 29.4963 129.294 29.1742 129.294 28.9H132.294ZM131.244 27.4L132.636 24.7425C131.59 24.1945 130.353 23.8223 129.032 23.5583L128.444 26.5L127.856 29.4417C128.869 29.6443 129.498 29.8722 129.852 30.0575L131.244 27.4ZM128.444 26.5L129.131 23.5798C127.954 23.3028 126.666 23.0282 125.269 22.7555L124.694 25.7L124.12 28.6445C125.456 28.9052 126.667 29.1639 127.757 29.4202L128.444 26.5ZM124.694 25.7L125.337 22.7698C124.079 22.4936 122.798 22.139 121.493 21.7039L120.544 24.55L119.595 27.396C121.09 27.8943 122.576 28.3064 124.051 28.6302L124.694 25.7ZM120.544 24.55L121.514 21.711C120.378 21.3231 119.34 20.8161 118.392 20.1929L116.744 22.7L115.097 25.2071C116.482 26.1173 117.977 26.8436 119.575 27.389L120.544 24.55ZM116.744 22.7L118.425 20.2151C117.688 19.7168 117.084 19.066 116.603 18.2192L113.994 19.7L111.385 21.1808C112.304 22.8007 113.533 24.1499 115.063 25.1848L116.744 22.7ZM113.994 19.7L116.62 18.2489C116.226 17.537 115.944 16.5024 115.944 15H112.944H109.944C109.944 17.2309 110.362 19.3296 111.368 21.1511L113.994 19.7ZM112.944 15H115.944C115.944 13.4252 116.369 12.0474 117.226 10.7856L114.744 9.1L112.262 7.41435C110.72 9.68592 109.944 12.2415 109.944 15H112.944ZM114.744 9.1L117.219 10.7957C118.08 9.53942 119.416 8.42875 121.413 7.54143L120.194 4.8L118.976 2.05856C116.172 3.30459 113.875 5.06058 112.269 7.4043L114.744 9.1ZM120.194 4.8L121.399 7.54761C123.343 6.69529 125.92 6.2 129.244 6.2V3.2V0.199999C125.368 0.199999 121.912 0.771372 118.99 2.05239L120.194 4.8ZM129.244 3.2V6.2C131.398 6.2 133.517 6.4273 135.607 6.88153L136.244 3.95L136.881 1.01847C134.371 0.472702 131.824 0.199999 129.244 0.199999V3.2ZM136.244 3.95L135.607 6.88153C137.648 7.32529 139.428 7.99357 140.971 8.86345L142.444 6.25L143.917 3.63654C141.794 2.43976 139.44 1.5747 136.881 1.01847L136.244 3.95ZM142.444 6.25L139.673 5.0996L136.123 13.6496L138.894 14.8L141.665 15.9504L145.215 7.40039L142.444 6.25ZM138.894 14.8L140.236 12.1167C138.346 11.1716 136.471 10.4431 134.613 9.95032L133.844 12.85L133.075 15.7497C134.484 16.1236 135.976 16.695 137.553 17.4833L138.894 14.8ZM133.844 12.85L134.628 9.95432C132.793 9.45732 130.963 9.2 129.144 9.2V12.2V15.2C130.392 15.2 131.695 15.376 133.06 15.7457L133.844 12.85ZM129.144 12.2V9.2C127.878 9.2 126.648 9.30676 125.582 9.62652L126.444 12.5L127.306 15.3735C127.574 15.2932 128.144 15.2 129.144 15.2V12.2ZM126.444 12.5L125.582 9.62652C124.655 9.9045 123.582 10.3843 122.764 11.2931L124.994 13.3L127.224 15.3069C127.164 15.3735 127.112 15.418 127.078 15.4441C127.044 15.47 127.026 15.4795 127.031 15.4767C127.036 15.4739 127.06 15.4614 127.107 15.4423C127.153 15.4233 127.219 15.3996 127.306 15.3735L126.444 12.5ZM124.994 13.3L122.652 11.4259C121.99 12.2528 121.594 13.2712 121.594 14.4H124.594H127.594C127.594 14.5407 127.569 14.6966 127.514 14.8502C127.459 15.0014 127.388 15.1096 127.337 15.1741L124.994 13.3ZM124.594 14.4H121.594C121.594 16.4754 122.929 17.8142 124.252 18.5075L125.644 15.85L127.036 13.1925C126.969 13.1575 127.116 13.2177 127.286 13.453C127.484 13.7261 127.594 14.0718 127.594 14.4H124.594ZM125.644 15.85L124.354 18.5586C125.351 19.0332 126.523 19.3777 127.789 19.6384L128.394 16.7L128.999 13.7616C127.999 13.5556 127.337 13.3335 126.934 13.1414L125.644 15.85ZM128.394 16.7L127.806 19.6417C128.978 19.8761 130.249 20.1271 131.62 20.3945L132.194 17.45L132.769 14.5055C131.406 14.2396 130.144 13.9905 128.982 13.7583L128.394 16.7ZM132.194 17.45L131.633 20.397C132.893 20.637 134.14 20.9673 135.375 21.389L136.344 18.55L137.314 15.711C135.815 15.1994 134.296 14.7964 132.755 14.503L132.194 17.45ZM136.344 18.55L135.375 21.389C136.504 21.7745 137.512 22.2753 138.413 22.8848L140.094 20.4L141.775 17.9151C140.409 16.9913 138.918 16.2588 137.314 15.7109L136.344 18.55ZM140.094 20.4L138.447 22.9071C139.209 23.4084 139.816 24.0541 140.285 24.8808L142.894 23.4L145.503 21.9192C144.572 20.2792 143.312 18.9249 141.742 17.8929L140.094 20.4ZM142.894 23.4L140.285 24.8808C140.664 25.5492 140.944 26.5375 140.944 28H143.944H146.944C146.944 25.7958 146.524 23.7175 145.503 21.9192L142.894 23.4ZM143.944 28H140.944C140.944 29.5135 140.519 30.8915 139.619 32.2043L142.094 33.9L144.569 35.5957C146.136 33.3085 146.944 30.7531 146.944 28H143.944ZM142.094 33.9L139.612 32.2144C138.785 33.432 137.463 34.5474 135.444 35.4728L136.694 38.2L137.944 40.9272C140.725 39.6526 143.003 37.9013 144.576 35.5856L142.094 33.9ZM136.694 38.2L135.476 35.4586C133.577 36.3026 131.008 36.8 127.644 36.8V39.8V42.8C131.547 42.8 135.012 42.2307 137.913 40.9414L136.694 38.2ZM172.746 38.5L171.679 41.3041L171.703 41.3131L171.727 41.3217L172.746 38.5ZM166.546 34.7L164.488 36.8834L164.499 36.8931L164.509 36.9028L166.546 34.7ZM162.496 28.9L159.743 30.0917L162.496 28.9ZM162.496 14.1L159.743 12.9083L162.496 14.1ZM166.546 8.3L164.509 6.09718L164.499 6.10686L164.488 6.11663L166.546 8.3ZM172.746 4.55L173.777 7.36706L173.788 7.36306L173.799 7.35899L172.746 4.55ZM189.646 5L188.402 7.72991L188.408 7.73285L188.415 7.73577L189.646 5ZM196.246 10.2L198.243 12.4381L200.318 10.5864L198.629 8.37765L196.246 10.2ZM188.796 16.85L186.447 18.7167L188.424 21.2033L190.793 19.0881L188.796 16.85ZM185.346 13.85L183.812 16.4286L183.853 16.4528L183.895 16.4757L185.346 13.85ZM177.796 13.35L178.91 16.1354L178.91 16.1354L177.796 13.35ZM175.196 15.1L173.028 13.0263L173.004 13.0515L172.98 13.0772L175.196 15.1ZM173.546 17.9L176.355 18.9534L176.36 18.9393L176.365 18.9252L173.546 17.9ZM173.546 25.15L170.726 26.1752L170.731 26.1893L170.737 26.2034L173.546 25.15ZM175.196 27.9L172.98 29.9228L173.004 29.9485L173.028 29.9737L175.196 27.9ZM177.796 29.65L176.682 32.4354L177.796 29.65ZM185.346 29.2L186.827 31.8091L186.838 31.8027L186.849 31.7963L185.346 29.2ZM188.796 26.15L190.793 23.9119L188.424 21.7967L186.447 24.2833L188.796 26.15ZM196.246 32.8L198.616 34.6394L200.333 32.4269L198.243 30.5619L196.246 32.8ZM189.646 38L190.89 40.7299L190.897 40.7264L190.905 40.7229L189.646 38ZM180.546 39.8V36.8C178.059 36.8 175.808 36.4161 173.765 35.6783L172.746 38.5L171.727 41.3217C174.484 42.3173 177.432 42.8 180.546 42.8V39.8ZM172.746 38.5L173.812 35.6959C171.785 34.9251 170.052 33.8563 168.582 32.4972L166.546 34.7L164.509 36.9028C166.572 38.8103 168.973 40.2749 171.679 41.3041L172.746 38.5ZM166.546 34.7L168.603 32.5166C167.173 31.1693 166.057 29.5756 165.249 27.7083L162.496 28.9L159.743 30.0917C160.868 32.6911 162.451 34.964 164.488 36.8834L166.546 34.7ZM162.496 28.9L165.249 27.7083C164.462 25.8904 164.046 23.8351 164.046 21.5H161.046H158.046C158.046 24.5649 158.596 27.4429 159.743 30.0917L162.496 28.9ZM161.046 21.5H164.046C164.046 19.1649 164.462 17.1096 165.249 15.2917L162.496 14.1L159.743 12.9083C158.596 15.5571 158.046 18.4351 158.046 21.5H161.046ZM162.496 14.1L165.249 15.2917C166.057 13.4244 167.173 11.8307 168.603 10.4834L166.546 8.3L164.488 6.11663C162.451 8.03597 160.868 10.3089 159.743 12.9083L162.496 14.1ZM166.546 8.3L168.582 10.5028C170.044 9.15134 171.765 8.10398 173.777 7.36706L172.746 4.55L171.714 1.73294C168.993 2.72934 166.581 4.18199 164.509 6.09718L166.546 8.3ZM172.746 4.55L173.799 7.35899C175.832 6.59647 178.072 6.2 180.546 6.2V3.2V0.199999C177.419 0.199999 174.459 0.703525 171.692 1.74101L172.746 4.55ZM180.546 3.2V6.2C183.629 6.2 186.225 6.73797 188.402 7.72991L189.646 5L190.89 2.27009C187.8 0.862026 184.329 0.199999 180.546 0.199999V3.2ZM189.646 5L188.415 7.73577C190.639 8.73682 192.439 10.1611 193.863 12.0223L196.246 10.2L198.629 8.37765C196.585 5.70559 193.986 3.66317 190.877 2.26423L189.646 5ZM196.246 10.2L194.248 7.96192L186.798 14.6119L188.796 16.85L190.793 19.0881L198.243 12.4381L196.246 10.2ZM188.796 16.85L191.144 14.9833C189.901 13.4189 188.457 12.1418 186.797 11.2243L185.346 13.85L183.895 16.4757C184.768 16.9582 185.624 17.6811 186.447 18.7167L188.796 16.85ZM185.346 13.85L186.879 11.2714C185.14 10.2372 183.201 9.75 181.146 9.75V12.75V15.75C182.224 15.75 183.085 15.9961 183.812 16.4286L185.346 13.85ZM181.146 12.75V9.75C179.586 9.75 178.083 10.0038 176.682 10.5646L177.796 13.35L178.91 16.1354C179.508 15.8962 180.239 15.75 181.146 15.75V12.75ZM177.796 13.35L176.682 10.5646C175.29 11.1213 174.062 11.945 173.028 13.0263L175.196 15.1L177.364 17.1737C177.796 16.7216 178.302 16.3787 178.91 16.1354L177.796 13.35ZM175.196 15.1L172.98 13.0772C171.984 14.1684 171.243 15.4528 170.726 16.8748L173.546 17.9L176.365 18.9252C176.648 18.1472 177.007 17.565 177.411 17.1228L175.196 15.1ZM173.546 17.9L170.737 16.8466C170.191 18.3022 169.946 19.8671 169.946 21.5H172.946H175.946C175.946 20.4663 176.101 19.6311 176.355 18.9534L173.546 17.9ZM172.946 21.5H169.946C169.946 23.1349 170.191 24.7043 170.726 26.1752L173.546 25.15L176.365 24.1248C176.1 23.3957 175.946 22.5317 175.946 21.5H172.946ZM173.546 25.15L170.737 26.2034C171.258 27.5931 171.998 28.8475 172.98 29.9228L175.196 27.9L177.411 25.8772C176.993 25.4192 176.634 24.8402 176.355 24.0966L173.546 25.15ZM175.196 27.9L173.028 29.9737C174.062 31.055 175.29 31.8787 176.682 32.4354L177.796 29.65L178.91 26.8646C178.302 26.6213 177.796 26.2784 177.364 25.8263L175.196 27.9ZM177.796 29.65L176.682 32.4354C178.083 32.9962 179.586 33.25 181.146 33.25V30.25V27.25C180.239 27.25 179.508 27.1038 178.91 26.8646L177.796 29.65ZM181.146 30.25V33.25C183.176 33.25 185.096 32.7915 186.827 31.8091L185.346 29.2L183.865 26.5909C183.129 27.0085 182.249 27.25 181.146 27.25V30.25ZM185.346 29.2L186.849 31.7963C188.481 30.8512 189.908 29.5714 191.144 28.0167L188.796 26.15L186.447 24.2833C185.616 25.3286 184.744 26.0821 183.843 26.6037L185.346 29.2ZM188.796 26.15L186.798 28.3881L194.248 35.0381L196.246 32.8L198.243 30.5619L190.793 23.9119L188.796 26.15ZM196.246 32.8L193.876 30.9606C192.448 32.7998 190.635 34.237 188.386 35.2771L189.646 38L190.905 40.7229C193.99 39.2963 196.576 37.2669 198.616 34.6394L196.246 32.8ZM189.646 38L188.402 35.2701C186.225 36.262 183.629 36.8 180.546 36.8V39.8V42.8C184.329 42.8 187.8 42.138 190.89 40.7299L189.646 38ZM210.453 17V14H207.453V17H210.453ZM226.053 17H229.053V14H226.053V17ZM226.053 25.5V28.5H229.053V25.5H226.053ZM210.453 25.5H207.453V28.5H210.453V25.5ZM211.253 30.1H208.253V33.1H211.253V30.1ZM228.753 30.1H231.753V27.1H228.753V30.1ZM228.753 39V42H231.753V39H228.753ZM199.653 39H196.653V42H199.653V39ZM199.653 4V0.999998H196.653V4H199.653ZM228.103 4H231.103V0.999998H228.103V4ZM228.103 12.9V15.9H231.103V12.9H228.103ZM211.253 12.9V9.9H208.253V12.9H211.253ZM210.453 17V20H226.053V17V14H210.453V17ZM226.053 17H223.053V25.5H226.053H229.053V17H226.053ZM226.053 25.5V22.5H210.453V25.5V28.5H226.053V25.5ZM210.453 25.5H213.453V17H210.453H207.453V25.5H210.453ZM211.253 30.1V33.1H228.753V30.1V27.1H211.253V30.1ZM228.753 30.1H225.753V39H228.753H231.753V30.1H228.753ZM228.753 39V36H199.653V39V42H228.753V39ZM199.653 39H202.653V4H199.653H196.653V39H199.653ZM199.653 4V7H228.103V4V0.999998H199.653V4ZM228.103 4H225.103V12.9H228.103H231.103V4H228.103ZM228.103 12.9V9.9H211.253V12.9V15.9H228.103V12.9ZM211.253 12.9H208.253V30.1H211.253H214.253V12.9H211.253ZM233.295 39H230.295V42H233.295V39ZM233.295 4V0.999998H230.295V4H233.295ZM258.595 5.6L257.363 8.33504L257.37 8.33825L257.377 8.34143L258.595 5.6ZM264.145 10.2L261.63 11.835L261.636 11.8447L261.643 11.8543L264.145 10.2ZM264.145 24.2L266.635 25.874L266.641 25.8642L266.648 25.8543L264.145 24.2ZM258.595 28.65L257.409 25.8945L257.402 25.8976L257.395 25.9006L258.595 28.65ZM239.845 30.2L237.81 27.9964L232.177 33.2H239.845V30.2ZM245.095 25.35H248.095V18.4944L243.06 23.1464L245.095 25.35ZM245.095 39V42H248.095V39H245.095ZM254.245 39L251.758 40.6776L252.65 42H254.245V39ZM245.645 26.25V23.25H240.003L243.158 27.9276L245.645 26.25ZM258.145 26.25L260.623 24.5591L259.73 23.25H258.145V26.25ZM266.845 39V42H272.524L269.323 37.3091L266.845 39ZM245.095 26.65L242.954 28.7512L248.095 33.9904V26.65H245.095ZM239.845 21.3V18.3H232.698L237.704 23.4012L239.845 21.3ZM252.995 20.2L250.968 17.9885L250.945 18.0101L250.922 18.0321L252.995 20.2ZM252.995 14.2L250.922 16.3679L250.945 16.3899L250.968 16.4115L252.995 14.2ZM239.845 13.1L237.704 10.9988L232.698 16.1H239.845V13.1ZM245.095 7.75H248.095V0.40962L242.954 5.64879L245.095 7.75ZM233.295 39H236.295V4H233.295H230.295V39H233.295ZM233.295 4V7H250.145V4V0.999998H233.295V4ZM250.145 4V7C253.093 7 255.47 7.48198 257.363 8.33504L258.595 5.6L259.828 2.86495C256.987 1.58468 253.731 0.999998 250.145 0.999998V4ZM258.595 5.6L257.377 8.34143C259.302 9.19717 260.678 10.3701 261.63 11.835L264.145 10.2L266.661 8.56503C265.013 6.02991 262.688 4.13616 259.814 2.85856L258.595 5.6ZM264.145 10.2L261.643 11.8543C262.573 13.2617 263.095 15.0004 263.095 17.2H266.095H269.095C269.095 13.9996 268.318 11.0716 266.648 8.5457L264.145 10.2ZM266.095 17.2H263.095C263.095 19.3996 262.573 21.1383 261.643 22.5457L264.145 24.2L266.648 25.8543C268.318 23.3284 269.095 20.4004 269.095 17.2H266.095ZM264.145 24.2L261.656 22.526C260.715 23.9245 259.346 25.0605 257.409 25.8945L258.595 28.65L259.782 31.4055C262.645 30.1728 264.975 28.3421 266.635 25.874L264.145 24.2ZM258.595 28.65L257.395 25.9006C255.493 26.7311 253.104 27.2 250.145 27.2V30.2V33.2C253.719 33.2 256.964 32.6356 259.796 31.3994L258.595 28.65ZM250.145 30.2V27.2H239.845V30.2V33.2H250.145V30.2ZM239.845 30.2L241.881 32.4036L247.131 27.5536L245.095 25.35L243.06 23.1464L237.81 27.9964L239.845 30.2ZM245.095 25.35H242.095V39H245.095H248.095V25.35H245.095ZM245.095 39V36H233.295V39V42H245.095V39ZM254.245 39L256.732 37.3224L248.132 24.5724L245.645 26.25L243.158 27.9276L251.758 40.6776L254.245 39ZM245.645 26.25V29.25H258.145V26.25V23.25H245.645V26.25ZM258.145 26.25L255.667 27.9409L264.367 40.6909L266.845 39L269.323 37.3091L260.623 24.5591L258.145 26.25ZM266.845 39V36H254.245V39V42H266.845V39ZM245.095 26.65L247.237 24.5488L241.987 19.1988L239.845 21.3L237.704 23.4012L242.954 28.7512L245.095 26.65ZM239.845 21.3V24.3H249.395V21.3V18.3H239.845V21.3ZM249.395 21.3V24.3C251.396 24.3 253.508 23.8615 255.069 22.3679L252.995 20.2L250.922 18.0321C250.95 18.0052 250.661 18.3 249.395 18.3V21.3ZM252.995 20.2L255.022 22.4115C256.547 21.0136 257.195 19.1537 257.195 17.2H254.195H251.195C251.195 17.7797 251.043 17.9197 250.968 17.9885L252.995 20.2ZM254.195 17.2H257.195C257.195 15.2463 256.547 13.3864 255.022 11.9885L252.995 14.2L250.968 16.4115C251.043 16.4803 251.195 16.6203 251.195 17.2H254.195ZM252.995 14.2L255.069 12.0321C253.508 10.5385 251.396 10.1 249.395 10.1V13.1V16.1C250.661 16.1 250.95 16.3948 250.922 16.3679L252.995 14.2ZM249.395 13.1V10.1H239.845V13.1V16.1H249.395V13.1ZM239.845 13.1L241.987 15.2012L247.237 9.85122L245.095 7.75L242.954 5.64879L237.704 10.9988L239.845 13.1ZM245.095 7.75H242.095V26.65H245.095H248.095V7.75H245.095ZM277.663 39H274.663V42H277.663V39ZM277.663 13.15H280.663V10.15H277.663V13.15ZM267.413 13.15H264.413V16.15H267.413V13.15ZM267.413 4V0.999998H264.413V4H267.413ZM299.713 4H302.713V0.999998H299.713V4ZM299.713 13.15V16.15H302.713V13.15H299.713ZM289.463 13.15V10.15H286.463V13.15H289.463ZM289.463 39V42H292.463V39H289.463ZM277.663 39H280.663V13.15H277.663H274.663V39H277.663ZM277.663 13.15V10.15H267.413V13.15V16.15H277.663V13.15ZM267.413 13.15H270.413V4H267.413H264.413V13.15H267.413ZM267.413 4V7H299.713V4V0.999998H267.413V4ZM299.713 4H296.713V13.15H299.713H302.713V4H299.713ZM299.713 13.15V10.15H289.463V13.15V16.15H299.713V13.15ZM289.463 13.15H286.463V39H289.463H292.463V13.15H289.463ZM289.463 39V36H277.663V39V42H289.463V39ZM302.778 39H299.778V42H302.778V39ZM302.778 4V0.999998H299.778V4H302.778ZM314.578 4H317.578V0.999998H314.578V4ZM314.578 39V42H317.578V39H314.578ZM302.778 39H305.778V4H302.778H299.778V39H302.778ZM302.778 4V7H314.578V4V0.999998H302.778V4ZM314.578 4H311.578V39H314.578H317.578V4H314.578ZM314.578 39V36H302.778V39V42H314.578V39ZM331.258 18.9V15.9H328.258V18.9H331.258ZM346.658 18.9H349.658V15.9H346.658V18.9ZM346.658 27.8V30.8H349.658V27.8H346.658ZM331.258 27.8H328.258V30.8H331.258V27.8ZM332.058 39V42H335.058V39H332.058ZM320.258 39H317.258V42H320.258V39ZM320.258 4V0.999998H317.258V4H320.258ZM348.708 4H351.708V0.999998H348.708V4ZM348.708 12.9V15.9H351.708V12.9H348.708ZM332.058 12.9V9.9H329.058V12.9H332.058ZM331.258 18.9V21.9H346.658V18.9V15.9H331.258V18.9ZM346.658 18.9H343.658V27.8H346.658H349.658V18.9H346.658ZM346.658 27.8V24.8H331.258V27.8V30.8H346.658V27.8ZM331.258 27.8H334.258V18.9H331.258H328.258V27.8H331.258ZM332.058 39V36H320.258V39V42H332.058V39ZM320.258 39H323.258V4H320.258H317.258V39H320.258ZM320.258 4V7H348.708V4V0.999998H320.258V4ZM348.708 4H345.708V12.9H348.708H351.708V4H348.708ZM348.708 12.9V9.9H332.058V12.9V15.9H348.708V12.9ZM332.058 12.9H329.058V39H332.058H335.058V12.9H332.058ZM352.436 39H349.436V42H352.436V39ZM352.436 4V0.999998H349.436V4H352.436ZM364.236 4H367.236V0.999998H364.236V4ZM364.236 39V42H367.236V39H364.236ZM352.436 39H355.436V4H352.436H349.436V39H352.436ZM352.436 4V7H364.236V4V0.999998H352.436V4ZM364.236 4H361.236V39H364.236H367.236V4H364.236ZM364.236 39V36H352.436V39V42H364.236V39ZM380.716 17V14H377.716V17H380.716ZM396.316 17H399.316V14H396.316V17ZM396.316 25.5V28.5H399.316V25.5H396.316ZM380.716 25.5H377.716V28.5H380.716V25.5ZM381.516 30.1H378.516V33.1H381.516V30.1ZM399.016 30.1H402.016V27.1H399.016V30.1ZM399.016 39V42H402.016V39H399.016ZM369.916 39H366.916V42H369.916V39ZM369.916 4V0.999998H366.916V4H369.916ZM398.366 4H401.366V0.999998H398.366V4ZM398.366 12.9V15.9H401.366V12.9H398.366ZM381.516 12.9V9.9H378.516V12.9H381.516ZM380.716 17V20H396.316V17V14H380.716V17ZM396.316 17H393.316V25.5H396.316H399.316V17H396.316ZM396.316 25.5V22.5H380.716V25.5V28.5H396.316V25.5ZM380.716 25.5H383.716V17H380.716H377.716V25.5H380.716ZM381.516 30.1V33.1H399.016V30.1V27.1H381.516V30.1ZM399.016 30.1H396.016V39H399.016H402.016V30.1H399.016ZM399.016 39V36H369.916V39V42H399.016V39ZM369.916 39H372.916V4H369.916H366.916V39H369.916ZM369.916 4V7H398.366V4V0.999998H369.916V4ZM398.366 4H395.366V12.9H398.366H401.366V4H398.366ZM398.366 12.9V9.9H381.516V12.9V15.9H398.366V12.9ZM381.516 12.9H378.516V30.1H381.516H384.516V12.9H381.516ZM403.559 39H400.559V42H403.559V39ZM403.559 4V0.999998H400.559V4H403.559ZM431.109 6.15L429.804 8.85124L429.816 8.85722L429.829 8.86307L431.109 6.15ZM438.059 12.15L435.533 13.769L438.059 12.15ZM438.059 30.85L440.585 32.469L440.589 32.4617L440.594 32.4544L438.059 30.85ZM431.109 36.9L432.389 39.6131L432.402 39.6072L432.414 39.6012L431.109 36.9ZM415.359 29.8H412.359V32.8H415.359V29.8ZM424.659 28.85L423.317 26.1667L423.303 26.1739L423.289 26.1813L424.659 28.85ZM427.609 26.05L430.218 27.5308L430.226 27.516L430.235 27.5011L427.609 26.05ZM427.609 16.95L430.218 15.4692V15.4692L427.609 16.95ZM424.659 14.15L423.289 16.8187L423.303 16.8261L423.317 16.8333L424.659 14.15ZM415.359 13.2V10.2H412.359V13.2H415.359ZM403.559 39H406.559V4H403.559H400.559V39H403.559ZM403.559 4V7H420.809V4V0.999998H403.559V4ZM420.809 4V7C424.339 7 427.312 7.64746 429.804 8.85124L431.109 6.15L432.414 3.44876C428.972 1.78587 425.079 0.999998 420.809 0.999998V4ZM431.109 6.15L429.829 8.86307C432.319 10.0382 434.19 11.6733 435.533 13.769L438.059 12.15L440.585 10.531C438.595 7.42667 435.832 5.06179 432.389 3.43693L431.109 6.15ZM438.059 12.15L435.533 13.769C436.842 15.8102 437.559 18.327 437.559 21.45H440.559H443.559C443.559 17.373 442.609 13.6898 440.585 10.531L438.059 12.15ZM440.559 21.45H437.559C437.559 24.6113 436.839 27.1674 435.524 29.2456L438.059 30.85L440.594 32.4544C442.612 29.266 443.559 25.5554 443.559 21.45H440.559ZM438.059 30.85L435.533 29.231C434.186 31.333 432.306 32.9897 429.804 34.1988L431.109 36.9L432.414 39.6012C435.845 37.9436 438.599 35.567 440.585 32.469L438.059 30.85ZM431.109 36.9L429.829 34.1869C427.331 35.3656 424.349 36 420.809 36V39V42C425.069 42 428.954 41.2344 432.389 39.6131L431.109 36.9ZM420.809 39V36H403.559V39V42H420.809V39ZM415.359 29.8V32.8H420.309V29.8V26.8H415.359V29.8ZM420.309 29.8V32.8C422.357 32.8 424.295 32.4095 426.029 31.5187L424.659 28.85L423.289 26.1813C422.557 26.5571 421.594 26.8 420.309 26.8V29.8ZM424.659 28.85L426.001 31.5333C427.801 30.6333 429.225 29.2811 430.218 27.5308L427.609 26.05L425 24.5692C424.593 25.2856 424.051 25.8 423.317 26.1667L424.659 28.85ZM427.609 26.05L430.235 27.5011C431.233 25.6944 431.659 23.6356 431.659 21.45H428.659H425.659C425.659 22.8644 425.385 23.8723 424.983 24.5989L427.609 26.05ZM428.659 21.45H431.659C431.659 19.2902 431.23 17.2522 430.218 15.4692L427.609 16.95L425 18.4308C425.388 19.1145 425.659 20.0764 425.659 21.45H428.659ZM427.609 16.95L430.218 15.4692C429.225 13.7189 427.801 12.3666 426.001 11.4667L424.659 14.15L423.317 16.8333C424.051 17.2 424.593 17.7144 425 18.4308L427.609 16.95ZM424.659 14.15L426.029 11.4813C424.295 10.5904 422.357 10.2 420.309 10.2V13.2V16.2C421.594 16.2 422.557 16.4429 423.289 16.8187L424.659 14.15ZM420.309 13.2V10.2H415.359V13.2V16.2H420.309V13.2ZM415.359 13.2H412.359V29.8H415.359H418.359V13.2H415.359ZM459.858 39H456.858V42H459.858V39ZM459.858 4V0.999998H456.858V4H459.858ZM485.158 5.6L483.925 8.33504L483.932 8.33825L483.939 8.34143L485.158 5.6ZM490.708 10.2L488.192 11.835L488.199 11.8447L488.205 11.8543L490.708 10.2ZM490.708 24.2L493.197 25.874L493.204 25.8642L493.21 25.8543L490.708 24.2ZM485.158 28.65L483.971 25.8945L483.964 25.8976L483.957 25.9006L485.158 28.65ZM466.408 30.2L464.372 27.9964L458.739 33.2H466.408V30.2ZM471.658 25.35H474.658V18.4944L469.622 23.1464L471.658 25.35ZM471.658 39V42H474.658V39H471.658ZM480.808 39L478.321 40.6776L479.213 42H480.808V39ZM472.208 26.25V23.25H466.566L469.721 27.9276L472.208 26.25ZM484.708 26.25L487.186 24.5591L486.293 23.25H484.708V26.25ZM493.408 39V42H499.087L495.886 37.3091L493.408 39ZM471.658 26.65L469.517 28.7512L474.658 33.9904V26.65H471.658ZM466.408 21.3V18.3H459.261L464.267 23.4012L466.408 21.3ZM479.558 20.2L477.531 17.9885L477.507 18.0101L477.484 18.0321L479.558 20.2ZM479.558 14.2L477.484 16.3679L477.507 16.3899L477.531 16.4115L479.558 14.2ZM466.408 13.1L464.267 10.9988L459.261 16.1H466.408V13.1ZM471.658 7.75H474.658V0.40962L469.517 5.64879L471.658 7.75ZM459.858 39H462.858V4H459.858H456.858V39H459.858ZM459.858 4V7H476.708V4V0.999998H459.858V4ZM476.708 4V7C479.656 7 482.032 7.48198 483.925 8.33504L485.158 5.6L486.391 2.86495C483.55 1.58468 480.293 0.999998 476.708 0.999998V4ZM485.158 5.6L483.939 8.34143C485.865 9.19717 487.24 10.3701 488.192 11.835L490.708 10.2L493.223 8.56503C491.575 6.02991 489.251 4.13616 486.376 2.85856L485.158 5.6ZM490.708 10.2L488.205 11.8543C489.135 13.2617 489.658 15.0004 489.658 17.2H492.658H495.658C495.658 13.9996 494.88 11.0716 493.21 8.5457L490.708 10.2ZM492.658 17.2H489.658C489.658 19.3996 489.135 21.1383 488.205 22.5457L490.708 24.2L493.21 25.8543C494.88 23.3284 495.658 20.4004 495.658 17.2H492.658ZM490.708 24.2L488.218 22.526C487.278 23.9245 485.909 25.0605 483.971 25.8945L485.158 28.65L486.344 31.4055C489.207 30.1728 491.538 28.3421 493.197 25.874L490.708 24.2ZM485.158 28.65L483.957 25.9006C482.055 26.7311 479.667 27.2 476.708 27.2V30.2V33.2C480.282 33.2 483.527 32.6356 486.358 31.3994L485.158 28.65ZM476.708 30.2V27.2H466.408V30.2V33.2H476.708V30.2ZM466.408 30.2L468.444 32.4036L473.694 27.5536L471.658 25.35L469.622 23.1464L464.372 27.9964L466.408 30.2ZM471.658 25.35H468.658V39H471.658H474.658V25.35H471.658ZM471.658 39V36H459.858V39V42H471.658V39ZM480.808 39L483.295 37.3224L474.695 24.5724L472.208 26.25L469.721 27.9276L478.321 40.6776L480.808 39ZM472.208 26.25V29.25H484.708V26.25V23.25H472.208V26.25ZM484.708 26.25L482.23 27.9409L490.93 40.6909L493.408 39L495.886 37.3091L487.186 24.5591L484.708 26.25ZM493.408 39V36H480.808V39V42H493.408V39ZM471.658 26.65L473.799 24.5488L468.549 19.1988L466.408 21.3L464.267 23.4012L469.517 28.7512L471.658 26.65ZM466.408 21.3V24.3H475.958V21.3V18.3H466.408V21.3ZM475.958 21.3V24.3C477.959 24.3 480.07 23.8615 481.631 22.3679L479.558 20.2L477.484 18.0321C477.512 18.0052 477.223 18.3 475.958 18.3V21.3ZM479.558 20.2L481.585 22.4115C483.11 21.0136 483.758 19.1537 483.758 17.2H480.758H477.758C477.758 17.7797 477.606 17.9197 477.531 17.9885L479.558 20.2ZM480.758 17.2H483.758C483.758 15.2463 483.11 13.3864 481.585 11.9885L479.558 14.2L477.531 16.4115C477.606 16.4803 477.758 16.6203 477.758 17.2H480.758ZM479.558 14.2L481.631 12.0321C480.07 10.5385 477.959 10.1 475.958 10.1V13.1V16.1C477.223 16.1 477.512 16.3948 477.484 16.3679L479.558 14.2ZM475.958 13.1V10.1H466.408V13.1V16.1H475.958V13.1ZM466.408 13.1L468.549 15.2012L473.799 9.85122L471.658 7.75L469.517 5.64879L464.267 10.9988L466.408 13.1ZM471.658 7.75H468.658V26.65H471.658H474.658V7.75H471.658ZM507.564 38.45L506.51 41.259L506.523 41.2637L507.564 38.45ZM501.314 34.65L499.255 36.8322L499.266 36.8426L499.277 36.8528L501.314 34.65ZM497.164 28.8L494.41 29.9917L494.418 30.0089L494.426 30.026L497.164 28.8ZM497.164 14.2L494.426 12.974L494.421 12.9836L494.417 12.9932L497.164 14.2ZM501.314 8.4L503.35 10.6028L503.361 10.5926L503.372 10.5822L501.314 8.4ZM507.564 4.55L506.523 1.73626L506.51 1.74101L507.564 4.55ZM523.364 4.55L522.31 7.35899V7.35899L523.364 4.55ZM529.614 8.4L527.555 10.5822L527.566 10.5926L527.577 10.6028L529.614 8.4ZM533.714 14.2L530.961 15.3917L530.971 15.4166L530.983 15.4414L533.714 14.2ZM533.714 28.8L530.976 27.574L530.968 27.5911L530.961 27.6083L533.714 28.8ZM529.614 34.65L531.65 36.8528L531.661 36.8426L531.672 36.8322L529.614 34.65ZM523.364 38.45L522.31 35.641L523.364 38.45ZM518.514 29.65L517.367 26.8779L517.349 26.8851L517.332 26.8926L518.514 29.65ZM521.014 27.95L518.846 25.8763L518.844 25.8786L521.014 27.95ZM522.714 25.2L525.523 26.2534L525.528 26.2393L525.533 26.2252L522.714 25.2ZM522.714 17.85L519.894 18.8752L519.899 18.8893L519.905 18.9034L522.714 17.85ZM521.014 15.1L518.798 17.1228L518.844 17.1731L518.892 17.2213L521.014 15.1ZM518.514 13.35L517.332 16.1074L517.349 16.1149L517.367 16.1221L518.514 13.35ZM512.364 13.35L511.217 10.5779L511.199 10.5851L511.182 10.5926L512.364 13.35ZM509.864 15.1L507.696 13.0263L507.694 13.0286L509.864 15.1ZM508.214 17.85L511.023 18.9034L511.028 18.8893L511.033 18.8752L508.214 17.85ZM508.214 25.2L505.394 26.2252L505.399 26.2393L505.405 26.2534L508.214 25.2ZM509.864 27.95L507.648 29.9728L507.694 30.0231L507.742 30.0713L509.864 27.95ZM512.364 29.65L511.182 32.4074L511.199 32.4149L511.217 32.4221L512.364 29.65ZM515.464 39.8V36.8C512.953 36.8 510.675 36.4022 508.604 35.6363L507.564 38.45L506.523 41.2637C509.319 42.2978 512.308 42.8 515.464 42.8V39.8ZM507.564 38.45L508.617 35.641C506.557 34.8685 504.813 33.7998 503.35 32.4472L501.314 34.65L499.277 36.8528C501.347 38.7669 503.77 40.2315 506.51 41.259L507.564 38.45ZM501.314 34.65L503.372 32.4678C501.895 31.0742 500.742 29.4498 499.902 27.574L497.164 28.8L494.426 30.026C495.586 32.6169 497.199 34.8925 499.255 36.8322L501.314 34.65ZM497.164 28.8L499.917 27.6083C499.126 25.7812 498.714 23.7574 498.714 21.5H495.714H492.714C492.714 24.5092 493.268 27.3521 494.41 29.9917L497.164 28.8ZM495.714 21.5H498.714C498.714 19.203 499.128 17.1866 499.91 15.4068L497.164 14.2L494.417 12.9932C493.266 15.6134 492.714 18.4636 492.714 21.5H495.714ZM497.164 14.2L499.902 15.426C500.739 13.5558 501.886 11.9565 503.35 10.6028L501.314 8.4L499.277 6.19718C497.208 8.11021 495.588 10.3775 494.426 12.974L497.164 14.2ZM501.314 8.4L503.372 10.5822C504.833 9.20418 506.569 8.12683 508.617 7.35899L507.564 4.55L506.51 1.74101C503.758 2.77317 501.328 4.26249 499.255 6.21782L501.314 8.4ZM507.564 4.55L508.604 7.36371C510.675 6.59778 512.953 6.2 515.464 6.2V3.2V0.199999C512.308 0.199999 509.319 0.702213 506.523 1.73629L507.564 4.55ZM515.464 3.2V6.2C518.013 6.2 520.285 6.59936 522.31 7.35899L523.364 4.55L524.417 1.74101C521.643 0.700639 518.648 0.199999 515.464 0.199999V3.2ZM523.364 4.55L522.31 7.35899C524.358 8.12683 526.094 9.20418 527.555 10.5822L529.614 8.4L531.672 6.21782C529.6 4.26249 527.169 2.77317 524.417 1.74101L523.364 4.55ZM529.614 8.4L527.577 10.6028C529.034 11.9493 530.158 13.5371 530.961 15.3917L533.714 14.2L536.467 13.0083C535.336 10.3963 533.727 8.11734 531.65 6.19718L529.614 8.4ZM533.714 14.2L530.983 15.4414C531.788 17.2128 532.214 19.2169 532.214 21.5H535.214H538.214C538.214 18.4498 537.64 15.5872 536.445 12.9586L533.714 14.2ZM535.214 21.5H532.214C532.214 23.7434 531.79 25.755 530.976 27.574L533.714 28.8L536.452 30.026C537.637 27.3783 538.214 24.5232 538.214 21.5H535.214ZM533.714 28.8L530.961 27.6083C530.155 29.4685 529.025 31.0813 527.555 32.4678L529.614 34.65L531.672 36.8322C533.736 34.8854 535.339 32.5981 536.467 29.9917L533.714 28.8ZM529.614 34.65L527.577 32.4472C526.114 33.7998 524.37 34.8685 522.31 35.641L523.364 38.45L524.417 41.259C527.157 40.2315 529.58 38.7669 531.65 36.8528L529.614 34.65ZM523.364 38.45L522.31 35.641C520.285 36.4006 518.013 36.8 515.464 36.8V39.8V42.8C518.648 42.8 521.643 42.2994 524.417 41.259L523.364 38.45ZM515.464 30.25V33.25C516.936 33.25 518.358 32.9804 519.695 32.4074L518.514 29.65L517.332 26.8926C516.802 27.1196 516.192 27.25 515.464 27.25V30.25ZM518.514 29.65L519.661 32.4221C521.001 31.8675 522.186 31.0667 523.184 30.0214L521.014 27.95L518.844 25.8786C518.441 26.2999 517.96 26.6325 517.367 26.8779L518.514 29.65ZM521.014 27.95L523.182 30.0237C524.216 28.9426 524.991 27.6716 525.523 26.2534L522.714 25.2L519.905 24.1466C519.637 24.8617 519.278 25.424 518.846 25.8763L521.014 27.95ZM522.714 25.2L525.533 26.2252C526.071 24.7466 526.314 23.1589 526.314 21.5H523.314H520.314C520.314 22.5745 520.157 23.4534 519.894 24.1748L522.714 25.2ZM523.314 21.5H526.314C526.314 19.8435 526.071 18.2599 525.523 16.7966L522.714 17.85L519.905 18.9034C520.156 19.5734 520.314 20.4231 520.314 21.5H523.314ZM522.714 17.85L525.533 16.8248C525.003 15.366 524.216 14.0596 523.135 12.9787L521.014 15.1L518.892 17.2213C519.278 17.607 519.625 18.134 519.894 18.8752L522.714 17.85ZM521.014 15.1L523.229 13.0772C522.23 11.9828 521.031 11.1449 519.661 10.5779L518.514 13.35L517.367 16.1221C517.93 16.3551 518.397 16.6838 518.798 17.1228L521.014 15.1ZM518.514 13.35L519.695 10.5926C518.358 10.0196 516.936 9.75 515.464 9.75V12.75V15.75C516.192 15.75 516.802 15.8804 517.332 16.1074L518.514 13.35ZM515.464 12.75V9.75C513.991 9.75 512.566 10.0198 511.217 10.5779L512.364 13.35L513.511 16.122C514.095 15.8802 514.737 15.75 515.464 15.75V12.75ZM512.364 13.35L511.182 10.5926C509.861 11.1589 508.696 11.981 507.696 13.0263L509.864 15.1L512.032 17.1737C512.498 16.6857 513 16.3411 513.545 16.1074L512.364 13.35ZM509.864 15.1L507.694 13.0286C506.666 14.1049 505.914 15.3947 505.394 16.8248L508.214 17.85L511.033 18.8752C511.313 18.1053 511.661 17.5618 512.034 17.1714L509.864 15.1ZM508.214 17.85L505.405 16.7966C504.856 18.2599 504.614 19.8435 504.614 21.5H507.614H510.614C510.614 20.4231 510.771 19.5734 511.023 18.9034L508.214 17.85ZM507.614 21.5H504.614C504.614 23.1589 504.857 24.7466 505.394 26.2252L508.214 25.2L511.033 24.1748C510.771 23.4534 510.614 22.5745 510.614 21.5H507.614ZM508.214 25.2L505.405 26.2534C505.926 27.6431 506.666 28.8975 507.648 29.9728L509.864 27.95L512.079 25.9272C511.661 25.4692 511.302 24.8902 511.023 24.1466L508.214 25.2ZM509.864 27.95L507.742 30.0713C508.74 31.0686 509.89 31.8538 511.182 32.4074L512.364 29.65L513.545 26.8926C512.97 26.6461 512.454 26.298 511.985 25.8287L509.864 27.95ZM512.364 29.65L511.217 32.4221C512.566 32.9802 513.991 33.25 515.464 33.25V30.25V27.25C514.737 27.25 514.095 27.1198 513.511 26.8779L512.364 29.65ZM543.696 35.45L541.611 37.607L543.696 35.45ZM539.196 4V0.999998H536.196V4H539.196ZM550.996 4H553.996V0.999998H550.996V4ZM552.446 28.6L550.164 30.5468L550.178 30.5637L550.193 30.5803L552.446 28.6ZM560.246 28.6L557.964 26.6532L557.959 26.6591L560.246 28.6ZM561.696 4V0.999998H558.696V4H561.696ZM573.297 4H576.297V0.999998H573.297V4ZM568.797 35.45L566.711 33.293L568.797 35.45ZM556.246 39.8V36.8C551.426 36.8 548.075 35.5102 545.782 33.293L543.696 35.45L541.611 37.607C545.318 41.1898 550.333 42.8 556.246 42.8V39.8ZM543.696 35.45L545.782 33.293C543.507 31.0945 542.196 27.8894 542.196 23.25H539.196H536.196C536.196 29.0773 537.886 34.0055 541.611 37.607L543.696 35.45ZM539.196 23.25H542.196V4H539.196H536.196V23.25H539.196ZM539.196 4V7H550.996V4V0.999998H539.196V4ZM550.996 4H547.996V22.9H550.996H553.996V4H550.996ZM550.996 22.9H547.996C547.996 25.7753 548.488 28.5814 550.164 30.5468L552.446 28.6L554.729 26.6532C554.472 26.3519 553.996 25.3581 553.996 22.9H550.996ZM552.446 28.6L550.193 30.5803C551.799 32.4076 553.962 33.25 556.346 33.25V30.25V27.25C555.465 27.25 555.028 26.9924 554.7 26.6197L552.446 28.6ZM556.346 30.25V33.25C558.742 33.25 560.939 32.4208 562.534 30.5409L560.246 28.6L557.959 26.6591C557.687 26.9792 557.284 27.25 556.346 27.25V30.25ZM560.246 28.6L562.529 30.5468C564.205 28.5814 564.696 25.7753 564.696 22.9H561.696H558.696C558.696 25.3581 558.221 26.3519 557.964 26.6532L560.246 28.6ZM561.696 22.9H564.696V4H561.696H558.696V22.9H561.696ZM561.696 4V7H573.297V4V0.999998H561.696V4ZM573.297 4H570.297V23.25H573.297H576.297V4H573.297ZM573.297 23.25H570.297C570.297 27.8894 568.986 31.0945 566.711 33.293L568.797 35.45L570.882 37.607C574.607 34.0055 576.297 29.0773 576.297 23.25H573.297ZM568.797 35.45L566.711 33.293C564.418 35.5102 561.067 36.8 556.246 36.8V39.8V42.8C562.159 42.8 567.175 41.1898 570.882 37.607L568.797 35.45ZM585.817 39H582.817V42H585.817V39ZM585.817 13.15H588.817V10.15H585.817V13.15ZM575.567 13.15H572.567V16.15H575.567V13.15ZM575.567 4V0.999998H572.567V4H575.567ZM607.867 4H610.867V0.999998H607.867V4ZM607.867 13.15V16.15H610.867V13.15H607.867ZM597.617 13.15V10.15H594.617V13.15H597.617ZM597.617 39V42H600.617V39H597.617ZM585.817 39H588.817V13.15H585.817H582.817V39H585.817ZM585.817 13.15V10.15H575.567V13.15V16.15H585.817V13.15ZM575.567 13.15H578.567V4H575.567H572.567V13.15H575.567ZM575.567 4V7H607.867V4V0.999998H575.567V4ZM607.867 4H604.867V13.15H607.867H610.867V4H607.867ZM607.867 13.15V10.15H597.617V13.15V16.15H607.867V13.15ZM597.617 13.15H594.617V39H597.617H600.617V13.15H597.617ZM597.617 39V36H585.817V39V42H597.617V39ZM621.732 17V14H618.732V17H621.732ZM637.332 17H640.332V14H637.332V17ZM637.332 25.5V28.5H640.332V25.5H637.332ZM621.732 25.5H618.732V28.5H621.732V25.5ZM622.532 30.1H619.532V33.1H622.532V30.1ZM640.032 30.1H643.032V27.1H640.032V30.1ZM640.032 39V42H643.032V39H640.032ZM610.932 39H607.932V42H610.932V39ZM610.932 4V0.999998H607.932V4H610.932ZM639.382 4H642.382V0.999998H639.382V4ZM639.382 12.9V15.9H642.382V12.9H639.382ZM622.532 12.9V9.9H619.532V12.9H622.532ZM621.732 17V20H637.332V17V14H621.732V17ZM637.332 17H634.332V25.5H637.332H640.332V17H637.332ZM637.332 25.5V22.5H621.732V25.5V28.5H637.332V25.5ZM621.732 25.5H624.732V17H621.732H618.732V25.5H621.732ZM622.532 30.1V33.1H640.032V30.1V27.1H622.532V30.1ZM640.032 30.1H637.032V39H640.032H643.032V30.1H640.032ZM640.032 39V36H610.932V39V42H640.032V39ZM610.932 39H613.932V4H610.932H607.932V39H610.932ZM610.932 4V7H639.382V4V0.999998H610.932V4ZM639.382 4H636.382V12.9H639.382H642.382V4H639.382ZM639.382 12.9V9.9H622.532V12.9V15.9H639.382V12.9ZM622.532 12.9H619.532V30.1H622.532H625.532V12.9H622.532Z" fill="url(#paint0_linear_436_10472)" mask="url(#path-1-outside-1_436_10472)"/>
<defs>
<linearGradient id="paint0_linear_436_10472" x1="324" y1="-9" x2="324" y2="52" gradientUnits="userSpaceOnUse">
<stop stop-color="#E51D25"/>
<stop offset="1" stop-color="#1D3A69"/>
</linearGradient>
</defs>
</svg>
