<svg width="465" height="43" viewBox="0 0 465 43" fill="none" xmlns="http://www.w3.org/2000/svg">
<mask id="path-1-outside-1_501_8656" maskUnits="userSpaceOnUse" x="0" y="0" width="465" height="43" fill="black">
<rect fill="white" width="465" height="43"/>
<path d="M3.06582 39V4H19.9158C23.1825 4 25.9992 4.53333 28.3658 5.6C30.7658 6.66666 32.6158 8.2 33.9158 10.2C35.2158 12.1667 35.8658 14.5 35.8658 17.2C35.8658 19.9 35.2158 22.2333 33.9158 24.2C32.6158 26.1333 30.7658 27.6167 28.3658 28.65C25.9992 29.6833 23.1825 30.2 19.9158 30.2H9.61582L14.8658 25.35V39H3.06582ZM24.0158 39L15.4158 26.25H27.9158L36.6158 39H24.0158ZM14.8658 26.65L9.61582 21.3H19.1658C20.7992 21.3 21.9992 20.9333 22.7658 20.2C23.5658 19.4667 23.9658 18.4667 23.9658 17.2C23.9658 15.9333 23.5658 14.9333 22.7658 14.2C21.9992 13.4667 20.7992 13.1 19.1658 13.1H9.61582L14.8658 7.75V26.65ZM36.5217 39L51.8217 4H63.4217L78.7217 39H66.5217L55.2217 9.6H59.8217L48.5217 39H36.5217ZM45.6217 32.9L48.6217 24.4H64.7217L67.7217 32.9H45.6217ZM98.2166 39.8C95.4166 39.8 92.8166 39.3667 90.4166 38.5C88.0499 37.6 85.9833 36.3333 84.2166 34.7C82.4833 33.0667 81.1333 31.1333 80.1666 28.9C79.1999 26.6667 78.7166 24.2 78.7166 21.5C78.7166 18.8 79.1999 16.3333 80.1666 14.1C81.1333 11.8667 82.4833 9.93333 84.2166 8.3C85.9833 6.66666 88.0499 5.41666 90.4166 4.55C92.8166 3.65 95.4166 3.2 98.2166 3.2C101.65 3.2 104.683 3.8 107.317 5C109.983 6.2 112.183 7.93333 113.917 10.2L106.467 16.85C105.433 15.55 104.283 14.55 103.017 13.85C101.783 13.1167 100.383 12.75 98.8166 12.75C97.5833 12.75 96.4666 12.95 95.4666 13.35C94.4666 13.75 93.5999 14.3333 92.8666 15.1C92.1666 15.8667 91.6166 16.8 91.2166 17.9C90.8166 18.9667 90.6166 20.1667 90.6166 21.5C90.6166 22.8333 90.8166 24.05 91.2166 25.15C91.6166 26.2167 92.1666 27.1333 92.8666 27.9C93.5999 28.6667 94.4666 29.25 95.4666 29.65C96.4666 30.05 97.5833 30.25 98.8166 30.25C100.383 30.25 101.783 29.9 103.017 29.2C104.283 28.4667 105.433 27.45 106.467 26.15L113.917 32.8C112.183 35.0333 109.983 36.7667 107.317 38C104.683 39.2 101.65 39.8 98.2166 39.8ZM128.124 17H143.724V25.5H128.124V17ZM128.924 30.1H146.424V39H117.324V4H145.774V12.9H128.924V30.1ZM184.056 39.8C181.256 39.8 178.656 39.3667 176.256 38.5C173.89 37.6 171.823 36.3333 170.056 34.7C168.323 33.0667 166.973 31.1333 166.006 28.9C165.04 26.6667 164.556 24.2 164.556 21.5C164.556 18.8 165.04 16.3333 166.006 14.1C166.973 11.8667 168.323 9.93333 170.056 8.3C171.823 6.66666 173.89 5.41666 176.256 4.55C178.656 3.65 181.256 3.2 184.056 3.2C187.49 3.2 190.523 3.8 193.156 5C195.823 6.2 198.023 7.93333 199.756 10.2L192.306 16.85C191.273 15.55 190.123 14.55 188.856 13.85C187.623 13.1167 186.223 12.75 184.656 12.75C183.423 12.75 182.306 12.95 181.306 13.35C180.306 13.75 179.44 14.3333 178.706 15.1C178.006 15.8667 177.456 16.8 177.056 17.9C176.656 18.9667 176.456 20.1667 176.456 21.5C176.456 22.8333 176.656 24.05 177.056 25.15C177.456 26.2167 178.006 27.1333 178.706 27.9C179.44 28.6667 180.306 29.25 181.306 29.65C182.306 30.05 183.423 30.25 184.656 30.25C186.223 30.25 187.623 29.9 188.856 29.2C190.123 28.4667 191.273 27.45 192.306 26.15L199.756 32.8C198.023 35.0333 195.823 36.7667 193.156 38C190.523 39.2 187.49 39.8 184.056 39.8ZM198.875 39L214.175 4H225.775L241.075 39H228.875L217.575 9.6H222.175L210.875 39H198.875ZM207.975 32.9L210.975 24.4H227.075L230.075 32.9H207.975ZM248.801 39V13.15H238.551V4H270.851V13.15H260.601V39H248.801ZM284.715 17H300.315V25.5H284.715V17ZM285.515 30.1H303.015V39H273.915V4H302.365V12.9H285.515V30.1ZM325.708 39.8C322.875 39.8 320.258 39.3667 317.858 38.5C315.491 37.6 313.425 36.3333 311.658 34.7C309.925 33.0667 308.575 31.1333 307.608 28.9C306.641 26.6667 306.158 24.2 306.158 21.5C306.158 18.8 306.641 16.3333 307.608 14.1C308.575 11.8667 309.941 9.93333 311.708 8.3C313.475 6.66666 315.558 5.41666 317.958 4.55C320.391 3.65 323.058 3.2 325.958 3.2C329.425 3.2 332.508 3.78333 335.208 4.95C337.941 6.11666 340.191 7.78333 341.958 9.95L334.408 16.6C333.308 15.3333 332.108 14.3833 330.808 13.75C329.541 13.0833 328.125 12.75 326.558 12.75C325.258 12.75 324.075 12.95 323.008 13.35C321.975 13.75 321.091 14.3333 320.358 15.1C319.625 15.8667 319.058 16.7833 318.658 17.85C318.258 18.9167 318.058 20.1333 318.058 21.5C318.058 22.8 318.258 24 318.658 25.1C319.058 26.1667 319.625 27.0833 320.358 27.85C321.091 28.6167 321.958 29.2167 322.958 29.65C323.991 30.05 325.141 30.25 326.408 30.25C327.741 30.25 329.041 30.0333 330.308 29.6C331.575 29.1333 332.925 28.35 334.358 27.25L340.958 35.35C338.825 36.7833 336.391 37.8833 333.658 38.65C330.925 39.4167 328.275 39.8 325.708 39.8ZM330.708 33.85V20.55H340.958V35.35L330.708 33.85ZM364.336 39.8C361.502 39.8 358.869 39.35 356.436 38.45C354.036 37.55 351.952 36.2833 350.186 34.65C348.419 32.9833 347.036 31.0333 346.036 28.8C345.069 26.5667 344.586 24.1333 344.586 21.5C344.586 18.8333 345.069 16.4 346.036 14.2C347.036 11.9667 348.419 10.0333 350.186 8.4C351.952 6.73333 354.036 5.45 356.436 4.55C358.869 3.65 361.502 3.2 364.336 3.2C367.202 3.2 369.836 3.65 372.236 4.55C374.636 5.45 376.719 6.73333 378.486 8.4C380.252 10.0333 381.619 11.9667 382.586 14.2C383.586 16.4 384.086 18.8333 384.086 21.5C384.086 24.1333 383.586 26.5667 382.586 28.8C381.619 31.0333 380.252 32.9833 378.486 34.65C376.719 36.2833 374.636 37.55 372.236 38.45C369.836 39.35 367.202 39.8 364.336 39.8ZM364.336 30.25C365.436 30.25 366.452 30.05 367.386 29.65C368.352 29.25 369.186 28.6833 369.886 27.95C370.619 27.1833 371.186 26.2667 371.586 25.2C371.986 24.1 372.186 22.8667 372.186 21.5C372.186 20.1333 371.986 18.9167 371.586 17.85C371.186 16.75 370.619 15.8333 369.886 15.1C369.186 14.3333 368.352 13.75 367.386 13.35C366.452 12.95 365.436 12.75 364.336 12.75C363.236 12.75 362.202 12.95 361.236 13.35C360.302 13.75 359.469 14.3333 358.736 15.1C358.036 15.8333 357.486 16.75 357.086 17.85C356.686 18.9167 356.486 20.1333 356.486 21.5C356.486 22.8667 356.686 24.1 357.086 25.2C357.486 26.2667 358.036 27.1833 358.736 27.95C359.469 28.6833 360.302 29.25 361.236 29.65C362.202 30.05 363.236 30.25 364.336 30.25ZM388.369 39V4H405.219C408.485 4 411.302 4.53333 413.669 5.6C416.069 6.66666 417.919 8.2 419.219 10.2C420.519 12.1667 421.169 14.5 421.169 17.2C421.169 19.9 420.519 22.2333 419.219 24.2C417.919 26.1333 416.069 27.6167 413.669 28.65C411.302 29.6833 408.485 30.2 405.219 30.2H394.919L400.169 25.35V39H388.369ZM409.319 39L400.719 26.25H413.219L421.919 39H409.319ZM400.169 26.65L394.919 21.3H404.469C406.102 21.3 407.302 20.9333 408.069 20.2C408.869 19.4667 409.269 18.4667 409.269 17.2C409.269 15.9333 408.869 14.9333 408.069 14.2C407.302 13.4667 406.102 13.1 404.469 13.1H394.919L400.169 7.75V26.65ZM434.136 39V23.65L436.836 30.7L420.936 4H433.386L444.136 22.25H436.886L447.736 4H459.136L443.336 30.7L445.936 23.65V39H434.136Z"/>
</mask>
<path d="M3.06582 39H0.0658205V42H3.06582V39ZM3.06582 4V0.999998H0.0658205V4H3.06582ZM28.3658 5.6L27.1331 8.33504L27.1403 8.33825L27.1474 8.34143L28.3658 5.6ZM33.9158 10.2L31.4005 11.835L31.4068 11.8447L31.4132 11.8543L33.9158 10.2ZM33.9158 24.2L36.4053 25.874L36.412 25.8642L36.4185 25.8543L33.9158 24.2ZM28.3658 28.65L27.1794 25.8945L27.1724 25.8976L27.1654 25.9006L28.3658 28.65ZM9.61582 30.2L7.58011 27.9964L1.94734 33.2H9.61582V30.2ZM14.8658 25.35H17.8658V18.4944L12.8301 23.1464L14.8658 25.35ZM14.8658 39V42H17.8658V39H14.8658ZM24.0158 39L21.5287 40.6776L22.4207 42H24.0158V39ZM15.4158 26.25V23.25H9.77364L12.9287 27.9276L15.4158 26.25ZM27.9158 26.25L30.3939 24.5591L29.5006 23.25H27.9158V26.25ZM36.6158 39V42H42.2947L39.0939 37.3091L36.6158 39ZM14.8658 26.65L12.7246 28.7512L17.8658 33.9904V26.65H14.8658ZM9.61582 21.3V18.3H2.46872L7.47458 23.4012L9.61582 21.3ZM22.7658 20.2L20.7386 17.9885L20.7152 18.0101L20.6922 18.0321L22.7658 20.2ZM22.7658 14.2L20.6922 16.3679L20.7152 16.3899L20.7386 16.4115L22.7658 14.2ZM9.61582 13.1L7.47458 10.9988L2.46872 16.1H9.61582V13.1ZM14.8658 7.75H17.8658V0.40962L12.7246 5.64879L14.8658 7.75ZM3.06582 39H6.06582V4H3.06582H0.0658205V39H3.06582ZM3.06582 4V7H19.9158V4V0.999998H3.06582V4ZM19.9158 4V7C22.8638 7 25.2404 7.48198 27.1331 8.33504L28.3658 5.6L29.5985 2.86495C26.7579 1.58468 23.5012 0.999998 19.9158 0.999998V4ZM28.3658 5.6L27.1474 8.34143C29.0728 9.19717 30.4483 10.3701 31.4005 11.835L33.9158 10.2L36.4312 8.56503C34.7833 6.02991 32.4588 4.13616 29.5842 2.85856L28.3658 5.6ZM33.9158 10.2L31.4132 11.8543C32.3435 13.2617 32.8658 15.0004 32.8658 17.2H35.8658H38.8658C38.8658 13.9996 38.0882 11.0716 36.4185 8.5457L33.9158 10.2ZM35.8658 17.2H32.8658C32.8658 19.3996 32.3435 21.1383 31.4132 22.5457L33.9158 24.2L36.4185 25.8543C38.0882 23.3284 38.8658 20.4004 38.8658 17.2H35.8658ZM33.9158 24.2L31.4263 22.526C30.4859 23.9245 29.1166 25.0605 27.1794 25.8945L28.3658 28.65L29.5522 31.4055C32.415 30.1728 34.7457 28.3421 36.4053 25.874L33.9158 24.2ZM28.3658 28.65L27.1654 25.9006C25.2634 26.7311 22.875 27.2 19.9158 27.2V30.2V33.2C23.49 33.2 26.7349 32.6356 29.5662 31.3994L28.3658 28.65ZM19.9158 30.2V27.2H9.61582V30.2V33.2H19.9158V30.2ZM9.61582 30.2L11.6515 32.4036L16.9015 27.5536L14.8658 25.35L12.8301 23.1464L7.58011 27.9964L9.61582 30.2ZM14.8658 25.35H11.8658V39H14.8658H17.8658V25.35H14.8658ZM14.8658 39V36H3.06582V39V42H14.8658V39ZM24.0158 39L26.5029 37.3224L17.9029 24.5724L15.4158 26.25L12.9287 27.9276L21.5287 40.6776L24.0158 39ZM15.4158 26.25V29.25H27.9158V26.25V23.25H15.4158V26.25ZM27.9158 26.25L25.4378 27.9409L34.1378 40.6909L36.6158 39L39.0939 37.3091L30.3939 24.5591L27.9158 26.25ZM36.6158 39V36H24.0158V39V42H36.6158V39ZM14.8658 26.65L17.0071 24.5488L11.7571 19.1988L9.61582 21.3L7.47458 23.4012L12.7246 28.7512L14.8658 26.65ZM9.61582 21.3V24.3H19.1658V21.3V18.3H9.61582V21.3ZM19.1658 21.3V24.3C21.1668 24.3 23.278 23.8615 24.8395 22.3679L22.7658 20.2L20.6922 18.0321C20.7203 18.0052 20.4315 18.3 19.1658 18.3V21.3ZM22.7658 20.2L24.793 22.4115C26.3179 21.0136 26.9658 19.1537 26.9658 17.2H23.9658H20.9658C20.9658 17.7797 20.8137 17.9197 20.7386 17.9885L22.7658 20.2ZM23.9658 17.2H26.9658C26.9658 15.2463 26.3179 13.3864 24.793 11.9885L22.7658 14.2L20.7386 16.4115C20.8137 16.4803 20.9658 16.6203 20.9658 17.2H23.9658ZM22.7658 14.2L24.8395 12.0321C23.278 10.5385 21.1668 10.1 19.1658 10.1V13.1V16.1C20.4315 16.1 20.7203 16.3948 20.6922 16.3679L22.7658 14.2ZM19.1658 13.1V10.1H9.61582V13.1V16.1H19.1658V13.1ZM9.61582 13.1L11.7571 15.2012L17.0071 9.85122L14.8658 7.75L12.7246 5.64879L7.47458 10.9988L9.61582 13.1ZM14.8658 7.75H11.8658V26.65H14.8658H17.8658V7.75H14.8658ZM36.5217 39L33.7728 37.7984L31.9361 42H36.5217V39ZM51.8217 4V0.999998H49.859L49.0728 2.79837L51.8217 4ZM63.4217 4L66.1705 2.79837L65.3844 0.999998H63.4217V4ZM78.7217 39V42H83.3072L81.4705 37.7984L78.7217 39ZM66.5217 39L63.7214 40.0763L64.4608 42H66.5217V39ZM55.2217 9.6V6.6H50.8547L52.4214 10.6763L55.2217 9.6ZM59.8217 9.6L62.622 10.6763L64.1887 6.6H59.8217V9.6ZM48.5217 39V42H50.5826L51.322 40.0763L48.5217 39ZM45.6217 32.9L42.7927 31.9015L41.3815 35.9H45.6217V32.9ZM48.6217 24.4V21.4H46.4991L45.7927 23.4015L48.6217 24.4ZM64.7217 24.4L67.5507 23.4015L66.8442 21.4H64.7217V24.4ZM67.7217 32.9V35.9H71.9619L70.5507 31.9015L67.7217 32.9ZM36.5217 39L39.2705 40.2016L54.5705 5.20163L51.8217 4L49.0728 2.79837L33.7728 37.7984L36.5217 39ZM51.8217 4V7H63.4217V4V0.999998H51.8217V4ZM63.4217 4L60.6729 5.20163L75.9728 40.2016L78.7217 39L81.4705 37.7984L66.1705 2.79837L63.4217 4ZM78.7217 39V36H66.5217V39V42H78.7217V39ZM66.5217 39L69.322 37.9237L58.022 8.5237L55.2217 9.6L52.4214 10.6763L63.7214 40.0763L66.5217 39ZM55.2217 9.6V12.6H59.8217V9.6V6.6H55.2217V9.6ZM59.8217 9.6L57.0214 8.5237L45.7214 37.9237L48.5217 39L51.322 40.0763L62.622 10.6763L59.8217 9.6ZM48.5217 39V36H36.5217V39V42H48.5217V39ZM45.6217 32.9L48.4506 33.8985L51.4506 25.3985L48.6217 24.4L45.7927 23.4015L42.7927 31.9015L45.6217 32.9ZM48.6217 24.4V27.4H64.7217V24.4V21.4H48.6217V24.4ZM64.7217 24.4L61.8927 25.3985L64.8927 33.8985L67.7217 32.9L70.5507 31.9015L67.5507 23.4015L64.7217 24.4ZM67.7217 32.9V29.9H45.6217V32.9V35.9H67.7217V32.9ZM90.4166 38.5L89.3503 41.3041L89.3739 41.3131L89.3977 41.3217L90.4166 38.5ZM84.2166 34.7L82.1592 36.8834L82.1696 36.8931L82.18 36.9028L84.2166 34.7ZM80.1666 28.9L77.4134 30.0917L80.1666 28.9ZM80.1666 14.1L77.4134 12.9083L80.1666 14.1ZM84.2166 8.3L82.18 6.09718L82.1696 6.10686L82.1592 6.11663L84.2166 8.3ZM90.4166 4.55L91.4482 7.36706L91.4591 7.36306L91.47 7.35899L90.4166 4.55ZM107.317 5L106.073 7.72991L106.079 7.73285L106.086 7.73577L107.317 5ZM113.917 10.2L115.914 12.4381L117.989 10.5864L116.3 8.37765L113.917 10.2ZM106.467 16.85L104.118 18.7167L106.095 21.2033L108.464 19.0881L106.467 16.85ZM103.017 13.85L101.483 16.4286L101.524 16.4528L101.566 16.4757L103.017 13.85ZM95.4666 13.35L96.5808 16.1354L96.5808 16.1354L95.4666 13.35ZM92.8666 15.1L90.6987 13.0263L90.6746 13.0515L90.6511 13.0772L92.8666 15.1ZM91.2166 17.9L94.0256 18.9534L94.0309 18.9393L94.036 18.9252L91.2166 17.9ZM91.2166 25.15L88.3972 26.1752L88.4024 26.1893L88.4076 26.2034L91.2166 25.15ZM92.8666 27.9L90.6511 29.9228L90.6746 29.9485L90.6987 29.9737L92.8666 27.9ZM95.4666 29.65L94.3524 32.4354L95.4666 29.65ZM103.017 29.2L104.497 31.8091L104.509 31.8027L104.52 31.7963L103.017 29.2ZM106.467 26.15L108.464 23.9119L106.095 21.7967L104.118 24.2833L106.467 26.15ZM113.917 32.8L116.287 34.6394L118.004 32.4269L115.914 30.5619L113.917 32.8ZM107.317 38L108.561 40.7299L108.568 40.7264L108.576 40.7229L107.317 38ZM98.2166 39.8V36.8C95.7303 36.8 93.4785 36.4161 91.4355 35.6783L90.4166 38.5L89.3977 41.3217C92.1547 42.3173 95.1029 42.8 98.2166 42.8V39.8ZM90.4166 38.5L91.4829 35.6959C89.4561 34.9251 87.7233 33.8563 86.2532 32.4972L84.2166 34.7L82.18 36.9028C84.2433 38.8103 86.6438 40.2749 89.3503 41.3041L90.4166 38.5ZM84.2166 34.7L86.274 32.5166C84.8442 31.1693 83.728 29.5756 82.9198 27.7083L80.1666 28.9L77.4134 30.0917C78.5386 32.6911 80.1224 34.964 82.1592 36.8834L84.2166 34.7ZM80.1666 28.9L82.9198 27.7083C82.1329 25.8904 81.7166 23.8351 81.7166 21.5H78.7166H75.7166C75.7166 24.5649 76.267 27.4429 77.4134 30.0917L80.1666 28.9ZM78.7166 21.5H81.7166C81.7166 19.1649 82.1329 17.1096 82.9198 15.2917L80.1666 14.1L77.4134 12.9083C76.267 15.5571 75.7166 18.4351 75.7166 21.5H78.7166ZM80.1666 14.1L82.9198 15.2917C83.728 13.4244 84.8442 11.8307 86.274 10.4834L84.2166 8.3L82.1592 6.11663C80.1224 8.03597 78.5386 10.3089 77.4134 12.9083L80.1666 14.1ZM84.2166 8.3L86.2532 10.5028C87.715 9.15134 89.4358 8.10398 91.4482 7.36706L90.4166 4.55L89.385 1.73294C86.6641 2.72934 84.2516 4.18199 82.18 6.09718L84.2166 8.3ZM90.4166 4.55L91.47 7.35899C93.5033 6.59647 95.7431 6.2 98.2166 6.2V3.2V0.199999C95.0901 0.199999 92.1299 0.703525 89.3632 1.74101L90.4166 4.55ZM98.2166 3.2V6.2C101.3 6.2 103.896 6.73797 106.073 7.72991L107.317 5L108.561 2.27009C105.471 0.862026 102 0.199999 98.2166 0.199999V3.2ZM107.317 5L106.086 7.73577C108.31 8.73682 110.11 10.1611 111.534 12.0223L113.917 10.2L116.3 8.37765C114.256 5.70559 111.656 3.66317 108.548 2.26423L107.317 5ZM113.917 10.2L111.919 7.96192L104.469 14.6119L106.467 16.85L108.464 19.0881L115.914 12.4381L113.917 10.2ZM106.467 16.85L108.815 14.9833C107.572 13.4189 106.128 12.1418 104.468 11.2243L103.017 13.85L101.566 16.4757C102.439 16.9582 103.295 17.6811 104.118 18.7167L106.467 16.85ZM103.017 13.85L104.55 11.2714C102.811 10.2372 100.872 9.75 98.8166 9.75V12.75V15.75C99.8947 15.75 100.756 15.9961 101.483 16.4286L103.017 13.85ZM98.8166 12.75V9.75C97.2565 9.75 95.7544 10.0038 94.3524 10.5646L95.4666 13.35L96.5808 16.1354C97.1788 15.8962 97.9101 15.75 98.8166 15.75V12.75ZM95.4666 13.35L94.3524 10.5646C92.9606 11.1213 91.733 11.945 90.6987 13.0263L92.8666 15.1L95.0345 17.1737C95.4669 16.7216 95.9726 16.3787 96.5808 16.1354L95.4666 13.35ZM92.8666 15.1L90.6511 13.0772C89.6549 14.1684 88.9143 15.4528 88.3972 16.8748L91.2166 17.9L94.036 18.9252C94.3189 18.1472 94.6783 17.565 95.0821 17.1228L92.8666 15.1ZM91.2166 17.9L88.4076 16.8466C87.8618 18.3022 87.6166 19.8671 87.6166 21.5H90.6166H93.6166C93.6166 20.4663 93.7714 19.6311 94.0256 18.9534L91.2166 17.9ZM90.6166 21.5H87.6166C87.6166 23.1349 87.8623 24.7043 88.3972 26.1752L91.2166 25.15L94.036 24.1248C93.7709 23.3957 93.6166 22.5317 93.6166 21.5H90.6166ZM91.2166 25.15L88.4076 26.2034C88.9288 27.5931 89.6693 28.8475 90.6511 29.9228L92.8666 27.9L95.0821 25.8772C94.6639 25.4192 94.3044 24.8402 94.0256 24.0966L91.2166 25.15ZM92.8666 27.9L90.6987 29.9737C91.733 31.055 92.9606 31.8787 94.3524 32.4354L95.4666 29.65L96.5808 26.8646C95.9726 26.6213 95.4669 26.2784 95.0345 25.8263L92.8666 27.9ZM95.4666 29.65L94.3524 32.4354C95.7544 32.9962 97.2565 33.25 98.8166 33.25V30.25V27.25C97.9101 27.25 97.1788 27.1038 96.5808 26.8646L95.4666 29.65ZM98.8166 30.25V33.25C100.847 33.25 102.767 32.7915 104.497 31.8091L103.017 29.2L101.536 26.5909C100.8 27.0085 99.9199 27.25 98.8166 27.25V30.25ZM103.017 29.2L104.52 31.7963C106.152 30.8512 107.579 29.5714 108.815 28.0167L106.467 26.15L104.118 24.2833C103.287 25.3286 102.414 26.0821 101.513 26.6037L103.017 29.2ZM106.467 26.15L104.469 28.3881L111.919 35.0381L113.917 32.8L115.914 30.5619L108.464 23.9119L106.467 26.15ZM113.917 32.8L111.547 30.9606C110.119 32.7998 108.306 34.237 106.057 35.2771L107.317 38L108.576 40.7229C111.66 39.2963 114.247 37.2669 116.287 34.6394L113.917 32.8ZM107.317 38L106.073 35.2701C103.896 36.262 101.3 36.8 98.2166 36.8V39.8V42.8C102 42.8 105.471 42.138 108.561 40.7299L107.317 38ZM128.124 17V14H125.124V17H128.124ZM143.724 17H146.724V14H143.724V17ZM143.724 25.5V28.5H146.724V25.5H143.724ZM128.124 25.5H125.124V28.5H128.124V25.5ZM128.924 30.1H125.924V33.1H128.924V30.1ZM146.424 30.1H149.424V27.1H146.424V30.1ZM146.424 39V42H149.424V39H146.424ZM117.324 39H114.324V42H117.324V39ZM117.324 4V0.999998H114.324V4H117.324ZM145.774 4H148.774V0.999998H145.774V4ZM145.774 12.9V15.9H148.774V12.9H145.774ZM128.924 12.9V9.9H125.924V12.9H128.924ZM128.124 17V20H143.724V17V14H128.124V17ZM143.724 17H140.724V25.5H143.724H146.724V17H143.724ZM143.724 25.5V22.5H128.124V25.5V28.5H143.724V25.5ZM128.124 25.5H131.124V17H128.124H125.124V25.5H128.124ZM128.924 30.1V33.1H146.424V30.1V27.1H128.924V30.1ZM146.424 30.1H143.424V39H146.424H149.424V30.1H146.424ZM146.424 39V36H117.324V39V42H146.424V39ZM117.324 39H120.324V4H117.324H114.324V39H117.324ZM117.324 4V7H145.774V4V0.999998H117.324V4ZM145.774 4H142.774V12.9H145.774H148.774V4H145.774ZM145.774 12.9V9.9H128.924V12.9V15.9H145.774V12.9ZM128.924 12.9H125.924V30.1H128.924H131.924V12.9H128.924ZM176.256 38.5L175.19 41.3041L175.214 41.3131L175.238 41.3217L176.256 38.5ZM170.056 34.7L167.999 36.8834L168.009 36.8931L168.02 36.9028L170.056 34.7ZM166.006 28.9L163.253 30.0917L166.006 28.9ZM166.006 14.1L163.253 12.9083L166.006 14.1ZM170.056 8.3L168.02 6.09718L168.009 6.10686L167.999 6.11663L170.056 8.3ZM176.256 4.55L177.288 7.36706L177.299 7.36306L177.31 7.35899L176.256 4.55ZM193.156 5L191.912 7.72991L191.919 7.73285L191.925 7.73577L193.156 5ZM199.756 10.2L201.754 12.4381L203.829 10.5864L202.14 8.37765L199.756 10.2ZM192.306 16.85L189.958 18.7167L191.934 21.2033L194.304 19.0881L192.306 16.85ZM188.856 13.85L187.323 16.4286L187.364 16.4528L187.405 16.4757L188.856 13.85ZM181.306 13.35L182.421 16.1354L182.421 16.1354L181.306 13.35ZM178.706 15.1L176.539 13.0263L176.514 13.0515L176.491 13.0772L178.706 15.1ZM177.056 17.9L179.865 18.9534L179.871 18.9393L179.876 18.9252L177.056 17.9ZM177.056 25.15L174.237 26.1752L174.242 26.1893L174.247 26.2034L177.056 25.15ZM178.706 27.9L176.491 29.9228L176.514 29.9485L176.539 29.9737L178.706 27.9ZM181.306 29.65L180.192 32.4354L181.306 29.65ZM188.856 29.2L190.337 31.8091L190.348 31.8027L190.36 31.7963L188.856 29.2ZM192.306 26.15L194.304 23.9119L191.934 21.7967L189.958 24.2833L192.306 26.15ZM199.756 32.8L202.126 34.6394L203.844 32.4269L201.754 30.5619L199.756 32.8ZM193.156 38L194.4 40.7299L194.408 40.7264L194.416 40.7229L193.156 38ZM184.056 39.8V36.8C181.57 36.8 179.318 36.4161 177.275 35.6783L176.256 38.5L175.238 41.3217C177.995 42.3173 180.943 42.8 184.056 42.8V39.8ZM176.256 38.5L177.323 35.6959C175.296 34.9251 173.563 33.8563 172.093 32.4972L170.056 34.7L168.02 36.9028C170.083 38.8103 172.484 40.2749 175.19 41.3041L176.256 38.5ZM170.056 34.7L172.114 32.5166C170.684 31.1693 169.568 29.5756 168.76 27.7083L166.006 28.9L163.253 30.0917C164.378 32.6911 165.962 34.964 167.999 36.8834L170.056 34.7ZM166.006 28.9L168.76 27.7083C167.973 25.8904 167.556 23.8351 167.556 21.5H164.556H161.556C161.556 24.5649 162.107 27.4429 163.253 30.0917L166.006 28.9ZM164.556 21.5H167.556C167.556 19.1649 167.973 17.1096 168.76 15.2917L166.006 14.1L163.253 12.9083C162.107 15.5571 161.556 18.4351 161.556 21.5H164.556ZM166.006 14.1L168.76 15.2917C169.568 13.4244 170.684 11.8307 172.114 10.4834L170.056 8.3L167.999 6.11663C165.962 8.03597 164.378 10.3089 163.253 12.9083L166.006 14.1ZM170.056 8.3L172.093 10.5028C173.555 9.15134 175.276 8.10398 177.288 7.36706L176.256 4.55L175.225 1.73294C172.504 2.72934 170.091 4.18199 168.02 6.09718L170.056 8.3ZM176.256 4.55L177.31 7.35899C179.343 6.59647 181.583 6.2 184.056 6.2V3.2V0.199999C180.93 0.199999 177.97 0.703525 175.203 1.74101L176.256 4.55ZM184.056 3.2V6.2C187.14 6.2 189.736 6.73797 191.912 7.72991L193.156 5L194.4 2.27009C191.311 0.862026 187.84 0.199999 184.056 0.199999V3.2ZM193.156 5L191.925 7.73577C194.15 8.73682 195.95 10.1611 197.373 12.0223L199.756 10.2L202.14 8.37765C200.096 5.70559 197.496 3.66317 194.388 2.26423L193.156 5ZM199.756 10.2L197.759 7.96192L190.309 14.6119L192.306 16.85L194.304 19.0881L201.754 12.4381L199.756 10.2ZM192.306 16.85L194.655 14.9833C193.411 13.4189 191.968 12.1418 190.308 11.2243L188.856 13.85L187.405 16.4757C188.279 16.9582 189.135 17.6811 189.958 18.7167L192.306 16.85ZM188.856 13.85L190.39 11.2714C188.65 10.2372 186.712 9.75 184.656 9.75V12.75V15.75C185.735 15.75 186.596 15.9961 187.323 16.4286L188.856 13.85ZM184.656 12.75V9.75C183.096 9.75 181.594 10.0038 180.192 10.5646L181.306 13.35L182.421 16.1354C183.019 15.8962 183.75 15.75 184.656 15.75V12.75ZM181.306 13.35L180.192 10.5646C178.8 11.1213 177.573 11.945 176.539 13.0263L178.706 15.1L180.874 17.1737C181.307 16.7216 181.812 16.3787 182.421 16.1354L181.306 13.35ZM178.706 15.1L176.491 13.0772C175.495 14.1684 174.754 15.4528 174.237 16.8748L177.056 17.9L179.876 18.9252C180.159 18.1472 180.518 17.565 180.922 17.1228L178.706 15.1ZM177.056 17.9L174.247 16.8466C173.702 18.3022 173.456 19.8671 173.456 21.5H176.456H179.456C179.456 20.4663 179.611 19.6311 179.865 18.9534L177.056 17.9ZM176.456 21.5H173.456C173.456 23.1349 173.702 24.7043 174.237 26.1752L177.056 25.15L179.876 24.1248C179.611 23.3957 179.456 22.5317 179.456 21.5H176.456ZM177.056 25.15L174.247 26.2034C174.769 27.5931 175.509 28.8475 176.491 29.9228L178.706 27.9L180.922 25.8772C180.504 25.4192 180.144 24.8402 179.865 24.0966L177.056 25.15ZM178.706 27.9L176.539 29.9737C177.573 31.055 178.8 31.8787 180.192 32.4354L181.306 29.65L182.421 26.8646C181.812 26.6213 181.307 26.2784 180.874 25.8263L178.706 27.9ZM181.306 29.65L180.192 32.4354C181.594 32.9962 183.096 33.25 184.656 33.25V30.25V27.25C183.75 27.25 183.019 27.1038 182.421 26.8646L181.306 29.65ZM184.656 30.25V33.25C186.687 33.25 188.606 32.7915 190.337 31.8091L188.856 29.2L187.376 26.5909C186.64 27.0085 185.76 27.25 184.656 27.25V30.25ZM188.856 29.2L190.36 31.7963C191.992 30.8512 193.419 29.5714 194.655 28.0167L192.306 26.15L189.958 24.2833C189.127 25.3286 188.254 26.0821 187.353 26.6037L188.856 29.2ZM192.306 26.15L190.309 28.3881L197.759 35.0381L199.756 32.8L201.754 30.5619L194.304 23.9119L192.306 26.15ZM199.756 32.8L197.386 30.9606C195.959 32.7998 194.146 34.237 191.897 35.2771L193.156 38L194.416 40.7229C197.5 39.2963 200.087 37.2669 202.126 34.6394L199.756 32.8ZM193.156 38L191.912 35.2701C189.736 36.262 187.14 36.8 184.056 36.8V39.8V42.8C187.84 42.8 191.311 42.138 194.4 40.7299L193.156 38ZM198.875 39L196.126 37.7984L194.29 42H198.875V39ZM214.175 4V0.999998H212.213L211.426 2.79837L214.175 4ZM225.775 4L228.524 2.79837L227.738 0.999998H225.775V4ZM241.075 39V42H245.661L243.824 37.7984L241.075 39ZM228.875 39L226.075 40.0763L226.814 42H228.875V39ZM217.575 9.6V6.6H213.208L214.775 10.6763L217.575 9.6ZM222.175 9.6L224.975 10.6763L226.542 6.6H222.175V9.6ZM210.875 39V42H212.936L213.675 40.0763L210.875 39ZM207.975 32.9L205.146 31.9015L203.735 35.9H207.975V32.9ZM210.975 24.4V21.4H208.853L208.146 23.4015L210.975 24.4ZM227.075 24.4L229.904 23.4015L229.198 21.4H227.075V24.4ZM230.075 32.9V35.9H234.315L232.904 31.9015L230.075 32.9ZM198.875 39L201.624 40.2016L216.924 5.20163L214.175 4L211.426 2.79837L196.126 37.7984L198.875 39ZM214.175 4V7H225.775V4V0.999998H214.175V4ZM225.775 4L223.026 5.20163L238.326 40.2016L241.075 39L243.824 37.7984L228.524 2.79837L225.775 4ZM241.075 39V36H228.875V39V42H241.075V39ZM228.875 39L231.675 37.9237L220.375 8.5237L217.575 9.6L214.775 10.6763L226.075 40.0763L228.875 39ZM217.575 9.6V12.6H222.175V9.6V6.6H217.575V9.6ZM222.175 9.6L219.375 8.5237L208.075 37.9237L210.875 39L213.675 40.0763L224.975 10.6763L222.175 9.6ZM210.875 39V36H198.875V39V42H210.875V39ZM207.975 32.9L210.804 33.8985L213.804 25.3985L210.975 24.4L208.146 23.4015L205.146 31.9015L207.975 32.9ZM210.975 24.4V27.4H227.075V24.4V21.4H210.975V24.4ZM227.075 24.4L224.246 25.3985L227.246 33.8985L230.075 32.9L232.904 31.9015L229.904 23.4015L227.075 24.4ZM230.075 32.9V29.9H207.975V32.9V35.9H230.075V32.9ZM248.801 39H245.801V42H248.801V39ZM248.801 13.15H251.801V10.15H248.801V13.15ZM238.551 13.15H235.551V16.15H238.551V13.15ZM238.551 4V0.999998H235.551V4H238.551ZM270.851 4H273.851V0.999998H270.851V4ZM270.851 13.15V16.15H273.851V13.15H270.851ZM260.601 13.15V10.15H257.601V13.15H260.601ZM260.601 39V42H263.601V39H260.601ZM248.801 39H251.801V13.15H248.801H245.801V39H248.801ZM248.801 13.15V10.15H238.551V13.15V16.15H248.801V13.15ZM238.551 13.15H241.551V4H238.551H235.551V13.15H238.551ZM238.551 4V7H270.851V4V0.999998H238.551V4ZM270.851 4H267.851V13.15H270.851H273.851V4H270.851ZM270.851 13.15V10.15H260.601V13.15V16.15H270.851V13.15ZM260.601 13.15H257.601V39H260.601H263.601V13.15H260.601ZM260.601 39V36H248.801V39V42H260.601V39ZM284.715 17V14H281.715V17H284.715ZM300.315 17H303.315V14H300.315V17ZM300.315 25.5V28.5H303.315V25.5H300.315ZM284.715 25.5H281.715V28.5H284.715V25.5ZM285.515 30.1H282.515V33.1H285.515V30.1ZM303.015 30.1H306.015V27.1H303.015V30.1ZM303.015 39V42H306.015V39H303.015ZM273.915 39H270.915V42H273.915V39ZM273.915 4V0.999998H270.915V4H273.915ZM302.365 4H305.365V0.999998H302.365V4ZM302.365 12.9V15.9H305.365V12.9H302.365ZM285.515 12.9V9.9H282.515V12.9H285.515ZM284.715 17V20H300.315V17V14H284.715V17ZM300.315 17H297.315V25.5H300.315H303.315V17H300.315ZM300.315 25.5V22.5H284.715V25.5V28.5H300.315V25.5ZM284.715 25.5H287.715V17H284.715H281.715V25.5H284.715ZM285.515 30.1V33.1H303.015V30.1V27.1H285.515V30.1ZM303.015 30.1H300.015V39H303.015H306.015V30.1H303.015ZM303.015 39V36H273.915V39V42H303.015V39ZM273.915 39H276.915V4H273.915H270.915V39H273.915ZM273.915 4V7H302.365V4V0.999998H273.915V4ZM302.365 4H299.365V12.9H302.365H305.365V4H302.365ZM302.365 12.9V9.9H285.515V12.9V15.9H302.365V12.9ZM285.515 12.9H282.515V30.1H285.515H288.515V12.9H285.515ZM317.858 38.5L316.792 41.3041L316.815 41.3131L316.839 41.3217L317.858 38.5ZM311.658 34.7L309.601 36.8834L309.611 36.8931L309.621 36.9028L311.658 34.7ZM307.608 28.9L304.855 30.0917L307.608 28.9ZM307.608 14.1L304.855 12.9083L307.608 14.1ZM311.708 8.3L309.671 6.09718L311.708 8.3ZM317.958 4.55L318.977 7.37166L318.988 7.36773L318.999 7.36371L317.958 4.55ZM335.208 4.95L334.018 7.70393L334.03 7.70917L335.208 4.95ZM341.958 9.95L343.941 12.2013L346.108 10.2924L344.283 8.05418L341.958 9.95ZM334.408 16.6L332.143 18.5671L334.124 20.8481L336.391 18.8513L334.408 16.6ZM330.808 13.75L329.411 16.4048L329.452 16.4265L329.494 16.447L330.808 13.75ZM323.008 13.35L321.955 10.541L321.94 10.5466L321.925 10.5523L323.008 13.35ZM320.358 15.1L322.526 17.1737V17.1737L320.358 15.1ZM318.658 17.85L321.467 18.9034L318.658 17.85ZM318.658 25.1L315.839 26.1252L315.844 26.1393L315.849 26.1534L318.658 25.1ZM320.358 27.85L322.526 25.7763L320.358 27.85ZM322.958 29.65L321.765 32.4027L321.82 32.4263L321.875 32.4477L322.958 29.65ZM330.308 29.6L331.279 32.4385L331.312 32.4271L331.345 32.415L330.308 29.6ZM334.358 27.25L336.684 25.355L334.843 23.0961L332.532 24.8701L334.358 27.25ZM340.958 35.35L342.631 37.8401L345.362 36.0054L343.284 33.455L340.958 35.35ZM333.658 38.65L334.468 41.5385L333.658 38.65ZM330.708 33.85H327.708V36.4429L330.274 36.8184L330.708 33.85ZM330.708 20.55V17.55H327.708V20.55H330.708ZM340.958 20.55H343.958V17.55H340.958V20.55ZM340.958 35.35L340.524 38.3184L343.958 38.821V35.35H340.958ZM325.708 39.8V36.8C323.184 36.8 320.916 36.4147 318.877 35.6783L317.858 38.5L316.839 41.3217C319.6 42.3186 322.565 42.8 325.708 42.8V39.8ZM317.858 38.5L318.924 35.6959C316.898 34.9251 315.165 33.8563 313.695 32.4972L311.658 34.7L309.621 36.9028C311.685 38.8103 314.085 40.2749 316.792 41.3041L317.858 38.5ZM311.658 34.7L313.715 32.5166C312.286 31.1693 311.169 29.5756 310.361 27.7083L307.608 28.9L304.855 30.0917C305.98 32.6911 307.564 34.964 309.601 36.8834L311.658 34.7ZM307.608 28.9L310.361 27.7083C309.574 25.8904 309.158 23.8351 309.158 21.5H306.158H303.158C303.158 24.5649 303.708 27.4429 304.855 30.0917L307.608 28.9ZM306.158 21.5H309.158C309.158 19.1649 309.574 17.1096 310.361 15.2917L307.608 14.1L304.855 12.9083C303.708 15.5571 303.158 18.4351 303.158 21.5H306.158ZM307.608 14.1L310.361 15.2917C311.164 13.4371 312.288 11.8493 313.745 10.5028L311.708 8.3L309.671 6.09718C307.595 8.01734 305.985 10.2963 304.855 12.9083L307.608 14.1ZM311.708 8.3L313.745 10.5028C315.199 9.15795 316.931 8.1105 318.977 7.37166L317.958 4.55L316.939 1.72834C314.185 2.72283 311.75 4.17538 309.671 6.09718L311.708 8.3ZM317.958 4.55L318.999 7.36371C321.062 6.60057 323.372 6.2 325.958 6.2V3.2V0.199999C322.744 0.199999 319.721 0.699432 316.917 1.73629L317.958 4.55ZM325.958 3.2V6.2C329.087 6.2 331.755 6.72593 334.018 7.7039L335.208 4.95L336.398 2.19609C333.261 0.840738 329.762 0.199999 325.958 0.199999V3.2ZM335.208 4.95L334.03 7.70917C336.346 8.69754 338.193 10.0793 339.633 11.8458L341.958 9.95L344.283 8.05418C342.19 5.48741 339.537 3.53579 336.386 2.19083L335.208 4.95ZM341.958 9.95L339.975 7.69875L332.425 14.3487L334.408 16.6L336.391 18.8513L343.941 12.2013L341.958 9.95ZM334.408 16.6L336.673 14.6329C335.35 13.1098 333.838 11.8892 332.122 11.053L330.808 13.75L329.494 16.447C330.378 16.8775 331.266 17.5569 332.143 18.5671L334.408 16.6ZM330.808 13.75L332.205 11.0952C330.468 10.1809 328.565 9.75 326.558 9.75V12.75V15.75C327.685 15.75 328.615 15.9858 329.411 16.4048L330.808 13.75ZM326.558 12.75V9.75C324.948 9.75 323.402 9.9982 321.955 10.541L323.008 13.35L324.061 16.159C324.747 15.9018 325.568 15.75 326.558 15.75V12.75ZM323.008 13.35L321.925 10.5523C320.5 11.1039 319.241 11.9275 318.19 13.0263L320.358 15.1L322.526 17.1737C322.942 16.7392 323.449 16.3961 324.091 16.1477L323.008 13.35ZM320.358 15.1L318.19 13.0263C317.156 14.1074 316.381 15.3784 315.849 16.7966L318.658 17.85L321.467 18.9034C321.735 18.1883 322.093 17.626 322.526 17.1737L320.358 15.1ZM318.658 17.85L315.849 16.7966C315.3 18.2599 315.058 19.8435 315.058 21.5H318.058H321.058C321.058 20.4231 321.216 19.5734 321.467 18.9034L318.658 17.85ZM318.058 21.5H315.058C315.058 23.1112 315.307 24.6623 315.839 26.1252L318.658 25.1L321.477 24.0748C321.209 23.3377 321.058 22.4888 321.058 21.5H318.058ZM318.658 25.1L315.849 26.1534C316.381 27.5716 317.156 28.8426 318.19 29.9237L320.358 27.85L322.526 25.7763C322.093 25.324 321.735 24.7617 321.467 24.0466L318.658 25.1ZM320.358 27.85L318.19 29.9237C319.208 30.9874 320.408 31.8147 321.765 32.4027L322.958 29.65L324.151 26.8973C323.508 26.6186 322.975 26.246 322.526 25.7763L320.358 27.85ZM322.958 29.65L321.875 32.4477C323.3 32.9991 324.823 33.25 326.408 33.25V30.25V27.25C325.459 27.25 324.683 27.1009 324.041 26.8523L322.958 29.65ZM326.408 30.25V33.25C328.073 33.25 329.701 32.9783 331.279 32.4385L330.308 29.6L329.337 26.7615C328.382 27.0883 327.41 27.25 326.408 27.25V30.25ZM330.308 29.6L331.345 32.415C332.973 31.8154 334.587 30.8558 336.184 29.6299L334.358 27.25L332.532 24.8701C331.262 25.8442 330.177 26.4513 329.271 26.785L330.308 29.6ZM334.358 27.25L332.032 29.145L338.632 37.245L340.958 35.35L343.284 33.455L336.684 25.355L334.358 27.25ZM340.958 35.35L339.285 32.8599C337.442 34.0978 335.306 35.072 332.848 35.7615L333.658 38.65L334.468 41.5385C337.477 40.6947 340.207 39.4688 342.631 37.8401L340.958 35.35ZM333.658 38.65L332.848 35.7615C330.351 36.4619 327.974 36.8 325.708 36.8V39.8V42.8C328.576 42.8 331.499 42.3714 334.468 41.5385L333.658 38.65ZM330.708 33.85H333.708V20.55H330.708H327.708V33.85H330.708ZM330.708 20.55V23.55H340.958V20.55V17.55H330.708V20.55ZM340.958 20.55H337.958V35.35H340.958H343.958V20.55H340.958ZM340.958 35.35L341.392 32.3816L331.142 30.8816L330.708 33.85L330.274 36.8184L340.524 38.3184L340.958 35.35ZM356.436 38.45L355.382 41.259L355.395 41.2637L356.436 38.45ZM350.186 34.65L348.127 36.8322L348.138 36.8426L348.149 36.8528L350.186 34.65ZM346.036 28.8L343.283 29.9917L343.29 30.0089L343.298 30.026L346.036 28.8ZM346.036 14.2L343.298 12.974L343.293 12.9836L343.289 12.9932L346.036 14.2ZM350.186 8.4L352.222 10.6028L352.233 10.5926L352.244 10.5822L350.186 8.4ZM356.436 4.55L355.395 1.73626L355.382 1.74101L356.436 4.55ZM372.236 4.55L371.182 7.35899V7.35899L372.236 4.55ZM378.486 8.4L376.427 10.5822L376.438 10.5926L376.449 10.6028L378.486 8.4ZM382.586 14.2L379.833 15.3917L379.843 15.4166L379.855 15.4414L382.586 14.2ZM382.586 28.8L379.848 27.574L379.84 27.5911L379.833 27.6083L382.586 28.8ZM378.486 34.65L380.522 36.8528L380.533 36.8426L380.544 36.8322L378.486 34.65ZM372.236 38.45L371.182 35.641L372.236 38.45ZM367.386 29.65L366.239 26.8779L366.221 26.8851L366.204 26.8926L367.386 29.65ZM369.886 27.95L367.718 25.8763L367.716 25.8786L369.886 27.95ZM371.586 25.2L374.395 26.2534L374.4 26.2393L374.405 26.2252L371.586 25.2ZM371.586 17.85L368.766 18.8752L368.771 18.8893L368.777 18.9034L371.586 17.85ZM369.886 15.1L367.67 17.1228L367.716 17.1731L367.764 17.2213L369.886 15.1ZM367.386 13.35L366.204 16.1074L366.221 16.1149L366.239 16.1221L367.386 13.35ZM361.236 13.35L360.089 10.5779L360.071 10.5851L360.054 10.5926L361.236 13.35ZM358.736 15.1L356.568 13.0263L356.566 13.0286L358.736 15.1ZM357.086 17.85L359.895 18.9034L359.9 18.8893L359.905 18.8752L357.086 17.85ZM357.086 25.2L354.266 26.2252L354.271 26.2393L354.277 26.2534L357.086 25.2ZM358.736 27.95L356.52 29.9728L356.566 30.0231L356.614 30.0713L358.736 27.95ZM361.236 29.65L360.054 32.4074L360.071 32.4149L360.089 32.4221L361.236 29.65ZM364.336 39.8V36.8C361.825 36.8 359.547 36.4022 357.476 35.6363L356.436 38.45L355.395 41.2637C358.191 42.2978 361.18 42.8 364.336 42.8V39.8ZM356.436 38.45L357.489 35.641C355.429 34.8685 353.685 33.7998 352.222 32.4472L350.186 34.65L348.149 36.8528C350.219 38.7669 352.643 40.2315 355.382 41.259L356.436 38.45ZM350.186 34.65L352.244 32.4678C350.767 31.0742 349.614 29.4498 348.774 27.574L346.036 28.8L343.298 30.026C344.458 32.6169 346.071 34.8925 348.127 36.8322L350.186 34.65ZM346.036 28.8L348.789 27.6083C347.998 25.7812 347.586 23.7574 347.586 21.5H344.586H341.586C341.586 24.5092 342.14 27.3521 343.283 29.9917L346.036 28.8ZM344.586 21.5H347.586C347.586 19.203 348 17.1866 348.782 15.4068L346.036 14.2L343.289 12.9932C342.138 15.6134 341.586 18.4636 341.586 21.5H344.586ZM346.036 14.2L348.774 15.426C349.611 13.5558 350.758 11.9565 352.222 10.6028L350.186 8.4L348.149 6.19718C346.08 8.11021 344.46 10.3775 343.298 12.974L346.036 14.2ZM350.186 8.4L352.244 10.5822C353.705 9.20418 355.442 8.12683 357.489 7.35899L356.436 4.55L355.382 1.74101C352.63 2.77317 350.2 4.26249 348.127 6.21782L350.186 8.4ZM356.436 4.55L357.476 7.36371C359.547 6.59778 361.825 6.2 364.336 6.2V3.2V0.199999C361.18 0.199999 358.191 0.702213 355.395 1.73629L356.436 4.55ZM364.336 3.2V6.2C366.885 6.2 369.157 6.59936 371.182 7.35899L372.236 4.55L373.289 1.74101C370.515 0.700639 367.52 0.199999 364.336 0.199999V3.2ZM372.236 4.55L371.182 7.35899C373.23 8.12683 374.966 9.20418 376.427 10.5822L378.486 8.4L380.544 6.21782C378.472 4.26249 376.042 2.77317 373.289 1.74101L372.236 4.55ZM378.486 8.4L376.449 10.6028C377.906 11.9493 379.03 13.5371 379.833 15.3917L382.586 14.2L385.339 13.0083C384.208 10.3963 382.599 8.11734 380.522 6.19718L378.486 8.4ZM382.586 14.2L379.855 15.4414C380.66 17.2128 381.086 19.2169 381.086 21.5H384.086H387.086C387.086 18.4498 386.512 15.5872 385.317 12.9586L382.586 14.2ZM384.086 21.5H381.086C381.086 23.7434 380.662 25.755 379.848 27.574L382.586 28.8L385.324 30.026C386.509 27.3783 387.086 24.5232 387.086 21.5H384.086ZM382.586 28.8L379.833 27.6083C379.027 29.4685 377.897 31.0813 376.427 32.4678L378.486 34.65L380.544 36.8322C382.608 34.8854 384.211 32.5981 385.339 29.9917L382.586 28.8ZM378.486 34.65L376.449 32.4472C374.986 33.7998 373.243 34.8685 371.182 35.641L372.236 38.45L373.289 41.259C376.029 40.2315 378.452 38.7669 380.522 36.8528L378.486 34.65ZM372.236 38.45L371.182 35.641C369.157 36.4006 366.885 36.8 364.336 36.8V39.8V42.8C367.52 42.8 370.515 42.2994 373.289 41.259L372.236 38.45ZM364.336 30.25V33.25C365.808 33.25 367.231 32.9804 368.568 32.4074L367.386 29.65L366.204 26.8926C365.674 27.1196 365.064 27.25 364.336 27.25V30.25ZM367.386 29.65L368.533 32.4221C369.873 31.8675 371.058 31.0667 372.056 30.0214L369.886 27.95L367.716 25.8786C367.313 26.2999 366.832 26.6325 366.239 26.8779L367.386 29.65ZM369.886 27.95L372.054 30.0237C373.088 28.9426 373.863 27.6716 374.395 26.2534L371.586 25.2L368.777 24.1466C368.509 24.8617 368.15 25.424 367.718 25.8763L369.886 27.95ZM371.586 25.2L374.405 26.2252C374.943 24.7466 375.186 23.1589 375.186 21.5H372.186H369.186C369.186 22.5745 369.029 23.4534 368.766 24.1748L371.586 25.2ZM372.186 21.5H375.186C375.186 19.8435 374.943 18.2599 374.395 16.7966L371.586 17.85L368.777 18.9034C369.028 19.5734 369.186 20.4231 369.186 21.5H372.186ZM371.586 17.85L374.405 16.8248C373.875 15.366 373.088 14.0596 372.007 12.9787L369.886 15.1L367.764 17.2213C368.15 17.607 368.497 18.134 368.766 18.8752L371.586 17.85ZM369.886 15.1L372.101 13.0772C371.102 11.9828 369.903 11.1449 368.533 10.5779L367.386 13.35L366.239 16.1221C366.802 16.3551 367.27 16.6838 367.67 17.1228L369.886 15.1ZM367.386 13.35L368.568 10.5926C367.231 10.0196 365.808 9.75 364.336 9.75V12.75V15.75C365.064 15.75 365.674 15.8804 366.204 16.1074L367.386 13.35ZM364.336 12.75V9.75C362.863 9.75 361.438 10.0198 360.089 10.5779L361.236 13.35L362.383 16.122C362.967 15.8802 363.609 15.75 364.336 15.75V12.75ZM361.236 13.35L360.054 10.5926C358.733 11.1589 357.568 11.981 356.568 13.0263L358.736 15.1L360.904 17.1737C361.37 16.6857 361.872 16.3411 362.418 16.1074L361.236 13.35ZM358.736 15.1L356.566 13.0286C355.538 14.1049 354.786 15.3947 354.266 16.8248L357.086 17.85L359.905 18.8752C360.185 18.1053 360.533 17.5618 360.906 17.1714L358.736 15.1ZM357.086 17.85L354.277 16.7966C353.728 18.2599 353.486 19.8435 353.486 21.5H356.486H359.486C359.486 20.4231 359.643 19.5734 359.895 18.9034L357.086 17.85ZM356.486 21.5H353.486C353.486 23.1589 353.729 24.7466 354.266 26.2252L357.086 25.2L359.905 24.1748C359.643 23.4534 359.486 22.5745 359.486 21.5H356.486ZM357.086 25.2L354.277 26.2534C354.798 27.6431 355.538 28.8975 356.52 29.9728L358.736 27.95L360.951 25.9272C360.533 25.4692 360.174 24.8902 359.895 24.1466L357.086 25.2ZM358.736 27.95L356.614 30.0713C357.612 31.0686 358.762 31.8538 360.054 32.4074L361.236 29.65L362.418 26.8926C361.843 26.6461 361.326 26.298 360.857 25.8287L358.736 27.95ZM361.236 29.65L360.089 32.4221C361.438 32.9802 362.863 33.25 364.336 33.25V30.25V27.25C363.609 27.25 362.967 27.1198 362.383 26.8779L361.236 29.65ZM388.369 39H385.369V42H388.369V39ZM388.369 4V0.999998H385.369V4H388.369ZM413.669 5.6L412.436 8.33504L412.443 8.33825L412.45 8.34143L413.669 5.6ZM419.219 10.2L416.703 11.835L416.71 11.8447L416.716 11.8543L419.219 10.2ZM419.219 24.2L421.708 25.874L421.715 25.8642L421.721 25.8543L419.219 24.2ZM413.669 28.65L412.482 25.8945L412.475 25.8976L412.468 25.9006L413.669 28.65ZM394.919 30.2L392.883 27.9964L387.25 33.2H394.919V30.2ZM400.169 25.35H403.169V18.4944L398.133 23.1464L400.169 25.35ZM400.169 39V42H403.169V39H400.169ZM409.319 39L406.831 40.6776L407.723 42H409.319V39ZM400.719 26.25V23.25H395.076L398.231 27.9276L400.719 26.25ZM413.219 26.25L415.697 24.5591L414.803 23.25H413.219V26.25ZM421.919 39V42H427.597L424.397 37.3091L421.919 39ZM400.169 26.65L398.027 28.7512L403.169 33.9904V26.65H400.169ZM394.919 21.3V18.3H387.771L392.777 23.4012L394.919 21.3ZM408.069 20.2L406.041 17.9885L406.018 18.0101L405.995 18.0321L408.069 20.2ZM408.069 14.2L405.995 16.3679L406.018 16.3899L406.041 16.4115L408.069 14.2ZM394.919 13.1L392.777 10.9988L387.771 16.1H394.919V13.1ZM400.169 7.75H403.169V0.40962L398.027 5.64879L400.169 7.75ZM388.369 39H391.369V4H388.369H385.369V39H388.369ZM388.369 4V7H405.219V4V0.999998H388.369V4ZM405.219 4V7C408.167 7 410.543 7.48198 412.436 8.33504L413.669 5.6L414.901 2.86495C412.061 1.58468 408.804 0.999998 405.219 0.999998V4ZM413.669 5.6L412.45 8.34143C414.376 9.19717 415.751 10.3701 416.703 11.835L419.219 10.2L421.734 8.56503C420.086 6.02991 417.762 4.13616 414.887 2.85856L413.669 5.6ZM419.219 10.2L416.716 11.8543C417.646 13.2617 418.169 15.0004 418.169 17.2H421.169H424.169C424.169 13.9996 423.391 11.0716 421.721 8.5457L419.219 10.2ZM421.169 17.2H418.169C418.169 19.3996 417.646 21.1383 416.716 22.5457L419.219 24.2L421.721 25.8543C423.391 23.3284 424.169 20.4004 424.169 17.2H421.169ZM419.219 24.2L416.729 22.526C415.789 23.9245 414.419 25.0605 412.482 25.8945L413.669 28.65L414.855 31.4055C417.718 30.1728 420.048 28.3421 421.708 25.874L419.219 24.2ZM413.669 28.65L412.468 25.9006C410.566 26.7311 408.178 27.2 405.219 27.2V30.2V33.2C408.793 33.2 412.038 32.6356 414.869 31.3994L413.669 28.65ZM405.219 30.2V27.2H394.919V30.2V33.2H405.219V30.2ZM394.919 30.2L396.954 32.4036L402.204 27.5536L400.169 25.35L398.133 23.1464L392.883 27.9964L394.919 30.2ZM400.169 25.35H397.169V39H400.169H403.169V25.35H400.169ZM400.169 39V36H388.369V39V42H400.169V39ZM409.319 39L411.806 37.3224L403.206 24.5724L400.719 26.25L398.231 27.9276L406.831 40.6776L409.319 39ZM400.719 26.25V29.25H413.219V26.25V23.25H400.719V26.25ZM413.219 26.25L410.74 27.9409L419.44 40.6909L421.919 39L424.397 37.3091L415.697 24.5591L413.219 26.25ZM421.919 39V36H409.319V39V42H421.919V39ZM400.169 26.65L402.31 24.5488L397.06 19.1988L394.919 21.3L392.777 23.4012L398.027 28.7512L400.169 26.65ZM394.919 21.3V24.3H404.469V21.3V18.3H394.919V21.3ZM404.469 21.3V24.3C406.47 24.3 408.581 23.8615 410.142 22.3679L408.069 20.2L405.995 18.0321C406.023 18.0052 405.734 18.3 404.469 18.3V21.3ZM408.069 20.2L410.096 22.4115C411.621 21.0136 412.269 19.1537 412.269 17.2H409.269H406.269C406.269 17.7797 406.116 17.9197 406.041 17.9885L408.069 20.2ZM409.269 17.2H412.269C412.269 15.2463 411.621 13.3864 410.096 11.9885L408.069 14.2L406.041 16.4115C406.116 16.4803 406.269 16.6203 406.269 17.2H409.269ZM408.069 14.2L410.142 12.0321C408.581 10.5385 406.47 10.1 404.469 10.1V13.1V16.1C405.734 16.1 406.023 16.3948 405.995 16.3679L408.069 14.2ZM404.469 13.1V10.1H394.919V13.1V16.1H404.469V13.1ZM394.919 13.1L397.06 15.2012L402.31 9.85122L400.169 7.75L398.027 5.64879L392.777 10.9988L394.919 13.1ZM400.169 7.75H397.169V26.65H400.169H403.169V7.75H400.169ZM434.136 39H431.136V42H434.136V39ZM434.136 23.65L436.938 22.5771L431.136 23.65H434.136ZM436.836 30.7L434.259 32.235L439.638 29.6271L436.836 30.7ZM420.936 4V0.999998H415.658L418.359 5.53496L420.936 4ZM433.386 4L435.971 2.47739L435.101 0.999998H433.386V4ZM444.136 22.25V25.25H449.385L446.721 20.7274L444.136 22.25ZM436.886 22.25L434.307 20.7169L431.612 25.25H436.886V22.25ZM447.736 4V0.999998H446.03L445.157 2.46691L447.736 4ZM459.136 4L461.718 5.52781L464.397 0.999998H459.136V4ZM443.336 30.7L440.521 29.662L445.918 32.2278L443.336 30.7ZM445.936 23.65H448.936L443.121 22.612L445.936 23.65ZM445.936 39V42H448.936V39H445.936ZM434.136 39H437.136V23.65H434.136H431.136V39H434.136ZM434.136 23.65L431.335 24.7229L434.035 31.7729L436.836 30.7L439.638 29.6271L436.938 22.5771L434.136 23.65ZM436.836 30.7L439.414 29.165L423.514 2.46504L420.936 4L418.359 5.53496L434.259 32.235L436.836 30.7ZM420.936 4V7H433.386V4V0.999998H420.936V4ZM433.386 4L430.801 5.5226L441.551 23.7726L444.136 22.25L446.721 20.7274L435.971 2.47739L433.386 4ZM444.136 22.25V19.25H436.886V22.25V25.25H444.136V22.25ZM436.886 22.25L439.465 23.7831L450.315 5.53308L447.736 4L445.157 2.46691L434.307 20.7169L436.886 22.25ZM447.736 4V7H459.136V4V0.999998H447.736V4ZM459.136 4L456.554 2.47218L440.754 29.1722L443.336 30.7L445.918 32.2278L461.718 5.52781L459.136 4ZM443.336 30.7L446.151 31.738L448.751 24.688L445.936 23.65L443.121 22.612L440.521 29.662L443.336 30.7ZM445.936 23.65H442.936V39H445.936H448.936V23.65H445.936ZM445.936 39V36H434.136V39V42H445.936V39Z" fill="url(#paint0_linear_501_8656)" mask="url(#path-1-outside-1_501_8656)"/>
<defs>
<linearGradient id="paint0_linear_501_8656" x1="229" y1="-9" x2="229" y2="52" gradientUnits="userSpaceOnUse">
<stop stop-color="#E51D25"/>
<stop offset="1" stop-color="#1D3A69"/>
</linearGradient>
</defs>
</svg>
