<svg width="56" height="39" viewBox="0 0 56 39" fill="none" xmlns="http://www.w3.org/2000/svg">
<path d="M54.2812 12.0784H1.71875V37.4534H54.2812V12.0784Z" fill="#1D3A69"/>
<path d="M54.2812 12.0784H1.71875V1.20337H48.8437V6.64087H54.2812V12.0784Z" fill="#1D3A69"/>
<path d="M48.8437 32.9221H7.15625V34.7346H48.8437V32.9221Z" fill="#1D3A69"/>
<path d="M6.25 3.92212H4.4375V5.73462H6.25V3.92212Z" fill="#1D3A69"/>
<path d="M6.25 7.54712H4.4375V9.35962H6.25V7.54712Z" fill="#1D3A69"/>
<path d="M15.3125 30.2034H8.0625C7.82215 30.2034 7.59164 30.1079 7.42168 29.9379C7.25173 29.768 7.15625 29.5375 7.15625 29.2971V16.6096C7.15625 16.3693 7.25173 16.1388 7.42168 15.9688C7.59164 15.7988 7.82215 15.7034 8.0625 15.7034H15.3125C15.5529 15.7034 15.7834 15.7988 15.9533 15.9688C16.1233 16.1388 16.2187 16.3693 16.2187 16.6096V29.2971C16.2187 29.5375 16.1233 29.768 15.9533 29.9379C15.7834 30.1079 15.5529 30.2034 15.3125 30.2034ZM8.96875 28.3909H14.4062V17.5159H8.96875V28.3909ZM26.1875 30.2034H18.9375C18.6971 30.2034 18.4666 30.1079 18.2967 29.9379C18.1267 29.768 18.0312 29.5375 18.0312 29.2971V16.6096C18.0312 16.3693 18.1267 16.1388 18.2967 15.9688C18.4666 15.7988 18.6971 15.7034 18.9375 15.7034H26.1875C26.4279 15.7034 26.6584 15.7988 26.8283 15.9688C26.9983 16.1388 27.0937 16.3693 27.0937 16.6096V29.2971C27.0937 29.5375 26.9983 29.768 26.8283 29.9379C26.6584 30.1079 26.4279 30.2034 26.1875 30.2034ZM19.8437 28.3909H25.2812V17.5159H19.8437V28.3909ZM37.0625 30.2034H29.8125C29.5721 30.2034 29.3416 30.1079 29.1717 29.9379C29.0017 29.768 28.9062 29.5375 28.9062 29.2971V16.6096C28.9062 16.3693 29.0017 16.1388 29.1717 15.9688C29.3416 15.7988 29.5721 15.7034 29.8125 15.7034H37.0625C37.3029 15.7034 37.5334 15.7988 37.7033 15.9688C37.8733 16.1388 37.9687 16.3693 37.9687 16.6096V29.2971C37.9687 29.5375 37.8733 29.768 37.7033 29.9379C37.5334 30.1079 37.3029 30.2034 37.0625 30.2034ZM30.7187 28.3909H36.1562V17.5159H30.7187V28.3909ZM45.2187 28.3909V16.6096C45.2187 16.3693 45.1233 16.1388 44.9533 15.9688C44.7834 15.7988 44.5528 15.7034 44.3125 15.7034H39.7812V17.5159H43.4062V28.3909H39.7812V30.2034H48.8437V28.3909H45.2187Z" fill="#1D3A69"/>
<path d="M45.2187 4.82837H8.96875V8.45337H45.2187V4.82837Z" fill="#1D3A69"/>
<path d="M48.8438 1.20337L54.2812 6.64087H48.8438V1.20337Z" fill="#1D3A69"/>
<path d="M54.922 6.00015L49.4845 0.562651C49.3146 0.392684 49.0841 0.29717 48.8438 0.297119H1.71875C1.4784 0.297119 1.24789 0.392599 1.07793 0.562554C0.90798 0.732509 0.8125 0.963017 0.8125 1.20337V37.4534C0.8125 37.6937 0.90798 37.9242 1.07793 38.0942C1.24789 38.2641 1.4784 38.3596 1.71875 38.3596H54.2812C54.5216 38.3596 54.7521 38.2641 54.9221 38.0942C55.092 37.9242 55.1875 37.6937 55.1875 37.4534V6.64087C55.1875 6.40054 55.0919 6.17006 54.922 6.00015ZM49.75 3.39106L52.0936 5.73462H49.75V3.39106ZM2.625 2.10962H47.9375V6.64087C47.9375 6.88122 48.033 7.11173 48.2029 7.28169C48.3729 7.45164 48.6034 7.54712 48.8438 7.54712H53.375V11.1721H2.625V2.10962ZM53.375 36.5471H2.625V12.9846H53.375V36.5471Z" fill="white"/>
<path d="M48.8437 32.9221H7.15625V34.7346H48.8437V32.9221Z" fill="white"/>
<path d="M6.25 3.92212H4.4375V5.73462H6.25V3.92212Z" fill="white"/>
<path d="M6.25 7.54712H4.4375V9.35962H6.25V7.54712Z" fill="white"/>
<path d="M8.0625 30.2034H15.3125C15.5529 30.2034 15.7834 30.1079 15.9533 29.9379C16.1233 29.768 16.2187 29.5375 16.2187 29.2971V16.6096C16.2187 16.3693 16.1233 16.1388 15.9533 15.9688C15.7834 15.7988 15.5529 15.7034 15.3125 15.7034H8.0625C7.82215 15.7034 7.59164 15.7988 7.42168 15.9688C7.25173 16.1388 7.15625 16.3693 7.15625 16.6096V29.2971C7.15625 29.5375 7.25173 29.768 7.42168 29.9379C7.59164 30.1079 7.82215 30.2034 8.0625 30.2034ZM8.96875 17.5159H14.4062V28.3909H8.96875V17.5159ZM18.9375 30.2034H26.1875C26.4279 30.2034 26.6584 30.1079 26.8283 29.9379C26.9983 29.768 27.0937 29.5375 27.0937 29.2971V16.6096C27.0937 16.3693 26.9983 16.1388 26.8283 15.9688C26.6584 15.7988 26.4279 15.7034 26.1875 15.7034H18.9375C18.6971 15.7034 18.4666 15.7988 18.2967 15.9688C18.1267 16.1388 18.0312 16.3693 18.0312 16.6096V29.2971C18.0312 29.5375 18.1267 29.768 18.2967 29.9379C18.4666 30.1079 18.6971 30.2034 18.9375 30.2034ZM19.8437 17.5159H25.2812V28.3909H19.8437V17.5159ZM29.8125 30.2034H37.0625C37.3029 30.2034 37.5334 30.1079 37.7033 29.9379C37.8733 29.768 37.9687 29.5375 37.9687 29.2971V16.6096C37.9687 16.3693 37.8733 16.1388 37.7033 15.9688C37.5334 15.7988 37.3029 15.7034 37.0625 15.7034H29.8125C29.5721 15.7034 29.3416 15.7988 29.1717 15.9688C29.0017 16.1388 28.9062 16.3693 28.9062 16.6096V29.2971C28.9062 29.5375 29.0017 29.768 29.1717 29.9379C29.3416 30.1079 29.5721 30.2034 29.8125 30.2034ZM30.7187 17.5159H36.1562V28.3909H30.7187V17.5159ZM48.8437 28.3909H45.2187V16.6096C45.2187 16.3693 45.1233 16.1388 44.9533 15.9688C44.7834 15.7988 44.5528 15.7034 44.3125 15.7034H39.7812V17.5159H43.4062V28.3909H39.7812V30.2034H48.8437V28.3909ZM8.0625 9.35962H46.125V3.92212H8.0625V9.35962ZM9.875 5.73462H44.3125V7.54712H9.875V5.73462Z" fill="white"/>
</svg>
