<svg width="58" height="58" viewBox="0 0 58 58" fill="none" xmlns="http://www.w3.org/2000/svg">
<path fill-rule="evenodd" clip-rule="evenodd" d="M3.87878 8.0165V26.0191C3.87878 27.6832 5.23189 29.0369 6.89558 29.0369H9.81111C10.2733 29.0369 10.6482 29.4115 10.6482 29.8743V36.5471L17.62 29.2932C17.7779 29.1289 17.9958 29.0369 18.2239 29.0369H19.7113V25.2739C19.7113 22.6728 21.8269 20.5574 24.4273 20.5574H36.394V8.0165C36.394 6.35311 35.0404 5 33.3772 5H6.89558C5.23189 5.0001 3.87878 6.35311 3.87878 8.0165ZM24.4272 22.232H51.0792C52.7572 22.232 54.1211 23.596 54.1211 25.2738V43.3926C54.1211 45.0694 52.7572 46.4332 51.0792 46.4332H48.1454C47.6827 46.4332 47.3079 46.8081 47.3079 47.2706V54L40.2828 46.6907C40.1243 46.5264 39.9066 46.4331 39.6784 46.4331H24.4272C22.7502 46.4331 21.3863 45.0694 21.3863 43.3925V25.2738C21.3862 23.5959 22.7502 22.232 24.4272 22.232ZM29.5732 28.3648H45.9335C46.3961 28.3648 46.771 28.7396 46.771 29.2022C46.771 29.6647 46.3962 30.0395 45.9335 30.0395H29.5732C29.1105 30.0395 28.7357 29.6647 28.7357 29.2022C28.7358 28.7396 29.1105 28.3648 29.5732 28.3648ZM29.5732 33.4958H45.9335C46.3961 33.4958 46.771 33.8706 46.771 34.3332C46.771 34.7948 46.3962 35.1705 45.9335 35.1705H29.5732C29.1105 35.1705 28.7357 34.7947 28.7357 34.3332C28.7358 33.8705 29.1105 33.4958 29.5732 33.4958ZM29.5732 38.6259C29.1105 38.6259 28.7357 39.0005 28.7357 39.4632C28.7357 39.9258 29.1105 40.3005 29.5732 40.3005H45.9335C46.3961 40.3005 46.771 39.9257 46.771 39.4632C46.771 39.0004 46.3962 38.6259 45.9335 38.6259H29.5732ZM14.9947 25.0027C14.9947 25.7565 14.3789 26.3718 13.6243 26.3718C12.8702 26.3718 12.2544 25.7565 12.2544 25.0027C12.2544 24.2479 12.8702 23.6325 13.6243 23.6325C14.3789 23.6326 14.9947 24.248 14.9947 25.0027ZM18.9774 13.4678C18.9774 15.5309 17.77 17.4328 15.9019 18.313C15.0002 18.7371 14.462 19.5848 14.462 20.5814V21.4868C14.462 21.9484 14.0871 22.3242 13.6244 22.3242C13.1622 22.3242 12.7874 21.9484 12.7874 21.4868V20.5814C12.7874 18.9192 13.6852 17.505 15.1888 16.7975C16.4727 16.1927 17.3024 14.8864 17.3024 13.4679C17.3024 11.4394 15.6526 9.7897 13.6244 9.7897C11.5968 9.7897 9.94692 11.4394 9.94692 13.4679C9.94692 13.9295 9.57216 14.3052 9.10938 14.3052C8.64719 14.3052 8.27234 13.9295 8.27234 13.4679C8.27234 10.5162 10.6734 8.11502 13.6244 8.11502C16.5759 8.11493 18.9774 10.5162 18.9774 13.4678ZM24.2266 15.9475C24.2266 15.4849 24.6014 15.1102 25.0642 15.1102H31.4073C31.8694 15.1102 32.2448 15.485 32.2448 15.9475C32.2448 16.4103 31.8694 16.7849 31.4073 16.7849H25.0642C24.6015 16.7849 24.2266 16.4103 24.2266 15.9475ZM24.2266 10.8176C24.2266 10.3548 24.6014 9.98027 25.0642 9.98027H31.4073C31.8694 9.98027 32.2448 10.3548 32.2448 10.8176C32.2448 11.2792 31.8694 11.6549 31.4073 11.6549H25.0642C24.6015 11.6549 24.2266 11.2792 24.2266 10.8176Z" fill="#1D3A69"/>
</svg>
