<svg width="58" height="58" viewBox="0 0 58 58" fill="none" xmlns="http://www.w3.org/2000/svg">
<path d="M29.5 7C17.0709 7 7 17.0709 7 29.5C7 41.9291 17.0709 52 29.5 52C41.9291 52 52 41.9291 52 29.5C52 17.0709 41.9291 7 29.5 7ZM29.0132 18.25C30.2139 18.25 31.1767 19.2236 31.1767 20.4135C31.1767 21.6034 30.2031 22.5769 29.0132 22.5769C27.8233 22.5769 26.8498 21.6034 26.8498 20.4135C26.8498 19.2236 27.8125 18.25 29.0132 18.25ZM32.9615 39.8846H26.0385V39.0192H27.7692V26.0385H26.0385V25.1731H31.2308V39.0192H32.9615V39.8846Z" fill="#1D3A69"/>
</svg>
