<svg width="58" height="59" viewBox="0 0 58 59" fill="none" xmlns="http://www.w3.org/2000/svg">
<path d="M44.9238 53.8784H41.9209C41.7216 53.8784 41.5306 53.7993 41.3897 53.6584C41.2488 53.5175 41.1696 53.3264 41.1696 53.1272C41.1696 52.9279 41.2488 52.7368 41.3897 52.5959C41.5306 52.455 41.7216 52.3759 41.9209 52.3759H44.9238C45.123 52.3759 45.3141 52.455 45.455 52.5959C45.5959 52.7368 45.675 52.9279 45.675 53.1272C45.675 53.3264 45.5959 53.5175 45.455 53.6584C45.3141 53.7993 45.123 53.8784 44.9238 53.8784ZM38.9169 53.8784H35.913C35.7137 53.8784 35.5226 53.7993 35.3817 53.6584C35.2408 53.5175 35.1617 53.3264 35.1617 53.1272C35.1617 52.9279 35.2408 52.7368 35.3817 52.5959C35.5226 52.455 35.7137 52.3759 35.913 52.3759H38.9169C39.1162 52.3759 39.3073 52.455 39.4481 52.5959C39.589 52.7368 39.6682 52.9279 39.6682 53.1272C39.6682 53.3264 39.589 53.5175 39.4481 53.6584C39.3073 53.7993 39.1162 53.8784 38.9169 53.8784ZM32.909 53.8784H29.9061C29.7069 53.8784 29.5158 53.7993 29.3749 53.6584C29.234 53.5175 29.1549 53.3264 29.1549 53.1272C29.1549 52.9279 29.234 52.7368 29.3749 52.5959C29.5158 52.455 29.7069 52.3759 29.9061 52.3759H32.9101C33.1093 52.3759 33.3004 52.455 33.4413 52.5959C33.5822 52.7368 33.6614 52.9279 33.6614 53.1272C33.6614 53.3264 33.5822 53.5175 33.4413 53.6584C33.3004 53.7993 33.1082 53.8784 32.909 53.8784ZM26.9033 53.8784H25.0144C24.5811 53.8786 24.1494 53.8264 23.7286 53.723C23.5427 53.6682 23.3851 53.5436 23.2888 53.3754C23.1925 53.2071 23.165 53.0082 23.2118 52.8201C23.2587 52.632 23.3764 52.4693 23.5404 52.3659C23.7044 52.2626 23.902 52.2265 24.0919 52.2654C24.3852 52.3387 24.696 52.3748 25.0155 52.3759H26.9033C27.1025 52.3759 27.2936 52.455 27.4345 52.5959C27.5754 52.7368 27.6545 52.9279 27.6545 53.1272C27.6545 53.3264 27.5754 53.5175 27.4345 53.6584C27.2936 53.7993 27.1025 53.8784 26.9033 53.8784ZM21.4731 52.099C21.3551 52.0994 21.2386 52.0718 21.1333 52.0186C21.0279 51.9653 20.9366 51.8879 20.8669 51.7926C20.2103 50.8953 19.8491 49.7944 19.8491 48.6924L19.8535 48.5008C19.8556 48.4018 19.8776 48.3041 19.9183 48.2138C19.959 48.1234 20.0176 48.0422 20.0904 47.9751C20.1633 47.9079 20.249 47.8562 20.3424 47.823C20.4358 47.7898 20.5349 47.7758 20.6338 47.7819C20.7323 47.7858 20.8291 47.8091 20.9186 47.8505C21.0081 47.8918 21.0886 47.9504 21.1554 48.0228C21.2223 48.0953 21.2742 48.1802 21.3083 48.2728C21.3423 48.3653 21.3578 48.4636 21.3539 48.5621L21.3517 48.6934C21.3517 49.4781 21.6088 50.2638 22.0783 50.904C22.1604 51.0159 22.21 51.1483 22.2214 51.2866C22.2328 51.4249 22.2056 51.5637 22.1429 51.6875C22.0802 51.8113 21.9845 51.9153 21.8662 51.9879C21.748 52.0606 21.6119 52.099 21.4731 52.099ZM21.7128 46.5573C21.5682 46.5574 21.4267 46.5159 21.3052 46.4375C21.1837 46.3592 21.0874 46.2474 21.0279 46.1156C20.9684 45.9839 20.9481 45.8378 20.9697 45.6948C20.9912 45.5518 21.0535 45.4181 21.1492 45.3097L23.2722 43.1287C23.4141 42.9992 23.6002 42.9289 23.7923 42.9323C23.9845 42.9357 24.168 43.0125 24.3052 43.1469C24.4425 43.2814 24.523 43.4633 24.5304 43.6553C24.5377 43.8472 24.4713 44.0348 24.3447 44.1793L22.2764 46.3023C22.206 46.3825 22.1193 46.4467 22.0221 46.4907C21.9249 46.5346 21.8195 46.5573 21.7128 46.5573ZM25.9074 42.2565C25.7594 42.257 25.6145 42.2137 25.4911 42.132C25.3677 42.0503 25.2712 41.9338 25.2138 41.7973C25.1565 41.6609 25.1408 41.5105 25.1688 41.3651C25.1968 41.2198 25.2672 41.0859 25.3712 40.9805L27.4701 38.8324C27.612 38.7028 27.7981 38.6325 27.9902 38.6359C28.1823 38.6393 28.3659 38.7161 28.5031 38.8505C28.6404 38.985 28.7209 39.1669 28.7283 39.3589C28.7356 39.5509 28.6692 39.7384 28.5426 39.8829L26.4436 42.0311C26.3739 42.1026 26.2905 42.1594 26.1984 42.1981C26.1063 42.2369 26.0073 42.2567 25.9074 42.2565ZM30.1053 37.9602C29.9576 37.9599 29.8133 37.9161 29.6904 37.8342C29.5675 37.7524 29.4713 37.6362 29.414 37.5001C29.3567 37.364 29.3408 37.2141 29.3681 37.069C29.3955 36.9239 29.465 36.79 29.568 36.6842L31.6658 34.536C31.8067 34.4009 31.9946 34.3258 32.1898 34.3267C32.385 34.3277 32.5722 34.4045 32.7118 34.5409C32.8514 34.6774 32.9324 34.8628 32.9378 35.0579C32.9431 35.2531 32.8724 35.4426 32.7405 35.5865L30.6426 37.7347C30.5726 37.8062 30.489 37.863 30.3967 37.9017C30.3044 37.9404 30.2054 37.9603 30.1053 37.9602ZM34.3032 33.6627C34.1554 33.663 34.0108 33.6196 33.8876 33.5379C33.7644 33.4562 33.6681 33.34 33.6108 33.2037C33.5535 33.0675 33.5377 32.9173 33.5655 32.7721C33.5933 32.627 33.6634 32.4932 33.767 32.3878L35.8276 30.267C35.8915 30.1904 35.97 30.1274 36.0586 30.0815C36.1471 30.0356 36.2439 30.0079 36.3433 29.9998C36.4427 29.9918 36.5427 30.0036 36.6375 30.0347C36.7323 30.0657 36.8199 30.1153 36.8953 30.1806C36.9707 30.2459 37.0323 30.3255 37.0766 30.4149C37.1208 30.5042 37.1469 30.6015 37.1531 30.7011C37.1594 30.8006 37.1457 30.9004 37.113 30.9946C37.0802 31.0887 37.0291 31.1755 36.9624 31.2497C36.8914 31.332 36.8181 31.4123 36.7425 31.4904L34.8394 33.4373C34.7696 33.5088 34.6862 33.5656 34.5941 33.6043C34.502 33.643 34.4031 33.6629 34.3032 33.6627ZM37.4647 28.0159L36.7129 27.9995C36.7242 27.1589 36.458 26.3381 35.9556 25.6642C35.8927 25.5859 35.8462 25.4957 35.8188 25.3991C35.7914 25.3025 35.7836 25.2013 35.796 25.1017C35.8083 25.002 35.8406 24.9058 35.8908 24.8188C35.941 24.7318 36.0081 24.6558 36.0883 24.5952C36.1684 24.5347 36.2598 24.4908 36.3572 24.4662C36.4546 24.4416 36.5559 24.4368 36.6552 24.4521C36.7545 24.4674 36.8497 24.5025 36.9351 24.5552C37.0206 24.6079 37.0947 24.6773 37.1528 24.7591C37.8401 25.6674 38.2165 26.7913 38.2155 27.9218L37.4647 28.0159ZM34.092 24.3542C34.0345 24.3545 33.9772 24.3479 33.9213 24.3345C33.6363 24.269 33.3448 24.2359 33.0524 24.2361H31.0968C30.8977 24.2361 30.7067 24.157 30.5659 24.0162C30.4251 23.8754 30.3461 23.6844 30.3461 23.4853C30.3461 23.2862 30.4251 23.0953 30.5659 22.9545C30.7067 22.8137 30.8977 22.7346 31.0968 22.7346H33.0524C33.4638 22.7346 33.8698 22.7817 34.2616 22.8725C34.4409 22.9144 34.5985 23.0207 34.7045 23.1712C34.8105 23.3218 34.8575 23.506 34.8366 23.6889C34.8157 23.8718 34.7282 24.0407 34.591 24.1633C34.4537 24.286 34.2761 24.3539 34.092 24.3542ZM28.0939 24.2371H25.0899C24.8907 24.2371 24.6996 24.158 24.5587 24.0171C24.4178 23.8762 24.3387 23.6851 24.3387 23.4859C24.3387 23.2866 24.4178 23.0956 24.5587 22.9547C24.6996 22.8138 24.8907 22.7346 25.0899 22.7346H28.0939C28.2932 22.7346 28.4842 22.8138 28.6251 22.9547C28.766 23.0956 28.8452 23.2866 28.8452 23.4859C28.8452 23.6851 28.766 23.8762 28.6251 24.0171C28.4842 24.158 28.2932 24.2371 28.0939 24.2371ZM22.086 24.2371H19.0831C18.8839 24.2371 18.6928 24.158 18.5519 24.0171C18.411 23.8762 18.3318 23.6851 18.3318 23.4859C18.3318 23.2866 18.411 23.0956 18.5519 22.9547C18.6928 22.8138 18.8839 22.7346 19.0831 22.7346H22.0871C22.2863 22.7346 22.4774 22.8138 22.6183 22.9547C22.7592 23.0956 22.8383 23.2866 22.8383 23.4859C22.8383 23.6851 22.7592 23.8762 22.6183 24.0171C22.4774 24.158 22.2863 24.2371 22.0871 24.2371H22.086ZM16.0791 24.2371H13.0774C12.8781 24.2371 12.687 24.158 12.5462 24.0171C12.4053 23.8762 12.3261 23.6851 12.3261 23.4859C12.3261 23.2866 12.4053 23.0956 12.5462 22.9547C12.687 22.8138 12.8781 22.7346 13.0774 22.7346H16.0802C16.2795 22.7346 16.4706 22.8138 16.6115 22.9547C16.7524 23.0956 16.8315 23.2866 16.8315 23.4859C16.8315 23.6851 16.7524 23.8762 16.6115 24.0171C16.4706 24.158 16.2795 24.2371 16.0802 24.2371H16.0791Z" fill="#1D3A69"/>
<path d="M12.9504 3.39209C8.18018 3.39209 4.30731 7.25073 4.30731 12.021C4.30731 15.687 9.41569 22.3362 11.7773 25.2143C11.919 25.3884 12.0977 25.5287 12.3004 25.6251C12.5032 25.7215 12.7248 25.7715 12.9493 25.7715C13.1738 25.7715 13.3954 25.7215 13.5982 25.6251C13.8009 25.5287 13.9796 25.3884 14.1214 25.2143C16.4797 22.3351 21.5793 15.687 21.5793 12.021C21.58 10.8876 21.3573 9.76521 20.9239 8.71798C20.4905 7.67076 19.8549 6.71923 19.0535 5.91782C18.2521 5.11642 17.3006 4.48085 16.2534 4.04746C15.2062 3.61407 14.0838 3.39137 12.9504 3.39209Z" fill="#1D3A69"/>
<path d="M12.9504 16.8341C12.3183 16.8343 11.6924 16.7099 11.1084 16.4681C10.5244 16.2262 9.99381 15.8717 9.54686 15.4248C9.09991 14.9778 8.7454 14.4472 8.50358 13.8632C8.26176 13.2792 8.13737 12.6533 8.13751 12.0212C8.13903 11.0715 8.42194 10.1435 8.95053 9.35445C9.47912 8.56541 10.2297 7.95069 11.1074 7.58795C11.9851 7.2252 12.9507 7.13069 13.8821 7.31634C14.8135 7.502 15.669 7.95949 16.3406 8.63106C17.0121 9.30262 17.4696 10.1581 17.6553 11.0895C17.8409 12.021 17.7464 12.9865 17.3837 13.8642C17.0209 14.742 16.4062 15.4925 15.6172 16.0211C14.8281 16.5497 13.9002 16.8326 12.9504 16.8341Z" fill="white"/>
<path d="M12.9504 3.39209C12.8486 3.39209 12.7337 3.39209 12.6331 3.40632C14.8614 3.49067 16.9704 4.43518 18.5171 6.04151C20.0639 7.64783 20.928 9.79101 20.9281 12.021C20.9281 15.6925 15.8263 22.3406 13.4702 25.2176C13.2393 25.4912 12.9504 25.6663 12.632 25.7374C12.9038 25.7965 13.1868 25.7792 13.4494 25.6875C13.7121 25.5957 13.9443 25.4331 14.1203 25.2176C16.4764 22.3406 21.5793 15.6925 21.5793 12.021C21.58 10.8876 21.3573 9.76521 20.9239 8.71798C20.4905 7.67076 19.855 6.71923 19.0535 5.91782C18.2521 5.11642 17.3006 4.48085 16.2534 4.04746C15.2062 3.61407 14.0838 3.39137 12.9504 3.39209Z" fill="#1D3A69"/>
<path d="M7.66037 12.021C7.66037 7.84391 10.637 4.36063 14.5832 3.56504C14.0468 3.4482 13.4993 3.39022 12.9504 3.39214C8.18018 3.39214 4.30731 7.25078 4.30731 12.021C4.30731 15.6925 9.40912 22.3406 11.7795 25.2176C11.9216 25.3906 12.1004 25.53 12.3029 25.6257C12.5053 25.7213 12.7265 25.771 12.9504 25.771C13.1743 25.771 13.3955 25.7213 13.598 25.6257C13.8004 25.53 13.9792 25.3906 14.1214 25.2176C14.28 25.0294 14.4529 24.827 14.6269 24.5961C12.1121 21.4739 7.66037 15.4474 7.66037 12.021Z" fill="#1D3A69"/>
<path d="M45.0649 33.5411C40.2947 33.5411 36.4207 37.3998 36.4207 42.1689C36.4207 45.836 41.5302 52.4842 43.8918 55.3623C44.0335 55.5364 44.2122 55.6767 44.4149 55.7731C44.6177 55.8694 44.8393 55.9195 45.0638 55.9195C45.2883 55.9195 45.5099 55.8694 45.7127 55.7731C45.9154 55.6767 46.0941 55.5364 46.2359 55.3623C48.5942 52.4831 53.6927 45.836 53.6927 42.1689C53.6934 41.0356 53.4707 39.9133 53.0374 38.8662C52.6041 37.819 51.9686 36.8676 51.1673 36.0662C50.366 35.2648 49.4146 34.6292 48.3675 34.1957C47.3204 33.7623 46.1982 33.5406 45.0649 33.5411Z" fill="#1D3A69"/>
<path d="M45.0649 46.9818C44.4327 46.9821 43.8067 46.8578 43.2226 46.6161C42.6385 46.3743 42.1077 46.0198 41.6607 45.5729C41.2136 45.1259 40.859 44.5952 40.6171 44.0112C40.3752 43.4271 40.2508 42.8011 40.2509 42.1689C40.2524 41.2192 40.5354 40.2912 41.0639 39.5022C41.5925 38.7131 42.3431 38.0984 43.2208 37.7357C44.0985 37.3729 45.0641 37.2784 45.9955 37.464C46.9269 37.6497 47.7824 38.1072 48.454 38.7788C49.1255 39.4503 49.583 40.3058 49.7687 41.2372C49.9544 42.1687 49.8598 43.1342 49.4971 44.0119C49.1343 44.8897 48.5196 45.6402 47.7306 46.1688C46.9415 46.6974 46.0147 46.9803 45.0649 46.9818Z" fill="white"/>
<path d="M45.0649 33.5411C44.9631 33.5411 44.8471 33.5411 44.7465 33.5543C46.975 33.6383 49.0843 34.5827 50.6313 36.1891C52.1782 37.7954 53.0425 39.9388 53.0427 42.1689C53.0427 45.8404 47.9408 52.4885 45.5847 55.3656C45.3538 55.6391 45.0649 55.8142 44.7465 55.8854C45.0183 55.9444 45.3013 55.9272 45.5639 55.8354C45.8266 55.7437 46.0588 55.5811 46.2348 55.3656C48.5909 52.4885 53.6938 45.8404 53.6938 42.1689C53.6945 41.0355 53.4718 39.9132 53.0384 38.8659C52.605 37.8187 51.9695 36.8672 51.168 36.0658C50.3666 35.2644 49.4151 34.6288 48.3679 34.1954C47.3207 33.762 46.1983 33.5404 45.0649 33.5411Z" fill="#1D3A69"/>
<path d="M39.7749 42.1689C39.7749 37.9918 42.7515 34.5086 46.6977 33.7141C46.1614 33.5969 45.6139 33.5385 45.0649 33.5401C40.2947 33.5401 36.4207 37.3998 36.4207 42.1689C36.4207 45.8404 41.5236 52.4886 43.894 55.3656C44.0361 55.5386 44.2149 55.6779 44.4174 55.7736C44.6198 55.8693 44.841 55.9189 45.0649 55.9189C45.2888 55.9189 45.51 55.8693 45.7124 55.7736C45.9149 55.6779 46.0937 55.5386 46.2358 55.3656C46.3945 55.1774 46.5674 54.9749 46.7414 54.744C44.2255 51.6218 39.7749 45.5953 39.7749 42.17V42.1689Z" fill="#1D3A69"/>
</svg>
