<svg width="58" height="58" viewBox="0 0 58 58" fill="none" xmlns="http://www.w3.org/2000/svg">
<path d="M54.056 46.4001H40.136V53.3601H37.816V40.6001H20.416V53.3601H18.096V46.4001H4.17597V53.3601H1.15997V56.8401H56.376V53.3601H54.056V46.4001Z" fill="#1D3A69"/>
<path d="M41.18 32.5958C42.108 32.3638 42.688 31.4358 42.572 30.5078C41.528 25.4038 42.688 23.3158 43.616 22.5038V43.2678C43.616 44.1958 44.428 45.0078 45.356 45.0078C46.284 45.0078 47.096 44.1958 47.096 43.2678V31.3198H48.256V43.2678C48.256 44.1958 49.068 45.0078 49.996 45.0078C50.924 45.0078 51.736 44.1958 51.736 43.2678V22.3878C52.78 21.6918 58.116 17.3998 56.608 8.93184C56.492 8.00384 55.564 7.30784 54.636 7.53984C53.708 7.65584 53.012 8.58384 53.244 9.51184C54.056 14.3838 52.084 17.2838 50.692 18.6758C50.576 18.6758 50.46 18.5598 50.344 18.5598L48.024 21.6918V23.1998C48.488 23.3158 48.952 23.7798 48.952 24.3598C48.952 25.0558 48.372 25.6358 47.792 25.6358C46.98 25.5198 46.4 24.9398 46.4 24.3598C46.4 23.7798 46.748 23.3158 47.328 23.1998V21.8078L45.008 18.6758H43.5C43.268 18.7918 36.888 20.5318 39.208 31.3198C39.324 32.2478 40.252 32.8278 41.18 32.5958Z" fill="#1D3A69"/>
<path d="M47.676 21.1118L49.532 18.5598H45.704L47.676 21.1118Z" fill="#1D3A69"/>
<path d="M47.676 16.2401C49.9183 16.2401 51.736 14.4224 51.736 12.1801C51.736 9.93784 49.9183 8.12012 47.676 8.12012C45.4338 8.12012 43.616 9.93784 43.616 12.1801C43.616 14.4224 45.4338 16.2401 47.676 16.2401Z" fill="#1D3A69"/>
<path d="M6.49597 22.5039V43.2678C6.49597 44.1959 7.30797 45.0079 8.23597 45.0079C9.16397 45.0079 9.97597 44.1959 9.97597 43.2678V31.3199H11.136V43.2678C11.136 44.1959 11.948 45.0079 12.876 45.0079C13.804 45.0079 14.616 44.1959 14.616 43.2678V22.5039C15.544 23.3159 16.82 25.4039 15.66 30.6239C15.428 31.5519 16.008 32.4799 17.052 32.7119C17.98 32.9439 18.908 32.3639 19.14 31.3199C21.46 20.5319 15.08 18.6759 14.848 18.6759H13.34L11.02 21.8079V23.1999C11.484 23.3159 11.948 23.7799 11.948 24.3599C11.948 25.0559 11.368 25.6359 10.672 25.6359C9.97597 25.6359 9.51197 25.0559 9.51197 24.3599C9.51197 23.7799 9.85997 23.3159 10.44 23.1999V21.8079L8.11997 18.6759C8.00397 18.6759 7.88797 18.7919 7.77197 18.7919C6.26397 17.3999 4.17597 14.3839 5.10397 9.62785C5.21997 8.69985 4.63997 7.77185 3.71197 7.53985C2.66797 7.42385 1.85597 8.00385 1.62397 8.93185C0.115975 17.3999 5.45197 21.6919 6.49597 22.5039Z" fill="#1D3A69"/>
<path d="M10.556 21.1118L12.528 18.5598H8.70001L10.556 21.1118Z" fill="#1D3A69"/>
<path d="M10.556 16.2401C12.7982 16.2401 14.616 14.4224 14.616 12.1801C14.616 9.93784 12.7982 8.12012 10.556 8.12012C8.3137 8.12012 6.49597 9.93784 6.49597 12.1801C6.49597 14.4224 8.3137 16.2401 10.556 16.2401Z" fill="#1D3A69"/>
<path d="M23.316 15.1959V35.9599C23.316 37.2359 24.36 38.2799 25.636 38.2799C26.912 38.2799 27.956 37.2359 27.956 35.9599V26.6799H29.116V35.9599C29.116 37.2359 30.16 38.2799 31.436 38.2799C32.712 38.2799 33.756 37.2359 33.756 35.9599V15.1959C34.104 14.9639 39.44 9.97588 37.7 3.01588C37.468 2.08788 36.54 1.50788 35.612 1.73988C34.684 1.97188 34.104 2.89988 34.336 3.82788C35.148 7.30788 33.524 10.0919 32.364 11.4839H32.016L28.884 15.6599V17.3999C29.58 17.5159 30.044 18.0959 30.044 18.7919C30.044 19.6039 29.348 20.2999 28.536 20.2999C27.724 20.2999 27.028 19.6039 27.028 18.7919C27.028 18.0959 27.492 17.5159 28.188 17.3999V15.6599L25.056 11.5999H24.824C23.664 10.2079 21.924 7.42388 22.852 3.94388C23.084 3.01588 22.504 2.08788 21.576 1.85588C20.648 1.62388 19.72 2.20388 19.488 3.13188C17.748 9.74388 22.504 14.4999 23.316 15.1959Z" fill="#1D3A69"/>
<path d="M28.536 14.9641L30.972 11.6001H25.984L28.536 14.9641Z" fill="#1D3A69"/>
<path d="M28.536 9.27991C30.7783 9.27991 32.596 7.46219 32.596 5.21991C32.596 2.97764 30.7783 1.15991 28.536 1.15991C26.2937 1.15991 24.476 2.97764 24.476 5.21991C24.476 7.46219 26.2937 9.27991 28.536 9.27991Z" fill="#1D3A69"/>
</svg>
