<svg width="59" height="59" viewBox="0 0 59 59" fill="none" xmlns="http://www.w3.org/2000/svg">
<g clip-path="url(#clip0_264_209)">
<path d="M42.044 46.4111L31.3502 39.3876L28.9487 33.9955L24.1002 20.583H29.719L33.6612 25.3861C34.1596 26.0205 34.9299 26.3376 35.7002 26.3376C36.2893 26.3376 36.8783 26.1564 37.3768 25.7486C38.5096 24.8423 38.6455 23.1658 37.7393 22.033L32.9815 16.2783C32.483 15.6892 31.758 15.3267 30.9424 15.3267H22.333C22.1971 15.3267 22.0612 15.3267 21.9252 15.372C21.744 15.4173 21.5174 15.4626 21.3362 15.5533L13.9955 17.683H9.37365L6.06584 11.9736C5.34084 10.7048 3.70959 10.297 2.48615 11.022C1.2174 11.747 0.809589 13.3783 1.53459 14.6017L5.61271 21.6251C6.06584 22.4408 6.97209 22.9392 7.87834 22.9392H14.8565L18.6174 33.7236L14.7658 35.0376C13.9955 35.3095 13.4065 35.8986 13.1346 36.6236L9.05646 47.9517C8.55803 49.3111 9.28303 50.8064 10.6424 51.3048C10.9596 51.3954 11.2315 51.4408 11.5487 51.4408C12.6362 51.4408 13.633 50.7611 14.0408 49.7189L17.6658 39.6142L24.3721 37.3033C24.4627 37.2579 24.5533 37.2126 24.644 37.2126L26.8643 42.2423C27.0908 42.6954 27.408 43.1033 27.8158 43.3751L39.144 50.8517C39.5971 51.1689 40.0955 51.3048 40.594 51.3048C41.4549 51.3048 42.2705 50.897 42.8143 50.1267C43.5846 48.8579 43.2674 47.2267 42.044 46.4111Z" fill="#1D3A69"/>
<path d="M16.2611 14.9642C18.4133 14.9642 20.158 13.2195 20.158 11.0673C20.158 8.9151 18.4133 7.17041 16.2611 7.17041C14.1089 7.17041 12.3643 8.9151 12.3643 11.0673C12.3643 13.2195 14.1089 14.9642 16.2611 14.9642Z" fill="#1D3A69"/>
<path d="M38.9628 19.0422H55.7284C56.3628 19.0422 56.8612 18.5438 56.8612 17.9094C56.8612 17.275 56.3628 16.7766 55.7284 16.7766H38.9628C38.3284 16.7766 37.83 17.275 37.83 17.9094C37.83 18.5438 38.3284 19.0422 38.9628 19.0422ZM53.3722 25.6125C54.0065 25.6125 54.505 25.1141 54.505 24.4797C54.505 23.8454 54.0065 23.3469 53.3722 23.3469H41.5003C40.8659 23.3469 40.3675 23.8454 40.3675 24.4797C40.3675 25.1141 40.8659 25.6125 41.5003 25.6125H53.3722ZM54.505 31.05C54.505 30.4157 54.0065 29.9172 53.3722 29.9172H35.2925C34.6581 29.9172 34.1597 30.4157 34.1597 31.05C34.1597 31.6844 34.6581 32.1829 35.2925 32.1829H53.3722C54.0065 32.1829 54.505 31.6844 54.505 31.05ZM38.4644 36.4875C37.83 36.4875 37.3315 36.986 37.3315 37.6204C37.3315 38.2547 37.83 38.7532 38.4644 38.7532H51.7409C52.3753 38.7532 52.8737 38.2547 52.8737 37.6204C52.8737 36.986 52.3753 36.4875 51.7409 36.4875H38.4644ZM57.1331 43.0579H43.8565C43.2222 43.0579 42.7237 43.5563 42.7237 44.1907C42.7237 44.825 43.2222 45.3235 43.8565 45.3235H57.1331C57.7675 45.3235 58.2659 44.825 58.2659 44.1907C58.2659 43.5563 57.7675 43.0579 57.1331 43.0579Z" fill="#1D3A69"/>
</g>
<defs>
<clipPath id="clip0_264_209">
<rect width="58" height="58" fill="white" transform="translate(0.718994 0.328125)"/>
</clipPath>
</defs>
</svg>
