<svg width="568" height="186" viewBox="0 0 568 186" fill="none" xmlns="http://www.w3.org/2000/svg">
<mask id="path-1-outside-1_264_145" maskUnits="userSpaceOnUse" x="1" y="15" width="377" height="60" fill="black">
<rect fill="white" x="1" y="15" width="377" height="60"/>
<path d="M4.104 70V19.6H28.368C33.072 19.6 37.128 20.368 40.536 21.904C43.992 23.44 46.656 25.648 48.528 28.528C50.4 31.36 51.336 34.72 51.336 38.608C51.336 42.496 50.4 45.856 48.528 48.688C46.656 51.472 43.992 53.608 40.536 55.096C37.128 56.584 33.072 57.328 28.368 57.328H13.536L21.096 50.344V70H4.104ZM34.272 70L21.888 51.64H39.888L52.416 70H34.272ZM21.096 52.216L13.536 44.512H27.288C29.64 44.512 31.368 43.984 32.472 42.928C33.624 41.872 34.2 40.432 34.2 38.608C34.2 36.784 33.624 35.344 32.472 34.288C31.368 33.232 29.64 32.704 27.288 32.704H13.536L21.096 25V52.216ZM81.8724 71.152C74.1444 71.152 68.1204 69.064 63.8004 64.888C59.4804 60.712 57.3204 54.856 57.3204 47.32V19.6H74.3124V46.816C74.3124 50.656 75.0084 53.392 76.4004 55.024C77.7924 56.608 79.6644 57.4 82.0164 57.4C84.4164 57.4 86.2884 56.608 87.6324 55.024C89.0244 53.392 89.7204 50.656 89.7204 46.816V19.6H106.424V47.32C106.424 54.856 104.264 60.712 99.9444 64.888C95.6244 69.064 89.6004 71.152 81.8724 71.152ZM114.213 70V19.6H128.181L153.813 50.272H147.333V19.6H163.893V70H149.925L124.293 39.328H130.773V70H114.213ZM172.081 70V19.6H186.049L211.681 50.272H205.201V19.6H221.761V70H207.793L182.161 39.328H188.641V70H172.081ZM245.5 38.32H267.964V50.56H245.5V38.32ZM246.652 57.184H271.852V70H229.948V19.6H270.916V32.416H246.652V57.184ZM278.393 70V19.6H302.657C307.361 19.6 311.417 20.368 314.825 21.904C318.281 23.44 320.945 25.648 322.817 28.528C324.689 31.36 325.625 34.72 325.625 38.608C325.625 42.496 324.689 45.856 322.817 48.688C320.945 51.472 318.281 53.608 314.825 55.096C311.417 56.584 307.361 57.328 302.657 57.328H287.825L295.385 50.344V70H278.393ZM308.561 70L296.177 51.64H314.177L326.705 70H308.561ZM295.385 52.216L287.825 44.512H301.577C303.929 44.512 305.657 43.984 306.761 42.928C307.913 41.872 308.489 40.432 308.489 38.608C308.489 36.784 307.913 35.344 306.761 34.288C305.657 33.232 303.929 32.704 301.577 32.704H287.825L295.385 25V52.216ZM350.834 71.152C346.61 71.152 342.53 70.672 338.594 69.712C334.658 68.752 331.417 67.504 328.874 65.968L334.346 53.584C336.746 54.976 339.41 56.104 342.338 56.968C345.314 57.784 348.194 58.192 350.978 58.192C352.61 58.192 353.882 58.096 354.794 57.904C355.754 57.664 356.45 57.352 356.882 56.968C357.314 56.536 357.53 56.032 357.53 55.456C357.53 54.544 357.026 53.824 356.018 53.296C355.01 52.768 353.666 52.336 351.986 52C350.354 51.616 348.554 51.232 346.586 50.848C344.618 50.416 342.626 49.864 340.61 49.192C338.642 48.52 336.818 47.632 335.138 46.528C333.506 45.424 332.186 43.984 331.178 42.208C330.17 40.384 329.666 38.128 329.666 35.44C329.666 32.32 330.53 29.488 332.258 26.944C334.034 24.352 336.65 22.288 340.106 20.752C343.61 19.216 347.954 18.448 353.138 18.448C356.546 18.448 359.906 18.808 363.218 19.528C366.53 20.248 369.506 21.352 372.146 22.84L367.034 35.152C364.538 33.904 362.114 32.968 359.762 32.344C357.458 31.72 355.202 31.408 352.994 31.408C351.362 31.408 350.066 31.552 349.105 31.84C348.146 32.128 347.45 32.512 347.018 32.992C346.634 33.472 346.441 34 346.441 34.576C346.441 35.44 346.946 36.136 347.954 36.664C348.962 37.144 350.282 37.552 351.914 37.888C353.594 38.224 355.418 38.584 357.386 38.968C359.402 39.352 361.394 39.88 363.362 40.552C365.33 41.224 367.13 42.112 368.762 43.216C370.442 44.32 371.786 45.76 372.794 47.536C373.802 49.312 374.306 51.52 374.306 54.16C374.306 57.232 373.418 60.064 371.642 62.656C369.914 65.2 367.322 67.264 363.866 68.848C360.41 70.384 356.066 71.152 350.834 71.152Z"/>
</mask>
<path d="M4.104 70H1.104V73H4.104V70ZM4.104 19.6V16.6H1.104V19.6H4.104ZM40.536 21.904L39.3033 24.639L39.3104 24.6423L39.3176 24.6454L40.536 21.904ZM48.528 28.528L46.0127 30.163L46.019 30.1727L46.0253 30.1823L48.528 28.528ZM48.528 48.688L51.0175 50.362L51.0241 50.3522L51.0307 50.3423L48.528 48.688ZM40.536 55.096L39.3496 52.3405L39.3426 52.3436L39.3356 52.3466L40.536 55.096ZM13.536 57.328L11.5003 55.1244L5.86752 60.328H13.536V57.328ZM21.096 50.344H24.096V43.4884L19.0603 48.1404L21.096 50.344ZM21.096 70V73H24.096V70H21.096ZM34.272 70L31.7849 71.6776L32.6769 73H34.272V70ZM21.888 51.64V48.64H16.2458L19.4009 53.3176L21.888 51.64ZM39.888 51.64L42.3661 49.9491L41.4728 48.64H39.888V51.64ZM52.416 70V73H58.0949L54.8941 68.3091L52.416 70ZM21.096 52.216L18.9548 54.3172L24.096 59.5564V52.216H21.096ZM13.536 44.512V41.512H6.3889L11.3948 46.6132L13.536 44.512ZM32.472 42.928L30.4448 40.7165L30.4214 40.7381L30.3983 40.7601L32.472 42.928ZM32.472 34.288L30.3983 36.4559L30.4214 36.4779L30.4448 36.4995L32.472 34.288ZM13.536 32.704L11.3948 30.6028L6.3889 35.704H13.536V32.704ZM21.096 25H24.096V17.6596L18.9548 22.8988L21.096 25ZM4.104 70H7.104V19.6H4.104H1.104V70H4.104ZM4.104 19.6V22.6H28.368V19.6V16.6H4.104V19.6ZM28.368 19.6V22.6C32.7533 22.6 36.3692 23.3166 39.3033 24.639L40.536 21.904L41.7687 19.169C37.8868 17.4193 33.3907 16.6 28.368 16.6V19.6ZM40.536 21.904L39.3176 24.6454C42.299 25.9705 44.4885 27.8181 46.0127 30.163L48.528 28.528L51.0433 26.893C48.8235 23.4779 45.685 20.9095 41.7544 19.1626L40.536 21.904ZM48.528 28.528L46.0253 30.1823C47.5277 32.455 48.336 35.2204 48.336 38.608H51.336H54.336C54.336 34.2196 53.2723 30.265 51.0307 26.8737L48.528 28.528ZM51.336 38.608H48.336C48.336 41.9956 47.5277 44.761 46.0253 47.0337L48.528 48.688L51.0307 50.3423C53.2723 46.951 54.336 42.9964 54.336 38.608H51.336ZM48.528 48.688L46.0385 47.014C44.5261 49.2632 42.3428 51.0518 39.3496 52.3405L40.536 55.096L41.7224 57.8515C45.6412 56.1642 48.7859 53.6808 51.0175 50.362L48.528 48.688ZM40.536 55.096L39.3356 52.3466C36.3923 53.6317 32.7645 54.328 28.368 54.328V57.328V60.328C33.3795 60.328 37.8637 59.5363 41.7364 57.8454L40.536 55.096ZM28.368 57.328V54.328H13.536V57.328V60.328H28.368V57.328ZM13.536 57.328L15.5717 59.5316L23.1317 52.5476L21.096 50.344L19.0603 48.1404L11.5003 55.1244L13.536 57.328ZM21.096 50.344H18.096V70H21.096H24.096V50.344H21.096ZM21.096 70V67H4.104V70V73H21.096V70ZM34.272 70L36.7591 68.3224L24.3751 49.9624L21.888 51.64L19.4009 53.3176L31.7849 71.6776L34.272 70ZM21.888 51.64V54.64H39.888V51.64V48.64H21.888V51.64ZM39.888 51.64L37.4099 53.3309L49.9379 71.6909L52.416 70L54.8941 68.3091L42.3661 49.9491L39.888 51.64ZM52.416 70V67H34.272V70V73H52.416V70ZM21.096 52.216L23.2372 50.1148L15.6772 42.4108L13.536 44.512L11.3948 46.6132L18.9548 54.3172L21.096 52.216ZM13.536 44.512V47.512H27.288V44.512V41.512H13.536V44.512ZM27.288 44.512V47.512C30.0077 47.512 32.6469 46.9122 34.5457 45.0959L32.472 42.928L30.3983 40.7601C30.0891 41.0558 29.2723 41.512 27.288 41.512V44.512ZM32.472 42.928L34.4992 45.1395C36.3761 43.419 37.2 41.119 37.2 38.608H34.2H31.2C31.2 39.745 30.8719 40.325 30.4448 40.7165L32.472 42.928ZM34.2 38.608H37.2C37.2 36.097 36.3761 33.797 34.4992 32.0765L32.472 34.288L30.4448 36.4995C30.8719 36.891 31.2 37.471 31.2 38.608H34.2ZM32.472 34.288L34.5457 32.1201C32.6469 30.3038 30.0077 29.704 27.288 29.704V32.704V35.704C29.2723 35.704 30.0891 36.1602 30.3983 36.4559L32.472 34.288ZM27.288 32.704V29.704H13.536V32.704V35.704H27.288V32.704ZM13.536 32.704L15.6772 34.8052L23.2372 27.1012L21.096 25L18.9548 22.8988L11.3948 30.6028L13.536 32.704ZM21.096 25H18.096V52.216H21.096H24.096V25H21.096ZM63.8004 64.888L61.7154 67.045L63.8004 64.888ZM57.3204 19.6V16.6H54.3204V19.6H57.3204ZM74.3124 19.6H77.3124V16.6H74.3124V19.6ZM76.4004 55.024L74.1179 56.9708L74.1323 56.9877L74.1469 57.0043L76.4004 55.024ZM87.6324 55.024L85.3499 53.0772L85.3449 53.0831L87.6324 55.024ZM89.7204 19.6V16.6H86.7204V19.6H89.7204ZM106.424 19.6H109.424V16.6H106.424V19.6ZM99.9444 64.888L97.8594 62.731L99.9444 64.888ZM81.8724 71.152V68.152C74.6907 68.152 69.4991 66.2242 65.8855 62.731L63.8004 64.888L61.7154 67.045C66.7418 71.9038 73.5981 74.152 81.8724 74.152V71.152ZM63.8004 64.888L65.8855 62.731C62.2911 59.2565 60.3204 54.262 60.3204 47.32H57.3204H54.3204C54.3204 55.45 56.6698 62.1675 61.7154 67.045L63.8004 64.888ZM57.3204 47.32H60.3204V19.6H57.3204H54.3204V47.32H57.3204ZM57.3204 19.6V22.6H74.3124V19.6V16.6H57.3204V19.6ZM74.3124 19.6H71.3124V46.816H74.3124H77.3124V19.6H74.3124ZM74.3124 46.816H71.3124C71.3124 50.8646 72.0162 54.5067 74.1179 56.9708L76.4004 55.024L78.6829 53.0772C78.0007 52.2773 77.3124 50.4474 77.3124 46.816H74.3124ZM76.4004 55.024L74.1469 57.0043C76.1781 59.3156 78.9129 60.4 82.0164 60.4V57.4V54.4C80.416 54.4 79.4068 53.9004 78.6539 53.0437L76.4004 55.024ZM82.0164 57.4V60.4C85.1452 60.4 87.9143 59.3288 89.92 56.9649L87.6324 55.024L85.3449 53.0831C84.6626 53.8872 83.6877 54.4 82.0164 54.4V57.4ZM87.6324 55.024L89.9149 56.9708C92.0167 54.5067 92.7204 50.8646 92.7204 46.816H89.7204H86.7204C86.7204 50.4474 86.0322 52.2773 85.3499 53.0772L87.6324 55.024ZM89.7204 46.816H92.7204V19.6H89.7204H86.7204V46.816H89.7204ZM89.7204 19.6V22.6H106.424V19.6V16.6H89.7204V19.6ZM106.424 19.6H103.424V47.32H106.424H109.424V19.6H106.424ZM106.424 47.32H103.424C103.424 54.262 101.454 59.2565 97.8594 62.731L99.9444 64.888L102.03 67.045C107.075 62.1675 109.424 55.45 109.424 47.32H106.424ZM99.9444 64.888L97.8594 62.731C94.2458 66.2242 89.0541 68.152 81.8724 68.152V71.152V74.152C90.1467 74.152 97.0031 71.9038 102.03 67.045L99.9444 64.888ZM114.213 70H111.213V73H114.213V70ZM114.213 19.6V16.6H111.213V19.6H114.213ZM128.181 19.6L130.483 17.6763L129.584 16.6H128.181V19.6ZM153.813 50.272V53.272H160.23L156.115 48.3483L153.813 50.272ZM147.333 50.272H144.333V53.272H147.333V50.272ZM147.333 19.6V16.6H144.333V19.6H147.333ZM163.893 19.6H166.893V16.6H163.893V19.6ZM163.893 70V73H166.893V70H163.893ZM149.925 70L147.623 71.9237L148.523 73H149.925V70ZM124.293 39.328V36.328H117.877L121.991 41.2517L124.293 39.328ZM130.773 39.328H133.773V36.328H130.773V39.328ZM130.773 70V73H133.773V70H130.773ZM114.213 70H117.213V19.6H114.213H111.213V70H114.213ZM114.213 19.6V22.6H128.181V19.6V16.6H114.213V19.6ZM128.181 19.6L125.879 21.5237L151.511 52.1957L153.813 50.272L156.115 48.3483L130.483 17.6763L128.181 19.6ZM153.813 50.272V47.272H147.333V50.272V53.272H153.813V50.272ZM147.333 50.272H150.333V19.6H147.333H144.333V50.272H147.333ZM147.333 19.6V22.6H163.893V19.6V16.6H147.333V19.6ZM163.893 19.6H160.893V70H163.893H166.893V19.6H163.893ZM163.893 70V67H149.925V70V73H163.893V70ZM149.925 70L152.227 68.0763L126.595 37.4043L124.293 39.328L121.991 41.2517L147.623 71.9237L149.925 70ZM124.293 39.328V42.328H130.773V39.328V36.328H124.293V39.328ZM130.773 39.328H127.773V70H130.773H133.773V39.328H130.773ZM130.773 70V67H114.213V70V73H130.773V70ZM172.081 70H169.081V73H172.081V70ZM172.081 19.6V16.6H169.081V19.6H172.081ZM186.049 19.6L188.351 17.6763L187.451 16.6H186.049V19.6ZM211.681 50.272V53.272H218.097L213.983 48.3483L211.681 50.272ZM205.201 50.272H202.201V53.272H205.201V50.272ZM205.201 19.6V16.6H202.201V19.6H205.201ZM221.761 19.6H224.761V16.6H221.761V19.6ZM221.761 70V73H224.761V70H221.761ZM207.793 70L205.491 71.9237L206.39 73H207.793V70ZM182.161 39.328V36.328H175.744L179.859 41.2517L182.161 39.328ZM188.641 39.328H191.641V36.328H188.641V39.328ZM188.641 70V73H191.641V70H188.641ZM172.081 70H175.081V19.6H172.081H169.081V70H172.081ZM172.081 19.6V22.6H186.049V19.6V16.6H172.081V19.6ZM186.049 19.6L183.747 21.5237L209.379 52.1957L211.681 50.272L213.983 48.3483L188.351 17.6763L186.049 19.6ZM211.681 50.272V47.272H205.201V50.272V53.272H211.681V50.272ZM205.201 50.272H208.201V19.6H205.201H202.201V50.272H205.201ZM205.201 19.6V22.6H221.761V19.6V16.6H205.201V19.6ZM221.761 19.6H218.761V70H221.761H224.761V19.6H221.761ZM221.761 70V67H207.793V70V73H221.761V70ZM207.793 70L210.095 68.0763L184.463 37.4043L182.161 39.328L179.859 41.2517L205.491 71.9237L207.793 70ZM182.161 39.328V42.328H188.641V39.328V36.328H182.161V39.328ZM188.641 39.328H185.641V70H188.641H191.641V39.328H188.641ZM188.641 70V67H172.081V70V73H188.641V70ZM245.5 38.32V35.32H242.5V38.32H245.5ZM267.964 38.32H270.964V35.32H267.964V38.32ZM267.964 50.56V53.56H270.964V50.56H267.964ZM245.5 50.56H242.5V53.56H245.5V50.56ZM246.652 57.184H243.652V60.184H246.652V57.184ZM271.852 57.184H274.852V54.184H271.852V57.184ZM271.852 70V73H274.852V70H271.852ZM229.948 70H226.948V73H229.948V70ZM229.948 19.6V16.6H226.948V19.6H229.948ZM270.916 19.6H273.916V16.6H270.916V19.6ZM270.916 32.416V35.416H273.916V32.416H270.916ZM246.652 32.416V29.416H243.652V32.416H246.652ZM245.5 38.32V41.32H267.964V38.32V35.32H245.5V38.32ZM267.964 38.32H264.964V50.56H267.964H270.964V38.32H267.964ZM267.964 50.56V47.56H245.5V50.56V53.56H267.964V50.56ZM245.5 50.56H248.5V38.32H245.5H242.5V50.56H245.5ZM246.652 57.184V60.184H271.852V57.184V54.184H246.652V57.184ZM271.852 57.184H268.852V70H271.852H274.852V57.184H271.852ZM271.852 70V67H229.948V70V73H271.852V70ZM229.948 70H232.948V19.6H229.948H226.948V70H229.948ZM229.948 19.6V22.6H270.916V19.6V16.6H229.948V19.6ZM270.916 19.6H267.916V32.416H270.916H273.916V19.6H270.916ZM270.916 32.416V29.416H246.652V32.416V35.416H270.916V32.416ZM246.652 32.416H243.652V57.184H246.652H249.652V32.416H246.652ZM278.393 70H275.393V73H278.393V70ZM278.393 19.6V16.6H275.393V19.6H278.393ZM314.825 21.904L313.592 24.639L313.599 24.6423L313.607 24.6454L314.825 21.904ZM322.817 28.528L320.302 30.163L320.308 30.1727L320.314 30.1823L322.817 28.528ZM322.817 48.688L325.307 50.362L325.313 50.3522L325.32 50.3423L322.817 48.688ZM314.825 55.096L313.639 52.3405L313.632 52.3436L313.625 52.3466L314.825 55.096ZM287.825 57.328L285.789 55.1244L280.157 60.328H287.825V57.328ZM295.385 50.344H298.385V43.4884L293.349 48.1404L295.385 50.344ZM295.385 70V73H298.385V70H295.385ZM308.561 70L306.074 71.6776L306.966 73H308.561V70ZM296.177 51.64V48.64H290.535L293.69 53.3176L296.177 51.64ZM314.177 51.64L316.655 49.9491L315.762 48.64H314.177V51.64ZM326.705 70V73H332.384L329.183 68.3091L326.705 70ZM295.385 52.216L293.244 54.3172L298.385 59.5564V52.216H295.385ZM287.825 44.512V41.512H280.678L285.684 46.6132L287.825 44.512ZM306.761 42.928L304.734 40.7165L304.71 40.7381L304.687 40.7601L306.761 42.928ZM306.761 34.288L304.687 36.4559L304.71 36.4779L304.734 36.4995L306.761 34.288ZM287.825 32.704L285.684 30.6028L280.678 35.704H287.825V32.704ZM295.385 25H298.385V17.6596L293.244 22.8988L295.385 25ZM278.393 70H281.393V19.6H278.393H275.393V70H278.393ZM278.393 19.6V22.6H302.657V19.6V16.6H278.393V19.6ZM302.657 19.6V22.6C307.042 22.6 310.658 23.3166 313.592 24.639L314.825 21.904L316.058 19.169C312.176 17.4193 307.68 16.6 302.657 16.6V19.6ZM314.825 21.904L313.607 24.6454C316.588 25.9705 318.778 27.8181 320.302 30.163L322.817 28.528L325.332 26.893C323.113 23.4779 319.974 20.9095 316.043 19.1626L314.825 21.904ZM322.817 28.528L320.314 30.1823C321.817 32.455 322.625 35.2204 322.625 38.608H325.625H328.625C328.625 34.2196 327.561 30.265 325.32 26.8737L322.817 28.528ZM325.625 38.608H322.625C322.625 41.9956 321.817 44.761 320.314 47.0337L322.817 48.688L325.32 50.3423C327.561 46.951 328.625 42.9964 328.625 38.608H325.625ZM322.817 48.688L320.328 47.014C318.815 49.2632 316.632 51.0518 313.639 52.3405L314.825 55.096L316.011 57.8515C319.93 56.1642 323.075 53.6808 325.307 50.362L322.817 48.688ZM314.825 55.096L313.625 52.3466C310.681 53.6317 307.054 54.328 302.657 54.328V57.328V60.328C307.669 60.328 312.153 59.5363 316.025 57.8454L314.825 55.096ZM302.657 57.328V54.328H287.825V57.328V60.328H302.657V57.328ZM287.825 57.328L289.861 59.5316L297.421 52.5476L295.385 50.344L293.349 48.1404L285.789 55.1244L287.825 57.328ZM295.385 50.344H292.385V70H295.385H298.385V50.344H295.385ZM295.385 70V67H278.393V70V73H295.385V70ZM308.561 70L311.048 68.3224L298.664 49.9624L296.177 51.64L293.69 53.3176L306.074 71.6776L308.561 70ZM296.177 51.64V54.64H314.177V51.64V48.64H296.177V51.64ZM314.177 51.64L311.699 53.3309L324.227 71.6909L326.705 70L329.183 68.3091L316.655 49.9491L314.177 51.64ZM326.705 70V67H308.561V70V73H326.705V70ZM295.385 52.216L297.526 50.1148L289.966 42.4108L287.825 44.512L285.684 46.6132L293.244 54.3172L295.385 52.216ZM287.825 44.512V47.512H301.577V44.512V41.512H287.825V44.512ZM301.577 44.512V47.512C304.297 47.512 306.936 46.9122 308.835 45.0959L306.761 42.928L304.687 40.7601C304.378 41.0558 303.561 41.512 301.577 41.512V44.512ZM306.761 42.928L308.788 45.1395C310.665 43.419 311.489 41.119 311.489 38.608H308.489H305.489C305.489 39.745 305.161 40.325 304.734 40.7165L306.761 42.928ZM308.489 38.608H311.489C311.489 36.097 310.665 33.797 308.788 32.0765L306.761 34.288L304.734 36.4995C305.161 36.891 305.489 37.471 305.489 38.608H308.489ZM306.761 34.288L308.835 32.1201C306.936 30.3038 304.297 29.704 301.577 29.704V32.704V35.704C303.561 35.704 304.378 36.1602 304.687 36.4559L306.761 34.288ZM301.577 32.704V29.704H287.825V32.704V35.704H301.577V32.704ZM287.825 32.704L289.966 34.8052L297.526 27.1012L295.385 25L293.244 22.8988L285.684 30.6028L287.825 32.704ZM295.385 25H292.385V52.216H295.385H298.385V25H295.385ZM338.594 69.712L339.304 66.7974L338.594 69.712ZM328.874 65.968L326.129 64.7555L325.062 67.1712L327.323 68.5362L328.874 65.968ZM334.345 53.584L335.851 50.9889L332.955 49.3092L331.601 52.3715L334.345 53.584ZM342.337 56.968L341.488 59.8453L341.516 59.8535L341.544 59.8612L342.337 56.968ZM354.793 57.904L355.412 60.8396L355.467 60.8281L355.521 60.8144L354.793 57.904ZM356.882 56.968L358.875 59.2102L358.94 59.1517L359.003 59.0893L356.882 56.968ZM356.017 53.296L354.625 55.9535L356.017 53.296ZM351.986 52L351.298 54.9202L351.348 54.9318L351.397 54.9417L351.986 52ZM346.586 50.848L345.942 53.7782L345.977 53.7858L346.011 53.7925L346.586 50.848ZM340.609 49.192L339.64 52.031L339.65 52.0346L339.661 52.038L340.609 49.192ZM335.138 46.528L333.457 49.0129L333.473 49.0241L333.49 49.0351L335.138 46.528ZM331.177 42.208L328.552 43.6591L328.56 43.674L328.568 43.6888L331.177 42.208ZM332.258 26.944L329.783 25.2483L329.776 25.2583L332.258 26.944ZM340.105 20.752L338.901 18.0044L338.894 18.0075L338.887 18.0106L340.105 20.752ZM363.217 19.528L362.58 22.4595L363.217 19.528ZM372.146 22.84L374.916 23.9904L375.936 21.533L373.619 20.2265L372.146 22.84ZM367.034 35.152L365.692 37.8353L368.57 39.2744L369.804 36.3024L367.034 35.152ZM359.762 32.344L358.977 35.2397L358.985 35.2417L358.992 35.2437L359.762 32.344ZM349.105 31.84L348.243 28.9665L349.105 31.84ZM347.017 32.992L344.788 30.9851L344.729 31.0499L344.675 31.1179L347.017 32.992ZM347.953 36.664L346.561 39.3215L346.612 39.348L346.664 39.3726L347.953 36.664ZM351.914 37.888L351.309 40.8264L351.317 40.8281L351.325 40.8297L351.914 37.888ZM357.385 38.968L356.811 41.9125L356.824 41.915L357.385 38.968ZM363.362 40.552L362.392 43.391L363.362 40.552ZM368.762 43.216L367.081 45.7008L367.097 45.7121L367.114 45.7231L368.762 43.216ZM372.793 47.536L370.184 49.0168V49.0168L372.793 47.536ZM371.642 62.656L369.167 60.9603L369.16 60.9703L371.642 62.656ZM363.866 68.848L365.084 71.5894L365.1 71.5824L365.115 71.5752L363.866 68.848ZM350.833 71.152V68.152C346.839 68.152 342.998 67.6983 339.304 66.7974L338.594 69.712L337.883 72.6266C342.061 73.6457 346.38 74.152 350.833 74.152V71.152ZM338.594 69.712L339.304 66.7974C335.565 65.8853 332.632 64.7329 330.424 63.3998L328.874 65.968L327.323 68.5362C330.203 70.2751 333.75 71.6187 337.883 72.6266L338.594 69.712ZM328.874 65.968L331.618 67.1805L337.09 54.7965L334.345 53.584L331.601 52.3715L326.129 64.7555L328.874 65.968ZM334.345 53.584L332.84 56.1791C335.467 57.7023 338.354 58.9204 341.488 59.8453L342.337 56.968L343.187 54.0907C340.465 53.2876 338.025 52.2497 335.851 50.9889L334.345 53.584ZM342.337 56.968L341.544 59.8612C344.751 60.7405 347.898 61.192 350.978 61.192V58.192V55.192C348.489 55.192 345.876 54.8275 343.131 54.0748L342.337 56.968ZM350.978 58.192V61.192C352.687 61.192 354.2 61.0948 355.412 60.8396L354.793 57.904L354.175 54.9683C353.563 55.0972 352.532 55.192 350.978 55.192V58.192ZM354.793 57.904L355.521 60.8144C356.66 60.5297 357.909 60.0688 358.875 59.2102L356.882 56.968L354.888 54.7258C354.961 54.6616 354.961 54.6841 354.808 54.7525C354.661 54.8187 354.422 54.9045 354.066 54.9936L354.793 57.904ZM356.882 56.968L359.003 59.0893C359.96 58.1326 360.53 56.8797 360.53 55.456H357.53H354.53C354.53 55.3586 354.55 55.2244 354.61 55.0842C354.669 54.9476 354.737 54.8698 354.76 54.8467L356.882 56.968ZM357.53 55.456H360.53C360.53 53.1341 359.115 51.532 357.41 50.6385L356.017 53.296L354.625 55.9535C354.826 56.0584 354.786 56.0841 354.694 55.9524C354.646 55.8844 354.6 55.7958 354.569 55.6932C354.537 55.5917 354.53 55.5077 354.53 55.456H357.53ZM356.017 53.296L357.41 50.6385C356.055 49.9292 354.408 49.425 352.574 49.0583L351.986 52L351.397 54.9417C352.923 55.247 353.964 55.6068 354.625 55.9535L356.017 53.296ZM351.986 52L352.673 49.0798C350.997 48.6855 349.159 48.2935 347.16 47.9035L346.586 50.848L346.011 53.7925C347.948 54.1705 349.71 54.5465 351.298 54.9202L351.986 52ZM346.586 50.848L347.229 47.9178C345.369 47.5096 343.479 46.9863 341.558 46.346L340.609 49.192L339.661 52.038C341.772 52.7417 343.866 53.3224 345.942 53.7782L346.586 50.848ZM340.609 49.192L341.579 46.353C339.842 45.7598 338.247 44.9814 336.785 44.0209L335.138 46.528L333.49 49.0351C335.388 50.2826 337.441 51.2802 339.64 52.031L340.609 49.192ZM335.138 46.528L336.818 44.0431C335.583 43.2075 334.575 42.1166 333.787 40.7272L331.177 42.208L328.568 43.6888C329.796 45.8514 331.428 47.6405 333.457 49.0129L335.138 46.528ZM331.177 42.208L333.803 40.7569C333.102 39.4877 332.665 37.7638 332.665 35.44H329.665H326.665C326.665 38.4922 327.237 41.2803 328.552 43.6591L331.177 42.208ZM329.665 35.44H332.665C332.665 32.9118 333.354 30.6687 334.739 28.6296L332.258 26.944L329.776 25.2583C327.705 28.3073 326.665 31.7282 326.665 35.44H329.665ZM332.258 26.944L334.732 28.6397C336.136 26.5914 338.271 24.8501 341.324 23.4934L340.105 20.752L338.887 18.0106C335.028 19.7259 331.931 22.1126 329.783 25.2483L332.258 26.944ZM340.105 20.752L341.31 23.4996C344.325 22.178 348.229 21.448 353.138 21.448V18.448V15.448C347.678 15.448 342.894 16.254 338.901 18.0044L340.105 20.752ZM353.138 18.448V21.448C356.332 21.448 359.479 21.7853 362.58 22.4595L363.217 19.528L363.855 16.5965C360.332 15.8307 356.759 15.448 353.138 15.448V18.448ZM363.217 19.528L362.58 22.4595C365.634 23.1233 368.322 24.1289 370.672 25.4535L372.146 22.84L373.619 20.2265C370.689 18.5751 367.425 17.3727 363.855 16.5965L363.217 19.528ZM372.146 22.84L369.375 21.6896L364.263 34.0016L367.034 35.152L369.804 36.3024L374.916 23.9904L372.146 22.84ZM367.034 35.152L368.375 32.4687C365.722 31.1423 363.107 30.1277 360.531 29.4443L359.762 32.344L358.992 35.2437C361.12 35.8083 363.353 36.6657 365.692 37.8353L367.034 35.152ZM359.762 32.344L360.546 29.4483C358.007 28.7607 355.487 28.408 352.993 28.408V31.408V34.408C354.916 34.408 356.908 34.6793 358.977 35.2397L359.762 32.344ZM352.993 31.408V28.408C351.228 28.408 349.603 28.5588 348.243 28.9665L349.105 31.84L349.968 34.7135C350.528 34.5452 351.495 34.408 352.993 34.408V31.408ZM349.105 31.84L348.243 28.9665C347.023 29.3325 345.738 29.9297 344.788 30.9851L347.017 32.992L349.247 34.9989C349.195 35.0574 349.193 35.037 349.313 34.9707C349.433 34.9041 349.641 34.8114 349.968 34.7135L349.105 31.84ZM347.017 32.992L344.675 31.1179C343.896 32.0915 343.441 33.2712 343.441 34.576H346.441H349.441C349.441 34.6287 349.431 34.7003 349.405 34.7732C349.379 34.8438 349.353 34.8749 349.36 34.8661L347.017 32.992ZM346.441 34.576H343.441C343.441 36.9154 344.93 38.4669 346.561 39.3215L347.953 36.664L349.346 34.0065C349.125 33.8908 349.156 33.8576 349.249 33.9865C349.299 34.0551 349.352 34.1513 349.391 34.2702C349.429 34.3889 349.441 34.4959 349.441 34.576H346.441ZM347.953 36.664L346.664 39.3726C347.968 39.9939 349.544 40.463 351.309 40.8264L351.914 37.888L352.518 34.9496C351.019 34.641 349.955 34.2941 349.243 33.9554L347.953 36.664ZM351.914 37.888L351.325 40.8297C353.01 41.1668 354.839 41.5277 356.811 41.9125L357.385 38.968L357.96 36.0235C355.996 35.6403 354.177 35.2812 352.502 34.9463L351.914 37.888ZM357.385 38.968L356.824 41.915C358.7 42.2723 360.556 42.764 362.392 43.391L363.362 40.552L364.331 37.713C362.231 36.996 360.103 36.4317 357.947 36.021L357.385 38.968ZM363.362 40.552L362.392 43.391C364.122 43.9818 365.681 44.754 367.081 45.7008L368.762 43.216L370.442 40.7311C368.578 39.47 366.537 38.4662 364.331 37.7129L363.362 40.552ZM368.762 43.216L367.114 45.7231C368.39 46.5618 369.407 47.6475 370.184 49.0168L372.793 47.536L375.403 46.0552C374.164 43.8725 372.493 42.0782 370.409 40.7089L368.762 43.216ZM372.793 47.536L370.184 49.0168C370.872 50.2279 371.306 51.8908 371.306 54.16H374.306H377.306C377.306 51.1492 376.731 48.3961 375.403 46.0552L372.793 47.536ZM374.306 54.16H371.306C371.306 56.6122 370.609 58.8555 369.167 60.9603L371.642 62.656L374.116 64.3517C376.226 61.2725 377.306 57.8518 377.306 54.16H374.306ZM371.642 62.656L369.16 60.9703C367.805 62.9654 365.691 64.7114 362.616 66.1208L363.866 68.848L365.115 71.5752C368.952 69.8166 372.022 67.4346 374.123 64.3417L371.642 62.656ZM363.866 68.848L362.647 66.1066C359.692 67.42 355.796 68.152 350.833 68.152V71.152V74.152C356.335 74.152 361.127 73.348 365.084 71.5894L363.866 68.848Z" fill="url(#paint0_linear_264_145)" mask="url(#path-1-outside-1_264_145)"/>
<mask id="path-3-outside-2_264_145" maskUnits="userSpaceOnUse" x="1" y="113" width="557" height="60" fill="black">
<rect fill="white" x="1" y="113" width="557" height="60"/>
<path d="M4.104 168V117.6H21.096V168H4.104ZM29.2759 168V117.6H43.2439L68.8759 148.272H62.3959V117.6H78.9559V168H64.9879L39.3559 137.328H45.8359V168H29.2759ZM102.983 139.056H125.159V151.872H102.983V139.056ZM104.135 168H87.1431V117.6H128.111V130.416H104.135V168ZM159.551 169.152C155.471 169.152 151.679 168.504 148.175 167.208C144.719 165.912 141.719 164.088 139.175 161.736C136.631 159.336 134.639 156.528 133.199 153.312C131.807 150.096 131.111 146.592 131.111 142.8C131.111 138.96 131.807 135.456 133.199 132.288C134.639 129.072 136.631 126.288 139.175 123.936C141.719 121.536 144.719 119.688 148.175 118.392C151.679 117.096 155.471 116.448 159.551 116.448C163.679 116.448 167.471 117.096 170.927 118.392C174.383 119.688 177.383 121.536 179.927 123.936C182.471 126.288 184.439 129.072 185.831 132.288C187.271 135.456 187.991 138.96 187.991 142.8C187.991 146.592 187.271 150.096 185.831 153.312C184.439 156.528 182.471 159.336 179.927 161.736C177.383 164.088 174.383 165.912 170.927 167.208C167.471 168.504 163.679 169.152 159.551 169.152ZM159.551 155.4C161.135 155.4 162.599 155.112 163.943 154.536C165.335 153.96 166.535 153.144 167.543 152.088C168.599 150.984 169.415 149.664 169.991 148.128C170.567 146.544 170.855 144.768 170.855 142.8C170.855 140.832 170.567 139.08 169.991 137.544C169.415 135.96 168.599 134.64 167.543 133.584C166.535 132.48 165.335 131.64 163.943 131.064C162.599 130.488 161.135 130.2 159.551 130.2C157.967 130.2 156.479 130.488 155.087 131.064C153.743 131.64 152.543 132.48 151.487 133.584C150.479 134.64 149.687 135.96 149.111 137.544C148.535 139.08 148.247 140.832 148.247 142.8C148.247 144.768 148.535 146.544 149.111 148.128C149.687 149.664 150.479 150.984 151.487 152.088C152.543 153.144 153.743 153.96 155.087 154.536C156.479 155.112 157.967 155.4 159.551 155.4ZM194.159 168V117.6H218.423C223.127 117.6 227.183 118.368 230.591 119.904C234.047 121.44 236.711 123.648 238.583 126.528C240.455 129.36 241.391 132.72 241.391 136.608C241.391 140.496 240.455 143.856 238.583 146.688C236.711 149.472 234.047 151.608 230.591 153.096C227.183 154.584 223.127 155.328 218.423 155.328H203.591L211.151 148.344V168H194.159ZM224.327 168L211.943 149.64H229.943L242.471 168H224.327ZM211.151 150.216L203.591 142.512H217.343C219.695 142.512 221.423 141.984 222.527 140.928C223.679 139.872 224.255 138.432 224.255 136.608C224.255 134.784 223.679 133.344 222.527 132.288C221.423 131.232 219.695 130.704 217.343 130.704H203.591L211.151 123V150.216ZM247.807 168V117.6H261.775L281.935 150.504H274.591L294.175 117.6H308.143L308.287 168H292.807L292.663 140.928H295.111L281.719 163.464H274.231L260.263 140.928H263.287V168H247.807ZM311.03 168L333.062 117.6H349.766L371.798 168H354.23L337.958 125.664H344.582L328.31 168H311.03ZM324.134 159.216L328.454 146.976H351.638L355.958 159.216H324.134ZM382.923 168V130.776H368.163V117.6H414.675V130.776H399.915V168H382.923ZM419.088 168V117.6H436.08V168H419.088ZM470.684 169.152C466.604 169.152 462.812 168.504 459.308 167.208C455.852 165.912 452.852 164.088 450.308 161.736C447.764 159.336 445.772 156.528 444.332 153.312C442.94 150.096 442.244 146.592 442.244 142.8C442.244 138.96 442.94 135.456 444.332 132.288C445.772 129.072 447.764 126.288 450.308 123.936C452.852 121.536 455.852 119.688 459.308 118.392C462.812 117.096 466.604 116.448 470.684 116.448C474.812 116.448 478.604 117.096 482.06 118.392C485.516 119.688 488.516 121.536 491.06 123.936C493.604 126.288 495.572 129.072 496.964 132.288C498.404 135.456 499.124 138.96 499.124 142.8C499.124 146.592 498.404 150.096 496.964 153.312C495.572 156.528 493.604 159.336 491.06 161.736C488.516 164.088 485.516 165.912 482.06 167.208C478.604 168.504 474.812 169.152 470.684 169.152ZM470.684 155.4C472.268 155.4 473.732 155.112 475.076 154.536C476.468 153.96 477.668 153.144 478.676 152.088C479.732 150.984 480.548 149.664 481.124 148.128C481.7 146.544 481.988 144.768 481.988 142.8C481.988 140.832 481.7 139.08 481.124 137.544C480.548 135.96 479.732 134.64 478.676 133.584C477.668 132.48 476.468 131.64 475.076 131.064C473.732 130.488 472.268 130.2 470.684 130.2C469.1 130.2 467.612 130.488 466.22 131.064C464.876 131.64 463.676 132.48 462.62 133.584C461.612 134.64 460.82 135.96 460.244 137.544C459.668 139.08 459.38 140.832 459.38 142.8C459.38 144.768 459.668 146.544 460.244 148.128C460.82 149.664 461.612 150.984 462.62 152.088C463.676 153.144 464.876 153.96 466.22 154.536C467.612 155.112 469.1 155.4 470.684 155.4ZM505.292 168V117.6H519.26L544.892 148.272H538.412V117.6H554.972V168H541.004L515.372 137.328H521.852V168H505.292Z"/>
</mask>
<path d="M4.104 168H1.104V171H4.104V168ZM4.104 117.6V114.6H1.104V117.6H4.104ZM21.096 117.6H24.096V114.6H21.096V117.6ZM21.096 168V171H24.096V168H21.096ZM4.104 168H7.104V117.6H4.104H1.104V168H4.104ZM4.104 117.6V120.6H21.096V117.6V114.6H4.104V117.6ZM21.096 117.6H18.096V168H21.096H24.096V117.6H21.096ZM21.096 168V165H4.104V168V171H21.096V168ZM29.2759 168H26.2759V171H29.2759V168ZM29.2759 117.6V114.6H26.2759V117.6H29.2759ZM43.2439 117.6L45.5459 115.676L44.6465 114.6H43.2439V117.6ZM68.8759 148.272V151.272H75.2926L71.1779 146.348L68.8759 148.272ZM62.3959 148.272H59.3959V151.272H62.3959V148.272ZM62.3959 117.6V114.6H59.3959V117.6H62.3959ZM78.9559 117.6H81.9559V114.6H78.9559V117.6ZM78.9559 168V171H81.9559V168H78.9559ZM64.9879 168L62.6859 169.924L63.5853 171H64.9879V168ZM39.3559 137.328V134.328H32.9392L37.0539 139.252L39.3559 137.328ZM45.8359 137.328H48.8359V134.328H45.8359V137.328ZM45.8359 168V171H48.8359V168H45.8359ZM29.2759 168H32.2759V117.6H29.2759H26.2759V168H29.2759ZM29.2759 117.6V120.6H43.2439V117.6V114.6H29.2759V117.6ZM43.2439 117.6L40.9419 119.524L66.5739 150.196L68.8759 148.272L71.1779 146.348L45.5459 115.676L43.2439 117.6ZM68.8759 148.272V145.272H62.3959V148.272V151.272H68.8759V148.272ZM62.3959 148.272H65.3959V117.6H62.3959H59.3959V148.272H62.3959ZM62.3959 117.6V120.6H78.9559V117.6V114.6H62.3959V117.6ZM78.9559 117.6H75.9559V168H78.9559H81.9559V117.6H78.9559ZM78.9559 168V165H64.9879V168V171H78.9559V168ZM64.9879 168L67.2899 166.076L41.6579 135.404L39.3559 137.328L37.0539 139.252L62.6859 169.924L64.9879 168ZM39.3559 137.328V140.328H45.8359V137.328V134.328H39.3559V137.328ZM45.8359 137.328H42.8359V168H45.8359H48.8359V137.328H45.8359ZM45.8359 168V165H29.2759V168V171H45.8359V168ZM102.983 139.056V136.056H99.9831V139.056H102.983ZM125.159 139.056H128.159V136.056H125.159V139.056ZM125.159 151.872V154.872H128.159V151.872H125.159ZM102.983 151.872H99.9831V154.872H102.983V151.872ZM104.135 168V171H107.135V168H104.135ZM87.1431 168H84.1431V171H87.1431V168ZM87.1431 117.6V114.6H84.1431V117.6H87.1431ZM128.111 117.6H131.111V114.6H128.111V117.6ZM128.111 130.416V133.416H131.111V130.416H128.111ZM104.135 130.416V127.416H101.135V130.416H104.135ZM102.983 139.056V142.056H125.159V139.056V136.056H102.983V139.056ZM125.159 139.056H122.159V151.872H125.159H128.159V139.056H125.159ZM125.159 151.872V148.872H102.983V151.872V154.872H125.159V151.872ZM102.983 151.872H105.983V139.056H102.983H99.9831V151.872H102.983ZM104.135 168V165H87.1431V168V171H104.135V168ZM87.1431 168H90.1431V117.6H87.1431H84.1431V168H87.1431ZM87.1431 117.6V120.6H128.111V117.6V114.6H87.1431V117.6ZM128.111 117.6H125.111V130.416H128.111H131.111V117.6H128.111ZM128.111 130.416V127.416H104.135V130.416V133.416H128.111V130.416ZM104.135 130.416H101.135V168H104.135H107.135V130.416H104.135ZM148.175 167.208L147.122 170.017L147.135 170.022L148.175 167.208ZM139.175 161.736L137.117 163.918L137.128 163.929L137.139 163.939L139.175 161.736ZM133.199 153.312L130.446 154.504L130.454 154.521L130.461 154.538L133.199 153.312ZM133.199 132.288L130.461 131.062L130.457 131.072L130.453 131.081L133.199 132.288ZM139.175 123.936L141.212 126.139L141.223 126.129L141.234 126.118L139.175 123.936ZM148.175 118.392L147.135 115.578L147.122 115.583L148.175 118.392ZM170.927 118.392L169.874 121.201L170.927 118.392ZM179.927 123.936L177.869 126.118L177.88 126.129L177.891 126.139L179.927 123.936ZM185.831 132.288L183.078 133.48L183.089 133.505L183.1 133.529L185.831 132.288ZM185.831 153.312L183.093 152.086L183.086 152.103L183.078 152.12L185.831 153.312ZM179.927 161.736L181.964 163.939L181.975 163.929L181.986 163.918L179.927 161.736ZM170.927 167.208L169.874 164.399L170.927 167.208ZM163.943 154.536L162.796 151.764L162.779 151.771L162.762 151.779L163.943 154.536ZM167.543 152.088L165.376 150.014L165.373 150.017L167.543 152.088ZM169.991 148.128L172.8 149.181L172.806 149.167L172.811 149.153L169.991 148.128ZM169.991 137.544L167.172 138.569L167.177 138.583L167.182 138.597L169.991 137.544ZM167.543 133.584L165.328 135.607L165.374 135.657L165.422 135.705L167.543 133.584ZM163.943 131.064L162.762 133.821L162.779 133.829L162.796 133.836L163.943 131.064ZM155.087 131.064L153.94 128.292L153.923 128.299L153.906 128.307L155.087 131.064ZM151.487 133.584L149.32 131.51L149.317 131.513L151.487 133.584ZM149.111 137.544L151.92 138.597L151.926 138.583L151.931 138.569L149.111 137.544ZM149.111 148.128L146.292 149.153L146.297 149.167L146.302 149.181L149.111 148.128ZM151.487 152.088L149.272 154.111L149.318 154.161L149.366 154.209L151.487 152.088ZM155.087 154.536L153.906 157.293L153.923 157.301L153.94 157.308L155.087 154.536ZM159.551 169.152V166.152C155.794 166.152 152.358 165.556 149.216 164.394L148.175 167.208L147.135 170.022C151.001 171.452 155.149 172.152 159.551 172.152V169.152ZM148.175 167.208L149.229 164.399C146.113 163.23 143.452 161.604 141.212 159.533L139.175 161.736L137.139 163.939C139.987 166.572 143.326 168.594 147.122 170.017L148.175 167.208ZM139.175 161.736L141.234 159.554C138.979 157.427 137.217 154.944 135.937 152.086L133.199 153.312L130.461 154.538C132.061 158.112 134.283 161.245 137.117 163.918L139.175 161.736ZM133.199 153.312L135.953 152.12C134.736 149.311 134.111 146.216 134.111 142.8H131.111H128.111C128.111 146.968 128.878 150.881 130.446 154.504L133.199 153.312ZM131.111 142.8H134.111C134.111 139.33 134.739 136.243 135.946 133.495L133.199 132.288L130.453 131.081C128.876 134.669 128.111 138.59 128.111 142.8H131.111ZM133.199 132.288L135.937 133.514C137.215 130.661 138.971 128.211 141.212 126.139L139.175 123.936L137.139 121.733C134.292 124.365 132.064 127.483 130.461 131.062L133.199 132.288ZM139.175 123.936L141.234 126.118C143.472 124.007 146.125 122.365 149.229 121.201L148.175 118.392L147.122 115.583C143.314 117.011 139.967 119.065 137.117 121.754L139.175 123.936ZM148.175 118.392L149.216 121.206C152.358 120.044 155.794 119.448 159.551 119.448V116.448V113.448C155.149 113.448 151.001 114.148 147.135 115.578L148.175 118.392ZM159.551 116.448V119.448C163.362 119.448 166.792 120.045 169.874 121.201L170.927 118.392L171.981 115.583C168.15 114.147 163.997 113.448 159.551 113.448V116.448ZM170.927 118.392L169.874 121.201C172.978 122.365 175.631 124.007 177.869 126.118L179.927 123.936L181.986 121.754C179.136 119.065 175.789 117.011 171.981 115.583L170.927 118.392ZM179.927 123.936L177.891 126.139C180.125 128.204 181.85 130.642 183.078 133.48L185.831 132.288L188.585 131.096C187.029 127.502 184.818 124.372 181.964 121.733L179.927 123.936ZM185.831 132.288L183.1 133.529C184.346 136.269 184.991 139.344 184.991 142.8H187.991H190.991C190.991 138.576 190.197 134.643 188.563 131.047L185.831 132.288ZM187.991 142.8H184.991C184.991 146.202 184.348 149.284 183.093 152.086L185.831 153.312L188.569 154.538C190.195 150.908 190.991 146.982 190.991 142.8H187.991ZM185.831 153.312L183.078 152.12C181.848 154.963 180.116 157.434 177.869 159.554L179.927 161.736L181.986 163.918C184.827 161.238 187.031 158.093 188.585 154.504L185.831 153.312ZM179.927 161.736L177.891 159.533C175.651 161.604 172.99 163.23 169.874 164.399L170.927 167.208L171.981 170.017C175.777 168.594 179.116 166.572 181.964 163.939L179.927 161.736ZM170.927 167.208L169.874 164.399C166.792 165.555 163.362 166.152 159.551 166.152V169.152V172.152C163.997 172.152 168.15 171.453 171.981 170.017L170.927 167.208ZM159.551 155.4V158.4C161.508 158.4 163.378 158.042 165.125 157.293L163.943 154.536L162.762 151.779C161.821 152.182 160.763 152.4 159.551 152.4V155.4ZM163.943 154.536L165.09 157.308C166.856 156.578 168.408 155.527 169.714 154.159L167.543 152.088L165.373 150.017C164.663 150.761 163.815 151.342 162.796 151.764L163.943 154.536ZM167.543 152.088L169.711 154.162C171.068 152.743 172.093 151.069 172.8 149.181L169.991 148.128L167.182 147.075C166.738 148.259 166.131 149.225 165.376 150.014L167.543 152.088ZM169.991 148.128L172.811 149.153C173.524 147.191 173.855 145.06 173.855 142.8H170.855H167.855C167.855 144.476 167.61 145.897 167.172 147.103L169.991 148.128ZM170.855 142.8H173.855C173.855 140.542 173.525 138.423 172.8 136.491L169.991 137.544L167.182 138.597C167.61 139.737 167.855 141.122 167.855 142.8H170.855ZM169.991 137.544L172.811 136.519C172.104 134.576 171.068 132.866 169.665 131.463L167.543 133.584L165.422 135.705C166.13 136.414 166.727 137.344 167.172 138.569L169.991 137.544ZM167.543 133.584L169.759 131.561C168.452 130.129 166.886 129.035 165.09 128.292L163.943 131.064L162.796 133.836C163.785 134.245 164.619 134.831 165.328 135.607L167.543 133.584ZM163.943 131.064L165.125 128.307C163.378 127.558 161.508 127.2 159.551 127.2V130.2V133.2C160.763 133.2 161.821 133.418 162.762 133.821L163.943 131.064ZM159.551 130.2V127.2C157.594 127.2 155.715 127.558 153.94 128.292L155.087 131.064L156.234 133.836C157.244 133.418 158.34 133.2 159.551 133.2V130.2ZM155.087 131.064L153.906 128.307C152.174 129.049 150.642 130.128 149.32 131.51L151.487 133.584L153.655 135.658C154.445 134.832 155.313 134.231 156.269 133.821L155.087 131.064ZM151.487 133.584L149.317 131.513C147.982 132.912 146.988 134.605 146.292 136.519L149.111 137.544L151.931 138.569C152.387 137.315 152.977 136.368 153.658 135.655L151.487 133.584ZM149.111 137.544L146.302 136.491C145.578 138.423 145.247 140.542 145.247 142.8H148.247H151.247C151.247 141.122 151.493 139.737 151.92 138.597L149.111 137.544ZM148.247 142.8H145.247C145.247 145.06 145.578 147.191 146.292 149.153L149.111 148.128L151.931 147.103C151.492 145.897 151.247 144.476 151.247 142.8H148.247ZM149.111 148.128L146.302 149.181C147 151.04 147.982 152.698 149.272 154.111L151.487 152.088L153.703 150.065C152.977 149.27 152.375 148.288 151.92 147.075L149.111 148.128ZM151.487 152.088L149.366 154.209C150.686 155.529 152.203 156.564 153.906 157.293L155.087 154.536L156.269 151.779C155.284 151.356 154.401 150.759 153.609 149.967L151.487 152.088ZM155.087 154.536L153.94 157.308C155.715 158.042 157.594 158.4 159.551 158.4V155.4V152.4C158.34 152.4 157.244 152.182 156.234 151.764L155.087 154.536ZM194.159 168H191.159V171H194.159V168ZM194.159 117.6V114.6H191.159V117.6H194.159ZM230.591 119.904L229.358 122.639L229.365 122.642L229.372 122.645L230.591 119.904ZM238.583 126.528L236.067 128.163L236.074 128.173L236.08 128.182L238.583 126.528ZM238.583 146.688L241.072 148.362L241.079 148.352L241.085 148.342L238.583 146.688ZM230.591 153.096L229.404 150.341L229.397 150.344L229.39 150.347L230.591 153.096ZM203.591 155.328L201.555 153.124L195.922 158.328H203.591V155.328ZM211.151 148.344H214.151V141.488L209.115 146.14L211.151 148.344ZM211.151 168V171H214.151V168H211.151ZM224.327 168L221.84 169.678L222.732 171H224.327V168ZM211.943 149.64V146.64H206.301L209.456 151.318L211.943 149.64ZM229.943 149.64L232.421 147.949L231.527 146.64H229.943V149.64ZM242.471 168V171H248.15L244.949 166.309L242.471 168ZM211.151 150.216L209.009 152.317L214.151 157.556V150.216H211.151ZM203.591 142.512V139.512H196.444L201.449 144.613L203.591 142.512ZM222.527 140.928L220.5 138.717L220.476 138.738L220.453 138.76L222.527 140.928ZM222.527 132.288L220.453 134.456L220.476 134.478L220.5 134.499L222.527 132.288ZM203.591 130.704L201.449 128.603L196.444 133.704H203.591V130.704ZM211.151 123H214.151V115.66L209.009 120.899L211.151 123ZM194.159 168H197.159V117.6H194.159H191.159V168H194.159ZM194.159 117.6V120.6H218.423V117.6V114.6H194.159V117.6ZM218.423 117.6V120.6C222.808 120.6 226.424 121.317 229.358 122.639L230.591 119.904L231.823 117.169C227.941 115.419 223.445 114.6 218.423 114.6V117.6ZM230.591 119.904L229.372 122.645C232.354 123.971 234.543 125.818 236.067 128.163L238.583 126.528L241.098 124.893C238.878 121.478 235.74 118.909 231.809 117.163L230.591 119.904ZM238.583 126.528L236.08 128.182C237.582 130.455 238.391 133.22 238.391 136.608H241.391H244.391C244.391 132.22 243.327 128.265 241.085 124.874L238.583 126.528ZM241.391 136.608H238.391C238.391 139.996 237.582 142.761 236.08 145.034L238.583 146.688L241.085 148.342C243.327 144.951 244.391 140.996 244.391 136.608H241.391ZM238.583 146.688L236.093 145.014C234.581 147.263 232.397 149.052 229.404 150.341L230.591 153.096L231.777 155.851C235.696 154.164 238.841 151.681 241.072 148.362L238.583 146.688ZM230.591 153.096L229.39 150.347C226.447 151.632 222.819 152.328 218.423 152.328V155.328V158.328C223.434 158.328 227.918 157.536 231.791 155.845L230.591 153.096ZM218.423 155.328V152.328H203.591V155.328V158.328H218.423V155.328ZM203.591 155.328L205.626 157.532L213.186 150.548L211.151 148.344L209.115 146.14L201.555 153.124L203.591 155.328ZM211.151 148.344H208.151V168H211.151H214.151V148.344H211.151ZM211.151 168V165H194.159V168V171H211.151V168ZM224.327 168L226.814 166.322L214.43 147.962L211.943 149.64L209.456 151.318L221.84 169.678L224.327 168ZM211.943 149.64V152.64H229.943V149.64V146.64H211.943V149.64ZM229.943 149.64L227.465 151.331L239.993 169.691L242.471 168L244.949 166.309L232.421 147.949L229.943 149.64ZM242.471 168V165H224.327V168V171H242.471V168ZM211.151 150.216L213.292 148.115L205.732 140.411L203.591 142.512L201.449 144.613L209.009 152.317L211.151 150.216ZM203.591 142.512V145.512H217.343V142.512V139.512H203.591V142.512ZM217.343 142.512V145.512C220.062 145.512 222.702 144.912 224.6 143.096L222.527 140.928L220.453 138.76C220.144 139.056 219.327 139.512 217.343 139.512V142.512ZM222.527 140.928L224.554 143.139C226.431 141.419 227.255 139.119 227.255 136.608H224.255H221.255C221.255 137.745 220.927 138.325 220.5 138.717L222.527 140.928ZM224.255 136.608H227.255C227.255 134.097 226.431 131.797 224.554 130.077L222.527 132.288L220.5 134.499C220.927 134.891 221.255 135.471 221.255 136.608H224.255ZM222.527 132.288L224.6 130.12C222.702 128.304 220.062 127.704 217.343 127.704V130.704V133.704C219.327 133.704 220.144 134.16 220.453 134.456L222.527 132.288ZM217.343 130.704V127.704H203.591V130.704V133.704H217.343V130.704ZM203.591 130.704L205.732 132.805L213.292 125.101L211.151 123L209.009 120.899L201.449 128.603L203.591 130.704ZM211.151 123H208.151V150.216H211.151H214.151V123H211.151ZM247.807 168H244.807V171H247.807V168ZM247.807 117.6V114.6H244.807V117.6H247.807ZM261.775 117.6L264.333 116.033L263.455 114.6H261.775V117.6ZM281.935 150.504V153.504H287.292L284.493 148.937L281.935 150.504ZM274.591 150.504L272.013 148.97L269.314 153.504H274.591V150.504ZM294.175 117.6V114.6H292.47L291.597 116.066L294.175 117.6ZM308.143 117.6L311.143 117.591L311.135 114.6H308.143V117.6ZM308.287 168V171H311.296L311.287 167.991L308.287 168ZM292.807 168L289.807 168.016L289.823 171H292.807V168ZM292.663 140.928V137.928H289.647L289.663 140.944L292.663 140.928ZM295.111 140.928L297.69 142.461L300.384 137.928H295.111V140.928ZM281.719 163.464V166.464H283.426L284.298 164.997L281.719 163.464ZM274.231 163.464L271.681 165.044L272.561 166.464H274.231V163.464ZM260.263 140.928V137.928H254.874L257.713 142.508L260.263 140.928ZM263.287 140.928H266.287V137.928H263.287V140.928ZM263.287 168V171H266.287V168H263.287ZM247.807 168H250.807V117.6H247.807H244.807V168H247.807ZM247.807 117.6V120.6H261.775V117.6V114.6H247.807V117.6ZM261.775 117.6L259.217 119.167L279.377 152.071L281.935 150.504L284.493 148.937L264.333 116.033L261.775 117.6ZM281.935 150.504V147.504H274.591V150.504V153.504H281.935V150.504ZM274.591 150.504L277.169 152.038L296.753 119.134L294.175 117.6L291.597 116.066L272.013 148.97L274.591 150.504ZM294.175 117.6V120.6H308.143V117.6V114.6H294.175V117.6ZM308.143 117.6L305.143 117.609L305.287 168.009L308.287 168L311.287 167.991L311.143 117.591L308.143 117.6ZM308.287 168V165H292.807V168V171H308.287V168ZM292.807 168L295.807 167.984L295.663 140.912L292.663 140.928L289.663 140.944L289.807 168.016L292.807 168ZM292.663 140.928V143.928H295.111V140.928V137.928H292.663V140.928ZM295.111 140.928L292.532 139.395L279.14 161.931L281.719 163.464L284.298 164.997L297.69 142.461L295.111 140.928ZM281.719 163.464V160.464H274.231V163.464V166.464H281.719V163.464ZM274.231 163.464L276.781 161.884L262.813 139.348L260.263 140.928L257.713 142.508L271.681 165.044L274.231 163.464ZM260.263 140.928V143.928H263.287V140.928V137.928H260.263V140.928ZM263.287 140.928H260.287V168H263.287H266.287V140.928H263.287ZM263.287 168V165H247.807V168V171H263.287V168ZM311.03 168L308.282 166.798L306.445 171H311.03V168ZM333.062 117.6V114.6H331.1L330.314 116.398L333.062 117.6ZM349.766 117.6L352.515 116.398L351.729 114.6H349.766V117.6ZM371.798 168V171H376.384L374.547 166.798L371.798 168ZM354.23 168L351.43 169.076L352.17 171H354.23V168ZM337.958 125.664V122.664H333.591L335.158 126.74L337.958 125.664ZM344.582 125.664L347.383 126.74L348.949 122.664H344.582V125.664ZM328.31 168V171H330.371L331.111 169.076L328.31 168ZM324.134 159.216L321.305 158.218L319.894 162.216H324.134V159.216ZM328.454 146.976V143.976H326.332L325.625 145.978L328.454 146.976ZM351.638 146.976L354.467 145.978L353.761 143.976H351.638V146.976ZM355.958 159.216V162.216H360.199L358.787 158.218L355.958 159.216ZM311.03 168L313.779 169.202L335.811 118.802L333.062 117.6L330.314 116.398L308.282 166.798L311.03 168ZM333.062 117.6V120.6H349.766V117.6V114.6H333.062V117.6ZM349.766 117.6L347.018 118.802L369.05 169.202L371.798 168L374.547 166.798L352.515 116.398L349.766 117.6ZM371.798 168V165H354.23V168V171H371.798V168ZM354.23 168L357.031 166.924L340.759 124.588L337.958 125.664L335.158 126.74L351.43 169.076L354.23 168ZM337.958 125.664V128.664H344.582V125.664V122.664H337.958V125.664ZM344.582 125.664L341.782 124.588L325.51 166.924L328.31 168L331.111 169.076L347.383 126.74L344.582 125.664ZM328.31 168V165H311.03V168V171H328.31V168ZM324.134 159.216L326.963 160.214L331.283 147.974L328.454 146.976L325.625 145.978L321.305 158.218L324.134 159.216ZM328.454 146.976V149.976H351.638V146.976V143.976H328.454V146.976ZM351.638 146.976L348.809 147.974L353.129 160.214L355.958 159.216L358.787 158.218L354.467 145.978L351.638 146.976ZM355.958 159.216V156.216H324.134V159.216V162.216H355.958V159.216ZM382.923 168H379.923V171H382.923V168ZM382.923 130.776H385.923V127.776H382.923V130.776ZM368.163 130.776H365.163V133.776H368.163V130.776ZM368.163 117.6V114.6H365.163V117.6H368.163ZM414.675 117.6H417.675V114.6H414.675V117.6ZM414.675 130.776V133.776H417.675V130.776H414.675ZM399.915 130.776V127.776H396.915V130.776H399.915ZM399.915 168V171H402.915V168H399.915ZM382.923 168H385.923V130.776H382.923H379.923V168H382.923ZM382.923 130.776V127.776H368.163V130.776V133.776H382.923V130.776ZM368.163 130.776H371.163V117.6H368.163H365.163V130.776H368.163ZM368.163 117.6V120.6H414.675V117.6V114.6H368.163V117.6ZM414.675 117.6H411.675V130.776H414.675H417.675V117.6H414.675ZM414.675 130.776V127.776H399.915V130.776V133.776H414.675V130.776ZM399.915 130.776H396.915V168H399.915H402.915V130.776H399.915ZM399.915 168V165H382.923V168V171H399.915V168ZM419.088 168H416.088V171H419.088V168ZM419.088 117.6V114.6H416.088V117.6H419.088ZM436.08 117.6H439.08V114.6H436.08V117.6ZM436.08 168V171H439.08V168H436.08ZM419.088 168H422.088V117.6H419.088H416.088V168H419.088ZM419.088 117.6V120.6H436.08V117.6V114.6H419.088V117.6ZM436.08 117.6H433.08V168H436.08H439.08V117.6H436.08ZM436.08 168V165H419.088V168V171H436.08V168ZM459.308 167.208L458.255 170.017L458.268 170.022L459.308 167.208ZM450.308 161.736L448.25 163.918L448.261 163.929L448.272 163.939L450.308 161.736ZM444.332 153.312L441.579 154.504L441.587 154.521L441.594 154.538L444.332 153.312ZM444.332 132.288L441.594 131.062L441.59 131.072L441.586 131.081L444.332 132.288ZM450.308 123.936L452.345 126.139L452.356 126.129L452.367 126.118L450.308 123.936ZM459.308 118.392L458.268 115.578L458.255 115.583L459.308 118.392ZM482.06 118.392L481.007 121.201H481.007L482.06 118.392ZM491.06 123.936L489.002 126.118L489.013 126.129L489.024 126.139L491.06 123.936ZM496.964 132.288L494.211 133.48L494.222 133.505L494.233 133.529L496.964 132.288ZM496.964 153.312L494.226 152.086L494.219 152.103L494.211 152.12L496.964 153.312ZM491.06 161.736L493.097 163.939L493.108 163.929L493.119 163.918L491.06 161.736ZM482.06 167.208L481.007 164.399L482.06 167.208ZM475.076 154.536L473.929 151.764L473.912 151.771L473.895 151.779L475.076 154.536ZM478.676 152.088L476.508 150.014L476.506 150.017L478.676 152.088ZM481.124 148.128L483.933 149.181L483.939 149.167L483.944 149.153L481.124 148.128ZM481.124 137.544L478.305 138.569L478.31 138.583L478.315 138.597L481.124 137.544ZM478.676 133.584L476.461 135.607L476.507 135.657L476.555 135.705L478.676 133.584ZM475.076 131.064L473.895 133.821L473.912 133.829L473.929 133.836L475.076 131.064ZM466.22 131.064L465.073 128.292L465.056 128.299L465.038 128.307L466.22 131.064ZM462.62 133.584L460.452 131.51L460.45 131.513L462.62 133.584ZM460.244 137.544L463.053 138.597L463.059 138.583L463.064 138.569L460.244 137.544ZM460.244 148.128L457.425 149.153L457.43 149.167L457.435 149.181L460.244 148.128ZM462.62 152.088L460.405 154.111L460.451 154.161L460.499 154.209L462.62 152.088ZM466.22 154.536L465.038 157.293L465.056 157.301L465.073 157.308L466.22 154.536ZM470.684 169.152V166.152C466.927 166.152 463.49 165.556 460.349 164.394L459.308 167.208L458.268 170.022C462.134 171.452 466.282 172.152 470.684 172.152V169.152ZM459.308 167.208L460.362 164.399C457.245 163.23 454.585 161.604 452.345 159.533L450.308 161.736L448.272 163.939C451.119 166.572 454.459 168.594 458.255 170.017L459.308 167.208ZM450.308 161.736L452.367 159.554C450.112 157.427 448.35 154.944 447.07 152.086L444.332 153.312L441.594 154.538C443.194 158.112 445.416 161.245 448.25 163.918L450.308 161.736ZM444.332 153.312L447.085 152.12C445.869 149.311 445.244 146.216 445.244 142.8H442.244H439.244C439.244 146.968 440.011 150.881 441.579 154.504L444.332 153.312ZM442.244 142.8H445.244C445.244 139.33 445.871 136.243 447.079 133.495L444.332 132.288L441.586 131.081C440.009 134.669 439.244 138.59 439.244 142.8H442.244ZM444.332 132.288L447.07 133.514C448.348 130.661 450.103 128.211 452.345 126.139L450.308 123.936L448.272 121.733C445.425 124.365 443.197 127.483 441.594 131.062L444.332 132.288ZM450.308 123.936L452.367 126.118C454.605 124.007 457.258 122.365 460.362 121.201L459.308 118.392L458.255 115.583C454.446 117.011 451.1 119.065 448.25 121.754L450.308 123.936ZM459.308 118.392L460.349 121.206C463.49 120.044 466.927 119.448 470.684 119.448V116.448V113.448C466.282 113.448 462.134 114.148 458.268 115.578L459.308 118.392ZM470.684 116.448V119.448C474.495 119.448 477.925 120.045 481.007 121.201L482.06 118.392L483.114 115.583C479.283 114.147 475.13 113.448 470.684 113.448V116.448ZM482.06 118.392L481.007 121.201C484.11 122.365 486.764 124.007 489.002 126.118L491.06 123.936L493.119 121.754C490.269 119.065 486.922 117.011 483.114 115.583L482.06 118.392ZM491.06 123.936L489.024 126.139C491.257 128.204 492.983 130.642 494.211 133.48L496.964 132.288L499.717 131.096C498.161 127.502 495.951 124.372 493.097 121.733L491.06 123.936ZM496.964 132.288L494.233 133.529C495.478 136.269 496.124 139.344 496.124 142.8H499.124H502.124C502.124 138.576 501.33 134.643 499.695 131.047L496.964 132.288ZM499.124 142.8H496.124C496.124 146.202 495.481 149.284 494.226 152.086L496.964 153.312L499.702 154.538C501.328 150.908 502.124 146.982 502.124 142.8H499.124ZM496.964 153.312L494.211 152.12C492.981 154.963 491.249 157.434 489.002 159.554L491.06 161.736L493.119 163.918C495.96 161.238 498.164 158.093 499.717 154.504L496.964 153.312ZM491.06 161.736L489.024 159.533C486.783 161.604 484.123 163.23 481.007 164.399L482.06 167.208L483.114 170.017C486.909 168.594 490.249 166.572 493.097 163.939L491.06 161.736ZM482.06 167.208L481.007 164.399C477.925 165.555 474.495 166.152 470.684 166.152V169.152V172.152C475.13 172.152 479.283 171.453 483.114 170.017L482.06 167.208ZM470.684 155.4V158.4C472.64 158.4 474.51 158.042 476.258 157.293L475.076 154.536L473.895 151.779C472.954 152.182 471.896 152.4 470.684 152.4V155.4ZM475.076 154.536L476.223 157.308C477.989 156.578 479.541 155.527 480.846 154.159L478.676 152.088L476.506 150.017C475.796 150.761 474.948 151.342 473.929 151.764L475.076 154.536ZM478.676 152.088L480.844 154.162C482.201 152.743 483.225 151.069 483.933 149.181L481.124 148.128L478.315 147.075C477.871 148.259 477.264 149.225 476.508 150.014L478.676 152.088ZM481.124 148.128L483.944 149.153C484.657 147.191 484.988 145.06 484.988 142.8H481.988H478.988C478.988 144.476 478.743 145.897 478.305 147.103L481.124 148.128ZM481.988 142.8H484.988C484.988 140.542 484.658 138.423 483.933 136.491L481.124 137.544L478.315 138.597C478.743 139.737 478.988 141.122 478.988 142.8H481.988ZM481.124 137.544L483.944 136.519C483.237 134.576 482.201 132.866 480.798 131.463L478.676 133.584L476.555 135.705C477.263 136.414 477.859 137.344 478.305 138.569L481.124 137.544ZM478.676 133.584L480.892 131.561C479.585 130.129 478.019 129.035 476.223 128.292L475.076 131.064L473.929 133.836C474.918 134.245 475.752 134.831 476.461 135.607L478.676 133.584ZM475.076 131.064L476.258 128.307C474.51 127.558 472.64 127.2 470.684 127.2V130.2V133.2C471.896 133.2 472.954 133.418 473.895 133.821L475.076 131.064ZM470.684 130.2V127.2C468.727 127.2 466.847 127.558 465.073 128.292L466.22 131.064L467.367 133.836C468.377 133.418 469.473 133.2 470.684 133.2V130.2ZM466.22 131.064L465.038 128.307C463.306 129.049 461.775 130.128 460.452 131.51L462.62 133.584L464.788 135.658C465.578 134.832 466.446 134.231 467.402 133.821L466.22 131.064ZM462.62 133.584L460.45 131.513C459.115 132.912 458.121 134.605 457.425 136.519L460.244 137.544L463.064 138.569C463.52 137.315 464.11 136.368 464.79 135.655L462.62 133.584ZM460.244 137.544L457.435 136.491C456.711 138.423 456.38 140.542 456.38 142.8H459.38H462.38C462.38 141.122 462.626 139.737 463.053 138.597L460.244 137.544ZM459.38 142.8H456.38C456.38 145.06 456.711 147.191 457.425 149.153L460.244 148.128L463.064 147.103C462.625 145.897 462.38 144.476 462.38 142.8H459.38ZM460.244 148.128L457.435 149.181C458.132 151.04 459.115 152.698 460.405 154.111L462.62 152.088L464.836 150.065C464.11 149.27 463.508 148.288 463.053 147.075L460.244 148.128ZM462.62 152.088L460.499 154.209C461.819 155.529 463.336 156.564 465.038 157.293L466.22 154.536L467.402 151.779C466.416 151.356 465.534 150.759 464.742 149.967L462.62 152.088ZM466.22 154.536L465.073 157.308C466.847 158.042 468.727 158.4 470.684 158.4V155.4V152.4C469.473 152.4 468.377 152.182 467.367 151.764L466.22 154.536ZM505.292 168H502.292V171H505.292V168ZM505.292 117.6V114.6H502.292V117.6H505.292ZM519.26 117.6L521.562 115.676L520.662 114.6H519.26V117.6ZM544.891 148.272V151.272H551.308L547.193 146.348L544.891 148.272ZM538.411 148.272H535.411V151.272H538.411V148.272ZM538.411 117.6V114.6H535.411V117.6H538.411ZM554.971 117.6H557.971V114.6H554.971V117.6ZM554.971 168V171H557.971V168H554.971ZM541.003 168L538.701 169.924L539.601 171H541.003V168ZM515.372 137.328V134.328H508.955L513.07 139.252L515.372 137.328ZM521.852 137.328H524.852V134.328H521.852V137.328ZM521.852 168V171H524.852V168H521.852ZM505.292 168H508.292V117.6H505.292H502.292V168H505.292ZM505.292 117.6V120.6H519.26V117.6V114.6H505.292V117.6ZM519.26 117.6L516.958 119.524L542.589 150.196L544.891 148.272L547.193 146.348L521.562 115.676L519.26 117.6ZM544.891 148.272V145.272H538.411V148.272V151.272H544.891V148.272ZM538.411 148.272H541.411V117.6H538.411H535.411V148.272H538.411ZM538.411 117.6V120.6H554.971V117.6V114.6H538.411V117.6ZM554.971 117.6H551.971V168H554.971H557.971V117.6H554.971ZM554.971 168V165H541.003V168V171H554.971V168ZM541.003 168L543.305 166.076L517.674 135.404L515.372 137.328L513.07 139.252L538.701 169.924L541.003 168ZM515.372 137.328V140.328H521.852V137.328V134.328H515.372V137.328ZM521.852 137.328H518.852V168H521.852H524.852V137.328H521.852ZM521.852 168V165H505.292V168V171H521.852V168Z" fill="url(#paint1_linear_264_145)" mask="url(#path-3-outside-2_264_145)"/>
<defs>
<linearGradient id="paint0_linear_264_145" x1="220.5" y1="0" x2="220.5" y2="88" gradientUnits="userSpaceOnUse">
<stop stop-color="#E51D25"/>
<stop offset="1" stop-color="#1D3A69"/>
</linearGradient>
<linearGradient id="paint1_linear_264_145" x1="284" y1="98" x2="284" y2="186" gradientUnits="userSpaceOnUse">
<stop stop-color="#E51D25"/>
<stop offset="1" stop-color="#1D3A69"/>
</linearGradient>
</defs>
</svg>
