<svg width="501" height="43" viewBox="0 0 501 43" fill="none" xmlns="http://www.w3.org/2000/svg">
<mask id="path-1-outside-1_419_9115" maskUnits="userSpaceOnUse" x="0" y="0" width="501" height="43" fill="black">
<rect fill="white" width="501" height="43"/>
<path d="M20.1332 39L5.3332 4H18.0332L30.0832 33.55H22.5332L34.9332 4H46.5332L31.7332 39H20.1332ZM47.7074 39V4H59.5074V39H47.7074ZM74.0379 39.8C71.3046 39.8 68.8379 39.3667 66.6379 38.5C64.4379 37.6 62.6046 36.3 61.1379 34.6L67.4879 27.1C68.4212 28.2333 69.3379 29.1 70.2379 29.7C71.1379 30.2667 72.0712 30.55 73.0379 30.55C75.5712 30.55 76.8379 29.1 76.8379 26.2V12.9H64.9379V4H88.4879V25.5C88.4879 30.3 87.2546 33.8833 84.7879 36.25C82.3212 38.6167 78.7379 39.8 74.0379 39.8ZM89.3664 39L104.666 4H116.266L131.566 39H119.366L108.066 9.6H112.666L101.366 39H89.3664ZM98.4664 32.9L101.466 24.4H117.566L120.566 32.9H98.4664ZM140.204 39V23.65L142.904 30.7L127.004 4H139.454L150.204 22.25H142.954L153.804 4H165.204L149.404 30.7L152.004 23.65V39H140.204ZM181.692 39V4H198.942C202.842 4 206.275 4.71666 209.242 6.15C212.208 7.55 214.525 9.55 216.192 12.15C217.858 14.75 218.692 17.85 218.692 21.45C218.692 25.0833 217.858 28.2167 216.192 30.85C214.525 33.45 212.208 35.4667 209.242 36.9C206.275 38.3 202.842 39 198.942 39H181.692ZM193.492 29.8H198.442C200.108 29.8 201.558 29.4833 202.792 28.85C204.058 28.2167 205.042 27.2833 205.742 26.05C206.442 24.7833 206.792 23.25 206.792 21.45C206.792 19.6833 206.442 18.1833 205.742 16.95C205.042 15.7167 204.058 14.7833 202.792 14.15C201.558 13.5167 200.108 13.2 198.442 13.2H193.492V29.8ZM223 39V4H234.8V39H223ZM249.331 39L238.131 4H250.281L259.331 33.55H253.231L262.831 4H273.681L282.631 33.55H276.781L286.231 4H297.431L286.231 39H273.581L266.281 14.8H269.681L261.981 39H249.331ZM294.982 39L310.282 4H321.882L337.182 39H324.982L313.682 9.6H318.282L306.982 39H294.982ZM304.082 32.9L307.082 24.4H323.182L326.182 32.9H304.082ZM352.115 39.8C349.182 39.8 346.348 39.4667 343.615 38.8C340.882 38.1333 338.632 37.2667 336.865 36.2L340.665 27.6C342.332 28.5667 344.182 29.35 346.215 29.95C348.282 30.5167 350.282 30.8 352.215 30.8C353.348 30.8 354.232 30.7333 354.865 30.6C355.532 30.4333 356.015 30.2167 356.315 29.95C356.615 29.65 356.765 29.3 356.765 28.9C356.765 28.2667 356.415 27.7667 355.715 27.4C355.015 27.0333 354.082 26.7333 352.915 26.5C351.782 26.2333 350.532 25.9667 349.165 25.7C347.798 25.4 346.415 25.0167 345.015 24.55C343.648 24.0833 342.382 23.4667 341.215 22.7C340.082 21.9333 339.165 20.9333 338.465 19.7C337.765 18.4333 337.415 16.8667 337.415 15C337.415 12.8333 338.015 10.8667 339.215 9.1C340.448 7.3 342.265 5.86667 344.665 4.8C347.098 3.73333 350.115 3.2 353.715 3.2C356.082 3.2 358.415 3.45 360.715 3.95C363.015 4.45 365.082 5.21666 366.915 6.25L363.365 14.8C361.632 13.9333 359.948 13.2833 358.315 12.85C356.715 12.4167 355.148 12.2 353.615 12.2C352.482 12.2 351.582 12.3 350.915 12.5C350.248 12.7 349.765 12.9667 349.465 13.3C349.198 13.6333 349.065 14 349.065 14.4C349.065 15 349.415 15.4833 350.115 15.85C350.815 16.1833 351.732 16.4667 352.865 16.7C354.032 16.9333 355.298 17.1833 356.665 17.45C358.065 17.7167 359.448 18.0833 360.815 18.55C362.182 19.0167 363.432 19.6333 364.565 20.4C365.732 21.1667 366.665 22.1667 367.365 23.4C368.065 24.6333 368.415 26.1667 368.415 28C368.415 30.1333 367.798 32.1 366.565 33.9C365.365 35.6667 363.565 37.1 361.165 38.2C358.765 39.2667 355.748 39.8 352.115 39.8ZM386.916 39V4H403.766C407.033 4 409.85 4.53333 412.216 5.6C414.616 6.66666 416.466 8.2 417.766 10.2C419.066 12.1667 419.716 14.5 419.716 17.2C419.716 19.9 419.066 22.2333 417.766 24.2C416.466 26.1333 414.616 27.6167 412.216 28.65C409.85 29.6833 407.033 30.2 403.766 30.2H393.466L398.716 25.35V39H386.916ZM407.866 39L399.266 26.25H411.766L420.466 39H407.866ZM398.716 26.65L393.466 21.3H403.016C404.65 21.3 405.85 20.9333 406.616 20.2C407.416 19.4667 407.816 18.4667 407.816 17.2C407.816 15.9333 407.416 14.9333 406.616 14.2C405.85 13.4667 404.65 13.1 403.016 13.1H393.466L398.716 7.75V26.65ZM440.922 39.8C435.556 39.8 431.372 38.35 428.372 35.45C425.372 32.55 423.872 28.4833 423.872 23.25V4H435.672V22.9C435.672 25.5667 436.156 27.4667 437.122 28.6C438.089 29.7 439.389 30.25 441.022 30.25C442.689 30.25 443.989 29.7 444.922 28.6C445.889 27.4667 446.372 25.5667 446.372 22.9V4H457.972V23.25C457.972 28.4833 456.472 32.55 453.472 35.45C450.472 38.35 446.289 39.8 440.922 39.8ZM463.381 39V4H473.081L490.881 25.3H486.381V4H497.881V39H488.181L470.381 17.7H474.881V39H463.381Z"/>
</mask>
<path d="M20.1332 39L17.3701 40.1684L18.1446 42H20.1332V39ZM5.3332 4V0.999998H0.807444L2.57008 5.1684L5.3332 4ZM18.0332 4L20.8111 2.86721L20.0497 0.999998H18.0332V4ZM30.0832 33.55V36.55H34.5464L32.8611 32.4172L30.0832 33.55ZM22.5332 33.55L19.7669 32.3892L18.0209 36.55H22.5332V33.55ZM34.9332 4V0.999998H32.9387L32.1669 2.83918L34.9332 4ZM46.5332 4L49.2963 5.1684L51.059 0.999998H46.5332V4ZM31.7332 39V42H33.7218L34.4963 40.1684L31.7332 39ZM20.1332 39L22.8963 37.8316L8.09632 2.83159L5.3332 4L2.57008 5.1684L17.3701 40.1684L20.1332 39ZM5.3332 4V7H18.0332V4V0.999998H5.3332V4ZM18.0332 4L15.2553 5.13278L27.3053 34.6828L30.0832 33.55L32.8611 32.4172L20.8111 2.86721L18.0332 4ZM30.0832 33.55V30.55H22.5332V33.55V36.55H30.0832V33.55ZM22.5332 33.55L25.2995 34.7108L37.6995 5.16082L34.9332 4L32.1669 2.83918L19.7669 32.3892L22.5332 33.55ZM34.9332 4V7H46.5332V4V0.999998H34.9332V4ZM46.5332 4L43.7701 2.83159L28.9701 37.8316L31.7332 39L34.4963 40.1684L49.2963 5.1684L46.5332 4ZM31.7332 39V36H20.1332V39V42H31.7332V39ZM47.7074 39H44.7074V42H47.7074V39ZM47.7074 4V0.999998H44.7074V4H47.7074ZM59.5074 4H62.5074V0.999998H59.5074V4ZM59.5074 39V42H62.5074V39H59.5074ZM47.7074 39H50.7074V4H47.7074H44.7074V39H47.7074ZM47.7074 4V7H59.5074V4V0.999998H47.7074V4ZM59.5074 4H56.5074V39H59.5074H62.5074V4H59.5074ZM59.5074 39V36H47.7074V39V42H59.5074V39ZM66.6379 38.5L65.502 41.2766L65.5201 41.284L65.5383 41.2912L66.6379 38.5ZM61.1379 34.6L58.8483 32.6615L57.1915 34.6183L58.8664 36.5597L61.1379 34.6ZM67.4879 27.1L69.8037 25.1929L67.5198 22.4196L65.1983 25.1615L67.4879 27.1ZM70.2379 29.7L68.5738 32.1962L68.6063 32.2179L68.6395 32.2387L70.2379 29.7ZM76.8379 12.9H79.8379V9.9H76.8379V12.9ZM64.9379 12.9H61.9379V15.9H64.9379V12.9ZM64.9379 4V0.999998H61.9379V4H64.9379ZM88.4879 4H91.4879V0.999998H88.4879V4ZM84.7879 36.25L86.8649 38.4147L84.7879 36.25ZM74.0379 39.8V36.8C71.623 36.8 69.5371 36.4177 67.7375 35.7088L66.6379 38.5L65.5383 41.2912C68.1386 42.3156 70.9861 42.8 74.0379 42.8V39.8ZM66.6379 38.5L67.7738 35.7234C65.985 34.9916 64.5491 33.9613 63.4094 32.6403L61.1379 34.6L58.8664 36.5597C60.66 38.6387 62.8908 40.2084 65.502 41.2766L66.6379 38.5ZM61.1379 34.6L63.4275 36.5385L69.7775 29.0385L67.4879 27.1L65.1983 25.1615L58.8483 32.6615L61.1379 34.6ZM67.4879 27.1L65.1721 29.0071C66.2306 30.2924 67.3591 31.3864 68.5738 32.1962L70.2379 29.7L71.902 27.2038C71.3167 26.8136 70.6119 26.1743 69.8037 25.1929L67.4879 27.1ZM70.2379 29.7L68.6395 32.2387C69.9685 33.0755 71.4496 33.55 73.0379 33.55V30.55V27.55C72.6928 27.55 72.3073 27.4579 71.8363 27.1613L70.2379 29.7ZM73.0379 30.55V33.55C74.8804 33.55 76.7777 33.004 78.1472 31.4362C79.4491 29.9459 79.8379 28.0203 79.8379 26.2H76.8379H73.8379C73.8379 27.2797 73.5934 27.5291 73.6286 27.4888C73.6529 27.4609 73.674 27.4588 73.6309 27.4752C73.5698 27.4985 73.3922 27.55 73.0379 27.55V30.55ZM76.8379 26.2H79.8379V12.9H76.8379H73.8379V26.2H76.8379ZM76.8379 12.9V9.9H64.9379V12.9V15.9H76.8379V12.9ZM64.9379 12.9H67.9379V4H64.9379H61.9379V12.9H64.9379ZM64.9379 4V7H88.4879V4V0.999998H64.9379V4ZM88.4879 4H85.4879V25.5H88.4879H91.4879V4H88.4879ZM88.4879 25.5H85.4879C85.4879 29.8198 84.3824 32.4815 82.7109 34.0853L84.7879 36.25L86.8649 38.4147C90.1267 35.2852 91.4879 30.7802 91.4879 25.5H88.4879ZM84.7879 36.25L82.7109 34.0853C80.9844 35.7417 78.2584 36.8 74.0379 36.8V39.8V42.8C79.2174 42.8 83.658 41.4916 86.8649 38.4147L84.7879 36.25ZM89.3664 39L86.6176 37.7984L84.7809 42H89.3664V39ZM104.666 4V0.999998H102.704L101.918 2.79837L104.666 4ZM116.266 4L119.015 2.79837L118.229 0.999998H116.266V4ZM131.566 39V42H136.152L134.315 37.7984L131.566 39ZM119.366 39L116.566 40.0763L117.306 42H119.366V39ZM108.066 9.6V6.6H103.699L105.266 10.6763L108.066 9.6ZM112.666 9.6L115.467 10.6763L117.033 6.6H112.666V9.6ZM101.366 39V42H103.427L104.167 40.0763L101.366 39ZM98.4664 32.9L95.6374 31.9015L94.2262 35.9H98.4664V32.9ZM101.466 24.4V21.4H99.3439L98.6374 23.4015L101.466 24.4ZM117.566 24.4L120.395 23.4015L119.689 21.4H117.566V24.4ZM120.566 32.9V35.9H124.807L123.395 31.9015L120.566 32.9ZM89.3664 39L92.1152 40.2016L107.415 5.20163L104.666 4L101.918 2.79837L86.6176 37.7984L89.3664 39ZM104.666 4V7H116.266V4V0.999998H104.666V4ZM116.266 4L113.518 5.20163L128.818 40.2016L131.566 39L134.315 37.7984L119.015 2.79837L116.266 4ZM131.566 39V36H119.366V39V42H131.566V39ZM119.366 39L122.167 37.9237L110.867 8.5237L108.066 9.6L105.266 10.6763L116.566 40.0763L119.366 39ZM108.066 9.6V12.6H112.666V9.6V6.6H108.066V9.6ZM112.666 9.6L109.866 8.5237L98.5661 37.9237L101.366 39L104.167 40.0763L115.467 10.6763L112.666 9.6ZM101.366 39V36H89.3664V39V42H101.366V39ZM98.4664 32.9L101.295 33.8985L104.295 25.3985L101.466 24.4L98.6374 23.4015L95.6374 31.9015L98.4664 32.9ZM101.466 24.4V27.4H117.566V24.4V21.4H101.466V24.4ZM117.566 24.4L114.737 25.3985L117.737 33.8985L120.566 32.9L123.395 31.9015L120.395 23.4015L117.566 24.4ZM120.566 32.9V29.9H98.4664V32.9V35.9H120.566V32.9ZM140.204 39H137.204V42H140.204V39ZM140.204 23.65L143.005 22.5771L137.204 23.65H140.204ZM142.904 30.7L140.326 32.235L145.705 29.6271L142.904 30.7ZM127.004 4V0.999998H121.725L124.426 5.53496L127.004 4ZM139.454 4L142.038 2.47739L141.168 0.999998H139.454V4ZM150.204 22.25V25.25H155.452L152.788 20.7274L150.204 22.25ZM142.954 22.25L140.375 20.7169L137.68 25.25H142.954V22.25ZM153.804 4V0.999998H152.097L151.225 2.46691L153.804 4ZM165.204 4L167.785 5.52781L170.465 0.999998H165.204V4ZM149.404 30.7L146.589 29.662L151.985 32.2278L149.404 30.7ZM152.004 23.65H155.004L149.189 22.612L152.004 23.65ZM152.004 39V42H155.004V39H152.004ZM140.204 39H143.204V23.65H140.204H137.204V39H140.204ZM140.204 23.65L137.402 24.7229L140.102 31.7729L142.904 30.7L145.705 29.6271L143.005 22.5771L140.204 23.65ZM142.904 30.7L145.481 29.165L129.581 2.46504L127.004 4L124.426 5.53496L140.326 32.235L142.904 30.7ZM127.004 4V7H139.454V4V0.999998H127.004V4ZM139.454 4L136.869 5.5226L147.619 23.7726L150.204 22.25L152.788 20.7274L142.038 2.47739L139.454 4ZM150.204 22.25V19.25H142.954V22.25V25.25H150.204V22.25ZM142.954 22.25L145.532 23.7831L156.382 5.53308L153.804 4L151.225 2.46691L140.375 20.7169L142.954 22.25ZM153.804 4V7H165.204V4V0.999998H153.804V4ZM165.204 4L162.622 2.47218L146.822 29.1722L149.404 30.7L151.985 32.2278L167.785 5.52781L165.204 4ZM149.404 30.7L152.218 31.738L154.818 24.688L152.004 23.65L149.189 22.612L146.589 29.662L149.404 30.7ZM152.004 23.65H149.004V39H152.004H155.004V23.65H152.004ZM152.004 39V36H140.204V39V42H152.004V39ZM181.692 39H178.692V42H181.692V39ZM181.692 4V0.999998H178.692V4H181.692ZM209.242 6.15L207.937 8.85124L207.949 8.85722L207.961 8.86307L209.242 6.15ZM216.192 12.15L213.666 13.769L216.192 12.15ZM216.192 30.85L218.717 32.469L218.722 32.4617L218.727 32.4544L216.192 30.85ZM209.242 36.9L210.522 39.6131L210.535 39.6072L210.547 39.6012L209.242 36.9ZM193.492 29.8H190.492V32.8H193.492V29.8ZM202.792 28.85L201.45 26.1667L201.436 26.1739L201.421 26.1813L202.792 28.85ZM205.742 26.05L208.351 27.5308L208.359 27.516L208.368 27.5011L205.742 26.05ZM205.742 16.95L208.351 15.4692V15.4692L205.742 16.95ZM202.792 14.15L201.421 16.8187L201.436 16.8261L201.45 16.8333L202.792 14.15ZM193.492 13.2V10.2H190.492V13.2H193.492ZM181.692 39H184.692V4H181.692H178.692V39H181.692ZM181.692 4V7H198.942V4V0.999998H181.692V4ZM198.942 4V7C202.472 7 205.445 7.64746 207.937 8.85124L209.242 6.15L210.547 3.44876C207.105 1.78587 203.211 0.999998 198.942 0.999998V4ZM209.242 6.15L207.961 8.86307C210.452 10.0382 212.323 11.6733 213.666 13.769L216.192 12.15L218.717 10.531C216.727 7.42667 213.965 5.06179 210.522 3.43693L209.242 6.15ZM216.192 12.15L213.666 13.769C214.975 15.8102 215.692 18.327 215.692 21.45H218.692H221.692C221.692 17.373 220.742 13.6898 218.717 10.531L216.192 12.15ZM218.692 21.45H215.692C215.692 24.6113 214.972 27.1674 213.657 29.2456L216.192 30.85L218.727 32.4544C220.745 29.266 221.692 25.5554 221.692 21.45H218.692ZM216.192 30.85L213.666 29.231C212.319 31.333 210.439 32.9897 207.937 34.1988L209.242 36.9L210.547 39.6012C213.978 37.9436 216.732 35.567 218.717 32.469L216.192 30.85ZM209.242 36.9L207.961 34.1869C205.464 35.3656 202.482 36 198.942 36V39V42C203.202 42 207.087 41.2344 210.522 39.6131L209.242 36.9ZM198.942 39V36H181.692V39V42H198.942V39ZM193.492 29.8V32.8H198.442V29.8V26.8H193.492V29.8ZM198.442 29.8V32.8C200.49 32.8 202.427 32.4095 204.162 31.5187L202.792 28.85L201.421 26.1813C200.69 26.5571 199.727 26.8 198.442 26.8V29.8ZM202.792 28.85L204.133 31.5333C205.933 30.6333 207.357 29.2811 208.351 27.5308L205.742 26.05L203.133 24.5692C202.726 25.2856 202.184 25.8 201.45 26.1667L202.792 28.85ZM205.742 26.05L208.368 27.5011C209.366 25.6944 209.792 23.6356 209.792 21.45H206.792H203.792C203.792 22.8644 203.518 23.8723 203.116 24.5989L205.742 26.05ZM206.792 21.45H209.792C209.792 19.2902 209.363 17.2522 208.351 15.4692L205.742 16.95L203.133 18.4308C203.521 19.1145 203.792 20.0764 203.792 21.45H206.792ZM205.742 16.95L208.351 15.4692C207.357 13.7189 205.933 12.3666 204.133 11.4667L202.792 14.15L201.45 16.8333C202.184 17.2 202.726 17.7144 203.133 18.4308L205.742 16.95ZM202.792 14.15L204.162 11.4813C202.427 10.5904 200.49 10.2 198.442 10.2V13.2V16.2C199.727 16.2 200.69 16.4429 201.421 16.8187L202.792 14.15ZM198.442 13.2V10.2H193.492V13.2V16.2H198.442V13.2ZM193.492 13.2H190.492V29.8H193.492H196.492V13.2H193.492ZM223 39H220V42H223V39ZM223 4V0.999998H220V4H223ZM234.8 4H237.8V0.999998H234.8V4ZM234.8 39V42H237.8V39H234.8ZM223 39H226V4H223H220V39H223ZM223 4V7H234.8V4V0.999998H223V4ZM234.8 4H231.8V39H234.8H237.8V4H234.8ZM234.8 39V36H223V39V42H234.8V39ZM249.331 39L246.474 39.9143L247.141 42H249.331V39ZM238.131 4V0.999998H234.021L235.274 4.91432L238.131 4ZM250.281 4L253.149 3.12149L252.5 0.999998H250.281V4ZM259.331 33.55V36.55H263.387L262.199 32.6715L259.331 33.55ZM253.231 33.55L250.378 32.6231L249.102 36.55H253.231V33.55ZM262.831 4V0.999998H260.651L259.978 3.07307L262.831 4ZM273.681 4L276.552 3.13038L275.907 0.999998H273.681V4ZM282.631 33.55V36.55H286.674L285.502 32.6804L282.631 33.55ZM276.781 33.55L273.923 32.6362L272.672 36.55H276.781V33.55ZM286.231 4V0.999998H284.041L283.373 3.0862L286.231 4ZM297.431 4L300.288 4.91432L301.541 0.999998H297.431V4ZM286.231 39V42H288.421L289.088 39.9143L286.231 39ZM273.581 39L270.709 39.8664L271.352 42H273.581V39ZM266.281 14.8V11.8H262.242L263.409 15.6664L266.281 14.8ZM269.681 14.8L272.54 15.7096L273.784 11.8H269.681V14.8ZM261.981 39V42H264.174L264.84 39.9096L261.981 39ZM249.331 39L252.188 38.0857L240.988 3.08567L238.131 4L235.274 4.91432L246.474 39.9143L249.331 39ZM238.131 4V7H250.281V4V0.999998H238.131V4ZM250.281 4L247.412 4.8785L256.462 34.4285L259.331 33.55L262.199 32.6715L253.149 3.12149L250.281 4ZM259.331 33.55V30.55H253.231V33.55V36.55H259.331V33.55ZM253.231 33.55L256.084 34.4769L265.684 4.92693L262.831 4L259.978 3.07307L250.378 32.6231L253.231 33.55ZM262.831 4V7H273.681V4V0.999998H262.831V4ZM273.681 4L270.81 4.86962L279.76 34.4196L282.631 33.55L285.502 32.6804L276.552 3.13038L273.681 4ZM282.631 33.55V30.55H276.781V33.55V36.55H282.631V33.55ZM276.781 33.55L279.638 34.4638L289.088 4.9138L286.231 4L283.373 3.0862L273.923 32.6362L276.781 33.55ZM286.231 4V7H297.431V4V0.999998H286.231V4ZM297.431 4L294.574 3.08567L283.374 38.0857L286.231 39L289.088 39.9143L300.288 4.91432L297.431 4ZM286.231 39V36H273.581V39V42H286.231V39ZM273.581 39L276.453 38.1336L269.153 13.9336L266.281 14.8L263.409 15.6664L270.709 39.8664L273.581 39ZM266.281 14.8V17.8H269.681V14.8V11.8H266.281V14.8ZM269.681 14.8L266.822 13.8904L259.122 38.0904L261.981 39L264.84 39.9096L272.54 15.7096L269.681 14.8ZM261.981 39V36H249.331V39V42H261.981V39ZM294.982 39L292.233 37.7984L290.396 42H294.982V39ZM310.282 4V0.999998H308.319L307.533 2.79837L310.282 4ZM321.882 4L324.63 2.79837L323.844 0.999998H321.882V4ZM337.182 39V42H341.767L339.93 37.7984L337.182 39ZM324.982 39L322.181 40.0763L322.921 42H324.982V39ZM313.682 9.6V6.6H309.315L310.881 10.6763L313.682 9.6ZM318.282 9.6L321.082 10.6763L322.649 6.6H318.282V9.6ZM306.982 39V42H309.043L309.782 40.0763L306.982 39ZM304.082 32.9L301.253 31.9015L299.841 35.9H304.082V32.9ZM307.082 24.4V21.4H304.959L304.253 23.4015L307.082 24.4ZM323.182 24.4L326.011 23.4015L325.304 21.4H323.182V24.4ZM326.182 32.9V35.9H330.422L329.011 31.9015L326.182 32.9ZM294.982 39L297.73 40.2016L313.03 5.20163L310.282 4L307.533 2.79837L292.233 37.7984L294.982 39ZM310.282 4V7H321.882V4V0.999998H310.282V4ZM321.882 4L319.133 5.20163L334.433 40.2016L337.182 39L339.93 37.7984L324.63 2.79837L321.882 4ZM337.182 39V36H324.982V39V42H337.182V39ZM324.982 39L327.782 37.9237L316.482 8.5237L313.682 9.6L310.881 10.6763L322.181 40.0763L324.982 39ZM313.682 9.6V12.6H318.282V9.6V6.6H313.682V9.6ZM318.282 9.6L315.481 8.5237L304.181 37.9237L306.982 39L309.782 40.0763L321.082 10.6763L318.282 9.6ZM306.982 39V36H294.982V39V42H306.982V39ZM304.082 32.9L306.911 33.8985L309.911 25.3985L307.082 24.4L304.253 23.4015L301.253 31.9015L304.082 32.9ZM307.082 24.4V27.4H323.182V24.4V21.4H307.082V24.4ZM323.182 24.4L320.353 25.3985L323.353 33.8985L326.182 32.9L329.011 31.9015L326.011 23.4015L323.182 24.4ZM326.182 32.9V29.9H304.082V32.9V35.9H326.182V32.9ZM343.615 38.8L344.326 35.8854L343.615 38.8ZM336.865 36.2L334.121 34.9875L333.053 37.4032L335.314 38.7682L336.865 36.2ZM340.665 27.6L342.17 25.0049L339.274 23.3252L337.921 26.3875L340.665 27.6ZM346.215 29.95L345.366 32.8273L345.394 32.8355L345.422 32.8432L346.215 29.95ZM354.865 30.6L355.483 33.5356L355.538 33.5241L355.592 33.5104L354.865 30.6ZM356.315 29.95L358.308 32.1922L358.374 32.1337L358.436 32.0713L356.315 29.95ZM355.715 27.4L354.323 30.0575L355.715 27.4ZM352.915 26.5L352.228 29.4202L352.277 29.4318L352.327 29.4417L352.915 26.5ZM349.165 25.7L348.522 28.6302L348.556 28.6378L348.59 28.6445L349.165 25.7ZM345.015 24.55L344.045 27.389L344.056 27.3926L344.066 27.396L345.015 24.55ZM341.215 22.7L339.534 25.1848L339.551 25.1961L339.567 25.2071L341.215 22.7ZM338.465 19.7L335.839 21.1511L335.847 21.166L335.856 21.1808L338.465 19.7ZM339.215 9.1L336.74 7.40429L336.733 7.41435L339.215 9.1ZM344.665 4.8L343.46 2.05239L343.453 2.05546L343.446 2.05856L344.665 4.8ZM360.715 3.95L360.078 6.88153L360.715 3.95ZM366.915 6.25L369.686 7.40039L370.706 4.94302L368.388 3.63654L366.915 6.25ZM363.365 14.8L362.023 17.4833L364.902 18.9224L366.135 15.9504L363.365 14.8ZM358.315 12.85L357.531 15.7457L357.538 15.7477L357.546 15.7497L358.315 12.85ZM350.915 12.5L350.053 9.62652L350.915 12.5ZM349.465 13.3L347.235 11.2931L347.177 11.3579L347.122 11.4259L349.465 13.3ZM350.115 15.85L348.723 18.5075L348.773 18.534L348.825 18.5586L350.115 15.85ZM352.865 16.7L352.26 19.6384L352.268 19.6401L352.276 19.6417L352.865 16.7ZM356.665 17.45L356.09 20.3945L356.104 20.397L356.665 17.45ZM360.815 18.55L359.845 21.389H359.845L360.815 18.55ZM364.565 20.4L362.884 22.8848L362.901 22.8961L362.917 22.9071L364.565 20.4ZM367.365 23.4L364.756 24.8808V24.8808L367.365 23.4ZM366.565 33.9L364.09 32.2043L364.083 32.2144L366.565 33.9ZM361.165 38.2L362.383 40.9414L362.399 40.9344L362.415 40.9272L361.165 38.2ZM352.115 39.8V36.8C349.411 36.8 346.817 36.493 344.326 35.8854L343.615 38.8L342.904 41.7146C345.88 42.4403 348.952 42.8 352.115 42.8V39.8ZM343.615 38.8L344.326 35.8854C341.789 35.2666 339.846 34.4956 338.415 33.6318L336.865 36.2L335.314 38.7682C337.417 40.0377 339.974 41 342.904 41.7146L343.615 38.8ZM336.865 36.2L339.609 37.4125L343.409 28.8125L340.665 27.6L337.921 26.3875L334.121 34.9875L336.865 36.2ZM340.665 27.6L339.16 30.1951C341.053 31.2929 343.126 32.1664 345.366 32.8273L346.215 29.95L347.064 27.0727C345.237 26.5336 343.611 25.8404 342.17 25.0049L340.665 27.6ZM346.215 29.95L345.422 32.8432C347.719 33.4732 349.986 33.8 352.215 33.8V30.8V27.8C350.577 27.8 348.844 27.5602 347.008 27.0568L346.215 29.95ZM352.215 30.8V33.8C353.426 33.8 354.55 33.7321 355.483 33.5356L354.865 30.6L354.247 27.6643C353.913 27.7346 353.27 27.8 352.215 27.8V30.8ZM354.865 30.6L355.592 33.5104C356.438 33.2991 357.474 32.9334 358.308 32.1922L356.315 29.95L354.322 27.7078C354.394 27.6436 354.451 27.6054 354.48 27.5875C354.509 27.5695 354.519 27.5667 354.5 27.575C354.482 27.583 354.444 27.5988 354.382 27.6196C354.32 27.6403 354.239 27.6641 354.137 27.6896L354.865 30.6ZM356.315 29.95L358.436 32.0713C359.261 31.2466 359.765 30.1477 359.765 28.9H356.765H353.765C353.765 28.7146 353.802 28.4979 353.895 28.2807C353.986 28.0671 354.104 27.9178 354.194 27.8287L356.315 29.95ZM356.765 28.9H359.765C359.765 26.8568 358.505 25.4747 357.107 24.7425L355.715 27.4L354.323 30.0575C354.369 30.0817 354.214 30.0121 354.045 29.7704C353.853 29.4963 353.765 29.1742 353.765 28.9H356.765ZM355.715 27.4L357.107 24.7425C356.061 24.1945 354.824 23.8223 353.503 23.5583L352.915 26.5L352.327 29.4417C353.339 29.6443 353.969 29.8722 354.323 30.0575L355.715 27.4ZM352.915 26.5L353.602 23.5798C352.425 23.3028 351.137 23.0282 349.739 22.7555L349.165 25.7L348.59 28.6445C349.926 28.9052 351.138 29.1639 352.228 29.4202L352.915 26.5ZM349.165 25.7L349.808 22.7698C348.55 22.4936 347.269 22.139 345.964 21.7039L345.015 24.55L344.066 27.396C345.561 27.8943 347.046 28.3064 348.522 28.6302L349.165 25.7ZM345.015 24.55L345.984 21.711C344.848 21.3231 343.811 20.8161 342.862 20.1929L341.215 22.7L339.567 25.2071C340.952 26.1173 342.448 26.8436 344.045 27.389L345.015 24.55ZM341.215 22.7L342.896 20.2151C342.159 19.7168 341.555 19.066 341.074 18.2192L338.465 19.7L335.856 21.1808C336.775 22.8007 338.004 24.1499 339.534 25.1848L341.215 22.7ZM338.465 19.7L341.091 18.2489C340.697 17.537 340.415 16.5024 340.415 15H337.415H334.415C334.415 17.2309 334.833 19.3296 335.839 21.1511L338.465 19.7ZM337.415 15H340.415C340.415 13.4252 340.839 12.0474 341.697 10.7856L339.215 9.1L336.733 7.41435C335.19 9.68592 334.415 12.2415 334.415 15H337.415ZM339.215 9.1L341.69 10.7957C342.55 9.53942 343.887 8.42875 345.883 7.54143L344.665 4.8L343.446 2.05856C340.643 3.30459 338.346 5.06058 336.74 7.4043L339.215 9.1ZM344.665 4.8L345.869 7.54761C347.814 6.69529 350.391 6.2 353.715 6.2V3.2V0.199999C349.839 0.199999 346.383 0.771372 343.46 2.05239L344.665 4.8ZM353.715 3.2V6.2C355.868 6.2 357.988 6.4273 360.078 6.88153L360.715 3.95L361.352 1.01847C358.842 0.472702 356.295 0.199999 353.715 0.199999V3.2ZM360.715 3.95L360.078 6.88153C362.119 7.32529 363.898 7.99357 365.442 8.86345L366.915 6.25L368.388 3.63654C366.265 2.43976 363.911 1.5747 361.352 1.01847L360.715 3.95ZM366.915 6.25L364.144 5.0996L360.594 13.6496L363.365 14.8L366.135 15.9504L369.686 7.40039L366.915 6.25ZM363.365 14.8L364.706 12.1167C362.816 11.1716 360.941 10.4431 359.084 9.95032L358.315 12.85L357.546 15.7497C358.955 16.1236 360.447 16.695 362.023 17.4833L363.365 14.8ZM358.315 12.85L359.099 9.95432C357.264 9.45732 355.434 9.2 353.615 9.2V12.2V15.2C354.863 15.2 356.166 15.376 357.531 15.7457L358.315 12.85ZM353.615 12.2V9.2C352.348 9.2 351.119 9.30676 350.053 9.62652L350.915 12.5L351.777 15.3735C352.044 15.2932 352.615 15.2 353.615 15.2V12.2ZM350.915 12.5L350.053 9.62652C349.126 9.9045 348.053 10.3843 347.235 11.2931L349.465 13.3L351.695 15.3069C351.635 15.3735 351.583 15.418 351.548 15.4441C351.515 15.47 351.497 15.4795 351.502 15.4767C351.507 15.4739 351.53 15.4614 351.577 15.4423C351.624 15.4233 351.69 15.3996 351.777 15.3735L350.915 12.5ZM349.465 13.3L347.122 11.4259C346.461 12.2528 346.065 13.2712 346.065 14.4H349.065H352.065C352.065 14.5407 352.04 14.6966 351.984 14.8502C351.929 15.0014 351.859 15.1096 351.807 15.1741L349.465 13.3ZM349.065 14.4H346.065C346.065 16.4754 347.399 17.8142 348.723 18.5075L350.115 15.85L351.507 13.1925C351.44 13.1575 351.587 13.2177 351.757 13.453C351.955 13.7261 352.065 14.0718 352.065 14.4H349.065ZM350.115 15.85L348.825 18.5586C349.822 19.0332 350.994 19.3777 352.26 19.6384L352.865 16.7L353.47 13.7616C352.469 13.5556 351.808 13.3335 351.405 13.1414L350.115 15.85ZM352.865 16.7L352.276 19.6417C353.448 19.8761 354.72 20.1271 356.09 20.3945L356.665 17.45L357.239 14.5055C355.877 14.2396 354.615 13.9905 353.453 13.7583L352.865 16.7ZM356.665 17.45L356.104 20.397C357.363 20.637 358.61 20.9673 359.845 21.389L360.815 18.55L361.784 15.711C360.286 15.1994 358.766 14.7964 357.226 14.503L356.665 17.45ZM360.815 18.55L359.845 21.389C360.974 21.7745 361.983 22.2753 362.884 22.8848L364.565 20.4L366.246 17.9151C364.88 16.9913 363.389 16.2588 361.784 15.7109L360.815 18.55ZM364.565 20.4L362.917 22.9071C363.68 23.4084 364.287 24.0541 364.756 24.8808L367.365 23.4L369.974 21.9192C369.043 20.2792 367.783 18.9249 366.212 17.8929L364.565 20.4ZM367.365 23.4L364.756 24.8808C365.135 25.5492 365.415 26.5375 365.415 28H368.415H371.415C371.415 25.7958 370.995 23.7175 369.974 21.9192L367.365 23.4ZM368.415 28H365.415C365.415 29.5135 364.99 30.8915 364.09 32.2043L366.565 33.9L369.04 35.5957C370.607 33.3085 371.415 30.7531 371.415 28H368.415ZM366.565 33.9L364.083 32.2144C363.256 33.432 361.934 34.5474 359.915 35.4728L361.165 38.2L362.415 40.9272C365.196 39.6526 367.474 37.9013 369.047 35.5856L366.565 33.9ZM361.165 38.2L359.946 35.4586C358.047 36.3026 355.479 36.8 352.115 36.8V39.8V42.8C356.017 42.8 359.482 42.2307 362.383 40.9414L361.165 38.2ZM386.916 39H383.916V42H386.916V39ZM386.916 4V0.999998H383.916V4H386.916ZM412.216 5.6L410.984 8.33504L410.991 8.33825L410.998 8.34143L412.216 5.6ZM417.766 10.2L415.251 11.835L415.257 11.8447L415.264 11.8543L417.766 10.2ZM417.766 24.2L420.256 25.874L420.263 25.8642L420.269 25.8543L417.766 24.2ZM412.216 28.65L411.03 25.8945L411.023 25.8976L411.016 25.9006L412.216 28.65ZM393.466 30.2L391.431 27.9964L385.798 33.2H393.466V30.2ZM398.716 25.35H401.716V18.4944L396.681 23.1464L398.716 25.35ZM398.716 39V42H401.716V39H398.716ZM407.866 39L405.379 40.6776L406.271 42H407.866V39ZM399.266 26.25V23.25H393.624L396.779 27.9276L399.266 26.25ZM411.766 26.25L414.244 24.5591L413.351 23.25H411.766V26.25ZM420.466 39V42H426.145L422.944 37.3091L420.466 39ZM398.716 26.65L396.575 28.7512L401.716 33.9904V26.65H398.716ZM393.466 21.3V18.3H386.319L391.325 23.4012L393.466 21.3ZM406.616 20.2L404.589 17.9885L404.566 18.0101L404.543 18.0321L406.616 20.2ZM406.616 14.2L404.543 16.3679L404.566 16.3899L404.589 16.4115L406.616 14.2ZM393.466 13.1L391.325 10.9988L386.319 16.1H393.466V13.1ZM398.716 7.75H401.716V0.40962L396.575 5.64879L398.716 7.75ZM386.916 39H389.916V4H386.916H383.916V39H386.916ZM386.916 4V7H403.766V4V0.999998H386.916V4ZM403.766 4V7C406.714 7 409.091 7.48198 410.984 8.33504L412.216 5.6L413.449 2.86495C410.608 1.58468 407.352 0.999998 403.766 0.999998V4ZM412.216 5.6L410.998 8.34143C412.923 9.19717 414.299 10.3701 415.251 11.835L417.766 10.2L420.282 8.56503C418.634 6.02991 416.309 4.13616 413.435 2.85856L412.216 5.6ZM417.766 10.2L415.264 11.8543C416.194 13.2617 416.716 15.0004 416.716 17.2H419.716H422.716C422.716 13.9996 421.939 11.0716 420.269 8.5457L417.766 10.2ZM419.716 17.2H416.716C416.716 19.3996 416.194 21.1383 415.264 22.5457L417.766 24.2L420.269 25.8543C421.939 23.3284 422.716 20.4004 422.716 17.2H419.716ZM417.766 24.2L415.277 22.526C414.336 23.9245 412.967 25.0605 411.03 25.8945L412.216 28.65L413.403 31.4055C416.266 30.1728 418.596 28.3421 420.256 25.874L417.766 24.2ZM412.216 28.65L411.016 25.9006C409.114 26.7311 406.726 27.2 403.766 27.2V30.2V33.2C407.341 33.2 410.585 32.6356 413.417 31.3994L412.216 28.65ZM403.766 30.2V27.2H393.466V30.2V33.2H403.766V30.2ZM393.466 30.2L395.502 32.4036L400.752 27.5536L398.716 25.35L396.681 23.1464L391.431 27.9964L393.466 30.2ZM398.716 25.35H395.716V39H398.716H401.716V25.35H398.716ZM398.716 39V36H386.916V39V42H398.716V39ZM407.866 39L410.354 37.3224L401.754 24.5724L399.266 26.25L396.779 27.9276L405.379 40.6776L407.866 39ZM399.266 26.25V29.25H411.766V26.25V23.25H399.266V26.25ZM411.766 26.25L409.288 27.9409L417.988 40.6909L420.466 39L422.944 37.3091L414.244 24.5591L411.766 26.25ZM420.466 39V36H407.866V39V42H420.466V39ZM398.716 26.65L400.858 24.5488L395.608 19.1988L393.466 21.3L391.325 23.4012L396.575 28.7512L398.716 26.65ZM393.466 21.3V24.3H403.016V21.3V18.3H393.466V21.3ZM403.016 21.3V24.3C405.017 24.3 407.129 23.8615 408.69 22.3679L406.616 20.2L404.543 18.0321C404.571 18.0052 404.282 18.3 403.016 18.3V21.3ZM406.616 20.2L408.644 22.4115C410.168 21.0136 410.816 19.1537 410.816 17.2H407.816H404.816C404.816 17.7797 404.664 17.9197 404.589 17.9885L406.616 20.2ZM407.816 17.2H410.816C410.816 15.2463 410.168 13.3864 408.644 11.9885L406.616 14.2L404.589 16.4115C404.664 16.4803 404.816 16.6203 404.816 17.2H407.816ZM406.616 14.2L408.69 12.0321C407.129 10.5385 405.017 10.1 403.016 10.1V13.1V16.1C404.282 16.1 404.571 16.3948 404.543 16.3679L406.616 14.2ZM403.016 13.1V10.1H393.466V13.1V16.1H403.016V13.1ZM393.466 13.1L395.608 15.2012L400.858 9.85122L398.716 7.75L396.575 5.64879L391.325 10.9988L393.466 13.1ZM398.716 7.75H395.716V26.65H398.716H401.716V7.75H398.716ZM428.372 35.45L426.287 37.607L428.372 35.45ZM423.872 4V0.999998H420.872V4H423.872ZM435.672 4H438.672V0.999998H435.672V4ZM437.122 28.6L434.84 30.5468L434.854 30.5637L434.869 30.5803L437.122 28.6ZM444.922 28.6L442.64 26.6532L442.635 26.6591L444.922 28.6ZM446.372 4V0.999998H443.372V4H446.372ZM457.972 4H460.972V0.999998H457.972V4ZM453.472 35.45L451.387 33.293L453.472 35.45ZM440.922 39.8V36.8C436.102 36.8 432.751 35.5102 430.457 33.293L428.372 35.45L426.287 37.607C429.994 41.1898 435.009 42.8 440.922 42.8V39.8ZM428.372 35.45L430.457 33.293C428.183 31.0945 426.872 27.8894 426.872 23.25H423.872H420.872C420.872 29.0773 422.562 34.0055 426.287 37.607L428.372 35.45ZM423.872 23.25H426.872V4H423.872H420.872V23.25H423.872ZM423.872 4V7H435.672V4V0.999998H423.872V4ZM435.672 4H432.672V22.9H435.672H438.672V4H435.672ZM435.672 22.9H432.672C432.672 25.7753 433.163 28.5814 434.84 30.5468L437.122 28.6L439.405 26.6532C439.148 26.3519 438.672 25.3581 438.672 22.9H435.672ZM437.122 28.6L434.869 30.5803C436.475 32.4076 438.637 33.25 441.022 33.25V30.25V27.25C440.141 27.25 439.703 26.9924 439.376 26.6197L437.122 28.6ZM441.022 30.25V33.25C443.418 33.25 445.615 32.4208 447.21 30.5409L444.922 28.6L442.635 26.6591C442.363 26.9792 441.96 27.25 441.022 27.25V30.25ZM444.922 28.6L447.205 30.5468C448.881 28.5814 449.372 25.7753 449.372 22.9H446.372H443.372C443.372 25.3581 442.897 26.3519 442.64 26.6532L444.922 28.6ZM446.372 22.9H449.372V4H446.372H443.372V22.9H446.372ZM446.372 4V7H457.972V4V0.999998H446.372V4ZM457.972 4H454.972V23.25H457.972H460.972V4H457.972ZM457.972 23.25H454.972C454.972 27.8894 453.662 31.0945 451.387 33.293L453.472 35.45L455.557 37.607C459.283 34.0055 460.972 29.0773 460.972 23.25H457.972ZM453.472 35.45L451.387 33.293C449.094 35.5102 445.743 36.8 440.922 36.8V39.8V42.8C446.835 42.8 451.851 41.1898 455.557 37.607L453.472 35.45ZM463.381 39H460.381V42H463.381V39ZM463.381 4V0.999998H460.381V4H463.381ZM473.081 4L475.383 2.07626L474.484 0.999998H473.081V4ZM490.881 25.3V28.3H497.298L493.183 23.3763L490.881 25.3ZM486.381 25.3H483.381V28.3H486.381V25.3ZM486.381 4V0.999998H483.381V4H486.381ZM497.881 4H500.881V0.999998H497.881V4ZM497.881 39V42H500.881V39H497.881ZM488.181 39L485.879 40.9237L486.779 42H488.181V39ZM470.381 17.7V14.7H463.965L468.079 19.6237L470.381 17.7ZM474.881 17.7H477.881V14.7H474.881V17.7ZM474.881 39V42H477.881V39H474.881ZM463.381 39H466.381V4H463.381H460.381V39H463.381ZM463.381 4V7H473.081V4V0.999998H463.381V4ZM473.081 4L470.779 5.92374L488.579 27.2237L490.881 25.3L493.183 23.3763L475.383 2.07626L473.081 4ZM490.881 25.3V22.3H486.381V25.3V28.3H490.881V25.3ZM486.381 25.3H489.381V4H486.381H483.381V25.3H486.381ZM486.381 4V7H497.881V4V0.999998H486.381V4ZM497.881 4H494.881V39H497.881H500.881V4H497.881ZM497.881 39V36H488.181V39V42H497.881V39ZM488.181 39L490.483 37.0763L472.683 15.7763L470.381 17.7L468.079 19.6237L485.879 40.9237L488.181 39ZM470.381 17.7V20.7H474.881V17.7V14.7H470.381V17.7ZM474.881 17.7H471.881V39H474.881H477.881V17.7H474.881ZM474.881 39V36H463.381V39V42H474.881V39Z" fill="url(#paint0_linear_419_9115)" mask="url(#path-1-outside-1_419_9115)"/>
<defs>
<linearGradient id="paint0_linear_419_9115" x1="253.5" y1="-9" x2="253.5" y2="52" gradientUnits="userSpaceOnUse">
<stop stop-color="#E51D25"/>
<stop offset="1" stop-color="#1D3A69"/>
</linearGradient>
</defs>
</svg>
