<svg width="422" height="44" viewBox="0 0 422 44" fill="none" xmlns="http://www.w3.org/2000/svg">
<mask id="path-1-outside-1_326_1362" maskUnits="userSpaceOnUse" x="0" y="0" width="422" height="44" fill="black">
<rect fill="white" width="422" height="44"/>
<path d="M3.33047 39V4H13.0305L30.8305 25.3H26.3305V4H37.8305V39H28.1305L10.3305 17.7H14.8305V39H3.33047ZM54.316 17H69.916V25.5H54.316V17ZM55.116 30.1H72.616V39H43.516V4H71.966V12.9H55.116V30.1ZM85.5203 39L74.3203 4H86.4703L95.5203 33.55H89.4203L99.0203 4H109.87L118.82 33.55H112.97L122.42 4H133.62L122.42 39H109.77L102.47 14.8H105.87L98.1703 39H85.5203ZM149.291 39.8C146.357 39.8 143.524 39.4667 140.791 38.8C138.057 38.1333 135.807 37.2667 134.041 36.2L137.841 27.6C139.507 28.5667 141.357 29.35 143.391 29.95C145.457 30.5167 147.457 30.8 149.391 30.8C150.524 30.8 151.407 30.7333 152.041 30.6C152.707 30.4333 153.191 30.2167 153.491 29.95C153.791 29.65 153.941 29.3 153.941 28.9C153.941 28.2667 153.591 27.7667 152.891 27.4C152.191 27.0333 151.257 26.7333 150.091 26.5C148.957 26.2333 147.707 25.9667 146.341 25.7C144.974 25.4 143.591 25.0167 142.191 24.55C140.824 24.0833 139.557 23.4667 138.391 22.7C137.257 21.9333 136.341 20.9333 135.641 19.7C134.941 18.4333 134.591 16.8667 134.591 15C134.591 12.8333 135.191 10.8667 136.391 9.1C137.624 7.3 139.441 5.86667 141.841 4.8C144.274 3.73333 147.291 3.2 150.891 3.2C153.257 3.2 155.591 3.45 157.891 3.95C160.191 4.45 162.257 5.21666 164.091 6.25L160.541 14.8C158.807 13.9333 157.124 13.2833 155.491 12.85C153.891 12.4167 152.324 12.2 150.791 12.2C149.657 12.2 148.757 12.3 148.091 12.5C147.424 12.7 146.941 12.9667 146.641 13.3C146.374 13.6333 146.241 14 146.241 14.4C146.241 15 146.591 15.4833 147.291 15.85C147.991 16.1833 148.907 16.4667 150.041 16.7C151.207 16.9333 152.474 17.1833 153.841 17.45C155.241 17.7167 156.624 18.0833 157.991 18.55C159.357 19.0167 160.607 19.6333 161.741 20.4C162.907 21.1667 163.841 22.1667 164.541 23.4C165.241 24.6333 165.591 26.1667 165.591 28C165.591 30.1333 164.974 32.1 163.741 33.9C162.541 35.6667 160.741 37.1 158.341 38.2C155.941 39.2667 152.924 39.8 149.291 39.8ZM197.142 39.8C194.342 39.8 191.842 39.3667 189.642 38.5C187.442 37.6 185.709 36.3833 184.442 34.85C183.176 33.3167 182.542 31.5833 182.542 29.65C182.542 27.7167 182.959 26.0167 183.792 24.55C184.659 23.05 185.976 21.7167 187.742 20.55C189.542 19.35 191.809 18.2333 194.542 17.2C196.209 16.5667 197.509 15.9833 198.442 15.45C199.409 14.9167 200.092 14.4167 200.492 13.95C200.892 13.45 201.092 12.9667 201.092 12.5C201.092 11.9667 200.909 11.5333 200.542 11.2C200.209 10.8667 199.692 10.7 198.992 10.7C198.226 10.7 197.626 10.9 197.192 11.3C196.792 11.6667 196.592 12.1333 196.592 12.7C196.592 13.0667 196.676 13.4333 196.842 13.8C197.042 14.1667 197.409 14.6167 197.942 15.15C198.476 15.65 199.226 16.3167 200.192 17.15L218.592 32.8L212.542 39.65L191.342 21.45C190.209 20.5167 189.276 19.5833 188.542 18.65C187.809 17.6833 187.259 16.7167 186.892 15.75C186.526 14.7833 186.342 13.8167 186.342 12.85C186.342 10.9833 186.859 9.35 187.892 7.95C188.959 6.51666 190.426 5.4 192.292 4.6C194.192 3.8 196.409 3.4 198.942 3.4C201.276 3.4 203.309 3.76667 205.042 4.5C206.776 5.2 208.126 6.21667 209.092 7.55C210.059 8.88333 210.542 10.45 210.542 12.25C210.542 13.85 210.126 15.3 209.292 16.6C208.492 17.9 207.242 19.0833 205.542 20.15C203.876 21.2167 201.759 22.2333 199.192 23.2C197.859 23.7 196.776 24.2167 195.942 24.75C195.109 25.2833 194.509 25.85 194.142 26.45C193.776 27.0167 193.592 27.6667 193.592 28.4C193.592 28.9333 193.759 29.4333 194.092 29.9C194.459 30.3667 194.959 30.7333 195.592 31C196.259 31.2667 197.059 31.4 197.992 31.4C199.792 31.4 201.476 30.9333 203.042 30C204.642 29.0333 206.009 27.65 207.142 25.85C208.309 24.05 209.109 21.9 209.542 19.4L218.592 22.1C217.826 25.5333 216.426 28.5833 214.392 31.25C212.392 33.9167 209.909 36.0167 206.942 37.55C204.009 39.05 200.742 39.8 197.142 39.8ZM237.95 39V4H247.65L261.65 26.85H256.55L270.15 4H279.85L279.95 39H269.2L269.1 20.2H270.8L261.5 35.85H256.3L246.6 20.2H248.7V39H237.95ZM296.455 17H312.055V25.5H296.455V17ZM297.255 30.1H314.755V39H285.655V4H314.105V12.9H297.255V30.1ZM319.297 39V4H336.547C340.447 4 343.881 4.71666 346.847 6.15C349.814 7.55 352.131 9.55 353.797 12.15C355.464 14.75 356.297 17.85 356.297 21.45C356.297 25.0833 355.464 28.2167 353.797 30.85C352.131 33.45 349.814 35.4667 346.847 36.9C343.881 38.3 340.447 39 336.547 39H319.297ZM331.097 29.8H336.047C337.714 29.8 339.164 29.4833 340.397 28.85C341.664 28.2167 342.647 27.2833 343.347 26.05C344.047 24.7833 344.397 23.25 344.397 21.45C344.397 19.6833 344.047 18.1833 343.347 16.95C342.647 15.7167 341.664 14.7833 340.397 14.15C339.164 13.5167 337.714 13.2 336.047 13.2H331.097V29.8ZM360.606 39V4H372.406V39H360.606ZM374.286 39L389.586 4H401.186L416.486 39H404.286L392.986 9.6H397.586L386.286 39H374.286ZM383.386 32.9L386.386 24.4H402.486L405.486 32.9H383.386Z"/>
</mask>
<path d="M3.33047 39H0.330469V42H3.33047V39ZM3.33047 4V0.999998H0.330469V4H3.33047ZM13.0305 4L15.3325 2.07626L14.4331 0.999998H13.0305V4ZM30.8305 25.3V28.3H37.2472L33.1325 23.3763L30.8305 25.3ZM26.3305 25.3H23.3305V28.3H26.3305V25.3ZM26.3305 4V0.999998H23.3305V4H26.3305ZM37.8305 4H40.8305V0.999998H37.8305V4ZM37.8305 39V42H40.8305V39H37.8305ZM28.1305 39L25.8285 40.9237L26.7279 42H28.1305V39ZM10.3305 17.7V14.7H3.91379L8.02847 19.6237L10.3305 17.7ZM14.8305 17.7H17.8305V14.7H14.8305V17.7ZM14.8305 39V42H17.8305V39H14.8305ZM3.33047 39H6.33047V4H3.33047H0.330469V39H3.33047ZM3.33047 4V7H13.0305V4V0.999998H3.33047V4ZM13.0305 4L10.7285 5.92374L28.5285 27.2237L30.8305 25.3L33.1325 23.3763L15.3325 2.07626L13.0305 4ZM30.8305 25.3V22.3H26.3305V25.3V28.3H30.8305V25.3ZM26.3305 25.3H29.3305V4H26.3305H23.3305V25.3H26.3305ZM26.3305 4V7H37.8305V4V0.999998H26.3305V4ZM37.8305 4H34.8305V39H37.8305H40.8305V4H37.8305ZM37.8305 39V36H28.1305V39V42H37.8305V39ZM28.1305 39L30.4325 37.0763L12.6325 15.7763L10.3305 17.7L8.02847 19.6237L25.8285 40.9237L28.1305 39ZM10.3305 17.7V20.7H14.8305V17.7V14.7H10.3305V17.7ZM14.8305 17.7H11.8305V39H14.8305H17.8305V17.7H14.8305ZM14.8305 39V36H3.33047V39V42H14.8305V39ZM54.316 17V14H51.316V17H54.316ZM69.916 17H72.916V14H69.916V17ZM69.916 25.5V28.5H72.916V25.5H69.916ZM54.316 25.5H51.316V28.5H54.316V25.5ZM55.116 30.1H52.116V33.1H55.116V30.1ZM72.616 30.1H75.616V27.1H72.616V30.1ZM72.616 39V42H75.616V39H72.616ZM43.516 39H40.516V42H43.516V39ZM43.516 4V0.999998H40.516V4H43.516ZM71.966 4H74.966V0.999998H71.966V4ZM71.966 12.9V15.9H74.966V12.9H71.966ZM55.116 12.9V9.9H52.116V12.9H55.116ZM54.316 17V20H69.916V17V14H54.316V17ZM69.916 17H66.916V25.5H69.916H72.916V17H69.916ZM69.916 25.5V22.5H54.316V25.5V28.5H69.916V25.5ZM54.316 25.5H57.316V17H54.316H51.316V25.5H54.316ZM55.116 30.1V33.1H72.616V30.1V27.1H55.116V30.1ZM72.616 30.1H69.616V39H72.616H75.616V30.1H72.616ZM72.616 39V36H43.516V39V42H72.616V39ZM43.516 39H46.516V4H43.516H40.516V39H43.516ZM43.516 4V7H71.966V4V0.999998H43.516V4ZM71.966 4H68.966V12.9H71.966H74.966V4H71.966ZM71.966 12.9V9.9H55.116V12.9V15.9H71.966V12.9ZM55.116 12.9H52.116V30.1H55.116H58.116V12.9H55.116ZM85.5203 39L82.663 39.9143L83.3305 42H85.5203V39ZM74.3203 4V0.999998H70.2105L71.463 4.91432L74.3203 4ZM86.4703 4L89.3388 3.12149L88.6891 0.999998H86.4703V4ZM95.5203 33.55V36.55H99.5766L98.3888 32.6715L95.5203 33.55ZM89.4203 33.55L86.5671 32.6231L85.2914 36.55H89.4203V33.55ZM99.0203 4V0.999998H96.8406L96.1671 3.07307L99.0203 4ZM109.87 4L112.742 3.13038L112.096 0.999998H109.87V4ZM118.82 33.55V36.55H122.864L121.692 32.6804L118.82 33.55ZM112.97 33.55L110.113 32.6362L108.861 36.55H112.97V33.55ZM122.42 4V0.999998H120.23L119.563 3.0862L122.42 4ZM133.62 4L136.478 4.91432L137.73 0.999998H133.62V4ZM122.42 39V42H124.61L125.278 39.9143L122.42 39ZM109.77 39L106.898 39.8664L107.542 42H109.77V39ZM102.47 14.8V11.8H98.4318L99.5981 15.6664L102.47 14.8ZM105.87 14.8L108.729 15.7096L109.973 11.8H105.87V14.8ZM98.1703 39V42H100.364L101.029 39.9096L98.1703 39ZM85.5203 39L88.3776 38.0857L77.1776 3.08567L74.3203 4L71.463 4.91432L82.663 39.9143L85.5203 39ZM74.3203 4V7H86.4703V4V0.999998H74.3203V4ZM86.4703 4L83.6018 4.8785L92.6518 34.4285L95.5203 33.55L98.3888 32.6715L89.3388 3.12149L86.4703 4ZM95.5203 33.55V30.55H89.4203V33.55V36.55H95.5203V33.55ZM89.4203 33.55L92.2735 34.4769L101.874 4.92693L99.0203 4L96.1671 3.07307L86.5671 32.6231L89.4203 33.55ZM99.0203 4V7H109.87V4V0.999998H99.0203V4ZM109.87 4L106.999 4.86962L115.949 34.4196L118.82 33.55L121.692 32.6804L112.742 3.13038L109.87 4ZM118.82 33.55V30.55H112.97V33.55V36.55H118.82V33.55ZM112.97 33.55L115.828 34.4638L125.278 4.9138L122.42 4L119.563 3.0862L110.113 32.6362L112.97 33.55ZM122.42 4V7H133.62V4V0.999998H122.42V4ZM133.62 4L130.763 3.08567L119.563 38.0857L122.42 39L125.278 39.9143L136.478 4.91432L133.62 4ZM122.42 39V36H109.77V39V42H122.42V39ZM109.77 39L112.642 38.1336L105.342 13.9336L102.47 14.8L99.5981 15.6664L106.898 39.8664L109.77 39ZM102.47 14.8V17.8H105.87V14.8V11.8H102.47V14.8ZM105.87 14.8L103.012 13.8904L95.3115 38.0904L98.1703 39L101.029 39.9096L108.729 15.7096L105.87 14.8ZM98.1703 39V36H85.5203V39V42H98.1703V39ZM140.791 38.8L141.501 35.8854L140.791 38.8ZM134.041 36.2L131.297 34.9875L130.229 37.4032L132.49 38.7682L134.041 36.2ZM137.841 27.6L139.346 25.0049L136.45 23.3252L135.097 26.3875L137.841 27.6ZM143.391 29.95L142.542 32.8273L142.569 32.8355L142.597 32.8432L143.391 29.95ZM152.041 30.6L152.659 33.5356L152.714 33.5241L152.768 33.5104L152.041 30.6ZM153.491 29.95L155.484 32.1922L155.55 32.1337L155.612 32.0713L153.491 29.95ZM152.891 27.4L151.499 30.0575L152.891 27.4ZM150.091 26.5L149.404 29.4202L149.453 29.4318L149.502 29.4417L150.091 26.5ZM146.341 25.7L145.697 28.6302L145.732 28.6378L145.766 28.6445L146.341 25.7ZM142.191 24.55L141.221 27.389L141.232 27.3926L141.242 27.396L142.191 24.55ZM138.391 22.7L136.71 25.1848L136.726 25.1961L136.743 25.2071L138.391 22.7ZM135.641 19.7L133.015 21.1511L133.023 21.166L133.032 21.1808L135.641 19.7ZM136.391 9.1L133.916 7.40429L133.909 7.41435L136.391 9.1ZM141.841 4.8L140.636 2.05239L140.629 2.05546L140.622 2.05856L141.841 4.8ZM157.891 3.95L157.253 6.88153L157.891 3.95ZM164.091 6.25L166.861 7.40039L167.882 4.94302L165.564 3.63654L164.091 6.25ZM160.541 14.8L159.199 17.4833L162.077 18.9224L163.311 15.9504L160.541 14.8ZM155.491 12.85L154.706 15.7457L154.714 15.7477L154.721 15.7497L155.491 12.85ZM148.091 12.5L147.229 9.62652L148.091 12.5ZM146.641 13.3L144.411 11.2931L144.352 11.3579L144.298 11.4259L146.641 13.3ZM147.291 15.85L145.899 18.5075L145.949 18.534L146.001 18.5586L147.291 15.85ZM150.041 16.7L149.436 19.6384L149.444 19.6401L149.452 19.6417L150.041 16.7ZM153.841 17.45L153.266 20.3945L153.279 20.397L153.841 17.45ZM157.991 18.55L157.021 21.389L157.991 18.55ZM161.741 20.4L160.06 22.8848L160.076 22.8961L160.093 22.9071L161.741 20.4ZM164.541 23.4L161.932 24.8808V24.8808L164.541 23.4ZM163.741 33.9L161.266 32.2043L161.259 32.2144L163.741 33.9ZM158.341 38.2L159.559 40.9414L159.575 40.9344L159.591 40.9272L158.341 38.2ZM149.291 39.8V36.8C146.587 36.8 143.992 36.493 141.501 35.8854L140.791 38.8L140.08 41.7146C143.055 42.4403 146.128 42.8 149.291 42.8V39.8ZM140.791 38.8L141.501 35.8854C138.964 35.2666 137.022 34.4956 135.591 33.6318L134.041 36.2L132.49 38.7682C134.593 40.0377 137.15 41 140.08 41.7146L140.791 38.8ZM134.041 36.2L136.785 37.4125L140.585 28.8125L137.841 27.6L135.097 26.3875L131.297 34.9875L134.041 36.2ZM137.841 27.6L136.335 30.1951C138.228 31.2929 140.302 32.1664 142.542 32.8273L143.391 29.95L144.24 27.0727C142.413 26.5336 140.786 25.8404 139.346 25.0049L137.841 27.6ZM143.391 29.95L142.597 32.8432C144.895 33.4732 147.162 33.8 149.391 33.8V30.8V27.8C147.753 27.8 146.02 27.5602 144.184 27.0568L143.391 29.95ZM149.391 30.8V33.8C150.602 33.8 151.726 33.7321 152.659 33.5356L152.041 30.6L151.423 27.6643C151.089 27.7346 150.446 27.8 149.391 27.8V30.8ZM152.041 30.6L152.768 33.5104C153.614 33.2991 154.65 32.9334 155.484 32.1922L153.491 29.95L151.498 27.7078C151.57 27.6436 151.627 27.6054 151.656 27.5875C151.685 27.5695 151.694 27.5667 151.676 27.575C151.658 27.583 151.62 27.5988 151.558 27.6196C151.496 27.6403 151.415 27.6641 151.313 27.6896L152.041 30.6ZM153.491 29.95L155.612 32.0713C156.437 31.2466 156.941 30.1477 156.941 28.9H153.941H150.941C150.941 28.7146 150.978 28.4979 151.071 28.2807C151.162 28.0671 151.28 27.9178 151.369 27.8287L153.491 29.95ZM153.941 28.9H156.941C156.941 26.8568 155.68 25.4747 154.283 24.7425L152.891 27.4L151.499 30.0575C151.545 30.0817 151.39 30.0121 151.22 29.7704C151.029 29.4963 150.941 29.1742 150.941 28.9H153.941ZM152.891 27.4L154.283 24.7425C153.236 24.1945 151.999 23.8223 150.679 23.5583L150.091 26.5L149.502 29.4417C150.515 29.6443 151.145 29.8722 151.499 30.0575L152.891 27.4ZM150.091 26.5L150.778 23.5798C149.601 23.3028 148.312 23.0282 146.915 22.7555L146.341 25.7L145.766 28.6445C147.102 28.9052 148.314 29.1639 149.404 29.4202L150.091 26.5ZM146.341 25.7L146.984 22.7698C145.726 22.4936 144.444 22.139 143.139 21.7039L142.191 24.55L141.242 27.396C142.737 27.8943 144.222 28.3064 145.697 28.6302L146.341 25.7ZM142.191 24.55L143.16 21.711C142.024 21.3231 140.986 20.8161 140.038 20.1929L138.391 22.7L136.743 25.2071C138.128 26.1173 139.624 26.8436 141.221 27.389L142.191 24.55ZM138.391 22.7L140.072 20.2151C139.335 19.7168 138.73 19.066 138.25 18.2192L135.641 19.7L133.032 21.1808C133.951 22.8007 135.18 24.1499 136.71 25.1848L138.391 22.7ZM135.641 19.7L138.266 18.2489C137.873 17.537 137.591 16.5024 137.591 15H134.591H131.591C131.591 17.2309 132.008 19.3296 133.015 21.1511L135.641 19.7ZM134.591 15H137.591C137.591 13.4252 138.015 12.0474 138.872 10.7856L136.391 9.1L133.909 7.41435C132.366 9.68592 131.591 12.2415 131.591 15H134.591ZM136.391 9.1L138.865 10.7957C139.726 9.53942 141.063 8.42875 143.059 7.54143L141.841 4.8L140.622 2.05856C137.819 3.30459 135.522 5.06058 133.916 7.4043L136.391 9.1ZM141.841 4.8L143.045 7.54761C144.989 6.69529 147.566 6.2 150.891 6.2V3.2V0.199999C147.015 0.199999 143.559 0.771372 140.636 2.05239L141.841 4.8ZM150.891 3.2V6.2C153.044 6.2 155.164 6.4273 157.253 6.88153L157.891 3.95L158.528 1.01847C156.017 0.472702 153.47 0.199999 150.891 0.199999V3.2ZM157.891 3.95L157.253 6.88153C159.295 7.32529 161.074 7.99357 162.618 8.86345L164.091 6.25L165.564 3.63654C163.44 2.43976 161.087 1.5747 158.528 1.01847L157.891 3.95ZM164.091 6.25L161.32 5.0996L157.77 13.6496L160.541 14.8L163.311 15.9504L166.861 7.40039L164.091 6.25ZM160.541 14.8L161.882 12.1167C159.992 11.1716 158.117 10.4431 156.26 9.95032L155.491 12.85L154.721 15.7497C156.131 16.1236 157.622 16.695 159.199 17.4833L160.541 14.8ZM155.491 12.85L156.275 9.95432C154.44 9.45732 152.609 9.2 150.791 9.2V12.2V15.2C152.039 15.2 153.341 15.376 154.706 15.7457L155.491 12.85ZM150.791 12.2V9.2C149.524 9.2 148.294 9.30676 147.229 9.62652L148.091 12.5L148.953 15.3735C149.22 15.2932 149.791 15.2 150.791 15.2V12.2ZM148.091 12.5L147.229 9.62652C146.302 9.9045 145.229 10.3843 144.411 11.2931L146.641 13.3L148.871 15.3069C148.811 15.3735 148.758 15.418 148.724 15.4441C148.69 15.47 148.672 15.4795 148.677 15.4767C148.682 15.4739 148.706 15.4614 148.753 15.4423C148.8 15.4233 148.865 15.3996 148.953 15.3735L148.091 12.5ZM146.641 13.3L144.298 11.4259C143.636 12.2528 143.241 13.2712 143.241 14.4H146.241H149.241C149.241 14.5407 149.216 14.6966 149.16 14.8502C149.105 15.0014 149.035 15.1096 148.983 15.1741L146.641 13.3ZM146.241 14.4H143.241C143.241 16.4754 144.575 17.8142 145.899 18.5075L147.291 15.85L148.683 13.1925C148.616 13.1575 148.763 13.2177 148.933 13.453C149.131 13.7261 149.241 14.0718 149.241 14.4H146.241ZM147.291 15.85L146.001 18.5586C146.998 19.0332 148.169 19.3777 149.436 19.6384L150.041 16.7L150.646 13.7616C149.645 13.5556 148.984 13.3335 148.58 13.1414L147.291 15.85ZM150.041 16.7L149.452 19.6417C150.624 19.8761 151.896 20.1271 153.266 20.3945L153.841 17.45L154.415 14.5055C153.052 14.2396 151.79 13.9905 150.629 13.7583L150.041 16.7ZM153.841 17.45L153.279 20.397C154.539 20.637 155.786 20.9673 157.021 21.389L157.991 18.55L158.96 15.711C157.462 15.1994 155.942 14.7964 154.402 14.503L153.841 17.45ZM157.991 18.55L157.021 21.389C158.15 21.7745 159.159 22.2753 160.06 22.8848L161.741 20.4L163.422 17.9151C162.056 16.9913 160.565 16.2588 158.96 15.7109L157.991 18.55ZM161.741 20.4L160.093 22.9071C160.856 23.4084 161.462 24.0541 161.932 24.8808L164.541 23.4L167.15 21.9192C166.219 20.2792 164.959 18.9249 163.388 17.8929L161.741 20.4ZM164.541 23.4L161.932 24.8808C162.311 25.5492 162.591 26.5375 162.591 28H165.591H168.591C168.591 25.7958 168.17 23.7175 167.15 21.9192L164.541 23.4ZM165.591 28H162.591C162.591 29.5135 162.165 30.8915 161.266 32.2043L163.741 33.9L166.215 35.5957C167.783 33.3085 168.591 30.7531 168.591 28H165.591ZM163.741 33.9L161.259 32.2144C160.432 33.432 159.11 34.5474 157.091 35.4728L158.341 38.2L159.591 40.9272C162.371 39.6526 164.649 37.9013 166.222 35.5856L163.741 33.9ZM158.341 38.2L157.122 35.4586C155.223 36.3026 152.655 36.8 149.291 36.8V39.8V42.8C153.193 42.8 156.658 42.2307 159.559 40.9414L158.341 38.2ZM189.642 38.5L188.506 41.2766L188.524 41.284L188.543 41.2912L189.642 38.5ZM183.792 24.55L181.195 23.0492L181.189 23.0585L181.184 23.068L183.792 24.55ZM187.742 20.55L189.395 23.0534L189.406 23.0462L187.742 20.55ZM194.542 17.2L195.603 20.0062L195.608 20.0044L194.542 17.2ZM198.442 15.45L196.993 12.8233L196.973 12.8341L196.954 12.8453L198.442 15.45ZM200.492 13.95L202.77 15.9024L202.803 15.8638L202.835 15.8241L200.492 13.95ZM200.542 11.2L198.421 13.3213L198.471 13.3718L198.524 13.4198L200.542 11.2ZM197.192 11.3L199.219 13.5115L199.227 13.5044L197.192 11.3ZM196.842 13.8L194.111 15.0414L194.156 15.1408L194.208 15.2366L196.842 13.8ZM197.942 15.15L195.821 17.2713L195.855 17.3055L195.89 17.3386L197.942 15.15ZM200.192 17.15L198.233 19.4222L198.241 19.4287L198.249 19.4352L200.192 17.15ZM218.592 32.8L220.841 34.7859L222.864 32.4951L220.536 30.5148L218.592 32.8ZM212.542 39.65L210.588 41.9263L212.833 43.8531L214.791 41.636L212.542 39.65ZM191.342 21.45L193.296 19.1737L193.273 19.1537L193.249 19.1342L191.342 21.45ZM188.542 18.65L186.152 20.4632L186.167 20.4834L186.183 20.5035L188.542 18.65ZM186.892 15.75L189.697 14.686L186.892 15.75ZM187.892 7.95L185.485 6.15895L185.478 6.16844L187.892 7.95ZM192.292 4.6L191.128 1.83509L191.119 1.8388L191.11 1.84256L192.292 4.6ZM205.042 4.5L203.873 7.2629L203.896 7.2725L203.919 7.28172L205.042 4.5ZM209.092 7.55L211.521 5.7891V5.7891L209.092 7.55ZM209.292 16.6L206.767 14.981L206.752 15.0042L206.737 15.0277L209.292 16.6ZM205.542 20.15L203.948 17.6088L203.936 17.6159L203.925 17.6232L205.542 20.15ZM199.192 23.2L200.246 26.009L200.25 26.0075L199.192 23.2ZM195.942 24.75L194.325 22.2232L195.942 24.75ZM194.142 26.45L196.661 28.0798L196.682 28.0473L196.702 28.0144L194.142 26.45ZM194.092 29.9L191.651 31.6437L191.691 31.6995L191.733 31.7535L194.092 29.9ZM195.592 31L194.428 33.7649L194.453 33.7754L194.478 33.7854L195.592 31ZM203.042 30L204.578 32.5773L204.586 32.5726L204.594 32.5677L203.042 30ZM207.142 25.85L204.625 24.2183L204.614 24.2349L204.603 24.2516L207.142 25.85ZM209.542 19.4L210.4 16.5252L207.163 15.5596L206.586 18.8876L209.542 19.4ZM218.592 22.1L221.52 22.7538L222.13 20.0247L219.45 19.2252L218.592 22.1ZM214.392 31.25L212.007 29.431L211.999 29.4405L211.992 29.45L214.392 31.25ZM206.942 37.55L208.308 40.2211L208.32 40.2151L206.942 37.55ZM197.142 39.8V36.8C194.651 36.8 192.533 36.4146 190.742 35.7088L189.642 38.5L188.543 41.2912C191.151 42.3187 194.034 42.8 197.142 42.8V39.8ZM189.642 38.5L190.778 35.7234C188.947 34.9742 187.651 34.0236 186.755 32.9394L184.442 34.85L182.129 36.7606C183.767 38.743 185.938 40.2258 188.506 41.2766L189.642 38.5ZM184.442 34.85L186.755 32.9394C185.919 31.9269 185.542 30.8645 185.542 29.65H182.542H179.542C179.542 32.3022 180.432 34.7065 182.129 36.7606L184.442 34.85ZM182.542 29.65H185.542C185.542 28.1593 185.859 26.9844 186.401 26.032L183.792 24.55L181.184 23.068C180.058 25.0489 179.542 27.274 179.542 29.65H182.542ZM183.792 24.55L186.39 26.0508C186.978 25.0334 187.932 24.0197 189.395 23.0534L187.742 20.55L186.089 18.0466C184.019 19.4137 182.34 21.0666 181.195 23.0492L183.792 24.55ZM187.742 20.55L189.406 23.0462C190.965 22.007 193.013 20.9853 195.603 20.0062L194.542 17.2L193.481 14.3938C190.605 15.4814 188.119 16.693 186.078 18.0538L187.742 20.55ZM194.542 17.2L195.608 20.0044C197.339 19.3466 198.803 18.6993 199.931 18.0547L198.442 15.45L196.954 12.8453C196.215 13.2674 195.079 13.7868 193.477 14.3956L194.542 17.2ZM198.442 15.45L199.891 18.0767C200.963 17.4854 202.02 16.7778 202.77 15.9024L200.492 13.95L198.214 11.9976C198.215 11.9966 198.195 12.0205 198.142 12.0678C198.089 12.1146 198.013 12.177 197.908 12.2539C197.695 12.41 197.396 12.6008 196.993 12.8233L198.442 15.45ZM200.492 13.95L202.835 15.8241C203.503 14.9883 204.092 13.8625 204.092 12.5H201.092H198.092C198.092 12.0708 198.281 11.9117 198.15 12.0759L200.492 13.95ZM201.092 12.5H204.092C204.092 11.1938 203.604 9.92901 202.56 8.98018L200.542 11.2L198.524 13.4198C198.404 13.3101 198.278 13.1485 198.192 12.9439C198.107 12.7445 198.092 12.5815 198.092 12.5H201.092ZM200.542 11.2L202.664 9.07868C201.545 7.9601 200.105 7.7 198.992 7.7V10.7V13.7C199.115 13.7 199.095 13.7159 198.984 13.6801C198.858 13.6397 198.638 13.5386 198.421 13.3213L200.542 11.2ZM198.992 10.7V7.7C197.704 7.7 196.295 8.04534 195.157 9.09559L197.192 11.3L199.227 13.5044C199.172 13.5553 199.113 13.5981 199.055 13.6319C198.997 13.6654 198.949 13.6851 198.916 13.696C198.853 13.717 198.865 13.7 198.992 13.7V10.7ZM197.192 11.3L195.165 9.08854C194.115 10.0513 193.592 11.3345 193.592 12.7H196.592H199.592C199.592 12.7757 199.577 12.9256 199.5 13.1068C199.421 13.291 199.311 13.4273 199.219 13.5115L197.192 11.3ZM196.592 12.7H193.592C193.592 13.5355 193.785 14.3236 194.111 15.0414L196.842 13.8L199.573 12.5586C199.568 12.5473 199.574 12.5567 199.58 12.5851C199.587 12.6144 199.592 12.654 199.592 12.7H196.592ZM196.842 13.8L194.208 15.2366C194.614 15.9803 195.22 16.6704 195.821 17.2713L197.942 15.15L200.064 13.0287C199.849 12.8139 199.696 12.6444 199.593 12.5175C199.485 12.3847 199.461 12.336 199.476 12.3634L196.842 13.8ZM197.942 15.15L195.89 17.3386C196.468 17.8805 197.255 18.5785 198.233 19.4222L200.192 17.15L202.151 14.8778C201.196 14.0549 200.483 13.4195 199.994 12.9614L197.942 15.15ZM200.192 17.15L198.249 19.4352L216.649 35.0852L218.592 32.8L220.536 30.5148L202.136 14.8648L200.192 17.15ZM218.592 32.8L216.344 30.814L210.294 37.6641L212.542 39.65L214.791 41.636L220.841 34.7859L218.592 32.8ZM212.542 39.65L214.496 37.3737L193.296 19.1737L191.342 21.45L189.388 23.7263L210.588 41.9263L212.542 39.65ZM191.342 21.45L193.249 19.1342C192.245 18.3074 191.474 17.5255 190.901 16.7965L188.542 18.65L186.183 20.5035C187.077 21.6411 188.172 22.726 189.435 23.7658L191.342 21.45ZM188.542 18.65L190.932 16.8368C190.343 16.0602 189.946 15.3426 189.697 14.686L186.892 15.75L184.087 16.814C184.571 18.0907 185.275 19.3064 186.152 20.4632L188.542 18.65ZM186.892 15.75L189.697 14.686C189.45 14.0355 189.342 13.4285 189.342 12.85H186.342H183.342C183.342 14.2048 183.601 15.5312 184.087 16.814L186.892 15.75ZM186.342 12.85H189.342C189.342 11.5751 189.682 10.5772 190.306 9.73155L187.892 7.95L185.478 6.16844C184.036 8.12282 183.342 10.3916 183.342 12.85H186.342ZM187.892 7.95L190.299 9.74103C191.008 8.78764 192.026 7.97798 193.474 7.35743L192.292 4.6L191.11 1.84256C188.825 2.82202 186.909 4.24569 185.485 6.15896L187.892 7.95ZM192.292 4.6L193.456 7.3649C194.914 6.75121 196.72 6.4 198.942 6.4V3.4V0.4C196.098 0.4 193.47 0.848788 191.128 1.83509L192.292 4.6ZM198.942 3.4V6.4C200.967 6.4 202.587 6.71871 203.873 7.2629L205.042 4.5L206.211 1.73709C204.031 0.814616 201.584 0.4 198.942 0.4V3.4ZM205.042 4.5L203.919 7.28172C205.202 7.8 206.07 8.49298 206.663 9.3109L209.092 7.55L211.521 5.7891C210.181 3.94035 208.349 2.6 206.166 1.71827L205.042 4.5ZM209.092 7.55L206.663 9.3109C207.224 10.0842 207.542 11.0206 207.542 12.25H210.542H213.542C213.542 9.87943 212.894 7.68247 211.521 5.7891L209.092 7.55ZM210.542 12.25H207.542C207.542 13.2979 207.279 14.1823 206.767 14.981L209.292 16.6L211.818 18.219C212.972 16.4177 213.542 14.4021 213.542 12.25H210.542ZM209.292 16.6L206.737 15.0277C206.242 15.8318 205.375 16.7131 203.948 17.6088L205.542 20.15L207.137 22.6912C209.109 21.4536 210.742 19.9682 211.847 18.1723L209.292 16.6ZM205.542 20.15L203.925 17.6232C202.488 18.5432 200.575 19.4736 198.135 20.3925L199.192 23.2L200.25 26.0075C202.943 24.9931 205.264 23.8901 207.159 22.6768L205.542 20.15ZM199.192 23.2L198.139 20.391C196.686 20.9357 195.395 21.5387 194.325 22.2232L195.942 24.75L197.559 27.2768C198.157 26.8946 199.031 26.4643 200.246 26.009L199.192 23.2ZM195.942 24.75L194.325 22.2232C193.255 22.9083 192.262 23.7727 191.582 24.8857L194.142 26.45L196.702 28.0144C196.755 27.9273 196.963 27.6584 197.559 27.2768L195.942 24.75ZM194.142 26.45L191.623 24.8202C190.915 25.9144 190.592 27.1405 190.592 28.4H193.592H196.592C196.592 28.1928 196.636 28.1189 196.661 28.0798L194.142 26.45ZM193.592 28.4H190.592C190.592 29.6065 190.983 30.7087 191.651 31.6437L194.092 29.9L196.533 28.1563C196.525 28.145 196.544 28.1688 196.563 28.2263C196.583 28.2859 196.592 28.3481 196.592 28.4H193.592ZM194.092 29.9L191.733 31.7535C192.461 32.6796 193.4 33.3322 194.428 33.7649L195.592 31L196.756 28.2351C196.517 28.1345 196.457 28.0537 196.451 28.0465L194.092 29.9ZM195.592 31L194.478 33.7854C195.588 34.2293 196.786 34.4 197.992 34.4V31.4V28.4C197.332 28.4 196.93 28.304 196.706 28.2146L195.592 31ZM197.992 31.4V34.4C200.34 34.4 202.553 33.7835 204.578 32.5773L203.042 30L201.507 27.4227C200.398 28.0832 199.244 28.4 197.992 28.4V31.4ZM203.042 30L204.594 32.5677C206.646 31.3279 208.333 29.5892 209.681 27.4484L207.142 25.85L204.603 24.2516C203.685 25.7108 202.639 26.7388 201.491 27.4323L203.042 30ZM207.142 25.85L209.66 27.4817C211.083 25.2858 212.008 22.7394 212.498 19.9124L209.542 19.4L206.586 18.8876C206.21 21.0606 205.535 22.8142 204.625 24.2183L207.142 25.85ZM209.542 19.4L208.685 22.2748L217.735 24.9748L218.592 22.1L219.45 19.2252L210.4 16.5252L209.542 19.4ZM218.592 22.1L215.664 21.4462C214.987 24.4777 213.764 27.1259 212.007 29.431L214.392 31.25L216.778 33.069C219.087 30.0408 220.664 26.5889 221.52 22.7538L218.592 22.1ZM214.392 31.25L211.992 29.45C210.264 31.7542 208.13 33.5588 205.565 34.8849L206.942 37.55L208.32 40.2151C211.687 38.4745 214.52 36.0791 216.792 33.05L214.392 31.25ZM206.942 37.55L205.576 34.879C203.104 36.1432 200.312 36.8 197.142 36.8V39.8V42.8C201.172 42.8 204.914 41.9568 208.308 40.221L206.942 37.55ZM237.95 39H234.95V42H237.95V39ZM237.95 4V0.999998H234.95V4H237.95ZM247.65 4L250.208 2.4327L249.33 0.999998H247.65V4ZM261.65 26.85V29.85H267.006L264.208 25.2827L261.65 26.85ZM256.55 26.85L253.972 25.3156L251.273 29.85H256.55V26.85ZM270.15 4V0.999998H268.444L267.572 2.46564L270.15 4ZM279.85 4L282.85 3.99143L282.841 0.999998H279.85V4ZM279.95 39V42H282.958L282.95 38.9914L279.95 39ZM269.2 39L266.2 39.016L266.216 42H269.2V39ZM269.1 20.2V17.2H266.084L266.1 20.216L269.1 20.2ZM270.8 20.2L273.379 21.7326L276.072 17.2H270.8V20.2ZM261.5 35.85V38.85H263.207L264.079 37.3826L261.5 35.85ZM256.3 35.85L253.75 37.4305L254.63 38.85H256.3V35.85ZM246.6 20.2V17.2H241.211L244.05 21.7805L246.6 20.2ZM248.7 20.2H251.7V17.2H248.7V20.2ZM248.7 39V42H251.7V39H248.7ZM237.95 39H240.95V4H237.95H234.95V39H237.95ZM237.95 4V7H247.65V4V0.999998H237.95V4ZM247.65 4L245.092 5.56729L259.092 28.4173L261.65 26.85L264.208 25.2827L250.208 2.4327L247.65 4ZM261.65 26.85V23.85H256.55V26.85V29.85H261.65V26.85ZM256.55 26.85L259.128 28.3843L272.728 5.53435L270.15 4L267.572 2.46564L253.972 25.3156L256.55 26.85ZM270.15 4V7H279.85V4V0.999998H270.15V4ZM279.85 4L276.85 4.00857L276.95 39.0086L279.95 39L282.95 38.9914L282.85 3.99143L279.85 4ZM279.95 39V36H269.2V39V42H279.95V39ZM269.2 39L272.2 38.984L272.1 20.184L269.1 20.2L266.1 20.216L266.2 39.016L269.2 39ZM269.1 20.2V23.2H270.8V20.2V17.2H269.1V20.2ZM270.8 20.2L268.221 18.6674L258.921 34.3174L261.5 35.85L264.079 37.3826L273.379 21.7326L270.8 20.2ZM261.5 35.85V32.85H256.3V35.85V38.85H261.5V35.85ZM256.3 35.85L258.85 34.2695L249.15 18.6195L246.6 20.2L244.05 21.7805L253.75 37.4305L256.3 35.85ZM246.6 20.2V23.2H248.7V20.2V17.2H246.6V20.2ZM248.7 20.2H245.7V39H248.7H251.7V20.2H248.7ZM248.7 39V36H237.95V39V42H248.7V39ZM296.455 17V14H293.455V17H296.455ZM312.055 17H315.055V14H312.055V17ZM312.055 25.5V28.5H315.055V25.5H312.055ZM296.455 25.5H293.455V28.5H296.455V25.5ZM297.255 30.1H294.255V33.1H297.255V30.1ZM314.755 30.1H317.755V27.1H314.755V30.1ZM314.755 39V42H317.755V39H314.755ZM285.655 39H282.655V42H285.655V39ZM285.655 4V0.999998H282.655V4H285.655ZM314.105 4H317.105V0.999998H314.105V4ZM314.105 12.9V15.9H317.105V12.9H314.105ZM297.255 12.9V9.9H294.255V12.9H297.255ZM296.455 17V20H312.055V17V14H296.455V17ZM312.055 17H309.055V25.5H312.055H315.055V17H312.055ZM312.055 25.5V22.5H296.455V25.5V28.5H312.055V25.5ZM296.455 25.5H299.455V17H296.455H293.455V25.5H296.455ZM297.255 30.1V33.1H314.755V30.1V27.1H297.255V30.1ZM314.755 30.1H311.755V39H314.755H317.755V30.1H314.755ZM314.755 39V36H285.655V39V42H314.755V39ZM285.655 39H288.655V4H285.655H282.655V39H285.655ZM285.655 4V7H314.105V4V0.999998H285.655V4ZM314.105 4H311.105V12.9H314.105H317.105V4H314.105ZM314.105 12.9V9.9H297.255V12.9V15.9H314.105V12.9ZM297.255 12.9H294.255V30.1H297.255H300.255V12.9H297.255ZM319.297 39H316.297V42H319.297V39ZM319.297 4V0.999998H316.297V4H319.297ZM346.847 6.15L345.542 8.85124L345.555 8.85722L345.567 8.86307L346.847 6.15ZM353.797 12.15L351.272 13.769L353.797 12.15ZM353.797 30.85L356.323 32.469L356.328 32.4617L356.332 32.4544L353.797 30.85ZM346.847 36.9L348.128 39.6131L348.14 39.6072L348.152 39.6012L346.847 36.9ZM331.097 29.8H328.097V32.8H331.097V29.8ZM340.397 28.85L339.056 26.1667L339.041 26.1739L339.027 26.1813L340.397 28.85ZM343.347 26.05L345.956 27.5308L345.965 27.516L345.973 27.5011L343.347 26.05ZM343.347 16.95L345.956 15.4692V15.4692L343.347 16.95ZM340.397 14.15L339.027 16.8187L339.041 16.8261L339.056 16.8333L340.397 14.15ZM331.097 13.2V10.2H328.097V13.2H331.097ZM319.297 39H322.297V4H319.297H316.297V39H319.297ZM319.297 4V7H336.547V4V0.999998H319.297V4ZM336.547 4V7C340.078 7 343.051 7.64746 345.542 8.85124L346.847 6.15L348.152 3.44876C344.711 1.78587 340.817 0.999998 336.547 0.999998V4ZM346.847 6.15L345.567 8.86307C348.057 10.0382 349.928 11.6733 351.272 13.769L353.797 12.15L356.323 10.531C354.333 7.42667 351.571 5.06179 348.128 3.43693L346.847 6.15ZM353.797 12.15L351.272 13.769C352.58 15.8102 353.297 18.327 353.297 21.45H356.297H359.297C359.297 17.373 358.348 13.6898 356.323 10.531L353.797 12.15ZM356.297 21.45H353.297C353.297 24.6113 352.578 27.1674 351.262 29.2456L353.797 30.85L356.332 32.4544C358.35 29.266 359.297 25.5554 359.297 21.45H356.297ZM353.797 30.85L351.272 29.231C349.924 31.333 348.045 32.9897 345.542 34.1988L346.847 36.9L348.152 39.6012C351.583 37.9436 354.337 35.567 356.323 32.469L353.797 30.85ZM346.847 36.9L345.567 34.1869C343.069 35.3656 340.087 36 336.547 36V39V42C340.807 42 344.692 41.2344 348.128 39.6131L346.847 36.9ZM336.547 39V36H319.297V39V42H336.547V39ZM331.097 29.8V32.8H336.047V29.8V26.8H331.097V29.8ZM336.047 29.8V32.8C338.095 32.8 340.033 32.4095 341.768 31.5187L340.397 28.85L339.027 26.1813C338.295 26.5571 337.333 26.8 336.047 26.8V29.8ZM340.397 28.85L341.739 31.5333C343.539 30.6333 344.963 29.2811 345.956 27.5308L343.347 26.05L340.738 24.5692C340.332 25.2856 339.789 25.8 339.056 26.1667L340.397 28.85ZM343.347 26.05L345.973 27.5011C346.971 25.6944 347.397 23.6356 347.397 21.45H344.397H341.397C341.397 22.8644 341.123 23.8723 340.722 24.5989L343.347 26.05ZM344.397 21.45H347.397C347.397 19.2902 346.968 17.2522 345.956 15.4692L343.347 16.95L340.738 18.4308C341.126 19.1145 341.397 20.0764 341.397 21.45H344.397ZM343.347 16.95L345.956 15.4692C344.963 13.7189 343.539 12.3666 341.739 11.4667L340.397 14.15L339.056 16.8333C339.789 17.2 340.332 17.7144 340.738 18.4308L343.347 16.95ZM340.397 14.15L341.768 11.4813C340.033 10.5904 338.095 10.2 336.047 10.2V13.2V16.2C337.333 16.2 338.295 16.4429 339.027 16.8187L340.397 14.15ZM336.047 13.2V10.2H331.097V13.2V16.2H336.047V13.2ZM331.097 13.2H328.097V29.8H331.097H334.097V13.2H331.097ZM360.606 39H357.606V42H360.606V39ZM360.606 4V0.999998H357.606V4H360.606ZM372.406 4H375.406V0.999998H372.406V4ZM372.406 39V42H375.406V39H372.406ZM360.606 39H363.606V4H360.606H357.606V39H360.606ZM360.606 4V7H372.406V4V0.999998H360.606V4ZM372.406 4H369.406V39H372.406H375.406V4H372.406ZM372.406 39V36H360.606V39V42H372.406V39ZM374.286 39L371.538 37.7984L369.701 42H374.286V39ZM389.586 4V0.999998H387.624L386.837 2.79837L389.586 4ZM401.186 4L403.935 2.79837L403.149 0.999998H401.186V4ZM416.486 39V42H421.072L419.235 37.7984L416.486 39ZM404.286 39L401.486 40.0763L402.225 42H404.286V39ZM392.986 9.6V6.6H388.619L390.186 10.6763L392.986 9.6ZM397.586 9.6L400.387 10.6763L401.953 6.6H397.586V9.6ZM386.286 39V42H388.347L389.087 40.0763L386.286 39ZM383.386 32.9L380.557 31.9015L379.146 35.9H383.386V32.9ZM386.386 24.4V21.4H384.264L383.557 23.4015L386.386 24.4ZM402.486 24.4L405.315 23.4015L404.609 21.4H402.486V24.4ZM405.486 32.9V35.9H409.727L408.315 31.9015L405.486 32.9ZM374.286 39L377.035 40.2016L392.335 5.20163L389.586 4L386.837 2.79837L371.538 37.7984L374.286 39ZM389.586 4V7H401.186V4V0.999998H389.586V4ZM401.186 4L398.438 5.20163L413.737 40.2016L416.486 39L419.235 37.7984L403.935 2.79837L401.186 4ZM416.486 39V36H404.286V39V42H416.486V39ZM404.286 39L407.087 37.9237L395.787 8.5237L392.986 9.6L390.186 10.6763L401.486 40.0763L404.286 39ZM392.986 9.6V12.6H397.586V9.6V6.6H392.986V9.6ZM397.586 9.6L394.786 8.5237L383.486 37.9237L386.286 39L389.087 40.0763L400.387 10.6763L397.586 9.6ZM386.286 39V36H374.286V39V42H386.286V39ZM383.386 32.9L386.215 33.8985L389.215 25.3985L386.386 24.4L383.557 23.4015L380.557 31.9015L383.386 32.9ZM386.386 24.4V27.4H402.486V24.4V21.4H386.386V24.4ZM402.486 24.4L399.657 25.3985L402.657 33.8985L405.486 32.9L408.315 31.9015L405.315 23.4015L402.486 24.4ZM405.486 32.9V29.9H383.386V32.9V35.9H405.486V32.9Z" fill="url(#paint0_linear_326_1362)" mask="url(#path-1-outside-1_326_1362)"/>
<defs>
<linearGradient id="paint0_linear_326_1362" x1="208" y1="-9" x2="208" y2="52" gradientUnits="userSpaceOnUse">
<stop stop-color="#E51D25"/>
<stop offset="1" stop-color="#1D3A69"/>
</linearGradient>
</defs>
</svg>
